<svg width="24" height="24" viewBox="0 0 24 24" fill="none" xmlns="http://www.w3.org/2000/svg">
<path fill-rule="evenodd" clip-rule="evenodd" d="M4.25 9.00785C4.25 4.7241 7.719 1.25 12 1.25C16.281 1.25 19.75 4.7241 19.75 9.00785C19.75 14.0491 16.5148 19.0113 13.1498 22.2801C12.5047 22.9066 11.4953 22.9066 10.8502 22.2801C9.95643 21.4118 8.31999 19.6084 6.9018 17.2826C5.48822 14.9643 4.25 12.0594 4.25 9.00785ZM12.75 6C12.75 5.58579 12.4142 5.25 12 5.25C11.5858 5.25 11.25 5.58579 11.25 6V8.25H9C8.58579 8.25 8.25 8.58579 8.25 9C8.25 9.41421 8.58579 9.75 9 9.75H11.25V12C11.25 12.4142 11.5858 12.75 12 12.75C12.4142 12.75 12.75 12.4142 12.75 12V9.75H15C15.4142 9.75 15.75 9.41421 15.75 9C15.75 8.58579 15.4142 8.25 15 8.25H12.75V6Z" fill="#231F2C"/>
</svg>
