<svg width="24" height="24" viewBox="0 0 24 24" fill="none" xmlns="http://www.w3.org/2000/svg">
<path fill-rule="evenodd" clip-rule="evenodd" d="M4.25 9.00785C4.25 4.7241 7.719 1.25 12 1.25C16.281 1.25 19.75 4.7241 19.75 9.00785C19.75 14.0264 16.5245 19.0019 13.1498 22.2801C12.5047 22.9066 11.4953 22.9066 10.8502 22.2801C9.95643 21.4118 8.31999 19.6084 6.9018 17.2826C5.48822 14.9643 4.25 12.0594 4.25 9.00785ZM15.5303 7.53033C15.8232 7.23744 15.8232 6.76256 15.5303 6.46967C15.2374 6.17678 14.7626 6.17678 14.4697 6.46967L11 9.93934L9.53033 8.46967C9.23744 8.17678 8.76256 8.17678 8.46967 8.46967C8.17678 8.76256 8.17678 9.23744 8.46967 9.53033L10.4697 11.5303C10.7626 11.8232 11.2374 11.8232 11.5303 11.5303L15.5303 7.53033Z" fill="#231F2C"/>
</svg>
