<svg width="24" height="24" viewBox="0 0 24 24" fill="none" xmlns="http://www.w3.org/2000/svg">
<path fill-rule="evenodd" clip-rule="evenodd" d="M4.25 9.00785C4.25 4.7241 7.719 1.25 12 1.25C16.281 1.25 19.75 4.7241 19.75 9.00785C19.75 14.0264 16.5245 19.0019 13.1498 22.2801C12.5047 22.9066 11.4953 22.9066 10.8502 22.2801C9.95643 21.4118 8.31999 19.6084 6.9018 17.2826C5.48822 14.9643 4.25 12.0594 4.25 9.00785ZM12 5.25C10.4812 5.25 9.25 6.48122 9.25 8C9.25 8.41421 9.58579 8.75 10 8.75C10.4142 8.75 10.75 8.41421 10.75 8C10.75 7.30964 11.3096 6.75 12 6.75H12.1459C12.7466 6.75 13.25 7.25258 13.25 7.87148C13.25 8.2775 13.019 8.65196 12.6646 8.82918C11.7976 9.26266 11.25 10.1488 11.25 11.118V11.5C11.25 11.9142 11.5858 12.25 12 12.25C12.4142 12.25 12.75 11.9142 12.75 11.5V11.118C12.75 10.7169 12.9766 10.3502 13.3354 10.1708C14.2067 9.73517 14.75 8.83587 14.75 7.87148C14.75 6.44241 13.5932 5.25 12.1459 5.25H12ZM12.75 14C12.75 13.5858 12.4142 13.25 12 13.25C11.5858 13.25 11.25 13.5858 11.25 14V14.5C11.25 14.9142 11.5858 15.25 12 15.25C12.4142 15.25 12.75 14.9142 12.75 14.5V14Z" fill="#231F2C"/>
</svg>
