<svg width="24" height="24" viewBox="0 0 24 24" fill="none" xmlns="http://www.w3.org/2000/svg">
<path d="M8.75 9C8.75 7.20507 10.2051 5.75 12 5.75C13.7949 5.75 15.25 7.20507 15.25 9C15.25 10.7949 13.7949 12.25 12 12.25C10.2051 12.25 8.75 10.7949 8.75 9Z" fill="#231F2C"/>
<path fill-rule="evenodd" clip-rule="evenodd" d="M4.25 9.00785C4.25 4.7241 7.719 1.25 12 1.25C16.281 1.25 19.75 4.7241 19.75 9.00785C19.75 14.0264 16.5245 19.0019 13.1498 22.2801C12.5047 22.9066 11.4953 22.9066 10.8502 22.2801C9.95643 21.4118 8.31999 19.6084 6.9018 17.2826C5.48822 14.9643 4.25 12.0594 4.25 9.00785ZM12 4.25C9.37665 4.25 7.25 6.37665 7.25 9C7.25 11.6234 9.37665 13.75 12 13.75C14.6234 13.75 16.75 11.6234 16.75 9C16.75 6.37665 14.6234 4.25 12 4.25Z" fill="#231F2C"/>
</svg>
