<svg width="24" height="24" viewBox="0 0 24 24" fill="none" xmlns="http://www.w3.org/2000/svg">
<path d="M9.75 8C9.75 6.75736 10.7574 5.75 12 5.75C13.2426 5.75 14.25 6.75736 14.25 8C14.25 9.24264 13.2426 10.25 12 10.25C10.7574 10.25 9.75 9.24264 9.75 8Z" fill="#231F2C"/>
<path fill-rule="evenodd" clip-rule="evenodd" d="M5.25005 7.95667C5.25005 4.24756 8.27726 1.25 12 1.25C15.7228 1.25 18.75 4.24756 18.75 7.95667C18.75 12.3288 15.9819 16.5043 13.058 19.3209C12.4641 19.893 11.536 19.893 10.9421 19.3209C10.1709 18.5781 8.76178 17.0379 7.54015 15.0512C6.32326 13.0721 5.25005 10.5813 5.25005 7.95667ZM12 4.25C9.92893 4.25 8.25 5.92893 8.25 8C8.25 10.0711 9.92893 11.75 12 11.75C14.0711 11.75 15.75 10.0711 15.75 8C15.75 5.92893 14.0711 4.25 12 4.25Z" fill="#231F2C"/>
<path d="M17.5503 17.3998C17.8818 17.1514 18.3519 17.2188 18.6003 17.5503L20.4323 19.9956C20.4406 20.0066 20.4485 20.0178 20.4561 20.0293C21.2314 21.1922 20.3978 22.75 19 22.75H5.00001C3.6023 22.75 2.76861 21.1922 3.54392 20.0293C3.55155 20.0178 3.55949 20.0066 3.56774 19.9956L5.39982 17.5503C5.64818 17.2188 6.11825 17.1514 6.44974 17.3998C6.78124 17.6481 6.84863 18.1182 6.60026 18.4497L4.78456 20.8732C4.6869 21.0378 4.80504 21.25 5.00001 21.25H19C19.195 21.25 19.3132 21.0378 19.2155 20.8731L17.3998 18.4497C17.1515 18.1182 17.2188 17.6481 17.5503 17.3998Z" fill="#231F2C"/>
</svg>
