<svg width="24" height="24" viewBox="0 0 24 24" fill="none" xmlns="http://www.w3.org/2000/svg">
<path fill-rule="evenodd" clip-rule="evenodd" d="M5.35352 3.25C5.67998 2.09575 6.74122 1.25 8 1.25H10C11.2588 1.25 12.32 2.09575 12.6465 3.25H13C15.0711 3.25 16.75 4.92893 16.75 7V7.5C16.75 7.91421 16.4142 8.25 16 8.25C15.5858 8.25 15.25 7.91421 15.25 7.5V7C15.25 5.75736 14.2426 4.75 13 4.75H12.75V5C12.75 5.9665 11.9665 6.75 11 6.75H7C6.0335 6.75 5.25 5.9665 5.25 5V4.75H5C3.75736 4.75 2.75 5.75736 2.75 7V19.1459C2.75 20.0084 3.23467 20.6514 3.92658 20.798L3.77116 21.5317L3.92658 20.798C4.99977 21.0253 6.65378 21.25 9 21.25C9.34078 21.25 9.66695 21.2453 9.97885 21.2365C10.3929 21.2248 10.738 21.551 10.7497 21.965C10.7614 22.3791 10.4352 22.7242 10.0212 22.7359C9.69496 22.7451 9.35469 22.75 9 22.75C6.55776 22.75 4.79907 22.5161 3.61574 22.2654C2.08435 21.941 1.25 20.556 1.25 19.1459V7C1.25 4.92893 2.92893 3.25 5 3.25H5.35352ZM8 2.75C7.30964 2.75 6.75 3.30964 6.75 4V5C6.75 5.13807 6.86193 5.25 7 5.25H11C11.1381 5.25 11.25 5.13807 11.25 5V4C11.25 3.30964 10.6904 2.75 10 2.75H8ZM16 10.75C13.1005 10.75 10.75 13.1005 10.75 16C10.75 18.8995 13.1005 21.25 16 21.25C18.8995 21.25 21.25 18.8995 21.25 16C21.25 13.1005 18.8995 10.75 16 10.75ZM9.25 16C9.25 12.2721 12.2721 9.25 16 9.25C19.7279 9.25 22.75 12.2721 22.75 16C22.75 19.7279 19.7279 22.75 16 22.75C12.2721 22.75 9.25 19.7279 9.25 16ZM5.25 11C5.25 10.5858 5.58579 10.25 6 10.25H9C9.41421 10.25 9.75 10.5858 9.75 11C9.75 11.4142 9.41421 11.75 9 11.75H6C5.58579 11.75 5.25 11.4142 5.25 11ZM16 12.25C16.4142 12.25 16.75 12.5858 16.75 13V15.25H19C19.4142 15.25 19.75 15.5858 19.75 16C19.75 16.4142 19.4142 16.75 19 16.75H16.75V19C16.75 19.4142 16.4142 19.75 16 19.75C15.5858 19.75 15.25 19.4142 15.25 19V16.75H13C12.5858 16.75 12.25 16.4142 12.25 16C12.25 15.5858 12.5858 15.25 13 15.25H15.25V13C15.25 12.5858 15.5858 12.25 16 12.25ZM5.25 15C5.25 14.5858 5.58579 14.25 6 14.25H7C7.41421 14.25 7.75 14.5858 7.75 15C7.75 15.4142 7.41421 15.75 7 15.75H6C5.58579 15.75 5.25 15.4142 5.25 15Z" fill="#231F2C"/>
</svg>
