<svg width="24" height="24" viewBox="0 0 24 24" fill="none" xmlns="http://www.w3.org/2000/svg">
<path fill-rule="evenodd" clip-rule="evenodd" d="M11 2.75C7.54822 2.75 4.75 5.54822 4.75 9C4.75 10.8712 5.57134 12.5496 6.87565 13.6961C7.18675 13.9696 7.21726 14.4435 6.94379 14.7546C6.67032 15.0657 6.19643 15.0962 5.88532 14.8227C4.27079 13.4035 3.25 11.3205 3.25 9C3.25 4.71979 6.7198 1.25 11 1.25C13.3475 1.25 15.4518 2.29465 16.8719 3.94184C17.1424 4.25556 17.1073 4.72914 16.7936 4.99961C16.4799 5.27007 16.0063 5.23501 15.7358 4.92128C14.5886 3.59052 12.8928 2.75 11 2.75ZM20.5303 3.46967C20.8232 3.76256 20.8232 4.23744 20.5303 4.53033L18.3928 6.6679C18.625 7.40472 18.75 8.18839 18.75 9C18.75 11.0156 17.9796 12.8529 16.7185 14.2309C16.4388 14.5365 15.9644 14.5575 15.6588 14.2778C15.3533 13.9982 15.3323 13.5238 15.6119 13.2182C16.6299 12.1059 17.25 10.6262 17.25 9C17.25 8.62642 17.2173 8.26088 17.1547 7.90596L8.12304 16.9376L8.38548 19.0371L11.8472 18.2679C12.2516 18.178 12.6522 18.433 12.742 18.8373C12.8319 19.2417 12.577 19.6423 12.1726 19.7321L8.6285 20.5197C8.82715 20.9544 9.26529 21.25 9.76556 21.25H12.2344C12.8648 21.25 13.3966 20.7806 13.4748 20.155L13.8814 16.9021L10.1634 17.732C9.75912 17.8222 9.35825 17.5676 9.26801 17.1634C9.17778 16.7591 9.43235 16.3582 9.83662 16.268L14.5944 15.2061C14.8325 15.1529 15.0817 15.2189 15.2622 15.3831C15.4428 15.5472 15.5322 15.7889 15.502 16.0311L14.9632 20.3411C14.7912 21.7173 13.6213 22.75 12.2344 22.75H9.76556C8.37868 22.75 7.20882 21.7173 7.0368 20.3411L6.77933 18.2813L4.53033 20.5303C4.23744 20.8232 3.76256 20.8232 3.46967 20.5303C3.17678 20.2374 3.17678 19.7626 3.46967 19.4697L19.4697 3.46967C19.7626 3.17678 20.2374 3.17678 20.5303 3.46967Z" fill="#231F2C"/>
</svg>
