<svg width="24" height="24" viewBox="0 0 24 24" fill="none" xmlns="http://www.w3.org/2000/svg">
<path fill-rule="evenodd" clip-rule="evenodd" d="M6.98657 1.6646C7.17181 2.03509 7.02164 2.48559 6.65115 2.67083C5.63409 3.17936 4.94658 4.17145 4.82754 5.30231L4.74583 6.07853C4.70247 6.49046 4.33338 6.78925 3.92144 6.74589C3.5095 6.70253 3.21071 6.33344 3.25408 5.9215L3.33578 5.14528C3.50841 3.50534 4.50542 2.06665 5.98033 1.32919C6.35082 1.14395 6.80132 1.29412 6.98657 1.6646ZM17.3291 1.6646C17.5144 1.29412 17.9649 1.14395 18.3354 1.32919C19.8103 2.06665 20.8073 3.50534 20.9799 5.14528L21.0616 5.9215C21.105 6.33344 20.8062 6.70253 20.3943 6.74589C19.9823 6.78925 19.6132 6.49046 19.5699 6.07853L19.4882 5.30231C19.3691 4.17145 18.6816 3.17936 17.6645 2.67083C17.2941 2.48559 17.1439 2.03509 17.3291 1.6646ZM11.9999 1.25001C12.4142 1.25001 12.7499 1.5858 12.7499 2.00001V2.25001H13.3471C15.8038 2.25001 17.8552 4.12334 18.0776 6.56997L18.3832 9.93211C18.4207 10.3446 18.1167 10.7094 17.7042 10.7469C17.2917 10.7844 16.9269 10.4804 16.8894 10.0679L16.5837 6.70577C16.4316 5.03176 15.028 3.75001 13.3471 3.75001H10.6528C8.9719 3.75001 7.56834 5.03177 7.41615 6.70577L6.8496 12.9378C6.76985 13.8152 6.44768 14.653 5.91911 15.3578L4.5036 17.2451C4.44723 17.3203 4.4445 17.3964 4.46637 17.4551C4.48709 17.5108 4.52966 17.554 4.60811 17.5684C6.18323 17.8572 8.89756 18.25 11.9999 18.25C15.1023 18.25 17.8167 17.8572 19.3918 17.5684C19.4702 17.554 19.5128 17.5108 19.5335 17.4551C19.5554 17.3964 19.5527 17.3203 19.4963 17.2451L18.0808 15.3578C17.5522 14.653 17.2301 13.8152 17.1503 12.9378C17.1128 12.5253 17.4168 12.1605 17.8293 12.123C18.2418 12.0855 18.6066 12.3895 18.6441 12.802C18.6987 13.4023 18.9191 13.9756 19.2808 14.4578L20.6963 16.3451C21.4407 17.3377 20.9444 18.8087 19.6623 19.0438C18.5169 19.2539 16.7911 19.517 14.7499 19.6552V20C14.7499 21.5188 13.5187 22.75 11.9999 22.75C10.4812 22.75 9.24995 21.5188 9.24995 20V19.6552C7.20881 19.517 5.48303 19.2539 4.33757 19.0438C3.05548 18.8087 2.5592 17.3377 3.3036 16.3451L4.71911 14.4578C5.08076 13.9756 5.30119 13.4023 5.35576 12.802L5.92231 6.56997C6.14474 4.12334 8.19609 2.25001 10.6528 2.25001H11.2499V2.00001C11.2499 1.5858 11.5857 1.25001 11.9999 1.25001ZM10.7499 19.73V20C10.7499 20.6904 11.3096 21.25 11.9999 21.25C12.6903 21.25 13.2499 20.6904 13.2499 20V19.73C12.8416 19.7429 12.4243 19.75 11.9999 19.75C11.5756 19.75 11.1583 19.7429 10.7499 19.73Z" fill="#231F2C"/>
</svg>
