<svg width="24" height="24" viewBox="0 0 24 24" fill="none" xmlns="http://www.w3.org/2000/svg">
<path fill-rule="evenodd" clip-rule="evenodd" d="M11.3754 1.62766C11.5265 1.89183 11.503 2.22112 11.3159 2.46112C10.3531 3.69598 9.78002 5.24784 9.78002 6.93566C9.78002 7.34987 9.44424 7.68566 9.03002 7.68566C8.61581 7.68566 8.28002 7.34987 8.28002 6.93566C8.28002 5.57036 8.59191 4.27697 9.14818 3.12372C5.43342 4.34023 2.75 7.83575 2.75 11.9571C2.75 17.0894 6.91057 21.25 12.0429 21.25C16.1642 21.25 19.6598 18.5666 20.8763 14.8518C19.723 15.4081 18.4296 15.72 17.0643 15.72C13.3766 15.72 10.2214 13.4478 8.91883 10.2299C8.76341 9.84598 8.94867 9.40874 9.33262 9.25332C9.71657 9.0979 10.1538 9.28316 10.3092 9.66711C11.3904 12.338 14.0085 14.22 17.0643 14.22C18.7522 14.22 20.304 13.6469 21.5389 12.6841C21.7789 12.497 22.1082 12.4735 22.3723 12.6246C22.6365 12.7757 22.7832 13.0714 22.7436 13.3731C22.0497 18.665 17.5239 22.75 12.0429 22.75C6.08214 22.75 1.25 17.9179 1.25 11.9571C1.25 6.47606 5.33498 1.95033 10.6268 1.25636C10.9286 1.21679 11.2243 1.36348 11.3754 1.62766Z" fill="#231F2C"/>
</svg>
