<svg width="24" height="24" viewBox="0 0 24 24" fill="none" xmlns="http://www.w3.org/2000/svg">
<path fill-rule="evenodd" clip-rule="evenodd" d="M17.25 5C17.25 4.58579 17.5858 4.25 18 4.25H20C21.5188 4.25 22.75 5.48122 22.75 7V17C22.75 18.5188 21.5188 19.75 20 19.75H18C17.5858 19.75 17.25 19.4142 17.25 19C17.25 18.5858 17.5858 18.25 18 18.25H20C20.6904 18.25 21.25 17.6904 21.25 17V7C21.25 6.30964 20.6904 5.75 20 5.75H18C17.5858 5.75 17.25 5.41421 17.25 5ZM9.72761 5.8181L9 6L8.66459 5.32918C8.86806 5.22744 9.10672 5.22356 9.31339 5.31862C9.52007 5.41367 9.67243 5.5974 9.72761 5.8181ZM10.2294 9.25C10.1875 8.46085 10.0878 7.71475 9.9898 7.1267C9.92511 6.7386 9.86035 6.41468 9.81148 6.1866C9.78702 6.07248 9.76649 5.9821 9.75187 5.91942C9.74455 5.88807 9.73871 5.86363 9.73458 5.84659L9.72972 5.82662L9.72831 5.8209L9.72787 5.81914C9.72784 5.81904 9.72761 5.8181 9 6C8.66459 5.32918 8.66478 5.32908 8.66459 5.32918L8.66255 5.3302L8.65904 5.33197L8.64771 5.33772L8.60816 5.35811C8.57444 5.37566 8.52621 5.40111 8.46469 5.43448C8.34168 5.5012 8.16542 5.59962 7.94577 5.72978C7.5067 5.98997 6.89296 6.37774 6.18387 6.89345C4.7686 7.92274 2.95771 9.47305 1.4 11.55C1.2 11.8167 1.2 12.1833 1.4 12.45C2.95771 14.527 4.7686 16.0773 6.18387 17.1066C6.89296 17.6223 7.5067 18.01 7.94577 18.2702C8.16542 18.4004 8.34168 18.4988 8.46469 18.5655C8.52621 18.5989 8.57444 18.6243 8.60816 18.6419L8.64771 18.6623L8.65904 18.668L8.66255 18.6698L8.66375 18.6704C8.66395 18.6705 8.66459 18.6708 9 18L8.66375 18.6704C8.86722 18.7721 9.10672 18.7764 9.31339 18.6814C9.52007 18.5863 9.67243 18.4026 9.72761 18.1819L9 18C9.72761 18.1819 9.72758 18.182 9.72761 18.1819L9.72831 18.1791L9.72972 18.1734L9.73458 18.1534C9.73871 18.1364 9.74455 18.1119 9.75187 18.0806C9.76649 18.0179 9.78702 17.9275 9.81148 17.8134C9.86035 17.5853 9.92511 17.2614 9.9898 16.8733C10.0878 16.2852 10.1875 15.5391 10.2294 14.75H17C17.9665 14.75 18.75 13.9665 18.75 13V11C18.75 10.0335 17.9665 9.25 17 9.25H14C13.5858 9.25 13.25 9.58579 13.25 10C13.25 10.4142 13.5858 10.75 14 10.75H17C17.1381 10.75 17.25 10.8619 17.25 11V13C17.25 13.1381 17.1381 13.25 17 13.25H9.5C9.08579 13.25 8.75 13.5858 8.75 14C8.75 14.9433 8.63152 15.8988 8.5102 16.6267C8.49809 16.6994 8.48598 16.7696 8.47399 16.8372C8.09458 16.6045 7.61123 16.2899 7.06613 15.8934C5.83759 15 4.30881 13.7007 2.94863 12C4.30881 10.2993 5.83759 9.00003 7.06613 8.10655C7.61123 7.71012 8.09458 7.39548 8.47399 7.16282C8.48598 7.23036 8.49809 7.3006 8.5102 7.3733C8.63152 8.10122 8.75 9.05669 8.75 10C8.75 10.4142 9.08579 10.75 9.5 10.75H11C11.4142 10.75 11.75 10.4142 11.75 10C11.75 9.58579 11.4142 9.25 11 9.25H10.2294Z" fill="#231F2C"/>
</svg>
