<svg width="24" height="24" viewBox="0 0 24 24" fill="none" xmlns="http://www.w3.org/2000/svg">
<path fill-rule="evenodd" clip-rule="evenodd" d="M12 2.75C6.89137 2.75 2.75 6.89137 2.75 12C2.75 17.1086 6.89137 21.25 12 21.25C14.813 21.25 17.3322 19.9952 19.0299 18.0122C19.2992 17.6976 19.7727 17.6609 20.0873 17.9303C20.402 18.1996 20.4387 18.6731 20.1693 18.9878C18.1988 21.2894 15.2696 22.75 12 22.75C6.06294 22.75 1.25 17.9371 1.25 12C1.25 6.06294 6.06294 1.25 12 1.25C17.9371 1.25 22.75 6.06294 22.75 12C22.75 13.5275 22.431 14.9824 21.8552 16.3003C21.6893 16.6798 21.2472 16.8531 20.8676 16.6873C20.4881 16.5214 20.3148 16.0793 20.4806 15.6997C20.9752 14.5677 21.25 13.3169 21.25 12C21.25 6.89137 17.1086 2.75 12 2.75ZM12 7.25C12.4142 7.25 12.75 7.58579 12.75 8V11.25H16C16.4142 11.25 16.75 11.5858 16.75 12C16.75 12.4142 16.4142 12.75 16 12.75H12.75V16C12.75 16.4142 12.4142 16.75 12 16.75C11.5858 16.75 11.25 16.4142 11.25 16V12.75H8C7.58579 12.75 7.25 12.4142 7.25 12C7.25 11.5858 7.58579 11.25 8 11.25H11.25V8C11.25 7.58579 11.5858 7.25 12 7.25Z" fill="#231F2C"/>
</svg>
