<svg width="24" height="24" viewBox="0 0 24 24" fill="none" xmlns="http://www.w3.org/2000/svg">
<path fill-rule="evenodd" clip-rule="evenodd" d="M2.46967 2.46967C2.76256 2.17678 3.23744 2.17678 3.53033 2.46967L21.5303 20.4697C21.8232 20.7626 21.8232 21.2374 21.5303 21.5303C21.2374 21.8232 20.7626 21.8232 20.4697 21.5303L13.9607 15.0214L8.02594 20.9561C6.96736 22.0146 5.25108 22.0146 4.19248 20.9561L3.04397 19.8076C1.98535 18.749 1.98534 17.0327 3.04395 15.9741L5.57892 13.4391C5.87181 13.1462 6.34669 13.1462 6.63958 13.4391C6.93247 13.732 6.93247 14.2069 6.63958 14.4998L4.10461 17.0347C3.63179 17.5075 3.6318 18.2741 4.10462 18.7469L5.25313 19.8954C5.72593 20.3682 6.49249 20.3682 6.96529 19.8954L12.9 13.9607L10.0393 11.1L8.60027 12.539C8.30738 12.8319 7.83251 12.8319 7.53961 12.539C7.24672 12.2461 7.24672 11.7713 7.53961 11.4784L8.97865 10.0393L2.46967 3.53033C2.17678 3.23744 2.17678 2.76256 2.46967 2.46967ZM10.7782 5.43359C11.185 4.21329 12.7337 3.84768 13.6433 4.75724L19.2428 10.3568C20.1525 11.2664 19.7865 12.8152 18.5663 13.2219L16.7736 13.8195C16.3807 13.9505 15.9559 13.7381 15.8249 13.3451C15.694 12.9522 15.9063 12.5274 16.2993 12.3964L18.092 11.7989C18.2546 11.7447 18.3031 11.5384 18.1821 11.4174L12.5826 5.8179C12.4615 5.69682 12.2554 5.74548 12.2012 5.90794L11.6112 7.67796C11.4802 8.07091 11.0555 8.28328 10.6625 8.15229C10.2696 8.02131 10.0572 7.59657 10.1882 7.20361L10.7782 5.43359ZM10.0708 13.9293C10.3637 14.2222 10.3637 14.6971 10.0708 14.9899L8.60027 16.4605C8.30738 16.7534 7.83251 16.7534 7.53961 16.4605C7.24672 16.1676 7.24672 15.6927 7.53961 15.3998L9.01013 13.9293C9.30303 13.6364 9.7779 13.6364 10.0708 13.9293Z" fill="#1E202B"/>
</svg>
