<svg width="24" height="24" viewBox="0 0 24 24" fill="none" xmlns="http://www.w3.org/2000/svg">
<path fill-rule="evenodd" clip-rule="evenodd" d="M2.25 5C2.25 3.48122 3.48122 2.25 5 2.25H7C8.51878 2.25 9.75 3.48122 9.75 5V19C9.75 20.5188 8.51878 21.75 7 21.75H5C3.48122 21.75 2.25 20.5188 2.25 19V5ZM5 3.75C4.30964 3.75 3.75 4.30964 3.75 5V19C3.75 19.6904 4.30964 20.25 5 20.25H7C7.69036 20.25 8.25 19.6904 8.25 19V5C8.25 4.30964 7.69036 3.75 7 3.75H5ZM14.25 5C14.25 3.48122 15.4812 2.25 17 2.25H19C20.5188 2.25 21.75 3.48122 21.75 5V14C21.75 14.4142 21.4142 14.75 21 14.75C20.5858 14.75 20.25 14.4142 20.25 14V5C20.25 4.30964 19.6904 3.75 19 3.75H17C16.3096 3.75 15.75 4.30964 15.75 5V19C15.75 19.6904 16.3096 20.25 17 20.25H19C19.6904 20.25 20.25 19.6904 20.25 19V17C20.25 16.5858 20.5858 16.25 21 16.25C21.4142 16.25 21.75 16.5858 21.75 17V19C21.75 20.5188 20.5188 21.75 19 21.75H17C15.4812 21.75 14.25 20.5188 14.25 19V5Z" fill="#231F2C"/>
</svg>
