<svg width="24" height="24" viewBox="0 0 24 24" fill="none" xmlns="http://www.w3.org/2000/svg">
<path d="M16.75 12C16.75 11.5858 16.4142 11.25 16 11.25H5C4.58579 11.25 4.25 11.5858 4.25 12C4.25 12.4142 4.58579 12.75 5 12.75H16C16.4142 12.75 16.75 12.4142 16.75 12Z" fill="#231F2C"/>
<path d="M16.75 7C16.75 6.58579 16.4142 6.25 16 6.25H5C4.58579 6.25 4.25 6.58579 4.25 7C4.25 7.41421 4.58579 7.75 5 7.75H16C16.4142 7.75 16.75 7.41421 16.75 7Z" fill="#231F2C"/>
<path d="M11.75 17C11.75 16.5858 11.4142 16.25 11 16.25H5C4.58579 16.25 4.25 16.5858 4.25 17C4.25 17.4142 4.58579 17.75 5 17.75H11C11.4142 17.75 11.75 17.4142 11.75 17Z" fill="#231F2C"/>
<path d="M19 12.25C19.4142 12.25 19.75 12.5858 19.75 13V16.25H23C23.4142 16.25 23.75 16.5858 23.75 17C23.75 17.4142 23.4142 17.75 23 17.75H19.75V21C19.75 21.4142 19.4142 21.75 19 21.75C18.5858 21.75 18.25 21.4142 18.25 21V17.75H15C14.5858 17.75 14.25 17.4142 14.25 17C14.25 16.5858 14.5858 16.25 15 16.25H18.25V13C18.25 12.5858 18.5858 12.25 19 12.25Z" fill="#231F2C"/>
</svg>
