<svg width="24" height="24" viewBox="0 0 24 24" fill="none" xmlns="http://www.w3.org/2000/svg">
<path fill-rule="evenodd" clip-rule="evenodd" d="M9.25 3C9.25 2.0335 10.0335 1.25 11 1.25H13C13.9665 1.25 14.75 2.0335 14.75 3V6C14.75 6.41421 14.4142 6.75 14 6.75C13.5858 6.75 13.25 6.41421 13.25 6V3C13.25 2.86193 13.1381 2.75 13 2.75H11C10.8619 2.75 10.75 2.86193 10.75 3V10.5C10.75 10.9142 10.4142 11.25 10 11.25C9.05669 11.25 8.10122 11.3685 7.3733 11.4898C7.3006 11.5019 7.23036 11.514 7.16282 11.526C7.39548 11.9054 7.71012 12.3888 8.10655 12.9339C9.00003 14.1624 10.2993 15.6912 12 17.0514C13.7007 15.6912 15 14.1624 15.8934 12.9339C16.2899 12.3888 16.6045 11.9054 16.8372 11.526C16.7696 11.514 16.6994 11.5019 16.6267 11.4898C15.8988 11.3685 14.9433 11.25 14 11.25C13.5858 11.25 13.25 10.9142 13.25 10.5V9C13.25 8.58579 13.5858 8.25 14 8.25C14.4142 8.25 14.75 8.58579 14.75 9V9.7706C15.5391 9.81254 16.2852 9.9122 16.8733 10.0102C17.2614 10.0749 17.5853 10.1396 17.8134 10.1885C17.9275 10.213 18.0179 10.2335 18.0806 10.2481C18.1119 10.2554 18.1364 10.2613 18.1534 10.2654L18.1734 10.2703L18.1791 10.2717L18.1809 10.2721C18.181 10.2722 18.1819 10.2724 18 11C18.6708 11.3354 18.6707 11.3356 18.6706 11.3358L18.6698 11.3375L18.668 11.341L18.6623 11.3523L18.6419 11.3918C18.6243 11.4256 18.5989 11.4738 18.5655 11.5353C18.4988 11.6583 18.4004 11.8346 18.2702 12.0542C18.01 12.4933 17.6223 13.107 17.1066 13.8161C16.0773 15.2314 14.527 17.0423 12.45 18.6C12.1833 18.8 11.8167 18.8 11.55 18.6C9.47305 17.0423 7.92274 15.2314 6.89345 13.8161C6.37774 13.107 5.98997 12.4933 5.72978 12.0542C5.59962 11.8346 5.5012 11.6583 5.43448 11.5353C5.40111 11.4738 5.37566 11.4256 5.35811 11.3918L5.33772 11.3523L5.33197 11.341L5.3302 11.3375L5.3296 11.3362C5.3295 11.3361 5.32918 11.3354 6 11C5.8181 10.2724 5.81819 10.2724 5.81829 10.2723L5.8209 10.2717L5.82662 10.2703L5.84659 10.2654C5.86363 10.2613 5.88807 10.2554 5.91942 10.2481C5.9821 10.2335 6.07248 10.213 6.1866 10.1885C6.41468 10.1396 6.7386 10.0749 7.1267 10.0102C7.71475 9.9122 8.46085 9.81254 9.25 9.7706V3ZM6 11L5.81829 10.2723C5.59759 10.3275 5.41367 10.4799 5.31862 10.6866C5.22356 10.8933 5.22786 11.1328 5.3296 11.3362L6 11ZM18 11L18.6706 11.3358C18.7724 11.1323 18.7764 10.8933 18.6814 10.6866C18.5863 10.4799 18.4026 10.3276 18.1819 10.2724L18 11ZM5 19.25C5.41421 19.25 5.75 19.5858 5.75 20C5.75 20.6904 6.30964 21.25 7 21.25H17C17.6904 21.25 18.25 20.6904 18.25 20C18.25 19.5858 18.5858 19.25 19 19.25C19.4142 19.25 19.75 19.5858 19.75 20C19.75 21.5188 18.5188 22.75 17 22.75H7C5.48122 22.75 4.25 21.5188 4.25 20C4.25 19.5858 4.58579 19.25 5 19.25Z" fill="#231F2C"/>
</svg>
