<svg width="24" height="24" viewBox="0 0 24 24" fill="none" xmlns="http://www.w3.org/2000/svg">
<path fill-rule="evenodd" clip-rule="evenodd" d="M12 1.25C12.4142 1.25 12.75 1.58579 12.75 2V2.25H13.3471C14.7011 2.25 15.9323 2.81962 16.8008 3.73885C17.0853 4.03994 17.0718 4.51462 16.7707 4.79909C16.4696 5.08355 15.995 5.07008 15.7105 4.769C15.1148 4.13846 14.2733 3.75 13.3471 3.75H10.6529C8.97195 3.75 7.56839 5.03175 7.41621 6.70576L6.84965 12.9378C6.7699 13.8152 6.44773 14.653 5.91916 15.3578L4.50365 17.2451C4.25512 17.5765 3.78502 17.6437 3.45365 17.3951C3.12228 17.1466 3.05512 16.6765 3.30365 16.3451L4.71916 14.4578C5.08081 13.9756 5.30124 13.4023 5.35581 12.802L5.92237 6.56996C6.14479 4.12333 8.19614 2.25 10.6529 2.25H11.25V2C11.25 1.58579 11.5858 1.25 12 1.25ZM20.4697 2.46967C20.7626 2.17678 21.2374 2.17678 21.5303 2.46967C21.8232 2.76256 21.8232 3.23744 21.5303 3.53033L18.1121 6.9486L18.3833 9.9321C18.4208 10.3446 18.1168 10.7094 17.7043 10.7469C17.2918 10.7844 16.9269 10.4804 16.8894 10.0679L16.7314 8.32927L7.11334 17.9473C8.51111 18.1163 10.1897 18.25 12 18.25C15.1024 18.25 17.8167 17.8572 19.3918 17.5684C19.4703 17.554 19.5129 17.5107 19.5336 17.4551C19.5554 17.3964 19.5527 17.3203 19.4964 17.2451L18.0808 15.3578C17.5523 14.653 17.2301 13.8152 17.1503 12.9378C17.1128 12.5253 17.4169 12.1605 17.8294 12.123C18.2419 12.0855 18.6067 12.3895 18.6442 12.802C18.6988 13.4023 18.9192 13.9756 19.2808 14.4578L20.6964 16.3451C21.4407 17.3377 20.9445 18.8087 19.6624 19.0438C18.5169 19.2538 16.7911 19.517 14.75 19.6552V20C14.75 21.5188 13.5188 22.75 12 22.75C10.4812 22.75 9.25 21.5188 9.25 20V19.6552C7.93912 19.5664 6.7587 19.4262 5.779 19.2817L3.53033 21.5303C3.23744 21.8232 2.76256 21.8232 2.46967 21.5303C2.17678 21.2374 2.17678 20.7626 2.46967 20.4697L20.4697 2.46967ZM10.75 19.73V20C10.75 20.6904 11.3096 21.25 12 21.25C12.6904 21.25 13.25 20.6904 13.25 20V19.73C12.8416 19.7429 12.4244 19.75 12 19.75C11.5756 19.75 11.1583 19.7429 10.75 19.73Z" fill="#231F2C"/>
</svg>
