<svg width="24" height="24" viewBox="0 0 24 24" fill="none" xmlns="http://www.w3.org/2000/svg">
<path fill-rule="evenodd" clip-rule="evenodd" d="M7.86664 2.96175C8.1772 1.85176 9.20464 1.25 10.236 1.25H13.7639C14.7954 1.25 15.8228 1.85211 16.1333 2.962C16.2736 3.46318 16.4207 4.10877 16.536 4.89864C16.5959 5.30851 16.3121 5.68929 15.9023 5.74915C15.4924 5.809 15.1116 5.52526 15.0517 5.11539C14.9459 4.39048 14.8123 3.80744 14.6888 3.36613C14.5911 3.01697 14.2475 2.75 13.7639 2.75H10.236C9.75232 2.75 9.40883 3.01685 9.31116 3.36591C9.05304 4.28847 8.74996 5.83258 8.74996 8C8.74996 10.1674 9.05304 11.7115 9.31116 12.6341C9.40883 12.9832 9.75232 13.25 10.236 13.25H13.7639C14.2476 13.25 14.5911 12.9832 14.6888 12.6341C14.9469 11.7115 15.25 10.1674 15.25 8C15.25 7.58579 15.5857 7.25 16 7.25C16.4142 7.25 16.75 7.58579 16.75 8C16.75 10.3092 16.4268 11.9892 16.1333 13.0382C15.8227 14.1482 14.7953 14.75 13.7639 14.75H10.236C9.20464 14.75 8.1772 14.1482 7.86664 13.0382C7.57313 11.9892 7.24996 10.3092 7.24996 8C7.24996 5.6908 7.57313 4.0108 7.86664 2.96175ZM4.58393 13.376C4.92858 13.1462 5.39423 13.2393 5.624 13.584L7.32938 16.142C7.45243 16.3266 7.60109 16.4469 7.75534 16.5058C8.46305 16.7759 9.99275 17.25 12 17.25C14.0072 17.25 15.5369 16.7759 16.2446 16.5058C16.3988 16.4469 16.5475 16.3266 16.6705 16.142L18.3759 13.584C18.6057 13.2393 19.0713 13.1462 19.416 13.376C19.7606 13.6057 19.8538 14.0714 19.624 14.416L17.9186 16.9741C17.6555 17.3687 17.2756 17.7178 16.7795 17.9072C16.048 18.1864 14.6206 18.6317 12.75 18.7303V22C12.75 22.4142 12.4142 22.75 12 22.75C11.5857 22.75 11.25 22.4142 11.25 22V18.7303C9.37932 18.6317 7.95196 18.1864 7.22042 17.9072C6.72433 17.7178 6.34438 17.3687 6.0813 16.9741L4.37592 14.416C4.14616 14.0714 4.23929 13.6057 4.58393 13.376Z" fill="#231F2C"/>
</svg>
