<svg width="24" height="24" viewBox="0 0 24 24" fill="none" xmlns="http://www.w3.org/2000/svg">
<path fill-rule="evenodd" clip-rule="evenodd" d="M9 2.75C7.20507 2.75 5.75 4.20507 5.75 6V11.438C6.53346 11.3375 7.44984 11.2693 8.51905 11.2535C8.93322 11.2474 9.27394 11.5782 9.28006 11.9923C9.28619 12.4065 8.95541 12.7472 8.54124 12.7534C6.19932 12.788 4.70025 13.0854 3.78396 13.3774C3.15594 13.5776 2.75 14.2411 2.75 15.2038V18.7962C2.75 19.7589 3.15594 20.4224 3.78396 20.6226C4.75893 20.9333 6.39333 21.25 9 21.25C9.34151 21.25 9.6664 21.2446 9.97537 21.2344C10.3894 21.2208 10.736 21.5454 10.7496 21.9594C10.7632 22.3734 10.4386 22.72 10.0246 22.7336C9.69874 22.7443 9.35742 22.75 9 22.75C6.27572 22.75 4.48223 22.4194 3.32849 22.0517L3.55622 21.3372L3.32849 22.0517C1.82999 21.5742 1.25 20.1069 1.25 18.7962V15.2038C1.25 13.8931 1.82999 12.4258 3.32849 11.9483C3.5992 11.862 3.90512 11.7778 4.25 11.6994V6C4.25 3.37665 6.37665 1.25 9 1.25C11.6234 1.25 13.75 3.37665 13.75 6V8C13.75 8.41421 13.4142 8.75 13 8.75C12.5858 8.75 12.25 8.41421 12.25 8V6C12.25 4.20507 10.7949 2.75 9 2.75ZM16 10.75C13.1005 10.75 10.75 13.1005 10.75 16C10.75 18.8995 13.1005 21.25 16 21.25C18.8995 21.25 21.25 18.8995 21.25 16C21.25 13.1005 18.8995 10.75 16 10.75ZM9.25 16C9.25 12.2721 12.2721 9.25 16 9.25C19.7279 9.25 22.75 12.2721 22.75 16C22.75 19.7279 19.7279 22.75 16 22.75C12.2721 22.75 9.25 19.7279 9.25 16ZM16 12.25C16.4142 12.25 16.75 12.5858 16.75 13V15.7729L18.624 18.584C18.8538 18.9286 18.7607 19.3943 18.416 19.624C18.0714 19.8538 17.6057 19.7607 17.376 19.416L15.376 16.416C15.2938 16.2928 15.25 16.1481 15.25 16V13C15.25 12.5858 15.5858 12.25 16 12.25Z" fill="#231F2C"/>
</svg>
