<svg width="24" height="24" viewBox="0 0 24 24" fill="none" xmlns="http://www.w3.org/2000/svg">
<path fill-rule="evenodd" clip-rule="evenodd" d="M12 1.25C12.4142 1.25 12.75 1.58579 12.75 2V4C12.75 4.41421 12.4142 4.75 12 4.75C11.5858 4.75 11.25 4.41421 11.25 4V2C11.25 1.58579 11.5858 1.25 12 1.25ZM4.39814 4.39859C4.69103 4.1057 5.1659 4.1057 5.4588 4.39859L6.53033 5.47013C6.82322 5.76302 6.82322 6.23789 6.53033 6.53079C6.23744 6.82368 5.76256 6.82368 5.46967 6.53079L4.39814 5.45925C4.10524 5.16636 4.10524 4.69149 4.39814 4.39859ZM19.6009 4.39859C19.8938 4.69149 19.8938 5.16636 19.6009 5.45925L18.5298 6.53033C18.2369 6.82322 17.762 6.82322 17.4692 6.53033C17.1763 6.23744 17.1763 5.76256 17.4692 5.46967L18.5402 4.39859C18.8331 4.1057 19.308 4.1057 19.6009 4.39859ZM15.9265 10.3736C15.0283 8.20504 12.5422 7.17526 10.3736 8.0735C8.20508 8.97174 7.1753 11.4579 8.07354 13.6264C8.97177 15.7949 11.4579 16.8247 13.6264 15.9265C14.3231 15.6379 14.9006 15.1869 15.3352 14.6357C15.5916 14.3104 16.0632 14.2547 16.3885 14.5112C16.7137 14.7677 16.7695 15.2392 16.513 15.5645C15.9236 16.3119 15.1402 16.923 14.2005 17.3123C11.2665 18.5276 7.90298 17.1343 6.68772 14.2004C5.47245 11.2665 6.86569 7.90294 9.79959 6.68768C12.7335 5.47242 16.0971 6.86565 17.3123 9.79956C17.696 10.7257 17.8199 11.6969 17.7164 12.6297C17.6707 13.0414 17.2999 13.3381 16.8882 13.2924C16.4765 13.2468 16.1798 12.876 16.2255 12.4643C16.3018 11.7765 16.2109 11.0602 15.9265 10.3736ZM1.25 12C1.25 11.5858 1.58579 11.25 2 11.25H4C4.41421 11.25 4.75 11.5858 4.75 12C4.75 12.4142 4.41421 12.75 4 12.75H2C1.58579 12.75 1.25 12.4142 1.25 12ZM19.25 12C19.25 11.5858 19.5858 11.25 20 11.25H22C22.4142 11.25 22.75 11.5858 22.75 12C22.75 12.4142 22.4142 12.75 22 12.75H20C19.5858 12.75 19.25 12.4142 19.25 12ZM6.53033 17.4692C6.82322 17.762 6.82322 18.2369 6.53033 18.5298L5.45875 19.6014C5.16586 19.8943 4.69098 19.8943 4.39809 19.6014C4.1052 19.3085 4.1052 18.8336 4.39809 18.5407L5.46967 17.4692C5.76256 17.1763 6.23744 17.1763 6.53033 17.4692ZM17.4692 17.4697C17.7621 17.1768 18.237 17.1768 18.5299 17.4697L19.6009 18.5407C19.8938 18.8336 19.8938 19.3085 19.6009 19.6014C19.308 19.8943 18.8332 19.8943 18.5403 19.6014L17.4692 18.5303C17.1763 18.2374 17.1763 17.7626 17.4692 17.4697ZM12 19.25C12.4142 19.25 12.75 19.5858 12.75 20V22C12.75 22.4142 12.4142 22.75 12 22.75C11.5858 22.75 11.25 22.4142 11.25 22V20C11.25 19.5858 11.5858 19.25 12 19.25Z" fill="#231F2C"/>
</svg>
