<svg width="24" height="24" viewBox="0 0 24 24" fill="none" xmlns="http://www.w3.org/2000/svg">
<path fill-rule="evenodd" clip-rule="evenodd" d="M22.5462 3.48598C22.83 3.78761 22.8157 4.26226 22.514 4.54615L20.9291 6.03781C21.4501 6.90319 21.75 7.91734 21.75 9C21.75 10.7055 20.7802 12.461 19.5938 13.9986C19.3407 14.3265 18.8698 14.3873 18.5418 14.1342C18.2139 13.8812 18.1532 13.4102 18.4062 13.0822C19.5462 11.6049 20.25 10.1866 20.25 9C20.25 8.3158 20.0888 7.67036 19.8021 7.09852L9.34181 16.9435C10.3859 17.8519 11.3222 18.5727 11.8843 18.9903C11.9564 19.0438 12.0454 19.0424 12.1135 18.9918C12.993 18.3387 14.7828 16.9472 16.4694 15.2589C16.7621 14.9658 17.237 14.9656 17.5301 15.2583C17.8231 15.5511 17.8233 16.0259 17.5306 16.319C15.7704 18.0811 13.9153 19.5222 13.0078 20.1961C12.4047 20.644 11.589 20.6394 10.99 20.1945C10.3869 19.7466 9.37129 18.9642 8.24425 17.9765L5.51402 20.5462C5.21239 20.83 4.73774 20.8157 4.45385 20.514C4.16996 20.2124 4.18435 19.7377 4.48598 19.4539L21.486 3.45385C21.7876 3.16996 22.2623 3.18435 22.5462 3.48598ZM8 4.75C5.65279 4.75 3.75 6.6528 3.75 9C3.75 9.77747 4.05294 10.6684 4.60979 11.6323C5.16241 12.5889 5.93323 13.5626 6.79155 14.4908C7.07277 14.7949 7.0542 15.2694 6.75008 15.5507C6.44596 15.8319 5.97145 15.8133 5.69023 15.5092C4.78834 14.5339 3.93872 13.4693 3.31095 12.3827C2.6874 11.3033 2.25 10.1461 2.25 9C2.25 5.82438 4.82436 3.25 8 3.25C9.55491 3.25 10.9657 3.86773 12 4.86939C13.0343 3.86773 14.4451 3.25 16 3.25C16.6445 3.25 17.2657 3.35633 17.8461 3.55299C18.2384 3.68591 18.4487 4.11169 18.3158 4.504C18.1828 4.89631 17.7571 5.10658 17.3648 4.97365C16.9374 4.82884 16.4787 4.75 16 4.75C14.6102 4.75 13.3763 5.41628 12.5996 6.45002C12.458 6.63858 12.2358 6.74951 12 6.74951C11.7642 6.74951 11.542 6.63858 11.4004 6.45002C10.6237 5.41628 9.38977 4.75 8 4.75Z" fill="#231F2C"/>
</svg>
