<svg width="24" height="24" viewBox="0 0 24 24" fill="none" xmlns="http://www.w3.org/2000/svg">
<path fill-rule="evenodd" clip-rule="evenodd" d="M7.86668 2.96175C8.17724 1.85176 9.20469 1.25 10.2361 1.25H13.7639C14.7955 1.25 15.823 1.85237 16.1334 2.96219C16.2548 3.39584 16.3812 3.93763 16.4878 4.58747C16.5549 4.99622 16.2779 5.38193 15.8691 5.44898C15.4604 5.51604 15.0747 5.23903 15.0076 4.83028C14.9102 4.23614 14.7957 3.74818 14.6889 3.3663C14.5912 3.01705 14.2474 2.75 13.7639 2.75H10.2361C9.75236 2.75 9.40887 3.01685 9.31121 3.36591C9.05309 4.28847 8.75 5.83258 8.75 8C8.75 9.63735 8.92296 10.9187 9.11869 11.8449C9.20434 12.2502 8.94523 12.6482 8.53997 12.7338C8.13471 12.8194 7.73675 12.5603 7.65111 12.1551C7.4343 11.1291 7.25 9.74385 7.25 8C7.25 5.6908 7.57317 4.0108 7.86668 2.96175ZM21.5303 2.46967C21.8232 2.76256 21.8232 3.23744 21.5303 3.53033L16.748 8.31265C16.7205 10.4614 16.4134 12.0371 16.1333 13.0382C15.8228 14.1482 14.7953 14.75 13.7639 14.75H10.3107L8.3504 16.7103C8.42371 16.7329 8.50063 16.7559 8.58104 16.7789C9.40277 17.0136 10.5827 17.25 12 17.25C14.0072 17.25 15.5369 16.7759 16.2446 16.5058C16.3989 16.4469 16.5475 16.3266 16.6706 16.142L18.376 13.584C18.6057 13.2393 19.0714 13.1462 19.416 13.376C19.7607 13.6057 19.8538 14.0714 19.624 14.416L17.9187 16.9741C17.6556 17.3687 17.2756 17.7178 16.7795 17.9072C16.048 18.1864 14.6206 18.6317 12.75 18.7303V22C12.75 22.4142 12.4142 22.75 12 22.75C11.5858 22.75 11.25 22.4142 11.25 22V18.7302C9.99876 18.6643 8.94642 18.4433 8.16896 18.2211C7.75708 18.1035 7.42112 17.9851 7.17211 17.8886L3.53033 21.5303C3.23744 21.8232 2.76256 21.8232 2.46967 21.5303C2.17678 21.2374 2.17678 20.7626 2.46967 20.4697L6.45745 16.4819C6.46547 16.4735 6.47367 16.4653 6.48204 16.4573L20.4697 2.46967C20.7626 2.17678 21.2374 2.17678 21.5303 2.46967ZM11.8107 13.25H13.7639C14.2476 13.25 14.5911 12.9832 14.6888 12.6341C14.8642 12.0073 15.0603 11.0937 15.168 9.89267L11.8107 13.25ZM4.58397 13.376C4.92862 13.1462 5.39427 13.2393 5.62404 13.584L6.20187 14.4507C6.43163 14.7954 6.3385 15.261 5.99385 15.4908C5.64921 15.7205 5.18355 15.6274 4.95379 15.2828L4.37596 14.416C4.1462 14.0714 4.23933 13.6057 4.58397 13.376Z" fill="#231F2C"/>
</svg>
