<svg width="24" height="24" viewBox="0 0 24 24" fill="none" xmlns="http://www.w3.org/2000/svg">
<path fill-rule="evenodd" clip-rule="evenodd" d="M8 4.75C5.65279 4.75 3.75 6.6528 3.75 9C3.75 9.81367 4.08179 10.7502 4.68589 11.7619C5.28485 12.7649 6.11531 13.7818 7.02575 14.7407C8.84625 16.6582 10.9166 18.2716 11.8865 18.9918C11.9547 19.0425 12.0436 19.0438 12.1155 18.9903C13.001 18.3327 14.8049 16.9297 16.4986 15.2296C16.7909 14.9362 17.2658 14.9353 17.5592 15.2276C17.8527 15.5199 17.8536 15.9948 17.5613 16.2882C15.7932 18.063 13.9234 19.5161 13.0099 20.1945C12.4107 20.6395 11.5952 20.6439 10.9922 20.1961C9.99456 19.4553 7.84524 17.7824 5.93794 15.7735C4.98449 14.7693 4.07403 13.663 3.39803 12.5309C2.72719 11.4075 2.25 10.1971 2.25 9C2.25 5.82437 4.82436 3.25 8 3.25C9.55491 3.25 10.9657 3.86773 12 4.86938C13.0343 3.86773 14.4451 3.25 16 3.25C19.1756 3.25 21.75 5.82437 21.75 9C21.75 10.6878 20.8003 12.424 19.6326 13.9482C19.3806 14.277 18.9099 14.3393 18.5811 14.0874C18.2523 13.8355 18.1899 13.3647 18.4418 13.0359C19.5618 11.574 20.25 10.1733 20.25 9C20.25 6.6528 18.3472 4.75 16 4.75C14.6102 4.75 13.3763 5.41628 12.5996 6.45002C12.458 6.63857 12.2358 6.74951 12 6.74951C11.7642 6.74951 11.542 6.63857 11.4004 6.45002C10.6237 5.41628 9.38977 4.75 8 4.75Z" fill="#231F2C"/>
</svg>
