<svg width="24" height="24" viewBox="0 0 24 24" fill="none" xmlns="http://www.w3.org/2000/svg">
<path fill-rule="evenodd" clip-rule="evenodd" d="M15.4697 1.4697C15.7626 1.17681 16.2374 1.17681 16.5303 1.4697L20.5303 5.4697C20.8232 5.76259 20.8232 6.23747 20.5303 6.53036C20.2374 6.82325 19.7626 6.82325 19.4697 6.53036L16.75 3.81069V15C16.75 15.4142 16.4142 15.75 16 15.75C15.5858 15.75 15.25 15.4142 15.25 15V3.81069L12.5303 6.53036C12.2374 6.82325 11.7626 6.82325 11.4697 6.53036C11.1768 6.23747 11.1768 5.76259 11.4697 5.4697L15.4697 1.4697ZM8 8.25003C8.41421 8.25003 8.75 8.58582 8.75 9.00003V10C8.75 10.4142 8.41421 10.75 8 10.75C7.58579 10.75 7.25 10.4142 7.25 10V9.00003C7.25 8.58582 7.58579 8.25003 8 8.25003ZM8 12.25C8.41421 12.25 8.75 12.5858 8.75 13V20.1894L11.4697 17.4697C11.7626 17.1768 12.2374 17.1768 12.5303 17.4697C12.8232 17.7626 12.8232 18.2375 12.5303 18.5304L8.53033 22.5304C8.23744 22.8233 7.76256 22.8233 7.46967 22.5304L3.46967 18.5304C3.17678 18.2375 3.17678 17.7626 3.46967 17.4697C3.76256 17.1768 4.23744 17.1768 4.53033 17.4697L7.25 20.1894V13C7.25 12.5858 7.58579 12.25 8 12.25Z" fill="#231F2C"/>
</svg>
