<svg width="24" height="24" viewBox="0 0 24 24" fill="none" xmlns="http://www.w3.org/2000/svg">
<path fill-rule="evenodd" clip-rule="evenodd" d="M10 3.75C6.54822 3.75 3.75 6.54822 3.75 10C3.75 13.4518 6.54822 16.25 10 16.25C11.7243 16.25 13.2844 15.5527 14.4159 14.4229C14.7034 14.1359 15.1658 14.1307 15.4595 14.4072C15.4841 14.4263 15.5078 14.4471 15.5303 14.4697L21.5303 20.4697C21.8232 20.7626 21.8232 21.2374 21.5303 21.5303C21.2374 21.8232 20.7626 21.8232 20.4697 21.5303L14.9242 15.9848C13.5857 17.0871 11.8697 17.75 10 17.75C5.71979 17.75 2.25 14.2802 2.25 10C2.25 5.71979 5.71979 2.25 10 2.25C14.2802 2.25 17.75 5.71979 17.75 10C17.75 11.1873 17.4825 12.3141 17.0038 13.3218C16.8261 13.696 16.3787 13.8552 16.0045 13.6774C15.6304 13.4997 15.4712 13.0523 15.6489 12.6782C16.0341 11.8674 16.25 10.9599 16.25 10C16.25 6.54822 13.4518 3.75 10 3.75Z" fill="#231F2C"/>
</svg>
