<svg width="24" height="24" viewBox="0 0 24 24" fill="none" xmlns="http://www.w3.org/2000/svg">
<path fill-rule="evenodd" clip-rule="evenodd" d="M2.93209 4.33297C3.19778 2.82363 4.67804 1.87777 6.17634 2.38848C7.81672 2.94763 10.4793 4.03455 14.2101 6.10382C17.9219 8.16254 19.9239 9.58088 20.9833 10.4518C21.4666 10.8492 21.75 11.4034 21.75 12C21.75 12.5966 21.4666 13.1507 20.9833 13.5481C19.9239 14.4191 17.9219 15.8374 14.2101 17.8962C13.9187 18.0578 13.6339 18.2134 13.3555 18.3632C12.9908 18.5596 12.5359 18.4231 12.3396 18.0583C12.1433 17.6936 12.2798 17.2388 12.6445 17.0424C12.9173 16.8956 13.1966 16.743 13.4826 16.5844C17.1452 14.553 19.064 13.1842 20.0306 12.3895C20.2047 12.2464 20.25 12.1019 20.25 12C20.25 11.8981 20.2047 11.7536 20.0306 11.6105C19.064 10.8158 17.1452 9.44701 13.4826 7.41557C9.82141 5.38493 7.24012 4.33584 5.69238 3.80827C5.10403 3.60772 4.52272 3.94916 4.40938 4.59301C4.11224 6.28104 3.75 8.9634 3.75 12C3.75 15.0366 4.11224 17.7189 4.40938 19.407C4.52272 20.0508 5.10403 20.3923 5.69238 20.1917C6.71699 19.8425 8.19458 19.2646 10.1386 18.3248C10.5115 18.1445 10.96 18.3006 11.1403 18.6735C11.3206 19.0465 11.1644 19.4949 10.7915 19.6752C8.79626 20.6399 7.26231 21.2413 6.17634 21.6115C4.67804 22.1222 3.19778 21.1763 2.9321 19.667C2.62502 17.9225 2.25 15.1493 2.25 12C2.25 8.85073 2.62502 6.07744 2.93209 4.33297Z" fill="#231F2C"/>
</svg>
