<svg width="24" height="24" viewBox="0 0 24 24" fill="none" xmlns="http://www.w3.org/2000/svg">
<path fill-rule="evenodd" clip-rule="evenodd" d="M4 4.75C3.30964 4.75 2.75 5.30964 2.75 6V8C2.75 8.41421 2.41421 8.75 2 8.75C1.58579 8.75 1.25 8.41421 1.25 8V6C1.25 4.48122 2.48122 3.25 4 3.25H6C6.41421 3.25 6.75 3.58579 6.75 4C6.75 4.41421 6.41421 4.75 6 4.75H4ZM17.25 4C17.25 3.58579 17.5858 3.25 18 3.25H20C21.5188 3.25 22.75 4.48122 22.75 6V8.5C22.75 8.91421 22.4142 9.25 22 9.25C21.5858 9.25 21.25 8.91421 21.25 8.5V6C21.25 5.30964 20.6904 4.75 20 4.75H18C17.5858 4.75 17.25 4.41421 17.25 4ZM6 7.25C6.41421 7.25 6.75 7.58579 6.75 8V16C6.75 16.4142 6.41421 16.75 6 16.75C5.58579 16.75 5.25 16.4142 5.25 16V8C5.25 7.58579 5.58579 7.25 6 7.25ZM8 7.25C8.41421 7.25 8.75 7.58579 8.75 8V16C8.75 16.4142 8.41421 16.75 8 16.75C7.58579 16.75 7.25 16.4142 7.25 16V8C7.25 7.58579 7.58579 7.25 8 7.25ZM10 7.25C10.4142 7.25 10.75 7.58579 10.75 8V16C10.75 16.4142 10.4142 16.75 10 16.75C9.58579 16.75 9.25 16.4142 9.25 16V8C9.25 7.58579 9.58579 7.25 10 7.25ZM13 7.25C13.4142 7.25 13.75 7.58579 13.75 8V16C13.75 16.4142 13.4142 16.75 13 16.75C12.5858 16.75 12.25 16.4142 12.25 16V8C12.25 7.58579 12.5858 7.25 13 7.25ZM16 7.25C16.4142 7.25 16.75 7.58579 16.75 8V16C16.75 16.4142 16.4142 16.75 16 16.75C15.5858 16.75 15.25 16.4142 15.25 16V8C15.25 7.58579 15.5858 7.25 16 7.25ZM18 7.25C18.4142 7.25 18.75 7.58579 18.75 8V16C18.75 16.4142 18.4142 16.75 18 16.75C17.5858 16.75 17.25 16.4142 17.25 16V8C17.25 7.58579 17.5858 7.25 18 7.25ZM22 14.75C22.4142 14.75 22.75 15.0858 22.75 15.5V18C22.75 19.5188 21.5188 20.75 20 20.75H18C17.5858 20.75 17.25 20.4142 17.25 20C17.25 19.5858 17.5858 19.25 18 19.25H20C20.6904 19.25 21.25 18.6904 21.25 18V15.5C21.25 15.0858 21.5858 14.75 22 14.75ZM2 15.25C2.41421 15.25 2.75 15.5858 2.75 16V18C2.75 18.6904 3.30964 19.25 4 19.25H6C6.41421 19.25 6.75 19.5858 6.75 20C6.75 20.4142 6.41421 20.75 6 20.75H4C2.48122 20.75 1.25 19.5188 1.25 18V16C1.25 15.5858 1.58579 15.25 2 15.25Z" fill="#231F2C"/>
</svg>
