<svg width="24" height="24" viewBox="0 0 24 24" fill="none" xmlns="http://www.w3.org/2000/svg">
<path fill-rule="evenodd" clip-rule="evenodd" d="M16.6917 2.28848C17.0847 2.41946 17.297 2.8442 17.1661 3.23716L16.7115 4.6008C16.5805 4.99375 16.1558 5.20612 15.7628 5.07514C15.3699 4.94415 15.1575 4.51941 15.2885 4.12646L15.743 2.76282C15.874 2.36986 16.2988 2.15749 16.6917 2.28848ZM20.6212 3.37875C20.9141 3.67164 20.9141 4.14652 20.6212 4.43941L18.3485 6.71214C18.0556 7.00503 17.5807 7.00503 17.2879 6.71214C16.995 6.41925 16.995 5.94437 17.2879 5.65148L19.5606 3.37875C19.8535 3.08586 20.3283 3.08586 20.6212 3.37875ZM12.5826 5.81789C12.4615 5.69681 12.2553 5.74547 12.2012 5.90792L10.8887 9.84544L14.1546 13.1113L18.0921 11.7988C18.2545 11.7447 18.3032 11.5385 18.1821 11.4174L12.5826 5.81789ZM12.8913 13.9694L10.0306 11.1087L8.60026 12.539C8.30737 12.8319 7.8325 12.8319 7.5396 12.539C7.24671 12.2461 7.24671 11.7712 7.5396 11.4784L9.37507 9.64287L10.7782 5.43358C11.1849 4.21328 12.7337 3.84767 13.6433 4.75723L19.2428 10.3568C20.1523 11.2663 19.7867 12.8151 18.5664 13.2219L14.3571 14.6249L8.02593 20.9561C6.96735 22.0146 5.25107 22.0146 4.19248 20.9561L3.04397 19.8076C1.98535 18.749 1.98534 17.0327 3.04395 15.9741L5.57891 13.4391C5.8718 13.1462 6.34668 13.1462 6.63957 13.4391C6.93246 13.732 6.93246 14.2069 6.63957 14.4998L4.10461 17.0347C3.63179 17.5075 3.6318 18.2741 4.10462 18.7469L3.57429 19.2773L4.10462 18.7469L5.25313 19.8954C5.72593 20.3682 6.49248 20.3682 6.96528 19.8954L12.8913 13.9694ZM21.7115 7.30827C21.8425 7.70123 21.6301 8.12597 21.2372 8.25696L19.8735 8.7115C19.4806 8.84249 19.0558 8.63012 18.9249 8.23716C18.7939 7.8442 19.0062 7.41946 19.3992 7.28848L20.7628 6.83393C21.1558 6.70295 21.5805 6.91532 21.7115 7.30827ZM10.0708 13.9293C10.3637 14.2222 10.3637 14.697 10.0708 14.9899L8.60026 16.4605C8.30737 16.7534 7.8325 16.7534 7.5396 16.4605C7.24671 16.1676 7.24671 15.6927 7.5396 15.3998L9.01012 13.9293C9.30301 13.6364 9.77789 13.6364 10.0708 13.9293Z" fill="#1E202B"/>
</svg>
