<svg width="24" height="24" viewBox="0 0 24 24" fill="none" xmlns="http://www.w3.org/2000/svg">
<path fill-rule="evenodd" clip-rule="evenodd" d="M10.2156 3.57649C10.7567 1.80784 13.2433 1.80783 13.7844 3.57649L15.1145 7.92428C15.1643 8.08684 15.3093 8.18961 15.4646 8.18961H19.8807C21.6844 8.18961 22.4176 10.4805 21.0164 11.5617L17.3514 14.3897C17.2281 14.4848 17.1729 14.6521 17.2208 14.8089L17.5169 15.7766C17.6381 16.1726 17.4152 16.592 17.0191 16.7132C16.623 16.8343 16.2037 16.6115 16.0825 16.2154L15.7864 15.2477C15.5573 14.4988 15.8133 13.6819 16.4351 13.2021L20.1001 10.3741C20.3986 10.1438 20.2149 9.68961 19.8807 9.68961H15.4646C14.6403 9.68961 13.92 9.14704 13.6802 8.36311L12.35 4.01533C12.2418 3.66156 11.7582 3.66156 11.65 4.01533L10.3198 8.36311C10.08 9.14703 9.35965 9.68961 8.53541 9.68961H4.11931C3.78508 9.68961 3.60134 10.1438 3.8999 10.3741L7.56488 13.2021C8.1867 13.6819 8.44264 14.4988 8.21353 15.2477L6.836 19.7503C6.71899 20.1328 7.14482 20.3706 7.40542 20.1695L10.8642 17.5006C11.5343 16.9836 12.4656 16.9836 13.1357 17.5006L16.5946 20.1695C16.8552 20.3706 17.281 20.1328 17.164 19.7503L16.9847 19.1643C16.8635 18.7682 17.0864 18.3489 17.4825 18.2277C17.8786 18.1065 18.2979 18.3294 18.4191 18.7255L18.5984 19.3115C19.1243 21.0306 17.1469 22.4903 15.6782 21.3571L12.2194 18.6882C12.0892 18.5877 11.9108 18.5877 11.7806 18.6882L8.32176 21.3571C6.8531 22.4903 4.87567 21.0306 5.40162 19.3115L6.77916 14.8089C6.82711 14.6521 6.77187 14.4848 6.64854 14.3897L2.98356 11.5617C1.58235 10.4805 2.31561 8.18961 4.11931 8.18961H8.53541C8.6907 8.18961 8.83569 8.08684 8.88543 7.92428L10.2156 3.57649Z" fill="#231F2C"/>
</svg>
