<svg width="24" height="24" viewBox="0 0 24 24" fill="none" xmlns="http://www.w3.org/2000/svg">
<path fill-rule="evenodd" clip-rule="evenodd" d="M13.9677 20.7491C13.6388 21.3654 12.997 21.75 12.2987 21.75C11.148 21.75 10.2631 20.7314 10.426 19.5916L11.0599 15.1573C11.0828 14.9973 10.9493 14.857 10.7867 14.8733L10.7796 14.874L10.7796 14.874L6.37518 15.2718C3.62722 15.5438 1.53475 12.8545 2.47947 10.2583L3.93194 6.26679C4.58513 4.47176 6.01948 2.95259 8.0316 2.61115C9.20871 2.41141 11.1537 2.25 12.9837 2.25C15.778 2.25 17.8325 2.62577 19.0345 2.92864C20.082 3.19258 20.7488 4.09026 20.8707 5.07918L20.9981 5.90316C21.0614 6.31251 20.7809 6.69567 20.3716 6.75897C19.9622 6.82227 19.5791 6.54174 19.5158 6.13239L19.3864 5.29608C19.3851 5.28712 19.3838 5.27815 19.3828 5.26915C19.3284 4.80761 19.0382 4.47645 18.668 4.38318C17.574 4.10751 15.6427 3.75 12.9837 3.75C11.22 3.75 9.36091 3.90702 8.28255 4.09001C6.92391 4.32056 5.85674 5.36382 5.34151 6.77972L3.88904 10.7712C3.32246 12.3283 4.5779 13.9439 6.22974 13.7788L6.23685 13.7781L6.23685 13.7782L10.6416 13.3803C11.7699 13.2701 12.7055 14.2456 12.5448 15.3696L11.9109 19.8039C11.8773 20.0388 12.0597 20.25 12.2987 20.25C12.4436 20.25 12.5764 20.1702 12.6444 20.0429L13.306 20.396L12.6444 20.0429L15.9065 13.9306C16.2727 13.2444 16.9124 12.7455 17.6669 12.5569L19.0995 12.1991C19.8191 12.0193 20.2984 11.3679 20.2455 10.8516L19.9806 9.13807C19.9173 8.72872 20.1978 8.34556 20.6071 8.28226C21.0165 8.21896 21.3996 8.49949 21.4629 8.90883L21.7303 10.6381C21.7317 10.6471 21.7329 10.656 21.734 10.665C21.9083 12.1451 20.6914 13.3475 19.463 13.6543L18.0305 14.0122L17.8487 13.2846L18.0305 14.0122C17.6871 14.098 17.3963 14.325 17.2299 14.6368L13.9677 20.7491Z" fill="#231F2C"/>
</svg>
