<svg width="24" height="24" viewBox="0 0 24 24" fill="none" xmlns="http://www.w3.org/2000/svg">
<path fill-rule="evenodd" clip-rule="evenodd" d="M20.5303 3.46967C20.8232 3.76256 20.8232 4.23744 20.5303 4.53033L18.1704 6.89026C19.7599 7.79921 21.1957 9.08375 22.3545 10.7387L21.7402 11.1689L22.3545 10.7387C22.8818 11.4917 22.8818 12.5083 22.3545 13.2613C21.321 14.7373 20.0668 15.9193 18.6785 16.803C18.329 17.0254 17.8655 16.9225 17.643 16.573C17.4206 16.2236 17.5236 15.76 17.873 15.5376C19.0939 14.7605 20.2047 13.7164 21.1258 12.4009C21.2914 12.1645 21.2914 11.8355 21.1258 11.5991C20.006 9.99994 18.6053 8.80087 17.0655 7.99519L15.1394 9.92128C15.5253 10.513 15.75 11.2204 15.75 11.9791C15.75 14.0617 14.0617 15.75 11.9791 15.75C11.2204 15.75 10.513 15.5253 9.92127 15.1394L8.41533 16.6453C10.712 17.4432 13.2115 17.4515 15.5124 16.6701C15.9047 16.537 16.3306 16.7469 16.4638 17.1392C16.597 17.5314 16.387 17.9573 15.9948 18.0905C13.1523 19.0557 10.0436 18.9615 7.25305 17.8076L4.53033 20.5303C4.23744 20.8232 3.76256 20.8232 3.46967 20.5303C3.17678 20.2374 3.17678 19.7626 3.46967 19.4697L19.4697 3.46967C19.7626 3.17678 20.2374 3.17678 20.5303 3.46967ZM11.0216 14.0391C11.3124 14.1745 11.6366 14.25 11.9791 14.25C13.2333 14.25 14.25 13.2333 14.25 11.9791C14.25 11.6366 14.1745 11.3124 14.0391 11.0216L11.0216 14.0391ZM14.2102 6.97576C10.111 6.12928 5.63196 7.66081 2.87417 11.5991C2.70861 11.8355 2.70861 12.1645 2.87417 12.4009C3.61114 13.4534 4.46925 14.3318 5.40758 15.0387C5.73841 15.288 5.80454 15.7582 5.55529 16.089C5.30605 16.4199 4.8358 16.486 4.50497 16.2367C3.43985 15.4343 2.47198 14.4416 1.64547 13.2613C1.11818 12.5083 1.11818 11.4917 1.64547 10.7387L2.25982 11.1689L1.64547 10.7387C4.75635 6.29618 9.84457 4.54263 14.5135 5.50675C14.9192 5.59052 15.1801 5.98727 15.0964 6.39293C15.0126 6.79858 14.6158 7.05952 14.2102 6.97576ZM12.2154 8.87593C12.2839 9.28444 12.0083 9.67114 11.5998 9.73967C10.6502 9.89894 9.89897 10.6502 9.73966 11.5997C9.67113 12.0082 9.28441 12.2838 8.87591 12.2153C8.4674 12.1468 8.1918 11.7601 8.26034 11.3516C8.5255 9.77105 9.77114 8.52545 11.3517 8.26033C11.7602 8.19181 12.1469 8.46742 12.2154 8.87593Z" fill="#231F2C"/>
</svg>
