<svg width="24" height="24" viewBox="0 0 24 24" fill="none" xmlns="http://www.w3.org/2000/svg">
<path fill-rule="evenodd" clip-rule="evenodd" d="M8.96429 2C8.96429 1.58579 9.30007 1.25 9.71429 1.25H14.2857C14.6999 1.25 15.0357 1.58579 15.0357 2C15.0357 2.08766 15.0207 2.17181 14.993 2.25H19C19.4142 2.25 19.75 2.58579 19.75 3C19.75 3.41421 19.4142 3.75 19 3.75H5C4.58579 3.75 4.25 3.41421 4.25 3C4.25 2.58579 4.58579 2.25 5 2.25H9.00696C8.97932 2.17181 8.96429 2.08766 8.96429 2ZM4.26992 7.02137C4.24034 6.03533 5.03595 5.25 6 5.25H18C18.9641 5.25 19.7597 6.03534 19.7301 7.02137C19.6915 8.30614 19.5784 10.7534 19.2463 14.0746C19.2115 14.4222 19.1744 14.7603 19.1353 15.0886C19.0864 15.4999 18.7133 15.7937 18.302 15.7448C17.8907 15.6958 17.5969 15.3227 17.6458 14.9114C17.6838 14.5923 17.7199 14.2635 17.7537 13.9254C18.082 10.6428 18.1931 8.23062 18.2308 6.9764C18.2343 6.85836 18.1405 6.75 18 6.75H6C5.85948 6.75 5.76571 6.85836 5.76925 6.97639C5.80687 8.23062 5.91802 10.6428 6.24628 13.9254C6.54134 16.876 7.01249 19.1156 7.34083 20.431C7.45993 20.9081 7.89943 21.25 8.44152 21.25H15.5585C16.1006 21.25 16.5401 20.9081 16.6592 20.431C16.8195 19.7886 17.014 18.9255 17.2054 17.8666C17.2791 17.459 17.6692 17.1883 18.0768 17.262C18.4844 17.3356 18.7552 17.7258 18.6815 18.1334C18.4838 19.2268 18.2823 20.1221 18.1145 20.7943C17.8166 21.9876 16.7381 22.75 15.5585 22.75H8.44152C7.26189 22.75 6.18337 21.9876 5.88548 20.7943C5.5421 19.4186 5.05697 17.1071 4.75372 14.0746C4.4216 10.7534 4.30847 8.30614 4.26992 7.02137ZM10 8.25C10.4142 8.25 10.75 8.58579 10.75 9V19C10.75 19.4142 10.4142 19.75 10 19.75C9.58579 19.75 9.25 19.4142 9.25 19V9C9.25 8.58579 9.58579 8.25 10 8.25ZM14 8.25C14.4142 8.25 14.75 8.58579 14.75 9V19C14.75 19.4142 14.4142 19.75 14 19.75C13.5858 19.75 13.25 19.4142 13.25 19V9C13.25 8.58579 13.5858 8.25 14 8.25Z" fill="#231F2C"/>
</svg>
