<svg width="24" height="24" viewBox="0 0 24 24" fill="none" xmlns="http://www.w3.org/2000/svg">
<path fill-rule="evenodd" clip-rule="evenodd" d="M14.0382 5.16728C13.5737 3.43352 11.7916 2.40462 10.0578 2.86918C8.32411 3.33373 7.29523 5.11572 7.75967 6.84942C7.75966 6.84936 7.75969 6.84948 7.75967 6.84942L8.98278 11.4096C9.8323 11.3109 10.8304 11.25 12 11.25C14.7243 11.25 16.5178 11.5806 17.6715 11.9483C19.17 12.4258 19.75 13.8932 19.75 15.2038V16C19.75 16.4142 19.4142 16.75 19 16.75C18.5858 16.75 18.25 16.4142 18.25 16V15.2038C18.25 14.2411 17.8441 13.5776 17.216 13.3775C16.2411 13.0667 14.6067 12.75 12 12.75C9.39333 12.75 7.75892 13.0667 6.78396 13.3775C6.15594 13.5776 5.75 14.2411 5.75 15.2038V18.7962C5.75 19.7589 6.15594 20.4224 6.78396 20.6226C7.75893 20.9333 9.39333 21.25 12 21.25C14.6067 21.25 16.2411 20.9333 17.216 20.6226C17.8441 20.4224 18.25 19.7589 18.25 18.7962C18.25 18.382 18.5858 18.0462 19 18.0462C19.4142 18.0462 19.75 18.382 19.75 18.7962C19.75 20.1069 19.17 21.5742 17.6715 22.0518C16.5178 22.4194 14.7243 22.75 12 22.75C9.27572 22.75 7.48223 22.4194 6.32849 22.0518C4.82999 21.5742 4.25 20.1069 4.25 18.7962V15.2038C4.25 13.8932 4.82999 12.4258 6.32849 11.9483C6.66122 11.8422 7.04716 11.7393 7.49329 11.6465L6.31088 7.23801C5.63191 4.70405 7.13563 2.09927 9.66959 1.42029C12.2036 0.741321 14.8082 2.24509 15.4871 4.77905L15.7459 5.74498C15.8532 6.14508 15.6157 6.55633 15.2156 6.66354C14.8155 6.77074 14.4043 6.53331 14.2971 6.13321L14.0382 5.16728ZM12 15.25C12.4142 15.25 12.75 15.5858 12.75 16V18C12.75 18.4142 12.4142 18.75 12 18.75C11.5858 18.75 11.25 18.4142 11.25 18V16C11.25 15.5858 11.5858 15.25 12 15.25Z" fill="#231F2C"/>
</svg>
