<svg width="24" height="24" viewBox="0 0 24 24" fill="none" xmlns="http://www.w3.org/2000/svg">
<path fill-rule="evenodd" clip-rule="evenodd" d="M18 3.75C16.7574 3.75 15.75 4.75736 15.75 6C15.75 7.24264 16.7574 8.25 18 8.25C19.2426 8.25 20.25 7.24264 20.25 6C20.25 4.75736 19.2426 3.75 18 3.75ZM14.25 6C14.25 3.92893 15.9289 2.25 18 2.25C20.0711 2.25 21.75 3.92893 21.75 6C21.75 8.07107 20.0711 9.75 18 9.75C16.8021 9.75 15.7354 9.18836 15.0489 8.31404L9.62259 11.0272C9.70569 11.3375 9.75 11.6636 9.75 12C9.75 12.3365 9.70569 12.6626 9.62259 12.9728L15.0489 15.6859C15.7355 14.8116 16.8021 14.25 18 14.25C20.0711 14.25 21.75 15.9289 21.75 18C21.75 18.437 21.675 18.858 21.5364 19.2499C21.3984 19.6405 20.9699 19.8452 20.5794 19.7071C20.1888 19.5691 19.9841 19.1406 20.1222 18.7501C20.2047 18.5164 20.25 18.2643 20.25 18C20.25 16.7574 19.2426 15.75 18 15.75C16.7574 15.75 15.75 16.7574 15.75 18C15.75 19.2426 16.7574 20.25 18 20.25C18.2643 20.25 18.5164 20.2047 18.7501 20.1222C19.1406 19.9841 19.5691 20.1888 19.7071 20.5794C19.8452 20.9699 19.6405 21.3984 19.2499 21.5364C18.858 21.675 18.437 21.75 18 21.75C15.9289 21.75 14.25 20.0711 14.25 18C14.25 17.6636 14.2943 17.3375 14.3774 17.0272L8.95106 14.3141C8.26452 15.1884 7.19785 15.75 6 15.75C3.92893 15.75 2.25 14.0711 2.25 12C2.25 9.92893 3.92893 8.25 6 8.25C7.19785 8.25 8.26453 8.81163 8.95107 9.68593L14.3774 6.97275C14.2943 6.66253 14.25 6.33644 14.25 6ZM6 9.75C4.75736 9.75 3.75 10.7574 3.75 12C3.75 13.2426 4.75736 14.25 6 14.25C7.24264 14.25 8.25 13.2426 8.25 12C8.25 10.7574 7.24264 9.75 6 9.75Z" fill="#231F2C"/>
</svg>
