<svg width="24" height="24" viewBox="0 0 24 24" fill="none" xmlns="http://www.w3.org/2000/svg">
<path fill-rule="evenodd" clip-rule="evenodd" d="M5.63809 3.75C5.03931 3.75 4.54591 4.16796 4.45308 4.73379C4.15907 6.52588 3.75 9.47875 3.75 12C3.75 14.5213 4.15907 17.4741 4.45308 19.2662C4.54591 19.832 5.03931 20.25 5.63809 20.25H6.25V13C6.25 12.5858 6.58579 12.25 7 12.25H17C17.4142 12.25 17.75 12.5858 17.75 13V20.25H18.3619C18.9607 20.25 19.4541 19.832 19.5469 19.2662C19.6542 18.6125 19.7776 17.7992 19.8909 16.9057C19.9429 16.4948 20.3183 16.2039 20.7292 16.256C21.1401 16.308 21.431 16.6834 21.379 17.0943C21.263 18.0094 21.1367 18.8412 21.0271 19.5091C20.8113 20.8248 19.6699 21.75 18.3619 21.75H5.63809C4.33015 21.75 3.18873 20.8248 2.97287 19.5091C2.67594 17.6992 2.25 14.6479 2.25 12C2.25 9.3521 2.67594 6.30081 2.97287 4.49094C3.18873 3.1752 4.33015 2.25 5.63809 2.25L16.1841 2.25001C16.9276 2.25001 17.645 2.55187 18.157 3.1101C18.655 3.65292 19.4928 4.58261 20.7613 6.03801C21.1005 6.42723 21.3286 6.91021 21.4021 7.43206C21.5921 8.78111 21.75 10.386 21.75 12C21.75 12.6686 21.7229 13.3604 21.678 14.0488C21.651 14.4622 21.2941 14.7754 20.8808 14.7484C20.4674 14.7214 20.1542 14.3645 20.1812 13.9512C20.2245 13.2878 20.25 12.6292 20.25 12C20.25 10.4777 20.1006 8.94641 19.9168 7.64121C19.8853 7.41754 19.7859 7.20191 19.6305 7.02357C18.8423 6.11925 18.2229 5.4208 17.75 4.89424V9C17.75 9.41421 17.4142 9.75 17 9.75H7C6.58579 9.75 6.25 9.41421 6.25 9V3.75H5.63809ZM7.75 3.75V8.25H16.25V3.75174C16.2281 3.75059 16.2062 3.75001 16.1841 3.75001L7.75 3.75ZM7.75 20.25H16.25V13.75H7.75V20.25Z" fill="#231F2C"/>
</svg>
