<svg width="24" height="24" viewBox="0 0 24 24" fill="none" xmlns="http://www.w3.org/2000/svg">
<path fill-rule="evenodd" clip-rule="evenodd" d="M12 3.75C11.3688 3.75 10.7551 3.82074 10.166 3.95442C6.4921 4.78807 3.75 8.0747 3.75 12C3.75 13.0698 3.95326 14.0904 4.32257 15.0264C4.53957 15.5764 4.81407 16.0977 5.13881 16.5828C5.30348 16.8288 5.30804 17.1487 5.15044 17.3993C4.52156 18.3993 4.20552 18.9003 4.04631 19.1515C3.9672 19.2763 3.92518 19.342 3.90236 19.3772C3.89274 19.392 3.88043 19.4109 3.86856 19.4277C3.86842 19.4279 3.8664 19.4309 3.86279 19.4359C3.84363 19.4662 3.80554 19.5268 3.72971 19.6479C3.67576 19.7341 3.60322 19.8501 3.50564 20.0062L7.88446 19.3234C8.0378 19.2995 8.19479 19.3238 8.33377 19.3928C9.43734 19.9413 10.6815 20.25 12 20.25C14.1309 20.25 16.0717 19.4431 17.536 18.1169C17.8431 17.8388 18.3173 17.8623 18.5954 18.1693C18.8735 18.4763 18.85 18.9506 18.543 19.2287C16.8135 20.795 14.5174 21.75 12 21.75C10.531 21.75 9.13609 21.4246 7.88504 20.8415L2.11554 21.741C1.82552 21.7863 1.53577 21.6581 1.37407 21.4132C1.21237 21.1682 1.20843 20.8514 1.364 20.6025L1.36792 20.5962C1.9902 19.6006 2.30193 19.1018 2.45827 18.8521C2.53621 18.7275 2.57665 18.6631 2.59779 18.6298C2.60673 18.6157 2.61724 18.5991 2.62654 18.5853C2.62936 18.5811 2.63432 18.5738 2.64056 18.5651C2.64188 18.5633 2.6439 18.5604 2.64655 18.5568C2.66519 18.5281 2.70319 18.4686 2.77931 18.3485C2.91434 18.1355 3.16462 17.7389 3.62877 17.0012C3.35811 16.549 3.12296 16.073 2.92725 15.577C2.4899 14.4685 2.25 13.2613 2.25 12C2.25 7.35895 5.49195 3.47688 9.83403 2.49161C10.5313 2.33338 11.2564 2.25 12 2.25C17.3848 2.25 21.75 6.61522 21.75 12C21.75 12.2255 21.7423 12.4494 21.7272 12.6713C21.6222 14.2135 21.1584 15.6581 20.4187 16.9211C20.2093 17.2785 19.7499 17.3985 19.3925 17.1892C19.035 16.9798 18.915 16.5204 19.1243 16.163C19.7498 15.0951 20.1419 13.8744 20.2307 12.5694C20.2435 12.3814 20.25 12.1915 20.25 12C20.25 7.44365 16.5563 3.75 12 3.75ZM3.20676 18.2514C3.21805 18.2508 3.23449 18.2502 3.24017 18.2501L3.25194 18.25C3.25317 18.25 3.23552 18.2495 3.20676 18.2514ZM3.29719 19.7486C3.29698 19.7486 3.29677 19.7487 3.29656 19.7487C3.28568 19.7492 3.26917 19.7498 3.26354 19.7499L3.25194 19.75M12 8.25C12.4142 8.25 12.75 8.58579 12.75 9V11.25H15C15.4142 11.25 15.75 11.5858 15.75 12C15.75 12.4142 15.4142 12.75 15 12.75H12.75V15C12.75 15.4142 12.4142 15.75 12 15.75C11.5858 15.75 11.25 15.4142 11.25 15V12.75H9C8.58579 12.75 8.25 12.4142 8.25 12C8.25 11.5858 8.58579 11.25 9 11.25H11.25V9C11.25 8.58579 11.5858 8.25 12 8.25Z" fill="#231F2C"/>
</svg>
