<svg width="24" height="24" viewBox="0 0 24 24" fill="none" xmlns="http://www.w3.org/2000/svg">
<path fill-rule="evenodd" clip-rule="evenodd" d="M17 2.75C14.6528 2.75 12.75 4.65279 12.75 7C12.75 7.90271 13.0315 8.73969 13.5114 9.42798L19.428 3.51136C18.7397 3.03144 17.9027 2.75 17 2.75ZM20.4887 4.57202L14.572 10.4886C15.2603 10.9686 16.0973 11.25 17 11.25C19.3472 11.25 21.25 9.34721 21.25 7C21.25 6.09729 20.9686 5.26031 20.4887 4.57202ZM11.25 7C11.25 3.82436 13.8244 1.25 17 1.25C20.1757 1.25 22.75 3.82436 22.75 7C22.75 10.1756 20.1757 12.75 17 12.75C13.8244 12.75 11.25 10.1756 11.25 7ZM10.7314 4.05705C10.8231 4.461 10.5699 4.86276 10.166 4.95442C6.49212 5.78807 3.75002 9.0747 3.75002 13C3.75002 15.0454 4.49343 16.9153 5.72574 18.3571C5.9801 18.6547 5.96277 19.0979 5.68594 19.3747L4.15589 20.9048L7.88448 20.3234C8.03782 20.2995 8.19481 20.3238 8.3338 20.3928C9.43736 20.9413 10.6816 21.25 12 21.25C16.3649 21.25 19.9386 17.8598 20.2307 13.5694C20.2588 13.1561 20.6167 12.8439 21.0299 12.8721C21.4432 12.9002 21.7554 13.258 21.7272 13.6713C21.382 18.7433 17.1592 22.75 12 22.75C10.531 22.75 9.13611 22.4246 7.88506 21.8415L2.11556 22.741C1.79485 22.7911 1.47837 22.6291 1.33136 22.3397C1.18434 22.0503 1.24017 21.6992 1.46969 21.4697L4.15241 18.7869C2.95712 17.1685 2.25002 15.166 2.25002 13C2.25002 8.35895 5.49197 4.47688 9.83405 3.49161C10.238 3.39995 10.6398 3.65311 10.7314 4.05705Z" fill="#231F2C"/>
</svg>
