<svg width="24" height="24" viewBox="0 0 24 24" fill="none" xmlns="http://www.w3.org/2000/svg">
<path fill-rule="evenodd" clip-rule="evenodd" d="M19.6061 2.77369C18.9079 2.07544 17.7758 2.07544 17.0775 2.77369L3.69626 16.155C3.46712 16.3841 3.30456 16.6712 3.22596 16.9856L2.2729 20.7979C2.20761 21.059 2.28413 21.3352 2.47445 21.5255C2.66478 21.7159 2.94101 21.7924 3.20214 21.7271L7.0144 20.774C7.32879 20.6954 7.6159 20.5329 7.84505 20.3037L16.3294 11.8194C16.6287 11.5201 16.6287 11.0349 16.3294 10.7357C16.0302 10.4365 15.545 10.4365 15.2457 10.7357L6.76137 19.2201C6.72863 19.2528 6.68762 19.276 6.64271 19.2872L4.06944 19.9306L4.71276 17.3573C4.72398 17.3124 4.74721 17.2714 4.77994 17.2386L15.7875 6.23103L17.769 8.21246L17.2891 8.6923C16.9899 8.99155 16.9899 9.47673 17.2891 9.77597C17.5884 10.0752 18.0736 10.0752 18.3728 9.77597L19.3916 8.75714L19.3945 8.7543L19.3973 8.75145L21.2263 6.92247C21.9246 6.22422 21.9246 5.09214 21.2263 4.39389L19.6061 2.77369ZM18.8526 7.12878L20.1426 5.83879C20.2424 5.73904 20.2424 5.57732 20.1426 5.47757L18.5224 3.85737C18.4227 3.75762 18.261 3.75762 18.1612 3.85736L16.8712 5.14735L18.8526 7.12878Z" fill="#231F2C"/>
</svg>
