<svg width="24" height="24" viewBox="0 0 24 24" fill="none" xmlns="http://www.w3.org/2000/svg">
<path fill-rule="evenodd" clip-rule="evenodd" d="M8.66447 5.32918L8.99988 6L9.72748 5.8181C9.67231 5.5974 9.51995 5.41367 9.31327 5.31862C9.10659 5.22356 8.86794 5.22744 8.66447 5.32918ZM8.99988 18L8.66447 18.6708C8.86794 18.7726 9.10659 18.7764 9.31327 18.6814C9.51995 18.5863 9.67231 18.4026 9.72748 18.1819L8.99988 18ZM8.47386 16.8372C8.09446 16.6045 7.6111 16.2899 7.06601 15.8934C5.83747 15 4.30869 13.7007 2.94851 12C4.30869 10.2993 5.83747 9.00003 7.06601 8.10655C7.6111 7.71012 8.09446 7.39548 8.47386 7.16282C8.48585 7.23036 8.49796 7.3006 8.51008 7.3733C8.6314 8.10122 8.74988 9.05669 8.74988 10C8.74988 10.2142 8.84144 10.4181 9.00149 10.5605C9.16154 10.7028 9.3748 10.7699 9.58751 10.7449C13.5249 10.2816 16.4327 12.1213 18.3992 14.1474C18.7304 14.4886 19.0333 14.8337 19.3079 15.1717C18.0669 14.4923 16.4949 13.8257 14.652 13.444C14.2464 13.3599 13.8495 13.6206 13.7655 14.0262C13.6815 14.4318 13.9421 14.8288 14.3477 14.9128C16.5543 15.3698 18.3435 16.2803 19.5831 17.0798C20.2019 17.4789 20.6802 17.8481 21.001 18.1148C21.1613 18.248 21.2819 18.3554 21.3608 18.4278C21.4002 18.464 21.4292 18.4914 21.4474 18.5089L21.4666 18.5275L21.4695 18.5303C21.7251 18.7856 22.1267 18.8228 22.4245 18.6182C22.7224 18.4136 22.832 18.0257 22.6852 17.6954L21.9999 18C22.6852 17.6954 22.6852 17.6954 22.6852 17.6954L22.6846 17.6939L22.6835 17.6915L22.6803 17.6844L22.6694 17.6605C22.6601 17.6404 22.6469 17.612 22.6296 17.5759C22.5951 17.5037 22.5446 17.4006 22.4779 17.2713C22.3445 17.0129 22.1461 16.649 21.8814 16.2173C21.3532 15.3558 20.555 14.2148 19.4756 13.1026C17.4474 11.013 14.3744 8.9796 10.2258 9.1868C10.182 8.42108 10.0851 7.69903 9.98967 7.1267C9.92499 6.7386 9.86023 6.41468 9.81135 6.1866C9.7869 6.07248 9.76637 5.9821 9.75174 5.91942C9.74443 5.88807 9.73858 5.86363 9.73446 5.84659L9.72959 5.82662L9.72818 5.8209L9.72748 5.8181C9.72748 5.8181 9.72748 5.8181 8.99988 6C8.66447 5.32918 8.66447 5.32918 8.66447 5.32918L8.66242 5.3302L8.65892 5.33197L8.64759 5.33772L8.60804 5.35811C8.57432 5.37566 8.52609 5.40111 8.46457 5.43448C8.34156 5.5012 8.1653 5.59962 7.94565 5.72978C7.50658 5.98997 6.89284 6.37774 6.18375 6.89345C4.76848 7.92274 2.95759 9.47305 1.39988 11.55C1.19988 11.8167 1.19988 12.1833 1.39988 12.45C2.95759 14.527 4.76848 16.0773 6.18375 17.1066C6.89284 17.6223 7.50658 18.01 7.94565 18.2702C8.1653 18.4004 8.34156 18.4988 8.46457 18.5655C8.52609 18.5989 8.57432 18.6243 8.60804 18.6419L8.64759 18.6623L8.65892 18.668L8.66242 18.6698L8.66447 18.6708C8.66447 18.6708 8.66447 18.6708 8.99988 18C9.72748 18.1819 9.72748 18.1819 9.72748 18.1819L9.72818 18.1791L9.72959 18.1734L9.73446 18.1534C9.73858 18.1364 9.74443 18.1119 9.75174 18.0806C9.76637 18.0179 9.7869 17.9275 9.81135 17.8134C9.86023 17.5853 9.92499 17.2614 9.98967 16.8733C10.0909 16.2662 10.1938 15.4906 10.2332 14.6731C10.8322 14.62 11.4128 14.6067 11.9736 14.6264C12.3875 14.6409 12.7349 14.3171 12.7494 13.9031C12.7639 13.4892 12.4401 13.1418 12.0262 13.1273C11.1883 13.0979 10.3117 13.1351 9.40075 13.2566C9.02815 13.3063 8.74988 13.6241 8.74988 14C8.74988 14.9433 8.6314 15.8988 8.51008 16.6267C8.49796 16.6994 8.48585 16.7696 8.47386 16.8372Z" fill="#231F2C"/>
</svg>
