<svg width="24" height="24" viewBox="0 0 24 24" fill="none" xmlns="http://www.w3.org/2000/svg">
<path fill-rule="evenodd" clip-rule="evenodd" d="M5.35352 3.25C5.67998 2.09575 6.74122 1.25 8 1.25H10C11.2588 1.25 12.32 2.09575 12.6465 3.25H13C15.0711 3.25 16.75 4.92893 16.75 7V7.5C16.75 7.91421 16.4142 8.25 16 8.25C15.5858 8.25 15.25 7.91421 15.25 7.5V7C15.25 5.75736 14.2426 4.75 13 4.75H12.75V5C12.75 5.9665 11.9665 6.75 11 6.75H7C6.0335 6.75 5.25 5.9665 5.25 5V4.75H5C3.75736 4.75 2.75 5.75736 2.75 7V19.1459C2.75 20.0084 3.23467 20.6514 3.92658 20.798L3.77116 21.5317L3.92658 20.798C4.99977 21.0253 6.65378 21.25 9 21.25C9.34078 21.25 9.66695 21.2453 9.97885 21.2365C10.3929 21.2248 10.738 21.551 10.7497 21.965C10.7614 22.3791 10.4352 22.7242 10.0212 22.7359C9.69496 22.7451 9.35469 22.75 9 22.75C6.55776 22.75 4.79907 22.5161 3.61574 22.2654C2.08435 21.941 1.25 20.556 1.25 19.1459V7C1.25 4.92893 2.92893 3.25 5 3.25H5.35352ZM8 2.75C7.30964 2.75 6.75 3.30964 6.75 4V5C6.75 5.13807 6.86193 5.25 7 5.25H11C11.1381 5.25 11.25 5.13807 11.25 5V4C11.25 3.30964 10.6904 2.75 10 2.75H8ZM17 10.75C15.7574 10.75 14.75 11.7574 14.75 13V14.3714C15.3809 14.2964 16.1249 14.25 17 14.25C17.8751 14.25 18.6191 14.2964 19.25 14.3714V13C19.25 11.7574 18.2426 10.75 17 10.75ZM20.75 14.6448V13C20.75 10.9289 19.0711 9.25 17 9.25C14.9289 9.25 13.25 10.9289 13.25 13V14.6448C13.121 14.6784 13.0005 14.713 12.888 14.7481C11.6964 15.1202 11.25 16.2634 11.25 17.2426V19.7574C11.25 20.7366 11.6964 21.8798 12.888 22.2519C13.7362 22.5168 15.0385 22.75 17 22.75C18.9615 22.75 20.2638 22.5168 21.112 22.2519C22.3036 21.8798 22.75 20.7366 22.75 19.7574V17.2426C22.75 16.2634 22.3036 15.1202 21.112 14.7481C20.9995 14.713 20.879 14.6784 20.75 14.6448ZM5.25 11C5.25 10.5858 5.58579 10.25 6 10.25H11C11.4142 10.25 11.75 10.5858 11.75 11C11.75 11.4142 11.4142 11.75 11 11.75H6C5.58579 11.75 5.25 11.4142 5.25 11ZM5.25 15C5.25 14.5858 5.58579 14.25 6 14.25H9C9.41421 14.25 9.75 14.5858 9.75 15C9.75 15.4142 9.41421 15.75 9 15.75H6C5.58579 15.75 5.25 15.4142 5.25 15ZM17 15.75C15.1536 15.75 14.0075 15.9699 13.3352 16.1799C13.0078 16.2821 12.75 16.6306 12.75 17.2426V19.7574C12.75 20.3694 13.0078 20.7179 13.3352 20.8201C14.0075 21.0301 15.1536 21.25 17 21.25C18.8464 21.25 19.9925 21.0301 20.6648 20.8201C20.9922 20.7179 21.25 20.3694 21.25 19.7574V17.2426C21.25 16.6306 20.9922 16.2821 20.6648 16.1799C19.9925 15.9699 18.8464 15.75 17 15.75ZM17 17.25C17.4142 17.25 17.75 17.5858 17.75 18V19C17.75 19.4142 17.4142 19.75 17 19.75C16.5858 19.75 16.25 19.4142 16.25 19V18C16.25 17.5858 16.5858 17.25 17 17.25Z" fill="#231F2C"/>
</svg>
