<svg width="24" height="24" viewBox="0 0 24 24" fill="none" xmlns="http://www.w3.org/2000/svg">
<path d="M8 2.25C7.0335 2.25 6.25 3.0335 6.25 4C6.25 4.9665 7.0335 5.75 8 5.75C8.9665 5.75 9.75 4.9665 9.75 4C9.75 3.0335 8.9665 2.25 8 2.25Z" fill="#231F2C"/>
<path d="M16 2.25C15.0335 2.25 14.25 3.0335 14.25 4C14.25 4.9665 15.0335 5.75 16 5.75C16.9665 5.75 17.75 4.9665 17.75 4C17.75 3.0335 16.9665 2.25 16 2.25Z" fill="#231F2C"/>
<path d="M8 10.25C7.0335 10.25 6.25 11.0335 6.25 12C6.25 12.9665 7.0335 13.75 8 13.75C8.9665 13.75 9.75 12.9665 9.75 12C9.75 11.0335 8.9665 10.25 8 10.25Z" fill="#231F2C"/>
<path d="M16 10.25C15.0335 10.25 14.25 11.0335 14.25 12C14.25 12.9665 15.0335 13.75 16 13.75C16.9665 13.75 17.75 12.9665 17.75 12C17.75 11.0335 16.9665 10.25 16 10.25Z" fill="#231F2C"/>
<path d="M8 18.25C7.0335 18.25 6.25 19.0335 6.25 20C6.25 20.9665 7.0335 21.75 8 21.75C8.9665 21.75 9.75 20.9665 9.75 20C9.75 19.0335 8.9665 18.25 8 18.25Z" fill="#231F2C"/>
<path d="M16 18.25C15.0335 18.25 14.25 19.0335 14.25 20C14.25 20.9665 15.0335 21.75 16 21.75C16.9665 21.75 17.75 20.9665 17.75 20C17.75 19.0335 16.9665 18.25 16 18.25Z" fill="#231F2C"/>
</svg>
