<svg width="24" height="24" viewBox="0 0 24 24" fill="none" xmlns="http://www.w3.org/2000/svg">
<path fill-rule="evenodd" clip-rule="evenodd" d="M6.53033 3.46967C6.82322 3.76256 6.82322 4.23744 6.53033 4.53033L3.81066 7.25H15C15.4142 7.25 15.75 7.58579 15.75 8C15.75 8.41421 15.4142 8.75 15 8.75H3.81066L6.53033 11.4697C6.82322 11.7626 6.82322 12.2374 6.53033 12.5303C6.23744 12.8232 5.76256 12.8232 5.46967 12.5303L1.46967 8.53033C1.17678 8.23744 1.17678 7.76256 1.46967 7.46967L5.46967 3.46967C5.76256 3.17678 6.23744 3.17678 6.53033 3.46967ZM17.4697 11.4697C17.7626 11.1768 18.2374 11.1768 18.5303 11.4697L22.5303 15.4697C22.8232 15.7626 22.8232 16.2374 22.5303 16.5303L18.5303 20.5303C18.2374 20.8232 17.7626 20.8232 17.4697 20.5303C17.1768 20.2374 17.1768 19.7626 17.4697 19.4697L20.1893 16.75H13C12.5858 16.75 12.25 16.4142 12.25 16C12.25 15.5858 12.5858 15.25 13 15.25H20.1893L17.4697 12.5303C17.1768 12.2374 17.1768 11.7626 17.4697 11.4697ZM8.25 16C8.25 15.5858 8.58579 15.25 9 15.25H10C10.4142 15.25 10.75 15.5858 10.75 16C10.75 16.4142 10.4142 16.75 10 16.75H9C8.58579 16.75 8.25 16.4142 8.25 16Z" fill="#231F2C"/>
</svg>
