<svg width="24" height="24" viewBox="0 0 24 24" fill="none" xmlns="http://www.w3.org/2000/svg">
<path fill-rule="evenodd" clip-rule="evenodd" d="M21.1258 11.5991C16.5984 5.13364 7.40162 5.13364 2.87417 11.5991C2.70861 11.8355 2.70861 12.1645 2.87417 12.4009C5.92617 16.7593 11.0891 18.1722 15.5124 16.6701C15.9047 16.537 16.3306 16.7469 16.4638 17.1392C16.597 17.5314 16.387 17.9573 15.9948 18.0905C10.9576 19.801 5.0905 18.181 1.64547 13.2613C1.11818 12.5083 1.11818 11.4917 1.64547 10.7387L2.25982 11.1689L1.64547 10.7387C6.77009 3.42045 17.2299 3.42044 22.3545 10.7387L21.7402 11.1689L22.3545 10.7387C22.8818 11.4917 22.8818 12.5083 22.3545 13.2613L21.7402 12.8311L22.3545 13.2613C21.321 14.7373 20.0668 15.9193 18.6785 16.803C18.329 17.0254 17.8655 16.9225 17.643 16.573C17.4206 16.2236 17.5236 15.76 17.873 15.5376C19.0939 14.7605 20.2047 13.7164 21.1258 12.4009C21.2914 12.1645 21.2914 11.8355 21.1258 11.5991ZM12 9.75C10.7574 9.75 9.75 10.7574 9.75 12C9.75 13.2426 10.7574 14.25 12 14.25C13.2426 14.25 14.25 13.2426 14.25 12C14.25 10.7574 13.2426 9.75 12 9.75ZM8.25 12C8.25 9.92893 9.92893 8.25 12 8.25C14.0711 8.25 15.75 9.92893 15.75 12C15.75 14.0711 14.0711 15.75 12 15.75C9.92893 15.75 8.25 14.0711 8.25 12Z" fill="#231F2C"/>
</svg>
