<svg width="24" height="24" viewBox="0 0 24 24" fill="none" xmlns="http://www.w3.org/2000/svg">
<path fill-rule="evenodd" clip-rule="evenodd" d="M15.3354 5.32918L15 6L14.2723 5.8181C14.3275 5.5974 14.4799 5.41367 14.6866 5.31862C14.8932 5.22356 15.1319 5.22744 15.3354 5.32918ZM15 18L15.3354 18.6708C15.1319 18.7726 14.8932 18.7764 14.6866 18.6814C14.4799 18.5863 14.3275 18.4026 14.2723 18.1819L15 18ZM15.526 16.8372C15.9054 16.6045 16.3887 16.2899 16.9338 15.8934C18.1624 15 19.6911 13.7007 21.0513 12C19.6911 10.2993 18.1624 9.00003 16.9338 8.10655C16.3887 7.71012 15.9054 7.39548 15.526 7.16282C15.514 7.23036 15.5019 7.3006 15.4897 7.3733C15.3684 8.10122 15.25 9.05669 15.25 10C15.25 10.2142 15.1584 10.4181 14.9983 10.5605C14.8383 10.7028 14.625 10.7699 14.4123 10.7449C10.475 10.2816 7.56709 12.1213 5.60064 14.1474C5.26941 14.4886 4.96656 14.8337 4.69193 15.1717C5.93298 14.4923 7.50496 13.8257 9.34783 13.444C9.75343 13.3599 10.1503 13.6206 10.2344 14.0262C10.3184 14.4318 10.0577 14.8288 9.65208 14.9128C7.44557 15.3698 5.65632 16.2803 4.41669 17.0798C3.79795 17.4789 3.31968 17.8481 2.99886 18.1148C2.83856 18.248 2.71791 18.3554 2.63903 18.4278C2.5996 18.464 2.57064 18.4914 2.55242 18.5089L2.53319 18.5275L2.53028 18.5303C2.53018 18.5304 2.53038 18.5302 2.53028 18.5303C2.27471 18.7856 1.87315 18.8228 1.57535 18.6182C1.27744 18.4136 1.16781 18.0257 1.31459 17.6954L1.99995 18C1.31459 17.6954 1.31444 17.6957 1.31459 17.6954L1.31527 17.6939L1.31632 17.6915L1.31954 17.6844L1.33045 17.6605C1.33971 17.6404 1.35295 17.612 1.3702 17.5759C1.40469 17.5037 1.45522 17.4006 1.52193 17.2713C1.65528 17.0129 1.85371 16.649 2.1184 16.2173C2.64666 15.3558 3.44484 14.2148 4.52427 13.1026C6.55242 11.013 9.62546 8.9796 13.774 9.1868C13.8178 8.42108 13.9148 7.69903 14.0102 7.1267C14.0748 6.7386 14.1396 6.41468 14.1885 6.1866C14.2129 6.07248 14.2335 5.9821 14.2481 5.91942C14.2554 5.88807 14.2612 5.86363 14.2654 5.84659L14.2702 5.82662L14.2716 5.8209L14.2723 5.8181C14.2724 5.818 14.2723 5.8181 15 6C15.3354 5.32918 15.3352 5.32908 15.3354 5.32918L15.3374 5.3302L15.3409 5.33197L15.3522 5.33772L15.3918 5.35811C15.4255 5.37566 15.4737 5.40111 15.5353 5.43448C15.6583 5.5012 15.8345 5.59962 16.0542 5.72978C16.4933 5.98997 17.107 6.37774 17.8161 6.89345C19.2314 7.92274 21.0422 9.47305 22.6 11.55C22.8 11.8167 22.8 12.1833 22.6 12.45C21.0422 14.527 19.2314 16.0773 17.8161 17.1066C17.107 17.6223 16.4933 18.01 16.0542 18.2702C15.8345 18.4004 15.6583 18.4988 15.5353 18.5655C15.4737 18.5989 15.4255 18.6243 15.3918 18.6419L15.3522 18.6623L15.3409 18.668L15.3374 18.6698L15.3354 18.6708C15.3352 18.6709 15.3354 18.6708 15 18C14.2723 18.1819 14.2724 18.182 14.2723 18.1819L14.2716 18.1791L14.2702 18.1734L14.2654 18.1534C14.2612 18.1364 14.2554 18.1119 14.2481 18.0806C14.2335 18.0179 14.2129 17.9275 14.1885 17.8134C14.1396 17.5853 14.0748 17.2614 14.0102 16.8733C13.909 16.2662 13.806 15.4906 13.7667 14.6731C13.1676 14.62 12.587 14.6067 12.0262 14.6264C11.6123 14.6409 11.2649 14.3171 11.2504 13.9031C11.2359 13.4892 11.5597 13.1418 11.9737 13.1273C12.8116 13.0979 13.6882 13.1351 14.5991 13.2566C14.9717 13.3063 15.25 13.6241 15.25 14C15.25 14.9433 15.3684 15.8988 15.4897 16.6267C15.5019 16.6994 15.514 16.7696 15.526 16.8372Z" fill="#231F2C"/>
</svg>
