<svg width="24" height="24" viewBox="0 0 24 24" fill="none" xmlns="http://www.w3.org/2000/svg">
<path fill-rule="evenodd" clip-rule="evenodd" d="M10.2156 3.57649C10.4841 2.69869 11.2525 2.25 12 2.25C12.3741 2.25 12.7917 2.38943 13.1249 2.66655C13.4795 2.96152 13.7408 3.41689 13.7408 4.00068C13.7408 5.13874 13.7418 6.992 13.7433 8.93906C13.7436 9.35328 13.408 9.68931 12.9938 9.68961C12.5796 9.68991 12.2436 9.35437 12.2433 8.94015C12.2418 6.99313 12.2408 5.13935 12.2408 4.00068C12.2408 3.94016 12.2285 3.90505 12.2185 3.88471C12.2078 3.8627 12.1911 3.84094 12.1657 3.81979C12.1391 3.79766 12.1054 3.77855 12.0691 3.76548C12.0314 3.75188 12.0055 3.75 12 3.75C11.9185 3.75 11.8439 3.77413 11.787 3.81388C11.7349 3.85025 11.6823 3.90978 11.65 4.01533L10.3198 8.36311C10.08 9.14703 9.35965 9.68961 8.53541 9.68961H4.11931C3.78508 9.68961 3.60134 10.1438 3.8999 10.3741L7.56488 13.2021C8.1867 13.6819 8.44264 14.4988 8.21353 15.2477L6.836 19.7503C6.71899 20.1328 7.14482 20.3706 7.40542 20.1695L10.8642 17.5006C11.0147 17.3845 11.1966 17.2435 11.3847 17.0973C11.9307 16.673 12.2492 16.0195 12.2486 15.3261L12.2457 12.0006C12.2453 11.5864 12.5808 11.2503 12.995 11.25C13.4093 11.2497 13.7453 11.5852 13.7457 11.9994L13.7486 15.3247C13.7497 16.4797 13.2187 17.5717 12.3052 18.2817C12.1165 18.4283 11.933 18.5706 11.7806 18.6882L8.32176 21.3571C6.8531 22.4903 4.87567 21.0306 5.40162 19.3115L6.77916 14.8089C6.82711 14.6521 6.77187 14.4848 6.64854 14.3897L2.98356 11.5617C1.58235 10.4805 2.31561 8.18961 4.11931 8.18961H8.53541C8.6907 8.18961 8.83569 8.08684 8.88543 7.92428L10.2156 3.57649Z" fill="#231F2C"/>
</svg>
