<svg width="24" height="24" viewBox="0 0 24 24" fill="none" xmlns="http://www.w3.org/2000/svg">
<path fill-rule="evenodd" clip-rule="evenodd" d="M11.4697 1.46967C11.7626 1.17678 12.2374 1.17678 12.5303 1.46967L16.5303 5.46967C16.8232 5.76256 16.8232 6.23744 16.5303 6.53033C16.2374 6.82322 15.7626 6.82322 15.4697 6.53033L12.75 3.81066V15C12.75 15.4142 12.4142 15.75 12 15.75C11.5858 15.75 11.25 15.4142 11.25 15V3.81066L8.53033 6.53033C8.23744 6.82322 7.76256 6.82322 7.46967 6.53033C7.17678 6.23744 7.17678 5.76256 7.46967 5.46967L11.4697 1.46967ZM6.23607 9.75C5.75356 9.75 5.41672 10.016 5.32376 10.3618C5.06303 11.3318 4.75 13.0135 4.75 15.5C4.75 17.9865 5.06303 19.6682 5.32376 20.6382C5.41672 20.984 5.75356 21.25 6.23607 21.25H17.7639C18.2464 21.25 18.5833 20.984 18.6762 20.6382C18.937 19.6682 19.25 17.9865 19.25 15.5C19.25 13.0135 18.937 11.3318 18.6762 10.3618C18.5833 10.016 18.2464 9.75 17.7639 9.75H15C14.5858 9.75 14.25 9.41421 14.25 9C14.25 8.58579 14.5858 8.25 15 8.25H17.7639C18.7965 8.25 19.8245 8.85511 20.1248 9.97243C20.4207 11.0732 20.75 12.8861 20.75 15.5C20.75 18.1139 20.4207 19.9268 20.1248 21.0276C19.8245 22.1449 18.7965 22.75 17.7639 22.75H6.23607C5.20349 22.75 4.17551 22.1449 3.87518 21.0276C3.57929 19.9268 3.25 18.1139 3.25 15.5C3.25 12.8861 3.57929 11.0732 3.87518 9.97243C4.17551 8.85511 5.20349 8.25 6.23607 8.25H9C9.41421 8.25 9.75 8.58579 9.75 9C9.75 9.41421 9.41421 9.75 9 9.75H6.23607Z" fill="#231F2C"/>
</svg>
