<svg width="24" height="24" viewBox="0 0 24 24" fill="none" xmlns="http://www.w3.org/2000/svg">
<path fill-rule="evenodd" clip-rule="evenodd" d="M12 2.75C8.54822 2.75 5.75 5.54822 5.75 9C5.75 10.8712 6.57134 12.5496 7.87565 13.6961C8.40752 14.1636 8.85866 14.8226 8.95911 15.6262L9.38548 19.0371L12.8472 18.2679C13.2516 18.178 13.6522 18.433 13.742 18.8373C13.8319 19.2417 13.577 19.6423 13.1726 19.7321L9.6285 20.5197C9.82715 20.9544 10.2653 21.25 10.7656 21.25H13.2344C13.8648 21.25 14.3966 20.7806 14.4748 20.155L14.882 16.897L11.1643 17.7318C10.7602 17.8225 10.359 17.5685 10.2682 17.1643C10.1775 16.7602 10.4315 16.359 10.8357 16.2682L15.5942 15.1997C15.8325 15.1462 16.0819 15.2121 16.2627 15.3762C16.4435 15.5404 16.5331 15.7822 16.5028 16.0246L15.9632 20.3411C15.7912 21.7173 14.6213 22.75 13.2344 22.75H10.7656C9.37868 22.75 8.20882 21.7173 8.0368 20.3411L7.47069 15.8122C7.42755 15.4671 7.22294 15.1195 6.88532 14.8227C5.27079 13.4035 4.25 11.3205 4.25 9C4.25 4.71979 7.7198 1.25 12 1.25C16.2802 1.25 19.75 4.71979 19.75 9C19.75 11.0149 18.9801 12.8518 17.7196 14.2296C17.4401 14.5353 16.9657 14.5564 16.66 14.2768C16.3544 13.9972 16.3333 13.5228 16.6129 13.2172C17.6303 12.105 18.25 10.6257 18.25 9C18.25 5.54822 15.4518 2.75 12 2.75Z" fill="#231F2C"/>
</svg>
