<svg width="24" height="24" viewBox="0 0 24 24" fill="none" xmlns="http://www.w3.org/2000/svg">
<path fill-rule="evenodd" clip-rule="evenodd" d="M8 6.75C5.10051 6.75 2.75 9.10051 2.75 12C2.75 14.8995 5.10051 17.25 8 17.25H17.5C17.9142 17.25 18.25 17.5858 18.25 18C18.25 18.4142 17.9142 18.75 17.5 18.75H8C4.27208 18.75 1.25 15.7279 1.25 12C1.25 8.27208 4.27208 5.25 8 5.25H18C20.6234 5.25 22.75 7.37665 22.75 10C22.75 12.6234 20.6234 14.75 18 14.75H8C6.48122 14.75 5.25 13.5188 5.25 12C5.25 10.4812 6.48122 9.25 8 9.25H11C11.4142 9.25 11.75 9.58579 11.75 10C11.75 10.4142 11.4142 10.75 11 10.75H8C7.30964 10.75 6.75 11.3096 6.75 12C6.75 12.6904 7.30964 13.25 8 13.25H18C19.7949 13.25 21.25 11.7949 21.25 10C21.25 8.20507 19.7949 6.75 18 6.75H8ZM13.25 10C13.25 9.58579 13.5858 9.25 14 9.25H17C17.4142 9.25 17.75 9.58579 17.75 10C17.75 10.4142 17.4142 10.75 17 10.75H14C13.5858 10.75 13.25 10.4142 13.25 10Z" fill="#231F2C"/>
</svg>
