<svg width="24" height="24" viewBox="0 0 24 24" fill="none" xmlns="http://www.w3.org/2000/svg">
<path fill-rule="evenodd" clip-rule="evenodd" d="M17.25 5C17.25 4.58579 17.5858 4.25 18 4.25H20C21.5188 4.25 22.75 5.48122 22.75 7V17C22.75 18.5188 21.5188 19.75 20 19.75H18C17.5858 19.75 17.25 19.4142 17.25 19C17.25 18.5858 17.5858 18.25 18 18.25H20C20.6904 18.25 21.25 17.6904 21.25 17V7C21.25 6.30964 20.6904 5.75 20 5.75H18C17.5858 5.75 17.25 5.41421 17.25 5ZM11.3354 5.32918L11 6L10.2724 5.8181C10.3276 5.5974 10.4799 5.41367 10.6866 5.31862C10.8933 5.22356 11.1319 5.22744 11.3354 5.32918ZM11 18L11.3354 18.6708C11.1319 18.7726 10.8933 18.7764 10.6866 18.6814C10.4799 18.5863 10.3276 18.4026 10.2724 18.1819L11 18ZM11.526 16.8372C11.9054 16.6045 12.3888 16.2899 12.9339 15.8934C14.1624 15 15.6912 13.7007 17.0514 12C15.6912 10.2993 14.1624 9.00003 12.9339 8.10655C12.3888 7.71012 11.9054 7.39548 11.526 7.16282C11.514 7.23036 11.5019 7.3006 11.4898 7.3733C11.3685 8.10122 11.25 9.05669 11.25 10C11.25 10.4142 10.9142 10.75 10.5 10.75H9C8.58579 10.75 8.25 10.4142 8.25 10C8.25 9.58579 8.58579 9.25 9 9.25H9.7706C9.81254 8.46085 9.9122 7.71475 10.0102 7.1267C10.0749 6.7386 10.1396 6.41468 10.1885 6.1866C10.213 6.07248 10.2335 5.9821 10.2481 5.91942C10.2554 5.88807 10.2613 5.86363 10.2654 5.84659L10.2703 5.82662L10.2717 5.8209L10.2724 5.8181C10.2724 5.818 10.2724 5.8181 11 6C11.3354 5.32918 11.3352 5.32908 11.3354 5.32918L11.3375 5.3302L11.341 5.33197L11.3523 5.33772L11.3918 5.35811C11.4256 5.37566 11.4738 5.40111 11.5353 5.43448C11.6583 5.5012 11.8346 5.59962 12.0542 5.72978C12.4933 5.98997 13.107 6.37774 13.8161 6.89345C15.2314 7.92274 17.0423 9.47305 18.6 11.55C18.8 11.8167 18.8 12.1833 18.6 12.45C17.0423 14.527 15.2314 16.0773 13.8161 17.1066C13.107 17.6223 12.4933 18.01 12.0542 18.2702C11.8346 18.4004 11.6583 18.4988 11.5353 18.5655C11.4738 18.5989 11.4256 18.6243 11.3918 18.6419L11.3523 18.6623L11.341 18.668L11.3375 18.6698L11.3354 18.6708C11.3352 18.6709 11.3354 18.6708 11 18C10.2724 18.1819 10.2724 18.182 10.2724 18.1819L10.2717 18.1791L10.2703 18.1734L10.2654 18.1534C10.2613 18.1364 10.2554 18.1119 10.2481 18.0806C10.2335 18.0179 10.213 17.9275 10.1885 17.8134C10.1396 17.5853 10.0749 17.2614 10.0102 16.8733C9.9122 16.2852 9.81254 15.5391 9.7706 14.75H3C2.0335 14.75 1.25 13.9665 1.25 13V11C1.25 10.0335 2.0335 9.25 3 9.25H6C6.41421 9.25 6.75 9.58579 6.75 10C6.75 10.4142 6.41421 10.75 6 10.75H3C2.86193 10.75 2.75 10.8619 2.75 11V13C2.75 13.1381 2.86193 13.25 3 13.25H10.5C10.9142 13.25 11.25 13.5858 11.25 14C11.25 14.9433 11.3685 15.8988 11.4898 16.6267C11.5019 16.6994 11.514 16.7696 11.526 16.8372Z" fill="#231F2C"/>
</svg>
