<svg width="24" height="24" viewBox="0 0 24 24" fill="none" xmlns="http://www.w3.org/2000/svg">
<path fill-rule="evenodd" clip-rule="evenodd" d="M2.25 7C2.25 4.37665 4.37665 2.25 7 2.25H16C16.4142 2.25 16.75 2.58579 16.75 3C16.75 3.41421 16.4142 3.75 16 3.75H7C5.20507 3.75 3.75 5.20507 3.75 7V16C3.75 16.4142 3.41421 16.75 3 16.75C2.58579 16.75 2.25 16.4142 2.25 16V7ZM5.25 8C5.25 6.48122 6.48122 5.25 8 5.25H19C20.5188 5.25 21.75 6.48122 21.75 8V14C21.75 14.4142 21.4142 14.75 21 14.75C20.5858 14.75 20.25 14.4142 20.25 14V8C20.25 7.30964 19.6904 6.75 19 6.75H8C7.30964 6.75 6.75 7.30964 6.75 8V19C6.75 19.6904 7.30964 20.25 8 20.25H19C19.6904 20.25 20.25 19.6904 20.25 19V17C20.25 16.5858 20.5858 16.25 21 16.25C21.4142 16.25 21.75 16.5858 21.75 17V19C21.75 20.5188 20.5188 21.75 19 21.75H8C6.48122 21.75 5.25 20.5188 5.25 19V8Z" fill="#231F2C"/>
</svg>
