<svg width="24" height="24" viewBox="0 0 24 24" fill="none" xmlns="http://www.w3.org/2000/svg">
<path fill-rule="evenodd" clip-rule="evenodd" d="M12 2.75C10.2051 2.75 8.75 4.20507 8.75 6V11.438C9.64847 11.3228 10.7218 11.25 12 11.25C13.2782 11.25 14.3515 11.3228 15.25 11.438V6C15.25 4.20507 13.7949 2.75 12 2.75ZM16.75 11.6994V6C16.75 3.37665 14.6234 1.25 12 1.25C9.37665 1.25 7.25 3.37665 7.25 6V11.6994C6.90511 11.7778 6.59919 11.862 6.32849 11.9483C4.82999 12.4258 4.25 13.8931 4.25 15.2038V18.7962C4.25 20.1069 4.82999 21.5742 6.32849 22.0517C7.48223 22.4194 9.27572 22.75 12 22.75C14.7243 22.75 16.5178 22.4194 17.6715 22.0517C19.17 21.5742 19.75 20.1069 19.75 18.7962C19.75 18.382 19.4142 18.0462 19 18.0462C18.5858 18.0462 18.25 18.382 18.25 18.7962C18.25 19.7589 17.8441 20.4224 17.216 20.6226C16.2411 20.9333 14.6067 21.25 12 21.25C9.39333 21.25 7.75893 20.9333 6.78396 20.6226C6.15594 20.4224 5.75 19.7589 5.75 18.7962V15.2038C5.75 14.2411 6.15594 13.5776 6.78396 13.3774C7.75892 13.0667 9.39333 12.75 12 12.75C14.6067 12.75 16.2411 13.0667 17.216 13.3774C17.8441 13.5776 18.25 14.2411 18.25 15.2038V16C18.25 16.4142 18.5858 16.75 19 16.75C19.4142 16.75 19.75 16.4142 19.75 16V15.2038C19.75 13.8931 19.17 12.4258 17.6715 11.9483C17.4008 11.862 17.0949 11.7778 16.75 11.6994ZM12 15.25C12.4142 15.25 12.75 15.5858 12.75 16V18C12.75 18.4142 12.4142 18.75 12 18.75C11.5858 18.75 11.25 18.4142 11.25 18V16C11.25 15.5858 11.5858 15.25 12 15.25Z" fill="#231F2C"/>
</svg>
