<svg width="24" height="24" viewBox="0 0 24 24" fill="none" xmlns="http://www.w3.org/2000/svg">
<path fill-rule="evenodd" clip-rule="evenodd" d="M10.0323 3.25087C10.3612 2.63464 11.003 2.25 11.7013 2.25C12.852 2.25 13.7369 3.26863 13.574 4.40838L12.9401 8.84268C12.9172 9.00265 13.0507 9.14297 13.2133 9.12672L13.2204 9.12601L17.6248 8.72823C20.3728 8.45624 22.4652 11.1455 21.5205 13.7417L20.0681 17.7332C19.4149 19.5282 17.9805 21.0474 15.9684 21.3888C14.7913 21.5886 12.8463 21.75 11.0163 21.75C8.22202 21.75 6.16747 21.3742 4.96548 21.0714C3.91803 20.8074 3.25116 19.9097 3.12927 18.9208L2.85289 17.1335C2.78959 16.7242 3.07012 16.341 3.47947 16.2777C3.88881 16.2144 4.27197 16.4949 4.33527 16.9043L4.61356 18.7039C4.61495 18.7129 4.61617 18.7219 4.61723 18.7308C4.67157 19.1924 4.96184 19.5236 5.33199 19.6168C6.42604 19.8925 8.35728 20.25 11.0163 20.25C12.78 20.25 14.6391 20.093 15.7174 19.91C17.0761 19.6794 18.1433 18.6362 18.6585 17.2203L20.111 13.2288C20.6775 11.6717 19.4221 10.0561 17.7703 10.2212L17.7632 10.2219L13.3584 10.6197C12.2301 10.7299 11.2945 9.75439 11.4552 8.63041L12.0891 4.19611C12.1227 3.96123 11.9403 3.75 11.7013 3.75C11.5564 3.75 11.4236 3.82982 11.3556 3.95714L8.09347 10.0694C7.72728 10.7556 7.08765 11.2545 6.33307 11.4431L4.90053 11.8009C4.18087 11.9807 3.70162 12.6321 3.75448 13.1484L3.87088 13.9011C3.93418 14.3105 3.65365 14.6937 3.2443 14.757C2.83495 14.8203 2.4518 14.5397 2.3885 14.1304L2.26966 13.3619C2.26827 13.3529 2.26705 13.344 2.26599 13.335C2.09174 11.8549 3.3086 10.6525 4.53696 10.3457L5.9695 9.98778C6.31291 9.90199 6.60373 9.67498 6.77014 9.36318L10.0323 3.25087Z" fill="#231F2C"/>
</svg>
