<svg width="24" height="24" viewBox="0 0 24 24" fill="none" xmlns="http://www.w3.org/2000/svg">
<path fill-rule="evenodd" clip-rule="evenodd" d="M15.9126 2.66047C16.9788 1.9941 18.3638 2.15184 19.2529 3.04089L20.9591 4.74716C21.8482 5.63621 22.0059 7.02124 21.3395 8.08744L19.4414 11.1245C19.2218 11.4758 18.7591 11.5825 18.4079 11.363C18.0566 11.1435 17.9498 10.6808 18.1694 10.3295L20.0675 7.29244C20.3637 6.81856 20.2936 6.20297 19.8985 5.80782L18.1922 4.10155C17.797 3.7064 17.1815 3.63629 16.7076 3.93247L11.1393 7.41263C10.7884 7.63193 10.5753 8.01652 10.5753 8.4303V8.75201C10.5753 9.99099 9.73205 11.071 8.53006 11.3715L7.39211 11.656L12.3441 16.6079L12.6285 15.47C12.929 14.268 14.009 13.4247 15.248 13.4247H15.5697C15.9835 13.4247 16.3681 13.2116 16.5874 12.8607C16.8069 12.5095 17.2696 12.4027 17.6209 12.6222C17.9721 12.8417 18.0789 13.3045 17.8594 13.6557C17.366 14.4452 16.5007 14.9247 15.5697 14.9247H15.248C14.6973 14.9247 14.2173 15.2995 14.0838 15.8338L13.478 18.2568C13.4125 18.5189 13.211 18.7256 12.9506 18.7977C12.6902 18.8698 12.4111 18.7963 12.2201 18.6052L9.33775 15.7229L3.53033 21.5303C3.23744 21.8232 2.76256 21.8232 2.46967 21.5303C2.17678 21.2375 2.17678 20.7626 2.46967 20.4697L8.27709 14.6623L5.39479 11.78C5.20372 11.5889 5.1302 11.3098 5.20233 11.0494C5.27446 10.789 5.48108 10.5876 5.74322 10.522L8.16626 9.91626C8.70049 9.7827 9.07527 9.30269 9.07527 8.75201V8.4303C9.07527 7.49934 9.55486 6.63404 10.3443 6.14064L15.9126 2.66047Z" fill="#231F2C"/>
</svg>
