<svg width="24" height="24" viewBox="0 0 24 24" fill="none" xmlns="http://www.w3.org/2000/svg">
<path fill-rule="evenodd" clip-rule="evenodd" d="M15 4.75C14.3096 4.75 13.75 5.30964 13.75 6C13.75 6.69036 14.3096 7.25 15 7.25C15.6904 7.25 16.25 6.69036 16.25 6C16.25 5.30964 15.6904 4.75 15 4.75ZM12.3535 5.25C12.68 4.09575 13.7412 3.25 15 3.25C16.5188 3.25 17.75 4.48122 17.75 6C17.75 7.51878 16.5188 8.75 15 8.75C13.7412 8.75 12.68 7.90425 12.3535 6.75H2C1.58579 6.75 1.25 6.41421 1.25 6C1.25 5.58579 1.58579 5.25 2 5.25H12.3535ZM18.25 6C18.25 5.58579 18.5858 5.25 19 5.25H22C22.4142 5.25 22.75 5.58579 22.75 6C22.75 6.41421 22.4142 6.75 22 6.75H19C18.5858 6.75 18.25 6.41421 18.25 6ZM7 10.75C6.30964 10.75 5.75 11.3096 5.75 12C5.75 12.6904 6.30964 13.25 7 13.25C7.69036 13.25 8.25 12.6904 8.25 12C8.25 11.3096 7.69036 10.75 7 10.75ZM4.35352 11.25C4.67998 10.0957 5.74122 9.25 7 9.25C8.51878 9.25 9.75 10.4812 9.75 12C9.75 13.5188 8.51878 14.75 7 14.75C5.74122 14.75 4.67998 13.9043 4.35352 12.75H2C1.58579 12.75 1.25 12.4142 1.25 12C1.25 11.5858 1.58579 11.25 2 11.25H4.35352ZM10.25 12C10.25 11.5858 10.5858 11.25 11 11.25H22C22.4142 11.25 22.75 11.5858 22.75 12C22.75 12.4142 22.4142 12.75 22 12.75H11C10.5858 12.75 10.25 12.4142 10.25 12ZM15 16.75C14.3096 16.75 13.75 17.3096 13.75 18C13.75 18.6904 14.3096 19.25 15 19.25C15.6904 19.25 16.25 18.6904 16.25 18C16.25 17.3096 15.6904 16.75 15 16.75ZM12.3535 17.25C12.68 16.0957 13.7412 15.25 15 15.25C16.5188 15.25 17.75 16.4812 17.75 18C17.75 19.5188 16.5188 20.75 15 20.75C13.7412 20.75 12.68 19.9043 12.3535 18.75H2C1.58579 18.75 1.25 18.4142 1.25 18C1.25 17.5858 1.58579 17.25 2 17.25H12.3535ZM18.25 18C18.25 17.5858 18.5858 17.25 19 17.25H22C22.4142 17.25 22.75 17.5858 22.75 18C22.75 18.4142 22.4142 18.75 22 18.75H19C18.5858 18.75 18.25 18.4142 18.25 18Z" fill="#231F2C"/>
</svg>
