<svg width="24" height="24" viewBox="0 0 24 24" fill="none" xmlns="http://www.w3.org/2000/svg">
<path fill-rule="evenodd" clip-rule="evenodd" d="M11.55 1.4C11.8167 1.2 12.1833 1.2 12.45 1.4C14.527 2.95771 16.0773 4.7686 17.1066 6.18387C17.6223 6.89296 18.01 7.5067 18.2702 7.94577C18.4004 8.16542 18.4988 8.34168 18.5655 8.46469C18.5989 8.52621 18.6243 8.57444 18.6419 8.60816L18.6623 8.64771L18.668 8.65904L18.6698 8.66255L18.6704 8.66375C18.6705 8.66395 18.6708 8.66459 18 9C18.1819 9.72761 18.1818 9.72763 18.1817 9.72765L18.1791 9.72831L18.1734 9.72972L18.1534 9.73458C18.1364 9.73871 18.1119 9.74455 18.0806 9.75187C18.0179 9.76649 17.9275 9.78702 17.8134 9.81148C17.5853 9.86035 17.2614 9.92511 16.8733 9.9898C16.2852 10.0878 15.5391 10.1875 14.75 10.2294V11C14.75 11.4142 14.4142 11.75 14 11.75C13.5858 11.75 13.25 11.4142 13.25 11V9.5C13.25 9.08579 13.5858 8.75 14 8.75C14.9433 8.75 15.8988 8.63152 16.6267 8.5102C16.6994 8.49809 16.7696 8.48598 16.8372 8.47399C16.6045 8.09458 16.2899 7.61123 15.8934 7.06613C15 5.83759 13.7007 4.30881 12 2.94863C10.2993 4.30881 9.00003 5.83759 8.10655 7.06613C7.71012 7.61123 7.39548 8.09458 7.16282 8.47399C7.23036 8.48598 7.3006 8.49809 7.3733 8.5102C8.10122 8.63152 9.05669 8.75 10 8.75C10.4142 8.75 10.75 9.08579 10.75 9.5V17C10.75 17.1381 10.8619 17.25 11 17.25H13C13.1381 17.25 13.25 17.1381 13.25 17V14C13.25 13.5858 13.5858 13.25 14 13.25C14.4142 13.25 14.75 13.5858 14.75 14V17C14.75 17.9665 13.9665 18.75 13 18.75H11C10.0335 18.75 9.25 17.9665 9.25 17V10.2294C8.46085 10.1875 7.71475 10.0878 7.1267 9.9898C6.7386 9.92511 6.41468 9.86035 6.1866 9.81148C6.07248 9.78702 5.9821 9.76649 5.91942 9.75187C5.88807 9.74455 5.86363 9.73871 5.84659 9.73458L5.82662 9.72972L5.8209 9.72831L5.81914 9.72787C5.81904 9.72784 5.8181 9.72761 6 9C5.32918 8.66459 5.32927 8.66441 5.32937 8.66422L5.3302 8.66255L5.33197 8.65904L5.33772 8.64771L5.35811 8.60816C5.37566 8.57444 5.40111 8.52621 5.43448 8.46469C5.5012 8.34168 5.59962 8.16542 5.72978 7.94577C5.98997 7.5067 6.37774 6.89296 6.89345 6.18387C7.92274 4.7686 9.47305 2.95771 11.55 1.4ZM6 9L5.32937 8.66422C5.22763 8.86769 5.22356 9.10672 5.31862 9.31339C5.41367 9.52007 5.5974 9.67243 5.8181 9.72761L6 9ZM18 9L18.1817 9.72765C18.4024 9.67248 18.5863 9.52007 18.6814 9.31339C18.7764 9.10672 18.7721 8.86722 18.6704 8.66375L18 9ZM5 19.25C5.41421 19.25 5.75 19.5858 5.75 20C5.75 20.6904 6.30964 21.25 7 21.25H17C17.6904 21.25 18.25 20.6904 18.25 20C18.25 19.5858 18.5858 19.25 19 19.25C19.4142 19.25 19.75 19.5858 19.75 20C19.75 21.5188 18.5188 22.75 17 22.75H7C5.48122 22.75 4.25 21.5188 4.25 20C4.25 19.5858 4.58579 19.25 5 19.25Z" fill="#231F2C"/>
</svg>
