<svg width="24" height="24" viewBox="0 0 24 24" fill="none" xmlns="http://www.w3.org/2000/svg">
<path fill-rule="evenodd" clip-rule="evenodd" d="M21.7398 3.12331L21 3.00001L20.8767 2.26021C21.1156 2.22039 21.3591 2.29841 21.5303 2.46968C21.7016 2.64095 21.7796 2.88439 21.7398 3.12331ZM20.0637 3.93634C19.9513 4.50851 19.7908 5.28181 19.5824 6.18156C19.1282 8.1418 18.4501 10.6853 17.5509 13.0524C17.4038 13.4397 17.5985 13.8728 17.9857 14.0199C18.3729 14.167 18.8061 13.9723 18.9532 13.5851C19.8859 11.1295 20.5818 8.51354 21.0437 6.52011C21.275 5.52145 21.4486 4.67476 21.5646 4.07685C21.6225 3.77782 21.6661 3.54081 21.6953 3.37791C21.7099 3.29644 21.7209 3.23349 21.7283 3.19056L21.7368 3.14136L21.7396 3.12484L21.7398 3.12331C21.7398 3.1232 21.7398 3.12331 21 3.00001C20.8767 2.26021 20.8768 2.2602 20.8767 2.26021L20.8713 2.26112L20.8573 2.26349L20.8043 2.27258C20.758 2.28058 20.6902 2.29246 20.6025 2.30823C20.4272 2.33975 20.1723 2.38682 19.8514 2.44943C19.2098 2.57461 18.3035 2.76214 17.2412 3.01209C15.1214 3.51086 12.3597 4.26301 9.83664 5.27224C6.75791 6.50373 4.433 7.73631 3.09212 8.50746C1.96995 9.15283 1.99398 10.6915 3.01792 11.3741L7.7201 14.5089C7.91267 14.6373 8.15373 14.6695 8.37329 14.5964L9.91886 14.0812L9.40367 15.6267C9.33048 15.8463 9.36276 16.0874 9.49114 16.2799L12.6259 20.9821C13.3086 22.006 14.8472 22.0301 15.4926 20.9079C16.0666 19.9098 16.896 18.367 17.7902 16.3743C17.9598 15.9964 17.7909 15.5526 17.413 15.383C17.0351 15.2134 16.5913 15.3823 16.4217 15.7602C15.5506 17.7012 14.7448 19.1993 14.1923 20.1601C14.1544 20.2259 14.1034 20.2491 14.0489 20.25C13.9911 20.2509 13.9241 20.2252 13.874 20.15L10.9427 15.7531L11.7602 13.3004L15.5932 9.46752C15.8861 9.17463 15.8861 8.69975 15.5932 8.40686C15.3003 8.11397 14.8254 8.11397 14.5325 8.40686L10.6996 12.2398L8.24694 13.0573L3.84998 10.126C3.77479 10.0759 3.7491 10.0089 3.75004 9.95112C3.75092 9.89667 3.77411 9.84561 3.83994 9.80776C5.13134 9.06506 7.39224 7.86555 10.3937 6.66496C12.8183 5.69513 15.499 4.96298 17.5847 4.47222C18.5843 4.23702 19.4425 4.05837 20.0637 3.93634Z" fill="#231F2C"/>
</svg>
