<svg width="24" height="24" viewBox="0 0 24 24" fill="none" xmlns="http://www.w3.org/2000/svg">
<path fill-rule="evenodd" clip-rule="evenodd" d="M4.93129 3.2581C5.1693 2.02003 6.26288 1.25 7.44152 1.25H16.5585C17.7371 1.25 18.8307 2.02003 19.0687 3.2581C19.3693 4.82195 19.75 7.65922 19.75 12C19.75 12.3535 19.7475 12.6971 19.7427 13.0308C19.7367 13.445 19.3961 13.7759 18.982 13.77C18.5678 13.764 18.2369 13.4234 18.2428 13.0093C18.2475 12.6828 18.25 12.3464 18.25 12C18.25 7.74708 17.8771 5.00501 17.5957 3.54128C17.5087 3.08859 17.1016 2.75 16.5585 2.75H7.44152C6.89844 2.75 6.49134 3.08859 6.40432 3.54128C6.12293 5.00501 5.75 7.74708 5.75 12C5.75 15.4642 5.99744 17.926 6.24128 19.511C6.30121 19.9005 6.36092 20.2371 6.4167 20.5226L11.4697 15.4697C11.7626 15.1768 12.2374 15.1768 12.5303 15.4697L17.5833 20.5226C17.5899 20.4889 17.5965 20.4544 17.6032 20.4193C17.7838 19.4708 17.9999 18.0011 18.131 15.95C18.1574 15.5366 18.5139 15.2229 18.9273 15.2493C19.3406 15.2757 19.6543 15.6322 19.6279 16.0456C19.4931 18.1561 19.2695 19.6876 19.0768 20.6998C18.9804 21.2059 18.8918 21.5821 18.826 21.8358C18.793 21.9627 18.7658 22.059 18.7461 22.1256C18.7362 22.1589 18.7283 22.1847 18.7224 22.2033L18.7153 22.2257L18.713 22.2328L18.7121 22.2353L18.7118 22.2363C18.7117 22.2365 18.7115 22.2372 18 22L18.7118 22.2363C18.6296 22.4829 18.4253 22.6702 18.1723 22.7299C17.9193 22.7897 17.6535 22.7141 17.4697 22.5303L12 17.0607L6.53033 22.5303C6.34653 22.7141 6.08067 22.7897 5.82769 22.7299C5.57471 22.6702 5.37069 22.4838 5.28849 22.2372L6 22C5.28849 22.2372 5.28858 22.2374 5.28849 22.2372L5.28812 22.2361L5.28766 22.2347L5.28648 22.2311L5.28307 22.2206L5.27226 22.1862C5.26333 22.1573 5.25104 22.1165 5.23589 22.0635C5.20558 21.9574 5.16381 21.8025 5.11446 21.5969C5.01576 21.1857 4.8868 20.5716 4.75872 19.739C4.50256 18.074 4.25 15.5358 4.25 12C4.25 7.65922 4.63066 4.82195 4.93129 3.2581Z" fill="#231F2C"/>
</svg>
