<svg width="24" height="24" viewBox="0 0 24 24" fill="none" xmlns="http://www.w3.org/2000/svg">
<path fill-rule="evenodd" clip-rule="evenodd" d="M12.0001 3.75C8.46636 3.75 6.00188 4.10176 4.60597 4.37969C4.56224 4.38839 4.54114 4.40354 4.53078 4.41302C4.51896 4.42385 4.50871 4.43895 4.50239 4.45945C4.49059 4.49775 4.49048 4.56435 4.55474 4.63779L9.57484 10.375C10.3325 11.2409 10.7501 12.3524 10.7501 13.5029V18.5365L13.2501 19.7865V13.5029C13.2501 12.3524 13.6677 11.2409 14.4254 10.375L15.1855 9.50635C15.4582 9.19462 15.9321 9.16303 16.2438 9.43579C16.5555 9.70856 16.5871 10.1824 16.3143 10.4941L15.5542 11.3628C15.0358 11.9552 14.7501 12.7157 14.7501 13.5029V21C14.7501 21.2599 14.6155 21.5013 14.3944 21.638C14.1733 21.7746 13.8972 21.7871 13.6647 21.6708L9.66469 19.6708C9.4106 19.5438 9.2501 19.2841 9.2501 19V13.5029C9.2501 12.7157 8.96436 11.9552 8.44597 11.3628L3.42587 5.62555C2.61358 4.69721 2.99057 3.17188 4.31306 2.90856C5.80352 2.61181 8.3661 2.25 12.0001 2.25C15.6341 2.25 18.1967 2.61181 19.6871 2.90856C21.0096 3.17188 21.3866 4.69721 20.5743 5.62555L18.0626 8.4961C17.7898 8.80783 17.316 8.83942 17.0043 8.56665C16.6925 8.29389 16.661 7.82007 16.9337 7.50834L19.4455 4.63779C19.5097 4.56435 19.5096 4.49776 19.4978 4.45945C19.4915 4.43895 19.4812 4.42385 19.4694 4.41302C19.4591 4.40354 19.438 4.38839 19.3942 4.37969C17.9983 4.10176 15.5338 3.75 12.0001 3.75Z" fill="#231F2C"/>
</svg>
