<svg width="24" height="24" viewBox="0 0 24 24" fill="none" xmlns="http://www.w3.org/2000/svg">
<path d="M17.25 5C17.25 4.58579 17.5858 4.25 18 4.25H20C21.5188 4.25 22.75 5.48122 22.75 7V17C22.75 18.5188 21.5188 19.75 20 19.75H18C17.5858 19.75 17.25 19.4142 17.25 19C17.25 18.5858 17.5858 18.25 18 18.25H20C20.6904 18.25 21.25 17.6904 21.25 17V7C21.25 6.30964 20.6904 5.75 20 5.75H18C17.5858 5.75 17.25 5.41421 17.25 5Z" fill="#231F2C"/>
<path d="M9.81148 17.8134C9.86035 17.5853 9.92511 17.2614 9.9898 16.8733C10.0878 16.2852 10.1875 15.5391 10.2294 14.75H17C17.9665 14.75 18.75 13.9665 18.75 13V11C18.75 10.0335 17.9665 9.25 17 9.25H10.2294C10.1875 8.46085 10.0878 7.71475 9.9898 7.1267C9.92511 6.7386 9.86035 6.41468 9.81148 6.1866C9.80417 6.1525 9.79728 6.11822 9.79039 6.08393C9.76802 5.97266 9.74561 5.8612 9.70874 5.75467C9.64221 5.56243 9.49993 5.40441 9.31339 5.31862C9.11412 5.22696 8.88513 5.22729 8.68661 5.31862C8.43424 5.44597 8.18894 5.58568 7.94577 5.72978C7.5067 5.98997 6.89296 6.37774 6.18387 6.89345C4.7686 7.92274 2.95771 9.47305 1.4 11.55C1.2 11.8167 1.2 12.1833 1.4 12.45C2.95771 14.527 4.7686 16.0773 6.18387 17.1066C6.89296 17.6223 7.5067 18.01 7.94577 18.2702C8.18124 18.4098 8.41904 18.5475 8.66375 18.6704C8.86722 18.7721 9.10672 18.7764 9.31339 18.6814C9.52007 18.5863 9.67243 18.4026 9.72761 18.1819C9.75805 18.0597 9.78508 17.9366 9.81148 17.8134Z" fill="#231F2C"/>
</svg>
