<svg width="24" height="24" viewBox="0 0 24 24" fill="none" xmlns="http://www.w3.org/2000/svg">
<path d="M20.5303 3.46967C20.8232 3.76256 20.8232 4.23744 20.5303 4.53033L18.1704 6.89026C19.7599 7.79921 21.1957 9.08375 22.3545 10.7387C22.8818 11.4917 22.8818 12.5083 22.3545 13.2613C19.0899 17.9234 12.5915 19.9905 7.25378 17.8069L4.53033 20.5303C4.23744 20.8232 3.76256 20.8232 3.46967 20.5303C3.17678 20.2374 3.17678 19.7626 3.46967 19.4697L8.8713 14.068C9.5426 15.0816 10.6932 15.75 12 15.75C14.0711 15.75 15.75 14.0711 15.75 12C15.75 10.6932 15.0816 9.5426 14.068 8.8713L19.4697 3.46967C19.7626 3.17678 20.2374 3.17678 20.5303 3.46967Z" fill="#231F2C"/>
<path d="M13.212 8.45017L14.8919 6.77184C15.0871 6.5769 15.1594 6.29059 15.0804 6.02633C15.0014 5.76208 14.7837 5.56253 14.5135 5.50675C9.84457 4.54263 4.75635 6.29618 1.64547 10.7387C1.11818 11.4917 1.11818 12.5083 1.64547 13.2613C2.47198 14.4416 3.43985 15.4343 4.50497 16.2367C4.80346 16.4616 5.22196 16.4324 5.48635 16.1683L8.449 13.2085C8.31998 12.8293 8.25 12.4228 8.25 12C8.25 9.92893 9.92893 8.25 12 8.25C12.4241 8.25 12.8318 8.32041 13.212 8.45017Z" fill="#231F2C"/>
<path d="M9.96928 12.9701L12.9701 9.96928C13.7271 10.3316 14.25 11.1047 14.25 12C14.25 13.2426 13.2426 14.25 12 14.25C11.1047 14.25 10.3316 13.7271 9.96928 12.9701Z" fill="#231F2C"/>
</svg>
