<svg width="24" height="24" viewBox="0 0 24 24" fill="none" xmlns="http://www.w3.org/2000/svg">
<path fill-rule="evenodd" clip-rule="evenodd" d="M12 2.25C11.2564 2.25 10.5313 2.33338 9.83403 2.49161C5.49195 3.47688 2.25 7.35895 2.25 12C2.25 13.2613 2.4899 14.4685 2.92725 15.577C3.12296 16.073 3.35811 16.549 3.62877 17.0012C3.16462 17.7389 2.91434 18.1355 2.77931 18.3485C2.70319 18.4686 2.66519 18.5281 2.64655 18.5568L2.64056 18.5651C2.63432 18.5738 2.62936 18.5811 2.62654 18.5853C2.61724 18.5991 2.60673 18.6157 2.59779 18.6298C2.57665 18.6631 2.53621 18.7275 2.45827 18.8521C2.30193 19.1018 1.9902 19.6006 1.36792 20.5962L1.364 20.6025C1.20843 20.8514 1.21237 21.1682 1.37407 21.4132C1.53577 21.6581 1.82552 21.7863 2.11554 21.741L7.88504 20.8415C9.13609 21.4246 10.531 21.75 12 21.75C17.4145 21.75 21.75 17.3832 21.75 12C21.75 6.61522 17.3848 2.25 12 2.25ZM9 11.25C8.58579 11.25 8.25 11.5858 8.25 12C8.25 12.4142 8.58579 12.75 9 12.75H15C15.4142 12.75 15.75 12.4142 15.75 12C15.75 11.5858 15.4142 11.25 15 11.25H9Z" fill="#231F2C"/>
</svg>
