<svg width="24" height="24" viewBox="0 0 24 24" fill="none" xmlns="http://www.w3.org/2000/svg">
<path d="M12.75 2C12.75 1.58579 12.4142 1.25 12 1.25C11.5858 1.25 11.25 1.58579 11.25 2V4C11.25 4.41421 11.5858 4.75 12 4.75C12.4142 4.75 12.75 4.41421 12.75 4V2Z" fill="#231F2C"/>
<path d="M5.4588 4.39859C5.1659 4.1057 4.69103 4.1057 4.39814 4.39859C4.10524 4.69149 4.10524 5.16636 4.39814 5.45925L5.46967 6.53079C5.76256 6.82368 6.23744 6.82368 6.53033 6.53079C6.82322 6.23789 6.82322 5.76302 6.53033 5.47013L5.4588 4.39859Z" fill="#231F2C"/>
<path d="M19.6009 5.45925C19.8938 5.16636 19.8938 4.69149 19.6009 4.39859C19.308 4.1057 18.8331 4.1057 18.5402 4.39859L17.4692 5.46967C17.1763 5.76256 17.1763 6.23744 17.4692 6.53033C17.762 6.82322 18.2369 6.82322 18.5298 6.53033L19.6009 5.45925Z" fill="#231F2C"/>
<path d="M12 6.25C8.82436 6.25 6.25 8.82436 6.25 12C6.25 15.1756 8.82436 17.75 12 17.75C15.1756 17.75 17.75 15.1756 17.75 12C17.75 8.82436 15.1756 6.25 12 6.25Z" fill="#231F2C"/>
<path d="M2 11.25C1.58579 11.25 1.25 11.5858 1.25 12C1.25 12.4142 1.58579 12.75 2 12.75H4C4.41421 12.75 4.75 12.4142 4.75 12C4.75 11.5858 4.41421 11.25 4 11.25H2Z" fill="#231F2C"/>
<path d="M20 11.25C19.5858 11.25 19.25 11.5858 19.25 12C19.25 12.4142 19.5858 12.75 20 12.75H22C22.4142 12.75 22.75 12.4142 22.75 12C22.75 11.5858 22.4142 11.25 22 11.25H20Z" fill="#231F2C"/>
<path d="M6.53033 18.5298C6.82322 18.2369 6.82322 17.762 6.53033 17.4692C6.23744 17.1763 5.76256 17.1763 5.46967 17.4692L4.39809 18.5407C4.1052 18.8336 4.1052 19.3085 4.39809 19.6014C4.69098 19.8943 5.16586 19.8943 5.45875 19.6014L6.53033 18.5298Z" fill="#231F2C"/>
<path d="M18.5299 17.4697C18.237 17.1768 17.7621 17.1768 17.4692 17.4697C17.1763 17.7626 17.1763 18.2374 17.4692 18.5303L18.5403 19.6014C18.8332 19.8943 19.308 19.8943 19.6009 19.6014C19.8938 19.3085 19.8938 18.8336 19.6009 18.5407L18.5299 17.4697Z" fill="#231F2C"/>
<path d="M12.75 20C12.75 19.5858 12.4142 19.25 12 19.25C11.5858 19.25 11.25 19.5858 11.25 20V22C11.25 22.4142 11.5858 22.75 12 22.75C12.4142 22.75 12.75 22.4142 12.75 22V20Z" fill="#231F2C"/>
</svg>
