<svg width="24" height="24" viewBox="0 0 24 24" fill="none" xmlns="http://www.w3.org/2000/svg">
<path d="M8 3.25C4.82436 3.25 2.25 5.82437 2.25 9C2.25 10.1461 2.6874 11.3033 3.31095 12.3827C3.93872 13.4693 4.78834 14.5339 5.69023 15.5092C5.82622 15.6563 6.01539 15.7428 6.21558 15.7496C6.41577 15.7563 6.61034 15.6827 6.75595 15.5452L18.1205 4.80849C18.3117 4.62784 18.3943 4.3602 18.3381 4.10319C18.282 3.84619 18.0953 3.63741 17.8461 3.55299C17.2657 3.35633 16.6445 3.25 16 3.25C14.4451 3.25 13.0343 3.86773 12 4.86938C10.9657 3.86773 9.55491 3.25 8 3.25Z" fill="#231F2C"/>
<path d="M22.514 4.54615C22.8157 4.26226 22.83 3.78761 22.5462 3.48598C22.2623 3.18435 21.7876 3.16996 21.486 3.45385L4.48598 19.4539C4.18435 19.7377 4.16996 20.2124 4.45385 20.514C4.73774 20.8157 5.2124 20.83 5.51403 20.5462L8.24421 17.9766C9.08652 18.7147 9.86632 19.3379 10.4578 19.7924C10.7947 20.0512 11.0713 20.2559 11.2645 20.3964C11.3664 20.4705 11.4688 20.5436 11.5716 20.6162C11.8222 20.7904 12.1525 20.795 12.4072 20.6303C12.551 20.5295 12.6926 20.4256 12.8336 20.3209C13.0851 20.1343 13.4429 19.8634 13.8716 19.5241C14.7279 18.8464 15.8727 17.8913 17.0204 16.7852C18.1649 15.6822 19.3306 14.4116 20.2152 13.1017C21.0887 11.8082 21.7499 10.3867 21.7499 9.00001C21.7499 7.91751 21.4501 6.90331 20.9291 6.03785L22.514 4.54615Z" fill="#231F2C"/>
</svg>
