<svg width="24" height="24" viewBox="0 0 24 24" fill="none" xmlns="http://www.w3.org/2000/svg">
<path fill-rule="evenodd" clip-rule="evenodd" d="M14.25 6C14.25 3.92893 15.9289 2.25 18 2.25C20.0711 2.25 21.75 3.92893 21.75 6C21.75 8.07107 20.0711 9.75 18 9.75C16.8021 9.75 15.7354 9.18836 15.0489 8.31404L9.62259 11.0272C9.70569 11.3375 9.75 11.6636 9.75 12C9.75 12.3365 9.70569 12.6626 9.62259 12.9728L15.0489 15.6859C15.7355 14.8116 16.8021 14.25 18 14.25C20.0711 14.25 21.75 15.9289 21.75 18C21.75 20.0711 20.0711 21.75 18 21.75C15.9289 21.75 14.25 20.0711 14.25 18C14.25 17.6636 14.2943 17.3375 14.3774 17.0272L8.95106 14.3141C8.26452 15.1884 7.19785 15.75 6 15.75C3.92893 15.75 2.25 14.0711 2.25 12C2.25 9.92893 3.92893 8.25 6 8.25C7.19785 8.25 8.26453 8.81163 8.95107 9.68593L14.3774 6.97275C14.2943 6.66253 14.25 6.33644 14.25 6Z" fill="#231F2C"/>
</svg>
