<svg width="24" height="24" viewBox="0 0 24 24" fill="none" xmlns="http://www.w3.org/2000/svg">
<path d="M19.2529 3.04089C18.3638 2.15184 16.9788 1.9941 15.9126 2.66047L10.3443 6.14064C9.55486 6.63404 9.07527 7.49934 9.07527 8.4303V8.75201C9.07527 9.30269 8.70049 9.7827 8.16626 9.91626L5.74322 10.522C5.48108 10.5876 5.27446 10.789 5.20233 11.0494C5.1302 11.3098 5.20372 11.5889 5.39479 11.78L8.27709 14.6623L2.46967 20.4697C2.17678 20.7626 2.17678 21.2375 2.46967 21.5303C2.76256 21.8232 3.23744 21.8232 3.53033 21.5303L9.33775 15.7229L12.2201 18.6052C12.4111 18.7963 12.6902 18.8698 12.9506 18.7977C13.211 18.7256 13.4125 18.5189 13.478 18.2568L14.0838 15.8338C14.2173 15.2995 14.6973 14.9247 15.248 14.9247H15.5697C16.5007 14.9247 17.366 14.4452 17.8594 13.6557L21.3395 8.08744C22.0059 7.02124 21.8482 5.63621 20.9591 4.74716L19.2529 3.04089Z" fill="#231F2C"/>
</svg>
