<svg width="24" height="24" viewBox="0 0 24 24" fill="none" xmlns="http://www.w3.org/2000/svg">
<path d="M5.75 6C5.75 4.20507 7.20507 2.75 9 2.75C10.7949 2.75 12.25 4.20507 12.25 6V8C12.25 8.41421 12.5858 8.75 13 8.75C13.4142 8.75 13.75 8.41421 13.75 8V6C13.75 3.37665 11.6234 1.25 9 1.25C6.37665 1.25 4.25 3.37665 4.25 6V11.6994C3.90513 11.7778 3.59921 11.862 3.32849 11.9483C1.82999 12.4258 1.25 13.8931 1.25 15.2038V18.7962C1.25 20.1069 1.82999 21.5742 3.32849 22.0517C4.48223 22.4194 6.27572 22.75 9 22.75C9.32827 22.75 9.64296 22.7452 9.94458 22.7361C9.97264 22.7353 10.0006 22.7329 10.0284 22.7289L10.0667 22.7234C10.3472 22.6832 10.5811 22.4883 10.6713 22.2197C10.7615 21.9511 10.6926 21.6546 10.4932 21.4532C9.10565 20.0521 8.25 18.1267 8.25 16C8.25 14.6857 8.57654 13.4499 9.15229 12.3671C9.2659 12.1535 9.26944 11.8981 9.1618 11.6814C9.05417 11.4647 8.84858 11.3132 8.60969 11.2746L8.54833 11.2647C8.5043 11.2576 8.45972 11.2544 8.41513 11.2552C7.39034 11.2738 6.50797 11.3408 5.75 11.438V6Z" fill="#231F2C"/>
<path fill-rule="evenodd" clip-rule="evenodd" d="M16 10.75C13.1005 10.75 10.75 13.1005 10.75 16C10.75 18.8995 13.1005 21.25 16 21.25C18.8995 21.25 21.25 18.8995 21.25 16C21.25 13.1005 18.8995 10.75 16 10.75ZM9.25 16C9.25 12.2721 12.2721 9.25 16 9.25C19.7279 9.25 22.75 12.2721 22.75 16C22.75 19.7279 19.7279 22.75 16 22.75C12.2721 22.75 9.25 19.7279 9.25 16ZM16 12.25C16.4142 12.25 16.75 12.5858 16.75 13V15.7729L18.624 18.584C18.8538 18.9286 18.7607 19.3943 18.416 19.624C18.0714 19.8538 17.6057 19.7607 17.376 19.416L15.376 16.416C15.2938 16.2928 15.25 16.1481 15.25 16V13C15.25 12.5858 15.5858 12.25 16 12.25Z" fill="#231F2C"/>
</svg>
