<svg width="24" height="24" viewBox="0 0 24 24" fill="none" xmlns="http://www.w3.org/2000/svg">
<path d="M12.2987 21.75C12.9971 21.75 13.6389 21.3654 13.9678 20.7491L17.2299 14.6368C17.3964 14.325 17.6872 14.098 18.0306 14.0122L19.4631 13.6543C20.6915 13.3475 21.9083 12.1451 21.7341 10.665C21.733 10.656 21.7318 10.6471 21.7304 10.6381L20.8708 5.07918C20.7489 4.09026 20.0821 3.19258 19.0346 2.92864C17.8326 2.62577 15.7781 2.25 12.9838 2.25C11.1538 2.25 9.20879 2.4114 8.03169 2.61115C6.01957 2.95259 4.58522 4.47176 3.93202 6.26679L2.47955 10.2583C1.53484 12.8545 3.62731 15.5438 6.37526 15.2718L10.7797 14.874L10.7868 14.8733C10.9494 14.857 11.0829 14.9974 11.06 15.1573L10.4261 19.5916C10.2631 20.7314 11.1481 21.75 12.2987 21.75Z" fill="#231F2C"/>
</svg>
