<svg width="24" height="24" viewBox="0 0 24 24" fill="none" xmlns="http://www.w3.org/2000/svg">
<path d="M4.93129 3.2581C5.1693 2.02003 6.26288 1.25 7.44152 1.25H16.5585C17.7371 1.25 18.8307 2.02003 19.0687 3.2581C19.3693 4.82195 19.75 7.65922 19.75 12C19.75 12.3535 19.7475 12.6971 19.7427 13.0308L19.7422 13.0486L19.6289 16.0263L19.6279 16.0456C19.4931 18.1561 19.2695 19.6876 19.0768 20.6998C18.9804 21.2059 18.8918 21.5821 18.826 21.8358C18.7682 22.0584 18.7425 22.1617 18.6977 22.2749C18.6079 22.5024 18.4119 22.6734 18.1723 22.7299C17.9193 22.7897 17.6535 22.7141 17.4697 22.5303L12 17.0607L6.53033 22.5303C6.34653 22.7141 6.08067 22.7897 5.82769 22.7299C5.59607 22.6753 5.40549 22.5144 5.31187 22.2983C5.25701 22.1717 5.23589 22.0635 5.23589 22.0635C5.20558 21.9574 5.16381 21.8025 5.11446 21.5969C5.01576 21.1857 4.8868 20.5716 4.75872 19.739C4.50256 18.074 4.25 15.5358 4.25 12C4.25 7.65922 4.63066 4.82195 4.93129 3.2581Z" fill="#231F2C"/>
</svg>
