<svg width="24" height="24" viewBox="0 0 24 24" fill="none" xmlns="http://www.w3.org/2000/svg">
<path d="M3.25 9C3.25 4.71979 6.7198 1.25 11 1.25C13.3205 1.25 15.4035 2.27079 16.8227 3.88533C17.0838 4.18239 17.0694 4.63116 16.7897 4.91082L6.91082 14.7897C6.63115 15.0694 6.18238 15.0838 5.88532 14.8227C4.27079 13.4035 3.25 11.3205 3.25 9Z" fill="#231F2C"/>
<path d="M20.5303 3.46967C20.8232 3.76256 20.8232 4.23744 20.5303 4.53033L18.3928 6.66791C18.625 7.40476 18.75 8.18843 18.75 8.99998C18.75 11.0149 17.98 12.8518 16.7196 14.2296L16.7135 14.2363C16.6009 14.3565 16.4489 14.5293 16.2885 14.729C16.2528 14.7735 16.2186 14.8161 16.1858 14.857L9.83721 16.2678C9.43286 16.3577 9.17792 16.7583 9.26777 17.1627C9.35763 17.567 9.75826 17.822 10.1626 17.7321L15.4358 16.5603L14.9632 20.3411C14.7912 21.7172 13.6213 22.75 12.2344 22.75H9.76555C8.54239 22.75 7.48804 21.9467 7.13814 20.813L12.1672 19.7333C12.5722 19.6463 12.8301 19.2475 12.7431 18.8425C12.6562 18.4376 12.2574 18.1797 11.8524 18.2667L6.91012 19.3277L6.77932 18.2813L4.53033 20.5303C4.23744 20.8232 3.76256 20.8232 3.46967 20.5303C3.17678 20.2374 3.17678 19.7626 3.46967 19.4697L19.4697 3.46967C19.7626 3.17678 20.2374 3.17678 20.5303 3.46967Z" fill="#231F2C"/>
</svg>
