<svg width="24" height="24" viewBox="0 0 24 24" fill="none" xmlns="http://www.w3.org/2000/svg">
<path d="M8.96429 2C8.96429 1.58579 9.30007 1.25 9.71429 1.25H14.2857C14.6999 1.25 15.0357 1.58579 15.0357 2C15.0357 2.08766 15.0207 2.17181 14.993 2.25H19C19.4142 2.25 19.75 2.58579 19.75 3C19.75 3.41421 19.4142 3.75 19 3.75H5C4.58579 3.75 4.25 3.41421 4.25 3C4.25 2.58579 4.58579 2.25 5 2.25H9.00696C8.97932 2.17181 8.96429 2.08766 8.96429 2Z" fill="#231F2C"/>
<path fill-rule="evenodd" clip-rule="evenodd" d="M4.26992 7.02137C4.24034 6.03533 5.03595 5.25 6 5.25H18C18.9641 5.25 19.7597 6.03534 19.7301 7.02137C19.6915 8.30614 19.5784 10.7534 19.2463 14.0746C19.0216 16.3212 18.6655 18.5869 18.1145 20.7943C17.8166 21.9876 16.7381 22.75 15.5585 22.75H8.44152C7.26189 22.75 6.18337 21.9876 5.88548 20.7943C5.5421 19.4186 5.05697 17.1071 4.75372 14.0746C4.4216 10.7534 4.30847 8.30614 4.26992 7.02137ZM10.75 9C10.75 8.58579 10.4142 8.25 10 8.25C9.58579 8.25 9.25 8.58579 9.25 9V19C9.25 19.4142 9.58579 19.75 10 19.75C10.4142 19.75 10.75 19.4142 10.75 19V9ZM14.75 9C14.75 8.58579 14.4142 8.25 14 8.25C13.5858 8.25 13.25 8.58579 13.25 9V19C13.25 19.4142 13.5858 19.75 14 19.75C14.4142 19.75 14.75 19.4142 14.75 19V9Z" fill="#231F2C"/>
</svg>
