<svg width="24" height="24" viewBox="0 0 24 24" fill="none" xmlns="http://www.w3.org/2000/svg">
<path d="M4.25 9C4.25 4.71979 7.7198 1.25 12 1.25C16.2802 1.25 19.75 4.71979 19.75 9C19.75 11.0149 18.9801 12.8518 17.7196 14.2296L17.7135 14.2363C17.6009 14.3565 17.4489 14.5294 17.2885 14.7291C17.2528 14.7735 17.2186 14.8161 17.1858 14.857L10.8372 16.2678C10.4329 16.3577 10.1779 16.7583 10.2678 17.1627C10.3576 17.567 10.7583 17.822 11.1626 17.7321L16.4358 16.5603L15.9632 20.3411C15.7912 21.7173 14.6213 22.75 13.2344 22.75H10.7656C9.54239 22.75 8.48804 21.9467 8.13815 20.813L13.1672 19.7333C13.5722 19.6463 13.8301 19.2475 13.7431 18.8425C13.6562 18.4376 13.2574 18.1797 12.8524 18.2667L7.91013 19.3277L7.47069 15.8122C7.42755 15.4671 7.22294 15.1195 6.88532 14.8227C5.27079 13.4035 4.25 11.3205 4.25 9Z" fill="#231F2C"/>
</svg>
