<svg width="24" height="24" viewBox="0 0 24 24" fill="none" xmlns="http://www.w3.org/2000/svg">
<path d="M12.7501 2C12.7501 1.58579 12.4143 1.25 12.0001 1.25C11.5858 1.25 11.2501 1.58579 11.2501 2V2.25H10.6529C8.1962 2.25 6.14485 4.12333 5.92243 6.56996L5.35587 12.802C5.3013 13.4023 5.08087 13.9756 4.71922 14.4578L3.30371 16.3451C3.0669 16.6609 3.11532 17.1061 3.41446 17.3636C3.71361 17.6211 4.1611 17.6026 4.43805 17.3214L16.7901 4.78021C17.0734 4.49258 17.0781 4.03231 16.8009 3.73885C15.9324 2.81962 14.7011 2.25 13.3472 2.25H12.7501V2Z" fill="#231F2C"/>
<path fill-rule="evenodd" clip-rule="evenodd" d="M21.5303 2.46967C21.2374 2.17678 20.7626 2.17678 20.4697 2.46967L2.46967 20.4697C2.17678 20.7626 2.17678 21.2374 2.46967 21.5303C2.76256 21.8232 3.23744 21.8232 3.53033 21.5303L5.779 19.2817C6.7587 19.4262 7.93912 19.5664 9.25 19.6552V20C9.25 21.5188 10.4812 22.75 12 22.75C13.5188 22.75 14.75 21.5188 14.75 20V19.6552C16.7911 19.517 18.5169 19.2538 19.6624 19.0438C20.9445 18.8087 21.4407 17.3377 20.6964 16.3451L19.2808 14.4578C18.9192 13.9756 18.6988 13.4023 18.6442 12.802L18.1121 6.9486L21.5303 3.53033C21.8232 3.23744 21.8232 2.76256 21.5303 2.46967ZM10.75 20V19.73C11.1583 19.7429 11.5756 19.75 12 19.75C12.4244 19.75 12.8416 19.7429 13.25 19.73V20C13.25 20.6904 12.6904 21.25 12 21.25C11.3096 21.25 10.75 20.6904 10.75 20Z" fill="#231F2C"/>
</svg>
