<svg width="24" height="24" viewBox="0 0 24 24" fill="none" xmlns="http://www.w3.org/2000/svg">
<path d="M17.0775 2.77369C17.7758 2.07544 18.9079 2.07544 19.6061 2.77369L21.2263 4.39389C21.9246 5.09213 21.9246 6.22422 21.2263 6.92247L20.6434 7.50535C20.2529 7.89587 19.6197 7.89587 19.2292 7.50535L16.4947 4.77078C16.1041 4.38026 16.1041 3.74709 16.4947 3.35657L17.0775 2.77369Z" fill="#231F2C"/>
<path d="M15.411 5.85446C15.0204 5.46393 14.3873 5.46393 13.9968 5.85446L3.69626 16.155C3.46712 16.3841 3.30456 16.6712 3.22596 16.9856L2.2729 20.7979C2.20761 21.059 2.28413 21.3352 2.47445 21.5255C2.66478 21.7159 2.94101 21.7924 3.20214 21.7271L7.0144 20.774C7.32878 20.6954 7.6159 20.5329 7.84505 20.3037L18.1455 10.0032C18.5361 9.61272 18.5361 8.97955 18.1455 8.58903L15.411 5.85446Z" fill="#231F2C"/>
</svg>
