<svg width="24" height="24" viewBox="0 0 24 24" fill="none" xmlns="http://www.w3.org/2000/svg">
<path d="M9.75 12C9.75 10.7574 10.7574 9.75 12 9.75C13.2426 9.75 14.25 10.7574 14.25 12C14.25 13.2426 13.2426 14.25 12 14.25C10.7574 14.25 9.75 13.2426 9.75 12Z" fill="#231F2C"/>
<path fill-rule="evenodd" clip-rule="evenodd" d="M1.64547 10.7387C6.77009 3.42045 17.2299 3.42044 22.3545 10.7387C22.8818 11.4917 22.8818 12.5083 22.3545 13.2613C17.3846 20.3587 6.66718 20.4326 1.64547 13.2613C1.11818 12.5083 1.11818 11.4917 1.64547 10.7387ZM12 8.25C9.92893 8.25 8.25 9.92893 8.25 12C8.25 14.0711 9.92893 15.75 12 15.75C14.0711 15.75 15.75 14.0711 15.75 12C15.75 9.92893 14.0711 8.25 12 8.25Z" fill="#231F2C"/>
</svg>
