<svg width="24" height="24" viewBox="0 0 24 24" fill="none" xmlns="http://www.w3.org/2000/svg">
<path fill-rule="evenodd" clip-rule="evenodd" d="M2.46967 2.46967C2.76256 2.17678 3.23744 2.17678 3.53033 2.46967L21.5303 20.4697C21.8232 20.7626 21.8232 21.2374 21.5303 21.5303C21.2374 21.8232 20.7626 21.8232 20.4697 21.5303L13.9607 15.0214L8.02594 20.9561C6.96736 22.0146 5.25108 22.0146 4.19248 20.9561L3.04397 19.8076C1.98535 18.749 1.98534 17.0327 3.04395 15.9741L8.97865 10.0393L2.46967 3.53033C2.17678 3.23744 2.17678 2.76256 2.46967 2.46967ZM10.0707 14.9899C10.3636 14.697 10.3636 14.2222 10.0707 13.9293C9.77778 13.6364 9.30291 13.6364 9.01002 13.9293L7.53949 15.3998C7.2466 15.6927 7.2466 16.1676 7.53949 16.4605C7.83239 16.7533 8.30726 16.7533 8.60015 16.4605L10.0707 14.9899Z" fill="#231F2C"/>
<path d="M10.7782 5.43359C11.185 4.21329 12.7337 3.84768 13.6433 4.75724L19.2428 10.3568C20.1525 11.2664 19.7865 12.8152 18.5663 13.2219L16.7736 13.8195C16.5034 13.9095 16.2055 13.8388 16.0047 13.6369L10.3679 7.96968C10.1681 7.76878 10.0986 7.47242 10.1882 7.20361L10.7782 5.43359Z" fill="#231F2C"/>
</svg>
