<svg width="24" height="24" viewBox="0 0 24 24" fill="none" xmlns="http://www.w3.org/2000/svg">
<path d="M7.94593 5.72978C8.16557 5.59962 8.34183 5.5012 8.46485 5.43448C8.53104 5.39857 8.59742 5.36294 8.66474 5.32918C8.86822 5.22744 9.10687 5.22356 9.31355 5.31862C9.52022 5.41367 9.67259 5.5974 9.72776 5.8181C9.73602 5.85183 9.74413 5.8856 9.75202 5.91942C9.76665 5.9821 9.78718 6.07248 9.81163 6.1866C9.86051 6.41468 9.92527 6.7386 9.98995 7.1267C10.0853 7.69903 10.1823 8.42108 10.2261 9.1868C14.3747 8.9796 17.4477 11.013 19.4758 13.1026C20.5553 14.2148 21.3534 15.3558 21.8817 16.2173C22.1464 16.649 22.3448 17.0129 22.4782 17.2713C22.5502 17.4109 22.6211 17.5513 22.6852 17.6947C22.832 18.025 22.7227 18.4136 22.4248 18.6182C22.127 18.8228 21.7254 18.7856 21.4698 18.5303C21.3208 18.3842 21.1617 18.2481 21.0013 18.1148C20.6804 17.8481 20.2022 17.4789 19.5834 17.0798C18.3438 16.2803 16.5545 15.3698 14.348 14.9128L14.3416 14.9114L14.3256 14.9078C13.6747 14.752 12.5002 14.6546 11.9672 14.6262C11.4085 14.6068 10.8301 14.6203 10.2335 14.6731C10.1941 15.4906 10.0911 16.2662 9.98995 16.8733C9.92527 17.2614 9.86051 17.5853 9.81163 17.8134C9.78524 17.9366 9.75817 18.0596 9.72776 18.1819C9.67259 18.4026 9.52022 18.5863 9.31355 18.6814C9.10687 18.7764 8.86822 18.7726 8.66474 18.6708C8.41967 18.5479 8.18164 18.4099 7.94593 18.2702C7.50686 18.01 6.89312 17.6223 6.18403 17.1066C4.76875 16.0773 2.95787 14.527 1.40016 12.45C1.20016 12.1833 1.20016 11.8167 1.40016 11.55C2.95787 9.47305 4.76875 7.92274 6.18403 6.89345C6.89312 6.37774 7.50686 5.98997 7.94593 5.72978Z" fill="#231F2C"/>
</svg>
