<svg width="24" height="24" viewBox="0 0 24 24" fill="none" xmlns="http://www.w3.org/2000/svg">
<path d="M6.17634 2.38851C4.67804 1.8778 3.19778 2.82366 2.93209 4.333C2.62502 6.07747 2.25 8.85076 2.25 12C2.25 15.1493 2.62502 17.9226 2.9321 19.667C3.19778 21.1764 4.67804 22.1222 6.17634 21.6115C8.98617 20.6538 11.6593 19.311 14.2101 17.8962C17.9219 15.8375 19.9239 14.4191 20.9833 13.5482C21.4666 13.1508 21.75 12.5967 21.75 12C21.75 11.4034 21.4666 10.8493 20.9833 10.4519C19.9239 9.58091 17.9219 8.16257 14.2101 6.10386C10.4793 4.03458 7.81672 2.94766 6.17634 2.38851Z" fill="#231F2C"/>
</svg>
