<svg width="24" height="24" viewBox="0 0 24 24" fill="none" xmlns="http://www.w3.org/2000/svg">
<path fill-rule="evenodd" clip-rule="evenodd" d="M16.75 6V11.6994C17.0949 11.7778 17.4008 11.862 17.6715 11.9483C19.17 12.4258 19.75 13.8931 19.75 15.2038V18.7962C19.75 20.1069 19.17 21.5742 17.6715 22.0517C16.5178 22.4194 14.7243 22.75 12 22.75C9.27572 22.75 7.48223 22.4194 6.32849 22.0517C4.82999 21.5742 4.25 20.1069 4.25 18.7962V15.2038C4.25 13.8931 4.82999 12.4258 6.32849 11.9483C6.59919 11.862 6.90511 11.7778 7.25 11.6994V6C7.25 3.37665 9.37665 1.25 12 1.25C14.6234 1.25 16.75 3.37665 16.75 6ZM8.75 6C8.75 4.20507 10.2051 2.75 12 2.75C13.7949 2.75 15.25 4.20507 15.25 6V11.438C14.3515 11.3228 13.2782 11.25 12 11.25C10.7218 11.25 9.64847 11.3228 8.75 11.438V6ZM12.75 16C12.75 15.5858 12.4142 15.25 12 15.25C11.5858 15.25 11.25 15.5858 11.25 16V18C11.25 18.4142 11.5858 18.75 12 18.75C12.4142 18.75 12.75 18.4142 12.75 18V16Z" fill="#231F2C"/>
</svg>
