<svg width="24" height="24" viewBox="0 0 24 24" fill="none" xmlns="http://www.w3.org/2000/svg">
<path d="M17.1661 3.23713C17.297 2.84417 17.0847 2.41943 16.6917 2.28845C16.2988 2.15746 15.874 2.36983 15.743 2.76279L15.2885 4.12643C15.1575 4.51938 15.3699 4.94412 15.7628 5.07511C16.1558 5.20609 16.5805 4.99372 16.7115 4.60077L17.1661 3.23713Z" fill="#1E202B"/>
<path d="M20.6212 4.43938C20.9141 4.14649 20.9141 3.67161 20.6212 3.37872C20.3283 3.08583 19.8535 3.08583 19.5606 3.37872L17.2879 5.65145C16.995 5.94434 16.995 6.41922 17.2879 6.71211C17.5807 7.005 18.0556 7.005 18.3485 6.71211L20.6212 4.43938Z" fill="#1E202B"/>
<path d="M13.6433 4.7572C12.7337 3.84764 11.1849 4.21325 10.7782 5.43355L9.89827 8.07324C9.77849 8.43258 9.87201 8.82875 10.1398 9.09658L14.9034 13.8601C15.1712 14.128 15.5674 14.2215 15.9267 14.1017L18.5664 13.2218C19.7867 12.8151 20.1523 11.2663 19.2428 10.3567L13.6433 4.7572Z" fill="#1E202B"/>
<path fill-rule="evenodd" clip-rule="evenodd" d="M13.2449 15.7372C13.6354 15.3466 13.6354 14.7135 13.2449 14.3229L9.67704 10.7551C9.28651 10.3646 8.65335 10.3646 8.26282 10.7551L3.04395 15.974C1.98534 17.0326 1.98535 18.749 3.04397 19.8076L4.19248 20.9561C5.25107 22.0146 6.96735 22.0146 8.02593 20.956L13.2449 15.7372ZM10.0707 13.9292C10.3636 14.2221 10.3636 14.697 10.0707 14.9899L8.60016 16.4604C8.30726 16.7533 7.83239 16.7533 7.5395 16.4604C7.2466 16.1675 7.2466 15.6926 7.53949 15.3997L9.01001 13.9292C9.3029 13.6363 9.77778 13.6363 10.0707 13.9292Z" fill="#1E202B"/>
<path d="M21.2372 8.25693C21.6301 8.12594 21.8425 7.7012 21.7115 7.30824C21.5805 6.91529 21.1558 6.70292 20.7628 6.8339L19.3992 7.28845C19.0062 7.41943 18.7939 7.84417 18.9249 8.23713C19.0558 8.63009 19.4806 8.84246 19.8735 8.71147L21.2372 8.25693Z" fill="#1E202B"/>
</svg>
