<svg width="24" height="24" viewBox="0 0 24 24" fill="none" xmlns="http://www.w3.org/2000/svg">
<path fill-rule="evenodd" clip-rule="evenodd" d="M17 2.75C14.6528 2.75 12.75 4.65279 12.75 7C12.75 7.90271 13.0315 8.73969 13.5114 9.42798L19.428 3.51136C18.7397 3.03144 17.9027 2.75 17 2.75ZM20.4887 4.57202L14.572 10.4886C15.2603 10.9686 16.0973 11.25 17 11.25C19.3472 11.25 21.25 9.34721 21.25 7C21.25 6.09729 20.9686 5.26031 20.4887 4.57202ZM11.25 7C11.25 3.82436 13.8244 1.25 17 1.25C20.1757 1.25 22.75 3.82436 22.75 7C22.75 10.1756 20.1757 12.75 17 12.75C13.8244 12.75 11.25 10.1756 11.25 7ZM9.83405 3.49161C10.1793 3.41326 10.5324 3.58704 10.6809 3.90844L10.6975 3.94445C10.7833 4.13015 10.7895 4.34284 10.7147 4.53324C10.415 5.29634 10.25 6.128 10.25 6.99999C10.25 10.7279 13.2721 13.75 17 13.75C18.2841 13.75 19.4824 13.3921 20.5031 12.7711L20.5732 12.726C20.804 12.5775 21.0974 12.567 21.3383 12.6984C21.5791 12.8299 21.729 13.0823 21.729 13.3567V13.6203C21.729 13.6373 21.7284 13.6543 21.7272 13.6713C21.382 18.7433 17.1592 22.75 12 22.75C10.531 22.75 9.13611 22.4246 7.88506 21.8415L2.11556 22.741C1.79485 22.7911 1.47837 22.6291 1.33136 22.3397C1.18434 22.0503 1.24017 21.6992 1.46969 21.4697L4.15241 18.7869C2.95712 17.1685 2.25002 15.166 2.25002 13C2.25002 8.35895 5.49197 4.47688 9.83405 3.49161Z" fill="#231F2C"/>
</svg>
