<svg width="24" height="24" viewBox="0 0 24 24" fill="none" xmlns="http://www.w3.org/2000/svg">
<path d="M11.7013 2.25C11.003 2.25 10.3612 2.63464 10.0323 3.25087L6.77014 9.36318C6.60373 9.67498 6.3129 9.90199 5.9695 9.98778L4.53696 10.3457C3.3086 10.6525 2.09174 11.8549 2.26599 13.335C2.26705 13.344 2.26827 13.3529 2.26966 13.3619L3.12927 18.9208C3.25116 19.9097 3.91803 20.8074 4.96548 21.0714C6.16747 21.3742 8.22202 21.75 11.0163 21.75C12.8463 21.75 14.7913 21.5886 15.9684 21.3888C17.9805 21.0474 19.4149 19.5282 20.0681 17.7332L21.5205 13.7417C22.4652 11.1455 20.3728 8.45624 17.6248 8.72823L13.2204 9.12601L13.2133 9.12672C13.0507 9.14297 12.9172 9.00265 12.9401 8.84268L13.574 4.40838C13.7369 3.26863 12.852 2.25 11.7013 2.25Z" fill="#231F2C"/>
</svg>
