<svg width="24" height="24" viewBox="0 0 24 24" fill="none" xmlns="http://www.w3.org/2000/svg">
<path d="M16.0542 5.72978C15.8345 5.59962 15.6583 5.5012 15.5353 5.43448C15.4691 5.39857 15.4027 5.36294 15.3354 5.32918C15.1319 5.22744 14.8933 5.22356 14.6866 5.31862C14.4799 5.41367 14.3275 5.5974 14.2724 5.8181C14.2641 5.85183 14.256 5.8856 14.2481 5.91942C14.2335 5.9821 14.2129 6.07248 14.1885 6.1866C14.1396 6.41468 14.0749 6.7386 14.0102 7.1267C13.9148 7.69903 13.8178 8.42108 13.7741 9.1868C9.62547 8.9796 6.55243 11.013 4.52428 13.1026C3.44486 14.2148 2.64667 15.3558 2.11841 16.2173C1.85372 16.649 1.6553 17.0129 1.52194 17.2713C1.44994 17.4109 1.37899 17.5513 1.3149 17.6947C1.16812 18.025 1.27745 18.4136 1.57536 18.6182C1.87316 18.8228 2.27473 18.7856 2.5303 18.5303C2.67937 18.3842 2.83843 18.2481 2.99887 18.1148C3.31969 17.8481 3.79796 17.4789 4.41671 17.0798C5.65634 16.2803 7.44559 15.3698 9.65209 14.9128L9.6585 14.9114L9.6745 14.9078C10.3254 14.752 11.4999 14.6546 12.0329 14.6262C12.5916 14.6068 13.17 14.6203 13.7667 14.6731C13.806 15.4906 13.909 16.2662 14.0102 16.8733C14.0749 17.2614 14.1396 17.5853 14.1885 17.8134C14.2149 17.9366 14.242 18.0596 14.2724 18.1819C14.3275 18.4026 14.4799 18.5863 14.6866 18.6814C14.8933 18.7764 15.1319 18.7726 15.3354 18.6708C15.5805 18.5479 15.8185 18.4099 16.0542 18.2702C16.4933 18.01 17.107 17.6223 17.8161 17.1066C19.2314 16.0773 21.0423 14.527 22.6 12.45C22.8 12.1833 22.8 11.8167 22.6 11.55C21.0423 9.47305 19.2314 7.92274 17.8161 6.89345C17.107 6.37774 16.4933 5.98997 16.0542 5.72978Z" fill="#231F2C"/>
</svg>
