<svg width="24" height="24" viewBox="0 0 24 24" fill="none" xmlns="http://www.w3.org/2000/svg">
<path d="M10.2361 1.25C9.20469 1.25 8.17724 1.85176 7.86668 2.96175C7.57317 4.0108 7.25 5.6908 7.25 8C7.25 9.74385 7.4343 11.1291 7.65111 12.1551C7.70786 12.4236 7.90677 12.6397 8.16971 12.7185C8.43264 12.7972 8.7176 12.7261 8.91263 12.5329L16.2754 5.24179C16.448 5.07093 16.5271 4.8271 16.4878 4.58747C16.3812 3.93763 16.2548 3.39583 16.1334 2.96219C15.823 1.85237 14.7955 1.25 13.7639 1.25H10.2361Z" fill="#231F2C"/>
<path d="M21.5303 3.53033C21.8232 3.23744 21.8232 2.76256 21.5303 2.46967C21.2374 2.17678 20.7626 2.17678 20.4697 2.46967L2.46967 20.4697C2.17678 20.7626 2.17678 21.2374 2.46967 21.5303C2.76256 21.8232 3.23744 21.8232 3.53033 21.5303L7.17211 17.8886C7.42112 17.9851 7.75708 18.1035 8.16896 18.2211C8.94642 18.4433 9.99876 18.6643 11.25 18.7302V22C11.25 22.4142 11.5858 22.75 12 22.75C12.4142 22.75 12.75 22.4142 12.75 22V18.7303C14.6206 18.6317 16.048 18.1864 16.7795 17.9072C17.2756 17.7178 17.6556 17.3687 17.9187 16.9741L19.624 14.416C19.8538 14.0714 19.7607 13.6057 19.416 13.376C19.0714 13.1462 18.6057 13.2393 18.376 13.584L16.6706 16.142C16.5475 16.3266 16.3989 16.4469 16.2446 16.5058C15.5369 16.7759 14.0072 17.25 12 17.25C10.5827 17.25 9.40277 17.0136 8.58104 16.7789C8.50063 16.7559 8.42371 16.7329 8.3504 16.7103L10.3107 14.75H13.7639C14.7953 14.75 15.8228 14.1482 16.1333 13.0382C16.4134 12.0371 16.7205 10.4614 16.748 8.31265L21.5303 3.53033Z" fill="#231F2C"/>
<path d="M5.62404 13.584C5.39427 13.2393 4.92862 13.1462 4.58397 13.376C4.23933 13.6057 4.1462 14.0714 4.37596 14.416L4.95379 15.2828C5.18355 15.6274 5.64921 15.7205 5.99385 15.4908C6.3385 15.261 6.43163 14.7954 6.20187 14.4507L5.62404 13.584Z" fill="#231F2C"/>
</svg>
