<svg width="24" height="24" viewBox="0 0 24 24" fill="none" xmlns="http://www.w3.org/2000/svg">
<path d="M12 2.25C11.2525 2.25 10.4841 2.69869 10.2156 3.5765L8.88543 7.92428C8.83569 8.08684 8.6907 8.18961 8.53541 8.18961H4.11931C2.31561 8.18961 1.58235 10.4805 2.98356 11.5617L6.64854 14.3897C6.77187 14.4848 6.82711 14.6521 6.77916 14.8089L5.40162 19.3115C4.87567 21.0306 6.8531 22.4903 8.32176 21.3571L11.7806 18.6882C12.0803 18.4569 12.501 18.1296 12.8459 17.8607L13.4619 17.38C13.6439 17.2376 13.7502 17.0194 13.75 16.7883L13.7481 14.8455C13.7444 11.2303 13.7408 7.61549 13.7408 4.00068C13.7408 3.41689 13.4795 2.96152 13.1249 2.66655C12.7917 2.38943 12.3741 2.25 12 2.25Z" fill="#231F2C"/>
</svg>
