<svg width="24" height="24" viewBox="0 0 24 24" fill="none" xmlns="http://www.w3.org/2000/svg">
<path d="M17.25 5C17.25 4.58579 17.5858 4.25 18 4.25H20C21.5188 4.25 22.75 5.48122 22.75 7V17C22.75 18.5188 21.5188 19.75 20 19.75H18C17.5858 19.75 17.25 19.4142 17.25 19C17.25 18.5858 17.5858 18.25 18 18.25H20C20.6904 18.25 21.25 17.6904 21.25 17V7C21.25 6.30964 20.6904 5.75 20 5.75H18C17.5858 5.75 17.25 5.41421 17.25 5Z" fill="#231F2C"/>
<path d="M10.1885 17.8134C10.1396 17.5853 10.0749 17.2614 10.0102 16.8733C9.9122 16.2852 9.81254 15.5391 9.7706 14.75H3C2.0335 14.75 1.25 13.9665 1.25 13V11C1.25 10.0335 2.0335 9.25 3 9.25H9.7706C9.81254 8.46085 9.9122 7.71475 10.0102 7.1267C10.0749 6.7386 10.1396 6.41468 10.1885 6.1866C10.1958 6.1525 10.2027 6.11822 10.2096 6.08393C10.232 5.97266 10.2544 5.8612 10.2913 5.75467C10.3578 5.56243 10.5001 5.40441 10.6866 5.31862C10.8859 5.22696 11.1149 5.22729 11.3134 5.31862C11.5658 5.44597 11.8111 5.58568 12.0542 5.72978C12.4933 5.98997 13.107 6.37774 13.8161 6.89345C15.2314 7.92274 17.0423 9.47305 18.6 11.55C18.8 11.8167 18.8 12.1833 18.6 12.45C17.0423 14.527 15.2314 16.0773 13.8161 17.1066C13.107 17.6223 12.4933 18.01 12.0542 18.2702C11.8188 18.4098 11.581 18.5475 11.3362 18.6704C11.1328 18.7721 10.8933 18.7764 10.6866 18.6814C10.4799 18.5863 10.3276 18.4026 10.2724 18.1819C10.2419 18.0597 10.2149 17.9366 10.1885 17.8134Z" fill="#231F2C"/>
</svg>
