<svg width="24" height="24" viewBox="0 0 24 24" fill="none" xmlns="http://www.w3.org/2000/svg">
<path d="M6.65115 2.6708C7.02164 2.48556 7.17181 2.03505 6.98657 1.66457C6.80132 1.29409 6.35082 1.14392 5.98033 1.32916C4.50542 2.06662 3.50841 3.50531 3.33578 5.14525L3.25408 5.92147C3.21071 6.33341 3.5095 6.7025 3.92144 6.74586C4.33338 6.78922 4.70247 6.49043 4.74583 6.0785L4.82754 5.30228C4.94658 4.17141 5.63409 3.17933 6.65115 2.6708Z" fill="#231F2C"/>
<path d="M18.3354 1.32916C17.9649 1.14392 17.5144 1.29409 17.3291 1.66457C17.1439 2.03506 17.2941 2.48556 17.6645 2.6708C18.6816 3.17933 19.3691 4.17141 19.4882 5.30228L19.5699 6.0785C19.6132 6.49043 19.9823 6.78922 20.3943 6.74586C20.8062 6.7025 21.105 6.33341 21.0616 5.92147L20.9799 5.14525C20.8073 3.50531 19.8103 2.06662 18.3354 1.32916Z" fill="#231F2C"/>
<path fill-rule="evenodd" clip-rule="evenodd" d="M12.7499 1.99998C12.7499 1.58577 12.4142 1.24998 11.9999 1.24998C11.5857 1.24998 11.2499 1.58577 11.2499 1.99998V2.24998H10.6528C8.19609 2.24998 6.14473 4.12331 5.92231 6.56994L5.35576 12.802C5.30119 13.4023 5.08076 13.9756 4.71911 14.4578L3.3036 16.3451C2.5592 17.3376 3.05548 18.8087 4.33757 19.0438C5.48303 19.2538 7.20881 19.517 9.24995 19.6552V20C9.24995 21.5188 10.4812 22.75 11.9999 22.75C13.5187 22.75 14.7499 21.5188 14.7499 20V19.6552C16.7911 19.517 18.5169 19.2538 19.6623 19.0438C20.9444 18.8087 21.4407 17.3376 20.6963 16.3451L19.2808 14.4578C18.9191 13.9756 18.6987 13.4023 18.6441 12.802L18.0776 6.56994C17.8552 4.12331 15.8038 2.24998 13.3471 2.24998H12.7499V1.99998ZM10.7499 20V19.73C11.1583 19.7429 11.5756 19.75 11.9999 19.75C12.4243 19.75 12.8416 19.7429 13.2499 19.73V20C13.2499 20.6903 12.6903 21.25 11.9999 21.25C11.3096 21.25 10.7499 20.6903 10.7499 20Z" fill="#231F2C"/>
</svg>
