<svg width="24" height="24" viewBox="0 0 24 24" fill="none" xmlns="http://www.w3.org/2000/svg">
<path d="M11.0001 18.75C10.0336 18.75 9.25008 17.9665 9.25008 17V10.2294C8.46093 10.1875 7.71483 10.0878 7.12678 9.9898C6.68826 9.91671 6.25032 9.83343 5.81837 9.72765C5.59767 9.67248 5.41375 9.52007 5.31869 9.31339C5.17913 9.00995 5.2882 8.73453 5.43455 8.46469C5.63465 8.09578 6.11984 7.24769 6.89353 6.18387C7.92282 4.7686 9.47313 2.95771 11.5501 1.4C11.8167 1.2 12.1834 1.2 12.4501 1.4C14.527 2.95771 16.0773 4.7686 17.1066 6.18387C17.8803 7.24769 18.3655 8.09578 18.5656 8.46469C18.712 8.73465 18.8211 9.00979 18.6815 9.31339C18.5646 9.56744 18.3394 9.68991 18.0807 9.75187C17.8927 9.79572 17.4557 9.89275 16.8734 9.9898C16.2853 10.0878 15.5392 10.1875 14.7501 10.2294V17C14.7501 17.9665 13.9666 18.75 13.0001 18.75H11.0001Z" fill="#231F2C"/>
<path d="M5.75 20C5.75 19.5858 5.41421 19.25 5 19.25C4.58579 19.25 4.25 19.5858 4.25 20C4.25 21.5188 5.48122 22.75 7 22.75H17C18.5188 22.75 19.75 21.5188 19.75 20C19.75 19.5858 19.4142 19.25 19 19.25C18.5858 19.25 18.25 19.5858 18.25 20C18.25 20.6904 17.6904 21.25 17 21.25H7C6.30964 21.25 5.75 20.6904 5.75 20Z" fill="#231F2C"/>
</svg>
