<svg width="24" height="24" viewBox="0 0 24 24" fill="none" xmlns="http://www.w3.org/2000/svg">
<path fill-rule="evenodd" clip-rule="evenodd" d="M21.7238 3.80349C21.7896 4.04579 21.7298 4.30493 21.5644 4.49388L14.75 12.2818V21C14.75 21.2599 14.6154 21.5013 14.3943 21.638C14.1732 21.7746 13.8971 21.7871 13.6646 21.6708L9.6646 19.6708C9.41051 19.5438 9.25001 19.2841 9.25001 19V12.2818L2.43558 4.49388C2.27025 4.30493 2.21043 4.04579 2.27621 3.80349C2.34172 3.5622 2.52797 3.36646 2.76506 3.28775C3.53222 3.0351 4.33174 2.8927 5.12671 2.7602C6.6669 2.50351 8.95813 2.25 12 2.25C15.0419 2.25 17.3331 2.50351 18.8733 2.7602C19.6433 2.88854 20.2254 3.01763 20.6194 3.11614C20.8248 3.16749 21.0302 3.22113 21.2316 3.28666C21.469 3.36484 21.6582 3.56192 21.7238 3.80349Z" fill="#231F2C"/>
</svg>
