<svg width="24" height="24" viewBox="0 0 24 24" fill="none" xmlns="http://www.w3.org/2000/svg">
<path d="M20.8767 2.26021C21.1156 2.22039 21.3591 2.29841 21.5303 2.46968C21.7016 2.64095 21.7796 2.88439 21.7398 3.12331C21.7256 3.20828 21.7105 3.29311 21.6953 3.37791C21.6661 3.54081 21.6225 3.77782 21.5646 4.07685C21.4486 4.67476 21.275 5.52145 21.0437 6.52011C20.5818 8.51354 19.8859 11.1295 18.9532 13.5851C18.9503 13.5926 18.9473 13.6 18.9443 13.6074L17.7982 16.3559L17.7902 16.3743C16.896 18.367 16.0666 19.9098 15.4926 20.9079C14.8472 22.0301 13.3086 22.006 12.6259 20.9821L9.49114 16.2799C9.36276 16.0874 9.33048 15.8463 9.40367 15.6267L15 9L8.37329 14.5964C8.15373 14.6695 7.91267 14.6373 7.7201 14.5089L3.01792 11.3741C1.99398 10.6915 1.96995 9.15283 3.09212 8.50746C4.433 7.73631 6.75791 6.50373 9.83664 5.27224C12.3597 4.26301 15.1214 3.51086 17.2412 3.01209C18.3035 2.76214 19.2098 2.57461 19.8514 2.44943C20.1925 2.38287 20.5341 2.31871 20.8767 2.26021Z" fill="#231F2C"/>
</svg>
