<svg width="24" height="24" viewBox="0 0 24 24" fill="none" xmlns="http://www.w3.org/2000/svg">
<path d="M11.0001 1.25C10.0336 1.25 9.25008 2.0335 9.25008 3V9.7706C8.46093 9.81254 7.71483 9.9122 7.12678 10.0102C6.68826 10.0833 6.25032 10.1666 5.81837 10.2723C5.59767 10.3275 5.41375 10.4799 5.31869 10.6866C5.17913 10.99 5.2882 11.2655 5.43455 11.5353C5.63465 11.9042 6.11984 12.7523 6.89353 13.8161C7.92282 15.2314 9.47313 17.0423 11.5501 18.6C11.8167 18.8 12.1834 18.8 12.4501 18.6C14.527 17.0423 16.0773 15.2314 17.1066 13.8161C17.8803 12.7523 18.3655 11.9042 18.5656 11.5353C18.712 11.2654 18.8211 10.9902 18.6815 10.6866C18.5646 10.4326 18.3394 10.3101 18.0807 10.2481C17.8927 10.2043 17.4557 10.1073 16.8734 10.0102C16.2853 9.9122 15.5392 9.81254 14.7501 9.7706V3C14.7501 2.0335 13.9666 1.25 13.0001 1.25H11.0001Z" fill="#231F2C"/>
<path d="M5.75 20C5.75 19.5858 5.41421 19.25 5 19.25C4.58579 19.25 4.25 19.5858 4.25 20C4.25 21.5188 5.48122 22.75 7 22.75H17C18.5188 22.75 19.75 21.5188 19.75 20C19.75 19.5858 19.4142 19.25 19 19.25C18.5858 19.25 18.25 19.5858 18.25 20C18.25 20.6904 17.6904 21.25 17 21.25H7C6.30964 21.25 5.75 20.6904 5.75 20Z" fill="#231F2C"/>
</svg>
