<svg width="24" height="24" viewBox="0 0 24 24" fill="none" xmlns="http://www.w3.org/2000/svg">
<path d="M6.25 2.25L5.63809 2.25C4.33015 2.25 3.18873 3.1752 2.97287 4.49094C2.67594 6.30081 2.25 9.3521 2.25 12C2.25 14.6479 2.67594 17.6992 2.97287 19.5091C3.18873 20.8248 4.33015 21.75 5.63809 21.75H6.25V13C6.25 12.5858 6.58579 12.25 7 12.25H17C17.4142 12.25 17.75 12.5858 17.75 13V21.75H18.3619C19.6699 21.75 20.8113 20.8248 21.0271 19.5091C21.4287 17.0617 21.75 14.5266 21.75 12C21.75 10.386 21.5921 8.78111 21.4021 7.43206C21.3286 6.91021 21.1005 6.42723 20.7613 6.03801C19.4928 4.58261 18.655 3.65292 18.157 3.1101C18.0326 2.97447 17.8961 2.85398 17.75 2.74927V9C17.75 9.41421 17.4142 9.75 17 9.75H7C6.58579 9.75 6.25 9.41421 6.25 9V2.25Z" fill="#231F2C"/>
<path d="M16.25 2.2508V8.25H7.75V2.25L16.1841 2.25001C16.2061 2.25001 16.2281 2.25027 16.25 2.2508Z" fill="#231F2C"/>
<path d="M16.25 21.75V13.75H7.75V21.75H16.25Z" fill="#231F2C"/>
</svg>
