<svg width="24" height="24" viewBox="0 0 24 24" fill="none" xmlns="http://www.w3.org/2000/svg">
<path d="M13.7844 3.57649C13.2433 1.80783 10.7567 1.80784 10.2156 3.57649L8.88543 7.92428C8.83569 8.08684 8.6907 8.18961 8.53541 8.18961H4.11931C2.31561 8.18961 1.58235 10.4805 2.98356 11.5617L6.64854 14.3897C6.77187 14.4848 6.82711 14.6521 6.77916 14.8089L5.40162 19.3115C4.87567 21.0306 6.8531 22.4903 8.32176 21.3571L11.7806 18.6882C11.9108 18.5877 12.0892 18.5877 12.2194 18.6882L15.6782 21.3571C17.1469 22.4903 19.1243 21.0306 18.5984 19.3115L17.2208 14.8089C17.1729 14.6521 17.2281 14.4848 17.3514 14.3897L21.0164 11.5617C22.4176 10.4805 21.6844 8.18961 19.8807 8.18961H15.4646C15.3093 8.18961 15.1643 8.08684 15.1145 7.92428L13.7844 3.57649Z" fill="#231F2C"/>
</svg>
