<svg width="24" height="24" viewBox="0 0 24 24" fill="none" xmlns="http://www.w3.org/2000/svg">
<path d="M10.236 1.25C9.20464 1.25 8.1772 1.85176 7.86664 2.96175C7.57313 4.0108 7.24996 5.6908 7.24996 8C7.24996 10.3092 7.57313 11.9892 7.86664 13.0382C8.1772 14.1482 9.20464 14.75 10.236 14.75H13.7639C14.7953 14.75 15.8227 14.1482 16.1333 13.0382C16.4268 11.9892 16.75 10.3092 16.75 8C16.75 7.98281 16.7494 7.96563 16.7482 7.94848C16.7312 7.7021 16.716 7.45184 16.7006 7.19855C16.6173 5.83113 16.5287 4.37512 16.1333 2.962C15.8228 1.85211 14.7954 1.25 13.7639 1.25H10.236Z" fill="#231F2C"/>
<path d="M5.624 13.584C5.39423 13.2393 4.92858 13.1462 4.58393 13.376C4.23929 13.6057 4.14616 14.0714 4.37592 14.416L6.0813 16.9741C6.34438 17.3687 6.72433 17.7178 7.22042 17.9072C7.95196 18.1864 9.37932 18.6317 11.25 18.7303V22C11.25 22.4142 11.5857 22.75 12 22.75C12.4142 22.75 12.75 22.4142 12.75 22V18.7303C14.6206 18.6317 16.048 18.1864 16.7795 17.9072C17.2756 17.7178 17.6555 17.3687 17.9186 16.9741L19.624 14.416C19.8538 14.0714 19.7606 13.6057 19.416 13.376C19.0713 13.1462 18.6057 13.2393 18.3759 13.584L16.6705 16.142C16.5475 16.3266 16.3988 16.4469 16.2446 16.5058C15.5369 16.7759 14.0072 17.25 12 17.25C9.99275 17.25 8.46305 16.7759 7.75534 16.5058C7.60109 16.4469 7.45243 16.3266 7.32938 16.142L5.624 13.584Z" fill="#231F2C"/>
</svg>
