<svg width="24" height="24" viewBox="0 0 24 24" fill="none" xmlns="http://www.w3.org/2000/svg">
<path d="M12.8337 20.3209C13.0852 20.1343 13.443 19.8634 13.8717 19.5241C14.728 18.8464 15.8728 17.8913 17.0205 16.7852C18.1649 15.6822 19.3307 14.4116 20.2153 13.1016C21.0888 11.8082 21.75 10.3867 21.75 9C21.75 5.82437 19.1756 3.25 16 3.25C14.4451 3.25 13.0343 3.86773 12 4.86938C10.9657 3.86773 9.55491 3.25 8 3.25C4.82436 3.25 2.25 5.82437 2.25 9C2.25 10.4065 2.90897 11.8381 3.78406 13.1383C4.66927 14.4535 5.83582 15.722 6.98094 16.82C8.12924 17.921 9.2746 18.8681 10.1313 19.539C10.5602 19.8749 10.9182 20.1428 11.1699 20.3272C11.3114 20.4309 11.4539 20.533 11.5977 20.6334C11.8431 20.7894 12.1572 20.7893 12.4024 20.6334C12.5474 20.531 12.6911 20.4268 12.8337 20.3209Z" fill="#231F2C"/>
</svg>
