<svg width="24" height="24" viewBox="0 0 24 24" fill="none" xmlns="http://www.w3.org/2000/svg">
<path d="M11.3159 2.46115C11.503 2.22115 11.5265 1.89186 11.3754 1.62769C11.2243 1.36351 10.9286 1.21682 10.6268 1.25639C5.33498 1.95036 1.25 6.47609 1.25 11.9571C1.25 17.9179 6.08214 22.75 12.0429 22.75C17.5239 22.75 22.0497 18.665 22.7436 13.3732C22.7832 13.0714 22.6365 12.7757 22.3723 12.6246C22.1082 12.4735 21.7789 12.4971 21.5389 12.6842C20.304 13.6469 18.7522 14.22 17.0643 14.22C14.0085 14.22 11.3904 12.3381 10.3092 9.66714C10.3008 9.64619 10.2913 9.62563 10.281 9.60553C10.1441 9.33934 9.78002 8.32542 9.78002 6.93569C9.78002 5.24787 10.3531 3.69601 11.3159 2.46115Z" fill="#231F2C"/>
</svg>
