<svg width="24" height="24" viewBox="0 0 24 24" fill="none" xmlns="http://www.w3.org/2000/svg">
<path d="M13.8451 2.10391C13.904 1.96813 14.0965 1.96813 14.1553 2.10391L14.5045 2.90965C14.6184 3.17228 14.8278 3.38177 15.0905 3.49559L15.8962 3.84478C16.032 3.90362 16.032 4.09616 15.8962 4.15501L15.0905 4.50418C14.8279 4.61801 14.6184 4.82752 14.5045 5.09018L14.1553 5.89608C14.0965 6.03187 13.9039 6.03187 13.8451 5.89608L13.4959 5.09022C13.3821 4.82754 13.1726 4.61802 12.9099 4.50419L12.104 4.15501C11.9683 4.09617 11.9683 3.90361 12.104 3.84478L12.9099 3.49558C13.1726 3.38176 13.3821 3.17227 13.4959 2.90961L13.8451 2.10391Z" fill="#231F2C"/>
<path d="M18.7673 3.15294C18.8557 2.94907 19.1448 2.94907 19.2331 3.15294L19.7575 4.36282C19.9284 4.75718 20.2429 5.07173 20.6373 5.24264L21.8472 5.76697C22.051 5.85532 22.051 6.14444 21.8472 6.23279L20.6373 6.7571C20.2429 6.92802 19.9284 7.24261 19.7575 7.63702L19.2331 8.84712C19.1448 9.05101 18.8556 9.05101 18.7673 8.84712L18.243 7.63707C18.0721 7.24264 17.7575 6.92803 17.363 6.75712L16.153 6.2328C15.9491 6.14445 15.9491 5.85531 16.153 5.76696L17.3631 5.24262C17.7575 5.07173 18.0721 4.75715 18.243 4.36276L18.7673 3.15294Z" fill="#231F2C"/>
<path d="M5 3.25C3.48122 3.25 2.25 4.48122 2.25 6V13.0239C2.25 13.4381 2.58579 13.7739 3 13.7739C3.41421 13.7739 3.75 13.4381 3.75 13.0239V6C3.75 5.30964 4.30964 4.75 5 4.75H10C10.4142 4.75 10.75 4.41421 10.75 4C10.75 3.58579 10.4142 3.25 10 3.25H5Z" fill="#231F2C"/>
<path fill-rule="evenodd" clip-rule="evenodd" d="M10.2063 8.74775C10.0997 8.44925 9.81696 8.25 9.5 8.25C9.18304 8.25 8.9003 8.44925 8.79369 8.74775L6.29369 15.7477C6.15438 16.1378 6.35767 16.567 6.74775 16.7063C7.13783 16.8456 7.56699 16.6423 7.70631 16.2523L8.24283 14.75H10.7572L11.2937 16.2523C11.433 16.6423 11.8622 16.8456 12.2523 16.7063C12.6423 16.567 12.8456 16.1378 12.7063 15.7477L10.2063 8.74775ZM9.5 11.2299L10.2215 13.25H8.77854L9.5 11.2299Z" fill="#231F2C"/>
<path d="M15.75 9C15.75 8.58579 15.4142 8.25 15 8.25C14.5858 8.25 14.25 8.58579 14.25 9V16C14.25 16.4142 14.5858 16.75 15 16.75C15.4142 16.75 15.75 16.4142 15.75 16V9Z" fill="#231F2C"/>
<path d="M19.75 11C19.75 10.5858 19.4142 10.25 19 10.25C18.5858 10.25 18.25 10.5858 18.25 11V19C18.25 19.6904 17.6904 20.25 17 20.25H5C4.30964 20.25 3.75 19.6904 3.75 19V16C3.75 15.5858 3.41421 15.25 3 15.25C2.58579 15.25 2.25 15.5858 2.25 16V19C2.25 20.5188 3.48122 21.75 5 21.75H17C18.5188 21.75 19.75 20.5188 19.75 19V11Z" fill="#231F2C"/>
</svg>
