<svg width="24" height="24" viewBox="0 0 24 24" fill="none" xmlns="http://www.w3.org/2000/svg">
<path d="M9.75 3C9.75 2.58579 10.0858 2.25 10.5 2.25H13.5C13.9142 2.25 14.25 2.58579 14.25 3C14.25 3.41421 13.9142 3.75 13.5 3.75H10.5C10.0858 3.75 9.75 3.41421 9.75 3Z" fill="#231F2C"/>
<path fill-rule="evenodd" clip-rule="evenodd" d="M3.25 13C3.25 8.16752 7.16751 4.25001 12 4.25001C16.4365 4.25001 20.75 8.04089 20.75 13C20.75 17.9245 17.0462 21.75 12 21.75C7.16751 21.75 3.25 17.8325 3.25 13ZM17.0235 7.69755C17.2073 7.56624 17.4338 7.79272 17.3025 7.97654L13.395 13.4471C13.1471 13.7941 12.7469 14.0001 12.3205 14.0001C11.5912 14.0001 11 13.4089 11 12.6796C11 12.2532 11.2059 11.853 11.553 11.6051L17.0235 7.69755Z" fill="#231F2C"/>
<path d="M6.03033 4.46968C6.32322 4.76257 6.32322 5.23745 6.03033 5.53034L4.53033 7.03033C4.23743 7.32322 3.76256 7.32322 3.46967 7.03033C3.17678 6.73743 3.17678 6.26256 3.46967 5.96967L4.96967 4.46968C5.26257 4.17678 5.73744 4.17678 6.03033 4.46968Z" fill="#231F2C"/>
</svg>
