<svg width="24" height="24" viewBox="0 0 24 24" fill="none" xmlns="http://www.w3.org/2000/svg">
<path fill-rule="evenodd" clip-rule="evenodd" d="M1.25 12C1.25 6.06294 6.06294 1.25 12 1.25C17.9371 1.25 22.75 6.06294 22.75 12C22.75 17.9291 17.945 22.75 12.1622 22.75C6.24091 22.75 1.25 17.9526 1.25 12ZM12.75 6C12.75 5.58579 12.4142 5.25 12 5.25C11.5858 5.25 11.25 5.58579 11.25 6V6.63709C10.5797 6.73453 9.96284 6.96162 9.46265 7.29508C8.78567 7.7464 8.25 8.45226 8.25 9.33333V9.65789C8.25 11.1819 9.65657 12.2475 11.2215 12.5953L12.4531 12.869C13.7358 13.154 14.25 13.865 14.25 14.3421V14.6667C14.25 14.8902 14.1141 15.1843 13.7053 15.4568C13.3017 15.7259 12.701 15.9167 12 15.9167C11.299 15.9167 10.6983 15.7259 10.2947 15.4568C9.8859 15.1843 9.75 14.8902 9.75 14.6667C9.75 14.2525 9.41421 13.9167 9 13.9167C8.58579 13.9167 8.25 14.2525 8.25 14.6667C8.25 15.5477 8.78567 16.2536 9.46265 16.7049C9.96284 17.0384 10.5797 17.2655 11.25 17.3629V18C11.25 18.4142 11.5858 18.75 12 18.75C12.4142 18.75 12.75 18.4142 12.75 18V17.3629C13.4203 17.2655 14.0372 17.0384 14.5373 16.7049C15.2143 16.2536 15.75 15.5477 15.75 14.6667V14.3421C15.75 12.8181 14.3434 11.7525 12.7785 11.4047L11.5469 11.131C10.2642 10.846 9.75 10.135 9.75 9.65789V9.33333C9.75 9.10984 9.8859 8.81569 10.2947 8.54316C10.6983 8.27412 11.299 8.08333 12 8.08333C12.701 8.08333 13.3017 8.27412 13.7053 8.54316C14.1141 8.81569 14.25 9.10984 14.25 9.33333C14.25 9.74755 14.5858 10.0833 15 10.0833C15.4142 10.0833 15.75 9.74755 15.75 9.33333C15.75 8.45226 15.2143 7.7464 14.5373 7.29508C14.0372 6.96162 13.4203 6.73453 12.75 6.63709V6Z" fill="#231F2C"/>
</svg>
