<svg width="24" height="24" viewBox="0 0 24 24" fill="none" xmlns="http://www.w3.org/2000/svg">
<path fill-rule="evenodd" clip-rule="evenodd" d="M8.67082 3.33545C8.85606 2.96497 8.70589 2.51446 8.33541 2.32922C7.96493 2.14398 7.51442 2.29415 7.32918 2.66463L5.53647 6.25004H4C3.0335 6.25004 2.25 7.03354 2.25 8.00004V10C2.25 10.9207 2.96095 11.6753 3.8638 11.7448L5.00906 18.6164C5.20447 19.7888 5.98038 20.8871 7.25982 21.2129C8.31803 21.4824 9.89854 21.75 12 21.75C14.1015 21.75 15.682 21.4824 16.7402 21.2129C18.0196 20.8871 18.7955 19.7888 18.9909 18.6164L20.1362 11.7448C21.0391 11.6753 21.75 10.9207 21.75 10V8.00004C21.75 7.03354 20.9665 6.25004 20 6.25004H18.4635L16.6708 2.66463C16.4856 2.29415 16.0351 2.14398 15.6646 2.32922C15.2941 2.51446 15.1439 2.96497 15.3292 3.33545L16.7865 6.25004H7.21353L8.67082 3.33545ZM19.5 10.25L19.5079 10.25H20C20.1381 10.25 20.25 10.1381 20.25 10V8.00004C20.25 7.86197 20.1381 7.75004 20 7.75004H18.0162C18.0058 7.75026 17.9953 7.75026 17.9849 7.75004H6.01509C6.00466 7.75026 5.99421 7.75026 5.98375 7.75004H4C3.86193 7.75004 3.75 7.86197 3.75 8.00004V10C3.75 10.1381 3.86193 10.25 4 10.25H4.49206L4.50001 10.25H19.5ZM10.75 14C10.75 13.5858 10.4142 13.25 10 13.25C9.58579 13.25 9.25 13.5858 9.25 14V17C9.25 17.4142 9.58579 17.75 10 17.75C10.4142 17.75 10.75 17.4142 10.75 17V14ZM14.75 14C14.75 13.5858 14.4142 13.25 14 13.25C13.5858 13.25 13.25 13.5858 13.25 14V17C13.25 17.4142 13.5858 17.75 14 17.75C14.4142 17.75 14.75 17.4142 14.75 17V14Z" fill="#231F2C"/>
</svg>
