<svg width="24" height="24" viewBox="0 0 24 24" fill="none" xmlns="http://www.w3.org/2000/svg">
<path fill-rule="evenodd" clip-rule="evenodd" d="M8 2.25C8.41421 2.25 8.75 2.58579 8.75 3V4.25H15.25V3C15.25 2.58579 15.5858 2.25 16 2.25C16.4142 2.25 16.75 2.58579 16.75 3V4.25H18.5585C19.735 4.25 20.8261 5.01194 21.1016 6.22563C21.401 7.54416 21.75 10.6057 21.75 13C21.75 15.224 21.6054 17.5554 21.1016 19.7744C20.8261 20.9881 19.735 21.75 18.5585 21.75H5.44152C4.26502 21.75 3.17391 20.9881 2.89837 19.7744C2.59904 18.4558 2.25 15.3943 2.25 13C2.25 10.6057 2.59904 7.54416 2.89837 6.22563C3.17391 5.01194 4.26502 4.25 5.44152 4.25H7.25V3C7.25 2.58579 7.58579 2.25 8 2.25ZM4.5 10.25C4.08579 10.25 3.75 10.5858 3.75 11C3.75 11.4142 4.08579 11.75 4.5 11.75H19.5C19.9142 11.75 20.25 11.4142 20.25 11C20.25 10.5858 19.9142 10.25 19.5 10.25H4.5Z" fill="#231F2C"/>
</svg>
