<svg width="24" height="24" viewBox="0 0 24 24" fill="none" xmlns="http://www.w3.org/2000/svg">
<path d="M13.521 1.80087C12.6399 1.06638 11.3601 1.06638 10.479 1.80087C9.34783 2.74393 7.92198 3.26036 6.44957 3.26036H4C3.80078 3.26036 3.60975 3.33962 3.46905 3.48065C3.32835 3.62168 3.24954 3.81289 3.25 4.01211L3.26088 8.6711C3.27676 12.8171 4.92549 16.7897 7.8497 19.7278L10.0515 21.94C11.1263 23.02 12.8737 23.0199 13.9486 21.94L16.0593 19.8188L16.06 19.8181C19.0724 16.8054 20.7526 12.8459 20.7678 8.89534V8.88974L20.75 4.00763C20.7485 3.59448 20.4131 3.26036 20 3.26036H17.5504C16.078 3.26036 14.6522 2.74393 13.521 1.80087Z" fill="#231F2C"/>
</svg>
