<svg width="24" height="24" viewBox="0 0 24 24" fill="none" xmlns="http://www.w3.org/2000/svg">
<path fill-rule="evenodd" clip-rule="evenodd" d="M2.25 12C2.25 6.61522 6.61522 2.25 12 2.25C17.3848 2.25 21.75 6.61522 21.75 12C21.75 17.3848 17.3848 21.75 12 21.75C6.61522 21.75 2.25 17.3848 2.25 12ZM12.75 5.69995C12.75 5.28574 12.4142 4.94995 12 4.94995C11.5858 4.94995 11.25 5.28574 11.25 5.69995V12C11.25 12.1989 11.329 12.3896 11.4697 12.5303L14.1697 15.2303C14.4626 15.5232 14.9374 15.5232 15.2303 15.2303C15.5232 14.9374 15.5232 14.4625 15.2303 14.1696L12.75 11.6893V5.69995Z" fill="#231F2C"/>
</svg>
