<svg width="24" height="24" viewBox="0 0 24 24" fill="none" xmlns="http://www.w3.org/2000/svg">
<path fill-rule="evenodd" clip-rule="evenodd" d="M8.25 5V5.25H5.53656C4.29624 5.25 3.17985 6.08832 2.92554 7.34835C2.8787 7.58039 2.98453 7.816 3.18751 7.93779L3.8832 8.3552L9.33827 11.5641C10.9812 12.5305 13.019 12.5305 14.662 11.5641L20.1143 8.35688L20.1199 8.35354L20.8124 7.93805C21.0154 7.8162 21.1213 7.58049 21.0745 7.34835C20.8201 6.08832 19.7038 5.25 18.4634 5.25H15.75V5C15.75 3.48122 14.5188 2.25 13 2.25H11C9.48122 2.25 8.25 3.48122 8.25 5ZM11 3.75C10.3096 3.75 9.75 4.30964 9.75 5V5.25H14.25V5C14.25 4.30964 13.6904 3.75 13 3.75H11Z" fill="#231F2C"/>
<path d="M21.5045 9.94531C21.4664 9.64907 21.1366 9.49279 20.8805 9.64647L15.4225 12.857C13.3101 14.0996 10.6901 14.0996 8.57774 12.857L3.11423 9.64314C2.86063 9.49098 2.53407 9.64573 2.49626 9.93904C2.35446 11.039 2.25 12.2673 2.25 13.5C2.25 15.8545 2.63108 18.1928 2.92554 19.6516C3.17985 20.9117 4.29624 21.75 5.53656 21.75H18.4634C19.7038 21.75 20.8201 20.9117 21.0745 19.6516C21.4774 17.6554 21.75 15.5688 21.75 13.5C21.75 12.2696 21.6459 11.0437 21.5045 9.94531Z" fill="#231F2C"/>
</svg>
