<svg width="24" height="24" viewBox="0 0 24 24" fill="none" xmlns="http://www.w3.org/2000/svg">
<path fill-rule="evenodd" clip-rule="evenodd" d="M4 3.25C2.48122 3.25 1.25 4.48122 1.25 6V16C1.25 17.5188 2.48122 18.75 4 18.75H4.35352C4.67998 19.9043 5.74122 20.75 7 20.75C8.25878 20.75 9.32002 19.9043 9.64648 18.75H13.3535C13.68 19.9043 14.7412 20.75 16 20.75C17.2588 20.75 18.32 19.9043 18.6465 18.75H20C21.5188 18.75 22.75 17.5188 22.75 16V10C22.75 8.48122 21.5188 7.25 20 7.25H16.75V6C16.75 4.48122 15.5188 3.25 14 3.25H4ZM21.25 12.75H16.75V15.3535C17.6658 15.6125 18.3875 16.3342 18.6465 17.25H20C20.6904 17.25 21.25 16.6904 21.25 16V12.75ZM15.25 15.3535V14.75H2.75V16C2.75 16.6904 3.30964 17.25 4 17.25H4.35352C4.67998 16.0957 5.74122 15.25 7 15.25C8.25878 15.25 9.32002 16.0957 9.64648 17.25H13.3535C13.6125 16.3342 14.3342 15.6125 15.25 15.3535ZM5.75 18C5.75 17.3096 6.30964 16.75 7 16.75C7.69036 16.75 8.25 17.3096 8.25 18C8.25 18.6904 7.69036 19.25 7 19.25C6.30964 19.25 5.75 18.6904 5.75 18ZM14.75 18C14.75 17.3096 15.3096 16.75 16 16.75C16.6904 16.75 17.25 17.3096 17.25 18C17.25 18.6904 16.6904 19.25 16 19.25C15.3096 19.25 14.75 18.6904 14.75 18ZM7 9.25C7.41421 9.25 7.75 9.58579 7.75 10V12.25C7.75 12.6642 7.41421 13 7 13C6.58579 13 6.25 12.6642 6.25 12.25V10C6.25 9.58579 6.58579 9.25 7 9.25ZM11 9.25C11.4142 9.25 11.75 9.58579 11.75 10V12.25C11.75 12.6642 11.4142 13 11 13C10.5858 13 10.25 12.6642 10.25 12.25V10C10.25 9.58579 10.5858 9.25 11 9.25Z" fill="#231F2C"/>
</svg>
