<svg width="24" height="24" viewBox="0 0 24 24" fill="none" xmlns="http://www.w3.org/2000/svg">
<path fill-rule="evenodd" clip-rule="evenodd" d="M2.5396 4.40802C2.86656 4.15372 3.33776 4.21262 3.59207 4.53958L6.75823 8.61036C8.2615 7.74371 10.0277 7.25003 12.0001 7.25003C13.9414 7.25003 15.697 7.77077 17.1999 8.66433L20.408 4.53958C20.6623 4.21262 21.1335 4.15372 21.4605 4.40802C21.7875 4.66232 21.8464 5.13353 21.5921 5.46049L18.4317 9.52383C20.9044 11.5277 22.4675 14.6365 22.7114 17.9452C22.7869 18.9686 21.9478 19.75 20.9985 19.75H3.00009C2.0492 19.75 1.21333 18.9671 1.28867 17.9452C1.54401 14.4816 3.06745 11.4097 5.51636 9.45691L2.40804 5.46049C2.15373 5.13353 2.21264 4.66232 2.5396 4.40802ZM7.25 13.5C7.25 12.8096 7.80964 12.25 8.5 12.25C9.19036 12.25 9.75 12.8096 9.75 13.5C9.75 14.1904 9.19036 14.75 8.5 14.75C7.80964 14.75 7.25 14.1904 7.25 13.5ZM14.25 13.5C14.25 12.8096 14.8096 12.25 15.5 12.25C16.1904 12.25 16.75 12.8096 16.75 13.5C16.75 14.1904 16.1904 14.75 15.5 14.75C14.8096 14.75 14.25 14.1904 14.25 13.5Z" fill="#231F2C"/>
</svg>
