<svg width="24" height="24" viewBox="0 0 24 24" fill="none" xmlns="http://www.w3.org/2000/svg">
<path d="M12.452 3.29494C12.1524 3.23502 11.8476 3.23502 11.548 3.29494C10.7646 3.45162 8.64872 3.93663 6.52105 4.97496C4.55603 5.93391 2.61217 7.35047 1.73464 8.02085C1.08845 8.5145 1.08845 9.4855 1.73464 9.97915C2.41804 10.5012 3.74816 11.4759 5.23135 12.3345C5.26029 12.3474 5.28873 12.3623 5.31651 12.3792C6.36021 13.0155 7.77352 13.8408 9.08607 14.5046C9.74311 14.8368 10.3625 15.1223 10.8905 15.3229C11.4431 15.5329 11.8123 15.6168 12.0022 15.6168C12.191 15.6168 12.5622 15.5319 13.1197 15.3192C13.6518 15.1163 14.2761 14.828 14.9366 14.4939C16.256 13.8263 17.6707 13.0009 18.6929 12.379C18.7116 12.3676 18.7307 12.3571 18.75 12.3475V12.3452C19.2763 12.0412 19.7836 11.7222 20.25 11.4137V14C20.25 14.4142 20.5858 14.75 21 14.75C21.4142 14.75 21.75 14.4142 21.75 14V10.3655C21.9476 10.2201 22.1209 10.0895 22.2654 9.97915C22.9115 9.4855 22.9115 8.5145 22.2654 8.02085C19.407 5.83725 16.0819 4.02093 12.452 3.29494Z" fill="#231F2C"/>
<path d="M18.75 14.621C18.75 14.3886 18.4969 14.2442 18.296 14.3613C17.4618 14.8478 16.5196 15.374 15.6137 15.8323C14.9299 16.1783 14.2543 16.4919 13.6543 16.7207C13.0798 16.9399 12.4867 17.1168 12.0022 17.1168C11.5187 17.1168 10.9295 16.9424 10.3576 16.7251C9.76115 16.4984 9.08994 16.1874 8.40914 15.8431C7.49915 15.3829 6.54985 14.8519 5.70424 14.3577C5.50339 14.2403 5.25 14.3846 5.25 14.6173V16.372C5.25 16.9418 5.45484 17.4922 5.82667 17.9239C9.07212 21.692 14.9279 21.692 18.1733 17.9239C18.5452 17.4922 18.75 16.9418 18.75 16.372V14.621Z" fill="#231F2C"/>
</svg>
