<svg width="24" height="24" viewBox="0 0 24 24" fill="none" xmlns="http://www.w3.org/2000/svg">
<path d="M4.23607 4.25C3.20255 4.25 2.17447 4.85751 1.8833 5.98137C1.58546 7.13101 1.25 9.07532 1.25 12C1.25 14.9233 1.56594 16.7933 1.88308 18.0178C2.17407 19.1413 3.20207 19.75 4.23607 19.75H18C19.5188 19.75 20.75 18.5188 20.75 17V16.6465C20.5116 16.7139 20.26 16.75 20 16.75H13C11.4812 16.75 10.25 15.5188 10.25 14V10C10.25 8.48122 11.4812 7.25 13 7.25H20C20.26 7.25 20.5116 7.28608 20.75 7.35352V7C20.75 5.48122 19.5188 4.25 18 4.25H4.23607Z" fill="#231F2C"/>
<path fill-rule="evenodd" clip-rule="evenodd" d="M20 15.25C20.2814 15.25 20.5411 15.157 20.75 15.0001V8.99991C20.5411 8.84299 20.2814 8.75 20 8.75H13C12.3096 8.75 11.75 9.30964 11.75 10V14C11.75 14.6904 12.3096 15.25 13 15.25H20ZM15 13C15.5523 13 16 12.5523 16 12C16 11.4477 15.5523 11 15 11C14.4477 11 14 11.4477 14 12C14 12.5523 14.4477 13 15 13Z" fill="#231F2C"/>
</svg>
