<svg width="24" height="24" viewBox="0 0 24 24" fill="none" xmlns="http://www.w3.org/2000/svg">
<path fill-rule="evenodd" clip-rule="evenodd" d="M11.9999 1.25C12.4142 1.25 12.7499 1.58579 12.7499 2V2.25H13.3471C15.8038 2.25 17.8552 4.12333 18.0776 6.56995L18.6441 12.802C18.6987 13.4023 18.9191 13.9756 19.2808 14.4578L20.6963 16.3451C21.4407 17.3377 20.9444 18.8087 19.6623 19.0438C18.5169 19.2538 16.7911 19.517 14.75 19.6552V20C14.75 21.5188 13.5188 22.75 12 22.75C10.4812 22.75 9.25 21.5188 9.25 20V19.6552C7.20884 19.517 5.48304 19.2539 4.33757 19.0438C3.05548 18.8087 2.5592 17.3377 3.3036 16.3451L4.71911 14.4578C5.08076 13.9756 5.30119 13.4023 5.35576 12.802L5.92231 6.56996C6.14473 4.12333 8.19609 2.25 10.6528 2.25H11.2499V2C11.2499 1.58579 11.5857 1.25 11.9999 1.25ZM10.75 19.73V20C10.75 20.6904 11.3096 21.25 12 21.25C12.6904 21.25 13.25 20.6904 13.25 20V19.73C12.8416 19.7429 12.4244 19.75 11.9999 19.75C11.5756 19.75 11.1583 19.7429 10.75 19.73Z" fill="#231F2C"/>
</svg>
