<svg width="24" height="24" viewBox="0 0 24 24" fill="none" xmlns="http://www.w3.org/2000/svg">
<path fill-rule="evenodd" clip-rule="evenodd" d="M8.25 5.25V5C8.25 3.48122 9.48122 2.25 11 2.25H13C14.5188 2.25 15.75 3.48122 15.75 5V5.25H18.4634C19.7038 5.25 20.8201 6.08832 21.0745 7.34835C21.1539 7.7421 20.906 8.12551 20.5163 8.22294L20.3235 8.27113L16.3981 9.19233C13.5054 9.87118 10.4948 9.87117 7.60204 9.19232L3.67669 8.27113L3.4837 8.22289C3.09403 8.12547 2.84607 7.74208 2.92554 7.34835C3.17985 6.08832 4.29624 5.25 5.53656 5.25H8.25ZM9.75 5C9.75 4.30964 10.3096 3.75 11 3.75H13C13.6904 3.75 14.25 4.30964 14.25 5V5.25H9.75V5Z" fill="#231F2C"/>
<path fill-rule="evenodd" clip-rule="evenodd" d="M3.31813 9.72774C2.90796 9.62518 2.49859 9.90044 2.44928 10.3204C2.33199 11.3193 2.25 12.4079 2.25 13.5C2.25 15.8545 2.63108 18.1928 2.92554 19.6516C3.17985 20.9117 4.29624 21.75 5.53656 21.75H18.4634C19.7038 21.75 20.8201 20.9117 21.0745 19.6516C21.4774 17.6554 21.75 15.5688 21.75 13.5C21.75 12.4118 21.6686 11.327 21.552 10.331C21.5021 9.90537 21.0872 9.62636 20.6715 9.7303L16.7408 10.6527C13.6226 11.3844 10.3775 11.3844 7.25934 10.6526L3.31813 9.72774ZM12 13.25C12.4142 13.25 12.75 13.5858 12.75 14V15.25H14C14.4142 15.25 14.75 15.5858 14.75 16C14.75 16.4142 14.4142 16.75 14 16.75H12.75V18C12.75 18.4142 12.4142 18.75 12 18.75C11.5858 18.75 11.25 18.4142 11.25 18V16.75H10C9.58579 16.75 9.25 16.4142 9.25 16C9.25 15.5858 9.58579 15.25 10 15.25H11.25V14C11.25 13.5858 11.5858 13.25 12 13.25Z" fill="#231F2C"/>
</svg>
