<svg width="24" height="24" viewBox="0 0 24 24" fill="none" xmlns="http://www.w3.org/2000/svg">
<path fill-rule="evenodd" clip-rule="evenodd" d="M2.32939 2.6643C2.51481 2.29391 2.96539 2.14396 3.33578 2.32939L3.92904 2.62638C4.38035 2.85231 4.7119 3.26218 4.83896 3.75043L5.49699 6.27897L20.1062 7.16545C21.3034 7.2381 22.0685 8.46453 21.6217 9.56808L21.6208 9.57084C21.6142 9.59051 21.6047 9.61876 21.5924 9.65473C21.5677 9.72664 21.5317 9.82957 21.4855 9.95666C21.3931 10.2104 21.2589 10.5626 21.0913 10.9575C20.7628 11.7313 20.2803 12.7309 19.7032 13.464C18.549 14.93 16.8182 15.8754 14.9055 16.0173L7.32443 16.5795C7.29945 16.5814 7.2744 16.582 7.24937 16.5813C7.22484 16.5856 7.19987 16.5888 7.17451 16.5906L6.08852 16.6712C5.89705 16.6854 5.74756 16.8454 5.74756 17.0396C5.74756 17.2227 5.88085 17.3772 6.05981 17.4048L17.4636 19.1614C17.7607 18.6183 18.3373 18.25 19 18.25C19.9665 18.25 20.75 19.0335 20.75 20C20.75 20.9665 19.9665 21.75 19 21.75C18.2695 21.75 17.6435 21.3024 17.3814 20.6664L9.67106 19.4787C9.72236 19.6434 9.75 19.8185 9.75 20C9.75 20.9665 8.9665 21.75 8 21.75C7.0335 21.75 6.25 20.9665 6.25 20C6.25 19.6282 6.36593 19.2835 6.56361 19.0001L5.83146 18.8873C4.91954 18.7469 4.24756 17.9616 4.24756 17.0396C4.24756 16.0615 5.00134 15.2477 5.97758 15.1753L6.25683 15.1546L4.18384 7.18893C4.18014 7.17472 4.17687 7.16045 4.17403 7.14614C4.16952 7.1322 4.16539 7.11803 4.16165 7.10366L3.38732 4.12821C3.36909 4.05817 3.32164 3.99977 3.25756 3.96769L2.6643 3.6707C2.29391 3.48528 2.14396 3.0347 2.32939 2.6643ZM7.75 20C7.75 19.8619 7.86193 19.75 8 19.75C8.13807 19.75 8.25 19.8619 8.25 20C8.25 20.1381 8.13807 20.25 8 20.25C7.86193 20.25 7.75 20.1381 7.75 20ZM19 19.75C18.8619 19.75 18.75 19.8619 18.75 20C18.75 20.1381 18.8619 20.25 19 20.25C19.1381 20.25 19.25 20.1381 19.25 20C19.25 19.8619 19.1381 19.75 19 19.75Z" fill="#231F2C"/>
</svg>
