<svg width="24" height="24" viewBox="0 0 24 24" fill="none" xmlns="http://www.w3.org/2000/svg">
<path fill-rule="evenodd" clip-rule="evenodd" d="M4.25 9C4.25 4.71979 7.71979 1.25 12 1.25C16.2802 1.25 19.75 4.71979 19.75 9V11.7502C19.75 12.8548 18.8544 13.75 17.75 13.75C17.748 13.75 17.746 13.75 17.744 13.75L17.7429 13.7579C17.7302 13.8496 17.7006 13.9381 17.6556 14.019L12.6556 23.019C12.5233 23.2571 12.2724 23.4048 12 23.4048C11.7276 23.4048 11.4767 23.2571 11.3444 23.019L6.34439 14.019C6.29943 13.9381 6.26985 13.8496 6.25712 13.7579L6.25603 13.75C6.25402 13.75 6.25201 13.75 6.25 13.75C5.14555 13.75 4.25 12.8548 4.25 11.7502V9ZM7.68604 13.142L7.72364 13.413L12 21.1105L16.2764 13.413L16.314 13.1421C15.9649 12.782 15.75 12.2911 15.75 11.75V10.5C15.75 10.0858 15.4142 9.75 15 9.75C14.5858 9.75 14.25 10.0858 14.25 10.5V11.5C14.25 12.7426 13.2426 13.75 12 13.75C10.7574 13.75 9.75 12.7426 9.75 11.5V10.5C9.75 10.0858 9.41421 9.75 9 9.75C8.58579 9.75 8.25 10.0858 8.25 10.5V11.75C8.25 12.2911 8.03512 12.782 7.68604 13.142Z" fill="#231F2C"/>
</svg>
