<svg width="24" height="24" viewBox="0 0 24 24" fill="none" xmlns="http://www.w3.org/2000/svg">
<path d="M8.67082 1.66463C8.48558 1.29415 8.03507 1.14398 7.66459 1.32922C7.29411 1.51446 7.14394 1.96497 7.32918 2.33545L7.69672 3.07054C7.93005 3.53719 7.83859 4.10079 7.46967 4.46971C6.64421 5.29517 6.43957 6.55623 6.96163 7.60036L7.32918 8.33545C7.51442 8.70594 7.96493 8.8561 8.33541 8.67086C8.70589 8.48562 8.85606 8.03512 8.67082 7.66463L8.30328 6.92954C8.06995 6.46289 8.16141 5.89929 8.53033 5.53037C9.35579 4.70491 9.56043 3.44386 9.03836 2.39972L8.67082 1.66463Z" fill="#231F2C"/>
<path d="M12.6708 1.66463C12.4856 1.29415 12.0351 1.14398 11.6646 1.32922C11.2941 1.51446 11.1439 1.96497 11.3292 2.33545L11.6967 3.07054C11.93 3.53719 11.8386 4.10079 11.4697 4.46971C10.6442 5.29517 10.4396 6.55623 10.9616 7.60036L11.3292 8.33545C11.5144 8.70594 11.9649 8.8561 12.3354 8.67086C12.7059 8.48562 12.8561 8.03512 12.6708 7.66463L12.3033 6.92954C12.07 6.46289 12.1614 5.89929 12.5303 5.53037C13.3558 4.70491 13.5604 3.44386 13.0384 2.39972L12.6708 1.66463Z" fill="#231F2C"/>
<path d="M16.6708 1.66463C16.4856 1.29415 16.0351 1.14398 15.6646 1.32922C15.2941 1.51446 15.1439 1.96497 15.3292 2.33545L15.6967 3.07054C15.93 3.53719 15.8386 4.10079 15.4697 4.46971C14.6442 5.29517 14.4396 6.55623 14.9616 7.60036L15.3292 8.33545C15.5144 8.70594 15.9649 8.8561 16.3354 8.67086C16.7059 8.48562 16.8561 8.03512 16.6708 7.66463L16.3033 6.92954C16.07 6.46289 16.1614 5.89929 16.5303 5.53037C17.3558 4.70491 17.5604 3.44386 17.0384 2.39972L16.6708 1.66463Z" fill="#231F2C"/>
<path fill-rule="evenodd" clip-rule="evenodd" d="M12 10.25C9.46684 10.25 7.14614 10.5344 5.43531 11.0096C4.58516 11.2458 3.84282 11.5406 3.29556 11.9C2.77883 12.2394 2.25 12.7642 2.25 13.5C2.25 13.6476 2.27127 13.7867 2.30944 13.9175C2.30349 13.9714 2.30335 14.0267 2.3095 14.0824C2.84849 18.9581 6.98093 22.7499 12 22.7499C16.7613 22.7499 21.1623 18.8611 21.6906 14.0824C21.6967 14.0266 21.6966 13.9713 21.6906 13.9173C21.7287 13.7866 21.75 13.6475 21.75 13.5C21.75 12.7642 21.2212 12.2394 20.7044 11.9C20.1572 11.5406 19.4148 11.2458 18.5647 11.0096C16.8539 10.5344 14.5332 10.25 12 10.25ZM4.11897 13.8463C3.82795 13.6551 3.76553 13.5327 3.75279 13.5C3.76553 13.4674 3.82795 13.345 4.11897 13.1538C4.48256 12.915 5.05823 12.6712 5.83677 12.4549C7.3833 12.0253 9.5626 11.75 12 11.75C14.4374 11.75 16.6167 12.0253 18.1632 12.4549C18.9418 12.6712 19.5174 12.915 19.881 13.1538C20.1721 13.345 20.2345 13.4674 20.2472 13.5C20.2345 13.5327 20.1721 13.6551 19.881 13.8463C19.5174 14.085 18.9418 14.3289 18.1632 14.5452C16.6167 14.9748 14.4374 15.25 12 15.25C9.5626 15.25 7.3833 14.9748 5.83677 14.5452C5.05823 14.3289 4.48256 14.085 4.11897 13.8463Z" fill="#231F2C"/>
</svg>
