<svg width="24" height="24" viewBox="0 0 24 24" fill="none" xmlns="http://www.w3.org/2000/svg">
<path fill-rule="evenodd" clip-rule="evenodd" d="M7.25 5C7.25 3.48122 8.48122 2.25 10 2.25C10.788 2.25 11.4986 2.58144 12 3.11253C12.5014 2.58144 13.212 2.25 14 2.25C15.5188 2.25 16.75 3.48122 16.75 5C16.75 5.45011 16.6419 5.87497 16.4501 6.25H19C20.5188 6.25 21.75 7.48122 21.75 9V10.25C21.75 10.8023 21.3023 11.25 20.75 11.25H12.75V8C12.75 7.58579 12.4142 7.25 12 7.25C11.5858 7.25 11.25 7.58579 11.25 8V11.25H3.25C2.69772 11.25 2.25 10.8023 2.25 10.25V9C2.25 7.48122 3.48122 6.25 5 6.25H7.54985C7.35814 5.87497 7.25 5.45011 7.25 5ZM15.25 5C15.25 5.69036 14.6904 6.25 14 6.25H12.75V5C12.75 4.30964 13.3096 3.75 14 3.75C14.6904 3.75 15.25 4.30964 15.25 5ZM11.25 5V6.25H10C9.30964 6.25 8.75 5.69036 8.75 5C8.75 4.30964 9.30964 3.75 10 3.75C10.6904 3.75 11.25 4.30964 11.25 5Z" fill="#231F2C"/>
<path d="M4.25932 12.75C3.7563 12.75 3.32864 13.1236 3.29408 13.6254C3.26595 14.0339 3.25 14.4872 3.25 15C3.25 17.0829 3.51627 18.1836 3.76816 19.2247C3.81252 19.4081 3.85644 19.5896 3.89837 19.7744C4.17391 20.9881 5.26502 21.75 6.44152 21.75H11.25V12.75L4.25932 12.75Z" fill="#231F2C"/>
<path d="M12.75 21.75H17.5585C18.735 21.75 19.8261 20.9881 20.1016 19.7744C20.1439 19.5881 20.188 19.4055 20.2325 19.2215C20.4859 18.1723 20.75 17.0789 20.75 15C20.75 14.4585 20.7357 14.01 20.7104 13.6213C20.6779 13.1211 20.251 12.75 19.7497 12.75L12.75 12.75V21.75Z" fill="#231F2C"/>
</svg>
