<svg width="24" height="24" viewBox="0 0 24 24" fill="none" xmlns="http://www.w3.org/2000/svg">
<path d="M12.2093 2.25C6.70446 2.25 2.25 6.57872 2.25 12C2.25 17.4213 6.70446 21.75 12.2093 21.75C17.5553 21.75 21.75 17.3958 21.75 12C21.75 11.3952 21.6556 10.7629 21.5206 10.1913C21.4407 9.85277 21.1385 9.61364 20.7907 9.61364H12.2093C11.7951 9.61364 11.4593 9.94942 11.4593 10.3636V13.8409C11.4593 14.2551 11.7951 14.5909 12.2093 14.5909H16.0971C15.4582 15.8261 14.0905 16.5682 12.2093 16.5682C9.59321 16.5682 7.51744 14.5151 7.51744 12C7.51744 9.48492 9.59321 7.43182 12.2093 7.43182C13.3293 7.43182 14.3377 7.81916 15.1316 8.45395C15.4275 8.69051 15.8533 8.66933 16.1242 8.40457L18.8033 5.78639C18.954 5.63906 19.0358 5.43508 19.0286 5.22441C19.0214 5.01373 18.9259 4.81581 18.7655 4.6791C17.0063 3.18037 14.7434 2.25 12.2093 2.25Z" fill="#231F2C"/>
</svg>
