<svg width="24" height="24" viewBox="0 0 24 24" fill="none" xmlns="http://www.w3.org/2000/svg">
<path fill-rule="evenodd" clip-rule="evenodd" d="M3.52845 3.62868C3.69201 2.85117 4.36105 2.25 5.18646 2.25H18.8136C19.639 2.25 20.308 2.85117 20.4716 3.62868L21.6881 9.41175C21.9098 10.4655 21.5124 11.523 20.75 12.1572V19C20.75 20.5188 19.5188 21.75 18 21.75H6C4.48122 21.75 3.25 20.5188 3.25 19V12.1572C2.48758 11.523 2.09027 10.4655 2.31193 9.41175L3.52845 3.62868ZM4.89401 11.25H5.57243C6.1209 11.25 6.63833 10.8066 6.7082 10.1424L7.38054 3.75H5.18646C5.12451 3.75 5.02526 3.79989 4.99633 3.93746L3.77981 9.72053C3.60444 10.5542 4.20969 11.25 4.89401 11.25ZM9.38219 11.25H10.1068C10.6999 11.25 11.25 10.7297 11.25 10V3.75H8.88882L8.24643 9.85759C8.16362 10.6449 8.74342 11.25 9.38219 11.25ZM13.8932 11.25H14.6178C15.2564 11.25 15.836 10.6452 15.7537 9.85834L15.1112 3.75H12.75V10C12.75 10.7297 13.3001 11.25 13.8932 11.25ZM18.4276 11.25H19.106C19.7903 11.25 20.3956 10.5542 20.2202 9.72053L19.0037 3.93746C18.9748 3.79989 18.8755 3.75 18.8136 3.75H16.6195L17.2918 10.1424C17.3617 10.8066 17.8791 11.25 18.4276 11.25Z" fill="#231F2C"/>
</svg>
