<svg width="24" height="24" viewBox="0 0 24 24" fill="none" xmlns="http://www.w3.org/2000/svg">
<path d="M8.75 9C8.75 8.30964 9.30964 7.75 10 7.75C10.6904 7.75 11.25 8.30964 11.25 9V10C11.25 10.6904 10.6904 11.25 10 11.25C9.30964 11.25 8.75 10.6904 8.75 10V9Z" fill="#231F2C"/>
<path fill-rule="evenodd" clip-rule="evenodd" d="M3.25 5C3.25 3.48122 4.48122 2.25 6 2.25H19C20.5188 2.25 21.75 3.48122 21.75 5V19C21.75 20.5188 20.5188 21.75 19 21.75H6C4.48122 21.75 3.25 20.5188 3.25 19V16.75H5C5.41421 16.75 5.75 16.4142 5.75 16C5.75 15.5858 5.41421 15.25 5 15.25H3.25V12.75H5C5.41421 12.75 5.75 12.4142 5.75 12C5.75 11.5858 5.41421 11.25 5 11.25H3.25V8.75H5C5.41421 8.75 5.75 8.41421 5.75 8C5.75 7.58579 5.41421 7.25 5 7.25H3.25V5ZM10 6.25C8.48122 6.25 7.25 7.48122 7.25 9V10C7.25 11.2588 8.09575 12.32 9.25 12.6465V18C9.25 18.4142 9.58579 18.75 10 18.75C10.4142 18.75 10.75 18.4142 10.75 18V12.6465C11.9043 12.32 12.75 11.2588 12.75 10V9C12.75 7.48122 11.5188 6.25 10 6.25ZM15.25 7C15.25 6.58579 14.9142 6.25 14.5 6.25C14.0858 6.25 13.75 6.58579 13.75 7V10.5C13.75 11.4797 14.3761 12.3131 15.25 12.622V18C15.25 18.4142 15.5858 18.75 16 18.75C16.4142 18.75 16.75 18.4142 16.75 18V12.622C17.6239 12.3131 18.25 11.4797 18.25 10.5V7C18.25 6.58579 17.9142 6.25 17.5 6.25C17.0858 6.25 16.75 6.58579 16.75 7V10.5C16.75 10.9142 16.4142 11.25 16 11.25C15.5858 11.25 15.25 10.9142 15.25 10.5V7Z" fill="#231F2C"/>
</svg>
