<svg width="24" height="24" viewBox="0 0 24 24" fill="none" xmlns="http://www.w3.org/2000/svg">
<path fill-rule="evenodd" clip-rule="evenodd" d="M2.25 5C2.25 3.48122 3.48122 2.25 5 2.25H19C20.5188 2.25 21.75 3.48122 21.75 5V15C21.75 16.5188 20.5188 17.75 19 17.75H15.2135L16.6708 20.6646C16.8561 21.0351 16.7059 21.4856 16.3354 21.6708C15.9649 21.8561 15.5144 21.7059 15.3292 21.3354L13.5365 17.75H10.4635L8.67082 21.3354C8.48558 21.7059 8.03507 21.8561 7.66459 21.6708C7.29411 21.4856 7.14394 21.0351 7.32918 20.6646L8.78647 17.75H5C3.48122 17.75 2.25 16.5188 2.25 15V5ZM18.5857 6.46855C18.8444 6.1451 18.792 5.67313 18.4685 5.41438C18.1451 5.15562 17.6731 5.20806 17.4144 5.53151L13.9194 9.90024C13.8457 9.99229 13.7178 10.0204 13.6124 9.96767L11.0585 8.69074C10.3204 8.32171 9.42486 8.51841 8.90936 9.16277L5.41438 13.5315C5.15562 13.855 5.20806 14.3269 5.53151 14.5857C5.85495 14.8444 6.32692 14.792 6.58568 14.4685L10.0807 10.0998C10.1543 10.0078 10.2822 9.97966 10.3877 10.0324L12.9415 11.3093C13.6796 11.6784 14.5752 11.4816 15.0907 10.8373L18.5857 6.46855Z" fill="#231F2C"/>
</svg>
