<svg width="24" height="24" viewBox="0 0 24 24" fill="none" xmlns="http://www.w3.org/2000/svg">
<path d="M11.9753 14.0185C13.0764 14.0185 13.9691 13.1259 13.9691 12.0247C13.9691 10.9235 13.0764 10.0309 11.9753 10.0309C10.8741 10.0309 9.98145 10.9235 9.98145 12.0247C9.98145 13.1259 10.8741 14.0185 11.9753 14.0185Z" fill="#231F2C"/>
<path fill-rule="evenodd" clip-rule="evenodd" d="M12 1.25C6.06294 1.25 1.25 6.06294 1.25 12C1.25 17.9393 6.08802 22.75 12.0228 22.75C18.1295 22.75 22.75 17.9329 22.75 12.1272C22.75 6.20253 17.9493 1.25 12 1.25ZM15.2357 6.62779C16.6545 6.10434 18.0245 7.50556 17.4692 8.9122L15.7901 13.1655C15.3048 14.3949 14.3292 15.3665 13.0978 15.8467L8.8893 17.4881C7.48686 18.035 6.09406 16.6735 6.60902 15.259L8.14706 11.0343C8.62485 9.72192 9.65603 8.68631 10.9664 8.20288L15.2357 6.62779Z" fill="#231F2C"/>
</svg>
