<svg width="24" height="24" viewBox="0 0 24 24" fill="none" xmlns="http://www.w3.org/2000/svg">
<path fill-rule="evenodd" clip-rule="evenodd" d="M4.33984 3.89054C6.94732 1.54655 10.983 1.73714 13.3585 4.31622C15.0032 6.10204 15.4216 8.56586 14.6601 10.693L21.1105 17.6964C22.0227 18.6868 21.9504 20.2231 20.949 21.1233C19.953 22.0187 18.4137 21.946 17.5063 20.9608L16.8691 20.269L15.7529 21.2724C15.4538 21.5412 14.996 21.5263 14.715 21.2387L11.9635 18.4221C11.8203 18.2755 11.7433 18.0768 11.7505 17.872C11.7576 17.6672 11.8481 17.4743 12.0011 17.338L13.1923 16.2769L11.3647 14.2927C8.89562 15.4432 5.85631 14.9299 3.91881 12.8263C1.5386 10.242 1.7271 6.23925 4.33984 3.89054ZM10.8576 6.5644C9.74049 5.35155 7.84455 5.26198 6.61828 6.36433C5.38675 7.47142 5.29784 9.36012 6.41971 10.5782C7.53678 11.791 9.43272 11.8806 10.659 10.7782C11.8905 9.67116 11.9794 7.78246 10.8576 6.5644Z" fill="#231F2C"/>
</svg>
