<svg width="24" height="24" viewBox="0 0 24 24" fill="none" xmlns="http://www.w3.org/2000/svg">
<path d="M3.76416 5.40653C3.57515 5.21752 3.25196 5.3471 3.25204 5.61441C3.25271 7.79357 3.25493 14.4176 3.25834 18.5095C3.25856 18.7766 3.58153 18.9072 3.77042 18.7183L10.4232 12.0656L3.76416 5.40653Z" fill="#231F2C"/>
<path d="M4.18961 20.4205C4.00743 20.6026 3.99074 20.8976 4.1851 21.0668C5.02311 21.7961 6.2853 22.0112 7.37973 21.3731L14.6211 17.1507C14.9043 16.9855 14.9546 16.597 14.7228 16.3652L11.4838 13.1262L4.18961 20.4205Z" fill="#231F2C"/>
<path d="M16.14 15.6611C16.3648 15.8859 16.7129 15.9309 16.9875 15.7708L19.3874 14.3714C21.2042 13.3121 21.2042 10.6879 19.3874 9.62854L17.0704 8.27751C16.7957 8.11735 16.4476 8.16242 16.2228 8.38724L12.5445 12.0656L16.14 15.6611Z" fill="#231F2C"/>
<path d="M14.7039 6.89763C14.9872 7.06278 15.0375 7.45127 14.8056 7.68312L11.4838 11.0049L4.12058 3.64163C3.94302 3.46407 3.9217 3.17829 4.10452 3.00615C4.94064 2.21885 6.24962 1.96794 7.37973 2.6269L14.7039 6.89763Z" fill="#231F2C"/>
</svg>
