<svg width="24" height="24" viewBox="0 0 24 24" fill="none" xmlns="http://www.w3.org/2000/svg">
<path d="M15.6371 21.9773C16.2398 21.9625 16.8026 21.702 17.3279 21.1934C18.3359 20.2715 19.1601 18.8546 19.6647 17.5861C19.7831 17.2898 19.8945 16.9811 20 16.6589C19.5134 16.4441 19.0761 16.1417 18.6845 15.7503C17.8203 14.9071 17.3806 13.8452 17.3677 12.5691C17.3537 10.9307 18.0607 9.6536 19.49 8.74177C18.6915 7.54675 17.4908 6.88343 15.8927 6.74764C15.3029 6.69492 14.583 6.82874 13.73 7.15194C12.828 7.50045 12.2959 7.67526 12.1389 7.67526C11.9289 7.67526 11.45 7.52576 10.704 7.23095C9.95597 6.93714 9.35401 6.78763 8.89497 6.78763C8.05605 6.80233 7.27703 7.03195 6.55606 7.48255C5.83509 7.93316 5.25904 8.54696 4.82603 9.32509C4.27507 10.2938 4 11.4498 4 12.7902C4 13.9603 4.20402 15.1689 4.61099 16.417C4.991 17.5725 5.47607 18.586 6.06607 19.4601C6.61598 20.2786 7.07501 20.8563 7.44201 21.1934C8.017 21.7563 8.59305 22.0242 9.17098 21.9983C9.55099 21.9847 10.048 21.8477 10.665 21.5847C11.281 21.323 11.857 21.1934 12.394 21.1934C12.906 21.1934 13.466 21.323 14.0753 21.5847C14.6827 21.8477 15.2045 21.9773 15.6371 21.9773Z" fill="#231F2C"/>
<path d="M15.9994 2.40011C15.9994 3.40034 15.6523 4.33425 14.9605 5.19867C14.1257 6.22629 13.1159 6.8201 12.0209 6.7264C12.007 6.60641 11.9989 6.48011 11.9989 6.3474C11.9989 5.38718 12.3959 4.35956 13.1009 3.51934C13.4529 3.09392 13.9006 2.74019 14.4434 2.45801C14.9851 2.18005 15.4975 2.02632 15.9794 2C15.9935 2.13371 15.9994 2.26745 15.9994 2.40011Z" fill="#231F2C"/>
</svg>
