<svg width="24" height="24" viewBox="0 0 24 24" fill="none" xmlns="http://www.w3.org/2000/svg">
<path d="M10.5467 1.45291C10.7785 1.23562 11.122 1.18789 11.4042 1.33377C16.0874 3.75472 18.0487 9.81801 15.4282 14.3054C16.262 13.8401 17.0853 13.0466 17.5536 11.6261C17.6488 11.3376 17.9086 11.1349 18.2117 11.1129C18.5147 11.091 18.8011 11.254 18.9369 11.5258C19.4575 12.568 19.75 13.7434 19.75 14.985C19.75 19.2652 16.2802 22.735 12 22.735C7.71982 22.735 4.25 19.2652 4.25 14.985C4.25 12.4765 5.44258 10.2464 7.28861 8.83111L8.11354 8.22213C8.83192 7.68201 9.62337 7.19277 10.1799 6.4744C10.9113 5.53022 11.0252 4.38368 10.7158 3.2557C10.6571 3.04144 10.5818 2.81556 10.4879 2.57733L10.3473 2.23452C10.2984 2.08609 10.298 1.92873 10.3416 1.78371C10.3788 1.66007 10.4481 1.5454 10.5467 1.45291Z" fill="#231F2C"/>
</svg>
