<svg width="24" height="24" viewBox="0 0 24 24" fill="none" xmlns="http://www.w3.org/2000/svg">
<path fill-rule="evenodd" clip-rule="evenodd" d="M8.19967 2.25C7.18471 2.25 6.25227 2.80905 5.77405 3.70428L2.59742 9.65103C2.58455 9.67513 2.57312 9.69962 2.56312 9.72439C2.36313 10.1056 2.25 10.5396 2.25 11V19C2.25 20.5188 3.48122 21.75 5 21.75H19C20.5188 21.75 21.75 20.5188 21.75 19V11C21.75 10.5364 21.6353 10.0997 21.4328 9.71654C21.4224 9.69045 21.4104 9.66467 21.3969 9.63931L18.2265 3.70428C17.7483 2.80905 16.8159 2.25 15.8009 2.25H8.19967ZM11.2505 3.75H8.19967C7.73832 3.75 7.31449 4.00411 7.09712 4.41104L5.04642 8.25H11.2505V3.75ZM12.7505 8.25V3.75H15.8009C16.2622 3.75 16.6861 4.00411 16.9035 4.41104L18.9542 8.25H12.7505ZM12.25 18C12.25 17.5858 12.5858 17.25 13 17.25H17C17.4142 17.25 17.75 17.5858 17.75 18C17.75 18.4142 17.4142 18.75 17 18.75H13C12.5858 18.75 12.25 18.4142 12.25 18Z" fill="#231F2C"/>
</svg>
