<svg width="24" height="24" viewBox="0 0 24 24" fill="none" xmlns="http://www.w3.org/2000/svg">
<path fill-rule="evenodd" clip-rule="evenodd" d="M14.7999 2.27716C15.1248 2.18717 15.4698 2.32501 15.6433 2.61408L17.7345 6.09961C18.4343 7.26602 17.5941 8.74994 16.2338 8.74994H15.7501V10.9999C15.7501 11.4142 15.4143 11.7499 15.0001 11.7499C14.5859 11.7499 14.2501 11.4142 14.2501 10.9999V2.99994C14.2501 2.66283 14.4751 2.36714 14.7999 2.27716ZM15.7501 7.24994H16.2338C16.4282 7.24994 16.5482 7.03795 16.4482 6.87132L15.7501 5.70778V7.24994Z" fill="#231F2C"/>
<path d="M8.00013 2.24994C8.41434 2.24994 8.75013 2.58573 8.75013 2.99994V5.49994C8.75013 6.1903 9.30977 6.74994 10.0001 6.74994C10.6905 6.74994 11.2501 6.1903 11.2501 5.49994V2.99994C11.2501 2.58573 11.5859 2.24994 12.0001 2.24994C12.4143 2.24994 12.7501 2.58573 12.7501 2.99994V5.49994C12.7501 6.75873 11.9044 7.81998 10.7501 8.14643L10.75 11C10.75 11.4142 10.4142 11.75 9.99997 11.7499C9.58576 11.7499 9.24998 11.4141 9.25 10.9999L9.25011 8.14642C8.09587 7.81995 7.25013 6.75871 7.25013 5.49994V2.99994C7.25013 2.58573 7.58592 2.24994 8.00013 2.24994Z" fill="#231F2C"/>
<path fill-rule="evenodd" clip-rule="evenodd" d="M17.7738 2.87601C17.877 2.47487 18.2859 2.23338 18.6871 2.33662C19.873 2.64186 20.7501 3.71753 20.7501 4.99994V11.9999C20.7501 12.5286 20.601 13.0224 20.3424 13.4416C21.0838 13.7341 21.6798 14.3422 21.9425 15.1304C21.9507 15.1548 21.9576 15.1797 21.9632 15.2048L22.6221 18.1699C23.1831 19.9382 21.8634 21.75 20.0003 21.75H4.00015C2.13702 21.75 0.817366 19.9382 1.3784 18.1699L2.03731 15.2048C2.04291 15.1797 2.04979 15.1548 2.05794 15.1304C2.32064 14.3423 2.91657 13.7342 3.65776 13.4417C3.39919 13.0225 3.25 12.5286 3.25 11.9999V4.99994C3.25 4.0512 3.7311 3.21506 4.45919 2.7219C4.80213 2.48961 5.26846 2.57931 5.50075 2.92226C5.73304 3.26521 5.64334 3.73153 5.30039 3.96382C4.96671 4.18984 4.75 4.5697 4.75 4.99994V11.9999C4.75 12.6903 5.30964 13.2499 6 13.2499H18.0001C18.6905 13.2499 19.2501 12.6903 19.2501 11.9999V4.99994C19.2501 4.41852 18.8525 3.92809 18.3132 3.78928C17.912 3.68603 17.6706 3.27715 17.7738 2.87601ZM10.0002 18.25C9.58603 18.25 9.25024 18.5858 9.25024 19C9.25024 19.4142 9.58603 19.75 10.0002 19.75H14.0002C14.4145 19.75 14.7502 19.4142 14.7502 19C14.7502 18.5858 14.4145 18.25 14.0002 18.25H10.0002Z" fill="#231F2C"/>
</svg>
