<svg width="24" height="24" viewBox="0 0 24 24" fill="none" xmlns="http://www.w3.org/2000/svg">
<path d="M5.68743 11.8004C5.63827 11.5628 5.5734 11.2219 5.50872 10.8015C5.37961 9.96233 5.25 8.79791 5.25 7.5C5.25 6.20465 5.37918 4.9189 5.50658 3.96338C5.5705 3.48399 5.63447 3.08405 5.68266 2.80296C5.70841 2.65275 5.73478 2.50256 5.76453 2.35308C5.82716 2.03995 6.06753 1.84391 6.36031 1.75852C6.41641 1.74216 6.49609 1.72008 6.59935 1.69427C6.80589 1.64263 7.10669 1.57604 7.5017 1.5102C8.29189 1.37851 9.45812 1.25 11 1.25C12.541 1.25 13.5911 1.37836 14.2721 1.51456C14.6128 1.58271 14.8618 1.65295 15.034 1.71036C15.1202 1.73907 15.1871 1.76458 15.2367 1.78501C15.2842 1.80457 15.3297 1.82749 15.3755 1.85073C15.7088 2.04312 15.8443 2.46035 15.681 2.81429L13.1722 8.25H18C18.2247 8.25 18.4376 8.35074 18.58 8.52451C18.7225 8.69827 18.7795 8.92676 18.7354 9.14709C17.7114 14.2671 14.0169 19.0437 10.5303 22.5303C10.311 22.7497 9.97928 22.8113 9.69577 22.6855C9.41226 22.5597 9.23545 22.2723 9.25094 21.9625L9.71156 12.75H6.5C6.15585 12.75 5.8558 12.5155 5.77234 12.1817C5.74093 12.0553 5.7138 11.9279 5.68743 11.8004Z" fill="#231F2C"/>
</svg>
