<svg width="24" height="24" viewBox="0 0 24 24" fill="none" xmlns="http://www.w3.org/2000/svg">
<path fill-rule="evenodd" clip-rule="evenodd" d="M4.81339 4.04574C5.21271 2.96649 6.24177 2.25 7.39252 2.25H16.6075C17.7582 2.25 18.7873 2.96649 19.1866 4.04573L20.9234 8.73974L20.9301 8.75858C21.0028 8.91667 21.0605 9.08498 21.1009 9.26242C21.3915 10.5379 21.75 12.5098 21.75 14.5C21.75 16.2499 21.4808 18.07 21.1009 19.7376C20.8222 20.9608 19.7236 21.75 18.5229 21.75H5.47715C4.27638 21.75 3.17775 20.9608 2.89908 19.7376C2.60852 18.4621 2.25 16.4902 2.25 14.5C2.25 12.5098 2.60852 10.5379 2.89908 9.26242C2.93952 9.0849 2.99723 8.91651 3.07002 8.75836L3.07663 8.73975L4.81339 4.04574ZM5.22283 7.26184C5.30691 7.25399 5.39177 7.25 5.47715 7.25H18.5229C18.6082 7.25 18.6931 7.25399 18.7772 7.26184L17.7798 4.56624C17.5983 4.07568 17.1306 3.75 16.6075 3.75H7.39252C6.86945 3.75 6.40169 4.07568 6.22019 4.56624L5.22283 7.26184ZM7 10.25C6.58579 10.25 6.25 10.5858 6.25 11C6.25 11.4142 6.58579 11.75 7 11.75H17C17.4142 11.75 17.75 11.4142 17.75 11C17.75 10.5858 17.4142 10.25 17 10.25H7Z" fill="#231F2C"/>
</svg>
