<svg width="24" height="24" viewBox="0 0 24 24" fill="none" xmlns="http://www.w3.org/2000/svg">
<path d="M10.3015 2.25C8.78821 2.25 7.82858 3.88289 8.58731 5.20174L9.73003 7.18805L6.05027 13.4631H4.24121C3.14459 13.4631 2.25 14.3491 2.25 15.4489C2.25 16.5487 3.14458 17.4347 4.2412 17.4347H11.2573C12.641 17.4347 13.5135 15.9341 12.8068 14.7341C12.3581 13.9722 11.551 13.4958 10.6714 13.4647L15.4605 5.19622C16.2217 3.88203 15.2657 2.25 13.7553 2.25001C13.0568 2.25001 12.4092 2.61926 12.0555 3.22247L12.0303 3.26548L12.0156 3.23995C11.6627 2.62667 11.0083 2.25 10.3015 2.25Z" fill="#231F2C"/>
<path d="M16.4873 11.0308L16.4864 11.0293C15.8472 9.92102 14.2401 9.93115 13.6153 11.0483C13.1026 11.9649 13.1096 13.0825 13.6335 13.9927L17.2598 20.2906L17.2685 20.3053L17.5493 20.7685C17.9034 21.3768 18.555 21.75 19.2585 21.75C20.7718 21.75 21.7314 20.117 20.9725 18.7981L20.1643 17.3937C21.0684 17.2077 21.7515 16.4099 21.7515 15.4489C21.7515 14.3491 20.8569 13.4631 19.7603 13.4631L17.9005 13.4631L16.4873 11.0308Z" fill="#231F2C"/>
<path d="M3.71236 18.3225C3.45113 18.3225 3.20872 18.4584 3.07246 18.6813C2.27393 19.9875 3.22188 21.6505 4.7442 21.6505H4.78413C5.49141 21.6505 6.14617 21.2742 6.50012 20.6614L7.21996 19.4574C7.35851 19.2256 7.3618 18.9373 7.22859 18.7025C7.09538 18.4676 6.84622 18.3225 6.57623 18.3225H3.71236Z" fill="#231F2C"/>
</svg>
