<svg width="24" height="24" viewBox="0 0 24 24" fill="none" xmlns="http://www.w3.org/2000/svg">
<path fill-rule="evenodd" clip-rule="evenodd" d="M7.24976 7V7.25H6.0252C4.98683 7.25 4.01627 7.86627 3.63603 8.89369C3.18373 10.1158 2.54335 12.1677 2.34679 14.4352C2.24476 15.6122 2.23418 16.7311 2.26574 17.7028C2.3429 20.0785 4.31795 21.75 6.55917 21.75H17.4967C19.7599 21.75 21.761 20.038 21.75 17.6192C21.7454 16.6159 21.6901 15.8118 21.6353 15.2547C21.6079 14.976 21.5806 14.759 21.5598 14.6095C21.5494 14.5348 21.5406 14.4769 21.5343 14.4366L21.5266 14.3895L21.5259 14.3853C21.2349 12.2919 20.7633 10.3806 20.4238 9.15961C20.1042 8.00984 19.0697 7.25 17.911 7.25H16.7498V7C16.7498 4.37665 14.6231 2.25 11.9998 2.25C9.3764 2.25 7.24976 4.37665 7.24976 7ZM11.9998 3.75C10.2048 3.75 8.74976 5.20507 8.74976 7V7.25H15.2498V7C15.2498 5.20507 13.7947 3.75 11.9998 3.75ZM8.75 10C8.75 9.58579 8.41421 9.25 8 9.25C7.58579 9.25 7.25 9.58579 7.25 10V11C7.25 11.4142 7.58579 11.75 8 11.75C8.41421 11.75 8.75 11.4142 8.75 11V10ZM16.75 10C16.75 9.58579 16.4142 9.25 16 9.25C15.5858 9.25 15.25 9.58579 15.25 10V11C15.25 11.4142 15.5858 11.75 16 11.75C16.4142 11.75 16.75 11.4142 16.75 11V10Z" fill="#231F2C"/>
</svg>
