<svg width="24" height="24" viewBox="0 0 24 24" fill="none" xmlns="http://www.w3.org/2000/svg">
<path fill-rule="evenodd" clip-rule="evenodd" d="M1.89837 6.22563C2.17391 5.01194 3.26502 4.25 4.44152 4.25H19.5585C20.735 4.25 21.8261 5.01194 22.1016 6.22563C22.395 7.51776 22.75 9.57982 22.75 12C22.75 13.9219 22.5262 15.9041 22.1016 17.7744C21.8261 18.9881 20.735 19.75 19.5585 19.75H4.44152C3.26502 19.75 2.17391 18.9881 1.89837 17.7744C1.60503 16.4822 1.25 14.4202 1.25 12C1.25 9.57982 1.60503 7.51776 1.89837 6.22563ZM3.79929 8.83634C3.43275 8.64342 2.97921 8.78417 2.78629 9.15072C2.59337 9.51726 2.73413 9.9708 3.10067 10.1637L6.83752 12.1305L3.2387 16.5248C2.97626 16.8453 3.02329 17.3178 3.34375 17.5803C3.66421 17.8427 4.13675 17.7957 4.39919 17.4752L8.19237 12.8436L9.78768 13.6832C11.1725 14.412 12.8275 14.4121 14.2123 13.6832L15.8076 12.8436L19.6008 17.4752C19.8632 17.7957 20.3358 17.8427 20.6562 17.5803C20.9767 17.3178 21.0237 16.8453 20.7613 16.5248L17.1624 12.1305L20.8993 10.1637C21.2658 9.9708 21.4066 9.51726 21.2137 9.15072C21.0207 8.78417 20.5672 8.64342 20.2007 8.83634L15.6645 11.2238C15.6557 11.2282 15.6469 11.2328 15.6382 11.2376L13.5137 12.3558C12.5662 12.8545 11.4338 12.8545 10.4863 12.3558L8.36176 11.2376C8.35306 11.2328 8.34428 11.2282 8.33544 11.2238L3.79929 8.83634Z" fill="#231F2C"/>
</svg>
