<svg width="24" height="24" viewBox="0 0 24 24" fill="none" xmlns="http://www.w3.org/2000/svg">
<path d="M9.19838 3.18166C10.0812 2.90146 11.0222 2.75 12 2.75C15.6145 2.75 18.7461 4.82298 20.2684 7.84833C20.8962 9.09595 21.25 10.5056 21.25 12C21.25 13.4495 20.9171 14.8191 20.3244 16.0385C20.0687 16.5644 19.7646 17.0626 19.4177 17.5273C19.1699 17.8593 19.2381 18.3292 19.5701 18.577C19.902 18.8248 20.372 18.7566 20.6197 18.4246C21.0226 17.8849 21.3761 17.3059 21.6734 16.6943C22.3634 15.275 22.75 13.6816 22.75 12C22.75 10.2661 22.339 8.62613 21.6083 7.1741C19.8412 3.66212 16.2029 1.25 12 1.25C10.8664 1.25 9.77242 1.42572 8.74459 1.75195C4.39975 3.13099 1.25 7.19668 1.25 12C1.25 12.18 1.25443 12.359 1.26319 12.5369C1.54327 18.2248 6.24296 22.75 12 22.75C14.432 22.75 16.6774 21.9415 18.479 20.5789C18.8093 20.329 18.8746 19.8587 18.6247 19.5283C18.3749 19.1979 17.9045 19.1327 17.5741 19.3825C16.024 20.5549 14.0943 21.25 12 21.25C7.04667 21.25 3.00232 17.3563 2.76137 12.4631C2.75382 12.3098 2.75 12.1554 2.75 12C2.75 7.86903 5.45847 4.3687 9.19838 3.18166Z" fill="#231F2C"/>
<path d="M6.40161 8.34631V9.61407H8.62817V15.619H10.1481V9.61407H12.3746V8.34631H6.40161Z" fill="#231F2C"/>
<path d="M16.0856 10.1645V13.2966C16.0879 13.5404 16.0394 13.7452 15.94 13.9109C15.8429 14.0767 15.7151 14.2021 15.5564 14.2874C15.3978 14.3702 15.2274 14.4117 15.0451 14.4117C14.7586 14.4117 14.5302 14.3181 14.3597 14.1311C14.1893 13.9441 14.1028 13.6896 14.1005 13.3676V10.1645H12.5877V13.6375C12.5901 14.0636 12.6682 14.4294 12.8221 14.7348C12.9783 15.0402 13.1949 15.2758 13.4719 15.4415C13.7489 15.6072 14.0697 15.6901 14.4343 15.6901C14.8438 15.6901 15.1907 15.593 15.4748 15.3989C15.7612 15.2047 15.966 14.9479 16.0891 14.6283H16.1459V15.619H17.5983V10.1645H16.0856Z" fill="#231F2C"/>
</svg>
