<svg width="24" height="24" viewBox="0 0 24 24" fill="none" xmlns="http://www.w3.org/2000/svg">
<path fill-rule="evenodd" clip-rule="evenodd" d="M21.4883 2.43078C21.6544 2.57327 21.75 2.78118 21.75 3.00001V10C21.75 10.4142 21.4142 10.75 21 10.75C20.5858 10.75 20.25 10.4142 20.25 10V7.87421L8.75 9.64344V18.5C8.75 20.2949 7.29493 21.75 5.5 21.75C3.70507 21.75 2.25 20.2949 2.25 18.5C2.25 16.7051 3.70507 15.25 5.5 15.25C6.14432 15.25 6.74485 15.4375 7.25 15.7609V5.00001C7.25 4.62983 7.52008 4.31501 7.88596 4.25873L20.886 2.25873C21.1022 2.22545 21.3223 2.2883 21.4883 2.43078ZM7.25 18.5C7.25 17.5335 6.4665 16.75 5.5 16.75C4.5335 16.75 3.75 17.5335 3.75 18.5C3.75 19.4665 4.5335 20.25 5.5 20.25C6.4665 20.25 7.25 19.4665 7.25 18.5ZM8.75 8.1258L20.25 6.35657V3.87421L8.75 5.64344V8.1258ZM21 12.25C21.4142 12.25 21.75 12.5858 21.75 13V16.5C21.75 18.2949 20.2949 19.75 18.5 19.75C16.7051 19.75 15.25 18.2949 15.25 16.5C15.25 14.7051 16.7051 13.25 18.5 13.25C19.1443 13.25 19.7449 13.4375 20.25 13.7609V13C20.25 12.5858 20.5858 12.25 21 12.25ZM20.25 16.5C20.25 15.5335 19.4665 14.75 18.5 14.75C17.5335 14.75 16.75 15.5335 16.75 16.5C16.75 17.4665 17.5335 18.25 18.5 18.25C19.4665 18.25 20.25 17.4665 20.25 16.5Z" fill="#231F2C"/>
</svg>
