<svg width="24" height="24" viewBox="0 0 24 24" fill="none" xmlns="http://www.w3.org/2000/svg">
<path d="M9.19838 3.18166C10.0812 2.90146 11.0222 2.75 12 2.75C15.6145 2.75 18.7461 4.82298 20.2684 7.84833C20.8962 9.09595 21.25 10.5056 21.25 12C21.25 13.4495 20.9171 14.8191 20.3244 16.0385C20.0687 16.5644 19.7646 17.0626 19.4177 17.5273C19.1699 17.8593 19.2381 18.3292 19.5701 18.577C19.902 18.8248 20.372 18.7566 20.6197 18.4246C21.0226 17.8849 21.3761 17.3059 21.6734 16.6943C22.3634 15.275 22.75 13.6816 22.75 12C22.75 10.2661 22.339 8.62613 21.6083 7.1741C19.8412 3.66212 16.2029 1.25 12 1.25C10.8664 1.25 9.77242 1.42572 8.74459 1.75195C4.39975 3.13099 1.25 7.19668 1.25 12C1.25 12.18 1.25443 12.359 1.26319 12.5369C1.54327 18.2248 6.24296 22.75 12 22.75C14.432 22.75 16.6774 21.9415 18.479 20.5789C18.8093 20.329 18.8746 19.8587 18.6247 19.5283C18.3749 19.1979 17.9045 19.1327 17.5741 19.3825C16.024 20.5549 14.0943 21.25 12 21.25C7.04667 21.25 3.00232 17.3563 2.76137 12.4631C2.75382 12.3098 2.75 12.1554 2.75 12C2.75 7.86903 5.45847 4.3687 9.19838 3.18166Z" fill="#231F2C"/>
<path d="M9.92928 9.77032C10.1447 9.92894 10.2666 10.1515 10.295 10.4379H11.7688C11.7617 10.0047 11.6457 9.62354 11.4208 9.29447C11.1958 8.9654 10.881 8.70854 10.4762 8.52388C10.0737 8.33922 9.60257 8.24689 9.0628 8.24689C8.5325 8.24689 8.05901 8.33922 7.64235 8.52388C7.22568 8.70854 6.89779 8.9654 6.65868 9.29447C6.42194 9.62354 6.30475 10.0083 6.30712 10.4486C6.30475 10.986 6.48112 11.4133 6.83624 11.7306C7.19135 12.0478 7.67549 12.281 8.28865 12.4301L9.08056 12.629C9.34571 12.6929 9.56943 12.7639 9.75172 12.8421C9.93638 12.9202 10.0761 13.0149 10.1708 13.1261C10.2678 13.2374 10.3164 13.3747 10.3164 13.5381C10.3164 13.7133 10.2631 13.8683 10.1565 14.0033C10.05 14.1382 9.89968 14.2436 9.70555 14.3193C9.51379 14.3951 9.2877 14.433 9.02729 14.433C8.76214 14.433 8.52421 14.3927 8.31351 14.3122C8.10518 14.2294 7.93827 14.1074 7.8128 13.9465C7.68969 13.7831 7.61985 13.5795 7.60328 13.3357H6.11536C6.12719 13.8589 6.25385 14.298 6.49533 14.6531C6.73917 15.0059 7.07771 15.2722 7.51095 15.4521C7.94656 15.6321 8.45792 15.722 9.04504 15.722C9.6369 15.722 10.1423 15.6333 10.5614 15.4557C10.9828 15.2758 11.3048 15.0236 11.5273 14.6993C11.7522 14.3726 11.8658 13.9867 11.8682 13.5416C11.8658 13.2386 11.8102 12.9699 11.7013 12.7355C11.5948 12.5011 11.4444 12.2976 11.2503 12.1247C11.0562 11.9519 10.8265 11.8063 10.5614 11.6879C10.2962 11.5696 10.005 11.4749 9.6878 11.4038L9.03439 11.2476C8.87577 11.2121 8.72663 11.1695 8.58695 11.1198C8.44727 11.0677 8.32416 11.0073 8.21763 10.9386C8.1111 10.8676 8.02705 10.7836 7.9655 10.6865C7.90631 10.5895 7.87909 10.4758 7.88382 10.3456C7.88382 10.1894 7.9288 10.0497 8.01877 9.92657C8.1111 9.80347 8.24367 9.70759 8.41649 9.63893C8.58931 9.56791 8.8012 9.5324 9.05215 9.5324C9.42146 9.5324 9.71384 9.61171 9.92928 9.77032Z" fill="#231F2C"/>
<path d="M17.8847 10.1645H16.3719V13.2966C16.3743 13.5404 16.3258 13.7452 16.2263 13.911C16.1293 14.0767 16.0014 14.2021 15.8428 14.2874C15.6842 14.3702 15.5137 14.4117 15.3314 14.4117C15.045 14.4117 14.8165 14.3181 14.6461 14.1311C14.4756 13.9441 14.3892 13.6896 14.3868 13.3676V10.1645H12.8741V13.6375C12.8764 14.0637 12.9545 14.4294 13.1084 14.7348C13.2647 15.0402 13.4813 15.2758 13.7583 15.4415C14.0353 15.6072 14.3561 15.6901 14.7206 15.6901C15.1302 15.6901 15.477 15.593 15.7611 15.3989C16.0476 15.2047 16.2524 14.9479 16.3755 14.6283H16.4323V15.619H17.8847V10.1645Z" fill="#231F2C"/>
</svg>
