<svg width="24" height="24" viewBox="0 0 24 24" fill="none" xmlns="http://www.w3.org/2000/svg">
<path fill-rule="evenodd" clip-rule="evenodd" d="M15.924 3.82815C15.4228 3.63834 14.8551 3.80226 14.5283 4.2385L13.6936 5.35253L18.0025 6.92176V5.47541C18.0025 4.9546 17.6828 4.49422 17.2092 4.31486L15.924 3.82815ZM19.5025 7.46803V5.47541C19.5025 4.33838 18.8039 3.31482 17.7404 2.91208L16.4553 2.42537C15.3247 1.99723 14.0525 2.37188 13.3279 3.33906L12.2273 4.80782L11.1455 4.39163C10.784 4.25253 10.376 4.41167 10.2041 4.75884L6.266 12.713C6.10213 13.044 6.20361 13.445 6.50519 13.6582L8.16357 14.8306L5.42825 16.2007L3.28094 15.3332C3.02554 15.2301 2.73415 15.2752 2.52193 15.4508C2.3097 15.6264 2.2108 15.9041 2.26431 16.1743L3.24884 21.1457C3.30275 21.4179 3.50257 21.6381 3.7683 21.7182C4.03403 21.7982 4.32222 21.7249 4.51748 21.5277L6.35487 19.6721L12.3688 17.8034L14.4093 19.2459C15.8075 20.2343 17.7464 19.6935 18.4479 18.135L18.8099 17.3307C18.9799 16.953 18.8115 16.509 18.4338 16.339C18.0561 16.169 17.612 16.3374 17.442 16.7151L17.08 17.5194C16.762 18.2261 15.8953 18.4594 15.2751 18.021L7.89489 12.8037L11.245 6.03709L12.2181 6.41146L19.4416 9.04223C20.1085 9.2851 20.4381 10.0584 20.1389 10.7232L18.7905 13.7191C18.6205 14.0969 18.7889 14.5409 19.1666 14.7109C19.5443 14.8809 19.9883 14.7125 20.1583 14.3348L21.5068 11.3388C22.1593 9.88915 21.4515 8.17782 19.9549 7.63279L19.5025 7.46803ZM10.8253 16.7123L6.49052 18.0592L6.33349 17.4249L9.55256 15.8125L10.8253 16.7123ZM4.82534 17.5749L4.00519 17.2436L4.44577 19.4683L5.1244 18.783L4.82534 17.5749ZM13.3376 10.813C12.9431 10.813 12.6108 11.1379 12.6108 11.5544C12.6108 11.9709 12.9431 12.2958 13.3376 12.2958C13.732 12.2958 14.0644 11.9709 14.0644 11.5544C14.0644 11.1379 13.732 10.813 13.3376 10.813ZM11.1108 11.5544C11.1108 10.3235 12.1008 9.31299 13.3376 9.31299C14.5743 9.31299 15.5644 10.3235 15.5644 11.5544C15.5644 12.7853 14.5743 13.7958 13.3376 13.7958C12.1008 13.7958 11.1108 12.7853 11.1108 11.5544Z" fill="#231F2C"/>
</svg>
