<svg width="24" height="24" viewBox="0 0 24 24" fill="none" xmlns="http://www.w3.org/2000/svg">
<path fill-rule="evenodd" clip-rule="evenodd" d="M8.5 3.75C8.08579 3.75 7.75 4.08579 7.75 4.5C7.75 4.91421 8.08579 5.25 8.5 5.25H10.6377C10.5704 5.16086 10.499 5.07036 10.4238 4.98014C9.81876 4.25405 9.13889 3.75 8.5 3.75ZM13.3623 5.25H15.5C15.9142 5.25 16.25 4.91421 16.25 4.5C16.25 4.08579 15.9142 3.75 15.5 3.75C14.8611 3.75 14.1812 4.25405 13.5762 4.98014C13.501 5.07036 13.4296 5.16086 13.3623 5.25ZM14.75 6.75V10.25H20.25V8C20.25 7.30964 19.6904 6.75 19 6.75H14.75ZM20.75 11.75H21C21.4142 11.75 21.75 11.4142 21.75 11V8C21.75 6.48122 20.5188 5.25 19 5.25H17.622C17.7049 5.01542 17.75 4.76298 17.75 4.5C17.75 3.25736 16.7426 2.25 15.5 2.25C14.1389 2.25 13.0688 3.24595 12.4238 4.01986C12.2671 4.20792 12.1254 4.39516 12 4.57194C11.8746 4.39516 11.7329 4.20792 11.5762 4.01986C10.9312 3.24595 9.86111 2.25 8.5 2.25C7.25736 2.25 6.25 3.25736 6.25 4.5C6.25 4.76298 6.29512 5.01542 6.37803 5.25H5C3.48122 5.25 2.25 6.48122 2.25 8V11C2.25 11.4142 2.58579 11.75 3 11.75H3.25V19C3.25 20.5188 4.48122 21.75 6 21.75H18C19.5188 21.75 20.75 20.5188 20.75 19V16.984C20.75 16.5698 20.4142 16.234 20 16.234C19.5858 16.234 19.25 16.5698 19.25 16.984V19C19.25 19.6904 18.6904 20.25 18 20.25H14.75V11.75H19.25V13.992C19.25 14.4062 19.5858 14.742 20 14.742C20.4142 14.742 20.75 14.4062 20.75 13.992V11.75ZM13.25 20.25V6.75H10.75V20.25H13.25ZM9.25 20.25V11.75H4.75V19C4.75 19.6904 5.30964 20.25 6 20.25H9.25ZM9.25 10.25H3.75V8C3.75 7.30964 4.30964 6.75 5 6.75H9.25V10.25Z" fill="#231F2C"/>
</svg>
