<svg width="24" height="24" viewBox="0 0 24 24" fill="none" xmlns="http://www.w3.org/2000/svg">
<path fill-rule="evenodd" clip-rule="evenodd" d="M11.3171 2.31699C9.96809 2.56399 8.93509 3.51999 8.63009 4.79999C8.6053 4.90919 8.5783 5.01788 8.54909 5.12599C8.46068 5.09254 8.37479 5.05277 8.29209 5.00699C7.04609 4.36899 5.62409 4.63699 4.56009 5.70899C4.25737 6.02488 4.00296 6.38376 3.80509 6.77399C3.23209 7.97499 3.33609 9.35599 4.07709 10.367L4.25909 10.616L4.00009 10.737C2.87409 11.266 2.26709 12.282 2.26709 13.633C2.26709 15.027 2.97709 16.342 4.07809 16.987C4.50009 17.235 4.95309 17.37 5.52109 17.417L5.79209 17.44L5.73809 17.628C5.69809 17.769 5.68409 17.956 5.68509 18.367C5.68709 18.879 5.69309 18.936 5.78109 19.2C5.95909 19.739 6.20309 20.131 6.62009 20.553C7.88509 21.829 9.92509 22.113 11.2491 21.199C11.4831 21.037 11.8821 20.654 11.9591 20.517C11.9961 20.452 11.9981 20.452 12.0551 20.533C12.1891 20.724 12.5331 21.053 12.7671 21.211C13.2651 21.548 13.7401 21.697 14.4031 21.723C15.1161 21.752 15.6691 21.632 16.3331 21.305C16.8221 21.065 17.0001 20.844 17.0001 20.477C17.0001 20.283 16.8471 20.005 16.6741 19.885C16.5571 19.804 16.4881 19.783 16.3051 19.773C16.0911 19.761 16.0621 19.768 15.7771 19.911C15.3951 20.103 15.1501 20.185 14.8271 20.23C14.0501 20.337 13.4011 20.002 13.0661 19.321C12.8881 18.959 12.8071 18.619 12.7651 18.054C12.7221 17.481 12.6941 17.367 12.5571 17.211C12.2061 16.811 11.5231 16.917 11.3201 17.404C11.2911 17.473 11.2551 17.73 11.2351 18.004C11.1541 19.128 10.8301 19.771 10.1881 20.082C9.64209 20.347 8.98509 20.299 8.28309 19.941C7.89709 19.745 7.47309 19.333 7.30809 18.997C6.92709 18.216 7.24409 17.391 8.25209 16.548C8.44509 16.386 8.63309 16.204 8.67109 16.143C8.75709 16.003 8.78909 15.686 8.73409 15.519C8.65509 15.279 8.40909 15.073 8.13909 15.022C7.95309 14.986 7.74409 15.058 7.43909 15.261C7.05909 15.516 6.83009 15.643 6.56709 15.746C5.71609 16.082 5.01809 15.959 4.44109 15.374C4.01409 14.94 3.76009 14.293 3.75809 13.633C3.75609 12.741 4.21209 12.136 5.01709 11.964C5.34709 11.893 5.95509 11.918 6.41709 12.02C6.63709 12.069 6.91409 12.115 7.03309 12.122C7.22709 12.134 7.26909 12.125 7.42309 12.035C7.66909 11.892 7.78309 11.69 7.78309 11.4C7.78309 11.224 7.76609 11.154 7.69209 11.027C7.56709 10.816 7.46409 10.75 7.02109 10.602C5.87709 10.217 5.21109 9.64599 4.98209 8.85199C4.93709 8.69599 4.92809 8.57399 4.94209 8.28499C4.97109 7.66999 5.18109 7.21199 5.64709 6.74799C6.08609 6.31199 6.49209 6.14199 7.02109 6.17499C7.74809 6.22099 8.41409 6.82299 8.99909 7.96699C9.10609 8.17699 9.23709 8.38999 9.28909 8.43999C9.43029 8.56511 9.61243 8.6342 9.80109 8.6342C9.98975 8.6342 10.1719 8.56511 10.3131 8.43999C10.5601 8.20799 10.5961 7.88099 10.4211 7.45599C10.3432 7.26222 10.2721 7.06577 10.2081 6.86699C9.78409 5.52899 10.0871 4.43599 11.0051 3.98699C11.3551 3.81599 11.5921 3.76299 12.0001 3.76299C12.4081 3.76299 12.6451 3.81599 12.9951 3.98699C13.6251 4.29499 13.9731 4.90799 13.9781 5.71699C13.9811 6.24999 13.8601 6.77599 13.5791 7.45599C13.4041 7.88099 13.4401 8.20799 13.6871 8.43999C13.8283 8.56511 14.0104 8.6342 14.1991 8.6342C14.3878 8.6342 14.5699 8.56511 14.7111 8.43999C14.7631 8.38999 14.8941 8.17699 15.0011 7.96699C15.2871 7.40799 15.5091 7.08699 15.8321 6.76599C16.0601 6.53899 16.1781 6.45199 16.4101 6.33699C16.6631 6.21099 16.7371 6.18999 16.9791 6.17499C17.5171 6.14199 17.9161 6.31099 18.3671 6.76499C18.6621 7.05999 18.8321 7.33099 18.9711 7.72499C19.0701 8.00399 19.0941 8.58699 19.0181 8.85199C18.7891 9.64599 18.1231 10.217 16.9791 10.602C16.5361 10.75 16.4331 10.816 16.3081 11.027C16.2341 11.154 16.2171 11.224 16.2171 11.4C16.2171 11.69 16.3311 11.892 16.5771 12.035C16.7311 12.125 16.7731 12.134 16.9671 12.122C17.1743 12.1005 17.38 12.0665 17.5831 12.02C18.0451 11.918 18.6531 11.893 18.9831 11.964C19.7871 12.136 20.2421 12.739 20.2411 13.633C20.2411 14.058 20.1621 14.381 19.9611 14.793C19.8651 15.0125 19.7272 15.2112 19.5551 15.378C18.8101 16.133 17.8591 16.115 16.6531 15.322C16.1411 14.986 15.9471 14.944 15.6331 15.102C15.5094 15.1638 15.406 15.2598 15.3351 15.3785C15.2642 15.4972 15.2288 15.6338 15.2331 15.772C15.2331 16.053 15.3231 16.189 15.7301 16.529C16.4161 17.101 16.6871 17.504 16.8651 18.217C16.9911 18.721 17.6911 18.907 18.0781 18.54C18.3031 18.327 18.3571 18.048 18.2561 17.628L18.2101 17.439L18.4801 17.417C19.7491 17.311 20.6961 16.66 21.2951 15.482C21.9031 14.285 21.8781 12.775 21.2331 11.793C20.9308 11.331 20.5031 10.9647 20.0001 10.737L19.7411 10.616L19.9231 10.367C20.9321 8.98999 20.7261 7.00499 19.4401 5.70899C18.3801 4.63999 16.9501 4.37199 15.7081 5.00699C15.6254 5.05277 15.5395 5.09254 15.4511 5.12599C15.4219 5.01788 15.3949 4.90919 15.3701 4.79999C15.0621 3.50399 14.0251 2.55599 12.6541 2.31399C12.3271 2.25699 11.6371 2.25799 11.3171 2.31699ZM11.3701 9.31799C10.6831 9.46699 10.2081 9.72599 9.71709 10.217C9.07309 10.861 8.76709 11.596 8.76709 12.5C8.76709 13.404 9.07309 14.139 9.71709 14.783C10.3611 15.427 11.0961 15.733 12.0001 15.733C12.9041 15.733 13.6391 15.427 14.2831 14.783C14.9271 14.139 15.2331 13.404 15.2331 12.5C15.2331 11.596 14.9271 10.861 14.2831 10.217C13.7891 9.72199 13.3021 9.45899 12.6211 9.31899C12.3111 9.25499 11.6651 9.25399 11.3701 9.31799ZM12.5001 10.822C12.7601 10.894 13.0151 11.048 13.2331 11.267C13.5821 11.615 13.7441 12.006 13.7441 12.5C13.7441 12.994 13.5821 13.385 13.2331 13.733C13.0749 13.8998 12.8833 14.0316 12.6709 14.1196C12.4585 14.2076 12.2299 14.25 12.0001 14.244C11.4191 14.244 10.9411 14.002 10.5851 13.529C10.3654 13.2279 10.248 12.8643 10.2501 12.4915C10.2523 12.1188 10.3739 11.7565 10.5971 11.458C10.8097 11.1684 11.1069 10.9517 11.4476 10.8379C11.7884 10.724 12.156 10.7184 12.5001 10.822Z" fill="#231F2C"/>
</svg>
