<svg width="24" height="24" viewBox="0 0 24 24" fill="none" xmlns="http://www.w3.org/2000/svg">
<path fill-rule="evenodd" clip-rule="evenodd" d="M12 4.75C11.5858 4.75 11.25 5.08579 11.25 5.5C11.25 5.91421 11.5858 6.25 12 6.25C12.4142 6.25 12.75 5.91421 12.75 5.5C12.75 5.08579 12.4142 4.75 12 4.75ZM14.039 6.45267C14.1744 6.16337 14.25 5.84052 14.25 5.5C14.25 4.25736 13.2426 3.25 12 3.25C10.7574 3.25 9.75 4.25736 9.75 5.5C9.75 5.8405 9.82564 6.16333 9.96102 6.45261C8.18003 6.82307 6.68591 7.69209 5.56001 8.98176C4.17376 10.5696 3.39664 12.7356 3.26883 15.25H2C1.7234 15.25 1.46926 15.4022 1.33875 15.6461C1.20823 15.89 1.22254 16.1859 1.37596 16.416L2.1885 17.6348C3.06946 18.9563 4.55256 19.75 6.14074 19.75H17.8593C19.4474 19.75 20.9305 18.9563 21.8115 17.6348L22.624 16.416C22.7775 16.1859 22.7918 15.89 22.6613 15.6461C22.5307 15.4022 22.2766 15.25 22 15.25H20.7312C20.7075 14.7822 20.6613 14.3269 20.593 13.8853C20.5296 13.476 20.1464 13.1955 19.7371 13.2588C19.3277 13.3222 19.0473 13.7053 19.1106 14.1147C19.1671 14.4798 19.2068 14.8585 19.229 15.25H4.77092C4.89667 13.0309 5.58428 11.2348 6.68999 9.96824C7.90729 8.57388 9.69222 7.75 12 7.75C15.0272 7.75 17.1865 9.16692 18.3251 11.5163C18.5057 11.8891 18.9543 12.0448 19.3271 11.8642C19.6998 11.6835 19.8556 11.2349 19.6749 10.8622C18.5545 8.55017 16.6037 6.98633 14.039 6.45267ZM3.40139 16.75L3.43657 16.8028C4.03934 17.7069 5.05409 18.25 6.14074 18.25H17.8593C18.9459 18.25 19.9607 17.7069 20.5634 16.8028L20.5986 16.75H3.40139ZM12.2586 9.96002C12.3213 9.55058 12.7041 9.26949 13.1135 9.33218C14.7126 9.57704 15.993 10.365 16.8027 11.5853C17.0317 11.9305 16.9376 12.3959 16.5924 12.6249C16.2473 12.854 15.7819 12.7598 15.5528 12.4147C14.9994 11.5806 14.1101 11.0023 12.8865 10.8149C12.477 10.7522 12.1959 10.3695 12.2586 9.96002Z" fill="#231F2C"/>
</svg>
