<svg width="24" height="24" viewBox="0 0 24 24" fill="none" xmlns="http://www.w3.org/2000/svg">
<path fill-rule="evenodd" clip-rule="evenodd" d="M12 2.75C6.89137 2.75 2.75 6.89137 2.75 12C2.75 17.1086 6.89137 21.25 12 21.25C15.0255 21.25 17.7114 19.7979 19.4003 17.5495C19.6491 17.2184 20.1193 17.1516 20.4505 17.4003C20.7816 17.6491 20.8484 18.1193 20.5997 18.4505C18.6397 21.0595 15.5174 22.75 12 22.75C6.06294 22.75 1.25 17.9371 1.25 12C1.25 6.06294 6.06294 1.25 12 1.25C17.9371 1.25 22.75 6.06294 22.75 12C22.75 13.3225 22.5107 14.5906 22.0726 15.7626C21.9275 16.1506 21.4954 16.3476 21.1074 16.2025C20.7194 16.0575 20.5225 15.6253 20.6675 15.2374C21.0439 14.2308 21.25 13.1403 21.25 12C21.25 6.89137 17.1086 2.75 12 2.75ZM8 8.75C7.30964 8.75 6.75 9.30964 6.75 10C6.75 10.4142 6.41421 10.75 6 10.75C5.58579 10.75 5.25 10.4142 5.25 10C5.25 8.48122 6.48122 7.25 8 7.25C9.51878 7.25 10.75 8.48122 10.75 10C10.75 10.4142 10.4142 10.75 10 10.75C9.58579 10.75 9.25 10.4142 9.25 10C9.25 9.30964 8.69036 8.75 8 8.75ZM16 8.75C15.3096 8.75 14.75 9.30964 14.75 10C14.75 10.4142 14.4142 10.75 14 10.75C13.5858 10.75 13.25 10.4142 13.25 10C13.25 8.48122 14.4812 7.25 16 7.25C17.5188 7.25 18.75 8.48122 18.75 10C18.75 10.4142 18.4142 10.75 18 10.75C17.5858 10.75 17.25 10.4142 17.25 10C17.25 9.30964 16.6904 8.75 16 8.75ZM6.42715 14.3508C6.78569 14.1434 7.24449 14.2659 7.4519 14.6245C8.36078 16.1956 10.0577 17.25 12 17.25C13.9423 17.25 15.6392 16.1956 16.5481 14.6245C16.7555 14.2659 17.2143 14.1434 17.5729 14.3508C17.9314 14.5582 18.0539 15.017 17.8465 15.3755C16.6805 17.3912 14.4994 18.75 12 18.75C9.5006 18.75 7.31946 17.3912 6.15349 15.3755C5.94608 15.017 6.0686 14.5582 6.42715 14.3508Z" fill="#231F2C"/>
</svg>
