<svg width="24" height="24" viewBox="0 0 24 24" fill="none" xmlns="http://www.w3.org/2000/svg">
<path fill-rule="evenodd" clip-rule="evenodd" d="M12 1.25C12.4142 1.25 12.75 1.58579 12.75 2V2.93696C12.75 3.45216 12.5975 3.95583 12.3117 4.3845C12.0632 4.75722 12.0632 5.24278 12.3117 5.6155L12.624 6.08397C12.8538 6.42862 12.7607 6.89427 12.416 7.12404C12.0714 7.3538 11.6057 7.26067 11.376 6.91603L11.0636 6.44755C10.4793 5.57098 10.4793 4.42902 11.0636 3.55245C11.1852 3.37018 11.25 3.15602 11.25 2.93696V2C11.25 1.58579 11.5858 1.25 12 1.25ZM9.5 2.25C9.91421 2.25 10.25 2.58579 10.25 3C10.25 3.47409 10.1097 3.93758 9.84669 4.33205L9.81172 4.3845C9.56324 4.75722 9.56324 5.24278 9.81172 5.6155L10.124 6.08397C10.3538 6.42862 10.2607 6.89427 9.91603 7.12404C9.57138 7.3538 9.10573 7.26067 8.87596 6.91603L8.56364 6.44755C7.97927 5.57098 7.97927 4.42902 8.56364 3.55245L8.59861 3.5C8.69732 3.35193 8.75 3.17796 8.75 3C8.75 2.58579 9.08579 2.25 9.5 2.25ZM14.5 2.25C14.9142 2.25 15.25 2.58579 15.25 3C15.25 3.47409 15.1097 3.93758 14.8467 4.33205L14.8117 4.3845C14.5632 4.75722 14.5632 5.24278 14.8117 5.6155L15.124 6.08398C15.3538 6.42862 15.2607 6.89427 14.916 7.12404C14.5714 7.3538 14.1057 7.26067 13.876 6.91602L13.5636 6.44755C12.9793 5.57098 12.9793 4.42902 13.5636 3.55245L13.5986 3.5C13.6973 3.35193 13.75 3.17796 13.75 3C13.75 2.58579 14.0858 2.25 14.5 2.25ZM4.25 9C4.25 8.58579 4.58579 8.25 5 8.25H19C19.4142 8.25 19.75 8.58579 19.75 9V10C19.75 10.9549 19.577 11.8711 19.2598 12.7178C19.1146 13.1057 18.6823 13.3024 18.2944 13.1571C17.9065 13.0119 17.7099 12.5796 17.8551 12.1917C18.1102 11.5107 18.25 10.7725 18.25 10V9.75H5.75V10C5.75 12.5186 7.23982 14.6909 9.38951 15.6806C10.183 16.0459 11.0666 16.25 12 16.25C12.8249 16.25 13.6107 16.0906 14.3296 15.8016C15.1185 15.4845 15.8286 15.0106 16.4208 14.4181C16.7136 14.1251 17.1884 14.1249 17.4814 14.4177C17.7744 14.7105 17.7746 15.1854 17.4818 15.4784C16.9729 15.9876 16.3933 16.4264 15.7587 16.779L16.92 18.3256C17.1053 18.2763 17.2998 18.25 17.5 18.25C18.7426 18.25 19.75 19.2574 19.75 20.5C19.75 21.7426 18.7426 22.75 17.5 22.75C16.5203 22.75 15.6869 22.1239 15.378 21.25H7.2635L6.6584 22.3592C6.46003 22.7228 6.00444 22.8568 5.64082 22.6584C5.27719 22.46 5.14323 22.0044 5.3416 21.6408L6.15263 20.1542C6.15711 20.1456 6.16176 20.137 6.16657 20.1286L8.05295 16.6708C5.77734 15.3215 4.25 12.8398 4.25 10V9ZM9.4141 17.3079L8.08182 19.75H15.3781C15.4515 19.5425 15.5545 19.349 15.6817 19.1746L14.3415 17.3898C13.602 17.6239 12.8151 17.75 12 17.75C11.0942 17.75 10.2235 17.5943 9.4141 17.3079ZM17.5 19.75C17.3464 19.75 17.2057 19.7954 17.0877 19.8733C16.8827 20.0087 16.75 20.2391 16.75 20.5C16.75 20.9142 17.0858 21.25 17.5 21.25C17.9142 21.25 18.25 20.9142 18.25 20.5C18.25 20.0858 17.9142 19.75 17.5 19.75Z" fill="#231F2C"/>
</svg>
