<svg width="24" height="24" viewBox="0 0 24 24" fill="none" xmlns="http://www.w3.org/2000/svg">
<path fill-rule="evenodd" clip-rule="evenodd" d="M15.0852 1.25486C15.4967 1.30189 15.7922 1.67363 15.7452 2.08517L15.3835 5.25001H19C19.2151 5.25001 19.4199 5.34238 19.5623 5.50366C19.7046 5.66493 19.7709 5.87957 19.7442 6.09303L18.9954 12.0832C18.9946 12.0904 18.9937 12.0976 18.9927 12.1048L18.4954 16.0832C18.4946 16.0904 18.4937 16.0976 18.4927 16.1048L18.3692 17.093C18.3178 17.504 17.943 17.7956 17.532 17.7442C17.121 17.6928 16.8294 17.318 16.8808 16.907L16.9004 16.75H16C15.5858 16.75 15.25 16.4142 15.25 16C15.25 15.5858 15.5858 15.25 16 15.25H17.0879L17.4004 12.75H17C16.5858 12.75 16.25 12.4142 16.25 12C16.25 11.5858 16.5858 11.25 17 11.25H17.5879L18.1504 6.75001H15.212L13.7452 19.5852C13.6981 19.9967 13.3264 20.2922 12.9148 20.2452C12.5033 20.1981 12.2078 19.8264 12.2549 19.4148L13.7023 6.75001H5.84959L6.16209 9.25001H9.5C9.91422 9.25001 10.25 9.58579 10.25 10C10.25 10.4142 9.91422 10.75 9.5 10.75H6.34959L7.16209 17.25H9C9.41422 17.25 9.75 17.5858 9.75 18C9.75 18.4142 9.41422 18.75 9 18.75H7.34959L7.52522 20.1551C7.60341 20.7806 8.13516 21.25 8.76557 21.25H15.2344C15.8648 21.25 16.3966 20.7806 16.4748 20.1551L16.5058 19.907C16.5572 19.496 16.932 19.2044 17.343 19.2558C17.754 19.3072 18.0456 19.682 17.9942 20.093L17.9632 20.3411C17.7912 21.7173 16.6213 22.75 15.2344 22.75H8.76557C7.37868 22.75 6.20883 21.7173 6.0368 20.3411L5.75726 18.1048C5.75626 18.0976 5.75536 18.0904 5.75456 18.0832L4.75726 10.1048C4.75626 10.0976 4.75536 10.0904 4.75456 10.0832L4.2558 6.09303C4.22911 5.87957 4.29538 5.66493 4.43775 5.50366C4.58011 5.34238 4.78488 5.25001 5 5.25001H13.8737L14.2549 1.91485C14.3019 1.50331 14.6736 1.20783 15.0852 1.25486ZM8.25 14C8.25 13.5858 8.58579 13.25 9 13.25H11C11.4142 13.25 11.75 13.5858 11.75 14C11.75 14.4142 11.4142 14.75 11 14.75H9C8.58579 14.75 8.25 14.4142 8.25 14Z" fill="#231F2C"/>
</svg>
