<svg width="24" height="24" viewBox="0 0 24 24" fill="none" xmlns="http://www.w3.org/2000/svg">
<path fill-rule="evenodd" clip-rule="evenodd" d="M5.25 3C5.25 2.0335 6.0335 1.25 7 1.25H17C17.9665 1.25 18.75 2.0335 18.75 3V14C18.75 14.4142 18.4142 14.75 18 14.75C17.5858 14.75 17.25 14.4142 17.25 14V9.75H6.75V20C6.75 20.1381 6.86193 20.25 7 20.25H17C17.1381 20.25 17.25 20.1381 17.25 20V17C17.25 16.5858 17.5858 16.25 18 16.25C18.4142 16.25 18.75 16.5858 18.75 17V20C18.75 20.9665 17.9665 21.75 17 21.75H16.75V22C16.75 22.4142 16.4142 22.75 16 22.75H8C7.58579 22.75 7.25 22.4142 7.25 22V21.75H7C6.0335 21.75 5.25 20.9665 5.25 20V3ZM6.75 8.25H17.25V3C17.25 2.86193 17.1381 2.75 17 2.75H7C6.86193 2.75 6.75 2.86193 6.75 3V8.25ZM9 4.25C9.41421 4.25 9.75 4.58579 9.75 5V6C9.75 6.41421 9.41421 6.75 9 6.75C8.58579 6.75 8.25 6.41421 8.25 6V5C8.25 4.58579 8.58579 4.25 9 4.25ZM9 11.25C9.41421 11.25 9.75 11.5858 9.75 12V15C9.75 15.4142 9.41421 15.75 9 15.75C8.58579 15.75 8.25 15.4142 8.25 15V12C8.25 11.5858 8.58579 11.25 9 11.25Z" fill="#231F2C"/>
</svg>
