<svg width="24" height="24" viewBox="0 0 24 24" fill="none" xmlns="http://www.w3.org/2000/svg">
<path fill-rule="evenodd" clip-rule="evenodd" d="M7.5 4.75C5.42733 4.75 3.75 6.41581 3.75 8.5C3.75 11.4165 5.78835 14.1011 8.00679 16.1346C9.09732 17.1343 10.1911 17.9398 11.0138 18.4958C11.4229 18.7724 11.7631 18.986 12 19.1298C12.2123 19.0009 12.5078 18.8158 12.8615 18.5796C13.6137 18.0773 14.6236 17.3475 15.6564 16.4373C15.9672 16.1635 16.4411 16.1934 16.7149 16.5041C16.9888 16.8149 16.9589 17.2888 16.6481 17.5627C15.5526 18.5281 14.4864 19.2983 13.6945 19.8271C13.298 20.0918 12.9689 20.2971 12.7373 20.437C12.6215 20.5069 12.53 20.5606 12.4666 20.5973C12.4349 20.6156 12.4102 20.6297 12.393 20.6395L12.3728 20.6508L12.3671 20.654L12.3653 20.655C12.3652 20.6551 12.3642 20.6556 12 20C11.6358 20.6556 11.6356 20.6555 11.6353 20.6554L11.6327 20.6539L11.6264 20.6504L11.6042 20.6378C11.5852 20.627 11.5579 20.6114 11.5228 20.5911C11.4528 20.5505 11.3517 20.491 11.224 20.4136C10.9689 20.2586 10.6069 20.0313 10.1738 19.7386C9.30885 19.154 8.15268 18.3032 6.99321 17.2404C4.71165 15.1489 2.25 12.0835 2.25 8.5C2.25 5.58419 4.60211 3.25 7.5 3.25C9.40895 3.25 11.0811 4.26288 12 5.78767C12.9189 4.26288 14.5911 3.25 16.5 3.25C19.3979 3.25 21.75 5.58419 21.75 8.5C21.75 11.1997 20.3517 13.5982 18.7155 15.4905C18.4445 15.8039 17.9709 15.8383 17.6576 15.5673C17.3443 15.2964 17.3099 14.8228 17.5808 14.5095C19.1126 12.7379 20.25 10.6797 20.25 8.5C20.25 6.41581 18.5727 4.75 16.5 4.75C14.4273 4.75 12.75 6.41581 12.75 8.5C12.75 8.91421 12.4142 9.25 12 9.25C11.5858 9.25 11.25 8.91421 11.25 8.5C11.25 6.41581 9.57267 4.75 7.5 4.75ZM12 20L11.6353 20.6554C11.8618 20.7812 12.1377 20.7815 12.3642 20.6556L12 20Z" fill="#231F2C"/>
</svg>
