<svg width="24" height="24" viewBox="0 0 24 24" fill="none" xmlns="http://www.w3.org/2000/svg">
<path fill-rule="evenodd" clip-rule="evenodd" d="M10.781 3.10849C11.1937 1.96384 12.8098 1.96384 13.2225 3.10849L15.1277 8.39375L20.5183 8.67337C21.6973 8.73452 22.1828 10.2047 21.291 10.9628L17.0353 14.5802L17.3514 15.8139C17.4542 16.2151 17.2122 16.6237 16.811 16.7265C16.4097 16.8293 16.0011 16.5874 15.8983 16.1861L15.5515 14.8324C15.4281 14.3511 15.5894 13.8405 15.9688 13.518L19.9368 10.1452L14.9154 9.88476C14.3925 9.85763 13.9388 9.5188 13.7619 9.02801L12.0017 4.14535L10.2416 9.028C10.0647 9.5188 9.61099 9.85764 9.088 9.88475L4.06344 10.1452L8.0341 13.5177C8.41393 13.8403 8.57535 14.3514 8.45166 14.8331L7.13066 19.977L11.2657 17.1257C11.709 16.82 12.2947 16.8201 12.7379 17.1259L16.8696 19.9769L16.5889 18.8817C16.4861 18.4804 16.7281 18.0718 17.1293 17.969C17.5306 17.8662 17.9392 18.1081 18.042 18.5094L18.4559 20.1248C18.7519 21.2803 17.4581 22.2056 16.4625 21.5185L12.0016 18.4403L7.53707 21.5188C6.54105 22.2056 5.24749 21.2795 5.54419 20.1242L6.96792 14.5802L2.7093 10.9631C1.81702 10.2052 2.30233 8.7345 3.4816 8.67336L8.8758 8.39374L10.781 3.10849Z" fill="#231F2C"/>
</svg>
