<svg width="24" height="24" viewBox="0 0 24 24" fill="none" xmlns="http://www.w3.org/2000/svg">
<path d="M9.19838 3.18166C10.0812 2.90146 11.0222 2.75 12 2.75C15.6145 2.75 18.7461 4.82298 20.2684 7.84833C20.8962 9.09595 21.25 10.5056 21.25 12C21.25 13.4495 20.9171 14.8191 20.3244 16.0385C20.0687 16.5644 19.7646 17.0626 19.4177 17.5273C19.1699 17.8593 19.2381 18.3292 19.5701 18.577C19.902 18.8248 20.372 18.7566 20.6197 18.4246C21.0226 17.8849 21.3761 17.3059 21.6734 16.6943C22.3634 15.275 22.75 13.6816 22.75 12C22.75 10.2661 22.339 8.62613 21.6083 7.1741C19.8412 3.66212 16.2029 1.25 12 1.25C10.8664 1.25 9.77242 1.42572 8.74459 1.75195C4.39975 3.13099 1.25 7.19668 1.25 12C1.25 12.18 1.25443 12.359 1.26319 12.5369C1.54327 18.2248 6.24296 22.75 12 22.75C14.432 22.75 16.6774 21.9415 18.479 20.5789C18.8093 20.329 18.8746 19.8587 18.6247 19.5283C18.3749 19.1979 17.9045 19.1327 17.5741 19.3825C16.024 20.5549 14.0943 21.25 12 21.25C7.04667 21.25 3.00232 17.3563 2.76137 12.4631C2.75382 12.3098 2.75 12.1554 2.75 12C2.75 7.86903 5.45847 4.3687 9.19838 3.18166Z" fill="#231F2C"/>
<path d="M6.76081 8.34631H4.8645V15.619H6.35598V10.8676H6.41635L8.29845 15.5835H9.31408L11.1962 10.8854H11.2565V15.619H12.748V8.34631H10.8517L8.84888 13.2327H8.76365L6.76081 8.34631Z" fill="#231F2C"/>
<path fill-rule="evenodd" clip-rule="evenodd" d="M15.0199 15.374C15.4223 15.6084 15.8994 15.7256 16.451 15.7256C17.0026 15.7256 17.4784 15.6084 17.8785 15.374C18.281 15.1373 18.5911 14.8082 18.8089 14.3868C19.0267 13.963 19.1356 13.4718 19.1356 12.9131C19.1356 12.3496 19.0267 11.8572 18.8089 11.4358C18.5911 11.012 18.281 10.683 17.8785 10.4486C17.4784 10.2118 17.0026 10.0935 16.451 10.0935C15.8994 10.0935 15.4223 10.2118 15.0199 10.4486C14.6198 10.683 14.3108 11.012 14.093 11.4358C13.8752 11.8572 13.7663 12.3496 13.7663 12.9131C13.7663 13.4718 13.8752 13.963 14.093 14.3868C14.3108 14.8082 14.6198 15.1373 15.0199 15.374ZM17.0866 14.3406C16.9185 14.4827 16.709 14.5537 16.4581 14.5537C16.2048 14.5537 15.9917 14.4827 15.8189 14.3406C15.6484 14.1962 15.5194 13.9997 15.4318 13.7511C15.3466 13.5026 15.304 13.2197 15.304 12.9024C15.304 12.5852 15.3466 12.3023 15.4318 12.0537C15.5194 11.8051 15.6484 11.6086 15.8189 11.4642C15.9917 11.3198 16.2048 11.2476 16.4581 11.2476C16.709 11.2476 16.9185 11.3198 17.0866 11.4642C17.2547 11.6086 17.3814 11.8051 17.4666 12.0537C17.5542 12.3023 17.598 12.5852 17.598 12.9024C17.598 13.2197 17.5542 13.5026 17.4666 13.7511C17.3814 13.9997 17.2547 14.1962 17.0866 14.3406Z" fill="#231F2C"/>
</svg>
