<svg width="24" height="24" viewBox="0 0 24 24" fill="none" xmlns="http://www.w3.org/2000/svg">
<path fill-rule="evenodd" clip-rule="evenodd" d="M2.32226 2.67883C2.44635 2.41695 2.71022 2.25 3.00001 2.25H21C21.2898 2.25 21.5537 2.41695 21.6778 2.67883C21.8019 2.9407 21.764 3.25064 21.5805 3.47493L17.4806 8.48595C17.2183 8.80653 16.7457 8.85378 16.4252 8.59149C16.1046 8.32919 16.0573 7.85668 16.3196 7.53609L16.9628 6.75H7.03724L12 12.8156L14.4199 9.85799C14.6822 9.53741 15.1547 9.49016 15.4753 9.75245C15.7959 10.0147 15.8431 10.4873 15.5808 10.8078L12.75 14.2677V20.25H16C16.4142 20.25 16.75 20.5858 16.75 21C16.75 21.4142 16.4142 21.75 16 21.75H8.00001C7.58579 21.75 7.25001 21.4142 7.25001 21C7.25001 20.5858 7.58579 20.25 8.00001 20.25H11.25V14.2677L2.41954 3.47493C2.23603 3.25064 2.19816 2.9407 2.32226 2.67883ZM5.80996 5.25H18.1901L19.4173 3.75H4.58269L5.80996 5.25Z" fill="#231F2C"/>
</svg>
