<svg width="24" height="24" viewBox="0 0 24 24" fill="none" xmlns="http://www.w3.org/2000/svg">
<path fill-rule="evenodd" clip-rule="evenodd" d="M11.3219 1.28099C9.92194 1.39199 8.82194 1.66099 7.63794 2.18099C5.23994 3.23399 3.20694 5.27399 2.15994 7.67999C1.25825 9.75478 1.02682 12.0593 1.49794 14.272C1.97994 16.51 3.21294 18.601 4.92294 20.082C5.63292 20.7126 6.42929 21.2385 7.28794 21.644C10.4129 23.178 14.0239 23.107 17.1059 21.452C17.8069 21.076 18.5289 20.576 18.6579 20.379C18.9289 19.965 18.6799 19.369 18.1919 19.26C17.9169 19.198 17.7719 19.247 17.3529 19.54C16.0902 20.4378 14.6217 21.0031 13.0829 21.184C12.4369 21.266 12.4139 21.264 12.3829 21.121C12.3437 20.9654 12.3 20.811 12.2519 20.658C12.2017 20.5061 12.1666 20.3497 12.1469 20.191C12.1469 20.027 12.2899 19.871 12.8809 19.389C13.4239 18.946 13.5269 18.833 13.9009 18.269C14.2539 17.738 15.0869 16.105 15.1839 15.753C15.4189 14.905 15.2649 14.21 14.7249 13.679C14.4089 13.369 14.2739 13.261 13.7969 12.943C12.8179 12.291 11.6509 11.871 10.1669 11.637C7.97794 11.292 7.05994 11.39 6.42694 12.033C6.00094 12.465 5.79994 12.986 5.79694 13.66C5.79294 14.657 6.16194 15.23 7.39794 16.144C8.37094 16.864 8.49994 17.01 8.62394 17.538C8.66394 17.709 8.73994 18.17 8.79294 18.563C8.94294 19.681 9.07794 20.273 9.27294 20.661C9.32094 20.756 9.35994 20.842 9.35994 20.85C9.35994 20.877 8.96094 20.747 8.58994 20.6C6.51594 19.774 4.76994 18.187 3.77094 16.217C3.31977 15.3407 3.01059 14.3983 2.85494 13.425L2.83194 13.292L3.07694 13.246C3.81994 13.105 4.48294 12.491 5.00094 11.462C5.09494 11.276 5.21694 10.996 5.27294 10.838C5.31112 10.7234 5.35757 10.6118 5.41194 10.504C5.44094 10.466 5.62494 10.458 6.25894 10.467L7.06794 10.478L7.26594 10.374C7.67294 10.16 7.96094 9.77999 8.47694 8.77699C8.81194 8.12599 9.01794 7.86699 9.32494 7.70799C9.56994 7.58099 10.0389 7.56799 10.5959 7.67299C11.3779 7.82099 11.9499 7.73299 12.4869 7.38299C13.0509 7.01499 13.3199 6.49499 13.3199 5.77299C13.3199 5.41799 13.2439 5.12099 13.0759 4.81299C12.7429 4.20799 12.2239 3.81099 11.4609 3.57899C11.1649 3.48999 11.0839 3.48099 10.4699 3.47799C9.89394 3.47499 9.80294 3.46699 9.81594 3.41999C9.82494 3.38999 9.84194 3.27999 9.85494 3.17599L9.87894 2.98699L10.2889 2.91099C11.0059 2.77899 11.4179 2.74999 12.2539 2.76999C13.1129 2.79099 13.6389 2.86099 14.3669 3.05099C15.5449 3.35799 16.7249 3.95399 17.7749 4.77099C18.0509 4.98699 19.0499 5.97099 19.1749 6.15199L19.2519 6.26199L18.7149 6.26499C18.2449 6.26799 18.1379 6.28099 17.8559 6.36599C17.6476 6.4325 17.4441 6.51336 17.2469 6.60799C16.3109 7.07899 15.3759 8.15399 14.8579 9.35499C14.6769 9.77699 14.6359 9.95499 14.6359 10.348C14.6339 11.325 15.3639 12.166 16.4519 12.44C17.0039 12.579 17.6219 12.522 18.2249 12.276C18.4529 12.183 18.5539 12.159 18.6149 12.182C18.6939 12.212 18.6959 12.224 18.6659 12.464C18.5639 13.256 18.8159 14.035 19.5529 15.208C19.6799 15.41 19.8739 15.744 19.9829 15.951L20.1829 16.327L20.0089 16.629C19.8703 16.863 19.7245 17.0928 19.5719 17.318C19.2929 17.727 19.2379 17.887 19.2929 18.128C19.3699 18.465 19.6149 18.678 19.9539 18.703C20.2809 18.726 20.4549 18.633 20.6989 18.301C21.9859 16.5246 22.6981 14.3968 22.7399 12.2037C22.7818 10.0105 22.1512 7.85714 20.9329 6.03299C20.4929 5.37199 20.2009 5.01699 19.6099 4.42499C18.7706 3.57317 17.7902 2.87316 16.7119 2.35599C15.4549 1.73699 14.4299 1.44599 13.0339 1.30999C12.4646 1.26202 11.8926 1.25233 11.3219 1.28099ZM7.98494 3.80599C7.90994 4.01599 7.91694 4.39699 7.99894 4.57699C8.05505 4.68293 8.12993 4.7778 8.21994 4.85699C8.49594 5.09399 8.81694 5.12999 9.57994 5.01399C10.1939 4.91999 10.7829 4.92499 11.0769 5.02799C11.3849 5.13599 11.5739 5.25999 11.7029 5.43699C11.8469 5.63599 11.8749 5.80799 11.7909 5.97999C11.6579 6.25299 11.3999 6.29599 10.6619 6.16999C9.72094 6.00899 9.02694 6.12099 8.39894 6.53299C7.87394 6.87799 7.58994 7.23399 7.13494 8.11499C6.97394 8.42799 6.79494 8.75499 6.73794 8.84099L6.63394 8.99799L6.08094 8.97399C5.18194 8.93599 4.69194 9.06899 4.31794 9.45099C4.12194 9.65099 4.08294 9.72499 3.87594 10.295C3.59494 11.068 3.07894 11.78 2.79794 11.78C2.71194 11.78 2.79994 10.786 2.94894 10.093C3.23202 8.76761 3.80142 7.52013 4.61727 6.43792C5.43311 5.35572 6.47567 4.46495 7.67194 3.82799C7.78743 3.76311 7.90627 3.70436 8.02794 3.65199C8.02033 3.70496 8.00587 3.75673 7.98494 3.80599ZM19.7179 7.90999C20.0009 7.98399 20.2729 8.06499 20.3229 8.08899C20.4789 8.16299 20.8639 9.19999 21.0399 10.02C21.1659 10.609 21.2079 10.983 21.2289 11.707C21.2569 12.706 21.1689 13.553 20.9569 14.323L20.8979 14.537L20.7389 14.286C20.4999 13.909 20.2639 13.438 20.1949 13.198C20.1439 13.021 20.1379 12.9 20.1589 12.483C20.1799 12.074 20.1739 11.936 20.1249 11.743C20.0599 11.486 19.8739 11.181 19.7079 11.058C19.3531 10.8105 18.9305 10.6788 18.4979 10.681C18.2689 10.68 18.1649 10.704 17.7839 10.847C17.0799 11.11 16.6449 11.07 16.3009 10.711C16.0579 10.456 16.0599 10.304 16.3089 9.78499C16.5559 9.26999 16.8189 8.89899 17.2219 8.49499C17.6179 8.09799 17.8189 7.96099 18.1969 7.82799C18.5499 7.70399 19.0349 7.72999 19.7179 7.90999ZM8.71794 12.954C10.9679 13.164 12.3799 13.645 13.4959 14.581C13.6429 14.704 13.7729 14.844 13.7849 14.891C13.7959 14.938 13.7969 15.061 13.7859 15.166C13.7509 15.486 12.7029 17.486 12.3919 17.825C12.1966 18.0057 11.9955 18.1801 11.7889 18.348C11.0659 18.952 10.7829 19.33 10.6789 19.835C10.669 19.9021 10.6505 19.9676 10.6239 20.03C10.5969 20.03 10.4639 19.558 10.4089 19.271C10.3799 19.114 10.3199 18.721 10.2769 18.398C10.0229 16.479 9.80894 16.08 8.52694 15.127C7.56094 14.41 7.33094 14.166 7.28694 13.816C7.23494 13.398 7.42294 13.026 7.71994 12.959C7.93294 12.911 8.24194 12.91 8.71794 12.954Z" fill="#231F2C"/>
</svg>
