<svg width="24" height="24" viewBox="0 0 24 24" fill="none" xmlns="http://www.w3.org/2000/svg">
<path fill-rule="evenodd" clip-rule="evenodd" d="M13.8242 1.32369C14.1303 1.47044 14.2997 1.80454 14.2372 2.13822C13.8825 4.02998 14.0402 5.37524 14.4288 6.41164C14.8203 7.45564 15.4707 8.25453 16.2241 9.02595C16.4311 9.23794 16.6513 9.45065 16.8767 9.66832C18.2218 10.9676 19.75 12.4438 19.75 15C19.75 15.9738 19.57 16.9073 19.2409 17.7679C19.0929 18.1548 18.6593 18.3485 18.2724 18.2005C17.8856 18.0525 17.6919 17.619 17.8399 17.2321C18.1046 16.5399 18.25 15.7878 18.25 15C18.25 13.1244 17.2347 12.1287 15.9025 10.8222C15.661 10.5854 15.4091 10.3383 15.1509 10.074C14.3418 9.2454 13.5234 8.26932 13.0243 6.93833C12.734 6.16413 12.5598 5.29253 12.541 4.28729C11.7597 5.2426 11.1525 6.09847 10.7532 7.04224C10.1482 8.47227 10.0048 10.1673 10.7236 12.8027C10.792 13.0534 10.7256 13.3218 10.5483 13.5118C10.3709 13.7018 10.1078 13.7864 9.85291 13.7354C8.43924 13.4527 7.40024 12.7991 6.69418 11.7753C6.50803 11.5054 6.34868 11.2149 6.21236 10.9062C5.91382 12.2602 5.75 13.6583 5.75 15C5.75 18.4518 8.54822 21.25 12 21.25C13.7037 21.25 15.247 20.5693 16.3751 19.4633C16.6709 19.1733 17.1457 19.1781 17.4357 19.4738C17.7257 19.7696 17.721 20.2445 17.4252 20.5344C16.028 21.9042 14.112 22.75 12 22.75C7.71979 22.75 4.25 19.2802 4.25 15C4.25 12.5661 4.74426 9.98598 5.58434 7.73751C5.70631 7.41108 6.03704 7.21166 6.38266 7.25615C6.72828 7.30064 6.99773 7.57732 7.03305 7.924C7.16865 9.25513 7.45297 10.2334 7.92901 10.9237C8.18946 11.3014 8.52251 11.6148 8.96342 11.8545C8.54778 9.66698 8.7277 7.98015 9.37177 6.45778C10.0488 4.85743 11.2275 3.48936 12.5378 1.9686C12.6675 1.81799 12.7986 1.66589 12.9306 1.51191C13.1515 1.25415 13.518 1.17694 13.8242 1.32369ZM15.2295 12.8748C15.0471 12.4703 14.6677 12.2737 14.3183 12.2521C13.973 12.2308 13.6022 12.3722 13.3602 12.6894L13.3602 12.6894L13.3568 12.694C13.126 13.0014 13.0206 13.3042 12.9502 13.5065C12.948 13.5129 12.9458 13.5192 12.9436 13.5254C12.8514 13.7899 12.8091 13.8909 12.6709 14.0127C12.502 14.1616 12.1334 14.378 11.2686 14.6143C10.4701 14.8325 9.88199 15.2949 9.55008 15.9028C9.22376 16.5004 9.17582 17.1828 9.34731 17.7954C9.69913 19.0521 10.9672 20.0191 12.6906 19.6825C13.7508 19.4754 14.5361 18.9515 15.0468 18.2373C15.5483 17.536 15.75 16.7015 15.75 15.9095C15.75 14.506 15.5781 13.6376 15.2295 12.8748ZM14.1592 14.5074C14.0534 14.7094 13.9006 14.9284 13.6628 15.138C13.24 15.5107 12.6115 15.8024 11.6639 16.0613C11.2173 16.1833 10.9835 16.4074 10.8666 16.6216C10.7441 16.846 10.7162 17.1211 10.7918 17.391C10.934 17.8991 11.4514 18.3962 12.403 18.2103C13.1118 18.0718 13.553 17.7475 13.8267 17.3648C14.1096 16.9692 14.25 16.458 14.25 15.9095C14.25 15.3233 14.2171 14.8723 14.1592 14.5074Z" fill="#231F2C"/>
</svg>
