<svg width="24" height="24" viewBox="0 0 24 24" fill="none" xmlns="http://www.w3.org/2000/svg">
<path fill-rule="evenodd" clip-rule="evenodd" d="M8.53509 2.273C7.75109 2.318 7.43609 2.464 7.29209 2.849C7.18309 3.14 7.41609 4.204 7.72509 4.821C8.36009 6.093 9.35609 6.677 11.0781 6.788C11.2551 6.799 11.4001 6.813 11.4001 6.819C11.4001 6.826 11.3811 6.955 11.3571 7.108C11.3303 7.28698 11.309 7.46672 11.2931 7.647C11.2821 7.792 11.2641 7.91 11.2531 7.91C11.2421 7.91 10.9911 7.829 10.6941 7.729C9.76709 7.418 9.25009 7.31 8.68409 7.31C7.84109 7.31 7.07109 7.497 6.28509 7.893C5.18409 8.448 4.40909 9.24 3.85409 10.378C3.43809 11.229 3.26609 12.053 3.26709 13.19C3.26809 14.01 3.34709 14.625 3.56009 15.455C4.05469 17.3693 5.04613 19.1189 6.43409 20.527C7.48009 21.575 8.37909 21.907 9.55509 21.679C9.73709 21.644 10.1821 21.516 10.5451 21.394C11.3581 21.122 11.6581 21.065 12.1791 21.089C12.6071 21.108 12.7821 21.149 13.5601 21.411C14.2991 21.66 14.6141 21.722 15.1351 21.719C15.4851 21.718 15.6031 21.705 15.8471 21.64C16.5461 21.457 17.0471 21.136 17.7761 20.406C18.3502 19.8262 18.8412 19.1696 19.2351 18.455C19.3541 18.236 19.3651 18.197 19.3641 18.005C19.3631 17.849 19.3471 17.763 19.2981 17.672C19.209 17.5003 19.0568 17.3698 18.8734 17.3081C18.6901 17.2463 18.4899 17.2581 18.3151 17.341C18.1231 17.432 18.0811 17.48 17.8231 17.911C17.4431 18.543 17.1211 18.957 16.6461 19.421C16.2931 19.767 16.0511 19.953 15.8011 20.072C15.2781 20.32 14.9261 20.298 13.9201 19.956C13.0161 19.649 12.5331 19.562 11.8801 19.59C11.2611 19.616 10.9301 19.686 10.1291 19.958C9.43409 20.194 9.20609 20.249 8.91009 20.25C8.76583 20.257 8.62156 20.2363 8.48509 20.189C7.97409 20.001 7.31809 19.381 6.56809 18.376C5.34309 16.734 4.62709 14.498 4.76509 12.749C4.80609 12.24 4.85409 11.978 4.98809 11.555C5.49709 9.935 6.99609 8.812 8.65509 8.806C9.08709 8.805 9.39009 8.872 10.3141 9.174C11.7811 9.653 11.7681 9.653 13.2151 9.181C14.4021 8.794 14.8811 8.708 15.4871 8.775C16.8301 8.925 17.7491 9.423 18.3691 10.338C18.9391 11.181 19.3091 12.48 19.2451 13.415C19.2152 13.8254 19.1594 14.2336 19.0781 14.637C19.0021 14.98 19.0051 15.122 19.0921 15.305C19.2301 15.596 19.4551 15.74 19.7751 15.74C19.9322 15.7438 20.0862 15.6952 20.2126 15.6017C20.339 15.5083 20.4307 15.3754 20.4731 15.224C20.5721 14.8056 20.6475 14.3819 20.6991 13.955C20.7411 13.572 20.7421 12.766 20.7001 12.455C20.5221 11.138 19.9521 9.821 19.1771 8.937C18.5491 8.22 17.5681 7.661 16.5391 7.432C16.1557 7.34769 15.7667 7.29121 15.3751 7.263C14.8231 7.226 14.0211 7.352 13.2701 7.594C13.1193 7.64534 12.9665 7.69071 12.8121 7.73C12.7721 7.73 12.7801 7.648 12.8731 7.1C13.0019 6.34541 13.2454 5.61497 13.5951 4.934C13.8291 4.472 14.1931 3.911 14.4481 3.62C14.6641 3.375 14.7351 3.218 14.7341 2.991C14.7371 2.89505 14.7205 2.79949 14.6852 2.71022C14.6499 2.62095 14.5967 2.53985 14.5289 2.47192C14.4611 2.40399 14.38 2.35068 14.2908 2.31526C14.2016 2.27985 14.106 2.26308 14.0101 2.266C13.7221 2.265 13.5461 2.366 13.2771 2.689C12.9883 3.04053 12.7279 3.41437 12.4981 3.807C12.4422 3.90754 12.3815 4.00532 12.3161 4.1C12.2787 4.0559 12.2455 4.00835 12.2171 3.958C12.0278 3.67104 11.8064 3.40666 11.5571 3.17C10.8061 2.481 9.84909 2.197 8.53509 2.273ZM9.33009 3.77C9.89909 3.835 10.2191 3.973 10.5611 4.3C10.7941 4.522 11.0041 4.801 11.1851 5.127L11.2811 5.3H11.1831C11.1291 5.3 10.9631 5.285 10.8151 5.267C9.84609 5.148 9.33209 4.797 9.00909 4.031C8.97083 3.9454 8.93777 3.85758 8.91009 3.768C8.91009 3.733 9.01009 3.733 9.33009 3.77Z" fill="#231F2C"/>
</svg>
