<svg width="24" height="24" viewBox="0 0 24 24" fill="none" xmlns="http://www.w3.org/2000/svg">
<path d="M9.19838 3.18166C10.0812 2.90146 11.0222 2.75 12 2.75C15.6145 2.75 18.7461 4.82298 20.2684 7.84833C20.8962 9.09595 21.25 10.5056 21.25 12C21.25 13.4495 20.9171 14.8191 20.3244 16.0385C20.0687 16.5644 19.7646 17.0626 19.4177 17.5273C19.1699 17.8593 19.2381 18.3292 19.5701 18.577C19.902 18.8248 20.372 18.7566 20.6197 18.4246C21.0226 17.8849 21.3761 17.3059 21.6734 16.6943C22.3634 15.275 22.75 13.6816 22.75 12C22.75 10.2661 22.339 8.62613 21.6083 7.1741C19.8412 3.66212 16.2029 1.25 12 1.25C10.8664 1.25 9.77242 1.42572 8.74459 1.75195C4.39975 3.13099 1.25 7.19668 1.25 12C1.25 12.18 1.25443 12.359 1.26319 12.5369C1.54327 18.2248 6.24296 22.75 12 22.75C14.432 22.75 16.6774 21.9415 18.479 20.5789C18.8093 20.329 18.8746 19.8587 18.6247 19.5283C18.3749 19.1979 17.9045 19.1327 17.5741 19.3825C16.024 20.5549 14.0943 21.25 12 21.25C7.04667 21.25 3.00232 17.3563 2.76137 12.4631C2.75382 12.3098 2.75 12.1554 2.75 12C2.75 7.86903 5.45847 4.3687 9.19838 3.18166Z" fill="#231F2C"/>
<path d="M7.47852 8.34631V15.619H9.01616V12.6148H11.9743V11.347H9.01616V9.61407H12.2939V8.34631H7.47852Z" fill="#231F2C"/>
<path d="M13.2118 10.1645V15.619H14.7246V12.5331C14.7246 12.3106 14.7743 12.1141 14.8738 11.9436C14.9756 11.7732 15.1129 11.6406 15.2857 11.5459C15.4609 11.4488 15.6597 11.4003 15.8823 11.4003C15.9864 11.4003 16.1013 11.4086 16.2267 11.4251C16.3522 11.4417 16.4505 11.4607 16.5215 11.482V10.1396C16.4552 10.1231 16.3783 10.11 16.2907 10.1006C16.2031 10.0911 16.1214 10.0864 16.0456 10.0864C15.7402 10.0864 15.4703 10.174 15.236 10.3492C15.0016 10.522 14.8347 10.7777 14.7353 11.1162H14.6784V10.1645H13.2118Z" fill="#231F2C"/>
</svg>
