<svg width="24" height="24" viewBox="0 0 24 24" fill="none" xmlns="http://www.w3.org/2000/svg">
<path fill-rule="evenodd" clip-rule="evenodd" d="M12.6171 3.57375L12 4L11.3829 3.57375C11.523 3.37102 11.7536 3.25 12 3.25C12.2464 3.25 12.4771 3.37102 12.6171 3.57375ZM12.75 7.58159C13.3413 7.30073 13.75 6.6981 13.75 6C13.75 5.69159 13.6265 5.3715 13.5304 5.15283C13.4208 4.90337 13.2805 4.64368 13.1488 4.41656C13.0156 4.18698 12.8835 3.97759 12.7853 3.82634C12.7359 3.75039 12.6946 3.68832 12.6654 3.64478L12.6309 3.59378L12.6212 3.57969L12.6171 3.57375C12.6171 3.57368 12.6171 3.57375 12 4C11.3829 3.57375 11.383 3.57368 11.3829 3.57375L11.3788 3.57969L11.3692 3.59378L11.3347 3.64478C11.3054 3.68832 11.2641 3.75039 11.2148 3.82634C11.1166 3.97759 10.9845 4.18698 10.8513 4.41656C10.7195 4.64368 10.5792 4.90337 10.4696 5.15283C10.3735 5.3715 10.25 5.69159 10.25 6C10.25 6.6981 10.6588 7.30073 11.25 7.58159V8.25H10.5C10.0858 8.25 9.75002 8.58579 9.75002 9V11.25H6.00002C5.58581 11.25 5.25002 11.5858 5.25002 12C5.25002 12.4142 5.58581 12.75 6.00002 12.75H11.25V19.25H10.5C10.0858 19.25 9.75002 19.5858 9.75002 20C9.75002 20.4142 10.0858 20.75 10.5 20.75H13.5C13.9142 20.75 14.25 20.4142 14.25 20C14.25 19.5858 13.9142 19.25 13.5 19.25H12.75V12.75H18C18.4142 12.75 18.75 12.4142 18.75 12C18.75 11.5858 18.4142 11.25 18 11.25H14.25V9C14.25 8.58579 13.9142 8.25 13.5 8.25H12.75V7.58159ZM11.25 9.75H12.75V11.25H11.25V9.75ZM12 5.4361C11.9404 5.54818 11.8866 5.65667 11.8429 5.75618C11.7826 5.89355 11.7614 5.96986 11.754 5.99659C11.751 6.00739 11.7503 6.01009 11.7501 6.00546C11.75 6.00419 11.75 6.00237 11.75 6M12 5.4361C12.0597 5.54818 12.1134 5.65667 12.1571 5.75618C12.2175 5.89355 12.2386 5.96986 12.246 5.99659C12.249 6.00739 12.2498 6.01009 12.25 6.00546C12.2471 6.14101 12.1363 6.25 12 6.25C11.8638 6.25 11.753 6.14101 11.7501 6.00546M1.907 6.25579C2.31801 6.20441 2.69285 6.49596 2.74423 6.90697L3.66211 14.25H8.00002C8.41424 14.25 8.75002 14.5858 8.75002 15V20C8.75002 20.4142 8.41424 20.75 8.00002 20.75C7.58581 20.75 7.25002 20.4142 7.25002 20V15.75H3.61488L2.73546 20.1471C2.65422 20.5533 2.25911 20.8167 1.85294 20.7354C1.44677 20.6542 1.18335 20.2591 1.26459 19.8529L2.24072 14.9723L1.25581 7.09303C1.20444 6.68201 1.49598 6.30717 1.907 6.25579ZM22.093 6.25579C22.5041 6.30717 22.7956 6.68201 22.7442 7.09303L22.3692 10.093C22.3179 10.504 21.943 10.7956 21.532 10.7442C21.121 10.6928 20.8294 10.318 20.8808 9.90697L21.2558 6.90697C21.3072 6.49596 21.682 6.20441 22.093 6.25579ZM21.343 12.2558C21.7541 12.3072 22.0456 12.682 21.9942 13.093L21.7593 14.9723L22.7355 19.8529C22.8167 20.2591 22.5533 20.6542 22.1471 20.7354C21.7409 20.8167 21.3458 20.5533 21.2646 20.1471L20.3852 15.75H16.75V20C16.75 20.4142 16.4142 20.75 16 20.75C15.5858 20.75 15.25 20.4142 15.25 20V15C15.25 14.5858 15.5858 14.25 16 14.25H20.3379L20.5058 12.907C20.5572 12.496 20.932 12.2044 21.343 12.2558Z" fill="#231F2C"/>
</svg>
