<svg width="24" height="24" viewBox="0 0 24 24" fill="none" xmlns="http://www.w3.org/2000/svg">
<path fill-rule="evenodd" clip-rule="evenodd" d="M12 2.25C12.4142 2.25 12.75 2.58579 12.75 3V4.18934L13.4697 3.46967C13.7626 3.17678 14.2374 3.17678 14.5303 3.46967C14.8232 3.76256 14.8232 4.23744 14.5303 4.53033L12.75 6.31066V10.1893L14.25 8.68934V7C14.25 6.58579 14.5858 6.25 15 6.25C15.4142 6.25 15.75 6.58579 15.75 7V7.18934L16.4697 6.46967C16.7626 6.17678 17.2374 6.17678 17.5303 6.46967C17.8232 6.76256 17.8232 7.23744 17.5303 7.53033L16.8107 8.25H17C17.4142 8.25 17.75 8.58579 17.75 9C17.75 9.41421 17.4142 9.75 17 9.75H15.3107L13.8107 11.25H15C15.4142 11.25 15.75 11.5858 15.75 12C15.75 12.4142 15.4142 12.75 15 12.75H13.8107L15.3107 14.25H17C17.4142 14.25 17.75 14.5858 17.75 15C17.75 15.4142 17.4142 15.75 17 15.75H16.8107L17.5303 16.4697C17.8232 16.7626 17.8232 17.2374 17.5303 17.5303C17.2374 17.8232 16.7626 17.8232 16.4697 17.5303L15.75 16.8107V17C15.75 17.4142 15.4142 17.75 15 17.75C14.5858 17.75 14.25 17.4142 14.25 17V15.3107L12.75 13.8107V17.6893L14.5303 19.4697C14.8232 19.7626 14.8232 20.2374 14.5303 20.5303C14.2374 20.8232 13.7626 20.8232 13.4697 20.5303L12.75 19.8107V21C12.75 21.4142 12.4142 21.75 12 21.75C11.5858 21.75 11.25 21.4142 11.25 21V19.8107L10.5303 20.5303C10.2374 20.8232 9.76256 20.8232 9.46967 20.5303C9.17678 20.2374 9.17678 19.7626 9.46967 19.4697L11.25 17.6893V13.8107L9.75 15.3107V17C9.75 17.4142 9.41421 17.75 9 17.75C8.58579 17.75 8.25 17.4142 8.25 17V16.8107L7.53033 17.5303C7.23744 17.8232 6.76256 17.8232 6.46967 17.5303C6.17678 17.2374 6.17678 16.7626 6.46967 16.4697L7.18934 15.75H7C6.58579 15.75 6.25 15.4142 6.25 15C6.25 14.5858 6.58579 14.25 7 14.25H8.68934L10.1893 12.75H6.31066L4.53033 14.5303C4.23744 14.8232 3.76256 14.8232 3.46967 14.5303C3.17678 14.2374 3.17678 13.7626 3.46967 13.4697L4.18934 12.75H3C2.58579 12.75 2.25 12.4142 2.25 12C2.25 11.5858 2.58579 11.25 3 11.25H4.18934L3.46967 10.5303C3.17678 10.2374 3.17678 9.76256 3.46967 9.46967C3.76256 9.17678 4.23744 9.17678 4.53033 9.46967L6.31066 11.25H10.1893L8.68934 9.75H7C6.58579 9.75 6.25 9.41421 6.25 9C6.25 8.58579 6.58579 8.25 7 8.25H7.18934L6.46967 7.53033C6.17678 7.23744 6.17678 6.76256 6.46967 6.46967C6.76256 6.17678 7.23744 6.17678 7.53033 6.46967L8.25 7.18934V7C8.25 6.58579 8.58579 6.25 9 6.25C9.41421 6.25 9.75 6.58579 9.75 7V8.68934L11.25 10.1893V6.31066L9.46967 4.53033C9.17678 4.23744 9.17678 3.76256 9.46967 3.46967C9.76256 3.17678 10.2374 3.17678 10.5303 3.46967L11.25 4.18934V3C11.25 2.58579 11.5858 2.25 12 2.25ZM20.5303 9.46967C20.8232 9.76256 20.8232 10.2374 20.5303 10.5303L19.8107 11.25H21C21.4142 11.25 21.75 11.5858 21.75 12C21.75 12.4142 21.4142 12.75 21 12.75H19.8107L20.5303 13.4697C20.8232 13.7626 20.8232 14.2374 20.5303 14.5303C20.2374 14.8232 19.7626 14.8232 19.4697 14.5303L17.4697 12.5303C17.1768 12.2374 17.1768 11.7626 17.4697 11.4697L19.4697 9.46967C19.7626 9.17678 20.2374 9.17678 20.5303 9.46967Z" fill="#231F2C"/>
</svg>
