<svg width="24" height="24" viewBox="0 0 24 24" fill="none" xmlns="http://www.w3.org/2000/svg">
<path fill-rule="evenodd" clip-rule="evenodd" d="M8.32918 2.66459C8.45622 2.4105 8.71592 2.25 9 2.25H21C21.2841 2.25 21.5438 2.4105 21.6708 2.66459L22.6708 4.66459C22.7871 4.89708 22.7746 5.17319 22.638 5.3943C22.5013 5.61541 22.2599 5.75 22 5.75H21.7046L21.186 14.0468C21.1602 14.4602 20.8041 14.7744 20.3907 14.7485C19.9773 14.7227 19.6631 14.3666 19.689 13.9532L20.2017 5.75H9.84959L9.86921 5.90697C9.92059 6.31799 9.62904 6.69283 9.21803 6.74421C8.80701 6.79559 8.43217 6.50404 8.38079 6.09303L8.33791 5.75H8C7.74007 5.75 7.49867 5.61541 7.36201 5.3943C7.22536 5.17319 7.21293 4.89708 7.32918 4.66459L8.32918 2.66459ZM9.21353 4.25H20.7865L20.5365 3.75H9.46353L9.21353 4.25ZM13.5704 9.67658C12.523 9.01996 11.0616 8.74932 9.50033 8.75C7.93912 8.75068 6.47742 9.02257 5.42976 9.67968C4.59182 10.2053 3.97385 11.0023 3.79969 12.25H15.2005C15.0265 10.9995 14.4082 10.2018 13.5704 9.67658ZM16.3908 13.6402C16.6063 13.5084 16.75 13.271 16.75 13C16.75 10.8039 15.8102 9.31036 14.3671 8.40569C12.977 7.53417 11.1884 7.24926 9.49967 7.25C7.81088 7.25074 6.02258 7.53723 4.63274 8.40895C3.19018 9.31375 2.25 10.8063 2.25 13C2.25 13.271 2.39375 13.5084 2.60916 13.6402C2.38058 14.0413 2.25 14.5054 2.25 15V15.2584C2.25 15.9099 2.66774 16.4639 3.25 16.6671V17.25H3C2.58579 17.25 2.25 17.5858 2.25 18V19C2.25 20.5188 3.48122 21.75 5 21.75H14C15.5188 21.75 16.75 20.5188 16.75 19V18C16.75 17.5858 16.4142 17.25 16 17.25H15.75V16.6671C16.3323 16.4639 16.75 15.9099 16.75 15.2584V15C16.75 14.5054 16.6194 14.0413 16.3908 13.6402ZM14 13.75H5C4.30964 13.75 3.75 14.3096 3.75 15V15.2443L4.50157 14.8396C5.30325 14.408 6.26818 14.408 7.06986 14.8396C7.42758 15.0323 7.85814 15.0323 8.21585 14.8396C9.01753 14.408 9.98246 14.408 10.7841 14.8396C11.1419 15.0323 11.5724 15.0323 11.9301 14.8396C12.7318 14.408 13.6968 14.408 14.4984 14.8396L15.25 15.2443V15C15.25 14.3096 14.6904 13.75 14 13.75ZM3.73762 15.251C3.73761 15.251 3.73763 15.251 3.73762 15.251V15.251ZM14.25 16.4095L13.7873 16.1604C13.4296 15.9677 12.999 15.9677 12.6413 16.1604C11.8396 16.592 10.8747 16.592 10.073 16.1604C9.71528 15.9677 9.28472 15.9677 8.927 16.1604C8.12532 16.592 7.16039 16.592 6.35871 16.1604C6.00099 15.9677 5.57043 15.9677 5.21272 16.1604L4.75 16.4095V17.25H14.25V16.4095ZM3.75 18.75V19C3.75 19.6904 4.30964 20.25 5 20.25H14C14.6904 20.25 15.25 19.6904 15.25 19V18.75H3.75ZM20.2968 16.2515C20.7102 16.2773 21.0244 16.6334 20.9985 17.0468L20.8071 20.1092C20.7495 21.0315 19.9847 21.75 19.0605 21.75H18C17.5858 21.75 17.25 21.4142 17.25 21C17.25 20.5858 17.5858 20.25 18 20.25H19.0605C19.1926 20.25 19.3018 20.1474 19.3101 20.0156L19.5015 16.9532C19.5273 16.5398 19.8834 16.2256 20.2968 16.2515Z" fill="#231F2C"/>
</svg>
