<svg width="24" height="24" viewBox="0 0 24 24" fill="none" xmlns="http://www.w3.org/2000/svg">
<path fill-rule="evenodd" clip-rule="evenodd" d="M7.73737 3.78795C10.9591 2.11464 14.9591 2.46445 17.8547 4.83771C17.8864 4.86367 17.903 4.89695 17.9037 4.94322C17.9045 4.99387 17.8843 5.05501 17.8336 5.10572L17.4878 5.4515C17.1949 5.74439 17.1949 6.21927 17.4878 6.51216C17.7807 6.80506 18.2556 6.80505 18.5485 6.51216L18.8943 6.16638C19.562 5.49866 19.6143 4.3404 18.8055 3.67757C14.5823 0.21621 8.34085 0.456338 4.39858 4.39861C0.456308 8.34088 0.216179 14.5823 3.67754 18.8056C4.34037 19.6143 5.49863 19.562 6.16635 18.8943L12 13.0607L17.1265 18.1872C18.2004 19.2611 19.9416 19.2611 21.0156 18.1872C22.0895 17.1133 22.0895 15.372 21.0156 14.2981L20.3085 13.591C20.0156 13.2981 19.5407 13.2981 19.2478 13.591C18.9549 13.8839 18.9549 14.3588 19.2478 14.6517L19.9549 15.3588C20.4431 15.8469 20.4431 16.6384 19.9549 17.1265C19.4668 17.6147 18.6753 17.6147 18.1872 17.1265L13.0606 12L16.5513 8.50932C16.8442 8.21642 16.8442 7.74155 16.5513 7.44866C16.2584 7.15576 15.7836 7.15576 15.4907 7.44866L14.8208 8.11853C12.9735 6.37464 11.0256 5.05216 9.29542 4.31065C8.76303 4.08249 8.23968 3.90433 7.73737 3.78795ZM13.7597 9.17965C12.0215 7.54458 10.2302 6.34323 8.70454 5.68937C7.86058 5.32767 7.13447 5.14928 6.56462 5.13338C5.99696 5.11754 5.65695 5.26156 5.45924 5.45927C5.26153 5.65699 5.11751 5.99699 5.13335 6.56465C5.14925 7.1345 5.32764 7.86061 5.68934 8.70457C6.3432 10.2302 7.54455 12.0215 9.17962 13.7597L13.7597 9.17965ZM8.1185 14.8208C6.37461 12.9735 5.05212 11.0256 4.31062 9.29545C4.08245 8.76306 3.9043 8.23971 3.78792 7.7374C2.11461 10.9591 2.46442 14.9591 4.83767 17.8547C4.86364 17.8864 4.89692 17.9031 4.94319 17.9038C4.99384 17.9046 5.05498 17.8843 5.10569 17.8336L8.1185 14.8208Z" fill="#231F2C"/>
</svg>
