<svg width="24" height="24" viewBox="0 0 24 24" fill="none" xmlns="http://www.w3.org/2000/svg">
<path fill-rule="evenodd" clip-rule="evenodd" d="M10 2.25C10.4142 2.25 10.75 2.58579 10.75 3V3.93696C10.75 4.45216 10.5975 4.95583 10.3117 5.3845C10.0632 5.75722 10.0632 6.24278 10.3117 6.6155L10.624 7.08397C10.8538 7.42862 10.7607 7.89427 10.416 8.12404C10.0714 8.3538 9.60573 8.26067 9.37596 7.91603L9.06364 7.44755C8.47927 6.57098 8.47927 5.42902 9.06364 4.55245C9.18516 4.37018 9.25 4.15602 9.25 3.93696V3C9.25 2.58579 9.58579 2.25 10 2.25ZM7.5 3.25C7.91421 3.25 8.25 3.58579 8.25 4C8.25 4.47409 8.10967 4.93758 7.84669 5.33205L7.81172 5.3845C7.56324 5.75722 7.56324 6.24278 7.81172 6.6155L8.12404 7.08397C8.3538 7.42862 8.26067 7.89427 7.91603 8.12404C7.57138 8.3538 7.10573 8.26067 6.87596 7.91603L6.56364 7.44755C5.97927 6.57098 5.97927 5.42902 6.56364 4.55245L6.59861 4.5C6.69732 4.35193 6.75 4.17796 6.75 4C6.75 3.58579 7.08579 3.25 7.5 3.25ZM12.5 3.25C12.9142 3.25 13.25 3.58579 13.25 4C13.25 4.47409 13.1097 4.93758 12.8467 5.33205L12.8117 5.3845C12.5632 5.75722 12.5632 6.24278 12.8117 6.6155L13.124 7.08398C13.3538 7.42862 13.2607 7.89427 12.916 8.12404C12.5714 8.3538 12.1057 8.26067 11.876 7.91602L11.5636 7.44755C10.9793 6.57098 10.9793 5.42902 11.5636 4.55245L11.5986 4.5C11.6973 4.35193 11.75 4.17796 11.75 4C11.75 3.58579 12.0858 3.25 12.5 3.25ZM2.25 10C2.25 9.58579 2.58579 9.25 3 9.25H12C12.4142 9.25 12.75 9.58579 12.75 10C12.75 10.4142 12.4142 10.75 12 10.75H3.75V12C3.75 15.4518 6.54822 18.25 10 18.25C13.4518 18.25 16.25 15.4518 16.25 12V10.75H15C14.5858 10.75 14.25 10.4142 14.25 10C14.25 9.58579 14.5858 9.25 15 9.25H17C17.4142 9.25 17.75 9.58579 17.75 10V10.25H20C20.9665 10.25 21.75 11.0335 21.75 12C21.75 14.6234 19.6234 16.75 17 16.75H16.1242C14.7063 18.5754 12.4903 19.75 10 19.75C5.71979 19.75 2.25 16.2802 2.25 12V10ZM17.0378 15.2498C18.8153 15.2295 20.25 13.7823 20.25 12C20.25 11.8619 20.1381 11.75 20 11.75H17.75V12C17.75 13.1605 17.4949 14.2614 17.0378 15.2498ZM2.25 21C2.25 20.5858 2.58579 20.25 3 20.25H17C17.4142 20.25 17.75 20.5858 17.75 21C17.75 21.4142 17.4142 21.75 17 21.75H3C2.58579 21.75 2.25 21.4142 2.25 21Z" fill="#231F2C"/>
</svg>
