<svg width="24" height="24" viewBox="0 0 24 24" fill="none" xmlns="http://www.w3.org/2000/svg">
<path d="M9.19838 3.18166C10.0812 2.90146 11.0222 2.75 12 2.75C15.6145 2.75 18.7461 4.82298 20.2684 7.84833C20.8962 9.09595 21.25 10.5056 21.25 12C21.25 13.4495 20.9171 14.8191 20.3244 16.0385C20.0687 16.5644 19.7646 17.0626 19.4177 17.5273C19.1699 17.8593 19.2381 18.3292 19.5701 18.577C19.902 18.8248 20.372 18.7566 20.6197 18.4246C21.0226 17.8849 21.3761 17.3059 21.6734 16.6943C22.3634 15.275 22.75 13.6816 22.75 12C22.75 10.2661 22.339 8.62613 21.6083 7.1741C19.8412 3.66212 16.2029 1.25 12 1.25C10.8664 1.25 9.77242 1.42572 8.74459 1.75195C4.39975 3.13099 1.25 7.19668 1.25 12C1.25 12.18 1.25443 12.359 1.26319 12.5369C1.54327 18.2248 6.24296 22.75 12 22.75C14.432 22.75 16.6774 21.9415 18.479 20.5789C18.8093 20.329 18.8746 19.8587 18.6247 19.5283C18.3749 19.1979 17.9045 19.1327 17.5741 19.3825C16.024 20.5549 14.0943 21.25 12 21.25C7.04667 21.25 3.00232 17.3563 2.76137 12.4631C2.75382 12.3098 2.75 12.1554 2.75 12C2.75 7.86903 5.45847 4.3687 9.19838 3.18166Z" fill="#231F2C"/>
<path d="M4.40991 8.34631L6.49088 15.619H7.98946L9.37085 10.8641H9.42767L10.8126 15.619H12.3112L14.3922 8.34631H12.7125L11.5086 13.4102H11.4447L10.1201 8.34631H8.68193L7.3538 13.3996H7.29344L6.0896 8.34631H4.40991Z" fill="#231F2C"/>
<path fill-rule="evenodd" clip-rule="evenodd" d="M15.6377 15.3847C16.0425 15.6119 16.5255 15.7256 17.0866 15.7256C17.5364 15.7256 17.9329 15.6569 18.2762 15.5196C18.6219 15.3799 18.9036 15.1858 19.1214 14.9372C19.3416 14.6863 19.4871 14.3927 19.5582 14.0565L18.159 13.9642C18.1069 14.1015 18.0312 14.2175 17.9318 14.3122C17.8323 14.4069 17.7128 14.4779 17.5731 14.5253C17.4334 14.5726 17.2795 14.5963 17.1114 14.5963C16.8581 14.5963 16.6391 14.543 16.4545 14.4365C16.2698 14.33 16.1266 14.1785 16.0248 13.982C15.9254 13.7855 15.8756 13.5523 15.8756 13.2824V13.2788H19.5901V12.8634C19.5901 12.3993 19.525 11.9945 19.3948 11.6489C19.2646 11.3009 19.0823 11.012 18.8479 10.7824C18.6159 10.5528 18.3437 10.3811 18.0312 10.2675C17.7211 10.1515 17.3861 10.0935 17.0262 10.0935C16.4912 10.0935 16.0248 10.2118 15.6271 10.4486C15.2317 10.6853 14.9251 11.0156 14.7073 11.4394C14.4895 11.8631 14.3806 12.3555 14.3806 12.9166C14.3806 13.4919 14.4895 13.9903 14.7073 14.4117C14.9251 14.8307 15.2353 15.155 15.6377 15.3847ZM15.8771 12.3413C15.8862 12.1455 15.9366 11.9667 16.0283 11.8051C16.1278 11.6276 16.2651 11.4867 16.4403 11.3825C16.6178 11.276 16.8214 11.2227 17.0511 11.2227C17.2712 11.2227 17.4642 11.2713 17.6299 11.3683C17.798 11.463 17.9294 11.5944 18.0241 11.7625C18.1188 11.9306 18.1661 12.1235 18.1661 12.3413H15.8771Z" fill="#231F2C"/>
</svg>
