<svg width="24" height="24" viewBox="0 0 24 24" fill="none" xmlns="http://www.w3.org/2000/svg">
<path fill-rule="evenodd" clip-rule="evenodd" d="M13.7623 4.9048C15.5344 4.31365 18.3941 4.12696 20.2024 4.32803L21.1934 4.43823C22.0796 4.53677 22.75 5.28585 22.75 6.17751L22.75 12C22.75 12.4142 22.4142 12.75 22 12.75C21.5858 12.75 21.25 12.4142 21.25 12L21.25 6.17751C21.25 6.05013 21.1542 5.94312 21.0276 5.92904L20.0366 5.81885C18.3934 5.63612 15.7595 5.81983 14.237 6.32771L12.75 6.82374L12.75 18.4709L13.7623 18.1332C15.5344 17.5421 18.3941 17.3554 20.2024 17.5564L20.9724 17.6421C21.1205 17.6585 21.25 17.5426 21.25 17.3936L21.25 15.0229C21.25 14.6087 21.5858 14.2729 22 14.2729C22.4142 14.2729 22.75 14.6087 22.75 15.0229L22.75 17.3936C22.75 18.4367 21.8433 19.2481 20.8066 19.1329L20.0366 19.0473C18.3934 18.8645 15.7594 19.0482 14.2369 19.5561L12.2373 20.2232C12.0833 20.2746 11.9167 20.2746 11.7627 20.2232L9.76306 19.5561C8.24056 19.0482 5.60662 18.8645 3.96336 19.0473L3.1934 19.1329C2.15671 19.2481 1.25 18.4367 1.25 17.3936L1.25001 6.17751C1.25001 5.28585 1.92042 4.53677 2.80661 4.43823L3.79761 4.32803C5.60591 4.12696 8.46565 4.31365 10.2377 4.9048L12 5.49267L13.7623 4.9048ZM11.25 6.82374L9.76307 6.32771C8.24057 5.81983 5.60663 5.63612 3.96338 5.81885L2.97238 5.92904C2.84578 5.94312 2.75001 6.05013 2.75001 6.17751L2.75 17.3936C2.75 17.5426 2.87953 17.6585 3.02763 17.6421L3.79759 17.5564C5.6059 17.3554 8.46563 17.5421 10.2377 18.1332L11.25 18.4709L11.25 6.82374ZM14.3106 7.72016C15.8552 7.31694 17.9526 7.16297 19.5416 7.25114C19.9551 7.27409 20.2718 7.62796 20.2488 8.04154C20.2259 8.45512 19.872 8.77178 19.4584 8.74884C17.9928 8.66751 16.0552 8.815 14.6894 9.17152C14.2886 9.27614 13.8789 9.03605 13.7743 8.63527C13.6697 8.23449 13.9098 7.82478 14.3106 7.72016ZM7.50031 8.44125L7 8.99999L6.49969 8.44125C6.78449 8.18623 7.21551 8.18623 7.50031 8.44125ZM8.72974 11.3384C8.74282 11.2269 8.75 11.1138 8.75 11C8.75 10.2294 8.40647 9.57845 8.1171 9.15952C7.96748 8.94291 7.81865 8.7686 7.70646 8.64748C7.65002 8.58655 7.60192 8.53809 7.56636 8.50344C7.54855 8.48609 7.53381 8.47213 7.52265 8.46172L7.50863 8.44878L7.50374 8.44433L7.50184 8.44262L7.50031 8.44125C7.50014 8.44109 7.50031 8.44125 7 8.99999C6.49969 8.44125 6.49986 8.44109 6.49969 8.44125L6.49816 8.44262L6.49626 8.44433L6.49137 8.44878L6.47735 8.46172C6.46619 8.47213 6.45145 8.48609 6.43364 8.50344C6.39808 8.53809 6.34998 8.58655 6.29354 8.64748C6.18135 8.7686 6.03252 8.94291 5.8829 9.15952C5.59353 9.57845 5.25 10.2294 5.25 11C5.25 11.0606 5.25225 11.121 5.25654 11.181C4.99811 11.1551 4.76942 11.159 4.60491 11.1693C4.52147 11.1744 4.45264 11.1813 4.4025 11.1873C4.37738 11.1903 4.35681 11.1931 4.3413 11.1953L4.32182 11.1982L4.31501 11.1993L4.31235 11.1997L4.31121 11.1999C4.31097 11.1999 4.3102 11.2 4.43258 11.94L4.3102 11.2C3.98458 11.2539 3.73244 11.5143 3.68908 11.8415L4.43258 11.94C3.68908 11.8415 3.68911 11.8413 3.68908 11.8415L3.68884 11.8433L3.68853 11.8457L3.68772 11.8521L3.68543 11.8713C3.68364 11.8869 3.68136 11.9081 3.67887 11.9342C3.67389 11.9864 3.66805 12.0588 3.66365 12.1472C3.65492 12.3226 3.65159 12.5666 3.67395 12.8416C3.71605 13.3594 3.85961 14.1308 4.37594 14.7076C4.88715 15.2787 5.59925 15.5032 6.09264 15.5982C6.35119 15.648 6.58154 15.6683 6.74781 15.6763C6.83153 15.6804 6.90055 15.6814 6.95063 15.6813C6.97572 15.6813 6.99617 15.6809 7.01147 15.6806L7.03053 15.6801L7.03706 15.6798L7.04062 15.6797C7.04066 15.6797 7.04118 15.6797 7.04105 15.6758C7.04094 15.6758 7.04117 15.6758 7.04105 15.6758L7.04062 15.6797C7.04938 15.6793 7.05902 15.6788 7.06769 15.6781C7.10335 15.6811 7.14389 15.6839 7.18866 15.6862C7.3528 15.6945 7.58115 15.6958 7.83923 15.6667C8.33472 15.6108 9.05567 15.429 9.58327 14.8396C10.0965 14.2663 10.2459 13.5037 10.2924 12.9889C10.3171 12.7162 10.316 12.4744 10.3089 12.3005C10.3054 12.213 10.3002 12.1411 10.2958 12.0894C10.2935 12.0635 10.2915 12.0425 10.2898 12.027L10.2877 12.0078L10.287 12.0015L10.2867 11.9991L10.2865 11.9977C10.2865 11.9975 10.2864 11.9973 9.54211 12.0892L10.2865 11.9977C10.2454 11.6647 9.988 11.3991 9.6564 11.348L9.54211 12.0892C9.6564 11.348 9.65665 11.348 9.6564 11.348L9.65423 11.3476L9.65157 11.3472L9.64476 11.3462L9.62535 11.3436C9.60991 11.3415 9.58947 11.339 9.56453 11.3363C9.51474 11.331 9.44645 11.3249 9.36369 11.3207C9.20308 11.3126 8.981 11.3111 8.72974 11.3384ZM7.02273 11.8994C7.15844 11.5907 7.25 11.2747 7.25 11C7.25 10.7316 7.14897 10.4535 7 10.1964C6.85103 10.4535 6.75 10.7316 6.75 11C6.75 11.2648 6.85768 11.5821 7.02273 11.8994ZM6.25336 14.0978C6.25285 14.0922 6.25232 14.0866 6.25178 14.0811C6.20527 13.6023 6.08457 13.2035 5.90345 13.0012C5.74502 12.8242 5.48243 12.7204 5.16601 12.6802C5.16693 12.6934 5.16793 12.7067 5.16902 12.72C5.20321 13.1406 5.31075 13.5029 5.49357 13.7072C5.66034 13.8935 5.93545 14.0214 6.25336 14.0978C6.25339 14.0974 6.25334 14.0981 6.25336 14.0978ZM7.76249 14.1639C8.05948 14.1177 8.30983 14.0132 8.46564 13.8391C8.65159 13.6314 8.761 13.2689 8.79851 12.8539C8.79889 12.8497 8.79925 12.8456 8.79961 12.8415C8.49835 12.8869 8.24422 12.9918 8.08671 13.1677C7.90814 13.3672 7.80016 13.7094 7.75865 14.1038C7.76004 14.124 7.76132 14.1441 7.76249 14.1639ZM4.55101 12.6806C4.55098 12.6806 4.55099 12.6806 4.55101 12.6806V12.6806ZM14.3106 11.2743C15.8552 10.8711 17.9526 10.7171 19.5416 10.8053C19.9551 10.8282 20.2718 11.1821 20.2488 11.5957C20.2259 12.0093 19.872 12.3259 19.4584 12.303C17.9928 12.2217 16.0552 12.3692 14.6894 12.7257C14.2886 12.8303 13.8789 12.5902 13.7743 12.1894C13.6697 11.7886 13.9098 11.3789 14.3106 11.2743ZM14.3106 14.7431C15.8552 14.3399 17.9526 14.1859 19.5416 14.274C19.9551 14.297 20.2718 14.6509 20.2488 15.0644C20.2259 15.478 19.872 15.7947 19.4584 15.7717C17.9928 15.6904 16.0552 15.8379 14.6894 16.1944C14.2886 16.2991 13.8789 16.059 13.7743 15.6582C13.6697 15.2574 13.9098 14.8477 14.3106 14.7431Z" fill="#231F2C"/>
</svg>
