<svg width="24" height="24" viewBox="0 0 24 24" fill="none" xmlns="http://www.w3.org/2000/svg">
<path fill-rule="evenodd" clip-rule="evenodd" d="M18.0868 3.94016C17.8337 3.6871 17.4285 3.68613 17.1745 3.94016C16.8944 4.22019 16.5075 5.00764 17.0395 5.91043C17.2132 6.20502 17.1655 6.57976 16.9237 6.82156L16.153 7.5923L16.4077 7.84697L17.1784 7.07623C17.4202 6.83443 17.7949 6.7868 18.0895 6.96042C18.9923 7.49248 19.7798 7.10553 20.0598 6.8255C20.3138 6.57147 20.3129 6.16623 20.0598 5.91316C19.8067 5.6601 19.4015 5.65913 19.1475 5.91316C18.8546 6.20606 18.3797 6.20606 18.0868 5.91316C17.7939 5.62027 17.7939 5.1454 18.0868 4.8525C18.3408 4.59847 18.3399 4.19323 18.0868 3.94016ZM19.7704 4.22953C19.732 3.7372 19.5238 3.25589 19.1475 2.8795C18.3109 2.04291 16.9559 2.03742 16.1138 2.8795C15.5445 3.44877 14.9377 4.7163 15.487 6.13697L14.914 6.70996C13.9623 6.35963 12.8544 6.55217 12.0711 7.29408L11.8156 7.53607C11.2192 8.10103 10.2896 8.28985 9.23019 8.25391C7.42821 8.19276 5.60361 8.85045 4.22703 10.227C1.59099 12.8631 1.59099 17.1369 4.22703 19.773C6.77408 22.32 10.8497 22.406 13.5005 20.0309C13.809 19.7545 13.835 19.2804 13.5586 18.9719C13.2822 18.6634 12.808 18.6374 12.4995 18.9138C10.4387 20.7602 7.26842 20.693 5.28769 18.7123C3.23744 16.6621 3.23744 13.3379 5.28769 11.2877C6.35841 10.217 7.77521 9.7054 9.17932 9.75304C10.3701 9.79345 11.809 9.6084 12.8472 8.62509L13.1026 8.3831C13.5327 7.97574 14.1781 7.93275 14.6535 8.24892C14.7216 8.29417 14.7862 8.34678 14.8461 8.40673L15.5933 9.15391C16.0721 9.63275 16.0826 10.4058 15.6169 10.8974L15.375 11.1528C14.3916 12.1909 14.2066 13.6299 14.247 14.8207C14.2691 15.4733 14.1703 16.1288 13.951 16.7506C13.8133 17.1412 14.0183 17.5695 14.4089 17.7073C14.7995 17.8451 15.2279 17.6401 15.3656 17.2494C15.6478 16.4493 15.7745 15.6072 15.7461 14.7699C15.7102 13.7104 15.899 12.7808 16.464 12.1843L16.7059 11.929C17.4479 11.1457 17.6404 10.0376 17.29 9.08592L17.863 8.51297C19.2837 9.06228 20.5512 8.45543 21.1205 7.88616C21.9625 7.04409 21.957 5.68909 21.1205 4.8525C20.7441 4.47612 20.2628 4.26796 19.7704 4.22953Z" fill="#231F2C"/>
</svg>
