<svg width="24" height="24" viewBox="0 0 24 24" fill="none" xmlns="http://www.w3.org/2000/svg">
<path fill-rule="evenodd" clip-rule="evenodd" d="M12 2.75C6.89137 2.75 2.75 6.89137 2.75 12C2.75 17.1086 6.89137 21.25 12 21.25C15.0258 21.25 17.7122 19.798 19.4011 17.5496C19.6498 17.2184 20.12 17.1516 20.4512 17.4003C20.7824 17.6491 20.8492 18.1192 20.6004 18.4504C18.6404 21.0598 15.5175 22.75 12 22.75C6.06294 22.75 1.25 17.9371 1.25 12C1.25 6.06294 6.06294 1.25 12 1.25C17.9371 1.25 22.75 6.06294 22.75 12C22.75 13.3223 22.5109 14.5905 22.0729 15.7625C21.928 16.1505 21.4959 16.3475 21.1079 16.2026C20.7199 16.0576 20.5229 15.6255 20.6678 15.2375C21.044 14.2308 21.25 13.1403 21.25 12C21.25 6.89137 17.1086 2.75 12 2.75ZM6.4 7.55C6.64853 7.21863 7.11863 7.15147 7.45 7.4L9.45 8.9C9.63885 9.04164 9.75 9.26393 9.75 9.5C9.75 9.73607 9.63885 9.95836 9.45 10.1L7.45 11.6C7.11863 11.8485 6.64853 11.7814 6.4 11.45C6.15147 11.1186 6.21863 10.6485 6.55 10.4L7.75 9.5L6.55 8.6C6.21863 8.35147 6.15147 7.88137 6.4 7.55ZM17.6 7.55C17.8485 7.88137 17.7814 8.35147 17.45 8.6L16.25 9.5L17.45 10.4C17.7814 10.6485 17.8485 11.1186 17.6 11.45C17.3515 11.7814 16.8814 11.8485 16.55 11.6L14.55 10.1C14.3611 9.95836 14.25 9.73607 14.25 9.5C14.25 9.26393 14.3611 9.04164 14.55 8.9L16.55 7.4C16.8814 7.15147 17.3515 7.21863 17.6 7.55ZM4.71494 13.5184C4.87661 13.3254 5.12433 13.2264 5.37448 13.2548L5.42307 13.2602L5.56521 13.2759C5.68904 13.2895 5.86884 13.3089 6.09194 13.3321C6.53826 13.3788 7.15716 13.4409 7.84737 13.503C9.23673 13.628 10.8842 13.75 12 13.75C13.053 13.75 14.6997 13.6281 16.1065 13.5029C16.8048 13.4408 17.4358 13.3786 17.8921 13.332C18.1202 13.3087 18.3045 13.2893 18.4317 13.2757L18.5777 13.26L18.6272 13.2546C18.877 13.227 19.1247 13.3263 19.2858 13.5192C19.4469 13.7122 19.5007 13.973 19.429 14.2139C18.4764 17.4147 15.5119 19.75 12 19.75C8.48812 19.75 5.52363 17.4147 4.57104 14.2139C4.49922 13.9726 4.55327 13.7114 4.71494 13.5184ZM6.44966 14.8766C7.49079 16.8813 9.58626 18.25 12 18.25C14.4149 18.25 16.5112 16.8799 17.5519 14.8737C17.1689 14.9115 16.7201 14.9542 16.2394 14.997C14.8363 15.1218 13.128 15.25 12 15.25C10.8097 15.25 9.10214 15.1219 7.71295 14.9969C7.25007 14.9553 6.8191 14.9137 6.44966 14.8766Z" fill="#231F2C"/>
</svg>
