<svg width="24" height="24" viewBox="0 0 24 24" fill="none" xmlns="http://www.w3.org/2000/svg">
<path fill-rule="evenodd" clip-rule="evenodd" d="M12.6171 2.57375L12 3L11.3829 2.57375C11.5229 2.37102 11.7536 2.25 12 2.25C12.2464 2.25 12.4771 2.37102 12.6171 2.57375ZM12 4.4361C11.9404 4.54818 11.8866 4.65667 11.8429 4.75618C11.7826 4.89355 11.7614 4.96986 11.754 4.99659C11.751 5.00739 11.7502 5.01009 11.7501 5.00546C11.75 5.00419 11.75 5.00237 11.75 5M12 4.4361C12.0596 4.54818 12.1134 4.65667 12.1571 4.75618C12.2174 4.89355 12.2386 4.96986 12.246 4.99659C12.249 5.00739 12.2498 5.01009 12.2499 5.00546C12.247 5.14101 12.1362 5.25 12 5.25C11.8638 5.25 11.753 5.14101 11.7501 5.00546M12 3C11.3829 2.57375 11.3829 2.57368 11.3829 2.57375L11.3788 2.57969L11.3692 2.59378L11.3347 2.64478C11.3054 2.68832 11.2641 2.75039 11.2148 2.82634C11.1165 2.97759 10.9844 3.18698 10.8513 3.41656C10.7195 3.64368 10.5792 3.90337 10.4696 4.15283C10.3735 4.3715 10.25 4.69159 10.25 5C10.25 5.9665 11.0335 6.75 12 6.75C12.9665 6.75 13.75 5.9665 13.75 5C13.75 4.69159 13.6265 4.3715 13.5304 4.15283C13.4208 3.90337 13.2805 3.64368 13.1487 3.41656C13.0156 3.18698 12.8835 2.97759 12.7852 2.82634C12.7359 2.75039 12.6946 2.68832 12.6653 2.64478L12.6308 2.59378L12.6212 2.57969L12.6171 2.57375C12.6171 2.57368 12.6171 2.57375 12 3ZM12 7.25C12.4142 7.25 12.75 7.58579 12.75 8V9.25H19C20.5188 9.25 21.75 10.4812 21.75 12V16C21.75 16.4142 21.4142 16.75 21 16.75C20.9942 16.75 20.9884 16.7499 20.9826 16.7498C20.9768 16.7499 20.9709 16.75 20.9651 16.75H20C18.8474 16.75 17.8163 16.23 17.1284 15.4119C16.5375 16.2229 15.5803 16.75 14.5 16.75C13.4948 16.75 12.5962 16.2936 12 15.5768C11.4038 16.2936 10.5052 16.75 9.5 16.75C8.4197 16.75 7.46252 16.2229 6.87157 15.4119C6.18368 16.23 5.15256 16.75 4 16.75H3.75V19C3.75 19.6904 4.30964 20.25 5 20.25H19C19.6904 20.25 20.25 19.6904 20.25 19V18.8798C20.25 18.4656 20.5858 18.1298 21 18.1298C21.4142 18.1298 21.75 18.4656 21.75 18.8798V19C21.75 20.5188 20.5188 21.75 19 21.75H5C3.48122 21.75 2.25 20.5188 2.25 19V12C2.25 10.4812 3.48122 9.25 5 9.25H11.25V8C11.25 7.58579 11.5858 7.25 12 7.25ZM3.75 15.25H4C5.24264 15.25 6.25 14.2426 6.25 13C6.25 12.5858 6.58579 12.25 7 12.25C7.41421 12.25 7.75 12.5858 7.75 13V13.5C7.75 14.4665 8.5335 15.25 9.5 15.25C10.4665 15.25 11.25 14.4665 11.25 13.5V13C11.25 12.5858 11.5858 12.25 12 12.25C12.4142 12.25 12.75 12.5858 12.75 13V13.5C12.75 14.4665 13.5335 15.25 14.5 15.25C15.4665 15.25 16.25 14.4665 16.25 13.5V13C16.25 12.5858 16.5858 12.25 17 12.25C17.4142 12.25 17.75 12.5858 17.75 13C17.75 14.2426 18.7574 15.25 20 15.25H20.25V12C20.25 11.3096 19.6904 10.75 19 10.75H5C4.30964 10.75 3.75 11.3096 3.75 12V15.25Z" fill="#231F2C"/>
</svg>
