<svg width="24" height="24" viewBox="0 0 24 24" fill="none" xmlns="http://www.w3.org/2000/svg">
<path fill-rule="evenodd" clip-rule="evenodd" d="M16.2664 3.27437C16.2662 3.27443 16.2664 3.27437 16.2664 3.27437V3.27437ZM16.2734 3.27313C16.2747 3.273 16.2763 3.27289 16.278 3.27282C16.3085 3.27166 16.3674 3.28588 16.4198 3.33833L20.6619 7.58047C20.7144 7.63289 20.7285 7.69159 20.7273 7.72188C20.7272 7.72365 20.7271 7.7252 20.727 7.72653C19.8374 8.25415 18.7503 8.32013 17.8111 7.92565L18.511 7.78567C18.9172 7.70443 19.1806 7.30931 19.0993 6.90314C19.0181 6.49697 18.623 6.23356 18.2168 6.31479L17.5522 6.44772L17.6851 5.7831C17.7664 5.37693 17.503 4.98182 17.0968 4.90058C16.6906 4.81935 16.2955 5.08276 16.2143 5.48893L16.0743 6.18878C15.6799 5.24969 15.7459 4.16264 16.2734 3.27313ZM14.4304 5.94518C14.1779 4.78649 14.363 3.55171 14.9852 2.50463C15.5867 1.49233 16.8468 1.64401 17.4805 2.27767L21.7226 6.51981C22.3566 7.15384 22.5073 8.41357 21.4954 9.01481C20.4483 9.63694 19.2135 9.82206 18.0548 9.56954C18.3878 11.097 17.9605 12.757 16.7729 13.9445L16.5302 14.1872C16.2373 14.4801 15.7624 14.4801 15.4696 14.1872C15.1767 13.8943 15.1767 13.4195 15.4696 13.1266L15.7122 12.8839C16.9815 11.6147 16.9815 9.55687 15.7123 8.28769C15.2698 7.84521 14.7315 7.55699 14.1641 7.42303V12C14.1641 12.4142 13.8283 12.75 13.4141 12.75C12.9999 12.75 12.6641 12.4142 12.6641 12V7.42305C12.0968 7.55702 11.5585 7.84523 11.116 8.28769L8.28761 11.1161C7.01844 12.3853 7.01849 14.443 8.28772 15.7123C8.73017 16.1547 9.26843 16.4429 9.83571 16.5769V12C9.83571 11.5858 10.1715 11.25 10.5857 11.25C10.9999 11.25 11.3357 11.5858 11.3357 12V16.577C11.903 16.443 12.4413 16.1548 12.8838 15.7123L13.4696 15.1266C13.7624 14.8337 14.2373 14.8337 14.5302 15.1266C14.8231 15.4195 14.8231 15.8943 14.5302 16.1872L13.9445 16.773C12.7569 17.9605 11.097 18.3878 9.56959 18.0548C9.8221 19.2135 9.63697 20.4483 9.01482 21.4954C8.41373 22.507 7.15427 22.357 6.52003 21.7228L2.27733 17.4801C1.64325 16.846 1.49282 15.5864 2.50464 14.9852C3.55172 14.363 4.78648 14.1779 5.94517 14.4304C5.61215 12.9029 6.03938 11.243 7.22695 10.0555L10.0554 7.22703C11.2429 6.03946 12.9029 5.61218 14.4304 5.94518ZM6.18893 16.0743C5.24975 15.6798 4.16255 15.7458 3.27297 16.2734C3.27284 16.2748 3.27273 16.2763 3.27266 16.2781C3.27149 16.3084 3.28559 16.367 3.33801 16.4194L7.58066 20.6621C7.63307 20.7145 7.69167 20.7286 7.72185 20.7274C7.72362 20.7273 7.72517 20.7272 7.72651 20.7271C8.25419 19.8375 8.32018 18.7502 7.92566 17.811L7.78565 18.5111C7.70441 18.9172 7.30929 19.1806 6.90312 19.0994C6.49695 19.0182 6.23354 18.623 6.31478 18.2169L6.4477 17.5523L5.78309 17.6852C5.37692 17.7664 4.9818 17.503 4.90056 17.0968C4.81933 16.6907 5.08274 16.2955 5.48891 16.2143L6.18893 16.0743Z" fill="#231F2C"/>
</svg>
