<svg width="24" height="24" viewBox="0 0 24 24" fill="none" xmlns="http://www.w3.org/2000/svg">
<path fill-rule="evenodd" clip-rule="evenodd" d="M12 4.75C10.8612 4.75 9.78563 5.01205 8.82855 5.47844C8.45619 5.65989 8.00724 5.50513 7.82579 5.13278C7.64434 4.76042 7.7991 4.31147 8.17145 4.13002C9.32876 3.56607 10.6285 3.25 12 3.25C14.0685 3.25 15.9712 3.96872 17.4691 5.16944C17.7923 5.42852 17.8443 5.90054 17.5852 6.22373C17.3261 6.54692 16.8541 6.59889 16.5309 6.33982C15.2896 5.34472 13.7153 4.75 12 4.75ZM19.3514 4.26487C19.7012 4.19415 20.0525 4.37977 20.1911 4.70867L22.4873 10.1557C22.7879 10.7584 22.8285 11.4053 22.6209 12.0098C22.4161 12.6062 21.9886 13.1108 21.4368 13.4944L20.8813 13.9061C20.6788 14.0564 20.4514 14.2254 20.25 14.3756V19C20.25 19.4142 19.9142 19.75 19.5 19.75C19.0858 19.75 18.75 19.4142 18.75 19V14C18.75 13.7641 18.8609 13.542 19.0495 13.4004C19.2973 13.2142 19.6739 12.9342 19.9874 12.7015L20.5532 12.2823C20.5598 12.2774 20.5672 12.2721 20.5739 12.2674C20.929 12.0222 21.1223 11.7554 21.2023 11.5226C21.2777 11.303 21.2698 11.0684 21.1389 10.8132C21.1303 10.7965 21.1224 10.7795 21.1151 10.7622L20.25 8.70998V11C20.25 11.4142 19.9142 11.75 19.5 11.75C19.0858 11.75 18.75 11.4142 18.75 11V5C18.75 4.64307 19.0015 4.3356 19.3514 4.26487ZM2 4.25C2.41421 4.25 2.75 4.58579 2.75 5V8C2.75 8.69036 3.30964 9.25 4 9.25C4.69036 9.25 5.25 8.69036 5.25 8V5C5.25 4.58579 5.58579 4.25 6 4.25C6.41421 4.25 6.75 4.58579 6.75 5V8C6.75 9.25878 5.90425 10.32 4.75 10.6465V19C4.75 19.4142 4.41421 19.75 4 19.75C3.58579 19.75 3.25 19.4142 3.25 19V10.6465C2.09575 10.32 1.25 9.25878 1.25 8V5C1.25 4.58579 1.58579 4.25 2 4.25ZM12 7.75C9.65279 7.75 7.75 9.65279 7.75 12C7.75 14.3472 9.65279 16.25 12 16.25C14.3472 16.25 16.25 14.3472 16.25 12C16.25 9.65279 14.3472 7.75 12 7.75ZM6.25 12C6.25 8.82436 8.82436 6.25 12 6.25C15.1756 6.25 17.75 8.82436 17.75 12C17.75 15.1756 15.1756 17.75 12 17.75C8.82436 17.75 6.25 15.1756 6.25 12ZM12.5 9.75C12.9142 9.75 13.25 10.0858 13.25 10.5V12.5C13.25 12.7702 13.1047 13.0195 12.8695 13.1526C12.6344 13.2858 12.3458 13.2821 12.1141 13.1431L9.61413 11.6431C9.25894 11.43 9.14377 10.9693 9.35688 10.6141C9.56999 10.2589 10.0307 10.1438 10.3859 10.3569L11.75 11.1754V10.5C11.75 10.0858 12.0858 9.75 12.5 9.75ZM5.95545 17.2938C6.24027 16.993 6.71497 16.9801 7.01572 17.2649C8.31564 18.496 10.069 19.25 12 19.25C13.7153 19.25 15.2896 18.6553 16.5309 17.6602C16.8541 17.4011 17.3261 17.4531 17.5852 17.7763C17.8443 18.0995 17.7923 18.5715 17.4691 18.8306C15.9712 20.0313 14.0685 20.75 12 20.75C9.6702 20.75 7.55168 19.8385 5.98428 18.3541C5.68354 18.0692 5.67063 17.5945 5.95545 17.2938Z" fill="#231F2C"/>
</svg>
