<svg width="24" height="24" viewBox="0 0 24 24" fill="none" xmlns="http://www.w3.org/2000/svg">
<path fill-rule="evenodd" clip-rule="evenodd" d="M21.5303 2.46968C21.7896 2.72893 21.8234 3.1376 21.6103 3.43594L19.7845 5.99206L21.1471 6.26457C21.4977 6.33469 21.75 6.6425 21.75 7.00001C21.75 7.35752 21.4977 7.66533 21.1471 7.73545L18.6471 8.23545C18.4012 8.28462 18.147 8.20766 17.9697 8.03034L15.9697 6.03034C15.7924 5.85302 15.7154 5.59882 15.7646 5.35292L16.2646 2.85292C16.3347 2.50235 16.6425 2.25001 17 2.25001C17.3575 2.25001 17.6653 2.50235 17.7354 2.85292L18.008 4.21551L20.5641 2.38971C20.8624 2.17661 21.2711 2.21043 21.5303 2.46968ZM9.30242 5.89598C10.1449 4.82806 11.6101 4.27655 12.9689 4.92497C13.961 5.39841 15.2478 6.18712 16.5303 7.46967C17.8129 8.75226 18.6017 10.0391 19.0751 11.0312C19.7235 12.39 19.172 13.8552 18.1041 14.6976C17.0107 15.5602 15.374 16.792 13.6278 17.8947C13.0619 18.252 12.4868 18.5884 11.9031 18.9087C11.5399 19.1079 11.084 18.975 10.8848 18.6118C10.6856 18.2486 10.8185 17.7927 11.1816 17.5935C11.4669 17.437 11.7493 17.2769 12.0287 17.1127L10.4658 15.5264C10.175 15.2313 10.1786 14.7565 10.4736 14.4658C10.7687 14.175 11.2435 14.1786 11.5343 14.4736L13.3342 16.3004C14.8278 15.3243 16.2112 14.2804 17.175 13.52C17.8109 13.0184 18.0076 12.277 17.7214 11.6772C17.3096 10.8143 16.6138 9.67443 15.4697 8.53035C14.3256 7.38628 13.1858 6.69052 12.3228 6.27872C11.723 5.99248 10.9817 6.18917 10.4801 6.82504C10.3959 6.93172 10.3082 7.04363 10.2174 7.16034L12.5299 9.46927C12.823 9.76194 12.8234 10.2368 12.5307 10.5299C12.2381 10.8231 11.7632 10.8234 11.4701 10.5307L9.30294 8.36694C8.43041 9.54913 7.45561 10.9645 6.65124 12.3721C6.25876 13.0589 5.90382 13.7906 5.58719 14.5227L6.53141 15.4708C6.82371 15.7642 6.82275 16.2391 6.52926 16.5314C6.23578 16.8237 5.76091 16.8228 5.46861 16.5293L4.98101 16.0397C4.45016 17.4759 4.08745 18.7608 3.89426 19.5043C3.8535 19.6612 3.89807 19.8374 4.03039 19.9697C4.16271 20.102 4.33885 20.1466 4.49574 20.1058C5.36811 19.8791 6.98742 19.4187 8.72208 18.7266C9.1068 18.5731 9.54312 18.7605 9.69662 19.1452C9.85013 19.5299 9.66269 19.9662 9.27797 20.1197C7.46479 20.8432 5.7805 21.3218 4.87296 21.5576C4.17734 21.7383 3.46024 21.5209 2.96973 21.0303C2.47922 20.5398 2.26172 19.8227 2.44247 19.1271C2.6916 18.1683 3.2122 16.3406 4.0069 14.4097C4.38782 13.4842 4.83468 12.5277 5.34888 11.6279C6.36244 9.85417 7.61999 8.09159 8.62425 6.77138C8.86671 6.45264 9.09504 6.15886 9.30242 5.89598Z" fill="#231F2C"/>
</svg>
