<svg width="24" height="24" viewBox="0 0 24 24" fill="none" xmlns="http://www.w3.org/2000/svg">
<path d="M9.19838 3.18166C10.0812 2.90146 11.0222 2.75 12 2.75C15.6145 2.75 18.7461 4.82298 20.2684 7.84833C20.8962 9.09595 21.25 10.5056 21.25 12C21.25 13.4495 20.9171 14.8191 20.3244 16.0385C20.0687 16.5644 19.7646 17.0626 19.4177 17.5273C19.1699 17.8593 19.2381 18.3292 19.5701 18.577C19.902 18.8248 20.372 18.7566 20.6197 18.4246C21.0226 17.8849 21.3761 17.3059 21.6734 16.6943C22.3634 15.275 22.75 13.6816 22.75 12C22.75 10.2661 22.339 8.62613 21.6083 7.1741C19.8412 3.66212 16.2029 1.25 12 1.25C10.8664 1.25 9.77242 1.42572 8.74459 1.75195C4.39975 3.13099 1.25 7.19668 1.25 12C1.25 12.18 1.25443 12.359 1.26319 12.5369C1.54327 18.2248 6.24296 22.75 12 22.75C14.432 22.75 16.6774 21.9415 18.479 20.5789C18.8093 20.329 18.8746 19.8587 18.6247 19.5283C18.3749 19.1979 17.9045 19.1327 17.5741 19.3825C16.024 20.5549 14.0943 21.25 12 21.25C7.04667 21.25 3.00232 17.3563 2.76137 12.4631C2.75382 12.3098 2.75 12.1554 2.75 12C2.75 7.86903 5.45847 4.3687 9.19838 3.18166Z" fill="#231F2C"/>
<path d="M6.01099 8.34631V9.61407H8.23755V15.619H9.75743V9.61407H11.984V8.34631H6.01099Z" fill="#231F2C"/>
<path d="M14.452 15.619V12.4656C14.4544 12.2313 14.4994 12.0312 14.587 11.8655C14.6769 11.6974 14.8 11.5696 14.9563 11.482C15.1149 11.3944 15.2972 11.3506 15.5032 11.3506C15.8109 11.3506 16.05 11.4441 16.2205 11.6311C16.3933 11.8181 16.4786 12.0797 16.4762 12.4159V15.619H17.989V12.146C17.9913 11.7199 17.9132 11.3541 17.7546 11.0487C17.5983 10.741 17.3782 10.5054 17.0941 10.3421C16.8124 10.1763 16.4821 10.0935 16.1033 10.0935C15.689 10.0935 15.3446 10.1858 15.0699 10.3705C14.7953 10.5528 14.5964 10.8049 14.4733 11.1269H14.4094V8.34631H12.9393V15.619H14.452Z" fill="#231F2C"/>
</svg>
