<svg width="24" height="24" viewBox="0 0 24 24" fill="none" xmlns="http://www.w3.org/2000/svg">
<path fill-rule="evenodd" clip-rule="evenodd" d="M10.2954 2.31065C10.6762 2.47382 10.8525 2.91473 10.6894 3.29545L8.1374 9.25001H15.8626L13.3106 3.29545C13.1475 2.91473 13.3238 2.47382 13.7046 2.31065C14.0853 2.14748 14.5262 2.32385 14.6894 2.70457L17.4945 9.25001H20C20.9665 9.25001 21.75 10.0335 21.75 11C21.75 11.4924 21.624 12.7513 21.4705 14.1232C21.4244 14.5348 21.0534 14.8312 20.6418 14.7851C20.2301 14.7391 19.9338 14.368 19.9798 13.9564C20.138 12.5427 20.25 11.3873 20.25 11C20.25 10.8619 20.1381 10.75 20 10.75H4C3.86193 10.75 3.75 10.8619 3.75 11C3.75 11.4673 3.90988 13.0153 4.1109 14.7528C4.30851 16.461 4.53653 18.2781 4.65775 19.2315C4.67058 19.3324 4.73881 19.4002 4.82152 19.4179C6.10346 19.6936 9.06091 20.25 12 20.25C14.9391 20.25 17.8965 19.6936 19.1785 19.4179C19.2591 19.4006 19.3295 19.3322 19.3426 19.2292C19.4123 18.6803 19.5174 17.8459 19.6317 16.9108C19.682 16.4996 20.056 16.2071 20.4672 16.2573C20.8783 16.3076 21.1709 16.6817 21.1206 17.0928C21.006 18.0309 20.9006 18.8679 20.8306 19.4183C20.7399 20.1315 20.2175 20.7288 19.4938 20.8844C18.1761 21.1678 15.0972 21.75 12 21.75C8.90278 21.75 5.82391 21.1678 4.50619 20.8844C3.78452 20.7292 3.26067 20.136 3.16973 19.4207C3.04827 18.4654 2.81942 16.6417 2.62083 14.9252C2.42565 13.2381 2.25 11.5773 2.25 11C2.25 10.0335 3.0335 9.25001 4 9.25001H6.50545L9.31064 2.70457C9.47381 2.32385 9.91472 2.14748 10.2954 2.31065ZM6.92537 12.2537C7.33753 12.2125 7.70506 12.5132 7.74628 12.9254L8.24628 17.9254C8.28749 18.3375 7.98679 18.7051 7.57463 18.7463C7.16247 18.7875 6.79494 18.4868 6.75372 18.0746L6.25372 13.0746C6.21251 12.6625 6.51321 12.2949 6.92537 12.2537ZM17.0746 12.2537C17.4868 12.2949 17.7875 12.6625 17.7463 13.0746L17.2463 18.0746C17.2051 18.4868 16.8375 18.7875 16.4254 18.7463C16.0132 18.7051 15.7125 18.3375 15.7537 17.9254L16.2537 12.9254C16.2949 12.5132 16.6625 12.2125 17.0746 12.2537ZM12 12.25C12.4142 12.25 12.75 12.5858 12.75 13V18C12.75 18.4142 12.4142 18.75 12 18.75C11.5858 18.75 11.25 18.4142 11.25 18V13C11.25 12.5858 11.5858 12.25 12 12.25Z" fill="#231F2C"/>
</svg>
