<svg width="24" height="24" viewBox="0 0 24 24" fill="none" xmlns="http://www.w3.org/2000/svg">
<path fill-rule="evenodd" clip-rule="evenodd" d="M12 2.75C11.0222 2.75 10.0812 2.90146 9.19838 3.18166C5.45847 4.3687 2.75 7.86903 2.75 12C2.75 12.1554 2.75382 12.3098 2.76137 12.4631C3.00232 17.3563 7.04667 21.25 12 21.25C14.0943 21.25 16.024 20.5549 17.5741 19.3825C17.9045 19.1327 18.3749 19.1979 18.6247 19.5283C18.8746 19.8587 18.8093 20.329 18.479 20.5789C16.6774 21.9415 14.432 22.75 12 22.75C6.24296 22.75 1.54327 18.2248 1.26319 12.5369C1.25443 12.359 1.25 12.18 1.25 12C1.25 7.19668 4.39975 3.13099 8.74459 1.75195C9.77242 1.42572 10.8664 1.25 12 1.25C16.2029 1.25 19.8412 3.66212 21.6083 7.1741C22.339 8.62613 22.75 10.2661 22.75 12C22.75 13.6816 22.3634 15.275 21.6734 16.6943C21.3761 17.3059 21.0226 17.8849 20.6197 18.4246C20.372 18.7566 19.902 18.8248 19.5701 18.577C19.2381 18.3292 19.1699 17.8593 19.4177 17.5273C19.7646 17.0626 20.0687 16.5644 20.3244 16.0385C20.9171 14.8191 21.25 13.4495 21.25 12C21.25 10.5056 20.8962 9.09595 20.2684 7.84833C18.7461 4.82298 15.6145 2.75 12 2.75Z" fill="#231F2C"/>
<path d="M14.6212 15.722C14.2732 15.722 13.9631 15.6617 13.6908 15.5409C13.4186 15.4178 13.2031 15.2367 13.0445 14.9976C12.8883 14.7561 12.8101 14.4555 12.8101 14.0956C12.8101 13.7926 12.8658 13.5381 12.9771 13.3321C13.0883 13.1261 13.2398 12.9604 13.4316 12.835C13.6234 12.7095 13.8412 12.6148 14.085 12.5509C14.3312 12.4869 14.5893 12.442 14.8592 12.4159C15.1764 12.3828 15.4321 12.352 15.6262 12.3236C15.8203 12.2928 15.9612 12.2478 16.0488 12.1886C16.1364 12.1295 16.1802 12.0419 16.1802 11.9259V11.9046C16.1802 11.6797 16.1092 11.5056 15.9671 11.3825C15.8274 11.2594 15.6286 11.1979 15.3705 11.1979C15.0983 11.1979 14.8816 11.2583 14.7207 11.379C14.5597 11.4974 14.4531 11.6465 14.4011 11.8264L13.0019 11.7128C13.0729 11.3814 13.2126 11.0949 13.4209 10.8534C13.6293 10.6096 13.898 10.4226 14.2271 10.2923C14.5585 10.1598 14.942 10.0935 15.3776 10.0935C15.6806 10.0935 15.9707 10.129 16.2476 10.2C16.527 10.271 16.7744 10.3811 16.9898 10.5303C17.2076 10.6794 17.3793 10.8712 17.5047 11.1056C17.6302 11.3376 17.693 11.6157 17.693 11.9401V15.619H16.2583V14.8627H16.2157C16.1281 15.0331 16.0109 15.1834 15.8641 15.3136C15.7173 15.4415 15.541 15.5421 15.335 15.6155C15.129 15.6865 14.8911 15.722 14.6212 15.722ZM15.0545 14.678C15.277 14.678 15.4735 14.6342 15.644 14.5466C15.8144 14.4566 15.9482 14.3359 16.0452 14.1844C16.1423 14.0329 16.1908 13.8612 16.1908 13.6695V13.0906C16.1435 13.1214 16.0784 13.1498 15.9955 13.1759C15.915 13.1995 15.8239 13.222 15.7221 13.2433C15.6203 13.2623 15.5185 13.28 15.4167 13.2966C15.3149 13.3108 15.2226 13.3238 15.1397 13.3357C14.9621 13.3617 14.8071 13.4031 14.6745 13.46C14.5419 13.5168 14.4389 13.5937 14.3655 13.6908C14.2922 13.7855 14.2555 13.9038 14.2555 14.0459C14.2555 14.2519 14.33 14.4093 14.4792 14.5182C14.6307 14.6247 14.8225 14.678 15.0545 14.678Z" fill="#231F2C"/>
<path d="M10.4868 10.4379C10.4584 10.1515 10.3365 9.92894 10.121 9.77032C9.90561 9.61171 9.61324 9.5324 9.24392 9.5324C8.99297 9.5324 8.78109 9.56791 8.60827 9.63893C8.43544 9.70759 8.30287 9.80347 8.21054 9.92657C8.12058 10.0497 8.07559 10.1894 8.07559 10.3456C8.07086 10.4758 8.09809 10.5895 8.15727 10.6865C8.21882 10.7836 8.30287 10.8676 8.4094 10.9386C8.51594 11.0073 8.63904 11.0677 8.77872 11.1198C8.9184 11.1695 9.06755 11.2121 9.22616 11.2476L9.87957 11.4038C10.1968 11.4749 10.488 11.5696 10.7532 11.6879C11.0183 11.8063 11.2479 11.9519 11.4421 12.1247C11.6362 12.2976 11.7865 12.5011 11.8931 12.7355C12.002 12.9699 12.0576 13.2386 12.06 13.5416C12.0576 13.9867 11.944 14.3726 11.7191 14.6993C11.4965 15.0236 11.1746 15.2758 10.7532 15.4557C10.3341 15.6333 9.82867 15.722 9.23682 15.722C8.6497 15.722 8.13833 15.6321 7.70273 15.4521C7.26949 15.2722 6.93094 15.0059 6.6871 14.6531C6.44562 14.298 6.31897 13.8589 6.30713 13.3357H7.79506C7.81163 13.5795 7.88147 13.7831 8.00457 13.9465C8.13005 14.1074 8.29695 14.2294 8.50528 14.3122C8.71598 14.3927 8.95391 14.433 9.21906 14.433C9.47948 14.433 9.70557 14.3951 9.89733 14.3193C10.0915 14.2436 10.2418 14.1382 10.3483 14.0033C10.4549 13.8683 10.5081 13.7133 10.5081 13.5381C10.5081 13.3747 10.4596 13.2374 10.3625 13.1261C10.2678 13.0149 10.1282 12.9202 9.94349 12.8421C9.7612 12.7639 9.53748 12.6929 9.27233 12.629L8.48042 12.4301C7.86726 12.281 7.38312 12.0478 7.02801 11.7306C6.6729 11.4133 6.49652 10.986 6.49889 10.4486C6.49652 10.0083 6.61371 9.62355 6.85045 9.29447C7.08956 8.9654 7.41745 8.70854 7.83412 8.52388C8.25078 8.33922 8.72427 8.24689 9.25457 8.24689C9.79434 8.24689 10.2655 8.33922 10.6679 8.52388C11.0728 8.70854 11.3876 8.9654 11.6125 9.29447C11.8374 9.62355 11.9534 10.0047 11.9605 10.4379H10.4868Z" fill="#231F2C"/>
</svg>
