<svg width="24" height="24" viewBox="0 0 24 24" fill="none" xmlns="http://www.w3.org/2000/svg">
<path d="M5.0919 2.25C4.17478 2.25 3.21399 2.72269 2.82162 3.69726C2.54369 4.38758 2.25 5.37867 2.25 6.5C2.25 7.62133 2.54369 8.61242 2.82162 9.30274C3.21399 10.2773 4.17478 10.75 5.0919 10.75H7.9081C8.82522 10.75 9.78601 10.2773 10.1784 9.30274C10.4563 8.61242 10.75 7.62133 10.75 6.5C10.75 5.37867 10.4563 4.38758 10.1784 3.69726C9.78601 2.72269 8.82522 2.25 7.9081 2.25H5.0919Z" fill="#231F2C"/>
<path d="M16.0919 2.25C15.1748 2.25 14.214 2.72269 13.8216 3.69726C13.5437 4.38758 13.25 5.37867 13.25 6.5C13.25 7.62133 13.5437 8.61242 13.8216 9.30274C14.214 10.2773 15.1748 10.75 16.0919 10.75H18.9081C19.8252 10.75 20.786 10.2773 21.1784 9.30274C21.4563 8.61242 21.75 7.62133 21.75 6.5C21.75 5.37867 21.4563 4.38758 21.1784 3.69726C20.786 2.72269 19.8252 2.25 18.9081 2.25H16.0919Z" fill="#231F2C"/>
<path d="M5.0919 13.25C4.17478 13.25 3.21399 13.7227 2.82162 14.6973C2.54369 15.3876 2.25 16.3787 2.25 17.5C2.25 18.6213 2.54369 19.6124 2.82162 20.3027C3.21399 21.2773 4.17478 21.75 5.0919 21.75H7.9081C8.82522 21.75 9.78601 21.2773 10.1784 20.3027C10.4563 19.6124 10.75 18.6213 10.75 17.5C10.75 16.3787 10.4563 15.3876 10.1784 14.6973C9.78601 13.7227 8.82522 13.25 7.9081 13.25H5.0919Z" fill="#231F2C"/>
<path d="M16.0919 13.25C15.1748 13.25 14.214 13.7227 13.8216 14.6973C13.5437 15.3876 13.25 16.3787 13.25 17.5C13.25 18.6213 13.5437 19.6124 13.8216 20.3027C14.214 21.2773 15.1748 21.75 16.0919 21.75H18.9081C19.8252 21.75 20.786 21.2773 21.1784 20.3027C21.4563 19.6124 21.75 18.6213 21.75 17.5C21.75 16.3787 21.4563 15.3876 21.1784 14.6973C20.786 13.7227 19.8252 13.25 18.9081 13.25H16.0919Z" fill="#231F2C"/>
</svg>
