<svg width="24" height="24" viewBox="0 0 24 24" fill="none" xmlns="http://www.w3.org/2000/svg">
<path d="M5.56155 2.25C4.30387 2.25 3.17872 3.11354 2.94575 4.39479C2.64764 6.03435 2.25 8.81602 2.25 12C2.25 15.184 2.64764 17.9656 2.94575 19.6052C3.17872 20.8865 4.30387 21.75 5.56155 21.75H7.43845C8.69613 21.75 9.82128 20.8865 10.0542 19.6052C10.3524 17.9657 10.75 15.184 10.75 12C10.75 8.81602 10.3524 6.03435 10.0542 4.39479C9.82128 3.11354 8.69613 2.25 7.43845 2.25H5.56155Z" fill="#231F2C"/>
<path d="M16.5616 2.25C15.3039 2.25 14.1787 3.11354 13.9458 4.39479C13.6476 6.03435 13.25 8.81602 13.25 12C13.25 15.184 13.6476 17.9656 13.9458 19.6052C14.1787 20.8865 15.3039 21.75 16.5616 21.75H18.4384C19.6961 21.75 20.8213 20.8865 21.0542 19.6052C21.3524 17.9657 21.75 15.184 21.75 12C21.75 8.81602 21.3524 6.03435 21.0542 4.39479C20.8213 3.11354 19.6961 2.25 18.4384 2.25H16.5616Z" fill="#231F2C"/>
</svg>
