<svg width="24" height="24" viewBox="0 0 24 24" fill="none" xmlns="http://www.w3.org/2000/svg">
<path d="M4 2.25C3.0335 2.25 2.25 3.0335 2.25 4V6C2.25 6.9665 3.0335 7.75 4 7.75H6C6.9665 7.75 7.75 6.9665 7.75 6V4C7.75 3.0335 6.9665 2.25 6 2.25H4Z" fill="#231F2C"/>
<path d="M11 2.25C10.0335 2.25 9.25 3.0335 9.25 4V6C9.25 6.9665 10.0335 7.75 11 7.75H13C13.9665 7.75 14.75 6.9665 14.75 6V4C14.75 3.0335 13.9665 2.25 13 2.25H11Z" fill="#231F2C"/>
<path d="M18 2.25C17.0335 2.25 16.25 3.0335 16.25 4V6C16.25 6.9665 17.0335 7.75 18 7.75H20C20.9665 7.75 21.75 6.9665 21.75 6V4C21.75 3.0335 20.9665 2.25 20 2.25H18Z" fill="#231F2C"/>
<path d="M4 9.25C3.0335 9.25 2.25 10.0335 2.25 11V13C2.25 13.9665 3.0335 14.75 4 14.75H6C6.9665 14.75 7.75 13.9665 7.75 13V11C7.75 10.0335 6.9665 9.25 6 9.25H4Z" fill="#231F2C"/>
<path d="M11 9.25C10.0335 9.25 9.25 10.0335 9.25 11V13C9.25 13.9665 10.0335 14.75 11 14.75H13C13.9665 14.75 14.75 13.9665 14.75 13V11C14.75 10.0335 13.9665 9.25 13 9.25H11Z" fill="#231F2C"/>
<path d="M18 9.25C17.0335 9.25 16.25 10.0335 16.25 11V13C16.25 13.9665 17.0335 14.75 18 14.75H20C20.9665 14.75 21.75 13.9665 21.75 13V11C21.75 10.0335 20.9665 9.25 20 9.25H18Z" fill="#231F2C"/>
<path d="M4 16.25C3.0335 16.25 2.25 17.0335 2.25 18V20C2.25 20.9665 3.0335 21.75 4 21.75H6C6.9665 21.75 7.75 20.9665 7.75 20V18C7.75 17.0335 6.9665 16.25 6 16.25H4Z" fill="#231F2C"/>
<path d="M11 16.25C10.0335 16.25 9.25 17.0335 9.25 18V20C9.25 20.9665 10.0335 21.75 11 21.75H13C13.9665 21.75 14.75 20.9665 14.75 20V18C14.75 17.0335 13.9665 16.25 13 16.25H11Z" fill="#231F2C"/>
<path d="M18 16.25C17.0335 16.25 16.25 17.0335 16.25 18V20C16.25 20.9665 17.0335 21.75 18 21.75H20C20.9665 21.75 21.75 20.9665 21.75 20V18C21.75 17.0335 20.9665 16.25 20 16.25H18Z" fill="#231F2C"/>
</svg>
