<svg width="24" height="24" viewBox="0 0 24 24" fill="none" xmlns="http://www.w3.org/2000/svg">
<path fill-rule="evenodd" clip-rule="evenodd" d="M3.40067 3.95384C5.124 3.65414 8.1593 3.25 12 3.25C15.8407 3.25 18.876 3.65414 20.5993 3.95384C21.887 4.17777 22.75 5.3044 22.75 6.56155V17.4384C22.75 18.6956 21.887 19.8222 20.5993 20.0462C18.876 20.3459 15.8407 20.75 12 20.75C8.1593 20.75 5.124 20.3459 3.40067 20.0462C2.11297 19.8222 1.25 18.6956 1.25 17.4384V6.56155C1.25 5.3044 2.11297 4.17777 3.40067 3.95384ZM10.75 5.55603C10.75 5.14182 10.4142 4.80603 10 4.80603C9.58579 4.80603 9.25 5.14182 9.25 5.55603V18.5129C9.25 18.9271 9.58579 19.2629 10 19.2629C10.4142 19.2629 10.75 18.9271 10.75 18.5129V5.55603ZM5 8.24984C4.58579 8.24984 4.25 8.58563 4.25 8.99984C4.25 9.41406 4.58579 9.74984 5 9.74984H7C7.41421 9.74984 7.75 9.41406 7.75 8.99984C7.75 8.58563 7.41421 8.24984 7 8.24984H5ZM5 11.2498C4.58579 11.2498 4.25 11.5856 4.25 11.9998C4.25 12.4141 4.58579 12.7498 5 12.7498H7C7.41421 12.7498 7.75 12.4141 7.75 11.9998C7.75 11.5856 7.41421 11.2498 7 11.2498H5ZM5 14.2498C4.58579 14.2498 4.25 14.5856 4.25 14.9998C4.25 15.4141 4.58579 15.7498 5 15.7498H7C7.41421 15.7498 7.75 15.4141 7.75 14.9998C7.75 14.5856 7.41421 14.2498 7 14.2498H5Z" fill="#231F2C"/>
</svg>
