<svg width="24" height="24" viewBox="0 0 24 24" fill="none" xmlns="http://www.w3.org/2000/svg">
<path d="M12 2.25C8.81602 2.25 6.03435 2.64764 4.39479 2.94575C3.11354 3.17872 2.25 4.30387 2.25 5.56155V7.43845C2.25 8.69613 3.11354 9.82128 4.39479 10.0542C6.03435 10.3524 8.81602 10.75 12 10.75C15.184 10.75 17.9656 10.3524 19.6052 10.0542C20.8865 9.82128 21.75 8.69613 21.75 7.43845V5.56155C21.75 4.30387 20.8865 3.17872 19.6052 2.94575C17.9657 2.64764 15.184 2.25 12 2.25Z" fill="#231F2C"/>
<path d="M12 13.25C8.81602 13.25 6.03435 13.6476 4.39479 13.9458C3.11354 14.1787 2.25 15.3039 2.25 16.5616V18.4384C2.25 19.6961 3.11354 20.8213 4.39479 21.0542C6.03435 21.3524 8.81602 21.75 12 21.75C15.184 21.75 17.9656 21.3524 19.6052 21.0542C20.8865 20.8213 21.75 19.6961 21.75 18.4384V16.5616C21.75 15.3039 20.8865 14.1787 19.6052 13.9458C17.9657 13.6476 15.184 13.25 12 13.25Z" fill="#231F2C"/>
</svg>
