<svg width="24" height="24" viewBox="0 0 24 24" fill="none" xmlns="http://www.w3.org/2000/svg">
<path d="M8.75 12C8.75 10.2051 10.2051 8.75 12 8.75C13.7949 8.75 15.25 10.2051 15.25 12C15.25 13.7949 13.7949 15.25 12 15.25C10.2051 15.25 8.75 13.7949 8.75 12Z" fill="#231F2C"/>
<path fill-rule="evenodd" clip-rule="evenodd" d="M11.4697 1.46967C11.7626 1.17678 12.2374 1.17678 12.5303 1.46967L15.3107 4.25H19C19.4142 4.25 19.75 4.58579 19.75 5V8.68934L22.5303 11.4697C22.8232 11.7626 22.8232 12.2374 22.5303 12.5303L19.75 15.3107V19C19.75 19.4142 19.4142 19.75 19 19.75H15.3107L12.5303 22.5303C12.2374 22.8232 11.7626 22.8232 11.4697 22.5303L8.68934 19.75H5C4.58579 19.75 4.25 19.4142 4.25 19V15.3107L1.46967 12.5303C1.17678 12.2374 1.17678 11.7626 1.46967 11.4697L4.25 8.68934V5C4.25 4.58579 4.58579 4.25 5 4.25H8.68934L11.4697 1.46967ZM12 7.25C9.37665 7.25 7.25 9.37665 7.25 12C7.25 14.6234 9.37665 16.75 12 16.75C14.6234 16.75 16.75 14.6234 16.75 12C16.75 9.37665 14.6234 7.25 12 7.25Z" fill="#231F2C"/>
</svg>
