<svg width="24" height="24" viewBox="0 0 24 24" fill="none" xmlns="http://www.w3.org/2000/svg">
<path fill-rule="evenodd" clip-rule="evenodd" d="M7.05546 5.05546C7.57118 4.53973 8.27066 4.25 9 4.25H19.9999C21.5187 4.25 22.7499 5.48122 22.7499 7V17C22.7499 18.5188 21.5187 19.75 19.9999 19.75H9C8.27065 19.75 7.57118 19.4603 7.05546 18.9445L2.05546 13.9445C0.981513 12.8706 0.981516 11.1294 2.05546 10.0555L7.05546 5.05546ZM11.5303 8.46967C11.2374 8.17678 10.7626 8.17678 10.4697 8.46967C10.1768 8.76256 10.1768 9.23744 10.4697 9.53033L12.9393 12L10.4697 14.4697C10.1768 14.7626 10.1768 15.2374 10.4697 15.5303C10.7626 15.8232 11.2374 15.8232 11.5303 15.5303L14 13.0607L16.4697 15.5303C16.7626 15.8232 17.2374 15.8232 17.5303 15.5303C17.8232 15.2374 17.8232 14.7626 17.5303 14.4697L15.0607 12L17.5303 9.53033C17.8232 9.23744 17.8232 8.76256 17.5303 8.46967C17.2374 8.17678 16.7626 8.17678 16.4697 8.46967L14 10.9393L11.5303 8.46967Z" fill="#231F2C"/>
</svg>
