<svg width="24" height="24" viewBox="0 0 24 24" fill="none" xmlns="http://www.w3.org/2000/svg">
<path fill-rule="evenodd" clip-rule="evenodd" d="M19.8006 5.71426C19.7175 5.09939 19.2306 4.74208 18.7033 4.75013C18.4593 4.75385 18.2003 4.83751 17.9648 5.03119L14.1296 8.18432C12.9369 9.16494 11.4352 9.75 9.86976 9.75H5C4.30053 9.75 3.75 10.2936 3.75 10.9881V13.0119C3.75 13.7064 4.30053 14.25 5 14.25H9.86976C11.4352 14.25 12.9369 14.835 14.1296 15.8157L17.9648 18.9688C18.6898 19.5649 19.6821 19.1625 19.8006 18.2857C19.8582 17.8597 19.915 17.401 19.9678 16.9162C20.0127 16.5045 20.3829 16.207 20.7946 16.2519C21.2064 16.2967 21.5039 16.6669 21.459 17.0787C21.4047 17.5773 21.3463 18.0488 21.2871 18.4867C21.0027 20.5911 18.5949 21.4288 17.0121 20.1275L13.177 16.9743C12.4972 16.4154 11.7017 16.0277 10.8662 15.8536L7.8293 20.0293C7.25492 20.8191 6.14526 20.9859 5.36401 20.4L4.95007 20.0895C4.19473 19.523 4.02496 18.4595 4.56641 17.686L5.92158 15.75H5C3.49033 15.75 2.25 14.5529 2.25 13.0119V10.9881C2.25 9.44711 3.49033 8.25 5 8.25H9.86976C11.0603 8.25 12.2307 7.80366 13.177 7.02565L17.0121 3.87252C17.512 3.46154 18.0994 3.25917 18.6804 3.2503C19.9168 3.23143 21.0957 4.09706 21.2871 5.51333C21.5246 7.27007 21.75 9.57476 21.75 12C21.75 12.691 21.7317 13.3719 21.7001 14.0325C21.6803 14.4463 21.3289 14.7656 20.9151 14.7458C20.5014 14.726 20.182 14.3746 20.2018 13.9609C20.2324 13.3215 20.25 12.6647 20.25 12C20.25 9.66214 20.0323 7.42794 19.8006 5.71426ZM7.75257 15.75L5.79526 18.5462C5.71791 18.6566 5.74216 18.8086 5.85007 18.8895L6.26401 19.2C6.37562 19.2837 6.53414 19.2598 6.6162 19.147L9.08676 15.75H7.75257Z" fill="#231F2C"/>
</svg>
