<svg width="24" height="24" viewBox="0 0 24 24" fill="none" xmlns="http://www.w3.org/2000/svg">
<path fill-rule="evenodd" clip-rule="evenodd" d="M12 2.75C9.5051 2.75 7.40856 3.15151 6.23384 3.43727C5.86413 3.52721 5.58245 3.82243 5.50564 4.2165C5.21589 5.70303 4.75 8.62104 4.75 12C4.75 15.379 5.21589 18.297 5.50564 19.7835C5.58245 20.1776 5.86413 20.4728 6.23384 20.5627C7.40856 20.8485 9.5051 21.25 12 21.25C14.4949 21.25 16.5914 20.8485 17.7662 20.5627C18.1359 20.4728 18.4175 20.1777 18.4943 19.7837C18.6276 19.0998 18.7988 18.11 18.9445 16.9096C18.9945 16.4984 19.3683 16.2055 19.7795 16.2555C20.1907 16.3054 20.4835 16.6792 20.4336 17.0904C20.2829 18.3317 20.1057 19.3573 19.9666 20.0706C19.7818 21.019 19.0798 21.7869 18.1207 22.0202C16.8684 22.3249 14.6484 22.75 12 22.75C9.35163 22.75 7.13157 22.3249 5.87929 22.0202C4.92015 21.7869 4.21817 21.0187 4.03334 20.0705C3.73246 18.5268 3.25 15.5071 3.25 12C3.25 8.4929 3.73246 5.4732 4.03334 3.92953C4.21817 2.98125 4.92015 2.2131 5.87929 1.97978C7.13157 1.67515 9.35163 1.25 12 1.25C14.6484 1.25 16.8684 1.67515 18.1207 1.97978C19.0799 2.2131 19.7818 2.98125 19.9667 3.92953C20.2675 5.4732 20.75 8.4929 20.75 12C20.75 12.7019 20.7307 13.3839 20.6974 14.0381C20.6764 14.4518 20.324 14.7701 19.9103 14.749C19.4966 14.728 19.1783 14.3756 19.1993 13.9619C19.2314 13.331 19.25 12.6745 19.25 12C19.25 8.62104 18.7841 5.70304 18.4944 4.2165C18.4176 3.82243 18.1359 3.52721 17.7662 3.43727C16.5914 3.15151 14.4949 2.75 12 2.75ZM12 7.75C11.0335 7.75 10.25 8.5335 10.25 9.5C10.25 10.4665 11.0335 11.25 12 11.25C12.9665 11.25 13.75 10.4665 13.75 9.5C13.75 8.5335 12.9665 7.75 12 7.75ZM14.2696 11.8263C14.8744 11.236 15.25 10.4119 15.25 9.5C15.25 7.70507 13.7949 6.25 12 6.25C10.2051 6.25 8.75 7.70507 8.75 9.5C8.75 10.4119 9.12555 11.236 9.73042 11.8263C8.25271 12.6315 7.25 14.1987 7.25 16V16.1667C7.25 17.0411 7.95888 17.75 8.83333 17.75H15.1667C16.0411 17.75 16.75 17.0411 16.75 16.1667V16C16.75 14.1987 15.7473 12.6315 14.2696 11.8263ZM12 12.75C10.2051 12.75 8.75 14.2051 8.75 16V16.1667C8.75 16.2127 8.78731 16.25 8.83333 16.25H15.1667C15.2127 16.25 15.25 16.2127 15.25 16.1667V16C15.25 14.2051 13.7949 12.75 12 12.75Z" fill="#231F2C"/>
</svg>
