<svg width="24" height="24" viewBox="0 0 24 24" fill="none" xmlns="http://www.w3.org/2000/svg">
<path fill-rule="evenodd" clip-rule="evenodd" d="M11 3.75C9.20507 3.75 7.75 5.20507 7.75 7C7.75 8.79493 9.20507 10.25 11 10.25C12.7949 10.25 14.25 8.79493 14.25 7C14.25 5.20507 12.7949 3.75 11 3.75ZM6.25 7C6.25 4.37665 8.37665 2.25 11 2.25C13.6234 2.25 15.75 4.37665 15.75 7C15.75 9.62335 13.6234 11.75 11 11.75C8.37665 11.75 6.25 9.62335 6.25 7ZM12.25 17C12.25 14.3766 14.3766 12.25 17 12.25C19.6234 12.25 21.75 14.3766 21.75 17C21.75 19.6234 19.6234 21.75 17 21.75C14.3766 21.75 12.25 19.6234 12.25 17ZM17 13.75C15.2051 13.75 13.75 15.2051 13.75 17C13.75 17.6257 13.9268 18.2102 14.2333 18.7061L18.7061 14.2333C18.2102 13.9268 17.6257 13.75 17 13.75ZM19.7667 15.2939L15.2939 19.7667C15.7898 20.0732 16.3743 20.25 17 20.25C18.7949 20.25 20.25 18.7949 20.25 17C20.25 16.3743 20.0732 15.7898 19.7667 15.2939ZM6.99918 13.9661C6.85251 13.8604 6.71467 13.8444 6.63262 13.8649L6.21176 13.9701C4.76497 14.3318 3.75 15.6318 3.75 17.1231V18.882C3.75 18.9815 3.80141 19.0287 3.83925 19.0434C4.15464 19.1661 4.61305 19.3281 5.20244 19.4933C5.60128 19.6051 5.83397 20.019 5.72216 20.4179C5.61036 20.8167 5.1964 21.0494 4.79756 20.9376C4.15766 20.7582 3.65279 20.5804 3.29523 20.4413C2.62711 20.1812 2.25 19.54 2.25 18.882V17.1231C2.25 14.9435 3.73341 13.0436 5.84796 12.5149L6.26881 12.4097C6.86831 12.2598 7.45286 12.4441 7.87614 12.7492C8.41385 13.1366 9.503 13.75 11 13.75C11.4142 13.75 11.75 14.0858 11.75 14.5C11.75 14.9142 11.4142 15.25 11 15.25C9.08457 15.25 7.69286 14.466 6.99918 13.9661ZM7.249 20.7188C7.3011 20.3079 7.67646 20.017 8.08738 20.0691C8.9555 20.1792 9.92986 20.25 11 20.25C11.2514 20.25 11.4974 20.2461 11.7381 20.2387C12.1521 20.2259 12.498 20.5512 12.5108 20.9653C12.5235 21.3793 12.1982 21.7252 11.7842 21.738C11.5284 21.7458 11.2669 21.75 11 21.75C9.86358 21.75 8.82614 21.6748 7.89869 21.5572C7.48777 21.5051 7.19689 21.1297 7.249 20.7188Z" fill="#231F2C"/>
</svg>
