<svg width="24" height="24" viewBox="0 0 24 24" fill="none" xmlns="http://www.w3.org/2000/svg">
<path fill-rule="evenodd" clip-rule="evenodd" d="M1.64125 7.9378C2.00471 5.73162 3.95479 4.25 6.12311 4.25H19.5585C20.7346 4.25 21.8222 5.00843 22.115 6.20956C22.403 7.3912 22.75 9.18579 22.75 11C22.75 12.8142 22.403 14.6088 22.115 15.7904C21.8222 16.9916 20.7346 17.75 19.5585 17.75H17C16.5858 17.75 16.25 17.4142 16.25 17C16.25 16.5858 16.5858 16.25 17 16.25H19.5585C20.1041 16.25 20.5427 15.9068 20.6577 15.4352C20.9326 14.3075 21.25 12.6439 21.25 11C21.25 9.35608 20.9326 7.69254 20.6577 6.56478C20.5427 6.09316 20.1041 5.75 19.5585 5.75H6.12311C4.62048 5.75 3.35457 6.7657 3.1213 8.18163C2.91919 9.4084 2.75 10.7992 2.75 12C2.75 13.4318 2.99033 15.1292 3.2379 16.4908C3.3258 16.9743 3.41372 17.4107 3.49037 17.7717L5.08013 16.7119C5.53186 16.4107 6.06263 16.25 6.60555 16.25H14C14.4142 16.25 14.75 16.5858 14.75 17C14.75 17.4142 14.4142 17.75 14 17.75H6.60555C6.35877 17.75 6.11751 17.823 5.91218 17.9599L3.41603 19.624C3.21309 19.7593 2.95704 19.7875 2.72955 19.6995C2.50206 19.6116 2.33155 19.4185 2.27239 19.1819L3 19C2.27239 19.1819 2.27242 19.182 2.27239 19.1819L2.27142 19.178L2.26902 19.1683L2.26013 19.1321C2.25245 19.1006 2.24134 19.0546 2.22729 18.9954C2.1992 18.877 2.15933 18.7056 2.11161 18.4908C2.01622 18.0616 1.88918 17.4581 1.7621 16.7592C1.50967 15.3708 1.25 13.5682 1.25 12C1.25 10.6797 1.43389 9.19645 1.64125 7.9378ZM7 10.75C6.86193 10.75 6.75 10.8619 6.75 11C6.75 11.1381 6.86193 11.25 7 11.25C7.13807 11.25 7.25 11.1381 7.25 11C7.25 10.8619 7.13807 10.75 7 10.75ZM5.25 11C5.25 10.0335 6.0335 9.25 7 9.25C7.9665 9.25 8.75 10.0335 8.75 11C8.75 11.9665 7.9665 12.75 7 12.75C6.0335 12.75 5.25 11.9665 5.25 11ZM12 10.75C11.8619 10.75 11.75 10.8619 11.75 11C11.75 11.1381 11.8619 11.25 12 11.25C12.1381 11.25 12.25 11.1381 12.25 11C12.25 10.8619 12.1381 10.75 12 10.75ZM10.25 11C10.25 10.0335 11.0335 9.25 12 9.25C12.9665 9.25 13.75 10.0335 13.75 11C13.75 11.9665 12.9665 12.75 12 12.75C11.0335 12.75 10.25 11.9665 10.25 11ZM17 10.75C16.8619 10.75 16.75 10.8619 16.75 11C16.75 11.1381 16.8619 11.25 17 11.25C17.1381 11.25 17.25 11.1381 17.25 11C17.25 10.8619 17.1381 10.75 17 10.75ZM15.25 11C15.25 10.0335 16.0335 9.25 17 9.25C17.9665 9.25 18.75 10.0335 18.75 11C18.75 11.9665 17.9665 12.75 17 12.75C16.0335 12.75 15.25 11.9665 15.25 11Z" fill="#231F2C"/>
</svg>
