<svg width="24" height="24" viewBox="0 0 24 24" fill="none" xmlns="http://www.w3.org/2000/svg">
<path fill-rule="evenodd" clip-rule="evenodd" d="M11 3.75C9.20507 3.75 7.75 5.20507 7.75 7C7.75 8.79493 9.20507 10.25 11 10.25C12.7949 10.25 14.25 8.79493 14.25 7C14.25 5.20507 12.7949 3.75 11 3.75ZM6.25 7C6.25 4.37665 8.37665 2.25 11 2.25C13.6234 2.25 15.75 4.37665 15.75 7C15.75 9.62335 13.6234 11.75 11 11.75C8.37665 11.75 6.25 9.62335 6.25 7ZM19 7.25C19.4142 7.25 19.75 7.58579 19.75 8V9.25H21C21.4142 9.25 21.75 9.58579 21.75 10C21.75 10.4142 21.4142 10.75 21 10.75H19.75V12C19.75 12.4142 19.4142 12.75 19 12.75C18.5858 12.75 18.25 12.4142 18.25 12V10.75H17C16.5858 10.75 16.25 10.4142 16.25 10C16.25 9.58579 16.5858 9.25 17 9.25H18.25V8C18.25 7.58579 18.5858 7.25 19 7.25ZM6.99918 13.9661C6.85251 13.8604 6.71467 13.8444 6.63262 13.8649L6.21176 13.9701C4.76497 14.3318 3.75 15.6318 3.75 17.1231V18.882C3.75 18.9815 3.80141 19.0287 3.83925 19.0434C4.15464 19.1661 4.61305 19.3281 5.20244 19.4933C5.60128 19.6051 5.83397 20.019 5.72216 20.4179C5.61036 20.8167 5.1964 21.0494 4.79756 20.9376C4.15766 20.7582 3.65279 20.5804 3.29523 20.4413C2.62711 20.1812 2.25 19.54 2.25 18.882V17.1231C2.25 14.9435 3.73341 13.0436 5.84796 12.5149L6.26881 12.4097C6.86831 12.2598 7.45286 12.4441 7.87614 12.7492C8.41385 13.1366 9.503 13.75 11 13.75C12.497 13.75 13.5862 13.1366 14.1239 12.7492C14.5471 12.4441 15.1317 12.2598 15.7312 12.4097L16.152 12.5149C18.2666 13.0436 19.75 14.9435 19.75 17.1231V18.882C19.75 19.54 19.3729 20.1812 18.7048 20.4413C17.547 20.8918 14.8385 21.75 11 21.75C9.86358 21.75 8.82614 21.6748 7.89869 21.5572C7.48777 21.5051 7.19689 21.1297 7.249 20.7188C7.3011 20.3079 7.67646 20.017 8.08738 20.0691C8.9555 20.1792 9.92986 20.25 11 20.25C14.6147 20.25 17.1374 19.4417 18.1607 19.0434C18.1986 19.0287 18.25 18.9815 18.25 18.882V17.1231C18.25 15.6318 17.235 14.3318 15.7882 13.9701L15.3674 13.8649C15.2853 13.8444 15.1475 13.8604 15.0008 13.9661C14.3071 14.466 12.9154 15.25 11 15.25C9.08457 15.25 7.69286 14.466 6.99918 13.9661Z" fill="#231F2C"/>
</svg>
