<svg width="24" height="24" viewBox="0 0 24 24" fill="none" xmlns="http://www.w3.org/2000/svg">
<path fill-rule="evenodd" clip-rule="evenodd" d="M12 3.75C10.2051 3.75 8.75 5.20507 8.75 7C8.75 8.79493 10.2051 10.25 12 10.25C13.7949 10.25 15.25 8.79493 15.25 7C15.25 5.20507 13.7949 3.75 12 3.75ZM7.25 7C7.25 4.37665 9.37665 2.25 12 2.25C14.6234 2.25 16.75 4.37665 16.75 7C16.75 9.62335 14.6234 11.75 12 11.75C9.37665 11.75 7.25 9.62335 7.25 7ZM7.99918 13.9661C7.85251 13.8604 7.71467 13.8444 7.63262 13.8649L7.21176 13.9701C5.76497 14.3318 4.75 15.6318 4.75 17.1231V18.882C4.75 18.9815 4.80141 19.0287 4.83925 19.0434C5.15464 19.1661 5.61305 19.3281 6.20244 19.4933C6.60128 19.6051 6.83397 20.019 6.72216 20.4179C6.61036 20.8167 6.1964 21.0494 5.79756 20.9376C5.15766 20.7582 4.65279 20.5804 4.29523 20.4413C3.62711 20.1812 3.25 19.54 3.25 18.882V17.1231C3.25 14.9435 4.73341 13.0436 6.84796 12.5149L7.26881 12.4097C7.86831 12.2598 8.45286 12.4441 8.87614 12.7492C9.41385 13.1366 10.503 13.75 12 13.75C13.497 13.75 14.5862 13.1366 15.1239 12.7492C15.5471 12.4441 16.1317 12.2598 16.7312 12.4097L17.152 12.5149C19.2666 13.0436 20.75 14.9435 20.75 17.1231V18.882C20.75 19.54 20.3729 20.1812 19.7048 20.4413C18.547 20.8918 15.8385 21.75 12 21.75C10.8636 21.75 9.82614 21.6748 8.89869 21.5572C8.48777 21.5051 8.19689 21.1297 8.249 20.7188C8.3011 20.3079 8.67646 20.017 9.08738 20.0691C9.9555 20.1792 10.9299 20.25 12 20.25C15.6147 20.25 18.1374 19.4417 19.1607 19.0434C19.1986 19.0287 19.25 18.9815 19.25 18.882V17.1231C19.25 15.6318 18.235 14.3318 16.7882 13.9701L16.3674 13.8649C16.2853 13.8444 16.1475 13.8604 16.0008 13.9661C15.3071 14.466 13.9154 15.25 12 15.25C10.0846 15.25 8.69286 14.466 7.99918 13.9661Z" fill="#231F2C"/>
</svg>
