<svg width="24" height="24" viewBox="0 0 24 24" fill="none" xmlns="http://www.w3.org/2000/svg">
<path fill-rule="evenodd" clip-rule="evenodd" d="M12 3.75C7.44367 3.75 3.75001 7.44365 3.75001 12C3.75001 14.2731 4.66834 16.3303 6.156 17.8232C6.44801 18.1163 6.44759 18.5904 6.15507 18.883C5.63219 19.4058 5.17417 19.8662 4.79355 20.25H12C14.4433 20.25 16.6378 19.1888 18.1495 17.4998C18.4257 17.1912 18.8999 17.1649 19.2085 17.4411C19.5172 17.7174 19.5434 18.1915 19.2672 18.5002C17.483 20.4937 14.8877 21.75 12 21.75H3.00036L3.00001 21L2.4638 20.4756L2.64666 20.2892C2.76623 20.1675 2.94246 19.9884 3.16949 19.7586C3.52466 19.3989 4.00419 18.915 4.58561 18.3318C3.12996 16.6287 2.25001 14.4165 2.25001 12C2.25001 6.61522 6.61524 2.25 12 2.25C17.3848 2.25 21.75 6.61522 21.75 12C21.75 13.3435 21.4779 14.6253 20.985 15.7919C20.8238 16.1735 20.3838 16.3521 20.0022 16.1909C19.6207 16.0297 19.442 15.5897 19.6032 15.2081C20.0195 14.2229 20.25 13.1393 20.25 12C20.25 7.44365 16.5564 3.75 12 3.75ZM3.00001 21L2.4638 20.4756C2.25278 20.6914 2.19166 21.0127 2.30872 21.2909C2.42578 21.5691 2.69854 21.75 3.00036 21.75L3.00001 21Z" fill="#231F2C"/>
</svg>
