<svg width="24" height="24" viewBox="0 0 24 24" fill="none" xmlns="http://www.w3.org/2000/svg">
<path fill-rule="evenodd" clip-rule="evenodd" d="M7.42592 3.88282C7.31355 3.73256 7.10108 3.70609 6.95588 3.82258L5.04971 5.35181C3.76465 6.38276 3.37351 8.12418 4.14581 9.50916C5.23237 11.4577 6.77092 13.8961 8.42893 15.5588C8.8984 16.0296 9.43323 16.4939 10.0062 16.9437C10.332 17.1995 10.3888 17.671 10.133 17.9968C9.87726 18.3226 9.4058 18.3793 9.07999 18.1236C8.47107 17.6455 7.88849 17.1412 7.36678 16.618C5.55759 14.8037 3.93787 12.2162 2.83573 10.2397C1.67631 8.1605 2.30555 5.63027 4.11106 4.1818L6.01723 2.65256L6.48656 3.23757L6.01723 2.65256C6.82501 2.00453 8.00727 2.15562 8.62714 2.98444L10.6383 5.67349C11.1839 6.40312 11.1118 7.42378 10.4683 8.06911L9.91414 8.62485C9.52559 9.01449 9.4721 9.49857 9.68275 9.84109C10.0643 10.4616 10.689 11.3215 11.6717 12.3069C12.5848 13.2226 13.3897 13.8281 13.9952 14.2162C14.3661 14.4538 14.8983 14.3757 15.2792 13.8983L15.7936 13.2534C16.4449 12.437 17.6451 12.3297 18.4304 13.0188L21.1256 15.3836C21.8622 16.03 21.9604 17.1422 21.3495 17.908L19.774 19.8829C18.3297 21.6934 15.8039 22.3264 13.7276 21.1621C13.0644 20.7902 12.3377 20.3625 11.5974 19.8913C11.2479 19.6689 11.1449 19.2053 11.3673 18.8559C11.5897 18.5064 12.0533 18.4035 12.4028 18.6259C13.1155 19.0795 13.8177 19.4929 14.4612 19.8537C15.8393 20.6265 17.5732 20.2363 18.6014 18.9475L20.1769 16.9726C20.2886 16.8325 20.2702 16.6287 20.1362 16.5111L17.4411 14.1463C17.2998 14.0222 17.0842 14.041 16.9662 14.1888L16.4518 14.8337C15.701 15.7748 14.3414 16.2196 13.1859 15.4791C12.4911 15.0339 11.6011 14.3605 10.6095 13.3661C9.54229 12.2959 8.8459 11.3437 8.40504 10.6269C7.75602 9.57156 8.08252 8.33732 8.85199 7.56568L9.40617 7.00994C9.52339 6.8924 9.53687 6.70533 9.43705 6.57187L7.42592 3.88282ZM20.4697 2.46966C20.7626 2.17677 21.2375 2.17677 21.5304 2.46966C21.8233 2.76255 21.8233 3.23743 21.5304 3.53032L18.8107 6.24999H20.0001C20.4143 6.24999 20.7501 6.58577 20.7501 6.99999C20.7501 7.4142 20.4143 7.74999 20.0001 7.74999H17.0001C16.5858 7.74999 16.2501 7.4142 16.2501 6.99999V3.99999C16.2501 3.58578 16.5858 3.24999 17.0001 3.24999C17.4143 3.24999 17.7501 3.58578 17.7501 3.99999V5.18933L20.4697 2.46966Z" fill="#231F2C"/>
</svg>
