<svg width="24" height="24" viewBox="0 0 24 24" fill="none" xmlns="http://www.w3.org/2000/svg">
<path fill-rule="evenodd" clip-rule="evenodd" d="M5.25 5C5.25 2.92893 6.92893 1.25 9 1.25H15C17.0711 1.25 18.75 2.92893 18.75 5V14C18.75 14.4142 18.4142 14.75 18 14.75C17.5858 14.75 17.25 14.4142 17.25 14V5C17.25 3.75736 16.2426 2.75 15 2.75H9C7.75736 2.75 6.75 3.75736 6.75 5V19C6.75 20.2426 7.75736 21.25 9 21.25H15C16.2426 21.25 17.25 20.2426 17.25 19V17C17.25 16.5858 17.5858 16.25 18 16.25C18.4142 16.25 18.75 16.5858 18.75 17V19C18.75 21.0711 17.0711 22.75 15 22.75H9C6.92893 22.75 5.25 21.0711 5.25 19V5ZM9.25 4C9.25 3.58579 9.58579 3.25 10 3.25H14C14.4142 3.25 14.75 3.58579 14.75 4C14.75 4.41421 14.4142 4.75 14 4.75H10C9.58579 4.75 9.25 4.41421 9.25 4ZM11.2 20C11.2 19.5858 11.5358 19.25 11.95 19.25H12.05C12.4643 19.25 12.8 19.5858 12.8 20C12.8 20.4142 12.4643 20.75 12.05 20.75H11.95C11.5358 20.75 11.2 20.4142 11.2 20Z" fill="#231F2C"/>
</svg>
