<svg width="24" height="24" viewBox="0 0 24 24" fill="none" xmlns="http://www.w3.org/2000/svg">
<path fill-rule="evenodd" clip-rule="evenodd" d="M1.57451 8.23094C1.93369 6.29866 3.69264 5.25 5.47214 5.25H18.5279C20.3074 5.25 22.0663 6.29866 22.4255 8.23094C22.6074 9.2096 22.75 10.4661 22.75 12C22.75 12.4142 22.4142 12.75 22 12.75C21.5858 12.75 21.25 12.4142 21.25 12C21.25 10.5597 21.1162 9.39488 20.9508 8.50508C20.7562 7.45821 19.7785 6.75 18.5279 6.75H5.47214C4.22146 6.75 3.24384 7.45821 3.04925 8.50508C2.88384 9.39488 2.75 10.5597 2.75 12C2.75 13.4403 2.88384 14.6051 3.04925 15.4949C3.24384 16.5418 4.22146 17.25 5.47214 17.25H18.5279C19.7785 17.25 20.7562 16.5418 20.9508 15.4949C20.9859 15.3061 21.0195 15.1049 21.0508 14.8913C21.1108 14.4815 21.4917 14.1979 21.9016 14.2579C22.3114 14.3179 22.595 14.6988 22.535 15.1087C22.5009 15.3413 22.4641 15.5615 22.4255 15.7691C22.0663 17.7013 20.3074 18.75 18.5279 18.75H5.47214C3.69264 18.75 1.93369 17.7013 1.57451 15.7691C1.39259 14.7904 1.25 13.5339 1.25 12C1.25 10.4661 1.39259 9.2096 1.57451 8.23094ZM5 9C5 8.58579 5.33579 8.25 5.75 8.25H6.25C6.66421 8.25 7 8.58579 7 9C7 9.41421 6.66421 9.75 6.25 9.75H5.75C5.33579 9.75 5 9.41421 5 9ZM8 9C8 8.58579 8.33579 8.25 8.75 8.25H9.25C9.66421 8.25 10 8.58579 10 9C10 9.41421 9.66421 9.75 9.25 9.75H8.75C8.33579 9.75 8 9.41421 8 9ZM11 9C11 8.58579 11.3358 8.25 11.75 8.25H12.25C12.6642 8.25 13 8.58579 13 9C13 9.41421 12.6642 9.75 12.25 9.75H11.75C11.3358 9.75 11 9.41421 11 9ZM14 9C14 8.58579 14.3358 8.25 14.75 8.25H15.25C15.6642 8.25 16 8.58579 16 9C16 9.41421 15.6642 9.75 15.25 9.75H14.75C14.3358 9.75 14 9.41421 14 9ZM17 9C17 8.58579 17.3358 8.25 17.75 8.25H18.25C18.6642 8.25 19 8.58579 19 9C19 9.41421 18.6642 9.75 18.25 9.75H17.75C17.3358 9.75 17 9.41421 17 9ZM5 12C5 11.5858 5.33579 11.25 5.75 11.25H6.25C6.66421 11.25 7 11.5858 7 12C7 12.4142 6.66421 12.75 6.25 12.75H5.75C5.33579 12.75 5 12.4142 5 12ZM8 12C8 11.5858 8.33579 11.25 8.75 11.25H9.25C9.66421 11.25 10 11.5858 10 12C10 12.4142 9.66421 12.75 9.25 12.75H8.75C8.33579 12.75 8 12.4142 8 12ZM11 12C11 11.5858 11.3358 11.25 11.75 11.25H12.25C12.6642 11.25 13 11.5858 13 12C13 12.4142 12.6642 12.75 12.25 12.75H11.75C11.3358 12.75 11 12.4142 11 12ZM14 12C14 11.5858 14.3358 11.25 14.75 11.25H15.25C15.6642 11.25 16 11.5858 16 12C16 12.4142 15.6642 12.75 15.25 12.75H14.75C14.3358 12.75 14 12.4142 14 12ZM17 12C17 11.5858 17.3358 11.25 17.75 11.25H18.25C18.6642 11.25 19 11.5858 19 12C19 12.4142 18.6642 12.75 18.25 12.75H17.75C17.3358 12.75 17 12.4142 17 12ZM6.25 15C6.25 14.5858 6.58579 14.25 7 14.25H17C17.4142 14.25 17.75 14.5858 17.75 15C17.75 15.4142 17.4142 15.75 17 15.75H7C6.58579 15.75 6.25 15.4142 6.25 15Z" fill="#231F2C"/>
</svg>
