<svg width="24" height="24" viewBox="0 0 24 24" fill="none" xmlns="http://www.w3.org/2000/svg">
<path fill-rule="evenodd" clip-rule="evenodd" d="M4.25 9C4.25 4.71979 7.71979 1.25 12 1.25C16.2802 1.25 19.75 4.71979 19.75 9V14C19.75 14.4142 19.4142 14.75 19 14.75C18.5858 14.75 18.25 14.4142 18.25 14V9C18.25 5.54822 15.4518 2.75 12 2.75C8.54822 2.75 5.75 5.54822 5.75 9V15C5.75 18.4518 8.54822 21.25 12 21.25C14.8302 21.25 17.2228 19.3683 17.9913 16.7861C18.1094 16.3891 18.5271 16.163 18.9241 16.2812C19.3211 16.3993 19.5471 16.8169 19.429 17.2139C18.4764 20.4147 15.5119 22.75 12 22.75C7.71979 22.75 4.25 19.2802 4.25 15V9ZM12 5.25C12.4142 5.25 12.75 5.58579 12.75 6V9C12.75 9.41421 12.4142 9.75 12 9.75C11.5858 9.75 11.25 9.41421 11.25 9V6C11.25 5.58579 11.5858 5.25 12 5.25Z" fill="#231F2C"/>
</svg>
