<svg width="24" height="24" viewBox="0 0 24 24" fill="none" xmlns="http://www.w3.org/2000/svg">
<path fill-rule="evenodd" clip-rule="evenodd" d="M1.86668 4.96175C2.17724 3.85176 3.20469 3.25 4.23607 3.25H19.7639C20.7953 3.25 21.8228 3.85176 22.1333 4.96175C22.4268 6.0108 22.75 7.6908 22.75 10C22.75 10.4142 22.4142 10.75 22 10.75C21.5858 10.75 21.25 10.4142 21.25 10C21.25 7.83259 20.9469 6.28847 20.6888 5.36591C20.5911 5.01685 20.2476 4.75 19.7639 4.75H4.23607C3.75236 4.75 3.40887 5.01685 3.31121 5.36591C3.05308 6.28847 2.75 7.83258 2.75 10C2.75 12.1674 3.05308 13.7115 3.31121 14.6341C3.40887 14.9832 3.75236 15.25 4.23607 15.25H19.7639C20.2476 15.25 20.5911 14.9832 20.6888 14.6341C20.8119 14.1941 20.9451 13.6132 21.0508 12.8913C21.1108 12.4815 21.4917 12.1979 21.9016 12.2579C22.3114 12.3179 22.595 12.6988 22.535 13.1087C22.4198 13.8953 22.2731 14.5386 22.1333 15.0382C21.8228 16.1482 20.7953 16.75 19.7639 16.75H14.75V19.25H18C18.4142 19.25 18.75 19.5858 18.75 20C18.75 20.4142 18.4142 20.75 18 20.75H6C5.58579 20.75 5.25 20.4142 5.25 20C5.25 19.5858 5.58579 19.25 6 19.25H9.25V16.75H4.23607C3.20469 16.75 2.17724 16.1482 1.86668 15.0382C1.57317 13.9892 1.25 12.3092 1.25 10C1.25 7.6908 1.57317 6.0108 1.86668 4.96175ZM10.75 16.75V19.25H13.25V16.75H10.75Z" fill="#231F2C"/>
</svg>
