<svg width="24" height="24" viewBox="0 0 24 24" fill="none" xmlns="http://www.w3.org/2000/svg">
<path fill-rule="evenodd" clip-rule="evenodd" d="M9.44152 4.75C8.90348 4.75 8.42581 5.09429 8.25566 5.60472L7.71151 7.23717C7.60943 7.54343 7.32282 7.75 7 7.75H4.23607C3.75236 7.75 3.40887 8.01685 3.31121 8.36591C3.05308 9.28847 2.75 10.8326 2.75 13C2.75 15.4063 3.12358 17.0446 3.39463 17.9171C3.47667 18.1812 3.70839 18.393 4.04534 18.4605C5.46977 18.746 8.48537 19.25 12 19.25C15.5146 19.25 18.5302 18.746 19.9547 18.4605C20.2916 18.393 20.5233 18.1812 20.6054 17.9171C20.7488 17.4555 20.9206 16.7803 21.0508 15.8913C21.1108 15.4815 21.4917 15.1979 21.9016 15.2579C22.3114 15.3179 22.595 15.6988 22.535 16.1087C22.3931 17.0775 22.2035 17.8287 22.0378 18.3621C21.7735 19.2131 21.0573 19.7694 20.2494 19.9313C18.7677 20.2282 15.6473 20.75 12 20.75C8.35272 20.75 5.23228 20.2282 3.75064 19.9313C2.94265 19.7694 2.22654 19.2131 1.96216 18.3621C1.64847 17.3523 1.25 15.5642 1.25 13C1.25 10.6908 1.57317 9.0108 1.86668 7.96175C2.17724 6.85176 3.20469 6.25 4.23607 6.25H6.45943L6.83264 5.13037C7.20695 4.00743 8.25783 3.25 9.44152 3.25H14.5585C15.7422 3.25 16.793 4.00743 17.1674 5.13037L17.5406 6.25H19.7639C20.7953 6.25 21.8228 6.85176 22.1333 7.96175C22.4268 9.0108 22.75 10.6908 22.75 13C22.75 13.4142 22.4142 13.75 22 13.75C21.5858 13.75 21.25 13.4142 21.25 13C21.25 10.8326 20.9469 9.28847 20.6888 8.36591C20.5911 8.01685 20.2476 7.75 19.7639 7.75H17C16.6772 7.75 16.3906 7.54343 16.2885 7.23717L15.7443 5.60472C15.5742 5.09429 15.0965 4.75 14.5585 4.75H9.44152ZM12 9.75C10.2051 9.75 8.75 11.2051 8.75 13C8.75 14.7949 10.2051 16.25 12 16.25C13.7949 16.25 15.25 14.7949 15.25 13C15.25 11.2051 13.7949 9.75 12 9.75ZM7.25 13C7.25 10.3766 9.37665 8.25 12 8.25C14.6234 8.25 16.75 10.3766 16.75 13C16.75 15.6234 14.6234 17.75 12 17.75C9.37665 17.75 7.25 15.6234 7.25 13Z" fill="#231F2C"/>
</svg>
