<svg width="24" height="24" viewBox="0 0 24 24" fill="none" xmlns="http://www.w3.org/2000/svg">
<path fill-rule="evenodd" clip-rule="evenodd" d="M4.25 2.95238C4.25 2.02654 4.98944 1.25 5.93333 1.25H6.86667C7.81056 1.25 8.55 2.02654 8.55 2.95238V3.90476C8.55 4.8306 7.81056 5.60714 6.86667 5.60714H5.93333C4.98944 5.60714 4.25 4.8306 4.25 3.90476V2.95238ZM5.93333 2.75C5.84629 2.75 5.75 2.82625 5.75 2.95238V3.90476C5.75 4.03089 5.84629 4.10714 5.93333 4.10714H6.86667C6.95371 4.10714 7.05 4.03089 7.05 3.90476V2.95238C7.05 2.82625 6.95371 2.75 6.86667 2.75H5.93333ZM9.85 2.95238C9.85 2.02654 10.5894 1.25 11.5333 1.25H12.4667C13.4106 1.25 14.15 2.02654 14.15 2.95238V3.90476C14.15 4.8306 13.4106 5.60714 12.4667 5.60714H11.5333C10.5894 5.60714 9.85 4.8306 9.85 3.90476V2.95238ZM11.5333 2.75C11.4463 2.75 11.35 2.82625 11.35 2.95238V3.90476C11.35 4.03089 11.4463 4.10714 11.5333 4.10714H12.4667C12.5537 4.10714 12.65 4.03089 12.65 3.90476V2.95238C12.65 2.82625 12.5537 2.75 12.4667 2.75H11.5333ZM15.45 2.95238C15.45 2.02654 16.1894 1.25 17.1333 1.25H18.0667C19.0106 1.25 19.75 2.02654 19.75 2.95238V3.90476C19.75 4.8306 19.0106 5.60714 18.0667 5.60714H17.1333C16.1894 5.60714 15.45 4.8306 15.45 3.90476V2.95238ZM17.1333 2.75C17.0463 2.75 16.95 2.82625 16.95 2.95238V3.90476C16.95 4.03089 17.0463 4.10714 17.1333 4.10714H18.0667C18.1537 4.10714 18.25 4.03089 18.25 3.90476V2.95238C18.25 2.82625 18.1537 2.75 18.0667 2.75H17.1333ZM4.25 8.66667C4.25 7.74082 4.98944 6.96429 5.93333 6.96429H6.86667C7.81056 6.96429 8.55 7.74082 8.55 8.66667V9.61905C8.55 10.5449 7.81056 11.3214 6.86667 11.3214H5.93333C4.98944 11.3214 4.25 10.5449 4.25 9.61905V8.66667ZM5.93333 8.46429C5.84629 8.46429 5.75 8.54054 5.75 8.66667V9.61905C5.75 9.74518 5.84629 9.82143 5.93333 9.82143H6.86667C6.95371 9.82143 7.05 9.74518 7.05 9.61905V8.66667C7.05 8.54054 6.95371 8.46429 6.86667 8.46429H5.93333ZM9.85 8.66667C9.85 7.74082 10.5894 6.96429 11.5333 6.96429H12.4667C13.4106 6.96429 14.15 7.74082 14.15 8.66667V9.61905C14.15 10.5449 13.4106 11.3214 12.4667 11.3214H11.5333C10.5894 11.3214 9.85 10.5449 9.85 9.61905V8.66667ZM11.5333 8.46429C11.4463 8.46429 11.35 8.54054 11.35 8.66667V9.61905C11.35 9.74518 11.4463 9.82143 11.5333 9.82143H12.4667C12.5537 9.82143 12.65 9.74518 12.65 9.61905V8.66667C12.65 8.54054 12.5537 8.46429 12.4667 8.46429H11.5333ZM15.45 8.66667C15.45 7.74082 16.1894 6.96429 17.1333 6.96429H18.0667C19.0106 6.96429 19.75 7.74082 19.75 8.66667V9.61905C19.75 10.5449 19.0106 11.3214 18.0667 11.3214H17.1333C16.1894 11.3214 15.45 10.5449 15.45 9.61905V8.66667ZM17.1333 8.46429C17.0463 8.46429 16.95 8.54054 16.95 8.66667V9.61905C16.95 9.74518 17.0463 9.82143 17.1333 9.82143H18.0667C18.1537 9.82143 18.25 9.74518 18.25 9.61905V8.66667C18.25 8.54054 18.1537 8.46429 18.0667 8.46429H17.1333ZM4.25 14.381C4.25 13.4551 4.98944 12.6786 5.93333 12.6786H6.86667C7.81056 12.6786 8.55 13.4551 8.55 14.381V15.3333C8.55 16.2592 7.81056 17.0357 6.86667 17.0357H5.93333C4.98944 17.0357 4.25 16.2592 4.25 15.3333V14.381ZM5.93333 14.1786C5.84629 14.1786 5.75 14.2548 5.75 14.381V15.3333C5.75 15.4595 5.84629 15.5357 5.93333 15.5357H6.86667C6.95371 15.5357 7.05 15.4595 7.05 15.3333V14.381C7.05 14.2548 6.95371 14.1786 6.86667 14.1786H5.93333ZM9.85 14.381C9.85 13.4551 10.5894 12.6786 11.5333 12.6786H12.4667C13.4106 12.6786 14.15 13.4551 14.15 14.381V15.3333C14.15 16.2592 13.4106 17.0357 12.4667 17.0357H11.5333C10.5894 17.0357 9.85 16.2592 9.85 15.3333V14.381ZM11.5333 14.1786C11.4463 14.1786 11.35 14.2548 11.35 14.381V15.3333C11.35 15.4595 11.4463 15.5357 11.5333 15.5357H12.4667C12.5537 15.5357 12.65 15.4595 12.65 15.3333V14.381C12.65 14.2548 12.5537 14.1786 12.4667 14.1786H11.5333ZM15.45 14.381C15.45 13.4551 16.1894 12.6786 17.1333 12.6786H18.0667C19.0106 12.6786 19.75 13.4551 19.75 14.381V15.3333C19.75 16.2592 19.0106 17.0357 18.0667 17.0357H17.1333C16.1894 17.0357 15.45 16.2592 15.45 15.3333V14.381ZM17.1333 14.1786C17.0463 14.1786 16.95 14.2548 16.95 14.381V15.3333C16.95 15.4595 17.0463 15.5357 17.1333 15.5357H18.0667C18.1537 15.5357 18.25 15.4595 18.25 15.3333V14.381C18.25 14.2548 18.1537 14.1786 18.0667 14.1786H17.1333ZM9.85 20.0952C9.85 19.1694 10.5894 18.3929 11.5333 18.3929H12.4667C13.4106 18.3929 14.15 19.1694 14.15 20.0952V21.0476C14.15 21.9735 13.4106 22.75 12.4667 22.75H11.5333C10.5894 22.75 9.85 21.9735 9.85 21.0476V20.0952ZM11.5333 19.8929C11.4463 19.8929 11.35 19.9691 11.35 20.0952V21.0476C11.35 21.1737 11.4463 21.25 11.5333 21.25H12.4667C12.5537 21.25 12.65 21.1737 12.65 21.0476V20.0952C12.65 19.9691 12.5537 19.8929 12.4667 19.8929H11.5333Z" fill="#231F2C"/>
</svg>
