<svg width="24" height="24" viewBox="0 0 24 24" fill="none" xmlns="http://www.w3.org/2000/svg">
<path fill-rule="evenodd" clip-rule="evenodd" d="M6.25 3C6.25 2.58579 6.58579 2.25 7 2.25H17C17.4142 2.25 17.75 2.58579 17.75 3V7.65145C18.4654 7.74913 19.0914 7.85233 19.6052 7.94575C20.8865 8.17872 21.75 9.30387 21.75 10.5616V12C21.75 12.4142 21.4142 12.75 21 12.75C20.5858 12.75 20.25 12.4142 20.25 12V10.5616C20.25 9.98376 19.8615 9.51694 19.3369 9.42156C17.7539 9.13372 15.0665 8.75 12 8.75C8.93355 8.75 6.24614 9.13372 4.66313 9.42156C4.13852 9.51694 3.75 9.98376 3.75 10.5616V16C3.75 16.6904 4.30964 17.25 5 17.25H6.25V16C6.25 15.5858 6.58579 15.25 7 15.25H17C17.4142 15.25 17.75 15.5858 17.75 16V17.25H19C19.6904 17.25 20.25 16.6904 20.25 16V15C20.25 14.5858 20.5858 14.25 21 14.25C21.4142 14.25 21.75 14.5858 21.75 15V16C21.75 17.5188 20.5188 18.75 19 18.75H17.75V21C17.75 21.4142 17.4142 21.75 17 21.75H7C6.58579 21.75 6.25 21.4142 6.25 21V18.75H5C3.48122 18.75 2.25 17.5188 2.25 16V10.5616C2.25 9.30387 3.11354 8.17872 4.39479 7.94575C4.90861 7.85233 5.53461 7.74913 6.25 7.65145V3ZM7.75 7.47241C9.01711 7.34283 10.4616 7.25 12 7.25C13.5384 7.25 14.9829 7.34283 16.25 7.47241V3.75H7.75V7.47241ZM7.75 20.25H16.25V16.75H7.75V20.25ZM16.75 13C16.75 12.5858 17.0858 12.25 17.5 12.25H18C18.4142 12.25 18.75 12.5858 18.75 13C18.75 13.4142 18.4142 13.75 18 13.75H17.5C17.0858 13.75 16.75 13.4142 16.75 13Z" fill="#231F2C"/>
</svg>
