<svg width="24" height="24" viewBox="0 0 24 24" fill="none" xmlns="http://www.w3.org/2000/svg">
<path fill-rule="evenodd" clip-rule="evenodd" d="M10 5.75C6.53628 5.75 4.45554 6.08795 3.35155 6.35551C3.01302 6.43756 2.75 6.7574 2.75 7.23607V12C2.75 12.4142 2.41421 12.75 2 12.75C1.58579 12.75 1.25 12.4142 1.25 12V7.23607C1.25 6.19965 1.86432 5.17253 2.99824 4.89771C4.23885 4.59704 6.44092 4.25 10 4.25C13.5591 4.25 15.7611 4.59704 17.0018 4.89771C17.6447 5.05354 18.1206 5.45125 18.4122 5.95538L20.2174 5.05279C21.381 4.471 22.75 5.31712 22.75 6.61803V13.382C22.75 14.6829 21.381 15.529 20.2174 14.9472L18.75 14.2135V16.7639C18.75 17.8004 18.1357 18.8275 17.0018 19.1023C15.7611 19.403 13.5591 19.75 10 19.75C6.44092 19.75 4.23885 19.403 2.99825 19.1023C1.86432 18.8275 1.25 17.8004 1.25 16.7639V15C1.25 14.5858 1.58579 14.25 2 14.25C2.41421 14.25 2.75 14.5858 2.75 15V16.7639C2.75 17.2426 3.01302 17.5624 3.35155 17.6445C4.45554 17.912 6.53628 18.25 10 18.25C13.4637 18.25 15.5445 17.912 16.6484 17.6445C16.987 17.5624 17.25 17.2426 17.25 16.7639V13.0151C17.2498 13.0047 17.2498 12.9942 17.25 12.9838V7.23607C17.25 6.7574 16.987 6.43755 16.6484 6.35551C15.5445 6.08795 13.4637 5.75 10 5.75ZM18.75 12.5365L20.8882 13.6056C21.0544 13.6887 21.25 13.5678 21.25 13.382V6.61803C21.25 6.43219 21.0544 6.31131 20.8882 6.39443L18.75 7.46353V12.5365ZM5.25 10C5.25 9.0335 6.0335 8.25 7 8.25H13C13.9665 8.25 14.75 9.0335 14.75 10V11C14.75 11.9665 13.9665 12.75 13 12.75H7C6.0335 12.75 5.25 11.9665 5.25 11V10ZM7 9.75C6.86193 9.75 6.75 9.86193 6.75 10V11C6.75 11.1381 6.86193 11.25 7 11.25H13C13.1381 11.25 13.25 11.1381 13.25 11V10C13.25 9.86193 13.1381 9.75 13 9.75H7Z" fill="#231F2C"/>
</svg>
