<svg width="24" height="24" viewBox="0 0 24 24" fill="none" xmlns="http://www.w3.org/2000/svg">
<path fill-rule="evenodd" clip-rule="evenodd" d="M4.27721 9.34597C3.10906 9.66335 2.25 10.7314 2.25 12V14C2.25 15.5188 3.48122 16.75 5 16.75H6C6.9665 16.75 7.75 15.9665 7.75 15V11C7.75 10.0335 6.9665 9.25 6 9.25H5.79454C6.16505 6.15183 8.80204 3.75 12 3.75C13.8433 3.75 15.4994 4.54699 16.6444 5.81753C16.9217 6.12523 17.3959 6.14987 17.7036 5.87257C18.0113 5.59528 18.0359 5.12104 17.7586 4.81334C16.3412 3.24051 14.2858 2.25 12 2.25C7.94007 2.25 4.60928 5.37184 4.27721 9.34597ZM18.4962 7.28116C18.8932 7.16301 19.3108 7.38906 19.429 7.78606C19.5781 8.28714 19.6778 8.80906 19.7227 9.34596C20.8909 9.66333 21.75 10.7313 21.75 12V14C21.75 15.3507 20.7763 16.4739 19.4925 16.706C18.7655 19.0486 16.5822 20.75 14 20.75H13.5816C13.3007 21.3412 12.6981 21.75 12 21.75C11.0335 21.75 10.25 20.9665 10.25 20C10.25 19.0335 11.0335 18.25 12 18.25C12.6981 18.25 13.3007 18.6588 13.5816 19.25H14C15.7245 19.25 17.2102 18.2223 17.8763 16.7457C16.9675 16.6822 16.25 15.9249 16.25 15V11C16.25 10.0335 17.0335 9.25 18 9.25H18.2055C18.1631 8.89428 18.0907 8.54812 17.9913 8.21394C17.8731 7.81693 18.0992 7.39931 18.4962 7.28116ZM18.914 15.25C18.9041 15.2498 18.8942 15.2498 18.8844 15.25H18C17.8619 15.25 17.75 15.1381 17.75 15V11C17.75 10.8619 17.8619 10.75 18 10.75H19C19.6904 10.75 20.25 11.3096 20.25 12V14C20.25 14.6904 19.6904 15.25 19 15.25H18.914ZM5 10.75C4.30964 10.75 3.75 11.3096 3.75 12V14C3.75 14.6904 4.30964 15.25 5 15.25H6C6.13807 15.25 6.25 15.1381 6.25 15V11C6.25 10.8619 6.13807 10.75 6 10.75H5ZM12 19.75C11.8619 19.75 11.75 19.8619 11.75 20C11.75 20.1381 11.8619 20.25 12 20.25C12.1381 20.25 12.25 20.1381 12.25 20C12.25 19.8619 12.1381 19.75 12 19.75Z" fill="#231F2C"/>
</svg>
