<svg width="24" height="24" viewBox="0 0 24 24" fill="none" xmlns="http://www.w3.org/2000/svg">
<path fill-rule="evenodd" clip-rule="evenodd" d="M4.44152 5.75C3.89629 5.75 3.46679 6.09241 3.36115 6.55772C3.08504 7.77393 2.75 9.72099 2.75 12C2.75 12.4142 2.41421 12.75 2 12.75C1.58579 12.75 1.25 12.4142 1.25 12C1.25 9.57982 1.60503 7.51776 1.89837 6.22563C2.17391 5.01194 3.26502 4.25 4.44152 4.25H8C8.86558 4.25 9.68065 4.65753 10.2 5.35L10.5 5.75C10.7361 6.06476 11.1066 6.25 11.5 6.25H19.7639C20.7949 6.25 21.8224 6.85078 22.1331 7.96104L21.4109 8.16317L22.1331 7.96105C22.273 8.4608 22.4197 9.10428 22.535 9.89132C22.595 10.3012 22.3114 10.6821 21.9016 10.7421C21.4917 10.8021 21.1108 10.5185 21.0508 10.1087C20.945 9.38641 20.8118 8.80534 20.6886 8.36529C20.591 8.01652 20.248 7.75 19.7639 7.75H11.5C10.6344 7.75 9.81935 7.34247 9.3 6.65L9 6.25L9.6 5.8L9 6.25C8.76393 5.93524 8.39345 5.75 8 5.75H4.44152ZM18 11.75C17.0621 11.75 16.25 12.551 16.25 13.6042V14.3464C16.7472 14.2865 17.3264 14.25 18 14.25C18.6736 14.25 19.2528 14.2865 19.75 14.3464V13.6042C19.75 12.551 18.9379 11.75 18 11.75ZM21.25 14.6544V13.6042C21.25 11.7809 19.8235 10.25 18 10.25C16.1765 10.25 14.75 11.7809 14.75 13.6042V14.6544C14.7163 14.665 14.6834 14.6757 14.6513 14.6865C13.6021 15.0376 13.25 16.0889 13.25 16.9223V19.0777C13.25 19.9111 13.6021 20.9624 14.6513 21.3135C15.3523 21.5481 16.4149 21.75 18 21.75C19.5851 21.75 20.6477 21.5481 21.3487 21.3135C22.3979 20.9624 22.75 19.9111 22.75 19.0777V16.9223C22.75 16.0889 22.3979 15.0376 21.3487 14.6865C21.3166 14.6757 21.2837 14.665 21.25 14.6544ZM2.09239 14.2553C2.50367 14.2061 2.87697 14.4996 2.92618 14.9109C3.04757 15.9255 3.21306 16.79 3.36115 17.4423C3.46679 17.9076 3.89629 18.25 4.44152 18.25H11.5C11.9142 18.25 12.25 18.5858 12.25 19C12.25 19.4142 11.9142 19.75 11.5 19.75H4.44152C3.26502 19.75 2.17391 18.9881 1.89837 17.7744C1.74052 17.0791 1.56526 16.1628 1.4368 15.0891C1.38759 14.6778 1.68111 14.3045 2.09239 14.2553ZM18 15.75C16.5388 15.75 15.6426 15.9365 15.1273 16.1089C14.9613 16.1645 14.75 16.3916 14.75 16.9223V19.0777C14.75 19.6084 14.9613 19.8355 15.1273 19.8911C15.6426 20.0635 16.5388 20.25 18 20.25C19.4612 20.25 20.3574 20.0635 20.8727 19.8911C21.0387 19.8355 21.25 19.6084 21.25 19.0777V16.9223C21.25 16.3916 21.0387 16.1645 20.8727 16.1089C20.3574 15.9365 19.4612 15.75 18 15.75ZM18 16.75C18.4142 16.75 18.75 17.0858 18.75 17.5V18.3333C18.75 18.7475 18.4142 19.0833 18 19.0833C17.5858 19.0833 17.25 18.7475 17.25 18.3333V17.5C17.25 17.0858 17.5858 16.75 18 16.75Z" fill="#231F2C"/>
</svg>
