<svg width="24" height="24" viewBox="0 0 24 24" fill="none" xmlns="http://www.w3.org/2000/svg">
<path fill-rule="evenodd" clip-rule="evenodd" d="M7.76256 2.75895C8.44598 2.07553 9.55402 2.07553 10.2374 2.75895L11.9171 4.43857C12.005 4.52654 12.1443 4.53644 12.2438 4.46179L13.95 3.18217C15.1037 2.31692 16.75 3.14009 16.75 4.58217V13.2503H21C21.4142 13.2503 21.75 13.5861 21.75 14.0003V18.5003C21.75 20.2952 20.2949 21.7503 18.5 21.7503H7C4.37665 21.7503 2.25 19.6236 2.25 17.0003V4.52536C2.25 3.10196 3.8589 2.27399 5.01717 3.10133L6.24659 3.97949C6.34604 4.05052 6.48226 4.03925 6.56868 3.95283L7.76256 2.75895ZM15.7609 20.2503H7C5.20507 20.2503 3.75 18.7952 3.75 17.0003V4.52536C3.75 4.32202 3.97984 4.20373 4.14531 4.32193L5.37474 5.20009C6.07086 5.69732 7.02443 5.6184 7.62934 5.01349L8.82322 3.81961C8.92085 3.72198 9.07915 3.72198 9.17678 3.81961L10.8564 5.49923C11.4722 6.11504 12.4471 6.18433 13.1438 5.66179L14.85 4.38217C15.0148 4.25856 15.25 4.37616 15.25 4.58217V18.5003C15.25 19.1446 15.4375 19.7451 15.7609 20.2503ZM18.5 20.2503C19.4665 20.2503 20.25 19.4668 20.25 18.5003V14.7503H16.75V18.5003C16.75 19.4668 17.5335 20.2503 18.5 20.2503ZM5.25 9.00026C5.25 8.58604 5.58579 8.25026 6 8.25026H13C13.4142 8.25026 13.75 8.58604 13.75 9.00026C13.75 9.41447 13.4142 9.75026 13 9.75026H6C5.58579 9.75026 5.25 9.41447 5.25 9.00026ZM5.25 13.0003C5.25 12.5861 5.58579 12.2503 6 12.2503H13C13.4142 12.2503 13.75 12.5861 13.75 13.0003C13.75 13.4145 13.4142 13.7503 13 13.7503H6C5.58579 13.7503 5.25 13.4145 5.25 13.0003ZM5.25 17.0003C5.25 16.5861 5.58579 16.2503 6 16.2503H10C10.4142 16.2503 10.75 16.5861 10.75 17.0003C10.75 17.4145 10.4142 17.7503 10 17.7503H6C5.58579 17.7503 5.25 17.4145 5.25 17.0003Z" fill="#231F2C"/>
</svg>
