<svg width="24" height="24" viewBox="0 0 24 24" fill="none" xmlns="http://www.w3.org/2000/svg">
<path fill-rule="evenodd" clip-rule="evenodd" d="M7 2.75C6.30964 2.75 5.75 3.30964 5.75 4V20C5.75 20.6904 6.30964 21.25 7 21.25H17C17.6904 21.25 18.25 20.6904 18.25 20V18C18.25 17.5858 18.5858 17.25 19 17.25C19.4142 17.25 19.75 17.5858 19.75 18V20C19.75 21.5188 18.5188 22.75 17 22.75H7C5.48122 22.75 4.25 21.5188 4.25 20V4C4.25 2.48122 5.48122 1.25 7 1.25H14C14.1989 1.25 14.3897 1.32902 14.5303 1.46967L19.5303 6.46967C19.671 6.61032 19.75 6.80109 19.75 7V15C19.75 15.4142 19.4142 15.75 19 15.75C18.5858 15.75 18.25 15.4142 18.25 15V7.75H14C13.5858 7.75 13.25 7.41421 13.25 7V2.75H7ZM14.75 3.81066L17.1893 6.25H14.75V3.81066ZM12 10.25C12.4142 10.25 12.75 10.5858 12.75 11V15.1893L13.4697 14.4697C13.7626 14.1768 14.2374 14.1768 14.5303 14.4697C14.8232 14.7626 14.8232 15.2374 14.5303 15.5303L12.5303 17.5303C12.2374 17.8232 11.7626 17.8232 11.4697 17.5303L9.46967 15.5303C9.17678 15.2374 9.17678 14.7626 9.46967 14.4697C9.76256 14.1768 10.2374 14.1768 10.5303 14.4697L11.25 15.1893V11C11.25 10.5858 11.5858 10.25 12 10.25Z" fill="#231F2C"/>
</svg>
