<svg width="24" height="24" viewBox="0 0 24 24" fill="none" xmlns="http://www.w3.org/2000/svg">
<path fill-rule="evenodd" clip-rule="evenodd" d="M8.35352 3.25C8.67998 2.09575 9.74122 1.25 11 1.25H13C14.2588 1.25 15.32 2.09575 15.6465 3.25H16C18.0711 3.25 19.75 4.92893 19.75 7V14C19.75 14.4142 19.4142 14.75 19 14.75C18.5858 14.75 18.25 14.4142 18.25 14V7C18.25 5.75736 17.2426 4.75 16 4.75H15.75V5C15.75 5.9665 14.9665 6.75 14 6.75H10C9.0335 6.75 8.25 5.9665 8.25 5V4.75H8C6.75736 4.75 5.75 5.75736 5.75 7V19.1459C5.75 20.0084 6.23467 20.6514 6.92658 20.798C7.99977 21.0253 9.65378 21.25 12 21.25C14.3462 21.25 16.0002 21.0253 17.0734 20.798C17.7653 20.6514 18.25 20.0084 18.25 19.1459V17C18.25 16.5858 18.5858 16.25 19 16.25C19.4142 16.25 19.75 16.5858 19.75 17V19.1459C19.75 20.556 18.9157 21.941 17.3843 22.2654C16.2009 22.5161 14.4422 22.75 12 22.75C9.55776 22.75 7.79908 22.5161 6.61574 22.2654L6.77116 21.5317L6.61574 22.2654C5.08435 21.941 4.25 20.556 4.25 19.1459V7C4.25 4.92893 5.92893 3.25 8 3.25H8.35352ZM11 2.75C10.3096 2.75 9.75 3.30964 9.75 4V5C9.75 5.13807 9.86193 5.25 10 5.25H14C14.1381 5.25 14.25 5.13807 14.25 5V4C14.25 3.30964 13.6904 2.75 13 2.75H11ZM8.25 11C8.25 10.5858 8.58579 10.25 9 10.25H15C15.4142 10.25 15.75 10.5858 15.75 11C15.75 11.4142 15.4142 11.75 15 11.75H9C8.58579 11.75 8.25 11.4142 8.25 11ZM8.25 15C8.25 14.5858 8.58579 14.25 9 14.25H13C13.4142 14.25 13.75 14.5858 13.75 15C13.75 15.4142 13.4142 15.75 13 15.75H9C8.58579 15.75 8.25 15.4142 8.25 15Z" fill="#231F2C"/>
</svg>
