<svg width="24" height="24" viewBox="0 0 24 24" fill="none" xmlns="http://www.w3.org/2000/svg">
<path fill-rule="evenodd" clip-rule="evenodd" d="M4.44152 5.75C3.89629 5.75 3.46679 6.09241 3.36115 6.55772C3.08504 7.77393 2.75 9.72099 2.75 12C2.75 12.4142 2.41421 12.75 2 12.75C1.58579 12.75 1.25 12.4142 1.25 12C1.25 9.57982 1.60503 7.51776 1.89837 6.22563C2.17391 5.01194 3.26502 4.25 4.44152 4.25H8C8.86558 4.25 9.68065 4.65753 10.2 5.35L10.5 5.75C10.7361 6.06476 11.1066 6.25 11.5 6.25H19.7639C20.7949 6.25 21.8224 6.85078 22.1331 7.96104L21.4109 8.16317L22.1331 7.96105C22.273 8.4608 22.4197 9.10428 22.535 9.89132C22.595 10.3012 22.3114 10.6821 21.9016 10.7421C21.4917 10.8021 21.1108 10.5185 21.0508 10.1087C20.945 9.38641 20.8118 8.80534 20.6886 8.36529C20.591 8.01652 20.248 7.75 19.7639 7.75H11.5C10.6344 7.75 9.81935 7.34247 9.3 6.65L9 6.25L9.6 5.8L9 6.25C8.76393 5.93524 8.39345 5.75 8 5.75H4.44152ZM18 11.75C17.0335 11.75 16.25 12.5335 16.25 13.5C16.25 14.4665 17.0335 15.25 18 15.25C18.9665 15.25 19.75 14.4665 19.75 13.5C19.75 12.5335 18.9665 11.75 18 11.75ZM20.2696 15.8263C20.8745 15.236 21.25 14.4119 21.25 13.5C21.25 11.7051 19.7949 10.25 18 10.25C16.2051 10.25 14.75 11.7051 14.75 13.5C14.75 14.4119 15.1256 15.236 15.7304 15.8263C14.2527 16.6315 13.25 18.1987 13.25 20V20.1667C13.25 21.0411 13.9589 21.75 14.8333 21.75H21.1667C22.0411 21.75 22.75 21.0411 22.75 20.1667V20C22.75 18.1987 21.7473 16.6315 20.2696 15.8263ZM18 16.75C16.2051 16.75 14.75 18.2051 14.75 20V20.1667C14.75 20.2127 14.7873 20.25 14.8333 20.25H21.1667C21.2127 20.25 21.25 20.2127 21.25 20.1667V20C21.25 18.2051 19.7949 16.75 18 16.75ZM2.09239 14.2553C2.50367 14.2061 2.87697 14.4996 2.92618 14.9109C3.04757 15.9255 3.21306 16.79 3.36115 17.4423C3.46679 17.9076 3.89629 18.25 4.44152 18.25H11.5C11.9142 18.25 12.25 18.5858 12.25 19C12.25 19.4142 11.9142 19.75 11.5 19.75H4.44152C3.26502 19.75 2.17391 18.9881 1.89837 17.7744C1.74052 17.0791 1.56526 16.1628 1.4368 15.0891C1.38759 14.6778 1.68111 14.3045 2.09239 14.2553Z" fill="#231F2C"/>
</svg>
