<svg width="24" height="24" viewBox="0 0 24 24" fill="none" xmlns="http://www.w3.org/2000/svg">
<path fill-rule="evenodd" clip-rule="evenodd" d="M4.44295 5.75C3.8969 5.75 3.46715 6.09272 3.3615 6.55781C3.08523 7.774 2.75 9.72104 2.75 12C2.75 12.4142 2.41421 12.75 2 12.75C1.58579 12.75 1.25 12.4142 1.25 12C1.25 9.57977 1.60525 7.51769 1.89877 6.22554C2.17451 5.01163 3.26628 4.25 4.44295 4.25H8.00353C8.8693 4.25 9.6847 4.65738 10.2043 5.34983L10.5045 5.74983C10.7407 6.0646 11.1116 6.25 11.5056 6.25H18.0105C19.5301 6.25 20.7606 7.48134 20.7606 9V10.25H20.8931C21.5286 10.25 22.0819 10.5805 22.4107 11.0343C22.7444 11.495 22.8911 12.1546 22.5769 12.7828L20.6813 16.5716C19.6981 18.5369 17.5768 19.75 15.4177 19.75H4.44295C3.26628 19.75 2.17451 18.9884 1.89877 17.7745C1.74082 17.0791 1.56545 16.1628 1.43691 15.0892C1.38768 14.6779 1.68117 14.3046 2.09244 14.2553C2.50372 14.2061 2.87704 14.4996 2.92628 14.9108C3.04774 15.9254 3.21333 16.7899 3.3615 17.4422C3.46715 17.9073 3.8969 18.25 4.44295 18.25H4.53836L7.50371 12.3228C8.13934 11.0523 9.43848 10.25 10.8593 10.25H19.2606V9C19.2606 8.30952 18.7014 7.75 18.0105 7.75H11.5056C10.6398 7.75 9.82442 7.34262 9.30477 6.65017L9.0046 6.25017C8.76838 5.9354 8.39753 5.75 8.00353 5.75H4.44295ZM10.8593 11.75C10.0062 11.75 9.22651 12.2317 8.84519 12.9939L6.21561 18.25H15.4177C17.0486 18.25 18.6281 17.3231 19.3398 15.9005L21.2354 12.1116C21.2538 12.0749 21.2659 12.0109 21.1959 11.9142C21.1209 11.8107 21.0013 11.75 20.8931 11.75H10.8593Z" fill="#231F2C"/>
</svg>
