<svg width="24" height="24" viewBox="0 0 24 24" fill="none" xmlns="http://www.w3.org/2000/svg">
<path fill-rule="evenodd" clip-rule="evenodd" d="M4.44152 5.75C3.89629 5.75 3.46679 6.09241 3.36115 6.55772C3.08504 7.77393 2.75 9.72099 2.75 12C2.75 12.4142 2.41421 12.75 2 12.75C1.58579 12.75 1.25 12.4142 1.25 12C1.25 9.57982 1.60503 7.51776 1.89837 6.22563C2.17391 5.01194 3.26502 4.25 4.44152 4.25H8C8.86558 4.25 9.68065 4.65753 10.2 5.35L10.5 5.75C10.7361 6.06476 11.1066 6.25 11.5 6.25H19.7639C20.7953 6.25 21.8228 6.85176 22.1333 7.96175C22.4268 9.0108 22.75 10.6908 22.75 13C22.75 15.3092 22.4268 16.9892 22.1333 18.0382C21.8228 19.1482 20.7953 19.75 19.7639 19.75H4.44152C3.26502 19.75 2.17391 18.9881 1.89837 17.7744C1.74052 17.0791 1.56526 16.1628 1.4368 15.0891C1.38759 14.6778 1.68111 14.3045 2.09239 14.2553C2.50367 14.2061 2.87697 14.4996 2.92618 14.9109C3.04757 15.9255 3.21306 16.79 3.36115 17.4423C3.46679 17.9076 3.89629 18.25 4.44152 18.25H19.7639C20.2476 18.25 20.5911 17.9832 20.6888 17.6341C20.9469 16.7115 21.25 15.1674 21.25 13C21.25 10.8326 20.9469 9.28847 20.6888 8.36591C20.5911 8.01685 20.2476 7.75 19.7639 7.75H11.5C10.6344 7.75 9.81935 7.34247 9.3 6.65L9 6.25C8.76393 5.93524 8.39345 5.75 8 5.75H4.44152ZM9.46967 10.4697C9.76256 10.1768 10.2374 10.1768 10.5303 10.4697L12 11.9393L13.4697 10.4697C13.7626 10.1768 14.2374 10.1768 14.5303 10.4697C14.8232 10.7626 14.8232 11.2374 14.5303 11.5303L13.0607 13L14.5303 14.4697C14.8232 14.7626 14.8232 15.2374 14.5303 15.5303C14.2374 15.8232 13.7626 15.8232 13.4697 15.5303L12 14.0607L10.5303 15.5303C10.2374 15.8232 9.76256 15.8232 9.46967 15.5303C9.17678 15.2374 9.17678 14.7626 9.46967 14.4697L10.9393 13L9.46967 11.5303C9.17678 11.2374 9.17678 10.7626 9.46967 10.4697Z" fill="#231F2C"/>
</svg>
