<svg width="24" height="24" viewBox="0 0 24 24" fill="none" xmlns="http://www.w3.org/2000/svg">
<path fill-rule="evenodd" clip-rule="evenodd" d="M7 2.75C6.30964 2.75 5.75 3.30964 5.75 4V20C5.75 20.6904 6.30964 21.25 7 21.25H17C17.6904 21.25 18.25 20.6904 18.25 20V18C18.25 17.5858 18.5858 17.25 19 17.25C19.4142 17.25 19.75 17.5858 19.75 18V20C19.75 21.5188 18.5188 22.75 17 22.75H7C5.48122 22.75 4.25 21.5188 4.25 20V4C4.25 2.48122 5.48122 1.25 7 1.25H14C14.1989 1.25 14.3897 1.32902 14.5303 1.46967L19.5303 6.46967C19.671 6.61032 19.75 6.80109 19.75 7V15C19.75 15.4142 19.4142 15.75 19 15.75C18.5858 15.75 18.25 15.4142 18.25 15V7.75H14C13.5858 7.75 13.25 7.41421 13.25 7V2.75H7ZM14.75 3.81066L17.1893 6.25H14.75V3.81066ZM9.5 4.25C9.91421 4.25 10.25 4.58579 10.25 5V5.37803C11.1239 5.68691 11.75 6.52034 11.75 7.5C11.75 7.91421 11.4142 8.25 11 8.25C10.5858 8.25 10.25 7.91421 10.25 7.5C10.25 7.08579 9.91421 6.75 9.5 6.75C9.08579 6.75 8.75 7.08579 8.75 7.5V7.74342C8.75 8.17101 9.02362 8.55064 9.42927 8.68585L10.0451 8.89112C11.0632 9.23051 11.75 10.1833 11.75 11.2566V11.5C11.75 12.4797 11.1239 13.3131 10.25 13.622V14C10.25 14.4142 9.91421 14.75 9.5 14.75C9.08579 14.75 8.75 14.4142 8.75 14V13.622C7.87611 13.3131 7.25 12.4797 7.25 11.5C7.25 11.0858 7.58579 10.75 8 10.75C8.41421 10.75 8.75 11.0858 8.75 11.5C8.75 11.9142 9.08579 12.25 9.5 12.25C9.91421 12.25 10.25 11.9142 10.25 11.5V11.2566C10.25 10.829 9.97638 10.4494 9.57073 10.3141L8.95493 10.1089C7.93676 9.76949 7.25 8.81666 7.25 7.74342V7.5C7.25 6.52034 7.87611 5.68691 8.75 5.37803V5C8.75 4.58579 9.08579 4.25 9.5 4.25ZM12.25 14C12.25 13.5858 12.5858 13.25 13 13.25H15C15.4142 13.25 15.75 13.5858 15.75 14C15.75 14.4142 15.4142 14.75 15 14.75H13C12.5858 14.75 12.25 14.4142 12.25 14ZM8.25 18C8.25 17.5858 8.58579 17.25 9 17.25H15C15.4142 17.25 15.75 17.5858 15.75 18C15.75 18.4142 15.4142 18.75 15 18.75H9C8.58579 18.75 8.25 18.4142 8.25 18Z" fill="#231F2C"/>
</svg>
