<svg width="24" height="24" viewBox="0 0 24 24" fill="none" xmlns="http://www.w3.org/2000/svg">
<path fill-rule="evenodd" clip-rule="evenodd" d="M7 2.75C6.30964 2.75 5.75 3.30964 5.75 4V20C5.75 20.6904 6.30964 21.25 7 21.25H17C17.6904 21.25 18.25 20.6904 18.25 20V18C18.25 17.5858 18.5858 17.25 19 17.25C19.4142 17.25 19.75 17.5858 19.75 18V20C19.75 21.5188 18.5188 22.75 17 22.75H7C5.48122 22.75 4.25 21.5188 4.25 20V4C4.25 2.48122 5.48122 1.25 7 1.25H14C14.1989 1.25 14.3897 1.32902 14.5303 1.46967L19.5303 6.46967C19.671 6.61032 19.75 6.80109 19.75 7V15C19.75 15.4142 19.4142 15.75 19 15.75C18.5858 15.75 18.25 15.4142 18.25 15V7.75H14C13.5858 7.75 13.25 7.41421 13.25 7V2.75H7ZM14.75 3.81066L17.1893 6.25H14.75V3.81066ZM12 10.75C11.3096 10.75 10.75 11.3096 10.75 12C10.75 12.6904 11.3096 13.25 12 13.25C12.6904 13.25 13.25 12.6904 13.25 12C13.25 11.3096 12.6904 10.75 12 10.75ZM14.1221 13.7492C14.5144 13.2739 14.75 12.6644 14.75 12C14.75 10.4812 13.5188 9.25 12 9.25C10.4812 9.25 9.25 10.4812 9.25 12C9.25 12.6644 9.48565 13.2739 9.87793 13.7492C8.31983 14.5286 7.25 16.1393 7.25 18V18.1667C7.25 19.0411 7.95888 19.75 8.83333 19.75H15.1667C16.0411 19.75 16.75 19.0411 16.75 18.1667V18C16.75 16.1393 15.6802 14.5286 14.1221 13.7492ZM12 14.75C10.2051 14.75 8.75 16.2051 8.75 18V18.1667C8.75 18.2127 8.78731 18.25 8.83333 18.25H15.1667C15.2127 18.25 15.25 18.2127 15.25 18.1667V18C15.25 16.2051 13.7949 14.75 12 14.75Z" fill="#231F2C"/>
</svg>
