<svg width="24" height="24" viewBox="0 0 24 24" fill="none" xmlns="http://www.w3.org/2000/svg">
<path fill-rule="evenodd" clip-rule="evenodd" d="M21.5303 2.46967C21.8232 2.76256 21.8232 3.23744 21.5303 3.53033L18.0974 6.96326C18.5132 7.7155 18.75 8.58079 18.75 9.5C18.75 9.7716 18.7293 10.0387 18.6894 10.2997C20.986 10.6336 22.75 12.6108 22.75 15C22.75 17.6234 20.6234 19.75 18 19.75H16C15.5858 19.75 15.25 19.4142 15.25 19C15.25 18.5858 15.5858 18.25 16 18.25H18C19.7949 18.25 21.25 16.7949 21.25 15C21.25 13.2051 19.7949 11.75 18 11.75C17.929 11.75 17.8586 11.7523 17.7888 11.7567C17.5372 11.7728 17.2943 11.6613 17.1423 11.46C16.9904 11.2587 16.9499 10.9945 17.0344 10.7569C17.1738 10.365 17.25 9.94221 17.25 9.5C17.25 8.99925 17.1522 8.52215 16.9745 8.08612L6.85798 18.2027C7.06855 18.2339 7.2829 18.25 7.5 18.25H13C13.4142 18.25 13.75 18.5858 13.75 19C13.75 19.4142 13.4142 19.75 13 19.75H7.5C6.84507 19.75 6.21245 19.6406 5.61843 19.4422L3.53033 21.5303C3.23744 21.8232 2.76256 21.8232 2.46967 21.5303C2.17678 21.2374 2.17678 20.7626 2.46967 20.4697L4.79403 18.1453C4.84949 18.0623 4.91984 17.993 4.99983 17.9395L16.5065 6.43286C16.5544 6.35991 16.6159 6.29414 16.6905 6.23955C16.7005 6.2322 16.7107 6.22514 16.721 6.21836L20.4697 2.46967C20.7626 2.17678 21.2374 2.17678 21.5303 2.46967ZM13.5 5.75C11.7887 5.75 10.3433 6.89693 9.89429 8.46555C9.83848 8.66053 9.70608 8.8246 9.52728 8.92033C9.34849 9.01607 9.13854 9.03531 8.94532 8.97368C8.49052 8.8286 8.00516 8.75 7.5 8.75C4.87665 8.75 2.75 10.8766 2.75 13.5C2.75 14.5909 3.17745 15.6614 3.90014 16.5156C4.16769 16.8318 4.12824 17.305 3.81203 17.5726C3.49582 17.8401 3.02259 17.8007 2.75503 17.4844C1.8278 16.3886 1.25 14.982 1.25 13.5C1.25 10.0482 4.04822 7.25 7.5 7.25C7.91074 7.25 8.31276 7.28972 8.70224 7.36566C9.51997 5.53025 11.3597 4.25 13.5 4.25C14.1123 4.25 14.7016 4.35512 15.2499 4.54893C15.6405 4.68696 15.8452 5.11546 15.7071 5.50599C15.5691 5.89653 15.1406 6.10122 14.7501 5.96319C14.3601 5.82534 13.9396 5.75 13.5 5.75Z" fill="#231F2C"/>
</svg>
