<svg width="24" height="24" viewBox="0 0 24 24" fill="none" xmlns="http://www.w3.org/2000/svg">
<path d="M12 4.75C8.67893 4.75 5.23988 6.83061 2.92381 11.2405C2.69206 11.6818 2.69206 12.3182 2.92381 12.7595C6.03486 18.6831 11.1616 20.4295 15.4443 18.4905C15.8216 18.3197 16.266 18.4871 16.4368 18.8644C16.6077 19.2418 16.4403 19.6861 16.0629 19.857C10.8851 22.2013 4.98182 19.9041 1.59582 13.4569C1.13473 12.579 1.13473 11.4211 1.59582 10.5431C4.1058 5.76394 7.99391 3.25 12 3.25C16.0061 3.25 19.8942 5.76394 22.4042 10.5431C22.8653 11.421 22.8653 12.579 22.4042 13.4569C21.3876 15.3926 20.1474 16.9557 18.7611 18.1322C18.4452 18.4002 17.972 18.3615 17.7039 18.0457C17.4359 17.7299 17.4746 17.2566 17.7904 16.9886C19.0133 15.9507 20.1381 14.5456 21.0762 12.7595C21.3079 12.3182 21.3079 11.6818 21.0762 11.2405C18.7601 6.83061 15.3211 4.75 12 4.75Z" fill="#231F2C"/>
<path d="M12.2718 8.9021L12.8394 10.7538H14.715C14.9871 10.7538 15.1039 11.1019 14.8877 11.2684L13.3583 12.4461L13.9349 14.3273C14.0167 14.594 13.7105 14.8093 13.4904 14.6398L12 13.4921L10.5096 14.6398C10.2895 14.8093 9.98329 14.594 10.0651 14.3273L10.6417 12.4461L9.11234 11.2684C8.8961 11.1019 9.01292 10.7538 9.28503 10.7538H11.1606L11.7282 8.9021C11.8108 8.63264 12.1892 8.63264 12.2718 8.9021Z" fill="#231F2C"/>
<path fill-rule="evenodd" clip-rule="evenodd" d="M12 6.25C8.82436 6.25 6.25 8.82436 6.25 12C6.25 15.1756 8.82436 17.75 12 17.75C15.1756 17.75 17.75 15.1756 17.75 12C17.75 8.82436 15.1756 6.25 12 6.25ZM7.75 12C7.75 9.65279 9.65279 7.75 12 7.75C14.3472 7.75 16.25 9.65279 16.25 12C16.25 14.3472 14.3472 16.25 12 16.25C9.65279 16.25 7.75 14.3472 7.75 12Z" fill="#231F2C"/>
</svg>
