<svg width="24" height="24" viewBox="0 0 24 24" fill="none" xmlns="http://www.w3.org/2000/svg">
<path fill-rule="evenodd" clip-rule="evenodd" d="M4.25 5C4.25 2.92893 5.92893 1.25 8 1.25H19C19.4142 1.25 19.75 1.58579 19.75 2V16C19.75 16.4142 19.4142 16.75 19 16.75H8C6.75736 16.75 5.75 17.7574 5.75 19C5.75 20.2426 6.75736 21.25 8 21.25H18.25V19C18.25 18.5858 18.5858 18.25 19 18.25C19.4142 18.25 19.75 18.5858 19.75 19V22C19.75 22.4142 19.4142 22.75 19 22.75H8C5.92893 22.75 4.25 21.0711 4.25 19V5ZM5.75 15.9997C6.37675 15.529 7.1558 15.25 8 15.25H18.25V2.75H8C6.75736 2.75 5.75 3.75736 5.75 5V15.9997ZM15.5303 6.46967C15.8232 6.76256 15.8232 7.23744 15.5303 7.53033L11.5303 11.5303C11.2374 11.8232 10.7626 11.8232 10.4697 11.5303L8.46967 9.53033C8.17678 9.23744 8.17678 8.76256 8.46967 8.46967C8.76256 8.17678 9.23744 8.17678 9.53033 8.46967L11 9.93934L14.4697 6.46967C14.7626 6.17678 15.2374 6.17678 15.5303 6.46967Z" fill="#231F2C"/>
</svg>
