<svg width="24" height="24" viewBox="0 0 24 24" fill="none" xmlns="http://www.w3.org/2000/svg">
<path fill-rule="evenodd" clip-rule="evenodd" d="M13.5 5.75C11.7887 5.75 10.3433 6.89693 9.89429 8.46555C9.83848 8.66053 9.70608 8.8246 9.52728 8.92034C9.34849 9.01607 9.13854 9.03531 8.94532 8.97368C8.49052 8.8286 8.00516 8.75 7.5 8.75C4.87665 8.75 2.75 10.8766 2.75 13.5C2.75 15.9663 4.92565 18.25 7.5 18.25H13C13.4142 18.25 13.75 18.5858 13.75 19C13.75 19.4142 13.4142 19.75 13 19.75H7.5C4.07435 19.75 1.25 16.7717 1.25 13.5C1.25 10.0482 4.04822 7.25 7.5 7.25C7.91074 7.25 8.31276 7.28972 8.70224 7.36567C9.51997 5.53025 11.3597 4.25 13.5 4.25C16.3995 4.25 18.75 6.6005 18.75 9.5C18.75 9.7716 18.7293 10.0387 18.6894 10.2997C20.986 10.6336 22.75 12.6108 22.75 15C22.75 17.6234 20.6234 19.75 18 19.75H16C15.5858 19.75 15.25 19.4142 15.25 19C15.25 18.5858 15.5858 18.25 16 18.25H18C19.7949 18.25 21.25 16.7949 21.25 15C21.25 13.2051 19.7949 11.75 18 11.75C17.929 11.75 17.8586 11.7523 17.7888 11.7567C17.5372 11.7728 17.2943 11.6613 17.1423 11.46C16.9904 11.2587 16.9499 10.9945 17.0344 10.7569C17.1738 10.365 17.25 9.94221 17.25 9.5C17.25 7.42893 15.5711 5.75 13.5 5.75ZM11.4697 9.46967C11.7626 9.17678 12.2374 9.17678 12.5303 9.46967L14.5303 11.4697C14.8232 11.7626 14.8232 12.2374 14.5303 12.5303C14.2374 12.8232 13.7626 12.8232 13.4697 12.5303L12.75 11.8107V16C12.75 16.4142 12.4142 16.75 12 16.75C11.5858 16.75 11.25 16.4142 11.25 16V11.8107L10.5303 12.5303C10.2374 12.8232 9.76256 12.8232 9.46967 12.5303C9.17678 12.2374 9.17678 11.7626 9.46967 11.4697L11.4697 9.46967Z" fill="#231F2C"/>
</svg>
