<svg width="24" height="24" viewBox="0 0 24 24" fill="none" xmlns="http://www.w3.org/2000/svg">
<path fill-rule="evenodd" clip-rule="evenodd" d="M11 3.75C9.20507 3.75 7.75 5.20507 7.75 7C7.75 8.79493 9.20507 10.25 11 10.25C12.7949 10.25 14.25 8.79493 14.25 7C14.25 5.20507 12.7949 3.75 11 3.75ZM6.25 7C6.25 4.37665 8.37665 2.25 11 2.25C13.6234 2.25 15.75 4.37665 15.75 7C15.75 9.62335 13.6234 11.75 11 11.75C8.37665 11.75 6.25 9.62335 6.25 7ZM17 11.75C16.0621 11.75 15.25 12.551 15.25 13.6042V14.3464C15.7472 14.2865 16.3264 14.25 17 14.25C17.6736 14.25 18.2528 14.2865 18.75 14.3464V13.6042C18.75 12.551 17.9379 11.75 17 11.75ZM20.25 14.6544V13.6042C20.25 11.7809 18.8235 10.25 17 10.25C15.1765 10.25 13.75 11.7809 13.75 13.6042V14.6544C13.7163 14.665 13.6834 14.6757 13.6513 14.6865C12.6021 15.0376 12.25 16.0889 12.25 16.9223V19.0777C12.25 19.9111 12.6021 20.9624 13.6513 21.3135C14.3523 21.5481 15.4149 21.75 17 21.75C18.5851 21.75 19.6477 21.5481 20.3487 21.3135C21.3979 20.9624 21.75 19.9111 21.75 19.0777V16.9223C21.75 16.0889 21.3979 15.0376 20.3487 14.6865C20.3166 14.6757 20.2837 14.665 20.25 14.6544ZM19.3239 15.9603C19.3335 15.9626 19.3431 15.9647 19.3528 15.9666C19.5579 16.0123 19.7299 16.0612 19.8727 16.1089C20.0387 16.1645 20.25 16.3916 20.25 16.9223V19.0777C20.25 19.6084 20.0387 19.8355 19.8727 19.8911C19.3574 20.0635 18.4612 20.25 17 20.25C15.5388 20.25 14.6426 20.0635 14.1273 19.8911C13.9613 19.8355 13.75 19.6084 13.75 19.0777V16.9223C13.75 16.3916 13.9613 16.1645 14.1273 16.1089C14.2701 16.0611 14.4422 16.0123 14.6475 15.9666C14.6571 15.9647 14.6667 15.9626 14.6761 15.9603C15.2098 15.844 15.9625 15.75 17 15.75C18.0375 15.75 18.7902 15.844 19.3239 15.9603ZM6.99918 13.9661C6.85251 13.8604 6.71467 13.8444 6.63262 13.8649L6.21176 13.9701C4.76497 14.3318 3.75 15.6318 3.75 17.1231V18.882C3.75 18.9815 3.80141 19.0287 3.83925 19.0434C4.15464 19.1661 4.61305 19.3281 5.20244 19.4933C5.60128 19.6051 5.83397 20.019 5.72216 20.4179C5.61036 20.8167 5.1964 21.0494 4.79756 20.9376C4.15766 20.7582 3.65279 20.5804 3.29523 20.4413C2.62711 20.1812 2.25 19.54 2.25 18.882V17.1231C2.25 14.9435 3.73341 13.0436 5.84796 12.5149L6.26881 12.4097C6.86831 12.2598 7.45286 12.4441 7.87614 12.7492C8.41385 13.1366 9.503 13.75 11 13.75C11.4142 13.75 11.75 14.0858 11.75 14.5C11.75 14.9142 11.4142 15.25 11 15.25C9.08457 15.25 7.69286 14.466 6.99918 13.9661ZM17 16.75C17.4142 16.75 17.75 17.0858 17.75 17.5V18.3333C17.75 18.7475 17.4142 19.0833 17 19.0833C16.5858 19.0833 16.25 18.7475 16.25 18.3333V17.5C16.25 17.0858 16.5858 16.75 17 16.75ZM7.249 20.7188C7.3011 20.3079 7.67646 20.017 8.08738 20.0691C8.82256 20.1623 9.63392 20.2274 10.5151 20.2451C10.9292 20.2535 11.2582 20.5959 11.2498 21.0101C11.2415 21.4242 10.899 21.7532 10.4849 21.7448C9.54839 21.726 8.6841 21.6568 7.89869 21.5572C7.48777 21.5051 7.19689 21.1297 7.249 20.7188Z" fill="#231F2C"/>
</svg>
