<svg width="24" height="24" viewBox="0 0 24 24" fill="none" xmlns="http://www.w3.org/2000/svg">
<path fill-rule="evenodd" clip-rule="evenodd" d="M4.44152 5.75C3.89629 5.75 3.46679 6.09241 3.36115 6.55772C3.08504 7.77393 2.75 9.72099 2.75 12C2.75 12.4142 2.41421 12.75 2 12.75C1.58579 12.75 1.25 12.4142 1.25 12C1.25 9.57982 1.60503 7.51776 1.89837 6.22563C2.17391 5.01194 3.26502 4.25 4.44152 4.25H8C8.86558 4.25 9.68065 4.65753 10.2 5.35L10.5 5.75C10.7361 6.06476 11.1066 6.25 11.5 6.25H19.7639C20.7949 6.25 21.8224 6.85078 22.1331 7.96104C22.3809 8.84654 22.6501 10.1823 22.7278 11.9674C22.7459 12.3812 22.425 12.7313 22.0112 12.7493C21.5974 12.7673 21.2473 12.4465 21.2293 12.0326C21.1567 10.3665 20.9067 9.14438 20.6886 8.36529C20.591 8.01652 20.248 7.75 19.7639 7.75H11.5C10.6344 7.75 9.81935 7.34247 9.3 6.65L9 6.25L9.6 5.8L9 6.25C8.76393 5.93524 8.39345 5.75 8 5.75H4.44152ZM13.25 17C13.25 14.3766 15.3766 12.25 18 12.25C20.6234 12.25 22.75 14.3766 22.75 17C22.75 19.6234 20.6234 21.75 18 21.75C15.3766 21.75 13.25 19.6234 13.25 17ZM18 13.75C16.2051 13.75 14.75 15.2051 14.75 17C14.75 17.6257 14.9268 18.2102 15.2333 18.7061L19.7061 14.2333C19.2102 13.9268 18.6257 13.75 18 13.75ZM20.7667 15.2939L16.2939 19.7667C16.7898 20.0732 17.3743 20.25 18 20.25C19.7949 20.25 21.25 18.7949 21.25 17C21.25 16.3743 21.0732 15.7898 20.7667 15.2939ZM2.09239 14.2553C2.50367 14.2061 2.87697 14.4996 2.92618 14.9109C3.04757 15.9255 3.21306 16.79 3.36115 17.4423C3.46679 17.9076 3.89629 18.25 4.44152 18.25H12C12.4142 18.25 12.75 18.5858 12.75 19C12.75 19.4142 12.4142 19.75 12 19.75H4.44152C3.26502 19.75 2.17391 18.9881 1.89837 17.7744C1.74052 17.0791 1.56526 16.1628 1.4368 15.0891C1.38759 14.6778 1.68111 14.3045 2.09239 14.2553Z" fill="#231F2C"/>
</svg>
