<svg width="24" height="24" viewBox="0 0 24 24" fill="none" xmlns="http://www.w3.org/2000/svg">
<path fill-rule="evenodd" clip-rule="evenodd" d="M4 2.25C3.0335 2.25 2.25 3.0335 2.25 4V20C2.25 20.9665 3.0335 21.75 4 21.75H13C13.4142 21.75 13.75 21.4142 13.75 21C13.75 20.5858 13.4142 20.25 13 20.25H4C3.86193 20.25 3.75 20.1381 3.75 20V4C3.75 3.86193 3.86193 3.75 4 3.75H9.25V7C9.25 7.25993 9.38459 7.50133 9.6057 7.63799C9.82681 7.77464 10.1029 7.78707 10.3354 7.67082L12 6.83853L13.6646 7.67082C13.8971 7.78707 14.1732 7.77464 14.3943 7.63799C14.6154 7.50133 14.75 7.25993 14.75 7V3.75H20C20.1381 3.75 20.25 3.86193 20.25 4V8.5C20.25 8.91421 20.5858 9.25 21 9.25C21.4142 9.25 21.75 8.91421 21.75 8.5V4C21.75 3.0335 20.9665 2.25 20 2.25H4ZM10.75 5.78647V3.75H13.25V5.78647L12.3354 5.32918C12.1243 5.22361 11.8757 5.22361 11.6646 5.32918L10.75 5.78647Z" fill="#231F2C"/>
<path d="M13.75 13.8543C13.75 12.1658 15.1786 10.75 17 10.75C18.8214 10.75 20.25 12.1658 20.25 13.8543C20.25 14.6462 20.0547 15.445 19.7384 16.215C19.581 16.5982 19.764 17.0364 20.1472 17.1938C20.5303 17.3511 20.9685 17.1681 21.1259 16.785C21.4957 15.8848 21.75 14.8899 21.75 13.8543C21.75 11.2854 19.5969 9.25 17 9.25C14.4031 9.25 12.25 11.2854 12.25 13.8543C12.25 15.6276 12.9953 17.2917 13.8191 18.592C14.6482 19.9008 15.6033 20.9141 16.1294 21.406C16.62 21.8647 17.38 21.8647 17.8706 21.406C18.2783 21.0248 18.937 20.3369 19.5954 19.4457C19.8416 19.1125 19.771 18.6429 19.4379 18.3968C19.1047 18.1506 18.6351 18.2212 18.389 18.5543C17.8714 19.2548 17.3555 19.8137 17 20.1628C16.5205 19.692 15.7553 18.8455 15.0862 17.7893C14.3347 16.603 13.75 15.224 13.75 13.8543Z" fill="#231F2C"/>
<path fill-rule="evenodd" clip-rule="evenodd" d="M15.25 14C15.25 13.0335 16.0335 12.25 17 12.25C17.9665 12.25 18.75 13.0335 18.75 14C18.75 14.9665 17.9665 15.75 17 15.75C16.0335 15.75 15.25 14.9665 15.25 14ZM17 13.75C16.8619 13.75 16.75 13.8619 16.75 14C16.75 14.1381 16.8619 14.25 17 14.25C17.1381 14.25 17.25 14.1381 17.25 14C17.25 13.8619 17.1381 13.75 17 13.75Z" fill="#231F2C"/>
<path fill-rule="evenodd" clip-rule="evenodd" d="M6 13.25C5.58579 13.25 5.25 13.5858 5.25 14V18C5.25 18.4142 5.58579 18.75 6 18.75H10C10.4142 18.75 10.75 18.4142 10.75 18V14C10.75 13.5858 10.4142 13.25 10 13.25H6ZM6.75 17.25V14.75H9.25V17.25H6.75Z" fill="#231F2C"/>
</svg>
