<svg width="24" height="24" viewBox="0 0 24 24" fill="none" xmlns="http://www.w3.org/2000/svg">
<path fill-rule="evenodd" clip-rule="evenodd" d="M18.6321 6.49152C14.2243 6.00177 9.77584 6.00177 5.36806 6.49152L4.20086 6.62121C3.87297 6.65764 3.60918 6.90744 3.55494 7.23285C3.24964 9.06469 3.12152 10.9185 3.17059 12.7688L7.46974 8.46969C7.61039 8.32903 7.80115 8.25002 8.00007 8.25002C8.19898 8.25002 8.38974 8.32903 8.5304 8.46969L14.0001 13.9394L16.4697 11.4697C16.6104 11.329 16.8012 11.25 17.0001 11.25C17.199 11.25 17.3897 11.329 17.5304 11.4697L20.7178 14.657C20.9453 12.1838 20.8545 9.68856 20.4452 7.23285C20.391 6.90744 20.1272 6.65764 19.7993 6.62121L18.6321 6.49152ZM20.4818 16.5421C20.4777 16.5383 20.4737 16.5343 20.4697 16.5303L17.0001 13.0607L14.5304 15.5303C14.3897 15.671 14.199 15.75 14.0001 15.75C13.8012 15.75 13.6104 15.671 13.4697 15.5303L8.00007 10.0607L3.31592 14.7448C3.30831 14.7524 3.30057 14.7598 3.29272 14.7671C3.35683 15.4358 3.44424 16.103 3.55494 16.7672C3.60918 17.0926 3.87297 17.3424 4.20086 17.3788L5.36806 17.5085C9.77584 17.9983 14.2243 17.9983 18.6321 17.5085L19.7993 17.3788C20.1272 17.3424 20.391 17.0926 20.4452 16.7672C20.4577 16.6922 20.4699 16.6172 20.4818 16.5421ZM5.20242 5.0007C9.72028 4.49871 14.2799 4.49871 18.7977 5.0007L19.9649 5.13039C20.9598 5.24093 21.7602 5.99886 21.9248 6.98625C22.4781 10.3059 22.4781 13.6942 21.9248 17.0138C21.7602 18.0012 20.9598 18.7591 19.9649 18.8696L18.7977 18.9993C14.2799 19.5013 9.72028 19.5013 5.20242 18.9993L4.03521 18.8696C3.04032 18.7591 2.23992 18.0012 2.07535 17.0138C1.52208 13.6942 1.52208 10.3059 2.07535 6.98625C2.23992 5.99886 3.04032 5.24093 4.03521 5.13039L5.20242 5.0007ZM16.5001 8.75002C16.6381 8.75002 16.7501 8.63809 16.7501 8.50002C16.7501 8.36194 16.6381 8.25002 16.5001 8.25002C16.362 8.25002 16.2501 8.36194 16.2501 8.50002C16.2501 8.63809 16.362 8.75002 16.5001 8.75002ZM15.2501 8.50002C15.2501 7.80966 15.8097 7.25002 16.5001 7.25002C17.1904 7.25002 17.7501 7.80966 17.7501 8.50002C17.7501 9.19037 17.1904 9.75002 16.5001 9.75002C15.8097 9.75002 15.2501 9.19037 15.2501 8.50002Z" fill="#231F2C"/>
</svg>
