<svg width="24" height="24" viewBox="0 0 24 24" fill="none" xmlns="http://www.w3.org/2000/svg">
<path fill-rule="evenodd" clip-rule="evenodd" d="M6.47499 13.6655C6.67649 14.052 6.52657 14.5286 6.14013 14.7301L3.93133 15.8818C3.74276 15.9802 3.74276 16.25 3.93133 16.3483L10.4189 19.7311C11.4096 20.2477 12.5902 20.2477 13.5809 19.7311L14.6724 19.162C15.0588 18.9605 15.5355 19.1104 15.737 19.4968C15.9385 19.8833 15.7885 20.3599 15.4021 20.5614L14.3106 21.1305C12.8626 21.8855 11.1371 21.8855 9.68918 21.1305L3.20163 17.7477C1.88168 17.0595 1.88168 15.1707 3.20163 14.4824L5.41043 13.3307C5.79687 13.1292 6.27349 13.2791 6.47499 13.6655ZM17.5328 13.6697C17.7343 13.2833 18.2109 13.1334 18.5973 13.3349L20.7981 14.4824C22.1181 15.1707 22.1181 17.0595 20.7981 17.7477L18.1862 19.1097C17.7997 19.3112 17.3231 19.1613 17.1216 18.7748C16.9201 18.3884 17.07 17.9118 17.4565 17.7103L20.0684 16.3483C20.257 16.25 20.257 15.9802 20.0684 15.8818L17.8676 14.7343C17.4812 14.5328 17.3313 14.0561 17.5328 13.6697Z" fill="#231F2C"/>
<path fill-rule="evenodd" clip-rule="evenodd" d="M13.573 4.08199C12.5866 3.57089 11.4133 3.57089 10.4268 4.08198L3.94344 7.44112C3.75406 7.53923 3.75406 7.8101 3.94344 7.90822L10.4268 11.2674C11.4133 11.7784 12.5866 11.7784 13.573 11.2674L20.0564 7.90822C20.2458 7.8101 20.2458 7.53923 20.0564 7.44112L13.573 4.08199ZM9.7008 2.68067C11.1425 1.93368 12.8573 1.93368 14.2991 2.68067L20.7824 6.0398C22.1081 6.72663 22.1081 8.62271 20.7824 9.30954L19.8792 9.7775L20.794 10.2537C22.1155 10.9416 22.1155 12.8323 20.794 13.5202L14.3076 16.8967C12.8613 17.6496 11.1386 17.6496 9.69227 16.8967L3.20581 13.5202C1.88436 12.8323 1.88436 10.9416 3.20581 10.2537L4.12061 9.7775L3.2174 9.30954C1.89176 8.62271 1.89176 6.72663 3.2174 6.0398L9.7008 2.68067ZM5.83364 10.665L3.93454 11.6536C3.74576 11.7519 3.74576 12.022 3.93454 12.1203L10.421 15.4968C11.4106 16.0119 12.5893 16.0119 13.5788 15.4968L20.0653 12.1203C20.2541 12.022 20.2541 11.7519 20.0653 11.6536L18.1662 10.665L14.299 12.6687C12.8573 13.4157 11.1425 13.4157 9.7008 12.6687L5.83364 10.665Z" fill="#231F2C" fill-opacity="0.63"/>
</svg>
