<svg width="24" height="24" viewBox="0 0 24 24" fill="none" xmlns="http://www.w3.org/2000/svg">
<path fill-rule="evenodd" clip-rule="evenodd" d="M4.81339 4.04574C5.21271 2.96649 6.24177 2.25 7.39252 2.25H16.6075C17.7582 2.25 18.7873 2.96649 19.1866 4.04573L20.9234 8.73974C20.9257 8.74601 20.9279 8.75229 20.9301 8.75858C21.0028 8.91667 21.0605 9.08498 21.1009 9.26242C21.3915 10.5379 21.75 12.5098 21.75 14.5C21.75 14.6747 21.7472 14.849 21.742 15.0225C21.7296 15.4365 21.3839 15.7621 20.9698 15.7497C20.5558 15.7372 20.2303 15.3915 20.2427 14.9775C20.2475 14.8182 20.25 14.6589 20.25 14.5C20.25 12.6695 19.9175 10.8208 19.6384 9.5956C19.527 9.10671 19.0781 8.75 18.5229 8.75H5.47715C4.9219 8.75 4.47298 9.10671 4.36161 9.5956C4.08249 10.8208 3.75 12.6695 3.75 14.5C3.75 16.3305 4.08249 18.1792 4.36161 19.4044C4.47298 19.8933 4.9219 20.25 5.47715 20.25H18.5229C19.0781 20.25 19.527 19.8933 19.6384 19.4044C19.738 18.9673 19.8451 18.4476 19.9415 17.8754C20.0103 17.467 20.3971 17.1916 20.8056 17.2604C21.2141 17.3292 21.4894 17.7161 21.4206 18.1246C21.3188 18.7291 21.2058 19.2771 21.1009 19.7376C20.8222 20.9608 19.7236 21.75 18.5229 21.75H5.47715C4.27638 21.75 3.17775 20.9608 2.89908 19.7376C2.60852 18.4621 2.25 16.4902 2.25 14.5C2.25 12.5098 2.60852 10.5379 2.89908 9.26242C2.93952 9.0849 2.99723 8.91651 3.07002 8.75836C3.07214 8.75215 3.07434 8.74594 3.07663 8.73975L4.81339 4.04574ZM5.22283 7.26184C5.30691 7.25399 5.39177 7.25 5.47715 7.25H18.5229C18.6082 7.25 18.6931 7.25399 18.7772 7.26184L17.7798 4.56624C17.5983 4.07568 17.1306 3.75 16.6075 3.75H7.39252C6.86945 3.75 6.40169 4.07568 6.22019 4.56624L5.22283 7.26184ZM6.25 11C6.25 10.5858 6.58579 10.25 7 10.25H17C17.4142 10.25 17.75 10.5858 17.75 11C17.75 11.4142 17.4142 11.75 17 11.75H7C6.58579 11.75 6.25 11.4142 6.25 11Z" fill="#231F2C"/>
</svg>
