<svg width="24" height="24" viewBox="0 0 24 24" fill="none" xmlns="http://www.w3.org/2000/svg">
<path fill-rule="evenodd" clip-rule="evenodd" d="M11.548 3.29494C11.8476 3.23502 12.1524 3.23502 12.452 3.29494C13.0909 3.42271 14.6009 3.76594 16.2804 4.44305C16.6646 4.59792 16.8505 5.0349 16.6956 5.41907C16.5407 5.80324 16.1037 5.98912 15.7196 5.83425C14.1564 5.20406 12.7442 4.88308 12.1578 4.76581C12.0524 4.74473 11.9476 4.74473 11.8422 4.76581C11.1151 4.91123 9.14111 5.36543 7.17891 6.323C5.53203 7.1267 3.86794 8.29668 2.92694 9C3.86794 9.70332 5.53203 10.8733 7.17891 11.677C9.14111 12.6346 11.1151 13.0888 11.8422 13.2342C11.9476 13.2553 12.0524 13.2553 12.1578 13.2342C12.8849 13.0888 14.8589 12.6346 16.8211 11.677C18.468 10.8733 20.1321 9.70332 21.0731 9C20.4047 8.50046 19.3649 7.76038 18.2223 7.08381C17.8659 6.87276 17.7481 6.41273 17.9592 6.05632C18.1702 5.69991 18.6302 5.58208 18.9867 5.79314C20.3763 6.61602 21.6103 7.52041 22.2654 8.02085C22.9115 8.5145 22.9115 9.4855 22.2654 9.97915C22.1209 10.0895 21.9476 10.2201 21.75 10.3655V14C21.75 14.4142 21.4142 14.75 21 14.75C20.5858 14.75 20.25 14.4142 20.25 14V11.4137C19.7836 11.7222 19.2763 12.0412 18.75 12.3452V16.372C18.75 16.9417 18.5452 17.4922 18.1733 17.9239C14.9279 21.692 9.07212 21.692 5.82667 17.9239C5.45484 17.4922 5.25 16.9417 5.25 16.372V12.3452C3.75932 11.484 2.4209 10.5034 1.73464 9.97915C1.08845 9.4855 1.08845 8.5145 1.73464 8.02085C2.61217 7.35047 4.55603 5.93391 6.52105 4.97496C8.64872 3.93663 10.7646 3.45162 11.548 3.29494ZM6.75 13.1347V16.372C6.75 16.5816 6.82534 16.7849 6.96322 16.945C9.61025 20.0183 14.3898 20.0183 17.0368 16.945C17.1747 16.7849 17.25 16.5816 17.25 16.372V13.1347C15.2011 14.0978 13.2073 14.554 12.452 14.7051L12.3049 13.9696L12.452 14.7051C12.1524 14.765 11.8476 14.765 11.548 14.7051L11.6951 13.9696L11.548 14.7051C10.7927 14.554 8.79886 14.0978 6.75 13.1347Z" fill="#231F2C"/>
</svg>
