<svg width="24" height="24" viewBox="0 0 24 24" fill="none" xmlns="http://www.w3.org/2000/svg">
<path fill-rule="evenodd" clip-rule="evenodd" d="M12 3.75C7.44365 3.75 3.75 7.44365 3.75 12C3.75 16.5563 7.44365 20.25 12 20.25C14.4366 20.25 16.6256 19.1947 18.1369 17.5138C18.4138 17.2058 18.8881 17.1806 19.1961 17.4576C19.5041 17.7345 19.5293 18.2087 19.2523 18.5167C17.4686 20.5006 14.8797 21.75 12 21.75C6.61522 21.75 2.25 17.3848 2.25 12C2.25 6.61522 6.61522 2.25 12 2.25C17.3848 2.25 21.75 6.61522 21.75 12C21.75 13.1382 21.5546 14.2324 21.195 15.2499C21.057 15.6405 20.6285 15.8452 20.2379 15.7071C19.8474 15.5691 19.6427 15.1406 19.7808 14.7501C20.0844 13.8909 20.25 12.9656 20.25 12C20.25 7.44365 16.5563 3.75 12 3.75ZM12 4.95C12.4142 4.95 12.75 5.28579 12.75 5.7V11.6893L15.2303 14.1697C15.5232 14.4626 15.5232 14.9374 15.2303 15.2303C14.9374 15.5232 14.4626 15.5232 14.1697 15.2303L11.4697 12.5303C11.329 12.3897 11.25 12.1989 11.25 12V5.7C11.25 5.28579 11.5858 4.95 12 4.95Z" fill="#231F2C"/>
</svg>
