<svg width="24" height="24" viewBox="0 0 24 24" fill="none" xmlns="http://www.w3.org/2000/svg">
<path fill-rule="evenodd" clip-rule="evenodd" d="M14.8 2.27721C15.1249 2.18723 15.4699 2.32507 15.6433 2.61414L17.7346 6.09966C18.4344 7.26608 17.5942 8.75 16.2339 8.75H15.7502V11C15.7502 11.4142 15.4144 11.75 15.0002 11.75C14.586 11.75 14.2502 11.4142 14.2502 11V3C14.2502 2.66289 14.4751 2.3672 14.8 2.27721ZM15.7502 7.25H16.2339C16.4283 7.25 16.5483 7.03801 16.4483 6.87138L15.7502 5.70784V7.25ZM8.00022 2.25C8.41443 2.25 8.75022 2.58579 8.75022 3V5.5C8.75022 6.19036 9.30986 6.75 10.0002 6.75C10.6906 6.75 11.2502 6.19036 11.2502 5.5V3C11.2502 2.58579 11.586 2.25 12.0002 2.25C12.4144 2.25 12.7502 2.58579 12.7502 3V5.5C12.7502 6.75879 11.9045 7.82003 10.7502 8.14649L10.7501 11C10.7501 11.4142 10.4143 11.75 10.0001 11.75C9.58585 11.75 9.25007 11.4142 9.25009 11L9.25019 8.14648C8.09595 7.82001 7.25022 6.75877 7.25022 5.5V3C7.25022 2.58579 7.586 2.25 8.00022 2.25ZM17.7739 2.87607C17.8771 2.47493 18.286 2.23344 18.6872 2.33668C19.8731 2.64192 20.7502 3.71758 20.7502 5V8C20.7502 8.41421 20.4144 8.75 20.0002 8.75C19.586 8.75 19.2502 8.41421 19.2502 8V5C19.2502 4.41858 18.8526 3.92814 18.3133 3.78934C17.9121 3.68609 17.6706 3.27721 17.7739 2.87607ZM5.50084 2.92232C5.73313 3.26527 5.64342 3.73159 5.30047 3.96388C4.9668 4.18989 4.75009 4.56976 4.75009 5V12C4.75009 12.6904 5.30973 13.25 6.00009 13.25H18.0002C18.6906 13.25 19.2502 12.6904 19.2502 12V11C19.2502 10.5858 19.586 10.25 20.0002 10.25C20.4144 10.25 20.7502 10.5858 20.7502 11V12C20.7502 12.5286 20.6011 13.0224 20.3425 13.4416C21.0838 13.7341 21.6798 14.3422 21.9425 15.1304C21.9507 15.1548 21.9576 15.1797 21.9632 15.2048L22.6221 18.1699C23.1831 19.9382 21.8634 21.75 20.0003 21.75H4.00015C2.13702 21.75 0.817365 19.9382 1.37841 18.1699L2.03731 15.2048C2.04291 15.1797 2.04979 15.1548 2.05794 15.1304C2.32064 14.3423 2.91659 13.7342 3.65781 13.4416C3.39926 13.0225 3.25009 12.5287 3.25009 12V5C3.25009 4.05125 3.73118 3.21512 4.45927 2.72196C4.80222 2.48966 5.26854 2.57937 5.50084 2.92232ZM4.66682 14.75C4.14021 14.75 3.67143 15.0798 3.49222 15.5724L2.83493 18.5302C2.82934 18.5554 2.82245 18.5803 2.8143 18.6047C2.5445 19.4141 3.14696 20.25 4.00015 20.25H20.0003C20.8535 20.25 21.456 19.4141 21.1862 18.6047C21.178 18.5803 21.1711 18.5554 21.1655 18.5302L20.5082 15.5724C20.329 15.0798 19.8603 14.75 19.3336 14.75H4.66682ZM9.25022 19C9.25022 18.5858 9.586 18.25 10.0002 18.25H14.0002C14.4144 18.25 14.7502 18.5858 14.7502 19C14.7502 19.4142 14.4144 19.75 14.0002 19.75H10.0002C9.586 19.75 9.25022 19.4142 9.25022 19Z" fill="#231F2C"/>
</svg>
