<svg width="24" height="24" viewBox="0 0 24 24" fill="none" xmlns="http://www.w3.org/2000/svg">
<path fill-rule="evenodd" clip-rule="evenodd" d="M2.32939 2.66426C2.51481 2.29387 2.96539 2.14392 3.33578 2.32934L3.92904 2.62633C4.38035 2.85227 4.7119 3.26213 4.83896 3.75039L5.49699 6.27892L20.1062 7.16541C21.3154 7.23879 22.0839 8.48924 21.6079 9.60126L21.1064 10.7728C20.9434 11.1536 20.5026 11.3302 20.1218 11.1672C19.741 11.0042 19.5644 10.5633 19.7274 10.1825L20.2289 9.01099C20.2975 8.85073 20.1861 8.67302 20.0154 8.66266L5.89435 7.80579L7.77744 15.0418L14.7945 14.5214C16.2809 14.4111 17.6267 13.6765 18.5246 12.536C18.7808 12.2106 19.2524 12.1545 19.5778 12.4107C19.9033 12.667 19.9594 13.1385 19.7032 13.464C18.549 14.9299 16.8182 15.8754 14.9055 16.0172L6.08857 16.6711C5.89709 16.6854 5.7476 16.8453 5.7476 17.0396C5.7476 17.2227 5.88089 17.3772 6.05986 17.4048L17.4637 19.1614C17.7608 18.6183 18.3374 18.25 19 18.25C19.9665 18.25 20.75 19.0335 20.75 20C20.75 20.9665 19.9665 21.75 19 21.75C18.2695 21.75 17.6435 21.3023 17.3814 20.6664L9.67109 19.4787C9.7224 19.6434 9.75004 19.8185 9.75004 20C9.75004 20.9665 8.96654 21.75 8.00004 21.75C7.03354 21.75 6.25004 20.9665 6.25004 20C6.25004 19.6282 6.36598 19.2835 6.56366 19.0001L5.8315 18.8873C4.91958 18.7468 4.2476 17.9616 4.2476 17.0396C4.2476 16.0615 5.00138 15.2477 5.97762 15.1753L6.25683 15.1546L3.38732 4.12817C3.36909 4.05813 3.32164 3.99973 3.25756 3.96765L2.6643 3.67066C2.29391 3.48523 2.14396 3.03466 2.32939 2.66426ZM8.00004 19.75C7.86197 19.75 7.75004 19.8619 7.75004 20C7.75004 20.1381 7.86197 20.25 8.00004 20.25C8.13811 20.25 8.25004 20.1381 8.25004 20C8.25004 19.8619 8.13811 19.75 8.00004 19.75ZM19 19.75C18.862 19.75 18.75 19.8619 18.75 20C18.75 20.1381 18.862 20.25 19 20.25C19.1381 20.25 19.25 20.1381 19.25 20C19.25 19.8619 19.1381 19.75 19 19.75Z" fill="#231F2C"/>
</svg>
