<svg width="24" height="24" viewBox="0 0 24 24" fill="none" xmlns="http://www.w3.org/2000/svg">
<path fill-rule="evenodd" clip-rule="evenodd" d="M6.5 2.5C5.76456 2.35291 5.76455 2.35299 5.76453 2.35308L5.76398 2.35585L5.76268 2.36241L5.75805 2.38617C5.75408 2.40667 5.7484 2.43637 5.74125 2.47468C5.72695 2.55129 5.70676 2.66235 5.68266 2.80296C5.63447 3.08405 5.5705 3.48399 5.50658 3.96338C5.37918 4.9189 5.25 6.20465 5.25 7.5C5.25 8.79791 5.37961 9.96233 5.50872 10.8015C5.5734 11.2219 5.63827 11.5628 5.68743 11.8004C5.71202 11.9192 5.73271 12.0124 5.74752 12.0769C5.75493 12.1092 5.76087 12.1343 5.76509 12.152L5.77012 12.1727L5.77161 12.1788L5.77234 12.1817C5.77237 12.1818 5.77239 12.1819 6.5 12L5.77234 12.1817C5.8558 12.5155 6.15585 12.75 6.5 12.75H9.71156L9.25094 21.9625C9.23545 22.2723 9.41226 22.5597 9.69577 22.6855C9.97928 22.8113 10.311 22.7497 10.5303 22.5303L10 22C10.5303 22.5303 10.5303 22.5304 10.5303 22.5303L10.5377 22.523L10.5567 22.5037C10.5732 22.4871 10.5973 22.4627 10.6283 22.431C10.6903 22.3676 10.7802 22.2749 10.8937 22.1561C11.1205 21.9185 11.4416 21.5759 11.8214 21.153C12.5798 20.3087 13.578 19.1384 14.5287 17.8417C14.7736 17.5077 14.7014 17.0383 14.3673 16.7934C14.0333 16.5485 13.5639 16.6208 13.319 16.9548C12.466 18.1182 11.5679 19.1824 10.8516 19.9872L11.2491 12.0375C11.2593 11.8323 11.185 11.6319 11.0434 11.4831C10.9018 11.3343 10.7054 11.25 10.5 11.25H7.1074C7.07183 11.0634 7.0316 10.8355 6.99128 10.5735C6.87039 9.78767 6.75 8.70209 6.75 7.5C6.75 6.29535 6.87082 5.0811 6.99342 4.16162C7.05089 3.73057 7.10832 3.3675 7.15286 3.1047C7.30809 3.07002 7.50657 3.03008 7.7483 2.9898C8.45811 2.87149 9.54188 2.75 11 2.75C12.4373 2.75 13.3806 2.86805 13.9523 2.98035L11.319 8.68571C11.2118 8.91793 11.2304 9.18877 11.3682 9.40421C11.5061 9.61966 11.7442 9.75 12 9.75H17.021C16.9592 9.94985 16.8837 10.1801 16.7928 10.4379C16.431 11.4628 15.8241 12.9212 14.8488 14.6279C14.6433 14.9875 14.7683 15.4457 15.1279 15.6512C15.4875 15.8567 15.9457 15.7317 16.1512 15.3721C17.1759 13.5788 17.819 12.0372 18.2072 10.9371C18.4014 10.387 18.5319 9.94711 18.6146 9.64099C18.656 9.48792 18.6855 9.36827 18.7049 9.28498C18.7147 9.24333 18.7219 9.21077 18.7269 9.18767L18.7328 9.16015L18.7345 9.1518L18.7351 9.14898L18.7353 9.14792C18.7353 9.14772 18.7354 9.14709 18 9L18.7353 9.14792C18.7793 8.92759 18.7225 8.69827 18.58 8.52451C18.4376 8.35074 18.2247 8.25 18 8.25H13.1722L15.681 2.81429C15.8507 2.44649 15.6977 2.01034 15.3354 1.82918L15 2.5C15.3354 1.82918 15.3358 1.82938 15.3354 1.82918L15.3338 1.82837L15.3321 1.82753L15.3284 1.82571L15.3199 1.82161L15.2984 1.81161C15.282 1.80417 15.2615 1.79522 15.2367 1.78501C15.1871 1.76458 15.1202 1.73907 15.034 1.71036C14.8618 1.65295 14.6128 1.58271 14.2721 1.51456C13.5911 1.37836 12.541 1.25 11 1.25C9.45812 1.25 8.29189 1.37851 7.5017 1.5102C7.10669 1.57604 6.80589 1.64263 6.59935 1.69427C6.49609 1.72008 6.41641 1.74216 6.36031 1.75852C6.33227 1.7667 6.31012 1.77345 6.29387 1.77852L6.27393 1.78485L6.26727 1.78702L6.26477 1.78784L6.26373 1.78819C6.26351 1.78826 6.26283 1.78849 6.5 2.5ZM6.5 2.5L6.26373 1.78819C6.0084 1.8733 5.81731 2.08916 5.76453 2.35308L6.5 2.5Z" fill="#231F2C"/>
</svg>
