<svg width="24" height="24" viewBox="0 0 24 24" fill="none" xmlns="http://www.w3.org/2000/svg">
<path fill-rule="evenodd" clip-rule="evenodd" d="M12 2.75C6.89137 2.75 2.75 6.89137 2.75 12C2.75 17.1086 6.89137 21.25 12 21.25C14.813 21.25 17.3322 19.9952 19.0299 18.0122C19.2992 17.6976 19.7727 17.6609 20.0873 17.9303C20.402 18.1996 20.4387 18.6731 20.1693 18.9878C18.1988 21.2894 15.2696 22.75 12 22.75C6.06294 22.75 1.25 17.9371 1.25 12C1.25 6.06294 6.06294 1.25 12 1.25C17.9371 1.25 22.75 6.06294 22.75 12C22.75 13.5275 22.431 14.9824 21.8552 16.3003C21.6893 16.6798 21.2472 16.8531 20.8676 16.6873C20.4881 16.5214 20.3148 16.0793 20.4806 15.6997C20.9752 14.5677 21.25 13.3169 21.25 12C21.25 6.89137 17.1086 2.75 12 2.75ZM12 5.25C12.4142 5.25 12.75 5.58579 12.75 6V6.63709C13.4203 6.73453 14.0372 6.96162 14.5373 7.29508C15.2143 7.7464 15.75 8.45226 15.75 9.33333C15.75 9.74755 15.4142 10.0833 15 10.0833C14.5858 10.0833 14.25 9.74755 14.25 9.33333C14.25 9.10984 14.1141 8.81569 13.7053 8.54316C13.3017 8.27412 12.701 8.08333 12 8.08333C11.299 8.08333 10.6983 8.27412 10.2947 8.54316C9.8859 8.81569 9.75 9.10984 9.75 9.33333V9.65789C9.75 10.135 10.2642 10.846 11.5469 11.131L12.7785 11.4047C14.3434 11.7525 15.75 12.8181 15.75 14.3421V14.6667C15.75 15.5477 15.2143 16.2536 14.5373 16.7049C14.0372 17.0384 13.4203 17.2655 12.75 17.3629V18C12.75 18.4142 12.4142 18.75 12 18.75C11.5858 18.75 11.25 18.4142 11.25 18V17.3629C10.5797 17.2655 9.96284 17.0384 9.46265 16.7049C8.78567 16.2536 8.25 15.5477 8.25 14.6667C8.25 14.2525 8.58579 13.9167 9 13.9167C9.41421 13.9167 9.75 14.2525 9.75 14.6667C9.75 14.8902 9.8859 15.1843 10.2947 15.4568C10.6983 15.7259 11.299 15.9167 12 15.9167C12.701 15.9167 13.3017 15.7259 13.7053 15.4568C14.1141 15.1843 14.25 14.8902 14.25 14.6667V14.3421C14.25 13.865 13.7358 13.154 12.4531 12.869L11.2215 12.5953C9.65657 12.2475 8.25 11.1819 8.25 9.65789V9.33333C8.25 8.45226 8.78567 7.7464 9.46265 7.29508C9.96284 6.96162 10.5797 6.73453 11.25 6.63709V6C11.25 5.58579 11.5858 5.25 12 5.25Z" fill="#231F2C"/>
</svg>
