<svg width="24" height="24" viewBox="0 0 24 24" fill="none" xmlns="http://www.w3.org/2000/svg">
<path fill-rule="evenodd" clip-rule="evenodd" d="M10.479 1.80087C11.3601 1.06638 12.6399 1.06638 13.521 1.80087C14.6522 2.74393 16.078 3.26036 17.5504 3.26036H20C20.1992 3.26036 20.3902 3.33962 20.5309 3.48065C20.6717 3.62168 20.7505 3.81289 20.75 4.01211L20.7391 8.66997L20.7391 8.67109C20.7274 11.7315 19.8259 14.6975 18.1786 17.2226C17.9522 17.5695 17.4875 17.6672 17.1406 17.4409C16.7937 17.2146 16.696 16.7499 16.9223 16.4029C18.4127 14.1184 19.2284 11.435 19.2391 8.66614C19.2391 8.66587 19.2391 8.6664 19.2391 8.66614L19.2482 4.76036H17.5504C15.7269 4.76036 13.9612 4.1208 12.5605 2.95301C12.2358 2.68233 11.7642 2.68233 11.4395 2.95301C10.0388 4.1208 8.27305 4.76036 6.44957 4.76036H4.75175L4.76087 8.66535C4.76087 8.66517 4.76087 8.66554 4.76087 8.66535C4.77539 12.4166 6.26722 16.0115 8.91287 18.6697L11.1147 20.8819C11.6031 21.3727 12.3969 21.3727 12.8853 20.8819L15.0871 18.6697C15.1446 18.6119 15.2015 18.5538 15.2579 18.4952C15.545 18.1966 16.0198 18.1874 16.3183 18.4745C16.6169 18.7617 16.6261 19.2364 16.339 19.535C16.2767 19.5998 16.2138 19.664 16.1503 19.7278L13.9485 21.94C12.8737 23.02 11.1263 23.02 10.0515 21.94L7.8497 19.7278C4.92549 16.7897 3.27676 12.8171 3.26088 8.6711L3.25 4.01211C3.24954 3.81289 3.32835 3.62168 3.46905 3.48065C3.60975 3.33962 3.80078 3.26036 4 3.26036H6.44957C7.92198 3.26036 9.34783 2.74393 10.479 1.80087Z" fill="#231F2C"/>
</svg>
