<svg width="24" height="24" viewBox="0 0 24 24" fill="none" xmlns="http://www.w3.org/2000/svg">
<path fill-rule="evenodd" clip-rule="evenodd" d="M11.9998 3.75C10.2048 3.75 8.74976 5.20507 8.74976 7V7.25H15.2498V7C15.2498 5.20507 13.7947 3.75 11.9998 3.75ZM16.7498 7.25V7C16.7498 4.37665 14.6231 2.25 11.9998 2.25C9.3764 2.25 7.24976 4.37665 7.24976 7V7.25H6.0252C4.98683 7.25 4.01627 7.86627 3.63603 8.89369C3.18373 10.1158 2.54335 12.1677 2.34679 14.4352C2.24476 15.6122 2.23418 16.7311 2.26574 17.7028C2.3429 20.0785 4.31795 21.75 6.55917 21.75H17.4967C19.7599 21.75 21.7611 20.038 21.75 17.6192C21.7481 17.2049 21.4107 16.8707 20.9965 16.8726C20.5823 16.8745 20.2481 17.2118 20.25 17.626C20.2568 19.1179 19.0281 20.25 17.4967 20.25H6.55917C5.04786 20.25 3.81332 19.1435 3.76495 17.6541C3.7349 16.7289 3.74529 15.6709 3.84118 14.5648C4.02173 12.482 4.61508 10.57 5.04277 9.41433C5.19238 9.01009 5.57678 8.75 6.0252 8.75H7.24976V11C7.24976 11.4142 7.58554 11.75 7.99976 11.75C8.41397 11.75 8.74976 11.4142 8.74976 11V8.75H15.2498V11C15.2498 11.4142 15.5855 11.75 15.9998 11.75C16.414 11.75 16.7498 11.4142 16.7498 11V8.75H17.911C18.4072 8.75 18.8424 9.07145 18.9786 9.56137C19.3081 10.7467 19.7632 12.5936 20.0417 14.603C20.0986 15.0133 20.4773 15.2998 20.8876 15.2429C21.2979 15.186 21.5844 14.8073 21.5275 14.397C21.2367 12.2991 20.7639 10.3829 20.4238 9.15961C20.1042 8.00984 19.0697 7.25 17.911 7.25H16.7498Z" fill="#231F2C"/>
</svg>
