<svg width="24" height="24" viewBox="0 0 24 24" fill="none" xmlns="http://www.w3.org/2000/svg">
<path fill-rule="evenodd" clip-rule="evenodd" d="M5 3.75C4.30964 3.75 3.75 4.30964 3.75 5V15C3.75 15.6904 4.30964 16.25 5 16.25H19C19.6904 16.25 20.25 15.6904 20.25 15V13C20.25 12.5858 20.5858 12.25 21 12.25C21.4142 12.25 21.75 12.5858 21.75 13V15C21.75 16.5188 20.5188 17.75 19 17.75H15.2135L16.6708 20.6646C16.8561 21.0351 16.7059 21.4856 16.3354 21.6708C15.9649 21.8561 15.5144 21.7059 15.3292 21.3354L13.5365 17.75H10.4635L8.67082 21.3354C8.48558 21.7059 8.03507 21.8561 7.66459 21.6708C7.29411 21.4856 7.14394 21.0351 7.32918 20.6646L8.78647 17.75H5C3.48122 17.75 2.25 16.5188 2.25 15V5C2.25 3.48122 3.48122 2.25 5 2.25H19C20.5188 2.25 21.75 3.48122 21.75 5V10C21.75 10.4142 21.4142 10.75 21 10.75C20.5858 10.75 20.25 10.4142 20.25 10V5C20.25 4.30964 19.6904 3.75 19 3.75H5ZM18.4685 5.41435C18.792 5.67311 18.8444 6.14507 18.5857 6.46852L15.0907 10.8373C14.5752 11.4816 13.6796 11.6783 12.9415 11.3093L10.3877 10.0324C10.2822 9.97964 10.1543 10.0077 10.0806 10.0998L6.58565 14.4685C6.32689 14.792 5.85493 14.8444 5.53148 14.5857C5.20803 14.3269 5.15559 13.8549 5.41435 13.5315L8.90934 9.16275C9.42483 8.51838 10.3204 8.32168 11.0585 8.69071L13.6123 9.96765C13.7178 10.0204 13.8457 9.99226 13.9194 9.90021L17.4143 5.53148C17.6731 5.20803 18.1451 5.15559 18.4685 5.41435Z" fill="#231F2C"/>
</svg>
