<svg width="24" height="24" viewBox="0 0 24 24" fill="none" xmlns="http://www.w3.org/2000/svg">
<path fill-rule="evenodd" clip-rule="evenodd" d="M12 2.75C8.54822 2.75 5.75 5.54822 5.75 9V11.7502C5.75 12.0262 5.97374 12.25 6.25 12.25C6.52614 12.25 6.75 12.0261 6.75 11.75V10.5C6.75 9.25736 7.75736 8.25 9 8.25C10.2426 8.25 11.25 9.25736 11.25 10.5V11.5C11.25 11.9142 11.5858 12.25 12 12.25C12.4142 12.25 12.75 11.9142 12.75 11.5V10.5C12.75 9.25736 13.7574 8.25 15 8.25C16.2426 8.25 17.25 9.25736 17.25 10.5V11.75C17.25 12.0261 17.4739 12.25 17.75 12.25C18.0263 12.25 18.25 12.0262 18.25 11.7502V9C18.25 5.54822 15.4518 2.75 12 2.75ZM4.25 9C4.25 4.71979 7.71979 1.25 12 1.25C16.2802 1.25 19.75 4.71979 19.75 9V11.7502C19.75 12.8548 18.8544 13.75 17.75 13.75C17.6492 13.75 17.5502 13.7425 17.4534 13.7282L15.7971 16.7096C15.5959 17.0717 15.1393 17.2021 14.7772 17.001C14.4152 16.7998 14.2847 16.3432 14.4859 15.9811L16.1614 12.9652C15.9033 12.6284 15.75 12.2071 15.75 11.75V10.5C15.75 10.0858 15.4142 9.75 15 9.75C14.5858 9.75 14.25 10.0858 14.25 10.5V11.5C14.25 12.7426 13.2426 13.75 12 13.75C10.7574 13.75 9.75 12.7426 9.75 11.5V10.5C9.75 10.0858 9.41421 9.75 9 9.75C8.58579 9.75 8.25 10.0858 8.25 10.5V11.75C8.25 12.2071 8.09667 12.6284 7.83863 12.9652L12 20.4557L13.011 18.6358C13.2122 18.2737 13.6688 18.1432 14.0309 18.3444C14.393 18.5455 14.5234 19.0021 14.3223 19.3642L12.6556 22.3642C12.5233 22.6023 12.2724 22.75 12 22.75C11.7276 22.75 11.4767 22.6023 11.3444 22.3642L6.54657 13.7282C6.4498 13.7425 6.35077 13.75 6.25 13.75C5.14555 13.75 4.25 12.8548 4.25 11.7502V9Z" fill="#231F2C"/>
</svg>
