<svg width="24" height="24" viewBox="0 0 24 24" fill="none" xmlns="http://www.w3.org/2000/svg">
<path d="M13.8451 2.10387C13.9039 1.96809 14.0964 1.96809 14.1553 2.10387L14.5045 2.90961C14.6183 3.17224 14.8278 3.38173 15.0904 3.49555L15.8962 3.84474C16.0319 3.90358 16.0319 4.09612 15.8962 4.15497L15.0904 4.50414C14.8278 4.61797 14.6183 4.82748 14.5045 5.09014L14.1553 5.89604C14.0964 6.03183 13.9039 6.03183 13.845 5.89604L13.4959 5.09018C13.382 4.8275 13.1725 4.61797 12.9098 4.50415L12.104 4.15497C11.9682 4.09613 11.9682 3.90357 12.104 3.84474L12.9099 3.49554C13.1725 3.38172 13.382 3.17223 13.4959 2.90957L13.8451 2.10387Z" fill="#231F2C"/>
<path d="M18.7672 3.1529C18.8556 2.94903 19.1447 2.94903 19.2331 3.1529L19.7574 4.36278C19.9283 4.75714 20.2429 5.07169 20.6372 5.24259L21.8471 5.76693C22.051 5.85528 22.051 6.1444 21.8471 6.23275L20.6373 6.75706C20.2429 6.92798 19.9283 7.24257 19.7574 7.63698L19.2331 8.84708C19.1447 9.05097 18.8556 9.05097 18.7672 8.84708L18.2429 7.63703C18.072 7.2426 17.7574 6.92799 17.363 6.75708L16.1529 6.23276C15.949 6.14441 15.949 5.85527 16.1529 5.76692L17.363 5.24258C17.7574 5.07169 18.072 4.75711 18.2429 4.36272L18.7672 3.1529Z" fill="#231F2C"/>
<path d="M5 3.25C3.48122 3.25 2.25 4.48122 2.25 6V13.0239C2.25 13.4381 2.58579 13.7739 3 13.7739C3.41421 13.7739 3.75 13.4381 3.75 13.0239V6C3.75 5.30964 4.30964 4.75 5 4.75H10C10.4142 4.75 10.75 4.41421 10.75 4C10.75 3.58579 10.4142 3.25 10 3.25H5Z" fill="#231F2C"/>
<path fill-rule="evenodd" clip-rule="evenodd" d="M10.2063 8.74775C10.0997 8.44925 9.81696 8.25 9.5 8.25C9.18304 8.25 8.9003 8.44925 8.79369 8.74775L6.29369 15.7477C6.15438 16.1378 6.35767 16.567 6.74775 16.7063C7.13783 16.8456 7.56699 16.6423 7.70631 16.2523L8.24283 14.75H10.7572L11.2937 16.2523C11.433 16.6423 11.8622 16.8456 12.2523 16.7063C12.6423 16.567 12.8456 16.1378 12.7063 15.7477L10.2063 8.74775ZM9.5 11.2299L10.2215 13.25H8.77854L9.5 11.2299Z" fill="#231F2C"/>
<path d="M15.75 9C15.75 8.58579 15.4142 8.25 15 8.25C14.5858 8.25 14.25 8.58579 14.25 9V16C14.25 16.4142 14.5858 16.75 15 16.75C15.4142 16.75 15.75 16.4142 15.75 16V9Z" fill="#231F2C"/>
<path d="M19.75 11C19.75 10.5858 19.4142 10.25 19 10.25C18.5858 10.25 18.25 10.5858 18.25 11V19C18.25 19.6904 17.6904 20.25 17 20.25H5C4.30964 20.25 3.75 19.6904 3.75 19V16C3.75 15.5858 3.41421 15.25 3 15.25C2.58579 15.25 2.25 15.5858 2.25 16V19C2.25 20.5188 3.48122 21.75 5 21.75H17C18.5188 21.75 19.75 20.5188 19.75 19V11Z" fill="#231F2C"/>
</svg>
