<svg width="24" height="24" viewBox="0 0 24 24" fill="none" xmlns="http://www.w3.org/2000/svg">
<path fill-rule="evenodd" clip-rule="evenodd" d="M10.98 1.26C10.9308 1.27401 10.8811 1.28635 10.831 1.297C10.684 1.329 10.441 1.548 10.374 1.708C10.285 1.92 10.311 2.122 10.485 2.583C10.956 3.834 11 4.781 10.629 5.692C10.291 6.522 9.67499 7.141 8.09999 8.238C6.85099 9.107 6.14399 9.792 5.53699 10.72C5.03599 11.486 4.63099 12.436 4.44799 13.28C4.33299 13.808 4.32299 13.884 4.27999 14.477C3.99099 18.52 6.94799 22.131 10.983 22.66C12.9522 22.9186 14.9456 22.4118 16.5522 21.2442C18.1588 20.0765 19.2561 18.3369 19.618 16.384C19.9 14.882 19.663 13.037 19.02 11.715C18.85 11.364 18.787 11.29 18.58 11.195C18.4786 11.1472 18.3677 11.123 18.2556 11.1244C18.1435 11.1258 18.0332 11.1527 17.933 11.203C17.712 11.311 17.648 11.405 17.433 11.94C17.115 12.732 16.673 13.367 16.136 13.809C15.889 14.011 15.48 14.298 15.48 14.269C15.48 14.264 15.603 14.016 15.752 13.72C16.322 12.592 16.627 11.49 16.726 10.204C16.783 9.465 16.761 9.302 16.571 9.08C16.33 8.798 16.024 8.727 15.695 8.877C15.532 8.951 15.351 9.147 15.306 9.3C15.2748 9.52663 15.2534 9.75451 15.242 9.983C15.165 11.15 14.928 12.025 14.412 13.06C14.064 13.757 13.641 14.34 12.971 15.047C12.788 15.24 12.621 15.444 12.599 15.501C12.496 15.774 12.609 16.183 12.834 16.349C13.055 16.513 13.239 16.539 13.628 16.463C15.146 16.169 16.143 15.736 17.11 14.95C17.396 14.718 17.904 14.167 18.032 13.95C18.068 13.889 18.109 13.84 18.124 13.84C18.178 13.84 18.24 14.459 18.24 14.992C18.239 17.122 17.202 19.031 15.4 20.219C14.3887 20.8787 13.2074 21.2299 12 21.2299C10.7926 21.2299 9.61126 20.8787 8.59999 20.219C7.90801 19.7696 7.31143 19.1882 6.84436 18.508C6.37729 17.8278 6.04891 17.0622 5.87799 16.255C5.74599 15.645 5.72599 14.608 5.83399 13.977C6.07157 12.5352 6.80512 11.2216 7.90799 10.263C8.10199 10.097 8.52999 9.769 8.85999 9.534C10.306 8.508 10.838 8.055 11.298 7.461C12.06 6.479 12.368 5.601 12.369 4.41C12.369 4.075 12.38 3.8 12.392 3.8C12.432 3.8 13.049 4.412 13.34 4.74C13.853 5.318 14.233 5.89 14.584 6.612C14.689 6.828 14.829 7.058 14.895 7.123C15.196 7.416 15.719 7.366 15.985 7.017C16.087 6.884 16.1 6.834 16.1 6.583C16.1 6.317 16.086 6.271 15.852 5.8C14.992 4.064 13.46 2.482 11.697 1.508C11.338 1.31 11.089 1.224 10.98 1.26Z" fill="#231F2C"/>
</svg>
