<svg width="24" height="24" viewBox="0 0 24 24" fill="none" xmlns="http://www.w3.org/2000/svg">
<path fill-rule="evenodd" clip-rule="evenodd" d="M12 2.75C6.89137 2.75 2.75 6.89137 2.75 12C2.75 17.1086 6.89137 21.25 12 21.25C14.813 21.25 17.3322 19.9952 19.0299 18.0122C19.2992 17.6976 19.7727 17.6609 20.0873 17.9303C20.402 18.1996 20.4387 18.6731 20.1693 18.9878C18.1988 21.2894 15.2696 22.75 12 22.75C6.06294 22.75 1.25 17.9371 1.25 12C1.25 6.06294 6.06294 1.25 12 1.25C17.9371 1.25 22.75 6.06294 22.75 12C22.75 13.5275 22.431 14.9824 21.8552 16.3003C21.6893 16.6798 21.2472 16.8531 20.8676 16.6873C20.4881 16.5214 20.3148 16.0793 20.4806 15.6997C20.9752 14.5677 21.25 13.3169 21.25 12C21.25 6.89137 17.1086 2.75 12 2.75ZM16.074 8.36141C16.1534 8.16045 15.9577 7.96028 15.755 8.03506L12.3199 9.30236C13.604 9.46328 14.6121 10.5116 14.7111 11.8139L16.074 8.36141ZM11.7562 14.7599C10.4608 14.6576 9.41845 13.6556 9.25405 12.3786L8.01858 15.7722C7.94501 15.9742 8.14398 16.1687 8.34433 16.0906L11.7562 14.7599ZM15.2358 6.62778C16.6546 6.10433 18.0246 7.50555 17.4693 8.91219L15.7902 13.1655C15.3049 14.3949 14.3293 15.3665 13.0979 15.8467L8.88936 17.4881C7.48692 18.035 6.09412 16.6735 6.60908 15.259L8.14712 11.0343C8.62491 9.72191 9.65609 8.6863 10.9664 8.20287L15.2358 6.62778ZM11.9753 10.7809C11.2883 10.7809 10.7314 11.3378 10.7314 12.0247C10.7314 12.7117 11.2883 13.2686 11.9753 13.2686C12.6622 13.2686 13.2191 12.7117 13.2191 12.0247C13.2191 11.3378 12.6622 10.7809 11.9753 10.7809Z" fill="#231F2C"/>
</svg>
