<svg width="24" height="24" viewBox="0 0 24 24" fill="none" xmlns="http://www.w3.org/2000/svg">
<path fill-rule="evenodd" clip-rule="evenodd" d="M8.58731 5.20174C7.82858 3.88289 8.78821 2.25 10.3015 2.25C11.0083 2.25 11.6627 2.62667 12.0156 3.23995L12.0303 3.26548L12.0555 3.22247C12.4092 2.61926 13.0568 2.25001 13.7553 2.25001C15.2657 2.25 16.2217 3.88203 15.4605 5.19622L14.183 7.40185C14.4773 7.53657 14.7379 7.76191 14.9199 8.07814L14.9256 8.08805L17.9103 13.4631L19.7604 13.4631C20.857 13.4631 21.7516 14.3491 21.7516 15.4489C21.7516 16.4099 21.0685 17.2077 20.1644 17.3937L20.9726 18.7982C21.7315 20.117 20.7719 21.75 19.2586 21.75C18.555 21.75 17.9035 21.3768 17.5494 20.7686L17.2686 20.3053C17.0539 19.9511 17.1669 19.4899 17.5211 19.2752C17.8753 19.0604 18.3365 19.1735 18.5513 19.5277L18.836 19.9973L18.8447 20.012C18.9288 20.1582 19.0863 20.25 19.2586 20.25C19.6295 20.25 19.8503 19.8553 19.6725 19.5463L18.2411 17.0588C18.1075 16.8267 18.1078 16.541 18.2419 16.3092C18.3759 16.0774 18.6234 15.9347 18.8911 15.9347H19.7604C20.0347 15.9347 20.2516 15.7141 20.2516 15.4489C20.2516 15.1837 20.0347 14.9631 19.7604 14.9631L17.4689 14.9631C17.1965 14.9631 16.9455 14.8154 16.8132 14.5772L13.6181 8.82338C13.5605 8.72815 13.4197 8.7278 13.3611 8.82099L13.3546 8.83222C13.1021 9.28726 13.1063 9.84027 13.366 10.2916L13.3715 10.3011L17.1336 17.0644C17.335 17.4264 17.2048 17.8831 16.8428 18.0844C16.4808 18.2858 16.0241 18.1556 15.8228 17.7936L15.3977 17.0294C15.094 17.2797 14.7021 17.4347 14.2573 17.4347H8.35037C8.32423 17.5586 8.27805 17.682 8.20964 17.8015L8.20244 17.8139L6.50004 20.6614C6.14609 21.2742 5.49133 21.6505 4.78405 21.6505H4.74412C3.2218 21.6505 2.27385 19.9875 3.07238 18.6813C3.1398 18.571 3.52195 17.9677 3.8806 17.4022C2.95505 17.2332 2.25 16.4253 2.25 15.4489C2.25 14.3491 3.14459 13.4631 4.24121 13.4631H6.05027L9.73003 7.18805L8.58731 5.20174ZM5.63653 17.4347L5.14915 18.2027C4.78392 18.7785 4.41121 19.3671 4.35217 19.4637C4.17075 19.7605 4.38169 20.1505 4.74412 20.1505H4.78405C4.95827 20.1505 5.11743 20.0575 5.20214 19.9095L5.20934 19.8972L6.68148 17.4347L5.63653 17.4347ZM7.12704 15.9347H14.2573C14.492 15.9347 14.6263 15.6855 14.5143 15.4954C14.3208 15.1667 13.9655 14.9631 13.5798 14.9631H9.37123C9.10309 14.9631 8.85536 14.82 8.72145 14.5877C8.58754 14.3554 8.58784 14.0693 8.72223 13.8372L12.051 8.09001C12.0575 8.07841 12.0642 8.06693 12.071 8.05557L14.1625 4.44442C14.3388 4.14007 14.1215 3.75001 13.7553 3.75001C13.5869 3.75001 13.4328 3.83904 13.3494 3.98124L12.6711 5.138C12.5359 5.36853 12.2883 5.50971 12.021 5.50861C11.7538 5.50751 11.5073 5.3643 11.374 5.13267L10.7154 3.98805C10.6313 3.84184 10.4738 3.75 10.3015 3.75C9.93053 3.75 9.70972 4.14472 9.88751 4.45375L11.2475 6.81765C11.3818 7.05112 11.3806 7.33869 11.2443 7.57104L7.16656 14.5248C7.16084 14.5346 7.15556 14.5443 7.1507 14.5538C7.02263 14.805 6.76449 14.9631 6.48253 14.9631H4.24121C3.96683 14.9631 3.75 15.1837 3.75 15.4489C3.75 15.7141 3.96683 15.9347 4.2412 15.9347L7.12428 15.9347C7.1252 15.9347 7.12612 15.9347 7.12704 15.9347ZM12.0708 11.0486L10.6723 13.4631H13.4139L12.0708 11.0486Z" fill="#231F2C"/>
</svg>
