<svg width="24" height="24" viewBox="0 0 24 24" fill="none" xmlns="http://www.w3.org/2000/svg">
<path fill-rule="evenodd" clip-rule="evenodd" d="M8 2.25C8.41421 2.25 8.75 2.58579 8.75 3V4.25H15.25V3C15.25 2.58579 15.5858 2.25 16 2.25C16.4142 2.25 16.75 2.58579 16.75 3V4.25H18.5585C19.735 4.25 20.8261 5.01194 21.1016 6.22563C21.401 7.54416 21.75 10.6057 21.75 13C21.75 13.3517 21.7425 13.6956 21.7288 14.0306C21.7119 14.4445 21.3627 14.7663 20.9488 14.7494C20.5349 14.7325 20.2131 14.3832 20.2301 13.9694C20.243 13.6539 20.25 13.3304 20.25 13C20.25 12.5986 20.2397 12.1777 20.2211 11.75H3.77885C3.76034 12.1777 3.75 12.5986 3.75 13C3.75 15.3049 4.09104 18.2525 4.36115 19.4423C4.46679 19.9076 4.89629 20.25 5.44152 20.25H18.5585C19.1037 20.25 19.5332 19.9076 19.6388 19.4423C19.7363 19.0131 19.8413 18.4917 19.9364 17.896L20.0554 16.9101C20.1051 16.4989 20.4787 16.2058 20.8899 16.2554C21.3011 16.3051 21.5942 16.6787 21.5446 17.0899L21.4239 18.0899C21.4227 18.0992 21.4214 18.1085 21.42 18.1178C21.3187 18.7547 21.2064 19.313 21.1016 19.7744C20.8261 20.9881 19.735 21.75 18.5585 21.75H5.44152C4.26502 21.75 3.17391 20.9881 2.89837 19.7744C2.59904 18.4558 2.25 15.3943 2.25 13C2.25 10.6057 2.59904 7.54416 2.89837 6.22563C3.17391 5.01194 4.26502 4.25 5.44152 4.25H7.25V3C7.25 2.58579 7.58579 2.25 8 2.25ZM5.44152 5.75C4.89629 5.75 4.46679 6.09241 4.36115 6.55772C4.19279 7.29933 3.99687 8.72387 3.87316 10.25H20.1268C20.0031 8.72387 19.8072 7.29933 19.6388 6.55772C19.5332 6.09241 19.1037 5.75 18.5585 5.75H5.44152Z" fill="#231F2C"/>
</svg>
