<svg width="24" height="24" viewBox="0 0 24 24" fill="none" xmlns="http://www.w3.org/2000/svg">
<path fill-rule="evenodd" clip-rule="evenodd" d="M1.8833 5.98137C2.17447 4.85751 3.20255 4.25 4.23607 4.25H18C19.5188 4.25 20.75 5.48122 20.75 7V7.35352C21.9043 7.67998 22.75 8.74122 22.75 10V14C22.75 15.2588 21.9043 16.32 20.75 16.6465V17C20.75 18.5188 19.5188 19.75 18 19.75H4.23607C3.20207 19.75 2.17407 19.1413 1.88308 18.0178C1.75643 17.5288 1.62293 16.8959 1.51135 16.1047C1.4535 15.6946 1.7391 15.3152 2.14926 15.2573C2.55941 15.1995 2.9388 15.4851 2.99665 15.8953C3.10056 16.632 3.22316 17.2092 3.33516 17.6417C3.42405 17.9849 3.75498 18.25 4.23607 18.25H18C18.6904 18.25 19.25 17.6904 19.25 17V16.75H13C11.4812 16.75 10.25 15.5188 10.25 14V10C10.25 8.48122 11.4812 7.25 13 7.25H19.25V7C19.25 6.30964 18.6904 5.75 18 5.75H4.23607C3.7545 5.75 3.42418 6.01475 3.33536 6.35756C3.07216 7.37349 2.75 9.19052 2.75 12C2.75 12.3408 2.75474 12.6669 2.76354 12.9789C2.77522 13.3929 2.44904 13.738 2.03499 13.7497C1.62094 13.7614 1.27582 13.4352 1.26414 13.0211C1.25493 12.695 1.25 12.3547 1.25 12C1.25 9.07532 1.58546 7.13101 1.8833 5.98137ZM13 8.75C12.3096 8.75 11.75 9.30964 11.75 10V14C11.75 14.6904 12.3096 15.25 13 15.25H20C20.6904 15.25 21.25 14.6904 21.25 14V10C21.25 9.30964 20.6904 8.75 20 8.75H13ZM15 11.75C14.8619 11.75 14.75 11.8619 14.75 12C14.75 12.1381 14.8619 12.25 15 12.25C15.1381 12.25 15.25 12.1381 15.25 12C15.25 11.8619 15.1381 11.75 15 11.75ZM13.25 12C13.25 11.0335 14.0335 10.25 15 10.25C15.9665 10.25 16.75 11.0335 16.75 12C16.75 12.9665 15.9665 13.75 15 13.75C14.0335 13.75 13.25 12.9665 13.25 12Z" fill="#231F2C"/>
</svg>
