<svg width="24" height="24" viewBox="0 0 24 24" fill="none" xmlns="http://www.w3.org/2000/svg">
<path fill-rule="evenodd" clip-rule="evenodd" d="M11 3.75C10.3096 3.75 9.75 4.30964 9.75 5V5.25H14.25V5C14.25 4.30964 13.6904 3.75 13 3.75H11ZM15.75 5.25V5C15.75 3.48122 14.5188 2.25 13 2.25H11C9.48122 2.25 8.25 3.48122 8.25 5V5.25H5.53656C4.29624 5.25 3.17985 6.08832 2.92554 7.34835C2.63108 8.80722 2.25 11.1455 2.25 13.5C2.25 15.8545 2.63108 18.1928 2.92554 19.6516C3.17985 20.9117 4.29624 21.75 5.53656 21.75H18.4634C19.7038 21.75 20.8201 20.9117 21.0745 19.6516C21.2137 18.9619 21.3712 18.0805 21.4991 17.0967C21.5525 16.6859 21.2628 16.3096 20.852 16.2563C20.4413 16.2029 20.065 16.4926 20.0116 16.9033C19.8891 17.8457 19.7379 18.692 19.6041 19.3549C19.4999 19.8712 19.0353 20.25 18.4634 20.25H5.53656C4.96466 20.25 4.5001 19.8712 4.39589 19.3549C4.11034 17.9401 3.75 15.712 3.75 13.5C3.75 12.3499 3.84742 11.1954 3.98109 10.1531L8.57763 12.857C10.69 14.0996 13.31 14.0996 15.4224 12.857L20.0189 10.1532C20.1526 11.1954 20.25 12.3499 20.25 13.5C20.25 13.6609 20.2481 13.8219 20.2444 13.983C20.235 14.3971 20.5631 14.7404 20.9772 14.7498C21.3913 14.7592 21.7346 14.4311 21.744 14.017C21.748 13.8452 21.75 13.6727 21.75 13.5C21.75 11.1455 21.3689 8.80722 21.0745 7.34835C20.8201 6.08832 19.7038 5.25 18.4634 5.25H15.75ZM5.53656 6.75C4.96467 6.75 4.5001 7.12877 4.39589 7.64512C4.3404 7.92001 4.2821 8.22561 4.22416 8.55584L9.33816 11.5641C10.9811 12.5305 13.0189 12.5305 14.6618 11.5641L19.7759 8.55589C19.7179 8.22564 19.6596 7.92003 19.6041 7.64512C19.4999 7.12877 19.0353 6.75 18.4634 6.75H5.53656Z" fill="#231F2C"/>
</svg>
