<svg width="24" height="24" viewBox="0 0 24 24" fill="none" xmlns="http://www.w3.org/2000/svg">
<path fill-rule="evenodd" clip-rule="evenodd" d="M2.75 12C2.75 6.89137 6.89137 2.75 12 2.75C17.1086 2.75 21.25 6.89137 21.25 12C21.25 13.3169 20.9752 14.5677 20.4806 15.6997C20.3148 16.0793 20.4881 16.5214 20.8676 16.6873C21.2472 16.8531 21.6893 16.6798 21.8552 16.3003C22.431 14.9824 22.75 13.5275 22.75 12C22.75 6.06294 17.9371 1.25 12 1.25C6.06294 1.25 1.25 6.06294 1.25 12C1.25 17.9371 6.06294 22.75 12 22.75C15.2696 22.75 18.1988 21.2894 20.1693 18.9878C20.4387 18.6731 20.402 18.1996 20.0873 17.9303C19.7727 17.6609 19.2992 17.6976 19.0299 18.0122C17.3322 19.9952 14.813 21.25 12 21.25C6.89137 21.25 2.75 17.1086 2.75 12ZM14.6882 8.02986C14.6882 7.89264 14.7109 7.75542 14.7678 7.62964C14.8247 7.50957 14.8986 7.39522 14.9896 7.30374C15.0863 7.21226 15.1943 7.13222 15.3138 7.08076C15.4446 7.02359 15.5811 7.00072 15.7176 7.00072C15.8541 6.995 15.9905 7.02359 16.1157 7.08076C16.2351 7.13794 16.3488 7.21226 16.4398 7.30374C16.5308 7.40094 16.6105 7.50957 16.6616 7.62964C16.7185 7.75542 16.7413 7.89264 16.7413 8.02986C16.7469 8.16708 16.7185 8.3043 16.6616 8.43008C16.6048 8.55015 16.5308 8.6645 16.4398 8.75598C16.3432 8.84746 16.2351 8.9275 16.1157 8.97896C15.9905 9.03613 15.8541 9.059 15.7176 9.059C15.5754 9.059 15.4389 9.03613 15.3138 8.97896C15.0692 8.87033 14.8758 8.67593 14.7678 8.43008C14.7109 8.3043 14.6882 8.16708 14.6882 8.02986ZM9.83697 9.79084H8L10.4114 15.9943H11.9867L14.3924 9.79084H13.8123C13.0844 9.79084 12.4303 10.2597 12.1972 10.9572L11.2076 13.9188L9.83697 9.79084ZM14.8417 9.79084H16.5763V15.9943H14.8417V9.79084ZM8.47395 14.75C8.34379 15.439 7.68868 16 7.01188 16C6.33508 16 5.89255 15.439 6.02271 14.75C6.04836 14.609 6.10168 14.4865 6.16588 14.3613C6.42185 13.8622 6.95114 13.5 7.49345 13.5C8.0401 13.5 8.43056 13.8622 8.49564 14.3613C8.50097 14.4337 8.50151 14.5096 8.49672 14.5822C8.49313 14.6365 8.48533 14.692 8.47395 14.75Z" fill="#231F2C"/>
</svg>
