<svg width="24" height="24" viewBox="0 0 24 24" fill="none" xmlns="http://www.w3.org/2000/svg">
<path fill-rule="evenodd" clip-rule="evenodd" d="M9.75 3C9.75 2.58579 10.0858 2.25 10.5 2.25H13.5C13.9142 2.25 14.25 2.58579 14.25 3C14.25 3.41421 13.9142 3.75 13.5 3.75H10.5C10.0858 3.75 9.75 3.41421 9.75 3ZM12 5.75001C7.99594 5.75001 4.75 8.99594 4.75 13C4.75 17.0041 7.99594 20.25 12 20.25C14.0142 20.25 15.8353 19.4296 17.15 18.103C17.4415 17.8087 17.9164 17.8066 18.2106 18.0981C18.5049 18.3897 18.507 18.8646 18.2155 19.1588C16.6307 20.7581 14.4305 21.75 12 21.75C7.16751 21.75 3.25 17.8325 3.25 13C3.25 8.16752 7.16751 4.25001 12 4.25001C12.5598 4.25001 13.1081 4.30268 13.6398 4.40354C14.2083 4.51139 14.7575 4.67423 15.2814 4.88632C15.6654 5.04174 15.8506 5.47899 15.6952 5.86294C15.5398 6.24689 15.1025 6.43215 14.7186 6.27673C14.2851 6.10125 13.8308 5.96652 13.3602 5.87726C12.9202 5.79379 12.4656 5.75001 12 5.75001ZM6.03033 4.46968C6.32322 4.76257 6.32322 5.23745 6.03033 5.53034L4.53033 7.03033C4.23743 7.32322 3.76256 7.32322 3.46967 7.03033C3.17678 6.73743 3.17678 6.26256 3.46967 5.96967L4.96967 4.46968C5.26257 4.17678 5.73744 4.17678 6.03033 4.46968ZM18.5303 6.46967C18.7896 6.72892 18.8234 7.13759 18.6103 7.43593L14.0053 13.883C13.6166 14.4271 12.9891 14.75 12.3205 14.75C11.177 14.75 10.25 13.823 10.25 12.6795C10.25 12.0109 10.5729 11.3834 11.117 10.9947L17.5641 6.3897C17.8624 6.1766 18.2711 6.21042 18.5303 6.46967ZM14.7741 10.2259L11.9889 12.2153C11.839 12.3224 11.75 12.4953 11.75 12.6795C11.75 12.9946 12.0054 13.25 12.3205 13.25C12.5047 13.25 12.6776 13.161 12.7847 13.0111L14.7741 10.2259ZM19.1371 9.3048C19.521 9.14938 19.9583 9.33464 20.1137 9.71859C20.5243 10.7329 20.75 11.841 20.75 13C20.75 14.159 20.5243 15.2671 20.1137 16.2814C19.9583 16.6654 19.521 16.8506 19.1371 16.6952C18.7531 16.5398 18.5679 16.1025 18.7233 15.7186C19.0627 14.88 19.25 13.9628 19.25 13C19.25 12.0372 19.0627 11.12 18.7233 10.2814C18.5679 9.89746 18.7531 9.46022 19.1371 9.3048Z" fill="#231F2C"/>
</svg>
