<svg width="24" height="24" viewBox="0 0 24 24" fill="none" xmlns="http://www.w3.org/2000/svg">
<path fill-rule="evenodd" clip-rule="evenodd" d="M7.66459 1.32918C8.03507 1.14394 8.48558 1.29411 8.67082 1.66459L9.03836 2.39968C9.56043 3.44381 9.35579 4.70487 8.53033 5.53033C8.16141 5.89925 8.06995 6.46285 8.30328 6.9295L8.67082 7.66459C8.85606 8.03507 8.70589 8.48558 8.33541 8.67082C7.96493 8.85606 7.51442 8.70589 7.32918 8.33541L6.96163 7.60032C6.43957 6.55619 6.64421 5.29513 7.46967 4.46967C7.83859 4.10075 7.93005 3.53715 7.69672 3.0705L7.32918 2.33541C7.14394 1.96493 7.29411 1.51442 7.66459 1.32918ZM11.6646 1.32918C12.0351 1.14394 12.4856 1.29411 12.6708 1.66459L13.0384 2.39968C13.5604 3.44381 13.3558 4.70487 12.5303 5.53033C12.1614 5.89925 12.07 6.46285 12.3033 6.9295L12.6708 7.66459C12.8561 8.03507 12.7059 8.48558 12.3354 8.67082C11.9649 8.85606 11.5144 8.70589 11.3292 8.33541L10.9616 7.60032C10.4396 6.55619 10.6442 5.29513 11.4697 4.46967C11.8386 4.10075 11.93 3.53715 11.6967 3.0705L11.3292 2.33541C11.1439 1.96493 11.2941 1.51442 11.6646 1.32918ZM15.6646 1.32918C16.0351 1.14394 16.4856 1.29411 16.6708 1.66459L17.0384 2.39968C17.5604 3.44381 17.3558 4.70487 16.5303 5.53033C16.1614 5.89925 16.07 6.46285 16.3033 6.9295L16.6708 7.66459C16.8561 8.03507 16.7059 8.48558 16.3354 8.67082C15.9649 8.85606 15.5144 8.70589 15.3292 8.33541L14.9616 7.60032C14.4396 6.55619 14.6442 5.29513 15.4697 4.46967C15.8386 4.10075 15.93 3.53715 15.6967 3.0705L15.3292 2.33541C15.1439 1.96493 15.2941 1.51442 15.6646 1.32918ZM3.75279 13.5C3.76553 13.5327 3.82795 13.6551 4.11897 13.8462C4.48256 14.085 5.05823 14.3289 5.83677 14.5451C7.3833 14.9747 9.5626 15.25 12 15.25C14.4374 15.25 16.6167 14.9747 18.1632 14.5451C18.9418 14.3289 19.5174 14.085 19.881 13.8462C20.1721 13.6551 20.2345 13.5327 20.2472 13.5C20.2345 13.4673 20.1721 13.3449 19.881 13.1538C19.5174 12.915 18.9418 12.6711 18.1632 12.4549C16.6167 12.0253 14.4374 11.75 12 11.75C9.5626 11.75 7.3833 12.0253 5.83677 12.4549C5.05823 12.6711 4.48256 12.915 4.11897 13.1538C3.82795 13.3449 3.76553 13.4673 3.75279 13.5ZM5.43531 11.0096C7.14614 10.5344 9.46684 10.25 12 10.25C14.5332 10.25 16.8539 10.5344 18.5647 11.0096C19.4148 11.2457 20.1572 11.5406 20.7044 11.9C21.2212 12.2393 21.75 12.7642 21.75 13.5C21.75 13.6474 21.7288 13.7864 21.6906 13.9171C21.6966 13.971 21.6967 14.0263 21.6905 14.0824C21.4967 15.8357 20.838 17.4491 19.8412 18.7956C19.5948 19.1285 19.1251 19.1986 18.7922 18.9522C18.4593 18.7057 18.3892 18.2361 18.6356 17.9032C19.1589 17.1963 19.5717 16.4032 19.8488 15.5492C19.4626 15.7145 19.0298 15.8612 18.5647 15.9904C16.8539 16.4656 14.5332 16.75 12 16.75C9.46684 16.75 7.14614 16.4656 5.43531 15.9904C4.97026 15.8612 4.53746 15.7145 4.15122 15.5492C5.22499 18.8577 8.33351 21.25 12 21.25C13.697 21.25 15.2723 20.7384 16.5828 19.8612C16.927 19.6308 17.3928 19.723 17.6233 20.0673C17.8537 20.4115 17.7614 20.8773 17.4172 21.1077C15.8675 22.145 14.0033 22.75 12 22.75C6.9809 22.75 2.84846 18.9581 2.30947 14.0824C2.30327 14.0263 2.30343 13.971 2.30936 13.9171C2.27124 13.7864 2.25 13.6475 2.25 13.5C2.25 12.7642 2.77883 12.2393 3.29556 11.9C3.84282 11.5406 4.58516 11.2457 5.43531 11.0096Z" fill="#231F2C"/>
</svg>
