<svg width="24" height="24" viewBox="0 0 24 24" fill="none" xmlns="http://www.w3.org/2000/svg">
<path fill-rule="evenodd" clip-rule="evenodd" d="M5.745 2.274C4.602 2.366 3.655 3.176 3.335 4.334L3.255 4.625V19.325L3.322 19.605C3.43306 20.0659 3.65822 20.4914 3.97678 20.8425C4.29534 21.1935 4.69707 21.4588 5.145 21.614C5.716 21.807 6.425 21.788 7.005 21.563C7.22 21.48 9.38 20.243 9.57 20.094C9.65211 20.0223 9.71848 19.9344 9.76495 19.8357C9.81141 19.7371 9.83697 19.63 9.84 19.521C9.84 19.08 9.433 18.721 9.005 18.785C8.83101 18.811 8.887 18.782 7.653 19.498C7.085 19.828 6.563 20.123 6.492 20.155C6.179 20.293 5.797 20.285 5.466 20.135C5.321 20.068 4.95 19.741 4.95 19.68C4.95 19.666 6.418 18.187 8.213 16.392L11.475 13.13L12.787 14.442L14.098 15.755L12.625 16.61C11.815 17.08 11.112 17.505 11.063 17.555C10.9551 17.6673 10.8854 17.8109 10.864 17.9652C10.8426 18.1195 10.8706 18.2766 10.944 18.414C11.139 18.787 11.552 18.917 11.94 18.726C12.147 18.624 19.306 14.461 19.545 14.304C20.1496 13.8897 20.565 13.2524 20.7 12.532C20.7476 12.1768 20.7422 11.8166 20.684 11.463C20.552 10.822 20.141 10.174 19.638 9.817C19.465 9.693 7.919 2.926 7.38 2.632C6.825 2.33 6.349 2.225 5.745 2.274ZM6.45001 3.841C6.57101 3.89 14.071 8.249 14.159 8.321C14.166 8.327 13.569 8.936 12.831 9.674L11.49 11.015L8.192 7.717C5.472 4.997 4.899 4.41 4.921 4.368C4.936 4.339 5.018 4.241 5.102 4.149C5.442 3.777 5.98501 3.653 6.45001 3.841ZM7.605 14.9C6.054 16.451 4.775 17.72 4.763 17.72C4.75 17.72 4.74 15.172 4.74 12.058V6.395L7.582 9.237L10.425 12.08L7.605 14.9ZM17.123 10.056C18.87 11.077 18.953 11.136 19.109 11.465C19.292 11.85 19.295 12.213 19.118 12.588C18.984 12.872 18.775 13.044 18.074 13.447L16.445 14.389L15.445 14.97L13.993 13.518L12.54 12.065L14.017 10.588C14.83 9.775 15.497 9.11 15.501 9.11C15.504 9.11 16.234 9.535 17.123 10.056Z" fill="#231F2C"/>
</svg>
