<svg width="24" height="24" viewBox="0 0 24 24" fill="none" xmlns="http://www.w3.org/2000/svg">
<path fill-rule="evenodd" clip-rule="evenodd" d="M3.25 5C3.25 3.48122 4.48122 2.25 6 2.25H19C20.5188 2.25 21.75 3.48122 21.75 5V13C21.75 13.4142 21.4142 13.75 21 13.75C20.5858 13.75 20.25 13.4142 20.25 13V5C20.25 4.30964 19.6904 3.75 19 3.75H6C5.30964 3.75 4.75 4.30964 4.75 5V7.25H5C5.41421 7.25 5.75 7.58579 5.75 8C5.75 8.41421 5.41421 8.75 5 8.75H4.75V11.25H5C5.41421 11.25 5.75 11.5858 5.75 12C5.75 12.4142 5.41421 12.75 5 12.75H4.75V15.25H5C5.41421 15.25 5.75 15.5858 5.75 16C5.75 16.4142 5.41421 16.75 5 16.75H4.75V19C4.75 19.6904 5.30964 20.25 6 20.25H19C19.6904 20.25 20.25 19.6904 20.25 19V16C20.25 15.5858 20.5858 15.25 21 15.25C21.4142 15.25 21.75 15.5858 21.75 16V19C21.75 20.5188 20.5188 21.75 19 21.75H6C4.48122 21.75 3.25 20.5188 3.25 19V16.75H3C2.58579 16.75 2.25 16.4142 2.25 16C2.25 15.5858 2.58579 15.25 3 15.25H3.25V12.75H3C2.58579 12.75 2.25 12.4142 2.25 12C2.25 11.5858 2.58579 11.25 3 11.25H3.25V8.75H3C2.58579 8.75 2.25 8.41421 2.25 8C2.25 7.58579 2.58579 7.25 3 7.25H3.25V5ZM7.25 9C7.25 7.48122 8.48122 6.25 10 6.25C11.5188 6.25 12.75 7.48122 12.75 9V10C12.75 11.2588 11.9043 12.32 10.75 12.6465V18C10.75 18.4142 10.4142 18.75 10 18.75C9.58579 18.75 9.25 18.4142 9.25 18V12.6465C8.09575 12.32 7.25 11.2588 7.25 10V9ZM10 7.75C9.30964 7.75 8.75 8.30964 8.75 9V10C8.75 10.6904 9.30964 11.25 10 11.25C10.6904 11.25 11.25 10.6904 11.25 10V9C11.25 8.30964 10.6904 7.75 10 7.75ZM14.5 6.25C14.9142 6.25 15.25 6.58579 15.25 7V10.5C15.25 10.9142 15.5858 11.25 16 11.25C16.4142 11.25 16.75 10.9142 16.75 10.5V7C16.75 6.58579 17.0858 6.25 17.5 6.25C17.9142 6.25 18.25 6.58579 18.25 7V10.5C18.25 11.4797 17.6239 12.3131 16.75 12.622V18C16.75 18.4142 16.4142 18.75 16 18.75C15.5858 18.75 15.25 18.4142 15.25 18V12.622C14.3761 12.3131 13.75 11.4797 13.75 10.5V7C13.75 6.58579 14.0858 6.25 14.5 6.25Z" fill="#231F2C"/>
</svg>
