<svg width="24" height="24" viewBox="0 0 24 24" fill="none" xmlns="http://www.w3.org/2000/svg">
<path fill-rule="evenodd" clip-rule="evenodd" d="M15.9386 1.25112C16.3375 1.22932 16.6835 1.52414 16.7254 1.92151C16.7426 2.08526 16.7494 2.24554 16.7494 2.40011C16.7494 3.58935 16.3321 4.68521 15.5461 5.66729L15.5427 5.67159L15.5427 5.67157C15.4496 5.78611 15.3534 5.89717 15.2542 6.00413C15.4969 5.98221 15.7317 5.98036 15.9579 6.00047C17.7513 6.15325 19.1722 6.91626 20.1136 8.3251C20.2256 8.49278 20.2654 8.69851 20.224 8.89588C20.1825 9.09324 20.0634 9.2656 19.8933 9.37406C18.6734 10.1523 18.1061 11.1925 18.1177 12.562C18.1288 13.651 18.4957 14.5183 19.2082 15.2135L19.2146 15.2198L19.2146 15.2198C19.5438 15.5488 19.9049 15.7971 20.3029 15.9728C20.6555 16.1285 20.8327 16.5261 20.7127 16.8924C20.6027 17.2283 20.486 17.552 20.3611 17.8644L20.3584 17.8713L20.3583 17.8712C20.2972 18.02 20.2337 18.1667 20.1678 18.3111C19.9959 18.688 19.5511 18.8543 19.1742 18.6824C18.7973 18.5106 18.6311 18.0658 18.8029 17.6889C18.8604 17.5629 18.9159 17.4348 18.9696 17.3043C19.007 17.2107 19.0437 17.1155 19.0798 17.0188C18.7488 16.8128 18.4415 16.5674 18.1575 16.284C17.1439 15.2935 16.6325 14.0382 16.6178 12.5766L16.6178 12.5755C16.6038 10.9493 17.2176 9.60888 18.4148 8.60122C17.7855 7.96259 16.9399 7.58932 15.8292 7.49494L15.8259 7.49466C15.3934 7.45599 14.7948 7.55078 13.998 7.85245C13.5433 8.0281 13.172 8.16384 12.8894 8.25677C12.7484 8.30313 12.6208 8.3417 12.5114 8.36947C12.4213 8.39232 12.2796 8.42526 12.1389 8.42526C11.9084 8.42526 11.6385 8.35391 11.4002 8.27998C11.1355 8.19785 10.8099 8.07923 10.4291 7.92875C9.71502 7.64833 9.21938 7.53904 8.90111 7.53765C8.20119 7.55109 7.55729 7.74122 6.95356 8.11855C6.3454 8.49864 5.85588 9.01682 5.48139 9.68978L5.47799 9.69589L5.47797 9.69587C5.00329 10.5305 4.75 11.5532 4.75 12.7902C4.75 13.8718 4.93842 15.0016 5.32376 16.1836C5.68528 17.2826 6.14178 18.2317 6.6877 19.0405L6.68862 19.0418C7.23079 19.8488 7.64989 20.366 7.9493 20.641C7.95519 20.6464 7.96098 20.6519 7.96669 20.6575C8.45262 21.1332 8.83766 21.2625 9.13737 21.249L9.1442 21.2487L9.1442 21.2488C9.38789 21.2401 9.78499 21.1445 10.3709 20.8948L10.3717 20.8944C11.0593 20.6023 11.7355 20.4434 12.394 20.4434C13.0322 20.4434 13.6939 20.6046 14.3713 20.8956L14.3733 20.8964C14.9233 21.1346 15.3362 21.2254 15.6279 21.2273C16.0016 21.2157 16.3897 21.0578 16.8061 20.6546C16.8113 20.6496 16.8165 20.6447 16.8217 20.6399C16.9674 20.5067 17.1611 20.2904 17.4043 19.9725C17.6559 19.6435 18.1266 19.5807 18.4556 19.8323C18.7846 20.084 18.8474 20.5547 18.5957 20.8837C18.3299 21.2313 18.0778 21.5225 17.842 21.7395C17.213 22.3458 16.4811 22.7068 15.6555 22.7271L15.6371 22.7273C15.0644 22.7273 14.4371 22.5585 13.7787 22.2736C13.2377 22.0413 12.7796 21.9434 12.394 21.9434C11.9784 21.9434 11.5027 22.0437 10.9583 22.275L10.665 21.5847L10.959 22.2747C10.3125 22.5502 9.71676 22.7286 9.20122 22.7477C8.35006 22.7847 7.58701 22.382 6.92577 21.7375C6.49337 21.338 5.99753 20.7029 5.44384 19.8788C4.81018 18.9399 4.29686 17.8625 3.89853 16.6513L3.89794 16.6495L3.89794 16.6495C3.46952 15.3356 3.25 14.0484 3.25 12.7902C3.25 11.3478 3.54631 10.0595 4.17237 8.95734C4.66373 8.07547 5.32573 7.36706 6.15856 6.84655C6.99477 6.32393 7.90661 6.05483 8.88184 6.03775L8.89497 6.03752V6.03763C9.49492 6.03763 10.2012 6.22768 10.9782 6.53287L10.9797 6.53345C11.0788 6.57262 11.1721 6.60877 11.2598 6.642C11.2528 6.54693 11.2489 6.44872 11.2489 6.3474C11.2489 5.18921 11.7227 3.99593 12.5248 3.03922C12.9472 2.52928 13.4763 2.11549 14.0976 1.79254L14.1011 1.79073L14.1011 1.79074C14.7115 1.47752 15.3268 1.28454 15.9386 1.25112ZM15.2079 2.93547C15.0738 2.98685 14.9338 3.0495 14.7877 3.12437C14.3249 3.36519 13.9598 3.65789 13.6788 3.99745L13.6755 4.00143C13.1829 4.58845 12.8797 5.26617 12.7828 5.90772C13.3166 5.75323 13.8568 5.36725 14.3767 4.7279C14.8404 4.14783 15.1106 3.55255 15.2079 2.93547Z" fill="#231F2C"/>
</svg>
