<svg width="24" height="24" viewBox="0 0 24 24" fill="none" xmlns="http://www.w3.org/2000/svg">
<path fill-rule="evenodd" clip-rule="evenodd" d="M5.77405 3.70428C6.25227 2.80905 7.18471 2.25 8.19967 2.25H15.8009C16.8159 2.25 17.7483 2.80905 18.2265 3.70428L21.3969 9.63931C21.4104 9.66467 21.4224 9.69045 21.4328 9.71654C21.6353 10.0997 21.75 10.5364 21.75 11V15C21.75 15.4142 21.4142 15.75 21 15.75C20.5858 15.75 20.25 15.4142 20.25 15V11C20.25 10.3096 19.6904 9.75 19 9.75H5C4.30964 9.75 3.75 10.3096 3.75 11V19C3.75 19.6904 4.30964 20.25 5 20.25H19C19.6904 20.25 20.25 19.6904 20.25 19V18C20.25 17.5858 20.5858 17.25 21 17.25C21.4142 17.25 21.75 17.5858 21.75 18V19C21.75 20.5188 20.5188 21.75 19 21.75H5C3.48122 21.75 2.25 20.5188 2.25 19V11C2.25 10.5396 2.36313 10.1056 2.56312 9.72439C2.57312 9.69962 2.58455 9.67513 2.59742 9.65103L5.77405 3.70428ZM5.04642 8.25H11.2506V3.75H8.19967C7.73832 3.75 7.31449 4.00411 7.09712 4.41104L5.04642 8.25ZM12.7506 3.75V8.25H18.9542L16.9035 4.41104C16.6861 4.00411 16.2622 3.75 15.8009 3.75H12.7506ZM12.25 18C12.25 17.5858 12.5858 17.25 13 17.25H17C17.4142 17.25 17.75 17.5858 17.75 18C17.75 18.4142 17.4142 18.75 17 18.75H13C12.5858 18.75 12.25 18.4142 12.25 18Z" fill="#231F2C"/>
</svg>
