<svg width="24" height="24" viewBox="0 0 24 24" fill="none" xmlns="http://www.w3.org/2000/svg">
<path fill-rule="evenodd" clip-rule="evenodd" d="M2.25 12C2.25 6.57872 6.70446 2.25 12.2093 2.25C14.7434 2.25 17.0063 3.18037 18.7655 4.6791C18.9259 4.81581 19.0214 5.01373 19.0286 5.22441C19.0358 5.43508 18.954 5.63906 18.8033 5.78639L16.1242 8.40457C15.8533 8.66933 15.4275 8.69051 15.1316 8.45395C14.3377 7.81916 13.3293 7.43182 12.2093 7.43182C9.59321 7.43182 7.51744 9.48492 7.51744 12C7.51744 14.5151 9.59321 16.5682 12.2093 16.5682C14.0905 16.5682 15.4582 15.8261 16.0971 14.5909H12.2093C11.7951 14.5909 11.4593 14.2551 11.4593 13.8409V10.3636C11.4593 9.94942 11.7951 9.61364 12.2093 9.61364H20.7907C21.1385 9.61364 21.4407 9.85277 21.5206 10.1913C21.6556 10.7629 21.75 11.3952 21.75 12C21.75 13.9437 21.2966 15.647 20.5014 17.0668C20.299 17.4282 19.842 17.5571 19.4806 17.3547C19.1192 17.1523 18.9903 16.6953 19.1927 16.3339C19.8535 15.1538 20.25 13.7058 20.25 12C20.25 11.7191 20.2226 11.4179 20.1747 11.1136H12.9593V13.0909H17.1488C17.3746 13.0909 17.5883 13.1926 17.7308 13.3678C17.8732 13.5429 17.9291 13.7729 17.8831 13.994C17.3306 16.6442 15.013 18.0682 12.2093 18.0682C8.79748 18.0682 6.01744 15.3758 6.01744 12C6.01744 8.62417 8.79748 5.93182 12.2093 5.93182C13.4402 5.93182 14.5738 6.28864 15.5243 6.89347L17.1399 5.31458C15.7467 4.33372 14.0637 3.75 12.2093 3.75C7.50019 3.75 3.75 7.43947 3.75 12C3.75 16.5605 7.50019 20.25 12.2093 20.25C14.1943 20.25 16.0768 19.5917 17.515 18.3724C17.831 18.1046 18.3042 18.1435 18.5721 18.4595C18.8399 18.7755 18.8009 19.2487 18.485 19.5166C16.7558 20.9825 14.5225 21.75 12.2093 21.75C6.70446 21.75 2.25 17.4213 2.25 12Z" fill="#231F2C"/>
</svg>
