<svg width="24" height="24" viewBox="0 0 24 24" fill="none" xmlns="http://www.w3.org/2000/svg">
<path fill-rule="evenodd" clip-rule="evenodd" d="M1.25 6C1.25 4.48122 2.48122 3.25 4 3.25H14C15.5188 3.25 16.75 4.48122 16.75 6V7.25H20C21.5188 7.25 22.75 8.48122 22.75 10V16C22.75 17.5188 21.5188 18.75 20 18.75H18.6465C18.32 19.9043 17.2588 20.75 16 20.75C14.7412 20.75 13.68 19.9043 13.3535 18.75H9.64648C9.32002 19.9043 8.25878 20.75 7 20.75C5.74122 20.75 4.67998 19.9043 4.35352 18.75H4C2.48122 18.75 1.25 17.5188 1.25 16V11C1.25 10.5858 1.58579 10.25 2 10.25C2.41421 10.25 2.75 10.5858 2.75 11V13.25H6.25V10C6.25 9.58579 6.58579 9.25 7 9.25C7.41421 9.25 7.75 9.58579 7.75 10V13.25H10.25V10C10.25 9.58579 10.5858 9.25 11 9.25C11.4142 9.25 11.75 9.58579 11.75 10V13.25H15.25V6C15.25 5.30964 14.6904 4.75 14 4.75H4C3.30964 4.75 2.75 5.30964 2.75 6V8C2.75 8.41421 2.41421 8.75 2 8.75C1.58579 8.75 1.25 8.41421 1.25 8V6ZM16.75 12.75V15.3535C17.6658 15.6125 18.3875 16.3342 18.6465 17.25H20C20.6904 17.25 21.25 16.6904 21.25 16V12.75H16.75ZM21.25 11.25H16.75V8.75H20C20.6904 8.75 21.25 9.30964 21.25 10V11.25ZM15.25 15.3535V14.75H2.75V16C2.75 16.6904 3.30964 17.25 4 17.25H4.35352C4.67998 16.0957 5.74122 15.25 7 15.25C8.25878 15.25 9.32002 16.0957 9.64648 17.25H13.3535C13.6125 16.3342 14.3342 15.6125 15.25 15.3535ZM7 16.75C6.30964 16.75 5.75 17.3096 5.75 18C5.75 18.6904 6.30964 19.25 7 19.25C7.69036 19.25 8.25 18.6904 8.25 18C8.25 17.3096 7.69036 16.75 7 16.75ZM16 16.75C15.3096 16.75 14.75 17.3096 14.75 18C14.75 18.6904 15.3096 19.25 16 19.25C16.6904 19.25 17.25 18.6904 17.25 18C17.25 17.3096 16.6904 16.75 16 16.75Z" fill="#231F2C"/>
</svg>
