<svg width="24" height="24" viewBox="0 0 24 24" fill="none" xmlns="http://www.w3.org/2000/svg">
<path fill-rule="evenodd" clip-rule="evenodd" d="M3.52845 3.62868C3.69201 2.85117 4.36105 2.25 5.18646 2.25H18.8136C19.639 2.25 20.308 2.85117 20.4716 3.62868L21.6881 9.41175C21.9098 10.4655 21.5125 11.523 20.75 12.1572V15C20.75 15.4142 20.4142 15.75 20 15.75C19.5858 15.75 19.25 15.4142 19.25 15V12.7461C19.2025 12.7487 19.1545 12.75 19.106 12.75H18.4276C17.6727 12.75 17.0007 12.4245 16.5232 11.9069C16.0508 12.4211 15.3839 12.75 14.6178 12.75H13.8932C13.139 12.75 12.4742 12.4279 12 11.9193C11.5258 12.4279 10.861 12.75 10.1068 12.75H9.38219C8.61614 12.75 7.94919 12.4211 7.47687 11.9069C6.99936 12.4245 6.32737 12.75 5.57243 12.75H4.89401C4.84559 12.75 4.79759 12.7487 4.75003 12.7461V19C4.75003 19.6904 5.30967 20.25 6.00003 20.25H18C18.6904 20.25 19.25 19.6904 19.25 19V18C19.25 17.5858 19.5858 17.25 20 17.25C20.4142 17.25 20.75 17.5858 20.75 18V19C20.75 20.5188 19.5188 21.75 18 21.75H6.00003C4.48125 21.75 3.25003 20.5188 3.25003 19V12.1572C2.48759 11.523 2.09027 10.4655 2.31193 9.41175L3.52845 3.62868ZM12.75 10C12.75 10.7297 13.3001 11.25 13.8932 11.25H14.6178C15.2564 11.25 15.836 10.6452 15.7537 9.85834C15.7537 9.85809 15.7537 9.85859 15.7537 9.85834L15.1112 3.75H12.75V10ZM11.25 3.75V10C11.25 10.7297 10.6999 11.25 10.1068 11.25H9.38219C8.74342 11.25 8.16362 10.6449 8.24643 9.85759L8.88882 3.75H11.25ZM7.38054 3.75H5.18646C5.12451 3.75 5.02526 3.79989 4.99633 3.93746L3.77981 9.72053C3.60444 10.5542 4.20969 11.25 4.89401 11.25H5.57243C6.1209 11.25 6.63833 10.8066 6.7082 10.1424L7.38054 3.75ZM16.6195 3.75L17.2454 9.70069C17.2454 9.70104 17.2455 9.70138 17.2455 9.70173L17.2918 10.1424C17.3617 10.8066 17.8791 11.25 18.4276 11.25H19.106C19.7903 11.25 20.3956 10.5542 20.2202 9.72053L19.0037 3.93746C18.9748 3.79989 18.8755 3.75 18.8136 3.75H16.6195Z" fill="#231F2C"/>
</svg>
