<svg width="24" height="24" viewBox="0 0 24 24" fill="none" xmlns="http://www.w3.org/2000/svg">
<path fill-rule="evenodd" clip-rule="evenodd" d="M10.7302 2.79496C11.4204 2.06835 12.5796 2.06835 13.2698 2.79496L20.9957 10.9294C21.4799 11.4391 21.75 12.1149 21.75 12.8178V14.0178C21.75 14.432 21.4142 14.7678 21 14.7678C20.5858 14.7678 20.25 14.432 20.25 14.0178V12.8178C20.25 12.4999 20.1278 12.1937 19.9081 11.9624L12.1821 3.82796L12.726 3.31146L12.1821 3.82796C12.0834 3.72401 11.9166 3.72401 11.8179 3.82796L4.0919 11.9624C3.87216 12.1937 3.75 12.4999 3.75 12.8178V19.0051C3.75 19.6908 4.30784 20.25 5 20.25H8.25V14.0178C8.25 13.6036 8.58579 13.2678 9 13.2678H15C15.4142 13.2678 15.75 13.6036 15.75 14.0178V20.25H19C19.6922 20.25 20.25 19.6908 20.25 19.0051V17.0102C20.25 16.596 20.5858 16.2602 21 16.2602C21.4142 16.2602 21.75 16.596 21.75 17.0102V19.0051C21.75 20.5229 20.517 21.75 19 21.75H15C14.5858 21.75 14.25 21.4142 14.25 21V14.7678H9.75V21C9.75 21.4142 9.41421 21.75 9 21.75H5C3.48302 21.75 2.25 20.5229 2.25 19.0051V12.8178C2.25 12.1149 2.52014 11.4391 3.00429 10.9294M3.00429 10.9294L3.54809 11.4459L3.00429 10.9294" fill="#231F2C"/>
</svg>
