<svg width="24" height="24" viewBox="0 0 24 24" fill="none" xmlns="http://www.w3.org/2000/svg">
<path fill-rule="evenodd" clip-rule="evenodd" d="M3.59207 4.53954C3.33776 4.21258 2.86656 4.15368 2.5396 4.40799C2.21264 4.66229 2.15373 5.1335 2.40804 5.46046L5.51636 9.45688C3.06745 11.4097 1.54401 14.4816 1.28867 17.9451C1.21333 18.967 2.0492 19.75 3.00009 19.75H20.9985C21.9478 19.75 22.7869 18.9686 22.7114 17.9451C22.658 17.2197 22.5494 16.5119 22.3885 15.8282C22.2936 15.425 21.8898 15.1751 21.4866 15.2699C21.0834 15.3648 20.8335 15.7686 20.9283 16.1718C21.0709 16.7774 21.1677 17.4071 21.2155 18.0554C21.219 18.1026 21.2037 18.1449 21.1674 18.182C21.1288 18.2214 21.0696 18.25 20.9985 18.25H3.00009C2.92916 18.25 2.87059 18.2216 2.83251 18.1826C2.7966 18.1458 2.78107 18.1034 2.78461 18.0554C3.17487 12.7618 6.80003 8.75 12.0001 8.75C15.5246 8.75 18.2888 10.5772 19.8491 13.3662C20.0513 13.7277 20.5083 13.8568 20.8698 13.6545C21.2313 13.4523 21.3604 12.9953 21.1582 12.6338C20.4663 11.3971 19.5636 10.3185 18.4828 9.45805L21.5921 5.46046C21.8464 5.1335 21.7875 4.66229 21.4605 4.40799C21.1335 4.15368 20.6623 4.21258 20.408 4.53954L17.2404 8.61216C15.7325 7.74331 13.9643 7.25 12.0001 7.25C10.0277 7.25 8.2615 7.74368 6.75823 8.61033L3.59207 4.53954ZM8.50005 12.25C7.8097 12.25 7.25005 12.8096 7.25005 13.5C7.25005 14.1904 7.8097 14.75 8.50005 14.75C9.19041 14.75 9.75005 14.1904 9.75005 13.5C9.75005 12.8096 9.19041 12.25 8.50005 12.25ZM15.5001 12.25C14.8097 12.25 14.2501 12.8096 14.2501 13.5C14.2501 14.1904 14.8097 14.75 15.5001 14.75C16.1904 14.75 16.7501 14.1904 16.7501 13.5C16.7501 12.8096 16.1904 12.25 15.5001 12.25Z" fill="#231F2C"/>
</svg>
