<svg width="24" height="24" viewBox="0 0 24 24" fill="none" xmlns="http://www.w3.org/2000/svg">
<path fill-rule="evenodd" clip-rule="evenodd" d="M12 3.75C7.44365 3.75 3.75 7.44365 3.75 12C3.75 16.5563 7.44365 20.25 12 20.25C14.4215 20.25 16.5985 19.2077 18.1088 17.545C18.3872 17.2384 18.8616 17.2156 19.1682 17.4941C19.4748 17.7726 19.4976 18.2469 19.2191 18.5535C17.4365 20.5161 14.8618 21.75 12 21.75C6.61522 21.75 2.25 17.3848 2.25 12C2.25 6.61522 6.61522 2.25 12 2.25C17.3848 2.25 21.75 6.61522 21.75 12C21.75 13.1382 21.5546 14.2324 21.195 15.2499C21.057 15.6405 20.6285 15.8452 20.2379 15.7071C19.8474 15.5691 19.6427 15.1406 19.7808 14.7501C20.0844 13.8909 20.25 12.9656 20.25 12C20.25 7.44365 16.5563 3.75 12 3.75ZM5.33033 2.46967C5.62322 2.76256 5.62322 3.23744 5.33033 3.53033L3.53033 5.33033C3.23744 5.62322 2.76256 5.62322 2.46967 5.33033C2.17678 5.03744 2.17678 4.56256 2.46967 4.26967L4.26967 2.46967C4.56256 2.17678 5.03744 2.17678 5.33033 2.46967ZM18.6697 2.46967C18.9626 2.17678 19.4374 2.17678 19.7303 2.46967L21.5303 4.26967C21.8232 4.56256 21.8232 5.03744 21.5303 5.33033C21.2374 5.62322 20.7626 5.62322 20.4697 5.33033L18.6697 3.53033C18.3768 3.23744 18.3768 2.76256 18.6697 2.46967ZM12 4.95C12.4142 4.95 12.75 5.28579 12.75 5.7V11.6893L15.2303 14.1697C15.5232 14.4626 15.5232 14.9374 15.2303 15.2303C14.9374 15.5232 14.4626 15.5232 14.1697 15.2303L11.4697 12.5303C11.329 12.3897 11.25 12.1989 11.25 12V5.7C11.25 5.28579 11.5858 4.95 12 4.95Z" fill="#231F2C"/>
</svg>
