<svg width="24" height="24" viewBox="0 0 24 24" fill="none" xmlns="http://www.w3.org/2000/svg">
<path fill-rule="evenodd" clip-rule="evenodd" d="M4.79761 2.32805C6.63133 2.12414 8.48742 2.32093 10.2377 2.90481L12 3.49268L13.7623 2.90481C15.5126 2.32093 17.3687 2.12414 19.2024 2.32805L20.1934 2.43824C21.0796 2.53678 21.75 3.28586 21.75 4.17752L21.75 11C21.75 11.4142 21.4142 11.75 21 11.75C20.5858 11.75 20.25 11.4142 20.25 11L20.25 4.17752C20.25 4.05014 20.1542 3.94313 20.0276 3.92905L19.0366 3.81886C17.4188 3.63896 15.7812 3.81258 14.237 4.32773L12.75 4.82375L12.75 17.4709L13.7623 17.1332C15.5126 16.5493 17.3687 16.3526 19.2024 16.5565L19.9724 16.6421C20.1205 16.6585 20.25 16.5426 20.25 16.3936L20.25 14C20.25 13.5858 20.5858 13.25 21 13.25C21.4142 13.25 21.75 13.5858 21.75 14L21.75 16.3936C21.75 17.4367 20.8433 18.2482 19.8066 18.1329L19.0366 18.0473C17.4188 17.8674 15.7812 18.041 14.2369 18.5561L12.2373 19.2232C12.0833 19.2746 11.9167 19.2746 11.7627 19.2232L9.76306 18.5561C8.21878 18.041 6.5812 17.8674 4.96336 18.0473L4.1934 18.1329C3.15671 18.2482 2.25 17.4367 2.25 16.3936L2.25001 4.17752C2.25001 3.28586 2.92042 2.53678 3.80661 2.43824L4.79761 2.32805ZM11.25 17.4709L11.25 4.82375L9.76307 4.32773C8.21879 3.81258 6.58121 3.63896 4.96338 3.81886L3.97238 3.92905C3.84578 3.94313 3.75001 4.05014 3.75001 4.17752L3.75 16.3936C3.75 16.5426 3.87953 16.6585 4.02763 16.6421L4.79759 16.5565C6.63132 16.3526 8.48741 16.5493 10.2377 17.1332L11.25 17.4709ZM4.2536 18.9747C6.4576 18.7296 8.68706 19.0755 10.7134 19.9768C11.5325 20.3411 12.4675 20.3411 13.2866 19.9768C15.3129 19.0755 17.5424 18.7296 19.7464 18.9747L20.0829 19.0121C20.4946 19.0579 20.7912 19.4287 20.7454 19.8404C20.6996 20.2521 20.3288 20.5487 19.9171 20.5029L19.5806 20.4655C17.6412 20.2498 15.6794 20.5542 13.8962 21.3473C12.689 21.8842 11.311 21.8842 10.1039 21.3473C8.32064 20.5542 6.35879 20.2498 4.41938 20.4655L4.33649 19.7201L4.41937 20.4655L4.08288 20.5029C3.6712 20.5487 3.30037 20.2521 3.25459 19.8404C3.20882 19.4287 3.50544 19.0579 3.91712 19.0121L4.2536 18.9747Z" fill="#231F2C"/>
</svg>
