<svg width="24" height="24" viewBox="0 0 24 24" fill="none" xmlns="http://www.w3.org/2000/svg">
<path fill-rule="evenodd" clip-rule="evenodd" d="M11 3.75C10.3096 3.75 9.75 4.30964 9.75 5V5.25H14.25V5C14.25 4.30964 13.6904 3.75 13 3.75H11ZM15.75 5.25V5C15.75 3.48122 14.5188 2.25 13 2.25H11C9.48122 2.25 8.25 3.48122 8.25 5V5.25H5.53656C4.29624 5.25 3.17985 6.08832 2.92554 7.34835C2.63108 8.80722 2.25 11.1455 2.25 13.5C2.25 15.8545 2.63108 18.1928 2.92554 19.6516C3.17985 20.9117 4.29624 21.75 5.53656 21.75H18.4634C19.7038 21.75 20.8201 20.9117 21.0745 19.6516C21.2137 18.9619 21.3712 18.0805 21.4991 17.0967C21.5525 16.6859 21.2628 16.3096 20.852 16.2563C20.4413 16.2029 20.065 16.4926 20.0116 16.9033C19.8891 17.8457 19.7379 18.692 19.6041 19.3549C19.4999 19.8712 19.0353 20.25 18.4634 20.25H5.53656C4.96466 20.25 4.5001 19.8712 4.39589 19.3549C4.11034 17.9401 3.75 15.712 3.75 13.5C3.75 12.2527 3.86458 11.0002 4.01571 9.8914L7.25928 10.6526C10.3774 11.3843 13.6226 11.3843 16.7407 10.6526L19.9843 9.89142C20.1354 11.0003 20.25 12.2527 20.25 13.5C20.25 13.6609 20.2481 13.8219 20.2444 13.983C20.235 14.3971 20.5631 14.7404 20.9772 14.7498C21.3913 14.7592 21.7346 14.4311 21.744 14.017C21.748 13.8452 21.75 13.6727 21.75 13.5C21.75 11.1455 21.3689 8.80722 21.0745 7.34835C20.8201 6.08832 19.7038 5.25 18.4634 5.25H15.75ZM19.7492 8.40584C19.7001 8.13271 19.6511 7.8779 19.6041 7.64512C19.4999 7.12877 19.0353 6.75 18.4634 6.75H5.53656C4.96467 6.75 4.5001 7.12877 4.39589 7.64512C4.3489 7.8779 4.2999 8.1327 4.2508 8.40582L7.60199 9.19226C10.4947 9.87112 13.5053 9.87112 16.398 9.19228L19.7492 8.40584ZM12 13.25C12.4142 13.25 12.75 13.5858 12.75 14V15.25H14C14.4142 15.25 14.75 15.5858 14.75 16C14.75 16.4142 14.4142 16.75 14 16.75H12.75V18C12.75 18.4142 12.4142 18.75 12 18.75C11.5858 18.75 11.25 18.4142 11.25 18V16.75H10C9.58579 16.75 9.25 16.4142 9.25 16C9.25 15.5858 9.58579 15.25 10 15.25H11.25V14C11.25 13.5858 11.5858 13.25 12 13.25Z" fill="#231F2C"/>
</svg>
