<svg width="24" height="24" viewBox="0 0 24 24" fill="none" xmlns="http://www.w3.org/2000/svg">
<path fill-rule="evenodd" clip-rule="evenodd" d="M7.25 5C7.25 3.48122 8.48122 2.25 10 2.25C10.788 2.25 11.4986 2.58145 12 3.11253C12.5014 2.58145 13.212 2.25 14 2.25C15.5188 2.25 16.75 3.48122 16.75 5C16.75 5.45011 16.6419 5.87497 16.4501 6.25H19C20.5188 6.25 21.75 7.48122 21.75 9V12C21.75 12.4142 21.4142 12.75 21 12.75H20.6204C20.6998 13.3679 20.75 14.0901 20.75 15C20.75 15.4142 20.4142 15.75 20 15.75C19.5858 15.75 19.25 15.4142 19.25 15C19.25 14.0536 19.1922 13.3424 19.1065 12.75H12.75V20.25H17.5585C18.1037 20.25 18.5332 19.9076 18.6388 19.4423C18.737 19.0098 18.8429 18.4837 18.9386 17.8822C19.0036 17.4732 19.3879 17.1943 19.797 17.2593C20.2061 17.3243 20.485 17.7087 20.42 18.1178C20.3187 18.7547 20.2064 19.313 20.1016 19.7744C19.8261 20.9881 18.735 21.75 17.5585 21.75H6.44152C5.26502 21.75 4.17391 20.9881 3.89837 19.7744C3.85644 19.5896 3.81252 19.4081 3.76816 19.2247C3.51627 18.1836 3.25 17.0829 3.25 15C3.25 14.0901 3.3002 13.3679 3.37959 12.75H3C2.58579 12.75 2.25 12.4142 2.25 12V9C2.25 7.48122 3.48122 6.25 5 6.25H7.54985C7.35814 5.87497 7.25 5.45011 7.25 5ZM10 6.25H11.25V5C11.25 4.30964 10.6904 3.75 10 3.75C9.30964 3.75 8.75 4.30964 8.75 5C8.75 5.69036 9.30964 6.25 10 6.25ZM12.75 5V6.25H14C14.6904 6.25 15.25 5.69036 15.25 5C15.25 4.30964 14.6904 3.75 14 3.75C13.3096 3.75 12.75 4.30964 12.75 5ZM11.25 7.75H5C4.30964 7.75 3.75 8.30964 3.75 9V11.25H4.24548C4.25514 11.2498 4.26483 11.2498 4.27455 11.25H11.25V7.75ZM12.75 11.25V7.75H19C19.6904 7.75 20.25 8.30964 20.25 9V11.25H19.7545C19.7449 11.2498 19.7352 11.2498 19.7255 11.25H12.75ZM11.25 12.75H4.89346C4.80775 13.3424 4.75 14.0536 4.75 15C4.75 16.8995 4.97944 17.8497 5.2251 18.867C5.27034 19.0544 5.31614 19.244 5.36115 19.4423C5.46679 19.9076 5.89629 20.25 6.44152 20.25H11.25V12.75Z" fill="#231F2C"/>
</svg>
