<svg width="24" height="24" viewBox="0 0 24 24" fill="none" xmlns="http://www.w3.org/2000/svg">
<path fill-rule="evenodd" clip-rule="evenodd" d="M12.2551 5.33242C10.4361 3.35739 7.33919 3.21127 5.34264 5.00605C3.35136 6.79611 3.20787 9.8403 5.02214 11.8101C6.61439 13.5389 9.18883 13.868 11.1457 12.715C11.4502 12.5356 11.8387 12.5931 12.0781 12.8531L14.8122 15.8216C14.9481 15.9691 15.0192 16.1648 15.0097 16.3651C15.0003 16.5653 14.9111 16.7535 14.762 16.8875L13.7199 17.8242C13.4119 18.1011 12.9377 18.0759 12.6608 17.7679C12.3839 17.4598 12.4091 16.9856 12.7171 16.7087L13.1946 16.2795L11.3647 14.2927C8.89562 15.4432 5.85631 14.9299 3.91881 12.8263C1.5386 10.242 1.7271 6.23924 4.33984 3.89053C6.94732 1.54655 10.983 1.73713 13.3585 4.31622C15.0033 6.10203 15.4216 8.56586 14.6601 10.693L21.1105 17.6964C22.0227 18.6868 21.9504 20.2231 20.949 21.1233C19.953 22.0187 18.4137 21.9459 17.5063 20.9608L16.8691 20.269L15.7529 21.2724C15.4475 21.5469 14.978 21.5248 14.6998 21.2227L13.9403 20.3981C13.6597 20.0934 13.6792 19.6189 13.9839 19.3383C14.2886 19.0577 14.7631 19.0772 15.0437 19.3819L15.3012 19.6615L16.4174 18.658C16.7228 18.3835 17.1922 18.4056 17.4704 18.7077L18.6096 19.9446C18.9606 20.3257 19.5611 20.354 19.9462 20.0077C20.3261 19.6663 20.3534 19.0885 20.0072 18.7126L13.2357 11.3605C13.0318 11.1392 12.98 10.8175 13.1039 10.5434C13.8699 8.84966 13.6024 6.79519 12.2551 5.33242ZM9.75423 7.58059C9.19351 6.97179 8.23642 6.92668 7.62108 7.47984C7.011 8.02827 6.96711 8.95836 7.52304 9.56195C8.08376 10.1707 9.04086 10.2159 9.65619 9.6627C10.2663 9.11428 10.3102 8.18418 9.75423 7.58059ZM6.61828 6.36432C7.84455 5.26197 9.74049 5.35154 10.8576 6.56439C11.9794 7.78244 11.8905 9.67114 10.659 10.7782C9.43273 11.8806 7.53678 11.791 6.41971 10.5782C5.29784 9.3601 5.38675 7.4714 6.61828 6.36432Z" fill="#231F2C"/>
</svg>
