<svg width="24" height="24" viewBox="0 0 24 24" fill="none" xmlns="http://www.w3.org/2000/svg">
<path fill-rule="evenodd" clip-rule="evenodd" d="M1.89837 6.22563C2.17391 5.01194 3.26502 4.25 4.44152 4.25H19.5585C20.735 4.25 21.8261 5.01194 22.1016 6.22563C22.395 7.51776 22.75 9.57982 22.75 12C22.75 12.3517 22.7425 12.6956 22.7288 13.0306C22.7119 13.4445 22.3627 13.7663 21.9488 13.7494C21.5349 13.7325 21.2131 13.3832 21.2301 12.9694C21.243 12.6539 21.25 12.3304 21.25 12C21.25 11.3063 21.219 10.6433 21.168 10.0223L17.1625 12.1305L20.8155 16.591C20.8574 16.3686 20.8989 16.1319 20.9386 15.8822C21.0036 15.4732 21.3879 15.1943 21.797 15.2593C22.2061 15.3243 22.485 15.7087 22.42 16.1178C22.3187 16.7547 22.2064 17.313 22.1016 17.7744C21.8261 18.9881 20.735 19.75 19.5585 19.75H4.44152C3.26502 19.75 2.17391 18.9881 1.89837 17.7744C1.60503 16.4822 1.25 14.4202 1.25 12C1.25 9.57982 1.60503 7.51776 1.89837 6.22563ZM20.1221 18.1118L15.8076 12.8435L14.2123 13.6832C12.8275 14.412 11.1725 14.412 9.7877 13.6832L8.19239 12.8435L3.87789 18.1118C4.04102 18.1998 4.23279 18.25 4.44152 18.25H19.5585C19.7672 18.25 19.959 18.1998 20.1221 18.1118ZM3.18454 16.591L6.83754 12.1305L2.83203 10.0223C2.78105 10.6433 2.75 11.3063 2.75 12C2.75 13.8044 2.96003 15.4007 3.18454 16.591ZM3.01476 8.42339L8.33547 11.2238C8.3443 11.2282 8.35307 11.2328 8.36177 11.2376L10.4863 12.3558C11.4338 12.8545 12.5662 12.8545 13.5137 12.3558L15.6383 11.2376C15.6469 11.2328 15.6557 11.2282 15.6645 11.2238L20.9852 8.42339C20.8784 7.69442 20.7536 7.063 20.6388 6.55772C20.5332 6.09241 20.1037 5.75 19.5585 5.75H4.44152C3.89629 5.75 3.46679 6.09241 3.36115 6.55772C3.24644 7.063 3.12156 7.69442 3.01476 8.42339Z" fill="#231F2C"/>
</svg>
