<svg width="24" height="24" viewBox="0 0 24 24" fill="none" xmlns="http://www.w3.org/2000/svg">
<path fill-rule="evenodd" clip-rule="evenodd" d="M8.33541 2.32918C8.70589 2.51442 8.85606 2.96493 8.67082 3.33541L7.21353 6.25H16.7865L15.3292 3.33541C15.1439 2.96493 15.2941 2.51442 15.6646 2.32918C16.0351 2.14394 16.4856 2.29411 16.6708 2.66459L18.4635 6.25H20C20.9665 6.25 21.75 7.0335 21.75 8V10C21.75 10.9207 21.0391 11.6753 20.1362 11.7448L19.5731 15.1233C19.505 15.5319 19.1186 15.8079 18.71 15.7398C18.3015 15.6717 18.0254 15.2853 18.0935 14.8767L18.6147 11.75H5.38535L6.48865 18.3698C6.60883 19.0909 7.04914 19.6114 7.62996 19.7593C8.57107 19.9989 10.0273 20.25 12 20.25C13.9727 20.25 15.4289 19.9989 16.37 19.7593C16.9509 19.6114 17.3912 19.0909 17.5114 18.3698L17.5935 17.8767C17.6616 17.4681 18.0481 17.1921 18.4566 17.2602C18.8652 17.3283 19.1412 17.7147 19.0731 18.1233L18.9909 18.6164C18.7955 19.7888 18.0196 20.8871 16.7402 21.2129C15.682 21.4824 14.1015 21.75 12 21.75C9.89853 21.75 8.31802 21.4824 7.25982 21.2129C5.98037 20.8871 5.20446 19.7888 5.00906 18.6164L3.86378 11.7448C2.96095 11.6753 2.25 10.9207 2.25 10V8C2.25 7.0335 3.0335 6.25 4 6.25H5.53647L7.32918 2.66459C7.51442 2.29411 7.96493 2.14394 8.33541 2.32918ZM5.98375 7.75H4C3.86193 7.75 3.75 7.86193 3.75 8V10C3.75 10.1381 3.86193 10.25 4 10.25H20C20.1381 10.25 20.25 10.1381 20.25 10V8C20.25 7.86193 20.1381 7.75 20 7.75H18.0162C18.0058 7.75022 17.9953 7.75022 17.9849 7.75H6.01509C6.00466 7.75022 5.99421 7.75022 5.98375 7.75ZM10 13.25C10.4142 13.25 10.75 13.5858 10.75 14V17C10.75 17.4142 10.4142 17.75 10 17.75C9.58579 17.75 9.25 17.4142 9.25 17V14C9.25 13.5858 9.58579 13.25 10 13.25ZM14 13.25C14.4142 13.25 14.75 13.5858 14.75 14V17C14.75 17.4142 14.4142 17.75 14 17.75C13.5858 17.75 13.25 17.4142 13.25 17V14C13.25 13.5858 13.5858 13.25 14 13.25Z" fill="#231F2C"/>
</svg>
