<svg width="24" height="24" viewBox="0 0 24 24" fill="none" xmlns="http://www.w3.org/2000/svg">
<path fill-rule="evenodd" clip-rule="evenodd" d="M6.49919 9.42891C6.70042 9.81548 6.55017 10.292 6.16359 10.4932L3.9345 11.6536C3.74572 11.7519 3.74572 12.022 3.9345 12.1202L10.421 15.4968C11.4106 16.0119 12.5892 16.0119 13.5788 15.4968L20.0653 12.1202C20.254 12.022 20.254 11.7519 20.0653 11.6536L17.8521 10.5015C17.4656 10.3003 17.3153 9.82379 17.5165 9.43722C17.7178 9.05064 18.1943 8.90039 18.5809 9.10162L20.794 10.2537C22.1154 10.9416 22.1154 12.8323 20.794 13.5202L19.8726 13.9998L20.7981 14.4824C22.1181 15.1707 22.1181 17.0595 20.7981 17.7477L18.1862 19.1097C17.7997 19.3112 17.3231 19.1613 17.1216 18.7748C16.9201 18.3884 17.07 17.9118 17.4565 17.7103L20.0684 16.3483C20.257 16.25 20.257 15.9802 20.0684 15.8818L18.1644 14.889L14.3075 16.8967C12.8612 17.6496 11.1386 17.6496 9.69223 16.8967L5.83538 14.889L3.93133 15.8818C3.74276 15.9802 3.74276 16.25 3.93133 16.3483L10.4189 19.7311C11.4096 20.2477 12.5902 20.2477 13.5809 19.7311L14.6724 19.162C15.0588 18.9605 15.5355 19.1104 15.737 19.4968C15.9385 19.8833 15.7885 20.3599 15.4021 20.5614L14.3106 21.1305C12.8626 21.8855 11.1371 21.8855 9.68918 21.1305L3.20163 17.7477C1.88168 17.0595 1.88168 15.1707 3.20163 14.4824L4.1272 13.9998L3.20577 13.5202C1.88432 12.8323 1.88432 10.9416 3.20577 10.2537L5.43486 9.09331C5.82144 8.89208 6.29795 9.04233 6.49919 9.42891Z" fill="#231F2C"/>
<path fill-rule="evenodd" clip-rule="evenodd" d="M13.573 4.08199C12.5865 3.57089 11.4133 3.57089 10.4268 4.08198L3.94341 7.44112C3.75403 7.53923 3.75404 7.8101 3.94341 7.90822L10.4268 11.2674C11.4133 11.7784 12.5865 11.7784 13.573 11.2674L20.0564 7.90822C20.2458 7.8101 20.2458 7.53923 20.0564 7.44112L13.573 4.08199ZM9.70077 2.68067C11.1425 1.93368 12.8573 1.93368 14.299 2.68067L20.7824 6.0398C22.1081 6.72663 22.1081 8.62271 20.7824 9.30954L14.299 12.6687C12.8573 13.4157 11.1425 13.4157 9.70077 12.6687L3.21737 9.30954C1.89173 8.62271 1.89174 6.72663 3.21737 6.0398L9.70077 2.68067Z" fill="#231F2C" fill-opacity="0.63"/>
</svg>
