<svg width="24" height="24" viewBox="0 0 24 24" fill="none" xmlns="http://www.w3.org/2000/svg">
<path fill-rule="evenodd" clip-rule="evenodd" d="M14.7464 5.47589C15.0359 5.1796 15.5107 5.17408 15.807 5.46354L21.2246 10.7564C21.9255 11.4412 21.9255 12.5588 21.2246 13.2436L15.807 18.5365C15.5107 18.8259 15.0359 18.8204 14.7464 18.5241C14.457 18.2278 14.4625 17.753 14.7588 17.4635L19.5833 12.75H8.11801C7.7038 12.75 7.36801 12.4142 7.36801 12C7.36801 11.5858 7.7038 11.25 8.11801 11.25H19.5833L14.7588 6.53647C14.4625 6.24701 14.457 5.77217 14.7464 5.47589ZM2.25024 12C2.25024 11.5858 2.58603 11.25 3.00024 11.25H5.04735C5.46157 11.25 5.79735 11.5858 5.79735 12C5.79735 12.4142 5.46157 12.75 5.04735 12.75H3.00024C2.58603 12.75 2.25024 12.4142 2.25024 12Z" fill="#231F2C"/>
</svg>
