<svg width="24" height="24" viewBox="0 0 24 24" fill="none" xmlns="http://www.w3.org/2000/svg">
<path fill-rule="evenodd" clip-rule="evenodd" d="M11.4697 1.46967C11.7626 1.17678 12.2374 1.17678 12.5303 1.46967L14.9445 3.88388C15.179 4.1183 15.4969 4.25 15.8284 4.25H19C19.4142 4.25 19.75 4.58579 19.75 5V8.17157C19.75 8.50309 19.8817 8.82103 20.1161 9.05546L22.5303 11.4697C22.671 11.6103 22.75 11.8011 22.75 12C22.75 12.1989 22.671 12.3897 22.5303 12.5303L19.5303 15.5303C19.2374 15.8232 18.7626 15.8232 18.4697 15.5303C18.1768 15.2374 18.1768 14.7626 18.4697 14.4697L20.9393 12L19.0555 10.1161C18.5397 9.60039 18.25 8.90092 18.25 8.17157V5.75H15.8284C15.0991 5.75 14.3996 5.46027 13.8839 4.94454L12 3.06066L10.1161 4.94454C9.60039 5.46027 8.90092 5.75 8.17157 5.75H5.75V8.17157C5.75 8.90092 5.46027 9.60039 4.94454 10.1161L3.06066 12L4.94454 13.8839C5.46027 14.3996 5.75 15.0991 5.75 15.8284V18.25H8.17157C8.90092 18.25 9.60039 18.5397 10.1161 19.0555L12 20.9393L13.8839 19.0555C14.3996 18.5397 15.0991 18.25 15.8284 18.25H18.25V18C18.25 17.5858 18.5858 17.25 19 17.25C19.4142 17.25 19.75 17.5858 19.75 18V19C19.75 19.4142 19.4142 19.75 19 19.75H15.8284C15.4969 19.75 15.179 19.8817 14.9445 20.1161L12.5303 22.5303C12.3897 22.671 12.1989 22.75 12 22.75C11.8011 22.75 11.6103 22.671 11.4697 22.5303L9.05546 20.1161C8.82103 19.8817 8.50309 19.75 8.17157 19.75H5C4.58579 19.75 4.25 19.4142 4.25 19V15.8284C4.25 15.4969 4.1183 15.179 3.88388 14.9445L1.46967 12.5303C1.17678 12.2374 1.17678 11.7626 1.46967 11.4697L3.88388 9.05546C4.1183 8.82104 4.25 8.50309 4.25 8.17157V5C4.25 4.58579 4.58579 4.25 5 4.25H8.17157C8.50309 4.25 8.82104 4.1183 9.05546 3.88388L11.4697 1.46967ZM12 8.75C10.2051 8.75 8.75 10.2051 8.75 12C8.75 13.7949 10.2051 15.25 12 15.25C13.7949 15.25 15.25 13.7949 15.25 12C15.25 10.2051 13.7949 8.75 12 8.75ZM7.25 12C7.25 9.37665 9.37665 7.25 12 7.25C14.6234 7.25 16.75 9.37665 16.75 12C16.75 14.6234 14.6234 16.75 12 16.75C9.37665 16.75 7.25 14.6234 7.25 12Z" fill="#231F2C"/>
</svg>
