<svg width="24" height="24" viewBox="0 0 24 24" fill="none" xmlns="http://www.w3.org/2000/svg">
<path fill-rule="evenodd" clip-rule="evenodd" d="M10 2.25C10.4142 2.25 10.75 2.58579 10.75 3V8C10.75 9.51878 9.51878 10.75 8 10.75H3C2.58579 10.75 2.25 10.4142 2.25 10C2.25 9.58579 2.58579 9.25 3 9.25H8C8.69036 9.25 9.25 8.69036 9.25 8V3C9.25 2.58579 9.58579 2.25 10 2.25ZM14 2.25C14.4142 2.25 14.75 2.58579 14.75 3V8C14.75 8.69036 15.3096 9.25 16 9.25H21C21.4142 9.25 21.75 9.58579 21.75 10C21.75 10.4142 21.4142 10.75 21 10.75H16C14.4812 10.75 13.25 9.51878 13.25 8V3C13.25 2.58579 13.5858 2.25 14 2.25ZM2.25 14C2.25 13.5858 2.58579 13.25 3 13.25H8C9.51878 13.25 10.75 14.4812 10.75 16V21C10.75 21.4142 10.4142 21.75 10 21.75C9.58579 21.75 9.25 21.4142 9.25 21V16C9.25 15.3096 8.69036 14.75 8 14.75H3C2.58579 14.75 2.25 14.4142 2.25 14ZM13.25 16C13.25 14.4812 14.4812 13.25 16 13.25H21C21.4142 13.25 21.75 13.5858 21.75 14C21.75 14.4142 21.4142 14.75 21 14.75H16C15.3096 14.75 14.75 15.3096 14.75 16C14.75 16.4142 14.4142 16.75 14 16.75C13.5858 16.75 13.25 16.4142 13.25 16ZM14 18.25C14.4142 18.25 14.75 18.5858 14.75 19V21C14.75 21.4142 14.4142 21.75 14 21.75C13.5858 21.75 13.25 21.4142 13.25 21V19C13.25 18.5858 13.5858 18.25 14 18.25Z" fill="#231F2C"/>
</svg>
