<svg width="24" height="24" viewBox="0 0 24 24" fill="none" xmlns="http://www.w3.org/2000/svg">
<path fill-rule="evenodd" clip-rule="evenodd" d="M2.94575 4.39479C3.17872 3.11354 4.30387 2.25 5.56155 2.25H7.43845C8.69613 2.25 9.82128 3.11354 10.0542 4.39479C10.3524 6.03435 10.75 8.81602 10.75 12C10.75 15.184 10.3524 17.9657 10.0542 19.6052C9.82128 20.8865 8.69613 21.75 7.43845 21.75H5.56155C4.30387 21.75 3.17872 20.8865 2.94575 19.6052C2.64764 17.9656 2.25 15.184 2.25 12C2.25 8.81602 2.64764 6.03435 2.94575 4.39479ZM5.56155 3.75C4.98376 3.75 4.51694 4.13852 4.42156 4.66313C4.13372 6.24614 3.75 8.93355 3.75 12C3.75 15.0665 4.13372 17.7539 4.42156 19.3369C4.51694 19.8615 4.98376 20.25 5.56155 20.25H7.43845C8.01624 20.25 8.48306 19.8615 8.57844 19.3369C8.86628 17.7539 9.25 15.0665 9.25 12C9.25 8.93355 8.86628 6.24614 8.57844 4.66313C8.48306 4.13852 8.01624 3.75 7.43845 3.75H5.56155ZM13.9458 4.39479C14.1787 3.11354 15.3039 2.25 16.5616 2.25H18.4384C19.6961 2.25 20.8213 3.11354 21.0542 4.39479C21.3524 6.03435 21.75 8.81602 21.75 12C21.75 13.0747 21.7047 14.1028 21.6334 15.056C21.6025 15.469 21.2426 15.7788 20.8295 15.7479C20.4164 15.717 20.1066 15.3571 20.1376 14.944C20.2065 14.0235 20.25 13.0329 20.25 12C20.25 8.93355 19.8663 6.24614 19.5784 4.66313C19.4831 4.13852 19.0162 3.75 18.4384 3.75H16.5616C15.9838 3.75 15.5169 4.13852 15.4216 4.66313C15.1337 6.24614 14.75 8.93355 14.75 12C14.75 15.0665 15.1337 17.7539 15.4216 19.3369C15.5169 19.8615 15.9838 20.25 16.5616 20.25H18.4384C19.0162 20.25 19.4831 19.8615 19.5784 19.3369C19.6531 18.9263 19.7344 18.4405 19.8137 17.8925C19.8731 17.4826 20.2536 17.1984 20.6635 17.2577C21.0734 17.3171 21.3576 17.6976 21.2983 18.1075C21.2161 18.6748 21.1319 19.1783 21.0542 19.6052C20.8213 20.8865 19.6961 21.75 18.4384 21.75H16.5616C15.3039 21.75 14.1787 20.8865 13.9458 19.6052C13.6476 17.9656 13.25 15.184 13.25 12C13.25 8.81602 13.6476 6.03435 13.9458 4.39479Z" fill="#231F2C"/>
</svg>
