<svg width="24" height="24" viewBox="0 0 24 24" fill="none" xmlns="http://www.w3.org/2000/svg">
<path fill-rule="evenodd" clip-rule="evenodd" d="M2.25 4C2.25 3.0335 3.0335 2.25 4 2.25H6C6.9665 2.25 7.75 3.0335 7.75 4V6C7.75 6.9665 6.9665 7.75 6 7.75H4C3.0335 7.75 2.25 6.9665 2.25 6V4ZM4 3.75C3.86193 3.75 3.75 3.86193 3.75 4V6C3.75 6.13807 3.86193 6.25 4 6.25H6C6.13807 6.25 6.25 6.13807 6.25 6V4C6.25 3.86193 6.13807 3.75 6 3.75H4ZM9.25 4C9.25 3.0335 10.0335 2.25 11 2.25H13C13.9665 2.25 14.75 3.0335 14.75 4V6C14.75 6.9665 13.9665 7.75 13 7.75H11C10.0335 7.75 9.25 6.9665 9.25 6V4ZM11 3.75C10.8619 3.75 10.75 3.86193 10.75 4V6C10.75 6.13807 10.8619 6.25 11 6.25H13C13.1381 6.25 13.25 6.13807 13.25 6V4C13.25 3.86193 13.1381 3.75 13 3.75H11ZM16.25 4C16.25 3.0335 17.0335 2.25 18 2.25H20C20.9665 2.25 21.75 3.0335 21.75 4V6C21.75 6.9665 20.9665 7.75 20 7.75H18C17.0335 7.75 16.25 6.9665 16.25 6V4ZM18 3.75C17.8619 3.75 17.75 3.86193 17.75 4V6C17.75 6.13807 17.8619 6.25 18 6.25H20C20.1381 6.25 20.25 6.13807 20.25 6V4C20.25 3.86193 20.1381 3.75 20 3.75H18ZM2.25 11C2.25 10.0335 3.0335 9.25 4 9.25H6C6.9665 9.25 7.75 10.0335 7.75 11V13C7.75 13.9665 6.9665 14.75 6 14.75H4C3.0335 14.75 2.25 13.9665 2.25 13V11ZM4 10.75C3.86193 10.75 3.75 10.8619 3.75 11V13C3.75 13.1381 3.86193 13.25 4 13.25H6C6.13807 13.25 6.25 13.1381 6.25 13V11C6.25 10.8619 6.13807 10.75 6 10.75H4ZM9.25 11C9.25 10.0335 10.0335 9.25 11 9.25H13C13.9665 9.25 14.75 10.0335 14.75 11V13C14.75 13.9665 13.9665 14.75 13 14.75H11C10.0335 14.75 9.25 13.9665 9.25 13V11ZM11 10.75C10.8619 10.75 10.75 10.8619 10.75 11V13C10.75 13.1381 10.8619 13.25 11 13.25H13C13.1381 13.25 13.25 13.1381 13.25 13V11C13.25 10.8619 13.1381 10.75 13 10.75H11ZM16.25 11C16.25 10.0335 17.0335 9.25 18 9.25H20C20.9665 9.25 21.75 10.0335 21.75 11V13C21.75 13.9665 20.9665 14.75 20 14.75H18C17.0335 14.75 16.25 13.9665 16.25 13V11ZM18 10.75C17.8619 10.75 17.75 10.8619 17.75 11V13C17.75 13.1381 17.8619 13.25 18 13.25H20C20.1381 13.25 20.25 13.1381 20.25 13V11C20.25 10.8619 20.1381 10.75 20 10.75H18ZM2.25 18C2.25 17.0335 3.0335 16.25 4 16.25H6C6.9665 16.25 7.75 17.0335 7.75 18V20C7.75 20.9665 6.9665 21.75 6 21.75H4C3.0335 21.75 2.25 20.9665 2.25 20V18ZM4 17.75C3.86193 17.75 3.75 17.8619 3.75 18V20C3.75 20.1381 3.86193 20.25 4 20.25H6C6.13807 20.25 6.25 20.1381 6.25 20V18C6.25 17.8619 6.13807 17.75 6 17.75H4ZM9.25 18C9.25 17.0335 10.0335 16.25 11 16.25H13C13.9665 16.25 14.75 17.0335 14.75 18V20C14.75 20.9665 13.9665 21.75 13 21.75H11C10.0335 21.75 9.25 20.9665 9.25 20V18ZM11 17.75C10.8619 17.75 10.75 17.8619 10.75 18V20C10.75 20.1381 10.8619 20.25 11 20.25H13C13.1381 20.25 13.25 20.1381 13.25 20V18C13.25 17.8619 13.1381 17.75 13 17.75H11ZM16.25 18C16.25 17.0335 17.0335 16.25 18 16.25H19C19.4142 16.25 19.75 16.5858 19.75 17C19.75 17.4142 19.4142 17.75 19 17.75H18C17.8619 17.75 17.75 17.8619 17.75 18V20C17.75 20.1381 17.8619 20.25 18 20.25H20C20.1381 20.25 20.25 20.1381 20.25 20V19C20.25 18.5858 20.5858 18.25 21 18.25C21.4142 18.25 21.75 18.5858 21.75 19V20C21.75 20.9665 20.9665 21.75 20 21.75H18C17.0335 21.75 16.25 20.9665 16.25 20V18Z" fill="#231F2C"/>
</svg>
