<svg width="24" height="24" viewBox="0 0 24 24" fill="none" xmlns="http://www.w3.org/2000/svg">
<path fill-rule="evenodd" clip-rule="evenodd" d="M12.0001 3.75C8.93367 3.75 6.24626 4.13372 4.66325 4.42156C4.13864 4.51694 3.75012 4.98376 3.75012 5.56155V7.43845C3.75012 8.01624 4.13864 8.48306 4.66325 8.57844C6.24626 8.86628 8.93367 9.25 12.0001 9.25C15.0666 9.25 17.754 8.86628 19.337 8.57844C19.8616 8.48306 20.2501 8.01624 20.2501 7.43845V5.56155C20.2501 4.98376 19.8616 4.51694 19.337 4.42156C17.754 4.13372 15.0666 3.75 12.0001 3.75ZM4.39491 2.94575C6.03447 2.64764 8.81614 2.25 12.0001 2.25C15.1841 2.25 17.9658 2.64764 19.6053 2.94575C20.8866 3.17872 21.7501 4.30387 21.7501 5.56155V7.43845C21.7501 8.69613 20.8866 9.82128 19.6053 10.0542C17.9658 10.3524 15.1841 10.75 12.0001 10.75C8.81614 10.75 6.03447 10.3524 4.39491 10.0542C3.11366 9.82128 2.25012 8.69613 2.25012 7.43845V5.56155C2.25012 4.30387 3.11366 3.17872 4.39491 2.94575ZM12.0001 14.75C8.93367 14.75 6.24626 15.1337 4.66325 15.4216C4.13864 15.5169 3.75012 15.9838 3.75012 16.5616V18.4384C3.75012 19.0162 4.13864 19.4831 4.66325 19.5784C6.24626 19.8663 8.93367 20.25 12.0001 20.25C13.033 20.25 14.0235 20.2065 14.944 20.1376C15.3571 20.1067 15.717 20.4164 15.7479 20.8295C15.7788 21.2426 15.469 21.6025 15.056 21.6334C14.1029 21.7047 13.0747 21.75 12.0001 21.75C8.81614 21.75 6.03447 21.3524 4.39491 21.0542C3.11366 20.8213 2.25012 19.6961 2.25012 18.4384V16.5616C2.25012 15.3039 3.11366 14.1787 4.39491 13.9458C6.03447 13.6476 8.81614 13.25 12.0001 13.25C15.1841 13.25 17.9658 13.6476 19.6053 13.9458C20.8866 14.1787 21.7501 15.3039 21.7501 16.5616V18.4384C21.7501 19.6961 20.8866 20.8213 19.6053 21.0542C19.1784 21.1319 18.6748 21.2161 18.1075 21.2983C17.6976 21.3576 17.3171 21.0735 17.2577 20.6635C17.1984 20.2536 17.4826 19.8731 17.8925 19.8138C18.4406 19.7344 18.9263 19.6531 19.337 19.5784C19.8616 19.4831 20.2501 19.0162 20.2501 18.4384V16.5616C20.2501 15.9838 19.8616 15.5169 19.337 15.4216C17.754 15.1337 15.0666 14.75 12.0001 14.75Z" fill="#231F2C"/>
</svg>
