<svg width="24" height="24" viewBox="0 0 24 24" fill="none" xmlns="http://www.w3.org/2000/svg">
<path fill-rule="evenodd" clip-rule="evenodd" d="M10.7651 2.75729C11.4479 2.0809 12.5521 2.0809 13.2349 2.75729L15.5278 5.02853C15.8221 5.32003 15.8243 5.7949 15.5328 6.08918C15.2413 6.38346 14.7665 6.38571 14.4722 6.09421L12.75 4.38828V11.25H18C18.4142 11.25 18.75 11.5858 18.75 12C18.75 12.4142 18.4142 12.75 18 12.75H12.75V19.6117L14.4722 17.9058C14.7665 17.6143 15.2413 17.6165 15.5328 17.9108C15.8243 18.2051 15.8221 18.68 15.5278 18.9715L13.2349 21.2427C12.5521 21.9191 11.4479 21.9191 10.7651 21.2427L8.47219 18.9715C8.17791 18.68 8.17566 18.2051 8.46716 17.9108C8.75866 17.6165 9.23353 17.6143 9.52781 17.9058L11.25 19.6117V12.75H4.38828L6.09421 14.4722C6.38571 14.7665 6.38346 15.2413 6.08918 15.5328C5.7949 15.8243 5.32003 15.8221 5.02853 15.5278L2.75729 13.2349C2.0809 12.5521 2.0809 11.4479 2.75729 10.7651L5.02853 8.47219C5.32003 8.17791 5.7949 8.17566 6.08918 8.46716C6.38346 8.75866 6.38571 9.23353 6.09421 9.52781L4.38828 11.25H11.25V4.38828L9.52781 6.09421C9.23353 6.38571 8.75866 6.38346 8.46716 6.08918C8.17566 5.7949 8.17791 5.32003 8.47219 5.02853L10.7651 2.75729ZM17.9108 8.46716C18.2051 8.17566 18.68 8.17791 18.9715 8.47219L21.2427 10.7651C21.9191 11.4479 21.9191 12.5521 21.2427 13.2349L18.9715 15.5278C18.68 15.8221 18.2051 15.8243 17.9108 15.5328C17.6165 15.2413 17.6143 14.7665 17.9058 14.4722L20.177 12.1793C20.2743 12.0811 20.2743 11.9189 20.177 11.8207L17.9058 9.52781C17.6143 9.23353 17.6165 8.75866 17.9108 8.46716Z" fill="#231F2C"/>
</svg>
