<svg width="24" height="24" viewBox="0 0 24 24" fill="none" xmlns="http://www.w3.org/2000/svg">
<path fill-rule="evenodd" clip-rule="evenodd" d="M10.7564 2.77567C11.4412 2.07478 12.5588 2.07478 13.2436 2.77567L12.7071 3.29979L13.2436 2.77567L18.5365 8.19323C18.8259 8.48951 18.8204 8.96436 18.5241 9.25382C18.2278 9.54329 17.753 9.53776 17.4635 9.24148L12.75 4.41692V15.8822C12.75 16.2964 12.4142 16.6322 12 16.6322C11.5858 16.6322 11.25 16.2964 11.25 15.8822V4.41692L6.53647 9.24148C6.247 9.53776 5.77216 9.54329 5.47588 9.25382C5.1796 8.96436 5.17407 8.48951 5.46353 8.19323L10.7564 2.77567ZM12 18.2029C12.4142 18.2029 12.75 18.5387 12.75 18.9529V21C12.75 21.4142 12.4142 21.75 12 21.75C11.5858 21.75 11.25 21.4142 11.25 21V18.9529C11.25 18.5387 11.5858 18.2029 12 18.2029Z" fill="#231F2C"/>
</svg>
