<svg width="24" height="24" viewBox="0 0 24 24" fill="none" xmlns="http://www.w3.org/2000/svg">
<path fill-rule="evenodd" clip-rule="evenodd" d="M12 2.25C12.4142 2.25 12.75 2.58579 12.75 3V5.04711C12.75 5.46132 12.4142 5.79711 12 5.79711C11.5858 5.79711 11.25 5.46132 11.25 5.04711V3C11.25 2.58579 11.5858 2.25 12 2.25ZM12 7.36777C12.4142 7.36777 12.75 7.70356 12.75 8.11777V19.5831L17.4635 14.7585C17.753 14.4622 18.2278 14.4567 18.5241 14.7462C18.8204 15.0356 18.8259 15.5105 18.5365 15.8068L13.2436 21.2243C12.5588 21.9252 11.4412 21.9252 10.7564 21.2243L5.46353 15.8068C5.17407 15.5105 5.1796 15.0356 5.47588 14.7462C5.77216 14.4567 6.247 14.4622 6.53647 14.7585L11.25 19.5831V8.11777C11.25 7.70356 11.5858 7.36777 12 7.36777Z" fill="#231F2C"/>
</svg>
