<svg width="24" height="24" viewBox="0 0 24 24" fill="none" xmlns="http://www.w3.org/2000/svg">
<path fill-rule="evenodd" clip-rule="evenodd" d="M7.05546 5.05546C7.57118 4.53973 8.27066 4.25 9 4.25H19.9999C21.5187 4.25 22.7499 5.48122 22.7499 7L22.75 13C22.75 13.4142 22.4142 13.75 22 13.75C21.5858 13.75 21.25 13.4142 21.25 13L21.2499 7C21.2499 6.30964 20.6902 5.75 19.9999 5.75H9C8.66848 5.75 8.35054 5.8817 8.11612 6.11612L3.11612 11.1161C2.62796 11.6043 2.62796 12.3957 3.11612 12.8839L8.11612 17.8839C8.35054 18.1183 8.66848 18.25 9 18.25H19.9999C20.6902 18.25 21.2499 17.6904 21.2499 17V16C21.2499 15.5858 21.5857 15.25 21.9999 15.25C22.4141 15.25 22.7499 15.5858 22.7499 16V17C22.7499 18.5188 21.5187 19.75 19.9999 19.75H9C8.27066 19.75 7.57118 19.4603 7.05546 18.9445L2.05546 13.9445C0.981513 12.8706 0.981516 11.1294 2.05546 10.0555L7.05546 5.05546ZM10.4695 8.46967C10.7624 8.17678 11.2373 8.17678 11.5302 8.46967L13.9999 10.9393L16.4695 8.46967C16.7624 8.17678 17.2373 8.17678 17.5302 8.46967C17.8231 8.76256 17.8231 9.23744 17.5302 9.53033L15.0605 12L17.5302 14.4697C17.8231 14.7626 17.8231 15.2374 17.5302 15.5303C17.2373 15.8232 16.7624 15.8232 16.4695 15.5303L13.9999 13.0607L11.5302 15.5303C11.2373 15.8232 10.7624 15.8232 10.4695 15.5303C10.1767 15.2374 10.1767 14.7626 10.4695 14.4697L12.9392 12L10.4695 9.53033C10.1767 9.23744 10.1767 8.76256 10.4695 8.46967Z" fill="#231F2C"/>
</svg>
