<svg width="24" height="24" viewBox="0 0 24 24" fill="none" xmlns="http://www.w3.org/2000/svg">
<path fill-rule="evenodd" clip-rule="evenodd" d="M9.25 4.82122C6.81483 4.94777 4.88315 5.21854 3.65766 5.43166C3.13703 5.5222 2.75 5.98324 2.75 6.56155V17.4384C2.75 18.0168 3.13703 18.4778 3.65766 18.5683C4.88315 18.7815 6.81483 19.0522 9.25 19.1788V4.82122ZM10.75 4.76468C11.1558 4.75514 11.5728 4.75 12 4.75C15.7377 4.75 18.6855 5.14352 20.3423 5.43166C20.863 5.5222 21.25 5.98324 21.25 6.56155V12C21.25 12.4142 21.5858 12.75 22 12.75C22.4142 12.75 22.75 12.4142 22.75 12V6.56155C22.75 5.3044 21.887 4.17777 20.5993 3.95384C18.876 3.65414 15.8407 3.25 12 3.25C8.1593 3.25 5.124 3.65414 3.40067 3.95384C2.11297 4.17777 1.25 5.3044 1.25 6.56155V17.4384C1.25 18.6956 2.11297 19.8222 3.40067 20.0462C5.124 20.3459 8.1593 20.75 12 20.75C15.8407 20.75 18.876 20.3459 20.5993 20.0462C21.887 19.8222 22.75 18.6956 22.75 17.4384V15C22.75 14.5858 22.4142 14.25 22 14.25C21.5858 14.25 21.25 14.5858 21.25 15V17.4384C21.25 18.0168 20.863 18.4778 20.3423 18.5683C18.6855 18.8565 15.7377 19.25 12 19.25C11.5728 19.25 11.1558 19.2449 10.75 19.2353V4.76468ZM4.25 9C4.25 8.58579 4.58579 8.25 5 8.25H7C7.41421 8.25 7.75 8.58579 7.75 9C7.75 9.41421 7.41421 9.75 7 9.75H5C4.58579 9.75 4.25 9.41421 4.25 9ZM4.25 12C4.25 11.5858 4.58579 11.25 5 11.25H7C7.41421 11.25 7.75 11.5858 7.75 12C7.75 12.4142 7.41421 12.75 7 12.75H5C4.58579 12.75 4.25 12.4142 4.25 12ZM4.25 15C4.25 14.5858 4.58579 14.25 5 14.25H7C7.41421 14.25 7.75 14.5858 7.75 15C7.75 15.4142 7.41421 15.75 7 15.75H5C4.58579 15.75 4.25 15.4142 4.25 15Z" fill="#231F2C"/>
</svg>
