<svg width="24" height="24" viewBox="0 0 24 24" fill="none" xmlns="http://www.w3.org/2000/svg">
<path fill-rule="evenodd" clip-rule="evenodd" d="M4.25 5C4.25 4.58579 4.58579 4.25 5 4.25H15C15.4142 4.25 15.75 4.58579 15.75 5C15.75 5.41421 15.4142 5.75 15 5.75H5C4.58579 5.75 4.25 5.41421 4.25 5ZM18.4697 4.46967C18.7626 4.17678 19.2374 4.17678 19.5303 4.46967C19.8232 4.76256 19.8232 5.23744 19.5303 5.53033L13.0607 12L19.5303 18.4697C19.8232 18.7626 19.8232 19.2374 19.5303 19.5303C19.2374 19.8232 18.7626 19.8232 18.4697 19.5303L11.4697 12.5303C11.1768 12.2374 11.1768 11.7626 11.4697 11.4697L18.4697 4.46967ZM4.25 12C4.25 11.5858 4.58579 11.25 5 11.25H9C9.41421 11.25 9.75 11.5858 9.75 12C9.75 12.4142 9.41421 12.75 9 12.75H5C4.58579 12.75 4.25 12.4142 4.25 12ZM4.25 19C4.25 18.5858 4.58579 18.25 5 18.25H15C15.4142 18.25 15.75 18.5858 15.75 19C15.75 19.4142 15.4142 19.75 15 19.75H5C4.58579 19.75 4.25 19.4142 4.25 19Z" fill="#231F2C"/>
</svg>
