<svg width="24" height="24" viewBox="0 0 24 24" fill="none" xmlns="http://www.w3.org/2000/svg">
<path fill-rule="evenodd" clip-rule="evenodd" d="M2.82162 3.69726C3.21399 2.72269 4.17478 2.25 5.0919 2.25H7.9081C8.82522 2.25 9.78601 2.72269 10.1784 3.69726C10.4563 4.38758 10.75 5.37867 10.75 6.5C10.75 7.62133 10.4563 8.61242 10.1784 9.30274C9.78601 10.2773 8.82522 10.75 7.9081 10.75H5.0919C4.17478 10.75 3.21399 10.2773 2.82162 9.30274C2.54369 8.61242 2.25 7.62133 2.25 6.5C2.25 5.37867 2.54369 4.38758 2.82162 3.69726ZM5.0919 3.75C4.64797 3.75 4.32903 3.96948 4.21308 4.25747C3.97971 4.83711 3.75 5.63191 3.75 6.5C3.75 7.36809 3.97971 8.16289 4.21308 8.74253C4.32903 9.03052 4.64797 9.25 5.0919 9.25H7.9081C8.35203 9.25 8.67097 9.03052 8.78692 8.74253C9.02029 8.16289 9.25 7.36809 9.25 6.5C9.25 5.63191 9.02029 4.83711 8.78692 4.25747C8.67097 3.96948 8.35203 3.75 7.9081 3.75H5.0919ZM13.8216 3.69726C14.214 2.72269 15.1748 2.25 16.0919 2.25H18.9081C19.8252 2.25 20.786 2.72269 21.1784 3.69726C21.4563 4.38758 21.75 5.37867 21.75 6.5C21.75 7.62133 21.4563 8.61242 21.1784 9.30274C20.786 10.2773 19.8252 10.75 18.9081 10.75H16.0919C15.1748 10.75 14.214 10.2773 13.8216 9.30274C13.5437 8.61242 13.25 7.62133 13.25 6.5C13.25 5.37867 13.5437 4.38758 13.8216 3.69726ZM16.0919 3.75C15.648 3.75 15.329 3.96948 15.2131 4.25747C14.9797 4.83711 14.75 5.63191 14.75 6.5C14.75 7.36809 14.9797 8.16289 15.2131 8.74253C15.329 9.03052 15.648 9.25 16.0919 9.25H18.9081C19.352 9.25 19.671 9.03052 19.7869 8.74253C20.0203 8.16289 20.25 7.36809 20.25 6.5C20.25 5.63191 20.0203 4.83711 19.7869 4.25747C19.671 3.96948 19.352 3.75 18.9081 3.75H16.0919ZM2.82162 14.6973C3.21399 13.7227 4.17478 13.25 5.0919 13.25H7.9081C8.82522 13.25 9.78601 13.7227 10.1784 14.6973C10.4563 15.3876 10.75 16.3787 10.75 17.5C10.75 18.6213 10.4563 19.6124 10.1784 20.3027C9.78601 21.2773 8.82522 21.75 7.9081 21.75H5.0919C4.17478 21.75 3.21399 21.2773 2.82162 20.3027C2.54369 19.6124 2.25 18.6213 2.25 17.5C2.25 16.3787 2.54369 15.3876 2.82162 14.6973ZM5.0919 14.75C4.64797 14.75 4.32903 14.9695 4.21308 15.2575C3.97971 15.8371 3.75 16.6319 3.75 17.5C3.75 18.3681 3.97971 19.1629 4.21308 19.7425C4.32903 20.0305 4.64797 20.25 5.0919 20.25H7.9081C8.35203 20.25 8.67097 20.0305 8.78692 19.7425C9.02029 19.1629 9.25 18.3681 9.25 17.5C9.25 16.6319 9.02029 15.8371 8.78692 15.2575C8.67097 14.9695 8.35203 14.75 7.9081 14.75H5.0919ZM13.8216 14.6973C14.214 13.7227 15.1748 13.25 16.0919 13.25H18.9081C19.8252 13.25 20.786 13.7227 21.1784 14.6973C21.4095 15.2714 21.65 16.0497 21.7257 16.9362C21.761 17.3489 21.455 17.712 21.0422 17.7473C20.6295 17.7825 20.2664 17.4765 20.2312 17.0638C20.1716 16.3659 19.9797 15.7364 19.7869 15.2575C19.671 14.9695 19.352 14.75 18.9081 14.75H16.0919C15.648 14.75 15.329 14.9695 15.2131 15.2575C14.9797 15.8371 14.75 16.6319 14.75 17.5C14.75 18.3681 14.9797 19.1629 15.2131 19.7425C15.329 20.0305 15.648 20.25 16.0919 20.25H18.9081C19.352 20.25 19.671 20.0305 19.7869 19.7425C19.9416 19.3583 20.3785 19.1722 20.7628 19.3269C21.147 19.4816 21.3331 19.9185 21.1784 20.3027C20.786 21.2773 19.8252 21.75 18.9081 21.75H16.0919C15.1748 21.75 14.214 21.2773 13.8216 20.3027C13.5437 19.6124 13.25 18.6213 13.25 17.5C13.25 16.3787 13.5437 15.3876 13.8216 14.6973Z" fill="#231F2C"/>
</svg>
