<svg width="24" height="24" viewBox="0 0 24 24" fill="none" xmlns="http://www.w3.org/2000/svg">
<path fill-rule="evenodd" clip-rule="evenodd" d="M2.25 5C2.25 3.48122 3.48122 2.25 5 2.25H9C9.41421 2.25 9.75 2.58579 9.75 3C9.75 3.41421 9.41421 3.75 9 3.75H5C4.30964 3.75 3.75 4.30964 3.75 5V9C3.75 9.41421 3.41421 9.75 3 9.75C2.58579 9.75 2.25 9.41421 2.25 9V5ZM14.25 3C14.25 2.58579 14.5858 2.25 15 2.25H19C20.5188 2.25 21.75 3.48122 21.75 5V9C21.75 9.41421 21.4142 9.75 21 9.75C20.5858 9.75 20.25 9.41421 20.25 9V5C20.25 4.30964 19.6904 3.75 19 3.75H15C14.5858 3.75 14.25 3.41421 14.25 3ZM3 14.25C3.41421 14.25 3.75 14.5858 3.75 15V19C3.75 19.6904 4.30964 20.25 5 20.25H9C9.41421 20.25 9.75 20.5858 9.75 21C9.75 21.4142 9.41421 21.75 9 21.75H5C3.48122 21.75 2.25 20.5188 2.25 19V15C2.25 14.5858 2.58579 14.25 3 14.25ZM21 14.25C21.4142 14.25 21.75 14.5858 21.75 15V16C21.75 16.4142 21.4142 16.75 21 16.75C20.5858 16.75 20.25 16.4142 20.25 16V15C20.25 14.5858 20.5858 14.25 21 14.25ZM21 18.25C21.4142 18.25 21.75 18.5858 21.75 19C21.75 20.5188 20.5188 21.75 19 21.75H15C14.5858 21.75 14.25 21.4142 14.25 21C14.25 20.5858 14.5858 20.25 15 20.25H19C19.6904 20.25 20.25 19.6904 20.25 19C20.25 18.5858 20.5858 18.25 21 18.25Z" fill="#231F2C"/>
</svg>
