<svg width="24" height="24" viewBox="0 0 24 24" fill="none" xmlns="http://www.w3.org/2000/svg">
<path fill-rule="evenodd" clip-rule="evenodd" d="M6 11.75C5.86193 11.75 5.75 11.8619 5.75 12C5.75 12.1381 5.86193 12.25 6 12.25C6.13807 12.25 6.25 12.1381 6.25 12C6.25 11.8619 6.13807 11.75 6 11.75ZM4.25 12C4.25 11.0335 5.0335 10.25 6 10.25C6.9665 10.25 7.75 11.0335 7.75 12C7.75 12.9665 6.9665 13.75 6 13.75C5.0335 13.75 4.25 12.9665 4.25 12ZM12 11.75C11.8619 11.75 11.75 11.8619 11.75 12C11.75 12.1381 11.8619 12.25 12 12.25C12.1381 12.25 12.25 12.1381 12.25 12C12.25 11.8619 12.1381 11.75 12 11.75ZM10.25 12C10.25 11.0335 11.0335 10.25 12 10.25C12.9665 10.25 13.75 11.0335 13.75 12C13.75 12.9665 12.9665 13.75 12 13.75C11.0335 13.75 10.25 12.9665 10.25 12ZM18 11.75C17.8619 11.75 17.75 11.8619 17.75 12C17.75 12.1381 17.8619 12.25 18 12.25C18.1381 12.25 18.25 12.1381 18.25 12C18.25 11.8619 18.1381 11.75 18 11.75ZM16.25 12C16.25 11.0335 17.0335 10.25 18 10.25C18.9665 10.25 19.75 11.0335 19.75 12C19.75 12.9665 18.9665 13.75 18 13.75C17.0335 13.75 16.25 12.9665 16.25 12Z" fill="#231F2C"/>
</svg>
