<svg width="24" height="24" viewBox="0 0 24 24" fill="none" xmlns="http://www.w3.org/2000/svg">
<path fill-rule="evenodd" clip-rule="evenodd" d="M9.25407 5.47589C9.54353 5.77217 9.538 6.24701 9.24172 6.53647L4.41717 11.25H15.8825C16.2967 11.25 16.6325 11.5858 16.6325 12C16.6325 12.4142 16.2967 12.75 15.8825 12.75H4.41717L9.24172 17.4635C9.538 17.753 9.54353 18.2278 9.25407 18.5241C8.9646 18.8204 8.48976 18.8259 8.19348 18.5365L2.77592 13.2436C2.07502 12.5588 2.07502 11.4412 2.77592 10.7564L8.19348 5.46354C8.48976 5.17408 8.9646 5.1796 9.25407 5.47589ZM18.2031 12C18.2031 11.5858 18.5389 11.25 18.9531 11.25H21.0002C21.4145 11.25 21.7502 11.5858 21.7502 12C21.7502 12.4142 21.4145 12.75 21.0002 12.75H18.9531C18.5389 12.75 18.2031 12.4142 18.2031 12Z" fill="#231F2C"/>
</svg>
