<svg width="24" height="24" viewBox="0 0 24 24" fill="none" xmlns="http://www.w3.org/2000/svg">
<path fill-rule="evenodd" clip-rule="evenodd" d="M10.5452 2.13991C11.1761 0.953365 12.8237 0.953363 13.4546 2.13991C14.4677 4.0452 16.2436 7.63562 17.574 11.6902C17.6943 12.0568 17.8091 12.4213 17.9185 12.7827C18.0385 13.1791 17.8144 13.5978 17.418 13.7178C17.0216 13.8379 16.6029 13.6138 16.4828 13.2173C16.3766 12.8666 16.2654 12.513 16.1488 12.1579C14.8556 8.21686 13.1227 4.71062 12.1302 2.84415C12.1063 2.79909 12.0808 2.77805 12.0629 2.76739C12.0433 2.75571 12.0217 2.75 11.9999 2.75C11.9781 2.75 11.9565 2.75571 11.9369 2.76739C11.919 2.77805 11.8935 2.79909 11.8696 2.84415C10.8771 4.71062 9.14421 8.21686 7.85098 12.1579C6.71219 15.6283 6.07944 18.9329 5.75373 21.0448C5.74342 21.1116 5.75601 21.1496 5.76629 21.1701C5.77828 21.194 5.79824 21.2154 5.82528 21.2305C5.85243 21.2456 5.8823 21.2519 5.91076 21.2495C5.93551 21.2474 5.97463 21.2377 6.02467 21.1956L10.2776 17.6209C11.2759 16.7818 12.7239 16.7818 13.7222 17.6209L17.9751 21.1956C18.0252 21.2377 18.0643 21.2474 18.089 21.2495C18.1175 21.2519 18.1474 21.2456 18.1745 21.2305C18.2016 21.2154 18.2215 21.194 18.2335 21.1701C18.2438 21.1496 18.2564 21.1116 18.2461 21.0448C18.0509 19.779 17.7449 18.0819 17.2849 16.176C17.1878 15.7733 17.4354 15.3681 17.838 15.2709C18.2407 15.1738 18.6459 15.4214 18.7431 15.824C19.2148 17.7787 19.5283 19.5179 19.7285 20.8161C19.9695 22.3782 18.1985 23.3429 17.01 22.3439L12.757 18.7691C12.3167 18.399 11.6831 18.399 11.2428 18.7691L6.98982 22.3439C5.80127 23.3429 4.03033 22.3782 4.27125 20.8161C4.60456 18.6551 5.25297 15.2642 6.42575 11.6902C7.75625 7.63562 9.53207 4.0452 10.5452 2.13991Z" fill="#231F2C"/>
</svg>
