<svg width="24" height="24" viewBox="0 0 24 24" fill="none" xmlns="http://www.w3.org/2000/svg">
<path fill-rule="evenodd" clip-rule="evenodd" d="M12 2.75C9.09542 2.75 6.75005 5.08622 6.75005 7.95667C6.75005 10.1895 7.67175 12.4014 8.81792 14.2655C9.95934 16.1218 11.2814 17.565 11.9828 18.2406C11.9887 18.2463 11.9927 18.2482 11.9944 18.2489C11.9955 18.2493 11.9966 18.2496 11.9976 18.2498C11.9985 18.2499 11.9993 18.25 12 18.25C12.0018 18.25 12.0036 18.2497 12.0057 18.2489C12.0074 18.2482 12.0114 18.2463 12.0173 18.2406C12.5577 17.7201 13.4733 16.7373 14.3902 15.4562L15 15.8927L14.3902 15.4562C14.4566 15.3635 14.523 15.2692 14.5892 15.1734C14.8248 14.8327 15.2919 14.7475 15.6326 14.9831C15.9733 15.2187 16.0585 15.6859 15.8229 16.0266C15.752 16.1291 15.6809 16.2301 15.6099 16.3293C14.6341 17.6926 13.6569 18.744 13.058 19.3209C12.4641 19.893 11.536 19.893 10.9421 19.3209L11.4625 18.7808L10.9421 19.3209C10.1709 18.5781 8.76178 17.0379 7.54015 15.0512C6.32326 13.0721 5.25005 10.5813 5.25005 7.95667C5.25005 4.24756 8.27726 1.25 12 1.25C15.7228 1.25 18.75 4.24756 18.75 7.95667C18.75 9.87043 18.1793 11.7096 17.4052 13.3242C17.2262 13.6977 16.7782 13.8554 16.4047 13.6763C16.0312 13.4972 15.8736 13.0493 16.0526 12.6758C16.7644 11.1912 17.25 9.57756 17.25 7.95667C17.25 5.08622 14.9047 2.75 12 2.75ZM12 5.75C10.7574 5.75 9.75005 6.75736 9.75005 8C9.75005 9.24264 10.7574 10.25 12 10.25C13.2427 10.25 14.25 9.24264 14.25 8C14.25 6.75736 13.2427 5.75 12 5.75ZM8.25005 8C8.25005 5.92893 9.92898 4.25 12 4.25C14.0711 4.25 15.75 5.92893 15.75 8C15.75 10.0711 14.0711 11.75 12 11.75C9.92898 11.75 8.25005 10.0711 8.25005 8ZM17.5503 17.3998C17.8818 17.1514 18.3519 17.2188 18.6003 17.5503L20.4323 19.9956C20.4406 20.0066 20.4485 20.0178 20.4561 20.0293C21.2314 21.1923 20.3978 22.75 19 22.75H5.00001C3.6023 22.75 2.76861 21.1922 3.54392 20.0293C3.55155 20.0178 3.55949 20.0066 3.56774 19.9956L5.39982 17.5503C5.64818 17.2188 6.11825 17.1514 6.44974 17.3998C6.78124 17.6481 6.84863 18.1182 6.60026 18.4497L4.78456 20.8732C4.68689 21.0378 4.80504 21.25 5.00001 21.25H19C19.195 21.25 19.3132 21.0378 19.2155 20.8732L17.3998 18.4497C17.1515 18.1182 17.2188 17.6481 17.5503 17.3998Z" fill="#231F2C"/>
</svg>
