<svg width="24" height="24" viewBox="0 0 24 24" fill="none" xmlns="http://www.w3.org/2000/svg">
<path fill-rule="evenodd" clip-rule="evenodd" d="M12 2.75C8.54901 2.75 5.75 5.55094 5.75 9.00785C5.75 11.6709 6.83917 14.2987 8.1825 16.5017C9.52122 18.6972 11.0712 20.4035 11.8954 21.2041C11.9309 21.2386 11.9679 21.25 12 21.25C12.0321 21.25 12.0691 21.2386 12.1046 21.2041C12.7868 20.5415 13.9718 19.2527 15.1218 17.5758C15.3561 17.2342 15.8229 17.1472 16.1645 17.3815C16.5061 17.6157 16.5931 18.0826 16.3588 18.4242C15.1453 20.1938 13.8934 21.5578 13.1498 22.2801C12.5047 22.9066 11.4953 22.9066 10.8502 22.2801C9.95643 21.4118 8.31999 19.6084 6.9018 17.2826C5.48822 14.9643 4.25 12.0594 4.25 9.00785C4.25 4.7241 7.719 1.25 12 1.25C16.281 1.25 19.75 4.7241 19.75 9.00785C19.75 11.4613 18.9495 13.8169 17.9074 15.843C17.718 16.2114 17.2658 16.3564 16.8974 16.167C16.5291 15.9775 16.3841 15.5253 16.5735 15.157C17.5499 13.2585 18.25 11.1429 18.25 9.00785C18.25 5.55094 15.451 2.75 12 2.75ZM9.25 8C9.25 6.48122 10.4812 5.25 12 5.25H12.1459C13.5932 5.25 14.75 6.44241 14.75 7.87148C14.75 8.83587 14.2067 9.73517 13.3354 10.1708C12.9766 10.3502 12.75 10.7169 12.75 11.118V11.5C12.75 11.9142 12.4142 12.25 12 12.25C11.5858 12.25 11.25 11.9142 11.25 11.5V11.118C11.25 10.1488 11.7976 9.26266 12.6646 8.82918C13.019 8.65196 13.25 8.2775 13.25 7.87148C13.25 7.25258 12.7466 6.75 12.1459 6.75H12C11.3096 6.75 10.75 7.30964 10.75 8C10.75 8.41421 10.4142 8.75 10 8.75C9.58579 8.75 9.25 8.41421 9.25 8ZM12 13.25C12.4142 13.25 12.75 13.5858 12.75 14V14.5C12.75 14.9142 12.4142 15.25 12 15.25C11.5858 15.25 11.25 14.9142 11.25 14.5V14C11.25 13.5858 11.5858 13.25 12 13.25Z" fill="#231F2C"/>
</svg>
