<svg width="24" height="24" viewBox="0 0 24 24" fill="none" xmlns="http://www.w3.org/2000/svg">
<path fill-rule="evenodd" clip-rule="evenodd" d="M12 2.75C8.54901 2.75 5.75 5.55094 5.75 9.00785C5.75 11.6709 6.83917 14.2987 8.1825 16.5017C9.52122 18.6972 11.0712 20.4035 11.8954 21.2041C11.9309 21.2386 11.9679 21.25 12 21.25C12.0321 21.25 12.0691 21.2386 12.1046 21.2041C12.7868 20.5415 13.9718 19.2527 15.1218 17.5758C15.3561 17.2342 15.8229 17.1472 16.1645 17.3815C16.5061 17.6157 16.5931 18.0826 16.3588 18.4242C15.1453 20.1938 13.8934 21.5578 13.1498 22.2801C12.5047 22.9066 11.4953 22.9066 10.8502 22.2801C9.95643 21.4118 8.31999 19.6084 6.9018 17.2826C5.48822 14.9643 4.25 12.0594 4.25 9.00785C4.25 4.7241 7.719 1.25 12 1.25C16.281 1.25 19.75 4.7241 19.75 9.00785C19.75 11.4613 18.9495 13.8169 17.9074 15.843C17.718 16.2114 17.2658 16.3564 16.8974 16.167C16.5291 15.9775 16.3841 15.5253 16.5735 15.157C17.5499 13.2585 18.25 11.1429 18.25 9.00785C18.25 5.55094 15.451 2.75 12 2.75ZM12 5.75C10.2051 5.75 8.75 7.20507 8.75 9C8.75 10.7949 10.2051 12.25 12 12.25C13.7949 12.25 15.25 10.7949 15.25 9C15.25 7.20507 13.7949 5.75 12 5.75ZM7.25 9C7.25 6.37665 9.37665 4.25 12 4.25C14.6234 4.25 16.75 6.37665 16.75 9C16.75 11.6234 14.6234 13.75 12 13.75C9.37665 13.75 7.25 11.6234 7.25 9Z" fill="#231F2C"/>
</svg>
