<svg width="24" height="24" viewBox="0 0 24 24" fill="none" xmlns="http://www.w3.org/2000/svg">
<path fill-rule="evenodd" clip-rule="evenodd" d="M12.75 2C12.75 1.58579 12.4142 1.25 12 1.25C11.5858 1.25 11.25 1.58579 11.25 2V3.28169C7.01581 3.64113 3.64113 7.01581 3.28169 11.25H2C1.58579 11.25 1.25 11.5858 1.25 12C1.25 12.4142 1.58579 12.75 2 12.75H3.28169C3.64113 16.9842 7.01581 20.3589 11.25 20.7183V22C11.25 22.4142 11.5858 22.75 12 22.75C12.4142 22.75 12.75 22.4142 12.75 22V20.7183C14.674 20.5548 16.4215 19.7683 17.7879 18.5623C18.0985 18.2882 18.1281 17.8143 17.854 17.5037C17.5799 17.1931 17.1059 17.1636 16.7953 17.4377C15.5168 18.5661 13.8392 19.25 12 19.25C7.99594 19.25 4.75 16.0041 4.75 12C4.75 7.99594 7.99594 4.75 12 4.75C16.0041 4.75 19.25 7.99594 19.25 12C19.25 13.2757 18.9212 14.4723 18.3442 15.5121C18.1432 15.8743 18.2739 16.3308 18.6361 16.5318C18.9983 16.7328 19.4548 16.6021 19.6558 16.2399C20.2385 15.1897 20.6114 14.0071 20.7183 12.75H22C22.4142 12.75 22.75 12.4142 22.75 12C22.75 11.5858 22.4142 11.25 22 11.25H20.7183C20.3589 7.01581 16.9842 3.64113 12.75 3.28169V2ZM12 15C13.6569 15 15 13.6569 15 12C15 10.3431 13.6569 9 12 9C10.3431 9 9 10.3431 9 12C9 13.6569 10.3431 15 12 15Z" fill="#231F2C"/>
</svg>
