<svg width="24" height="24" viewBox="0 0 24 24" fill="none" xmlns="http://www.w3.org/2000/svg">
<path fill-rule="evenodd" clip-rule="evenodd" d="M19.75 20V7.00591C19.7501 6.99307 19.7499 6.98023 19.7493 6.96742C19.7409 6.77158 19.6575 6.59519 19.527 6.46632L14.5338 1.47312C14.3978 1.33537 14.2087 1.25 13.9998 1.25H7C5.48122 1.25 4.25 2.48122 4.25 4V20C4.25 21.5188 5.48122 22.75 7 22.75H17C18.5188 22.75 19.75 21.5188 19.75 20ZM14.75 3.81068L17.1893 6.25H14.75V3.81068ZM12.75 11C12.75 10.5858 12.4142 10.25 12 10.25C11.5858 10.25 11.25 10.5858 11.25 11V15.1893L10.5303 14.4697C10.2374 14.1768 9.76256 14.1768 9.46967 14.4697C9.17678 14.7626 9.17678 15.2374 9.46967 15.5303L11.4697 17.5303C11.7626 17.8232 12.2374 17.8232 12.5303 17.5303L14.5303 15.5303C14.8232 15.2374 14.8232 14.7626 14.5303 14.4697C14.2374 14.1768 13.7626 14.1768 13.4697 14.4697L12.75 15.1893V11Z" fill="#231F2C"/>
</svg>
