<svg width="24" height="24" viewBox="0 0 24 24" fill="none" xmlns="http://www.w3.org/2000/svg">
<path d="M1.43297 15.0708L1.43904 15.1077C1.56729 16.1734 1.74144 17.0831 1.89837 17.7744C2.17391 18.9881 3.26502 19.75 4.44152 19.75H12.1066C12.4862 19.75 12.7322 19.3398 12.6013 18.9836C12.3741 18.3653 12.25 17.6971 12.25 17C12.25 13.8244 14.8244 11.25 18 11.25C19.6376 11.25 21.1154 11.9346 22.1626 13.0332C22.3625 13.243 22.7517 13.1176 22.7497 12.8279C22.747 12.4535 22.7356 12.0791 22.7149 11.7053C22.6235 10.0517 22.3689 8.80359 22.1333 7.96175C21.8228 6.85176 20.7953 6.25 19.7639 6.25H11.5C11.1066 6.25 10.7361 6.06476 10.5 5.75L10.2 5.35C9.68065 4.65753 8.86558 4.25 8 4.25H4.44152C3.26502 4.25 2.17391 5.01194 1.89837 6.22563C1.60365 7.52382 1.25 9.93434 1.25 12C1.25 13.0227 1.2964 13.7953 1.34381 14.3178C1.36752 14.579 1.39147 14.7776 1.40998 14.9137C1.41924 14.9817 1.42714 15.034 1.43297 15.0708Z" fill="#231F2C"/>
<path fill-rule="evenodd" clip-rule="evenodd" d="M18 12.25C15.3766 12.25 13.25 14.3766 13.25 17C13.25 19.6234 15.3766 21.75 18 21.75C20.6234 21.75 22.75 19.6234 22.75 17C22.75 14.3766 20.6234 12.25 18 12.25ZM14.75 17C14.75 15.2051 16.2051 13.75 18 13.75C18.6257 13.75 19.2102 13.9268 19.7061 14.2333L15.2333 18.7061C14.9268 18.2102 14.75 17.6257 14.75 17ZM16.2939 19.7667L20.7667 15.2939C21.0732 15.7898 21.25 16.3743 21.25 17C21.25 18.7949 19.7949 20.25 18 20.25C17.3743 20.25 16.7898 20.0732 16.2939 19.7667Z" fill="#231F2C"/>
</svg>
