<svg width="24" height="24" viewBox="0 0 24 24" fill="none" xmlns="http://www.w3.org/2000/svg">
<path fill-rule="evenodd" clip-rule="evenodd" d="M16 3.25H15.6465C15.32 2.09575 14.2588 1.25 13 1.25H11C9.74122 1.25 8.67998 2.09575 8.35352 3.25H8C5.92893 3.25 4.25 4.92893 4.25 7V19.1459C4.25 20.556 5.08435 21.941 6.61574 22.2654C7.79907 22.5161 9.55776 22.75 12 22.75C14.4422 22.75 16.2009 22.5161 17.3843 22.2654C18.9157 21.941 19.75 20.556 19.75 19.1459V7C19.75 4.92893 18.0711 3.25 16 3.25ZM13 2.75C13.6904 2.75 14.25 3.30964 14.25 4V5C14.25 5.13807 14.1381 5.25 14 5.25H10C9.86193 5.25 9.75 5.13807 9.75 5V4C9.75 3.30964 10.3096 2.75 11 2.75H13ZM9 10.25C8.58579 10.25 8.25 10.5858 8.25 11C8.25 11.4142 8.58579 11.75 9 11.75H15C15.4142 11.75 15.75 11.4142 15.75 11C15.75 10.5858 15.4142 10.25 15 10.25H9ZM9 14.25C8.58579 14.25 8.25 14.5858 8.25 15C8.25 15.4142 8.58579 15.75 9 15.75H13C13.4142 15.75 13.75 15.4142 13.75 15C13.75 14.5858 13.4142 14.25 13 14.25H9Z" fill="#231F2C"/>
</svg>
