<svg width="24" height="24" viewBox="0 0 24 24" fill="none" xmlns="http://www.w3.org/2000/svg">
<path fill-rule="evenodd" clip-rule="evenodd" d="M12 7.75C9.65279 7.75 7.75 9.65279 7.75 12C7.75 14.3472 9.65279 16.25 12 16.25C14.3472 16.25 16.25 14.3472 16.25 12C16.25 9.65279 14.3472 7.75 12 7.75ZM12.8394 10.7537L12.2718 8.90205C12.1892 8.63259 11.8108 8.63259 11.7282 8.90205L11.1606 10.7537H9.28503C9.01292 10.7537 8.8961 11.1019 9.11234 11.2684L10.6417 12.4461L10.0651 14.3272C9.98329 14.594 10.2895 14.8092 10.5096 14.6398L12 13.492L13.4904 14.6398C13.7105 14.8092 14.0167 14.594 13.9349 14.3272L13.3583 12.4461L14.8877 11.2684C15.1039 11.1019 14.9871 10.7537 14.715 10.7537H12.8394Z" fill="#231F2C"/>
<path fill-rule="evenodd" clip-rule="evenodd" d="M22.4042 10.5431C19.8942 5.76394 16.0061 3.25 12 3.25C7.99391 3.25 4.1058 5.76394 1.59582 10.5431C1.13473 11.4211 1.13473 12.579 1.59582 13.4569C4.11803 18.2594 8.03199 20.7744 12.058 20.7498C16.6285 20.7219 20.4848 17.1115 22.4042 13.4569C22.8653 12.579 22.8653 11.421 22.4042 10.5431ZM6.25 12C6.25 8.82436 8.82436 6.25 12 6.25C15.1756 6.25 17.75 8.82436 17.75 12C17.75 15.1756 15.1756 17.75 12 17.75C8.82436 17.75 6.25 15.1756 6.25 12Z" fill="#231F2C"/>
</svg>
