<svg width="24" height="24" viewBox="0 0 24 24" fill="none" xmlns="http://www.w3.org/2000/svg">
<path d="M1.43297 15.0708L1.43904 15.1077C1.56729 16.1734 1.74144 17.0831 1.89837 17.7744C2.17391 18.9881 3.26502 19.75 4.44152 19.75H11.7149C12.0251 19.75 12.2623 19.4694 12.2489 19.1595C12.2323 18.7734 12.25 18.3836 12.25 18V16.9223C12.25 16.1137 12.5347 14.914 13.4596 14.1969L13.75 13.9717V13.6042C13.75 11.2668 15.5867 9.25 18 9.25C20.4133 9.25 22.25 11.2668 22.25 13.6042V13.6061C22.25 13.7921 22.3154 13.9289 22.4114 14.0482C22.5172 14.1797 22.7259 14.0908 22.7324 13.9222C22.7438 13.6268 22.75 13.3194 22.75 13C22.75 10.6908 22.4268 9.0108 22.1333 7.96175C21.8228 6.85176 20.7953 6.25 19.7639 6.25H11.5C11.1066 6.25 10.7361 6.06476 10.5 5.75L10.2 5.35C9.68065 4.65753 8.86558 4.25 8 4.25H4.44152C3.26502 4.25 2.17391 5.01194 1.89837 6.22563C1.60365 7.52382 1.25 9.93434 1.25 12C1.25 13.0227 1.2964 13.7953 1.34381 14.3178C1.36752 14.579 1.39147 14.7776 1.40998 14.9137C1.41924 14.9817 1.42714 15.034 1.43297 15.0708Z" fill="#231F2C"/>
<path d="M18.75 17.5C18.75 17.0858 18.4142 16.75 18 16.75C17.5858 16.75 17.25 17.0858 17.25 17.5V18.3333C17.25 18.7475 17.5858 19.0833 18 19.0833C18.4142 19.0833 18.75 18.7475 18.75 18.3333V17.5Z" fill="#231F2C"/>
<path fill-rule="evenodd" clip-rule="evenodd" d="M21.25 13.6042V14.6544C21.2837 14.665 21.3166 14.6757 21.3487 14.6865C22.3979 15.0376 22.75 16.0889 22.75 16.9223V19.0777C22.75 19.9111 22.3979 20.9624 21.3487 21.3135C20.6477 21.5481 19.5851 21.75 18 21.75C16.4149 21.75 15.3523 21.5481 14.6513 21.3135C13.6021 20.9624 13.25 19.9111 13.25 19.0777V16.9223C13.25 16.0889 13.6021 15.0376 14.6513 14.6865C14.6834 14.6757 14.7163 14.665 14.75 14.6544V13.6042C14.75 11.7809 16.1765 10.25 18 10.25C19.8235 10.25 21.25 11.7809 21.25 13.6042ZM16.25 13.6042C16.25 12.551 17.0621 11.75 18 11.75C18.9379 11.75 19.75 12.551 19.75 13.6042V14.3464C19.2528 14.2865 18.6736 14.25 18 14.25C17.3264 14.25 16.7472 14.2865 16.25 14.3464V13.6042ZM15.1273 16.1089C15.6426 15.9365 16.5388 15.75 18 15.75C19.4612 15.75 20.3574 15.9365 20.8727 16.1089C21.0387 16.1645 21.25 16.3916 21.25 16.9223V19.0777C21.25 19.6084 21.0387 19.8355 20.8727 19.8911C20.3574 20.0635 19.4612 20.25 18 20.25C16.5388 20.25 15.6426 20.0635 15.1273 19.8911C14.9613 19.8355 14.75 19.6084 14.75 19.0777V16.9223C14.75 16.3916 14.9613 16.1645 15.1273 16.1089Z" fill="#231F2C"/>
</svg>
