<svg width="24" height="24" viewBox="0 0 24 24" fill="none" xmlns="http://www.w3.org/2000/svg">
<path fill-rule="evenodd" clip-rule="evenodd" d="M18.7977 5.00076C14.2799 4.49877 9.72028 4.49877 5.20242 5.00076L4.03521 5.13045C3.04032 5.24099 2.23992 5.99892 2.07535 6.98632C1.52208 10.3059 1.52208 13.6942 2.07535 17.0138C2.23992 18.0012 3.04032 18.7592 4.03521 18.8697L5.20242 18.9994C9.72028 19.5014 14.2799 19.5014 18.7977 18.9994L19.9649 18.8697C20.9598 18.7592 21.7602 18.0012 21.9248 17.0138C22.4781 13.6942 22.4781 10.3059 21.9248 6.98631C21.7602 5.99892 20.9598 5.24099 19.9649 5.13045L18.7977 5.00076ZM16.5001 7.25012C15.8098 7.25012 15.2501 7.80977 15.2501 8.50012C15.2501 9.19048 15.8098 9.75012 16.5001 9.75012C17.1905 9.75012 17.7501 9.19048 17.7501 8.50012C17.7501 7.80977 17.1905 7.25012 16.5001 7.25012ZM8.5304 8.46979C8.23751 8.1769 7.76264 8.1769 7.46974 8.46979L3.4787 12.4608C3.18581 12.7537 3.18581 13.2286 3.4787 13.5215C3.7716 13.8144 4.24647 13.8144 4.53936 13.5215L8.00007 10.0608L13.4697 15.5305C13.7626 15.8233 14.2375 15.8233 14.5304 15.5305L17.0001 13.0608L19.4697 15.5305C19.7626 15.8233 20.2375 15.8233 20.5304 15.5305C20.8233 15.2376 20.8233 14.7627 20.5304 14.4698L17.5304 11.4698C17.2375 11.1769 16.7626 11.1769 16.4697 11.4698L14.0001 13.9395L8.5304 8.46979Z" fill="#231F2C"/>
</svg>
