<svg width="24" height="24" viewBox="0 0 24 24" fill="none" xmlns="http://www.w3.org/2000/svg">
<path fill-rule="evenodd" clip-rule="evenodd" d="M19.75 20V7.00591C19.7501 6.99307 19.7499 6.98023 19.7493 6.96742C19.7409 6.77158 19.6575 6.59519 19.527 6.46632L14.5338 1.47312C14.3978 1.33537 14.2087 1.25 13.9998 1.25H7C5.48122 1.25 4.25 2.48122 4.25 4V20C4.25 21.5188 5.48122 22.75 7 22.75H17C18.5188 22.75 19.75 21.5188 19.75 20ZM14.75 3.81068L17.1893 6.25H14.75V3.81068ZM12.5303 10.4697C12.2374 10.1768 11.7626 10.1768 11.4697 10.4697L9.46967 12.4697C9.17678 12.7626 9.17678 13.2374 9.46967 13.5303C9.76256 13.8232 10.2374 13.8232 10.5303 13.5303L11.25 12.8107V17C11.25 17.4142 11.5858 17.75 12 17.75C12.4142 17.75 12.75 17.4142 12.75 17V12.8107L13.4697 13.5303C13.7626 13.8232 14.2374 13.8232 14.5303 13.5303C14.8232 13.2374 14.8232 12.7626 14.5303 12.4697L12.5303 10.4697Z" fill="#231F2C"/>
</svg>
