<svg width="24" height="24" viewBox="0 0 24 24" fill="none" xmlns="http://www.w3.org/2000/svg">
<path fill-rule="evenodd" clip-rule="evenodd" d="M9.25 2.25H4C3.0335 2.25 2.25 3.0335 2.25 4V20C2.25 20.9639 3.02823 21.75 3.99733 21.75H13C13.2784 21.75 13.5339 21.5958 13.6636 21.3494C13.7933 21.1031 13.7759 20.8052 13.6184 20.5756C12.154 18.4419 11.3418 16.5852 11.1085 14.9577C10.8788 13.3553 11.2045 11.9425 12.0872 10.6433C13.5174 8.53835 16.9528 6.88406 20.6062 9.13828C20.8375 9.28104 21.1281 9.28741 21.3655 9.15493C21.6029 9.02245 21.75 8.77187 21.75 8.5V3.99851C21.75 3.03055 20.965 2.25 20 2.25H14.75V6C14.75 6.25994 14.6154 6.50134 14.3943 6.63799C14.1732 6.77465 13.8971 6.78707 13.6646 6.67082L12 5.83853L10.3354 6.67082C10.1029 6.78707 9.82681 6.77465 9.6057 6.63799C9.38459 6.50134 9.25 6.25994 9.25 6V2.25ZM5.75 13.75C5.33579 13.75 5 14.0858 5 14.5V17.5C5 17.9142 5.33579 18.25 5.75 18.25H8.75C9.16421 18.25 9.5 17.9142 9.5 17.5V14.5C9.5 14.0858 9.16421 13.75 8.75 13.75H5.75Z" fill="#231F2C"/>
<path d="M13.25 2.25H10.75V4.78648L11.6646 4.32918C11.8757 4.22361 12.1243 4.22361 12.3354 4.32918L13.25 4.78648V2.25Z" fill="#231F2C"/>
<path fill-rule="evenodd" clip-rule="evenodd" d="M12.25 13.8543C12.25 11.2854 14.4031 9.25 17 9.25C19.5969 9.25 21.75 11.2854 21.75 13.8543C21.75 16.7555 19.7524 19.6466 17.8706 21.406C17.38 21.8647 16.62 21.8647 16.1294 21.406C15.6033 20.9141 14.6482 19.9008 13.8191 18.592C12.9953 17.2917 12.25 15.6276 12.25 13.8543ZM17 12.25C16.0335 12.25 15.25 13.0335 15.25 14C15.25 14.9665 16.0335 15.75 17 15.75C17.9665 15.75 18.75 14.9665 18.75 14C18.75 13.0335 17.9665 12.25 17 12.25Z" fill="#231F2C"/>
</svg>
