<svg width="24" height="24" viewBox="0 0 24 24" fill="none" xmlns="http://www.w3.org/2000/svg">
<path d="M21.5303 3.53033C21.8232 3.23744 21.8232 2.76256 21.5303 2.46967C21.2374 2.17678 20.7626 2.17678 20.4697 2.46967L16.721 6.21836C16.7107 6.22514 16.7005 6.23221 16.6905 6.23957C16.6159 6.29415 16.5544 6.35991 16.5065 6.43286L4.99983 17.9395C4.91984 17.993 4.84949 18.0623 4.79403 18.1453L2.46967 20.4697C2.17678 20.7626 2.17678 21.2374 2.46967 21.5303C2.76256 21.8232 3.23744 21.8232 3.53033 21.5303L5.61843 19.4422C6.21245 19.6406 6.84507 19.75 7.5 19.75H18C20.6234 19.75 22.75 17.6234 22.75 15C22.75 12.6108 20.986 10.6336 18.6894 10.2997C18.7293 10.0387 18.75 9.7716 18.75 9.5C18.75 8.5808 18.5132 7.71551 18.0974 6.96326L21.5303 3.53033Z" fill="#231F2C"/>
<path d="M13.5 4.25C11.3597 4.25 9.51997 5.53025 8.70224 7.36566C8.31276 7.28972 7.91074 7.25 7.5 7.25C4.04822 7.25 1.25 10.0482 1.25 13.5C1.25 14.982 1.8278 16.3886 2.75503 17.4844C2.89077 17.6449 3.08758 17.741 3.29755 17.7494C3.50752 17.7578 3.7114 17.6778 3.85953 17.5287L15.5319 5.78477C15.7132 5.6024 15.7884 5.33988 15.7312 5.0892C15.674 4.83852 15.4924 4.63462 15.2499 4.54893C14.7016 4.35512 14.1123 4.25 13.5 4.25Z" fill="#231F2C"/>
</svg>
