<svg width="24" height="24" viewBox="0 0 24 24" fill="none" xmlns="http://www.w3.org/2000/svg">
<path fill-rule="evenodd" clip-rule="evenodd" d="M8.70224 7.36567C9.51997 5.53025 11.3597 4.25 13.5 4.25C16.3995 4.25 18.75 6.6005 18.75 9.5C18.75 9.7716 18.7293 10.0387 18.6894 10.2997C20.986 10.6336 22.75 12.6108 22.75 15C22.75 17.6234 20.6234 19.75 18 19.75H7.5C4.07435 19.75 1.25 16.7717 1.25 13.5C1.25 10.0482 4.04822 7.25 7.5 7.25C7.91074 7.25 8.31276 7.28972 8.70224 7.36567ZM12.75 10C12.75 9.58579 12.4142 9.25 12 9.25C11.5858 9.25 11.25 9.58579 11.25 10V14.1893L10.5303 13.4697C10.2374 13.1768 9.76256 13.1768 9.46967 13.4697C9.17678 13.7626 9.17678 14.2374 9.46967 14.5303L11.4697 16.5303C11.7626 16.8232 12.2374 16.8232 12.5303 16.5303L14.5303 14.5303C14.8232 14.2374 14.8232 13.7626 14.5303 13.4697C14.2374 13.1768 13.7626 13.1768 13.4697 13.4697L12.75 14.1893V10Z" fill="#231F2C"/>
</svg>
