<svg width="24" height="24" viewBox="0 0 24 24" fill="none" xmlns="http://www.w3.org/2000/svg">
<path fill-rule="evenodd" clip-rule="evenodd" d="M1.43904 15.1077L1.43297 15.0708C1.42714 15.034 1.41924 14.9817 1.40998 14.9137C1.39147 14.7776 1.36752 14.579 1.34381 14.3178C1.2964 13.7953 1.25 13.0227 1.25 12C1.25 9.93434 1.60365 7.52382 1.89837 6.22563C2.17391 5.01194 3.26502 4.25 4.44152 4.25H8C8.86558 4.25 9.68065 4.65753 10.2 5.35L10.5 5.75C10.7361 6.06476 11.1066 6.25 11.5 6.25H19.7639C20.7953 6.25 21.8228 6.85176 22.1333 7.96175C22.4268 9.0108 22.75 10.6908 22.75 13C22.75 15.3092 22.4268 16.9892 22.1333 18.0382C21.8228 19.1482 20.7953 19.75 19.7639 19.75H4.44152C3.26502 19.75 2.17391 18.9881 1.89837 17.7744C1.74144 17.0831 1.56729 16.1734 1.43904 15.1077ZM12.75 10C12.75 9.58579 12.4142 9.25 12 9.25C11.5858 9.25 11.25 9.58579 11.25 10V12.25H9C8.58579 12.25 8.25 12.5858 8.25 13C8.25 13.4142 8.58579 13.75 9 13.75H11.25V16C11.25 16.4142 11.5858 16.75 12 16.75C12.4142 16.75 12.75 16.4142 12.75 16V13.75H15C15.4142 13.75 15.75 13.4142 15.75 13C15.75 12.5858 15.4142 12.25 15 12.25H12.75V10Z" fill="#231F2C"/>
</svg>
