<svg width="24" height="24" viewBox="0 0 24 24" fill="none" xmlns="http://www.w3.org/2000/svg">
<path fill-rule="evenodd" clip-rule="evenodd" d="M8.70224 7.36567C9.51997 5.53025 11.3597 4.25 13.5 4.25C16.3995 4.25 18.75 6.6005 18.75 9.5C18.75 9.7716 18.7293 10.0387 18.6894 10.2997C20.986 10.6336 22.75 12.6108 22.75 15C22.75 17.6234 20.6234 19.75 18 19.75H7.5C4.07435 19.75 1.25 16.7717 1.25 13.5C1.25 10.0482 4.04822 7.25 7.5 7.25C7.91074 7.25 8.31276 7.28972 8.70224 7.36567ZM15.5303 11.5303C15.8232 11.2374 15.8232 10.7626 15.5303 10.4697C15.2374 10.1768 14.7626 10.1768 14.4697 10.4697L11 13.9393L9.53033 12.4697C9.23744 12.1768 8.76256 12.1768 8.46967 12.4697C8.17678 12.7626 8.17678 13.2374 8.46967 13.5303L10.4697 15.5303C10.7626 15.8232 11.2374 15.8232 11.5303 15.5303L15.5303 11.5303Z" fill="#231F2C"/>
</svg>
