<svg width="24" height="24" viewBox="0 0 24 24" fill="none" xmlns="http://www.w3.org/2000/svg">
<path d="M11 2.25C8.37665 2.25 6.25 4.37665 6.25 7C6.25 9.62335 8.37665 11.75 11 11.75C13.6234 11.75 15.75 9.62335 15.75 7C15.75 4.37665 13.6234 2.25 11 2.25Z" fill="#231F2C"/>
<path fill-rule="evenodd" clip-rule="evenodd" d="M20.25 13.6042V14.6544C20.2837 14.665 20.3166 14.6757 20.3487 14.6865C21.3979 15.0376 21.75 16.0889 21.75 16.9223V19.0777C21.75 19.9111 21.3979 20.9624 20.3487 21.3135C19.6477 21.5481 18.5851 21.75 17 21.75C15.4149 21.75 14.3523 21.5481 13.6513 21.3135C12.6021 20.9624 12.25 19.9111 12.25 19.0777V16.9223C12.25 16.0889 12.6021 15.0376 13.6513 14.6865C13.6834 14.6757 13.7163 14.665 13.75 14.6544V13.6042C13.75 11.7809 15.1765 10.25 17 10.25C18.8235 10.25 20.25 11.7809 20.25 13.6042ZM15.25 13.6042C15.25 12.551 16.0621 11.75 17 11.75C17.9379 11.75 18.75 12.551 18.75 13.6042V14.3464C18.2528 14.2865 17.6736 14.25 17 14.25C16.3264 14.25 15.7472 14.2865 15.25 14.3464V13.6042ZM17.75 17.5C17.75 17.0858 17.4142 16.75 17 16.75C16.5858 16.75 16.25 17.0858 16.25 17.5V18.3333C16.25 18.7475 16.5858 19.0833 17 19.0833C17.4142 19.0833 17.75 18.7475 17.75 18.3333V17.5Z" fill="#231F2C"/>
<path d="M11.627 14.9116L11.6253 14.9144C11.6206 14.9224 11.6097 14.9417 11.5944 14.9726C11.5639 15.0345 11.5157 15.1435 11.4649 15.3037C11.3637 15.6228 11.25 16.1518 11.25 16.9223V20.994C11.25 21.1956 11.1689 21.3896 11.025 21.5306C10.881 21.6717 10.6864 21.7489 10.4849 21.7448C8.10561 21.6969 5.56398 21.3242 3.29523 20.4413C2.62711 20.1812 2.25 19.54 2.25 18.882V17.1231C2.25 14.9435 3.73341 13.0436 5.84796 12.5149L6.26881 12.4097C6.86831 12.2598 7.45286 12.4441 7.87614 12.7492C8.41385 13.1366 9.503 13.75 11 13.75C11.2782 13.75 11.5335 13.904 11.6633 14.15C11.7909 14.3919 11.7766 14.6836 11.627 14.9116Z" fill="#231F2C"/>
</svg>
