<svg width="24" height="24" viewBox="0 0 24 24" fill="none" xmlns="http://www.w3.org/2000/svg">
<path d="M1.43297 15.0708L1.43904 15.1077C1.56729 16.1734 1.74144 17.0831 1.89837 17.7744C2.17391 18.9881 3.26502 19.75 4.44152 19.75H12.7817C13.0478 19.75 13.2644 19.5409 13.3045 19.2779C13.518 17.8785 14.3421 16.6799 15.4964 15.9626C15.6107 15.8916 15.6328 15.7309 15.5446 15.6293C15.0496 15.059 14.75 14.3145 14.75 13.5C14.75 11.7051 16.2051 10.25 18 10.25C19.7949 10.25 21.25 11.7051 21.25 13.5C21.25 14.3145 20.9504 15.059 20.4554 15.6293C20.3672 15.7309 20.3893 15.8916 20.5036 15.9626C21.0725 16.3161 21.5613 16.7866 21.9362 17.3404C22.0386 17.4917 22.2825 17.4594 22.3217 17.2809C22.55 16.244 22.75 14.8167 22.75 13C22.75 10.6908 22.4268 9.0108 22.1333 7.96175C21.8228 6.85176 20.7953 6.25 19.7639 6.25H11.5C11.1066 6.25 10.7361 6.06476 10.5 5.75L10.2 5.35C9.68065 4.65753 8.86558 4.25 8 4.25H4.44152C3.26502 4.25 2.17391 5.01194 1.89837 6.22563C1.60365 7.52382 1.25 9.93434 1.25 12C1.25 13.0227 1.2964 13.7953 1.34381 14.3178C1.36752 14.579 1.39147 14.7776 1.40998 14.9137C1.41924 14.9817 1.42714 15.034 1.43297 15.0708Z" fill="#231F2C"/>
<path d="M16.25 13.5C16.25 12.5335 17.0335 11.75 18 11.75C18.9665 11.75 19.75 12.5335 19.75 13.5C19.75 14.4665 18.9665 15.25 18 15.25C17.0335 15.25 16.25 14.4665 16.25 13.5Z" fill="#231F2C"/>
<path d="M14.75 20C14.75 18.2051 16.2051 16.75 18 16.75C19.7949 16.75 21.25 18.2051 21.25 20V20.1667C21.25 20.2127 21.2127 20.25 21.1667 20.25H14.8333C14.7873 20.25 14.75 20.2127 14.75 20.1667V20Z" fill="#231F2C"/>
</svg>
