<svg width="24" height="24" viewBox="0 0 24 24" fill="none" xmlns="http://www.w3.org/2000/svg">
<path fill-rule="evenodd" clip-rule="evenodd" d="M4.25 5C4.25 2.92893 5.92893 1.25 8 1.25H19C19.4142 1.25 19.75 1.58579 19.75 2V22C19.75 22.4142 19.4142 22.75 19 22.75H8C5.92893 22.75 4.25 21.0711 4.25 19V5ZM8 16.75H18.25V21.25H8C6.75736 21.25 5.75 20.2426 5.75 19C5.75 17.7574 6.75736 16.75 8 16.75ZM15.5303 7.53033C15.8232 7.23744 15.8232 6.76256 15.5303 6.46967C15.2374 6.17678 14.7626 6.17678 14.4697 6.46967L11 9.93934L9.53033 8.46967C9.23744 8.17678 8.76256 8.17678 8.46967 8.46967C8.17678 8.76256 8.17678 9.23744 8.46967 9.53033L10.4697 11.5303C10.7626 11.8232 11.2374 11.8232 11.5303 11.5303L15.5303 7.53033Z" fill="#231F2C"/>
</svg>
