<svg width="24" height="24" viewBox="0 0 24 24" fill="none" xmlns="http://www.w3.org/2000/svg">
<path fill-rule="evenodd" clip-rule="evenodd" d="M8.70224 7.36567C9.51997 5.53025 11.3597 4.25 13.5 4.25C16.3995 4.25 18.75 6.6005 18.75 9.5C18.75 9.7716 18.7293 10.0387 18.6894 10.2997C20.986 10.6336 22.75 12.6108 22.75 15C22.75 17.6234 20.6234 19.75 18 19.75H7.5C4.07435 19.75 1.25 16.7717 1.25 13.5C1.25 10.0482 4.04822 7.25 7.5 7.25C7.91074 7.25 8.31276 7.28972 8.70224 7.36567ZM12.5303 9.46967C12.2374 9.17678 11.7626 9.17678 11.4697 9.46967L9.46967 11.4697C9.17678 11.7626 9.17678 12.2374 9.46967 12.5303C9.76256 12.8232 10.2374 12.8232 10.5303 12.5303L11.25 11.8107V16C11.25 16.4142 11.5858 16.75 12 16.75C12.4142 16.75 12.75 16.4142 12.75 16V11.8107L13.4697 12.5303C13.7626 12.8232 14.2374 12.8232 14.5303 12.5303C14.8232 12.2374 14.8232 11.7626 14.5303 11.4697L12.5303 9.46967Z" fill="#231F2C"/>
</svg>
