<svg width="24" height="24" viewBox="0 0 24 24" fill="none" xmlns="http://www.w3.org/2000/svg">
<path fill-rule="evenodd" clip-rule="evenodd" d="M4.25 5C4.25 2.92893 5.92893 1.25 8 1.25H19C19.4142 1.25 19.75 1.58579 19.75 2V22C19.75 22.4142 19.4142 22.75 19 22.75H8C5.92893 22.75 4.25 21.0711 4.25 19V5ZM8 16.75H18.25V21.25H8C6.75736 21.25 5.75 20.2426 5.75 19C5.75 17.7574 6.75736 16.75 8 16.75ZM9 6.25C8.58579 6.25 8.25 6.58579 8.25 7C8.25 7.41421 8.58579 7.75 9 7.75H15C15.4142 7.75 15.75 7.41421 15.75 7C15.75 6.58579 15.4142 6.25 15 6.25H9ZM9 10.25C8.58579 10.25 8.25 10.5858 8.25 11C8.25 11.4142 8.58579 11.75 9 11.75H13C13.4142 11.75 13.75 11.4142 13.75 11C13.75 10.5858 13.4142 10.25 13 10.25H9Z" fill="#231F2C"/>
</svg>
