<svg width="24" height="24" viewBox="0 0 24 24" fill="none" xmlns="http://www.w3.org/2000/svg">
<path fill-rule="evenodd" clip-rule="evenodd" d="M4.44295 5.75C3.8969 5.75 3.46715 6.09272 3.3615 6.55781C3.08624 7.76958 2.75 9.96804 2.75 12C2.75 14.0398 2.95187 15.6389 3.3615 17.4422C3.46715 17.9073 3.8969 18.25 4.44295 18.25H4.53836L7.50371 12.3228C8.13934 11.0523 9.43848 10.25 10.8593 10.25H19.2606V9C19.2606 8.30952 18.7014 7.75 18.0105 7.75H11.5056C10.6398 7.75 9.82442 7.34262 9.30477 6.65017L9.0046 6.25017C8.76838 5.9354 8.39753 5.75 8.00353 5.75H4.44295ZM20.7606 10.25V9C20.7606 7.48134 19.5301 6.25 18.0105 6.25H11.5056C11.1116 6.25 10.7407 6.0646 10.5045 5.74983L10.2043 5.34983C9.6847 4.65738 8.8693 4.25 8.00353 4.25H4.44295C3.26628 4.25 2.17451 5.01163 1.89877 6.22554C1.60424 7.52212 1.25 9.83388 1.25 12C1.25 14.1582 1.46587 15.8687 1.89877 17.7745C2.17451 18.9884 3.26628 19.75 4.44295 19.75H15.4177C17.5768 19.75 19.6981 18.5369 20.6813 16.5716L22.5769 12.7828C22.8911 12.1546 22.7444 11.495 22.4107 11.0343C22.0819 10.5805 21.5286 10.25 20.8931 10.25H20.7606Z" fill="#231F2C"/>
</svg>
