<svg width="24" height="24" viewBox="0 0 24 24" fill="none" xmlns="http://www.w3.org/2000/svg">
<path d="M10.75 12C10.75 11.3096 11.3096 10.75 12 10.75C12.6904 10.75 13.25 11.3096 13.25 12C13.25 12.6904 12.6904 13.25 12 13.25C11.3096 13.25 10.75 12.6904 10.75 12Z" fill="#231F2C"/>
<path d="M8.75 18C8.75 16.2051 10.2051 14.75 12 14.75C13.7949 14.75 15.25 16.2051 15.25 18V18.1667C15.25 18.2127 15.2127 18.25 15.1667 18.25H8.83333C8.78731 18.25 8.75 18.2127 8.75 18.1667V18Z" fill="#231F2C"/>
<path fill-rule="evenodd" clip-rule="evenodd" d="M19.75 20V7.00591C19.7501 6.99307 19.7499 6.98023 19.7493 6.96742C19.7409 6.77158 19.6575 6.59519 19.527 6.46632L14.5338 1.47312C14.3978 1.33537 14.2087 1.25 13.9998 1.25H7C5.48122 1.25 4.25 2.48122 4.25 4V20C4.25 21.5188 5.48122 22.75 7 22.75H17C18.5188 22.75 19.75 21.5188 19.75 20ZM14.75 3.81068L17.1893 6.25H14.75V3.81068ZM14.75 12C14.75 12.6644 14.5144 13.2739 14.1221 13.7492C15.6802 14.5286 16.75 16.1393 16.75 18V18.1667C16.75 19.0411 16.0411 19.75 15.1667 19.75H8.83333C7.95888 19.75 7.25 19.0411 7.25 18.1667V18C7.25 16.1393 8.31983 14.5286 9.87793 13.7492C9.48565 13.2739 9.25 12.6644 9.25 12C9.25 10.4812 10.4812 9.25 12 9.25C13.5188 9.25 14.75 10.4812 14.75 12Z" fill="#231F2C"/>
</svg>
