<svg width="24" height="24" viewBox="0 0 24 24" fill="none" xmlns="http://www.w3.org/2000/svg">
<path fill-rule="evenodd" clip-rule="evenodd" d="M10.2374 2.7589C9.55402 2.07548 8.44598 2.07548 7.76256 2.7589L6.56868 3.95279C6.48226 4.0392 6.34604 4.05047 6.24659 3.97944L5.01717 3.10128C3.8589 2.27394 2.25 3.10191 2.25 4.52531V17.0002C2.25 19.6236 4.37665 21.7502 7 21.7502H18.5C20.2949 21.7502 21.75 20.2951 21.75 18.5002V14.0002C21.75 13.586 21.4142 13.2502 21 13.2502H16.75V4.58212C16.75 3.14004 15.1037 2.31688 13.95 3.18212L12.2438 4.46175C12.1443 4.53639 12.005 4.5265 11.9171 4.43852L10.2374 2.7589ZM20.25 18.5002C20.25 19.4667 19.4665 20.2502 18.5 20.2502C17.5335 20.2502 16.75 19.4667 16.75 18.5002V14.7502H20.25V18.5002ZM6 8.25024C5.58579 8.25024 5.25 8.58603 5.25 9.00024C5.25 9.41446 5.58579 9.75024 6 9.75024H13C13.4142 9.75024 13.75 9.41446 13.75 9.00024C13.75 8.58603 13.4142 8.25024 13 8.25024H6ZM6 12.2503C5.58579 12.2503 5.25 12.586 5.25 13.0003C5.25 13.4145 5.58579 13.7503 6 13.7503H13C13.4142 13.7503 13.75 13.4145 13.75 13.0003C13.75 12.586 13.4142 12.2503 13 12.2503H6ZM6 16.2503C5.58579 16.2503 5.25 16.586 5.25 17.0003C5.25 17.4145 5.58579 17.7503 6 17.7503H10C10.4142 17.7503 10.75 17.4145 10.75 17.0003C10.75 16.586 10.4142 16.2503 10 16.2503H6Z" fill="#231F2C"/>
</svg>
