<svg width="24" height="24" viewBox="0 0 24 24" fill="none" xmlns="http://www.w3.org/2000/svg">
<path fill-rule="evenodd" clip-rule="evenodd" d="M19.75 20V7.00591C19.7501 6.99307 19.7499 6.98023 19.7493 6.96742C19.7409 6.77158 19.6575 6.59519 19.527 6.46632L14.5338 1.47312C14.3978 1.33537 14.2087 1.25 13.9998 1.25H7C5.48122 1.25 4.25 2.48122 4.25 4V20C4.25 21.5188 5.48122 22.75 7 22.75H17C18.5188 22.75 19.75 21.5188 19.75 20ZM14.75 3.81068L17.1893 6.25H14.75V3.81068ZM10.25 5C10.25 4.58579 9.91421 4.25 9.5 4.25C9.08579 4.25 8.75 4.58579 8.75 5V5.37803C7.87611 5.68691 7.25 6.52034 7.25 7.5V7.74342C7.25 8.81666 7.93676 9.76949 8.95493 10.1089L9.57073 10.3141C9.97638 10.4494 10.25 10.829 10.25 11.2566V11.5C10.25 11.9142 9.91421 12.25 9.5 12.25C9.08579 12.25 8.75 11.9142 8.75 11.5C8.75 11.0858 8.41421 10.75 8 10.75C7.58579 10.75 7.25 11.0858 7.25 11.5C7.25 12.4797 7.87611 13.3131 8.75 13.622V14C8.75 14.4142 9.08579 14.75 9.5 14.75C9.91421 14.75 10.25 14.4142 10.25 14V13.622C11.1239 13.3131 11.75 12.4797 11.75 11.5V11.2566C11.75 10.1833 11.0632 9.23051 10.0451 8.89112L9.42927 8.68585C9.02362 8.55064 8.75 8.17101 8.75 7.74342V7.5C8.75 7.08579 9.08579 6.75 9.5 6.75C9.91421 6.75 10.25 7.08579 10.25 7.5C10.25 7.91421 10.5858 8.25 11 8.25C11.4142 8.25 11.75 7.91421 11.75 7.5C11.75 6.52034 11.1239 5.68691 10.25 5.37803V5ZM13 13.25C12.5858 13.25 12.25 13.5858 12.25 14C12.25 14.4142 12.5858 14.75 13 14.75H15C15.4142 14.75 15.75 14.4142 15.75 14C15.75 13.5858 15.4142 13.25 15 13.25H13ZM9 17.25C8.58579 17.25 8.25 17.5858 8.25 18C8.25 18.4142 8.58579 18.75 9 18.75H15C15.4142 18.75 15.75 18.4142 15.75 18C15.75 17.5858 15.4142 17.25 15 17.25H9Z" fill="#231F2C"/>
</svg>
