<svg width="24" height="24" viewBox="0 0 24 24" fill="none" xmlns="http://www.w3.org/2000/svg">
<path d="M1.43297 15.0708L1.43904 15.1077C1.56729 16.1734 1.74144 17.0831 1.89837 17.7744C2.17391 18.9881 3.26502 19.75 4.44152 19.75H19.7639C20.7953 19.75 21.8228 19.1482 22.1333 18.0382C22.4268 16.9892 22.75 15.3092 22.75 13C22.75 10.6908 22.4268 9.0108 22.1333 7.96175C21.8228 6.85176 20.7953 6.25 19.7639 6.25H11.5C11.1066 6.25 10.7361 6.06476 10.5 5.75L10.2 5.35C9.68065 4.65753 8.86558 4.25 8 4.25H4.44152C3.26502 4.25 2.17391 5.01194 1.89837 6.22563C1.60365 7.52382 1.25 9.93434 1.25 12C1.25 13.0227 1.2964 13.7953 1.34381 14.3178C1.36752 14.579 1.39147 14.7776 1.40998 14.9137C1.41924 14.9817 1.42714 15.034 1.43297 15.0708Z" fill="#231F2C"/>
</svg>
