<svg width="24" height="24" viewBox="0 0 24 24" fill="none" xmlns="http://www.w3.org/2000/svg">
<path fill-rule="evenodd" clip-rule="evenodd" d="M1.43904 15.1077L1.43297 15.0708C1.42714 15.034 1.41924 14.9817 1.40998 14.9137C1.39147 14.7776 1.36752 14.579 1.34381 14.3178C1.2964 13.7953 1.25 13.0227 1.25 12C1.25 9.93434 1.60365 7.52382 1.89837 6.22563C2.17391 5.01194 3.26502 4.25 4.44152 4.25H8C8.86558 4.25 9.68065 4.65753 10.2 5.35L10.5 5.75C10.7361 6.06476 11.1066 6.25 11.5 6.25H19.7639C20.7953 6.25 21.8228 6.85176 22.1333 7.96175C22.4268 9.0108 22.75 10.6908 22.75 13C22.75 15.3092 22.4268 16.9892 22.1333 18.0382C21.8228 19.1482 20.7953 19.75 19.7639 19.75H4.44152C3.26502 19.75 2.17391 18.9881 1.89837 17.7744C1.74144 17.0831 1.56729 16.1734 1.43904 15.1077ZM10.5303 10.4697C10.2374 10.1768 9.76256 10.1768 9.46967 10.4697C9.17678 10.7626 9.17678 11.2374 9.46967 11.5303L10.9393 13L9.46967 14.4697C9.17678 14.7626 9.17678 15.2374 9.46967 15.5303C9.76256 15.8232 10.2374 15.8232 10.5303 15.5303L12 14.0607L13.4697 15.5303C13.7626 15.8232 14.2374 15.8232 14.5303 15.5303C14.8232 15.2374 14.8232 14.7626 14.5303 14.4697L13.0607 13L14.5303 11.5303C14.8232 11.2374 14.8232 10.7626 14.5303 10.4697C14.2374 10.1768 13.7626 10.1768 13.4697 10.4697L12 11.9393L10.5303 10.4697Z" fill="#231F2C"/>
</svg>
