<svg width="24" height="24" viewBox="0 0 24 24" fill="none" xmlns="http://www.w3.org/2000/svg">
<path fill-rule="evenodd" clip-rule="evenodd" d="M19.75 20V7.00591C19.7501 6.99307 19.7499 6.98023 19.7493 6.96742C19.7409 6.77158 19.6575 6.59519 19.527 6.46632L14.5338 1.47312C14.3978 1.33537 14.2087 1.25 13.9998 1.25H7C5.48122 1.25 4.25 2.48122 4.25 4V20C4.25 21.5188 5.48122 22.75 7 22.75H17C18.5188 22.75 19.75 21.5188 19.75 20ZM14.75 3.81068L17.1893 6.25H14.75V3.81068ZM9 12.25C8.58579 12.25 8.25 12.5858 8.25 13C8.25 13.4142 8.58579 13.75 9 13.75H15C15.4142 13.75 15.75 13.4142 15.75 13C15.75 12.5858 15.4142 12.25 15 12.25H9ZM9 16.25C8.58579 16.25 8.25 16.5858 8.25 17C8.25 17.4142 8.58579 17.75 9 17.75H13C13.4142 17.75 13.75 17.4142 13.75 17C13.75 16.5858 13.4142 16.25 13 16.25H9Z" fill="#231F2C"/>
</svg>
