<svg width="24" height="24" viewBox="0 0 24 24" fill="none" xmlns="http://www.w3.org/2000/svg">
<path fill-rule="evenodd" clip-rule="evenodd" d="M4.33306 21.0679C2.82372 20.8022 1.87786 19.322 2.38857 17.8237C2.94772 16.1833 4.03464 13.5207 6.10392 9.78989C8.16263 6.07812 9.58097 4.0761 10.4519 3.01674C10.8493 2.53336 11.4034 2.25 12.0001 2.25C12.5967 2.25 13.1508 2.53336 13.5482 3.01674C14.4192 4.0761 15.8375 6.07812 17.8962 9.78989C18.0579 10.0813 18.2135 10.3661 18.3633 10.6445L18.3706 10.6583L19.6677 13.1933L19.6753 13.2085C20.6399 15.2037 21.2414 16.7377 21.6116 17.8237C22.1223 19.322 21.1764 20.8022 19.6671 21.0679C17.9226 21.375 15.1493 21.75 12.0001 21.75C8.85082 21.75 6.07753 21.375 4.33306 21.0679ZM11.25 17C11.25 17.4142 11.5858 17.75 12 17.75C12.4142 17.75 12.75 17.4142 12.75 17V16.5C12.75 16.0858 12.4142 15.75 12 15.75C11.5858 15.75 11.25 16.0858 11.25 16.5V17ZM11.25 13.5C11.25 13.9142 11.5858 14.25 12 14.25C12.4142 14.25 12.75 13.9142 12.75 13.5L12.75 9C12.75 8.58579 12.4142 8.25 12 8.25C11.5858 8.25 11.25 8.58579 11.25 9L11.25 13.5Z" fill="#231F2C"/>
</svg>
