<svg width="24" height="24" viewBox="0 0 24 24" fill="none" xmlns="http://www.w3.org/2000/svg">
<path fill-rule="evenodd" clip-rule="evenodd" d="M12.3593 5.24995L10.8548 18.4148C10.8077 18.8263 11.1032 19.1981 11.5148 19.2451C11.9263 19.2921 12.298 18.9966 12.3451 18.5851L13.8691 5.24995H13.8737L14.2549 1.91479C14.3019 1.50325 14.6736 1.20776 15.0852 1.2548C15.4967 1.30183 15.7922 1.67357 15.7452 2.08511L15.3835 5.24995H19C19.2151 5.24995 19.4199 5.34232 19.5623 5.50359C19.7046 5.66487 19.7709 5.87951 19.7442 6.09297L19.0996 11.25H17C16.5858 11.25 16.25 11.5858 16.25 12C16.25 12.4142 16.5858 12.75 17 12.75H18.9121L18.5996 15.25H16C15.5858 15.25 15.25 15.5858 15.25 16C15.25 16.4142 15.5858 16.75 16 16.75H18.4121L17.9632 20.341C17.7912 21.7172 16.6213 22.7499 15.2344 22.7499H8.76557C7.37868 22.7499 6.20883 21.7172 6.0368 20.341L5.83792 18.75H9C9.41421 18.75 9.75 18.4142 9.75 18C9.75 17.5858 9.41421 17.25 9 17.25H5.65042L4.83792 10.75H9.5C9.91421 10.75 10.25 10.4142 10.25 10C10.25 9.58579 9.91421 9.25 9.5 9.25H4.65042L4.2558 6.09297C4.22911 5.87951 4.29538 5.66487 4.43775 5.50359C4.58011 5.34232 4.78488 5.24995 5 5.24995H12.3593ZM7.25 14C7.25 13.5858 7.58579 13.25 8 13.25H9.5C9.91421 13.25 10.25 13.5858 10.25 14C10.25 14.4142 9.91421 14.75 9.5 14.75H8C7.58579 14.75 7.25 14.4142 7.25 14Z" fill="#231F2C"/>
</svg>
