<svg width="24" height="24" viewBox="0 0 24 24" fill="none" xmlns="http://www.w3.org/2000/svg">
<path d="M19.5416 7.25114C17.9526 7.16297 15.8552 7.31694 14.3106 7.72016C13.9098 7.82478 13.6697 8.23449 13.7743 8.63527C13.8789 9.03605 14.2886 9.27614 14.6894 9.17152C16.0552 8.815 17.9928 8.66751 19.4584 8.74884C19.872 8.77178 20.2259 8.45512 20.2488 8.04154C20.2718 7.62796 19.9551 7.27409 19.5416 7.25114Z" fill="#231F2C"/>
<path d="M19.5416 10.8053C17.9526 10.7171 15.8552 10.8711 14.3106 11.2743C13.9098 11.3789 13.6697 11.7886 13.7743 12.1894C13.8789 12.5902 14.2886 12.8303 14.6894 12.7257C16.0552 12.3692 17.9928 12.2217 19.4584 12.303C19.872 12.3259 20.2259 12.0093 20.2488 11.5957C20.2718 11.1821 19.9551 10.8282 19.5416 10.8053Z" fill="#231F2C"/>
<path d="M14.3106 14.7431C15.8552 14.3399 17.9526 14.1859 19.5416 14.274C19.9551 14.297 20.2718 14.6509 20.2488 15.0644C20.2259 15.478 19.872 15.7947 19.4584 15.7717C17.9928 15.6904 16.0552 15.8379 14.6894 16.1944C14.2886 16.2991 13.8789 16.059 13.7743 15.6582C13.6697 15.2574 13.9098 14.8477 14.3106 14.7431Z" fill="#231F2C"/>
<path d="M7.25004 11C7.25004 11.2684 7.14901 11.5465 7.00004 11.8036C6.85107 11.5465 6.75004 11.2684 6.75004 11C6.75004 10.7316 6.85107 10.4535 7.00004 10.1964C7.14901 10.4535 7.25004 10.7316 7.25004 11Z" fill="#231F2C"/>
<path d="M5.96204 13.0599C6.1315 13.2492 6.2459 13.6165 6.29261 14.0704C5.9331 13.9931 5.61779 13.8529 5.43498 13.6487C5.26132 13.4547 5.15981 13.1165 5.12648 12.7153C5.4856 12.7525 5.78838 12.8659 5.96204 13.0599Z" fill="#231F2C"/>
<path d="M7.71386 14.1315C8.05755 14.0883 8.35122 13.9737 8.52419 13.7805C8.69715 13.5873 8.79973 13.2592 8.83839 12.8753C8.4947 12.9184 8.20103 13.033 8.02807 13.2263C7.8551 13.4195 7.75252 13.7476 7.71386 14.1315Z" fill="#231F2C"/>
<path fill-rule="evenodd" clip-rule="evenodd" d="M13.7623 4.9048C15.5343 4.31365 18.3941 4.12696 20.2024 4.32803L21.1934 4.43823C22.0796 4.53677 22.75 5.28585 22.75 6.17751L22.75 17.3936C22.75 18.4367 21.8432 19.2481 20.8066 19.1329L20.0366 19.0473C18.3933 18.8645 15.7594 19.0482 14.2369 19.5561L12.2424 20.2215C12.2299 20.2257 12.2173 20.2297 12.2046 20.2333C12.0517 20.2768 11.8952 20.2693 11.7544 20.2204L9.76306 19.5561C8.24056 19.0482 5.60662 18.8645 3.96336 19.0473L3.1934 19.1329C2.15671 19.2481 1.25 18.4367 1.25 17.3936L1.25001 6.17751C1.25001 5.28585 1.92042 4.53677 2.80661 4.43823L3.79761 4.32803C5.60591 4.12696 8.46565 4.31365 10.2377 4.9048L12 5.49266L13.7623 4.9048ZM13.7622 18.1332L13.1449 18.3391C12.9507 18.4039 12.75 18.2593 12.75 18.0545L12.75 7.11196C12.75 6.93982 12.8601 6.78698 13.0234 6.73251L14.2369 6.32771C15.7594 5.81983 18.3934 5.63612 20.0366 5.81885L21.0276 5.92904C21.1542 5.94312 21.25 6.05013 21.25 6.17751L21.25 17.3936C21.25 17.5426 21.1204 17.6585 20.9723 17.6421L20.2024 17.5564C18.3941 17.3554 15.5343 17.5421 13.7622 18.1332ZM7.06785 15.718C7.02924 15.7215 6.98986 15.7215 6.95077 15.7216C6.90241 15.7217 6.83503 15.7207 6.75345 15.7168C6.59132 15.7089 6.36652 15.6892 6.11432 15.6406C5.63665 15.5486 4.94043 15.3314 4.43455 14.7662C3.90989 14.1801 3.76045 13.387 3.71698 12.8523C3.69404 12.5702 3.69747 12.3202 3.70641 12.1406C3.71091 12.0501 3.71691 11.9756 3.72205 11.9217C3.72462 11.8947 3.727 11.8727 3.72888 11.8563L3.7296 11.8504C3.73168 11.8332 3.73376 11.816 3.73653 11.7989C3.78847 11.4786 4.01122 11.2268 4.29657 11.1645C4.31595 11.1602 4.33548 11.1572 4.35503 11.1543L4.3577 11.1539C4.37237 11.1518 4.39204 11.1491 4.41621 11.1462C4.46446 11.1405 4.53112 11.1338 4.61214 11.1288C4.77296 11.1188 4.99676 11.1149 5.24925 11.1406L5.25387 11.141C5.25136 11.0945 5.25006 11.0475 5.25006 11C5.25006 10.2294 5.59359 9.57846 5.88296 9.15953C6.03258 8.94293 6.1814 8.76861 6.2936 8.64749C6.35004 8.58657 6.39814 8.5381 6.4337 8.50345C6.4515 8.4861 6.46624 8.47214 6.4774 8.46174L6.52221 8.42192C6.79923 8.19269 7.20088 8.19269 7.4779 8.42192C7.49214 8.43371 7.50574 8.44618 7.51936 8.45867L7.52271 8.46174C7.53387 8.47214 7.54861 8.4861 7.56641 8.50345C7.60198 8.5381 7.65007 8.58657 7.70651 8.64749C7.81871 8.76861 7.96753 8.94293 8.11715 9.15953C8.40653 9.57846 8.75006 10.2294 8.75006 11C8.75006 11.1016 8.74408 11.2012 8.73304 11.2984C8.98062 11.2709 9.19983 11.2722 9.35784 11.2802C9.43817 11.2843 9.50428 11.2902 9.55216 11.2954C9.57615 11.2979 9.59568 11.3003 9.61027 11.3023L9.66898 11.3117C9.95903 11.3706 10.1863 11.6249 10.2384 11.9492C10.2452 11.9915 10.249 12.0349 10.2528 12.078C10.2574 12.1315 10.2626 12.2054 10.2663 12.2951C10.2735 12.4732 10.2746 12.721 10.2494 13.0008C10.2013 13.5323 10.0459 14.3159 9.52474 14.8981C9.00353 15.4804 8.30212 15.654 7.82629 15.7077C7.5759 15.7359 7.35409 15.7346 7.19462 15.7266C7.14711 15.7242 7.10458 15.7211 7.06785 15.718Z" fill="#231F2C"/>
</svg>
