<svg width="24" height="24" viewBox="0 0 24 24" fill="none" xmlns="http://www.w3.org/2000/svg">
<path fill-rule="evenodd" clip-rule="evenodd" d="M1.35449 12.0552C1.35449 6.14697 6.14404 1.35742 12.0522 1.35742C17.9605 1.35742 22.75 6.14697 22.75 12.0552C22.75 17.9634 17.9605 22.7529 12.0522 22.7529C6.14404 22.7529 1.35449 17.9634 1.35449 12.0552ZM6.01099 8.34631V9.61407H8.23755V15.619H9.75743V9.61407H11.984V8.34631H6.01099ZM14.452 15.619V12.4656C14.4544 12.2313 14.4994 12.0312 14.587 11.8655C14.6769 11.6974 14.8 11.5696 14.9563 11.482C15.1149 11.3944 15.2972 11.3506 15.5032 11.3506C15.8109 11.3506 16.05 11.4441 16.2205 11.6311C16.3933 11.8181 16.4786 12.0797 16.4762 12.4159V15.619H17.989V12.146C17.9913 11.7199 17.9132 11.3541 17.7546 11.0487C17.5983 10.741 17.3782 10.5054 17.0941 10.3421C16.8124 10.1763 16.4821 10.0935 16.1033 10.0935C15.689 10.0935 15.3446 10.1858 15.0699 10.3705C14.7953 10.5528 14.5965 10.8049 14.4733 11.1269H14.4094V8.34631H12.9393V15.619H14.452Z" fill="#231F2C"/>
</svg>
