<svg width="24" height="24" viewBox="0 0 24 24" fill="none" xmlns="http://www.w3.org/2000/svg">
<path fill-rule="evenodd" clip-rule="evenodd" d="M5.25 3C5.25 2.0335 6.0335 1.25 7 1.25H17C17.9665 1.25 18.75 2.0335 18.75 3V20C18.75 20.9665 17.9665 21.75 17 21.75H16.75V22C16.75 22.4142 16.4142 22.75 16 22.75H8C7.58579 22.75 7.25 22.4142 7.25 22V21.75H7C6.0335 21.75 5.25 20.9665 5.25 20V3ZM8 3.25C8.41421 3.25 8.75 3.58579 8.75 4V5C8.75 5.41421 8.41421 5.75 8 5.75C7.58579 5.75 7.25 5.41421 7.25 5V4C7.25 3.58579 7.58579 3.25 8 3.25ZM8 12.25C8.41421 12.25 8.75 12.5858 8.75 13V16C8.75 16.4142 8.41421 16.75 8 16.75C7.58579 16.75 7.25 16.4142 7.25 16V13C7.25 12.5858 7.58579 12.25 8 12.25ZM6.75 9C6.75 8.58579 7.08579 8.25 7.5 8.25H16.5C16.9142 8.25 17.25 8.58579 17.25 9C17.25 9.41421 16.9142 9.75 16.5 9.75H7.5C7.08579 9.75 6.75 9.41421 6.75 9Z" fill="#231F2C"/>
</svg>
