<svg width="24" height="24" viewBox="0 0 24 24" fill="none" xmlns="http://www.w3.org/2000/svg">
<path fill-rule="evenodd" clip-rule="evenodd" d="M1.25 12C1.25 6.06294 6.06294 1.25 12 1.25C17.9371 1.25 22.75 6.06294 22.75 12C22.75 17.9371 17.9371 22.75 12 22.75C6.06294 22.75 1.25 17.9371 1.25 12ZM6.75 10C6.75 9.30964 7.30964 8.75 8 8.75C8.69036 8.75 9.25 9.30964 9.25 10C9.25 10.4142 9.58579 10.75 10 10.75C10.4142 10.75 10.75 10.4142 10.75 10C10.75 8.48122 9.51878 7.25 8 7.25C6.48122 7.25 5.25 8.48122 5.25 10C5.25 10.4142 5.58579 10.75 6 10.75C6.41421 10.75 6.75 10.4142 6.75 10ZM7.45194 14.6245C7.24453 14.2659 6.78574 14.1434 6.42719 14.3508C6.06865 14.5582 5.94613 15.017 6.15353 15.3755C7.31951 17.3912 9.50065 18.75 12 18.75C14.4994 18.75 16.6806 17.3912 17.8466 15.3755C18.054 15.017 17.9314 14.5582 17.5729 14.3508C17.2143 14.1434 16.7556 14.2659 16.5481 14.6245C15.6393 16.1956 13.9423 17.25 12 17.25C10.0577 17.25 8.36082 16.1956 7.45194 14.6245ZM14.75 10C14.75 9.30964 15.3096 8.75 16 8.75C16.6904 8.75 17.25 9.30964 17.25 10C17.25 10.4142 17.5858 10.75 18 10.75C18.4142 10.75 18.75 10.4142 18.75 10C18.75 8.48122 17.5188 7.25 16 7.25C14.4812 7.25 13.25 8.48122 13.25 10C13.25 10.4142 13.5858 10.75 14 10.75C14.4142 10.75 14.75 10.4142 14.75 10Z" fill="#231F2C"/>
</svg>
