<svg width="24" height="24" viewBox="0 0 24 24" fill="none" xmlns="http://www.w3.org/2000/svg">
<path d="M16.4581 14.5537C16.7091 14.5537 16.9186 14.4827 17.0867 14.3407C17.2548 14.1963 17.3814 13.9998 17.4666 13.7512C17.5542 13.5026 17.598 13.2197 17.598 12.9025C17.598 12.5852 17.5542 12.3023 17.4666 12.0537C17.3814 11.8052 17.2548 11.6087 17.0867 11.4642C16.9186 11.3198 16.7091 11.2476 16.4581 11.2476C16.2048 11.2476 15.9917 11.3198 15.8189 11.4642C15.6485 11.6087 15.5194 11.8052 15.4318 12.0537C15.3466 12.3023 15.304 12.5852 15.304 12.9025C15.304 13.2197 15.3466 13.5026 15.4318 13.7512C15.5194 13.9998 15.6485 14.1963 15.8189 14.3407C15.9917 14.4827 16.2048 14.5537 16.4581 14.5537Z" fill="#231F2C"/>
<path fill-rule="evenodd" clip-rule="evenodd" d="M1.35449 12.0552C1.35449 6.14697 6.14404 1.35742 12.0522 1.35742C17.9605 1.35742 22.75 6.14697 22.75 12.0552C22.75 17.9634 17.9605 22.7529 12.0522 22.7529C6.14404 22.7529 1.35449 17.9634 1.35449 12.0552ZM4.8645 8.34631H6.76081L8.76365 13.2327H8.84888L10.8517 8.34631H12.748V15.619H11.2565V10.8854H11.1962L9.31408 15.5835H8.29845L6.41635 10.8676H6.35598V15.619H4.8645V8.34631ZM16.451 15.7256C15.8994 15.7256 15.4224 15.6084 15.0199 15.374C14.6198 15.1373 14.3109 14.8082 14.0931 14.3868C13.8753 13.9631 13.7664 13.4718 13.7664 12.9131C13.7664 12.3497 13.8753 11.8572 14.0931 11.4358C14.3109 11.0121 14.6198 10.683 15.0199 10.4486C15.4224 10.2119 15.8994 10.0935 16.451 10.0935C17.0026 10.0935 17.4785 10.2119 17.8786 10.4486C18.281 10.683 18.5912 11.0121 18.809 11.4358C19.0268 11.8572 19.1357 12.3497 19.1357 12.9131C19.1357 13.4718 19.0268 13.9631 18.809 14.3868C18.5912 14.8082 18.281 15.1373 17.8786 15.374C17.4785 15.6084 17.0026 15.7256 16.451 15.7256Z" fill="#231F2C"/>
</svg>
