<svg width="24" height="24" viewBox="0 0 24 24" fill="none" xmlns="http://www.w3.org/2000/svg">
<path d="M11.3829 3.57375C11.5229 3.37102 11.7536 3.25 12 3.25C12.2464 3.25 12.4771 3.37102 12.6171 3.57375L12.6212 3.57969L12.6308 3.59378L12.6653 3.64478C12.6946 3.68832 12.7359 3.75039 12.7852 3.82634C12.8835 3.97759 13.0156 4.18698 13.1487 4.41656C13.2805 4.64368 13.4208 4.90337 13.5304 5.15283C13.6265 5.3715 13.75 5.69159 13.75 6C13.75 6.6981 13.3412 7.30073 12.75 7.58159V8.25H13.5C13.9142 8.25 14.25 8.58579 14.25 9V11.25H18C18.4142 11.25 18.75 11.5858 18.75 12C18.75 12.4142 18.4142 12.75 18 12.75H12.75V19.25H13.5C13.9142 19.25 14.25 19.5858 14.25 20C14.25 20.4142 13.9142 20.75 13.5 20.75H10.5C10.0858 20.75 9.75 20.4142 9.75 20C9.75 19.5858 10.0858 19.25 10.5 19.25H11.25V12.75H6C5.58579 12.75 5.25 12.4142 5.25 12C5.25 11.5858 5.58579 11.25 6 11.25H9.75V9C9.75 8.58579 10.0858 8.25 10.5 8.25H11.25V7.58159C10.6588 7.30073 10.25 6.6981 10.25 6C10.25 5.69159 10.3735 5.3715 10.4696 5.15283C10.5792 4.90337 10.7195 4.64368 10.8513 4.41656C10.9844 4.18698 11.1165 3.97759 11.2148 3.82634C11.2641 3.75039 11.3054 3.68832 11.3347 3.64478L11.3692 3.59378L11.3788 3.57969L11.3829 3.57375Z" fill="#231F2C"/>
<path d="M1.907 6.25575C2.31801 6.20437 2.69285 6.49592 2.74423 6.90693L3.66211 14.25H8.00002C8.41424 14.25 8.75002 14.5857 8.75002 15V20C8.75002 20.4142 8.41424 20.75 8.00002 20.75C7.58581 20.75 7.25002 20.4142 7.25002 20V15.75H3.61488L2.73546 20.147C2.65422 20.5532 2.25911 20.8166 1.85294 20.7354C1.44677 20.6542 1.18335 20.259 1.26459 19.8529L2.24072 14.9722L1.25581 7.09298C1.20444 6.68197 1.49598 6.30713 1.907 6.25575Z" fill="#231F2C"/>
<path d="M22.093 6.25575C21.682 6.20437 21.3071 6.49592 21.2558 6.90693L20.3379 14.25H16C15.5858 14.25 15.25 14.5857 15.25 15V20C15.25 20.4142 15.5858 20.75 16 20.75C16.4142 20.75 16.75 20.4142 16.75 20V15.75H20.3851L21.2645 20.147C21.3458 20.5532 21.7409 20.8166 22.1471 20.7354C22.5532 20.6542 22.8166 20.259 22.7354 19.8529L21.7593 14.9722L22.7442 7.09298C22.7956 6.68197 22.504 6.30713 22.093 6.25575Z" fill="#231F2C"/>
</svg>
