<svg width="24" height="24" viewBox="0 0 24 24" fill="none" xmlns="http://www.w3.org/2000/svg">
<path d="M8.82855 5.47844C9.78564 5.01205 10.8612 4.75 12 4.75C13.7153 4.75 15.2896 5.34472 16.5309 6.33981C16.8541 6.59889 17.3261 6.54692 17.5852 6.22373C17.8443 5.90054 17.7923 5.42852 17.4691 5.16944C15.9712 3.96872 14.0685 3.25 12 3.25C10.6285 3.25 9.32876 3.56607 8.17146 4.13002C7.7991 4.31147 7.64434 4.76042 7.82579 5.13278C8.00724 5.50513 8.45619 5.65989 8.82855 5.47844Z" fill="#231F2C"/>
<path d="M7.01572 17.2649C6.71497 16.9801 6.24027 16.993 5.95545 17.2938C5.67063 17.5945 5.68354 18.0692 5.98429 18.3541C7.55169 19.8385 9.6702 20.75 12 20.75C14.0685 20.75 15.9712 20.0313 17.4691 18.8306C17.7923 18.5715 17.8443 18.0995 17.5852 17.7763C17.3261 17.4531 16.8541 17.4011 16.5309 17.6602C15.2896 18.6553 13.7153 19.25 12 19.25C10.069 19.25 8.31565 18.496 7.01572 17.2649Z" fill="#231F2C"/>
<path d="M19.3514 4.26482C19.7012 4.1941 20.0525 4.37972 20.1911 4.70862L22.4873 10.1557C23.1255 11.4351 22.5591 12.8477 21.3462 13.551L20.25 14.3746V19C20.25 19.4142 19.9142 19.75 19.5 19.75C19.0858 19.75 18.75 19.4142 18.75 19V4.99995C18.75 4.64303 19.0015 4.33555 19.3514 4.26482Z" fill="#231F2C"/>
<path d="M2 4.25C2.41421 4.25 2.75 4.58579 2.75 5V8C2.75 8.69036 3.30964 9.25 4 9.25C4.69036 9.25 5.25 8.69036 5.25 8V5C5.25 4.58579 5.58579 4.25 6 4.25C6.41421 4.25 6.75 4.58579 6.75 5V8C6.75 9.25878 5.90425 10.32 4.75 10.6465V19C4.75 19.4142 4.41421 19.75 4 19.75C3.58579 19.75 3.25 19.4142 3.25 19V10.6465C2.09575 10.32 1.25 9.25878 1.25 8V5C1.25 4.58579 1.58579 4.25 2 4.25Z" fill="#231F2C"/>
<path fill-rule="evenodd" clip-rule="evenodd" d="M12 6.25C8.82436 6.25 6.25 8.82436 6.25 12C6.25 15.1756 8.82436 17.75 12 17.75C15.1756 17.75 17.75 15.1756 17.75 12C17.75 8.82436 15.1756 6.25 12 6.25ZM13.25 10.5C13.25 10.0858 12.9142 9.75 12.5 9.75C12.0858 9.75 11.75 10.0858 11.75 10.5V11.1754L10.3859 10.3569C10.0307 10.1438 9.56998 10.2589 9.35687 10.6141C9.14376 10.9693 9.25893 11.43 9.61412 11.6431L12.1141 13.1431C12.3458 13.2821 12.6344 13.2858 12.8695 13.1526C13.1046 13.0195 13.25 12.7702 13.25 12.5V10.5Z" fill="#231F2C"/>
</svg>
