<svg width="24" height="24" viewBox="0 0 24 24" fill="none" xmlns="http://www.w3.org/2000/svg">
<path d="M11.3347 2.64478C11.3054 2.68832 11.2641 2.75039 11.2148 2.82634C11.1165 2.97759 10.9844 3.18698 10.8513 3.41656C10.7195 3.64368 10.5792 3.90337 10.4696 4.15283C10.3735 4.3715 10.25 4.69159 10.25 5C10.25 5.9665 11.0335 6.75 12 6.75C12.9665 6.75 13.75 5.9665 13.75 5C13.75 4.69159 13.6265 4.3715 13.5304 4.15283C13.4208 3.90337 13.2805 3.64368 13.1487 3.41656C13.0156 3.18698 12.8835 2.97759 12.7852 2.82634C12.7359 2.75039 12.6946 2.68832 12.6653 2.64478L12.5822 2.5272C12.4405 2.35263 12.2269 2.25 12 2.25C11.7811 2.25 11.5746 2.3455 11.4331 2.50895L11.3347 2.64478Z" fill="#231F2C"/>
<path d="M12.75 8C12.75 7.58579 12.4142 7.25 12 7.25C11.5858 7.25 11.25 7.58579 11.25 8V9.25H5C3.48122 9.25 2.25 10.4812 2.25 12V15.25H4C5.24264 15.25 6.25 14.2426 6.25 13C6.25 12.5858 6.58579 12.25 7 12.25C7.41421 12.25 7.75 12.5858 7.75 13V13.5C7.75 14.4665 8.5335 15.25 9.5 15.25C10.4665 15.25 11.25 14.4665 11.25 13.5V13C11.25 12.5858 11.5858 12.25 12 12.25C12.4142 12.25 12.75 12.5858 12.75 13V13.5C12.75 14.4665 13.5335 15.25 14.5 15.25C15.4665 15.25 16.25 14.4665 16.25 13.5V13C16.25 12.5858 16.5858 12.25 17 12.25C17.4142 12.25 17.75 12.5858 17.75 13C17.75 14.2426 18.7574 15.25 20 15.25H21.75V12C21.75 10.4812 20.5188 9.25 19 9.25H12.75V8Z" fill="#231F2C"/>
<path d="M2.25 19V16.75H4C5.15256 16.75 6.18368 16.23 6.87157 15.4119C7.46252 16.2229 8.4197 16.75 9.5 16.75C10.5052 16.75 11.4038 16.2936 12 15.5768C12.5962 16.2936 13.4948 16.75 14.5 16.75C15.5803 16.75 16.5375 16.2229 17.1284 15.4119C17.8163 16.23 18.8474 16.75 20 16.75H21.75V19C21.75 20.5188 20.5188 21.75 19 21.75H5C3.48122 21.75 2.25 20.5188 2.25 19Z" fill="#231F2C"/>
</svg>
