<svg width="24" height="24" viewBox="0 0 24 24" fill="none" xmlns="http://www.w3.org/2000/svg">
<path d="M12.25 11.5C12.25 10.8096 12.8096 10.25 13.5 10.25C14.1904 10.25 14.75 10.8096 14.75 11.5C14.75 12.1904 14.1904 12.75 13.5 12.75C12.8096 12.75 12.25 12.1904 12.25 11.5Z" fill="#231F2C"/>
<path fill-rule="evenodd" clip-rule="evenodd" d="M13.3279 3.33902L12.2273 4.8078L11.1455 4.39158C10.7839 4.25249 10.3759 4.41163 10.204 4.7588L6.26592 12.713C6.10205 13.044 6.20353 13.445 6.50511 13.6582L8.15329 14.8233L5.42683 16.2001L3.28094 15.3332C3.02554 15.23 2.73415 15.2752 2.52193 15.4507C2.3097 15.6263 2.2108 15.9041 2.26431 16.1743L3.24884 21.1457C3.30275 21.4179 3.50257 21.6381 3.7683 21.7181C4.03403 21.7981 4.32222 21.7249 4.51748 21.5277L6.35493 19.6721L12.3687 17.8033L14.4092 19.2458C15.8074 20.2343 17.7463 19.6935 18.4478 18.135L21.5067 11.3388C22.1592 9.8891 21.4514 8.17777 19.9548 7.63274L19.5025 7.46801V5.47538C19.5025 4.33835 18.8039 3.31479 17.7404 2.91205L16.4553 2.42534C15.3247 1.9972 14.0525 2.37185 13.3279 3.33902ZM15.924 3.82812C15.4228 3.63831 14.8551 3.80223 14.5283 4.23847L13.6935 5.35251L18.0025 6.92174V5.47538C18.0025 4.95457 17.6828 4.49419 17.2092 4.31483L15.924 3.82812ZM4.00519 17.2435L4.82525 17.5748L5.12434 18.783L4.44577 19.4683L4.00519 17.2435ZM13.5 8.75C11.9812 8.75 10.75 9.98122 10.75 11.5C10.75 13.0188 11.9812 14.25 13.5 14.25C15.0188 14.25 16.25 13.0188 16.25 11.5C16.25 9.98122 15.0188 8.75 13.5 8.75Z" fill="#231F2C"/>
</svg>
