<svg width="24" height="24" viewBox="0 0 24 24" fill="none" xmlns="http://www.w3.org/2000/svg">
<path d="M7.5 3.25C9.40895 3.25 11.0811 4.26288 12 5.78767C12.9189 4.26288 14.5911 3.25 16.5 3.25C19.3979 3.25 21.75 5.58419 21.75 8.5C21.75 12.0835 19.2883 15.1489 17.0068 17.2404C15.8473 18.3032 14.6911 19.154 13.8263 19.7386C13.3931 20.0313 13.0311 20.2586 12.776 20.4136C12.6483 20.491 12.5472 20.5505 12.4772 20.5911C12.4407 20.6123 12.4041 20.6333 12.3673 20.6539L12.3262 20.6754C12.1202 20.7749 11.8798 20.7749 11.6738 20.6754L11.6042 20.6378C11.5852 20.627 11.5579 20.6114 11.5228 20.5911C11.4528 20.5505 11.3517 20.491 11.224 20.4136C10.9689 20.2586 10.6069 20.0313 10.1738 19.7386C9.30885 19.154 8.15268 18.3032 6.99321 17.2404C4.71165 15.1489 2.25 12.0835 2.25 8.5C2.25 5.58419 4.60211 3.25 7.5 3.25Z" fill="#231F2C"/>
</svg>
