<svg width="24" height="24" viewBox="0 0 24 24" fill="none" xmlns="http://www.w3.org/2000/svg">
<path d="M12.75 3C12.75 2.58579 12.4142 2.25 12 2.25C11.5858 2.25 11.25 2.58579 11.25 3V4.18934L10.5303 3.46967C10.2374 3.17678 9.76256 3.17678 9.46967 3.46967C9.17678 3.76256 9.17678 4.23744 9.46967 4.53033L11.25 6.31066V9.09451C10.9747 9.16536 10.7148 9.2743 10.476 9.41536L9.75 8.68934V7C9.75 6.58579 9.41421 6.25 9 6.25C8.58579 6.25 8.25 6.58579 8.25 7V7.18934L7.53033 6.46967C7.23744 6.17678 6.76256 6.17678 6.46967 6.46967C6.17678 6.76256 6.17678 7.23744 6.46967 7.53033L7.18934 8.25H7C6.58579 8.25 6.25 8.58579 6.25 9C6.25 9.41421 6.58579 9.75 7 9.75H8.68934L9.41536 10.476C9.2743 10.7148 9.16536 10.9747 9.09451 11.25H6.31066L4.53033 9.46967C4.23744 9.17678 3.76256 9.17678 3.46967 9.46967C3.17678 9.76256 3.17678 10.2374 3.46967 10.5303L4.18934 11.25H3C2.58579 11.25 2.25 11.5858 2.25 12C2.25 12.4142 2.58579 12.75 3 12.75H4.18934L3.46967 13.4697C3.17678 13.7626 3.17678 14.2374 3.46967 14.5303C3.76256 14.8232 4.23744 14.8232 4.53033 14.5303L6.31066 12.75H9.09451C9.16536 13.0253 9.2743 13.2852 9.41536 13.524L8.68934 14.25H7C6.58579 14.25 6.25 14.5858 6.25 15C6.25 15.4142 6.58579 15.75 7 15.75H7.18934L6.46967 16.4697C6.17678 16.7626 6.17678 17.2374 6.46967 17.5303C6.76256 17.8232 7.23744 17.8232 7.53033 17.5303L8.25 16.8107V17C8.25 17.4142 8.58579 17.75 9 17.75C9.41421 17.75 9.75 17.4142 9.75 17V15.3107L10.476 14.5846C10.7148 14.7257 10.9747 14.8346 11.25 14.9055V17.6893L9.46967 19.4697C9.17678 19.7626 9.17678 20.2374 9.46967 20.5303C9.76256 20.8232 10.2374 20.8232 10.5303 20.5303L11.25 19.8107V21C11.25 21.4142 11.5858 21.75 12 21.75C12.4142 21.75 12.75 21.4142 12.75 21V19.8107L13.4697 20.5303C13.7626 20.8232 14.2374 20.8232 14.5303 20.5303C14.8232 20.2374 14.8232 19.7626 14.5303 19.4697L12.75 17.6893V14.9055C13.0253 14.8346 13.2852 14.7257 13.524 14.5846L14.25 15.3107V17C14.25 17.4142 14.5858 17.75 15 17.75C15.4142 17.75 15.75 17.4142 15.75 17V16.8107L16.4697 17.5303C16.7626 17.8232 17.2374 17.8232 17.5303 17.5303C17.8232 17.2374 17.8232 16.7626 17.5303 16.4697L16.8107 15.75H17C17.4142 15.75 17.75 15.4142 17.75 15C17.75 14.5858 17.4142 14.25 17 14.25H15.3107L14.5846 13.524C14.7257 13.2852 14.8346 13.0253 14.9055 12.75H17.6893L19.4697 14.5303C19.7626 14.8232 20.2374 14.8232 20.5303 14.5303C20.8232 14.2374 20.8232 13.7626 20.5303 13.4697L19.8107 12.75H21C21.4142 12.75 21.75 12.4142 21.75 12C21.75 11.5858 21.4142 11.25 21 11.25H19.8107L20.5303 10.5303C20.8232 10.2374 20.8232 9.76256 20.5303 9.46967C20.2374 9.17678 19.7626 9.17678 19.4697 9.46967L17.6893 11.25H14.9055C14.8346 10.9747 14.7257 10.7148 14.5846 10.476L15.3107 9.75H17C17.4142 9.75 17.75 9.41421 17.75 9C17.75 8.58579 17.4142 8.25 17 8.25H16.8107L17.5303 7.53033C17.8232 7.23744 17.8232 6.76256 17.5303 6.46967C17.2374 6.17678 16.7626 6.17678 16.4697 6.46967L15.75 7.18934V7C15.75 6.58579 15.4142 6.25 15 6.25C14.5858 6.25 14.25 6.58579 14.25 7V8.68934L13.524 9.41536C13.2852 9.2743 13.0253 9.16536 12.75 9.09451V6.31066L14.5303 4.53033C14.8232 4.23744 14.8232 3.76256 14.5303 3.46967C14.2374 3.17678 13.7626 3.17678 13.4697 3.46967L12.75 4.18934V3Z" fill="#231F2C"/>
</svg>
