<svg width="24" height="24" viewBox="0 0 24 24" fill="none" xmlns="http://www.w3.org/2000/svg">
<path fill-rule="evenodd" clip-rule="evenodd" d="M10.6894 3.29539C10.8525 2.91467 10.6762 2.47376 10.2954 2.31059C9.91472 2.14742 9.47381 2.32379 9.31064 2.70451L6.50545 9.24995H4C3.0335 9.24995 2.25 10.0335 2.25 10.9999C2.25 11.5773 2.42565 13.238 2.62083 14.9251C2.81942 16.6417 3.04827 18.4653 3.16973 19.4206C3.26067 20.136 3.78452 20.7292 4.50619 20.8844C5.82391 21.1677 8.90278 21.7499 12 21.7499C15.0972 21.7499 18.1761 21.1677 19.4938 20.8844C20.2155 20.7292 20.7393 20.136 20.8303 19.4206C20.9517 18.4653 21.1806 16.6417 21.3792 14.9251C21.5744 13.238 21.75 11.5773 21.75 10.9999C21.75 10.0335 20.9665 9.24995 20 9.24995H17.4945L14.6894 2.70451C14.5262 2.32379 14.0853 2.14742 13.7046 2.31059C13.3238 2.47376 13.1475 2.91467 13.3106 3.29539L15.8626 9.24995H8.1374L10.6894 3.29539ZM7.74633 12.9254C7.70512 12.5133 7.33759 12.2126 6.92543 12.2538C6.51327 12.295 6.21256 12.6625 6.25378 13.0747L6.75378 18.0747C6.79499 18.4868 7.16253 18.7875 7.57468 18.7463C7.98684 18.7051 8.28755 18.3376 8.24633 17.9254L7.74633 12.9254ZM17.7463 13.0747C17.7875 12.6625 17.4868 12.295 17.0747 12.2538C16.6625 12.2126 16.295 12.5133 16.2538 12.9254L15.7538 17.9254C15.7126 18.3376 16.0133 18.7051 16.4254 18.7463C16.8376 18.7875 17.2051 18.4868 17.2463 18.0747L17.7463 13.0747ZM12.7501 13.0001C12.7501 12.5858 12.4143 12.2501 12.0001 12.2501C11.5858 12.2501 11.2501 12.5858 11.2501 13.0001V18.0001C11.2501 18.4143 11.5858 18.7501 12.0001 18.7501C12.4143 18.7501 12.7501 18.4143 12.7501 18.0001V13.0001Z" fill="#231F2C"/>
</svg>
