<svg width="24" height="24" viewBox="0 0 24 24" fill="none" xmlns="http://www.w3.org/2000/svg">
<path fill-rule="evenodd" clip-rule="evenodd" d="M1.35449 12.0552C1.35449 6.14697 6.14404 1.35742 12.0522 1.35742C17.9605 1.35742 22.75 6.14697 22.75 12.0552C22.75 17.9634 17.9605 22.7529 12.0522 22.7529C6.14404 22.7529 1.35449 17.9634 1.35449 12.0552ZM9.92928 9.77039C10.1447 9.929 10.2666 10.1515 10.295 10.438H11.7688C11.7617 10.0048 11.6457 9.62361 11.4208 9.29453C11.1958 8.96546 10.881 8.7086 10.4762 8.52394C10.0737 8.33928 9.60257 8.24695 9.0628 8.24695C8.5325 8.24695 8.05901 8.33928 7.64235 8.52394C7.22568 8.7086 6.89779 8.96546 6.65868 9.29453C6.42194 9.62361 6.30475 10.0083 6.30712 10.4487C6.30475 10.9861 6.48112 11.4134 6.83624 11.7306C7.19135 12.0478 7.67549 12.281 8.28865 12.4302L9.08056 12.6291C9.34571 12.693 9.56943 12.764 9.75172 12.8421C9.93638 12.9202 10.0761 13.0149 10.1708 13.1262C10.2678 13.2375 10.3164 13.3748 10.3164 13.5381C10.3164 13.7133 10.2631 13.8684 10.1565 14.0033C10.05 14.1383 9.89968 14.2436 9.70555 14.3194C9.51379 14.3951 9.2877 14.433 9.02729 14.433C8.76214 14.433 8.52421 14.3928 8.31351 14.3123C8.10518 14.2294 7.93827 14.1075 7.8128 13.9465C7.68969 13.7832 7.61985 13.5796 7.60328 13.3357H6.11536C6.12719 13.8589 6.25385 14.2981 6.49533 14.6532C6.73917 15.0059 7.07771 15.2723 7.51095 15.4522C7.94656 15.6321 8.45792 15.7221 9.04504 15.7221C9.6369 15.7221 10.1423 15.6333 10.5614 15.4558C10.9828 15.2758 11.3048 15.0237 11.5273 14.6994C11.7522 14.3727 11.8658 13.9868 11.8682 13.5417C11.8658 13.2387 11.8102 12.97 11.7013 12.7356C11.5948 12.5012 11.4444 12.2976 11.2503 12.1248C11.0562 11.952 10.8265 11.8064 10.5614 11.688C10.2962 11.5696 10.005 11.4749 9.6878 11.4039L9.03439 11.2477C8.87577 11.2121 8.72663 11.1695 8.58695 11.1198C8.44727 11.0677 8.32416 11.0074 8.21763 10.9387C8.11109 10.8677 8.02705 10.7836 7.9655 10.6866C7.90631 10.5895 7.87909 10.4759 7.88382 10.3457C7.88382 10.1894 7.9288 10.0497 8.01877 9.92664C8.1111 9.80353 8.24367 9.70765 8.41649 9.63899C8.58931 9.56797 8.8012 9.53246 9.05215 9.53246C9.42146 9.53246 9.71384 9.61177 9.92928 9.77039ZM17.8847 10.1646H16.3719V13.2967C16.3743 13.5405 16.3258 13.7453 16.2263 13.911C16.1293 14.0767 16.0014 14.2022 15.8428 14.2874C15.6842 14.3703 15.5137 14.4117 15.3314 14.4117C15.045 14.4117 14.8165 14.3182 14.6461 14.1312C14.4756 13.9442 14.3892 13.6897 14.3868 13.3677V10.1646H12.8741V13.6376C12.8764 14.0637 12.9545 14.4295 13.1084 14.7349C13.2647 15.0403 13.4813 15.2758 13.7583 15.4416C14.0353 15.6073 14.3561 15.6901 14.7206 15.6901C15.1302 15.6901 15.477 15.5931 15.7611 15.3989C16.0476 15.2048 16.2524 14.9479 16.3755 14.6283H16.4323V15.6191H17.8847V10.1646Z" fill="#231F2C"/>
</svg>
