<svg width="24" height="24" viewBox="0 0 24 24" fill="none" xmlns="http://www.w3.org/2000/svg">
<path fill-rule="evenodd" clip-rule="evenodd" d="M14.9855 2.5046C15.5869 1.4923 16.8471 1.64398 17.4807 2.27764L21.7229 6.51978C22.3569 7.15381 22.5075 8.41354 21.4956 9.01477C20.4485 9.63692 19.2137 9.82203 18.055 9.56951C18.388 11.097 17.9607 12.7569 16.7732 13.9445L13.9447 16.7729C12.7572 17.9604 11.0973 18.3877 9.56982 18.0548C9.82235 19.2135 9.63722 20.4483 9.01506 21.4954C8.41397 22.507 7.15452 22.357 6.52027 21.7228L2.27757 17.4801C1.6435 16.846 1.49307 15.5864 2.50488 14.9852C3.55195 14.363 4.7867 14.1779 5.94537 14.4304C5.61237 12.9029 6.03965 11.2429 7.22723 10.0554L10.0557 7.22695C11.2432 6.03937 12.9032 5.61209 14.4307 5.94511C14.1782 4.78643 14.3633 3.55167 14.9855 2.5046ZM17.6852 5.78314C17.7664 5.37697 17.503 4.98185 17.0968 4.90062C16.6907 4.81938 16.2955 5.08279 16.2143 5.48896L15.8608 7.25673C15.8116 7.50263 15.8885 7.75683 16.0659 7.93415C16.2432 8.11147 16.4974 8.18843 16.7433 8.13925L18.511 7.7857C18.9172 7.70447 19.1806 7.30935 19.0994 6.90318C19.0182 6.49701 18.623 6.2336 18.2169 6.31483L17.5523 6.44775L17.6852 5.78314ZM4.90074 17.0968C4.98197 17.503 5.37709 17.7664 5.78326 17.6852L6.44787 17.5523L6.31495 18.2169C6.23372 18.623 6.49713 19.0182 6.9033 19.0994C7.30947 19.1806 7.70459 18.9172 7.78582 18.511L8.13938 16.7433C8.18855 16.4974 8.11159 16.2432 7.93427 16.0659C7.75695 15.8885 7.50275 15.8116 7.25685 15.8608L5.48909 16.2143C5.08292 16.2955 4.8195 16.6907 4.90074 17.0968ZM14.1644 8.00007C14.1644 7.58585 13.8286 7.25006 13.4144 7.25005C13.0002 7.25005 12.6644 7.58583 12.6644 8.00004L12.6643 12C12.6643 12.4142 13.0001 12.75 13.4143 12.75C13.8285 12.75 14.1643 12.4142 14.1643 12L14.1644 8.00007ZM11.3359 12C11.3359 11.5858 11.0001 11.25 10.5859 11.25C10.1717 11.25 9.83587 11.5858 9.83587 12L9.83589 16.0001C9.83589 16.4143 10.1717 16.7501 10.5859 16.7501C11.0001 16.7501 11.3359 16.4143 11.3359 16.0001L11.3359 12Z" fill="#231F2C"/>
</svg>
