<svg width="24" height="24" viewBox="0 0 24 24" fill="none" xmlns="http://www.w3.org/2000/svg">
<path fill-rule="evenodd" clip-rule="evenodd" d="M1.35449 12.0552C1.35449 6.14697 6.14404 1.35742 12.0522 1.35742C17.9605 1.35742 22.75 6.14697 22.75 12.0552C22.75 17.9634 17.9605 22.7529 12.0522 22.7529C6.14404 22.7529 1.35449 17.9634 1.35449 12.0552ZM7.47852 8.34631V15.619H9.01616V12.6148H11.9743V11.347H9.01616V9.61407H12.2939V8.34631H7.47852ZM13.2118 10.1645V15.619H14.7246V12.5331C14.7246 12.3106 14.7743 12.1141 14.8738 11.9436C14.9756 11.7732 15.1129 11.6406 15.2857 11.5459C15.4609 11.4488 15.6597 11.4003 15.8823 11.4003C15.9864 11.4003 16.1013 11.4086 16.2267 11.4251C16.3522 11.4417 16.4505 11.4607 16.5215 11.482V10.1396C16.4552 10.1231 16.3783 10.11 16.2907 10.1006C16.2031 10.0911 16.1214 10.0864 16.0456 10.0864C15.7402 10.0864 15.4703 10.174 15.236 10.3492C15.0016 10.522 14.8347 10.7777 14.7353 11.1162H14.6784V10.1645H13.2118Z" fill="#231F2C"/>
</svg>
