<svg width="24" height="24" viewBox="0 0 24 24" fill="none" xmlns="http://www.w3.org/2000/svg">
<path d="M12.75 2C12.75 1.58579 12.4142 1.25 12 1.25C11.5858 1.25 11.25 1.58579 11.25 2V2.93696C11.25 3.15602 11.1852 3.37018 11.0636 3.55245C10.4793 4.42902 10.4793 5.57098 11.0636 6.44755L11.376 6.91603C11.6057 7.26067 12.0714 7.3538 12.416 7.12404C12.7607 6.89427 12.8538 6.42862 12.624 6.08397L12.3117 5.6155C12.0632 5.24278 12.0632 4.75722 12.3117 4.3845C12.5975 3.95583 12.75 3.45216 12.75 2.93696V2Z" fill="#231F2C"/>
<path d="M10.25 3C10.25 2.58579 9.91422 2.25 9.5 2.25C9.08579 2.25 8.75001 2.58579 8.75001 3C8.75001 3.17796 8.69733 3.35193 8.59862 3.5L8.56365 3.55245C7.97927 4.42902 7.97927 5.57098 8.56365 6.44755L8.87597 6.91603C9.10573 7.26067 9.57138 7.3538 9.91603 7.12404C10.2607 6.89427 10.3538 6.42862 10.124 6.08397L9.81172 5.6155C9.56325 5.24278 9.56325 4.75722 9.81172 4.3845L9.84669 4.33205C10.1097 3.93758 10.25 3.47409 10.25 3Z" fill="#231F2C"/>
<path d="M15.25 3C15.25 2.58579 14.9142 2.25 14.5 2.25C14.0858 2.25 13.75 2.58579 13.75 3C13.75 3.17796 13.6973 3.35193 13.5986 3.5L13.5636 3.55245C12.9793 4.42902 12.9793 5.57098 13.5636 6.44755L13.876 6.91603C14.1057 7.26067 14.5714 7.3538 14.916 7.12404C15.2607 6.89427 15.3538 6.42862 15.124 6.08397L14.8117 5.6155C14.5632 5.24278 14.5632 4.75722 14.8117 4.3845L14.8467 4.33205C15.1097 3.93758 15.25 3.47409 15.25 3Z" fill="#231F2C"/>
<path fill-rule="evenodd" clip-rule="evenodd" d="M8.05257 16.6708C5.77609 15.3207 4.25 12.8386 4.25 10V9C4.25 8.58579 4.58579 8.25 5 8.25H19C19.4142 8.25 19.75 8.58579 19.75 9V10C19.75 12.9126 18.1434 15.4498 15.768 16.774L16.9297 18.3229C17.1118 18.2753 17.303 18.25 17.5 18.25C18.7426 18.25 19.75 19.2574 19.75 20.5C19.75 21.7426 18.7426 22.75 17.5 22.75C16.5203 22.75 15.6869 22.1239 15.378 21.25H7.26343L6.65844 22.3592C6.46009 22.7228 6.00452 22.8568 5.64088 22.6584C5.27724 22.4601 5.14325 22.0045 5.3416 21.6409L8.05257 16.6708ZM14.3564 17.3853C13.6134 17.6221 12.8216 17.75 12 17.75C11.0931 17.75 10.2225 17.5942 9.41365 17.3079L8.08161 19.75H15.378C15.4525 19.5394 15.5574 19.3432 15.6875 19.1666L14.4 17.45C14.3842 17.429 14.3697 17.4073 14.3564 17.3853ZM16.75 20.5L16.75 20.5036C16.752 20.9162 17.087 21.25 17.5 21.25C17.9142 21.25 18.25 20.9142 18.25 20.5C18.25 20.0858 17.9142 19.75 17.5 19.75C17.0866 19.75 16.7513 20.0845 16.75 20.4976L16.75 20.5Z" fill="#231F2C"/>
</svg>
