<svg width="24" height="24" viewBox="0 0 24 24" fill="none" xmlns="http://www.w3.org/2000/svg">
<path d="M21.6103 3.43594C21.8234 3.1376 21.7896 2.72893 21.5303 2.46968C21.2711 2.21043 20.8624 2.17661 20.5641 2.38971L18.008 4.21551L17.7354 2.85292C17.6653 2.50235 17.3575 2.25001 17 2.25001C16.6425 2.25001 16.3347 2.50235 16.2646 2.85292L15.7646 5.35292C15.7154 5.59882 15.7924 5.85302 15.9697 6.03034L17.9697 8.03034C18.147 8.20766 18.4012 8.28462 18.6471 8.23545L21.1471 7.73545C21.4977 7.66533 21.75 7.35752 21.75 7.00001C21.75 6.6425 21.4977 6.33469 21.1471 6.26457L19.7845 5.99206L21.6103 3.43594Z" fill="#231F2C"/>
<path d="M9.61345 5.5522C10.4773 4.718 11.7649 4.35041 12.9689 4.92498C13.961 5.39842 15.2478 6.18713 16.5303 7.46968C17.8129 8.75226 18.6017 10.0391 19.0751 11.0312C19.7235 12.39 19.172 13.8552 18.1041 14.6976C17.2707 15.3551 16.1183 16.2298 14.8408 17.0985C14.6046 17.2592 14.2879 17.2273 14.0859 17.0253L11.5303 14.4697C11.2375 14.1768 10.7626 14.1768 10.4697 14.4697C10.1768 14.7626 10.1768 15.2375 10.4697 15.5304L12.5985 17.6592C12.8733 17.934 12.8185 18.3939 12.4819 18.5882C12.4453 18.6093 12.4088 18.6303 12.3722 18.6512C9.61166 20.2286 6.279 21.1923 4.87296 21.5576C4.17734 21.7384 3.46024 21.5209 2.96973 21.0303C2.47922 20.5398 2.26172 19.8227 2.44247 19.1271C2.63819 18.3739 3.00563 17.0676 3.54717 15.5927C3.67134 15.2545 4.10326 15.1639 4.35801 15.4187L5.46968 16.5304C5.76257 16.8233 6.23745 16.8233 6.53034 16.5304C6.82324 16.2375 6.82324 15.7626 6.53035 15.4697L4.84331 13.7827C4.60686 13.5462 4.54122 13.1871 4.68724 12.8863C4.8943 12.4597 5.11483 12.0375 5.34888 11.6279C6.10509 10.3045 6.99784 8.98623 7.82086 7.85217C8.03587 7.55591 8.46427 7.52494 8.72311 7.78378L11.4697 10.5304C11.7626 10.8233 12.2374 10.8233 12.5303 10.5304C12.8232 10.2375 12.8232 9.7626 12.5303 9.46971L9.52593 6.46528C9.31149 6.25083 9.28357 5.90366 9.48876 5.68034C9.52903 5.63651 9.57039 5.59378 9.61345 5.5522Z" fill="#231F2C"/>
</svg>
