<svg width="24" height="24" viewBox="0 0 24 24" fill="none" xmlns="http://www.w3.org/2000/svg">
<path d="M9.25 12.25C9.25 10.7312 10.4812 9.5 12 9.5C13.5188 9.5 14.75 10.7312 14.75 12.25C14.75 13.7688 13.5188 15 12 15C10.4812 15 9.25 13.7688 9.25 12.25Z" fill="#231F2C"/>
<path fill-rule="evenodd" clip-rule="evenodd" d="M18.2046 17.4257C18.6901 17.4418 19.1516 17.3532 19.5796 17.1681C20.7053 16.6813 21.4057 15.6056 21.6494 14.5218C21.8921 13.4419 21.7178 12.1771 20.8536 11.3146C20.5415 11.0032 20.1653 10.7691 19.7309 10.6181C20.2095 10.0695 20.4793 9.4374 20.5556 8.77761C20.6793 7.70771 20.2832 6.66151 19.6333 5.90292C18.996 5.1592 18.0496 4.61986 16.9848 4.65934C16.4518 4.6791 15.9327 4.84181 15.4474 5.14891C15.3785 4.66188 15.2195 4.22046 14.9786 3.83071C14.3119 2.75187 13.1259 2.25 12.0005 2.25C10.875 2.25 9.68905 2.75187 9.0222 3.83064C8.78131 4.22033 8.62225 4.66168 8.55325 5.14865C8.23503 4.94756 7.90053 4.80787 7.5535 4.72951C6.39206 4.46724 5.30805 4.9421 4.56753 5.68501C3.8298 6.42512 3.35315 7.5036 3.42998 8.62045C3.47911 9.33469 3.75188 10.0251 4.27028 10.619C3.66848 10.8283 3.18614 11.1922 2.84038 11.6758C2.27771 12.4627 2.15277 13.4603 2.31731 14.3582C2.48225 15.2582 2.95323 16.1502 3.70941 16.7437C4.28102 17.1924 4.99322 17.4511 5.79575 17.425C5.52499 18.2643 5.63958 19.0857 6.02465 19.7838C6.51392 20.6709 7.40711 21.3082 8.35392 21.5879C9.30372 21.8685 10.42 21.8187 11.3171 21.1616C11.5776 20.9708 11.806 20.7388 11.9996 20.4672C12.2699 20.8473 12.6073 21.1479 13.0021 21.3653C14.0565 21.9459 15.3149 21.8141 16.2978 21.3334C17.2798 20.8532 18.1549 19.9417 18.3232 18.7511C18.3856 18.3098 18.3467 17.8649 18.2046 17.4257ZM12 8C9.65279 8 7.75 9.90279 7.75 12.25C7.75 14.5972 9.65279 16.5 12 16.5C14.3472 16.5 16.25 14.5972 16.25 12.25C16.25 9.90279 14.3472 8 12 8Z" fill="#231F2C"/>
</svg>
