<svg width="24" height="24" viewBox="0 0 24 24" fill="none" xmlns="http://www.w3.org/2000/svg">
<path d="M21.75 3.00001C21.75 2.78118 21.6544 2.57327 21.4883 2.43078C21.3223 2.2883 21.1022 2.22545 20.886 2.25873L7.88596 4.25873C7.52008 4.31501 7.25 4.62983 7.25 5.00001V15.7609C6.74485 15.4375 6.14432 15.25 5.5 15.25C3.70507 15.25 2.25 16.7051 2.25 18.5C2.25 20.2949 3.70507 21.75 5.5 21.75C7.29411 21.75 8.74868 20.2962 8.75 18.5024L8.75 18.5V9.64344L20.25 7.87421V13.7609C19.7449 13.4375 19.1443 13.25 18.5 13.25C16.7051 13.25 15.25 14.7051 15.25 16.5C15.25 18.2949 16.7051 19.75 18.5 19.75C20.2941 19.75 21.7487 18.2962 21.75 16.5024L21.75 16.5V3.00001Z" fill="#231F2C"/>
</svg>
