<svg width="24" height="24" viewBox="0 0 24 24" fill="none" xmlns="http://www.w3.org/2000/svg">
<path fill-rule="evenodd" clip-rule="evenodd" d="M12 1.25C6.06294 1.25 1.25 6.06294 1.25 12C1.25 17.9371 6.06294 22.75 12 22.75C17.9371 22.75 22.75 17.9371 22.75 12C22.75 6.06294 17.9371 1.25 12 1.25ZM9.55617 3.07625C10.3347 2.86356 11.1541 2.75 12 2.75C14.9461 2.75 17.5706 4.12734 19.2645 6.27323C19.0628 6.24646 18.8395 6.23168 18.5875 6.23687C18.5778 6.23707 18.5681 6.23746 18.5585 6.23803C17.5866 6.29582 16.7823 6.78869 16.1725 7.39331C15.5642 7.9964 15.1054 8.75138 14.8058 9.45253C14.4161 10.3397 14.6593 11.1858 15.2069 11.7531C15.7237 12.2886 16.5026 12.5775 17.2701 12.5188C17.812 12.487 18.1614 12.3189 18.3515 12.2274C18.3826 12.2124 18.4095 12.1995 18.4322 12.1896C18.4909 12.1639 18.5038 12.1638 18.5111 12.1637L18.5126 12.1637C18.5274 12.1634 18.5789 12.1646 18.6909 12.1983L18.6906 12.2038C18.6883 12.2582 18.68 12.3257 18.6649 12.4137C18.664 12.4188 18.6632 12.4239 18.6625 12.429C18.6619 12.4324 18.6615 12.4358 18.661 12.4392C18.5312 13.3941 18.9407 14.2038 19.3075 14.8184C19.3996 14.9727 19.4954 15.1245 19.5852 15.2667L19.5919 15.2773C19.6854 15.4254 19.7722 15.5632 19.8532 15.6995C19.9948 15.9378 20.1022 16.1454 20.1722 16.3372C18.6826 19.1382 15.795 21.0826 12.4401 21.2397C12.4148 20.9788 12.3373 20.7464 12.2831 20.5882L12.2533 20.5013C12.1969 20.3375 12.1659 20.2476 12.1514 20.1587C12.1493 20.1459 12.1469 20.1332 12.1442 20.1205C12.1237 20.0261 12.1239 19.9229 12.3913 19.6762C12.5092 19.5673 12.6416 19.4654 12.8026 19.3415L12.8829 19.2796C13.0624 19.1409 13.287 18.9645 13.4718 18.7607C13.7973 18.4021 14.0804 17.9307 14.3138 17.504C14.4335 17.2852 14.5472 17.0647 14.6514 16.8617L14.6792 16.8076C14.7735 16.6239 14.8585 16.4582 14.9381 16.3111C15.1294 15.964 15.2845 15.519 15.2979 15.054C15.3117 14.5754 15.1717 14.0299 14.7138 13.616C13.2471 12.28 11.5254 11.7863 9.77081 11.5698C9.33344 11.5095 8.81115 11.4512 8.28588 11.4642C7.76223 11.4772 7.18375 11.5616 6.66134 11.826C6.5975 11.8583 6.53861 11.8996 6.48646 11.9486C6.01986 12.387 5.83751 12.927 5.7921 13.3901C5.74792 13.8405 5.8279 14.2547 5.93028 14.5283C5.93843 14.5501 5.94758 14.5715 5.95772 14.5924C6.32561 15.3522 7.01058 15.8287 7.50254 16.171L7.50354 16.1716C7.54323 16.1993 7.58166 16.226 7.61856 16.2519C8.19133 16.6546 8.4768 16.9084 8.57583 17.2534L8.57684 17.2569C8.65444 17.5224 8.70436 17.8127 8.74884 18.1401C8.76287 18.2434 8.77696 18.3558 8.7916 18.4726C8.82023 18.7012 8.85101 18.9468 8.88777 19.175C8.976 19.7227 9.11901 20.3294 9.4569 20.896C5.97321 19.902 3.32912 16.917 2.83375 13.25H2.99997C3.44105 13.25 3.79843 13.0451 4.05413 12.8275C4.31103 12.6088 4.52186 12.3309 4.68985 12.0634C5.02528 11.5294 5.26872 10.9094 5.39545 10.4949C5.43327 10.4829 5.49971 10.4679 5.60537 10.4597C5.75718 10.4479 5.9341 10.4538 6.13064 10.4674C6.18353 10.4711 6.24402 10.4759 6.30726 10.4809L6.30827 10.481C6.44251 10.4917 6.58935 10.5035 6.70149 10.5072C7.17076 10.5258 7.50576 10.2429 7.68148 10.0593C7.87715 9.85478 8.0393 9.60111 8.16626 9.3786C8.29676 9.14986 8.41424 8.91022 8.50831 8.71764C8.6122 8.50496 8.67365 8.38013 8.71429 8.31452C8.95782 7.92571 9.20326 7.74278 9.4487 7.65717C9.70753 7.5669 10.0628 7.55136 10.5784 7.67557L10.5955 7.67949C11.3024 7.83232 11.9552 7.74304 12.466 7.41273C12.9766 7.08263 13.2715 6.5568 13.3274 5.9976C13.4432 4.83894 12.5733 3.74844 11.0726 3.48656L11.0661 3.48546C10.5948 3.40746 10.146 3.43211 9.78174 3.47428L9.71871 3.48184C9.71605 3.45088 9.71146 3.41995 9.7049 3.38923C9.68019 3.2736 9.6288 3.16667 9.55617 3.07625Z" fill="#231F2C"/>
</svg>
