<svg width="24" height="24" viewBox="0 0 24 24" fill="none" xmlns="http://www.w3.org/2000/svg">
<path fill-rule="evenodd" clip-rule="evenodd" d="M14.2501 5.5C14.2501 5.8405 14.1745 6.16333 14.0391 6.45261C15.8201 6.82307 17.3142 7.69209 18.4401 8.98176C19.6298 10.3445 20.3708 12.133 20.6378 14.2021C20.7111 14.7696 20.2514 15.25 19.6791 15.25H4.32104C3.74882 15.25 3.2891 14.7696 3.36234 14.2021C3.62936 12.133 4.37042 10.3445 5.5601 8.98176C6.686 7.69209 8.18011 6.82307 9.9611 6.45261C9.82572 6.16333 9.75009 5.8405 9.75009 5.5C9.75009 4.25736 10.7574 3.25 12.0001 3.25C13.2427 3.25 14.2501 4.25736 14.2501 5.5ZM12.0001 4.75C11.5859 4.75 11.2501 5.08579 11.2501 5.5C11.2501 5.91421 11.5859 6.25 12.0001 6.25C12.4143 6.25 12.7501 5.91421 12.7501 5.5C12.7501 5.08579 12.4143 4.75 12.0001 4.75ZM12.9588 8.38646C13.0215 7.97702 13.4042 7.69593 13.8137 7.75862C15.4128 8.00349 16.6932 8.79146 17.5029 10.0118C17.7319 10.3569 17.6377 10.8224 17.2926 11.0514C16.9474 11.2804 16.482 11.1862 16.253 10.8411C15.6996 10.007 14.8102 9.4287 13.5866 9.24134C13.1772 9.17865 12.8961 8.79591 12.9588 8.38646Z" fill="#231F2C"/>
<path d="M2.66213 16.75C2.20757 16.75 1.93644 17.2566 2.18858 17.6348C3.06955 18.9563 4.55264 19.75 6.14082 19.75H17.8594C19.4475 19.75 20.9306 18.9563 21.8116 17.6348C22.0637 17.2566 21.7926 16.75 21.338 16.75H2.66213Z" fill="#231F2C"/>
</svg>
