<svg width="24" height="24" viewBox="0 0 24 24" fill="none" xmlns="http://www.w3.org/2000/svg">
<path fill-rule="evenodd" clip-rule="evenodd" d="M14.2372 2.13825C14.2997 1.80457 14.1303 1.47047 13.8242 1.32372C13.518 1.17697 13.1515 1.25418 12.9306 1.51194C12.7986 1.66592 12.6675 1.81802 12.5378 1.96863C11.2275 3.48939 10.0488 4.85746 9.37177 6.45781C8.7277 7.98018 8.54778 9.66701 8.96342 11.8546C8.52251 11.6148 8.18946 11.3014 7.92901 10.9237C7.45297 10.2335 7.16865 9.25517 7.03305 7.92403C6.99773 7.57735 6.72828 7.30067 6.38266 7.25618C6.03704 7.21169 5.70631 7.41111 5.58434 7.73754C4.74426 9.98601 4.25 12.5661 4.25 15C4.25 19.2802 7.71979 22.75 12 22.75C16.2802 22.75 19.75 19.2802 19.75 15C19.75 12.4438 18.2215 10.9674 16.8764 9.66812C16.6512 9.45056 16.431 9.23786 16.2241 9.02598C15.4707 8.25456 14.8203 7.45567 14.4288 6.41167C14.0402 5.37527 13.8825 4.03001 14.2372 2.13825ZM13.9566 13.1442C13.7964 13.3576 13.7234 13.5669 13.6518 13.7723C13.4603 14.3215 13.2787 14.8426 11.4663 15.3378C8.97602 16.0182 9.87172 19.4689 12.5468 18.9464C14.3157 18.6008 15 17.25 15 15.9095C15 14.569 14.8359 13.817 14.5464 13.1844C14.4437 12.9545 14.114 12.9378 13.9566 13.1442Z" fill="#231F2C"/>
</svg>
