<svg width="24" height="24" viewBox="0 0 24 24" fill="none" xmlns="http://www.w3.org/2000/svg">
<path d="M6.37803 5.25C6.29512 5.01542 6.25 4.76298 6.25 4.5C6.25 3.25736 7.25736 2.25 8.5 2.25C9.86111 2.25 10.9312 3.24595 11.5762 4.01986C11.7329 4.20792 11.8746 4.39516 12 4.57194C12.1254 4.39516 12.2671 4.20792 12.4238 4.01986C13.0688 3.24595 14.1389 2.25 15.5 2.25C16.7426 2.25 17.75 3.25736 17.75 4.5C17.75 4.76298 17.7049 5.01542 17.622 5.25H19C20.5188 5.25 21.75 6.48122 21.75 8V9.25C21.75 9.80228 21.3023 10.25 20.75 10.25H14.87V5.65C14.87 5.42909 15.0491 5.25 15.27 5.25H15.5C15.9142 5.25 16.25 4.91421 16.25 4.5C16.25 4.08579 15.9142 3.75 15.5 3.75C14.8611 3.75 14.1812 4.25405 13.5762 4.98014C13.5381 5.02579 13.5011 5.07151 13.465 5.11709C13.3974 5.20256 13.3624 5.30898 13.3625 5.41797L13.37 10.25H10.63V5.41866C10.63 5.30925 10.5941 5.20284 10.5278 5.11585C10.4781 5.05065 10.428 4.98517 10.4238 4.98014C9.81876 4.25405 9.13889 3.75 8.5 3.75C8.08579 3.75 7.75 4.08579 7.75 4.5C7.75 4.91421 8.08579 5.25 8.5 5.25H8.73C8.95092 5.25 9.13 5.42909 9.13 5.65V10.25H3.25C2.69772 10.25 2.25 9.80228 2.25 9.25V8C2.25 6.48122 3.48122 5.25 5 5.25H6.37803Z" fill="#231F2C"/>
<path d="M3.75 11.75C3.47386 11.75 3.25 11.9739 3.25 12.25V19C3.25 20.5188 4.48122 21.75 6 21.75H9.13V11.75H3.75Z" fill="#231F2C"/>
<path d="M10.63 21.75H13.37V11.75H10.63V21.75Z" fill="#231F2C"/>
<path d="M14.87 21.75H18C19.5188 21.75 20.75 20.5188 20.75 19V12.25C20.75 11.9739 20.5261 11.75 20.25 11.75H14.87V21.75Z" fill="#231F2C"/>
</svg>
