<svg width="24" height="24" viewBox="0 0 24 24" fill="none" xmlns="http://www.w3.org/2000/svg">
<path fill-rule="evenodd" clip-rule="evenodd" d="M1.25 12C1.25 6.06294 6.06294 1.25 12 1.25C17.9371 1.25 22.75 6.06294 22.75 12C22.75 17.9371 17.9371 22.75 12 22.75C6.06294 22.75 1.25 17.9371 1.25 12ZM6.40004 6.55004C6.64857 6.21867 7.11867 6.15152 7.45004 6.40004L9.45004 7.90004C9.6389 8.04169 9.75004 8.26398 9.75004 8.50004C9.75004 8.73611 9.6389 8.9584 9.45004 9.10004L7.45004 10.6C7.11867 10.8486 6.64857 10.7814 6.40004 10.45C6.15152 10.1187 6.21867 9.64857 6.55004 9.40004L7.75004 8.50004L6.55004 7.60004C6.21867 7.35152 6.15152 6.88141 6.40004 6.55004ZM5.42312 13.2602L5.37453 13.2548C5.12438 13.2264 4.87666 13.3254 4.71499 13.5184C4.55332 13.7114 4.49927 13.9726 4.57109 14.2139C5.52368 17.4147 8.48817 19.75 12 19.75C15.5119 19.75 18.4764 17.4147 19.429 14.2139C19.5007 13.973 19.447 13.7122 19.2859 13.5193C19.1248 13.3264 18.877 13.227 18.6272 13.2546L18.5778 13.26L18.4317 13.2757C18.3046 13.2893 18.1203 13.3087 17.8922 13.332C17.4358 13.3787 16.8049 13.4408 16.1065 13.503C14.6998 13.6281 13.053 13.75 12 13.75C10.8842 13.75 9.23678 13.628 7.84742 13.503C7.15721 13.4409 6.53831 13.3788 6.09198 13.3322C5.86889 13.3089 5.68909 13.2895 5.56526 13.2759L5.42312 13.2602ZM17.45 7.60004C17.7814 7.35152 17.8486 6.88141 17.6 6.55004C17.3515 6.21867 16.8814 6.15152 16.55 6.40004L14.55 7.90004C14.3612 8.04169 14.25 8.26398 14.25 8.50004C14.25 8.73611 14.3612 8.9584 14.55 9.10004L16.55 10.6C16.8814 10.8486 17.3515 10.7814 17.6 10.45C17.8486 10.1187 17.7814 9.64857 17.45 9.40004L16.25 8.50004L17.45 7.60004Z" fill="#231F2C"/>
</svg>
