<svg width="24" height="24" viewBox="0 0 24 24" fill="none" xmlns="http://www.w3.org/2000/svg">
<path d="M15.644 14.5467C15.4735 14.6343 15.277 14.6781 15.0545 14.6781C14.8225 14.6781 14.6307 14.6248 14.4792 14.5183C14.33 14.4094 14.2555 14.2519 14.2555 14.046C14.2555 13.9039 14.2922 13.7855 14.3655 13.6908C14.4389 13.5938 14.5419 13.5168 14.6745 13.46C14.8071 13.4032 14.9621 13.3618 15.1397 13.3357C15.2226 13.3239 15.3149 13.3109 15.4167 13.2967C15.5185 13.2801 15.6203 13.2623 15.7221 13.2434C15.8239 13.2221 15.915 13.1996 15.9955 13.1759C16.0784 13.1499 16.1435 13.1215 16.1908 13.0907V13.6695C16.1908 13.8613 16.1423 14.0329 16.0452 14.1844C15.9482 14.336 15.8144 14.4567 15.644 14.5467Z" fill="#231F2C"/>
<path fill-rule="evenodd" clip-rule="evenodd" d="M1.35449 12.0552C1.35449 6.14697 6.14404 1.35742 12.0522 1.35742C17.9605 1.35742 22.75 6.14697 22.75 12.0552C22.75 17.9634 17.9605 22.7529 12.0522 22.7529C6.14404 22.7529 1.35449 17.9634 1.35449 12.0552ZM10.121 9.77039C10.3365 9.929 10.4584 10.1515 10.4868 10.438H11.9605C11.9534 10.0048 11.8374 9.62361 11.6125 9.29453C11.3876 8.96546 11.0728 8.7086 10.6679 8.52394C10.2655 8.33928 9.79434 8.24695 9.25457 8.24695C8.72427 8.24695 8.25078 8.33928 7.83412 8.52394C7.41745 8.7086 7.08956 8.96546 6.85045 9.29453C6.61371 9.62361 6.49652 10.0083 6.49889 10.4487C6.49652 10.9861 6.6729 11.4134 7.02801 11.7306C7.38312 12.0478 7.86726 12.281 8.48042 12.4302L9.27233 12.6291C9.53748 12.693 9.7612 12.764 9.94349 12.8421C10.1282 12.9202 10.2678 13.0149 10.3625 13.1262C10.4596 13.2375 10.5081 13.3748 10.5081 13.5381C10.5081 13.7133 10.4549 13.8684 10.3483 14.0033C10.2418 14.1383 10.0915 14.2436 9.89733 14.3194C9.70557 14.3951 9.47948 14.433 9.21906 14.433C8.95391 14.433 8.71598 14.3928 8.50528 14.3123C8.29695 14.2294 8.13005 14.1075 8.00457 13.9465C7.88147 13.7832 7.81163 13.5796 7.79506 13.3357H6.30713C6.31897 13.8589 6.44562 14.2981 6.6871 14.6532C6.93095 15.0059 7.26949 15.2723 7.70273 15.4522C8.13833 15.6321 8.6497 15.7221 9.23682 15.7221C9.82867 15.7221 10.3341 15.6333 10.7532 15.4558C11.1746 15.2758 11.4965 15.0237 11.7191 14.6994C11.944 14.3727 12.0576 13.9868 12.06 13.5417C12.0576 13.2387 12.002 12.97 11.8931 12.7356C11.7865 12.5012 11.6362 12.2976 11.4421 12.1248C11.2479 11.952 11.0183 11.8064 10.7532 11.688C10.488 11.5696 10.1968 11.4749 9.87957 11.4039L9.22616 11.2477C9.06755 11.2121 8.9184 11.1695 8.77872 11.1198C8.63904 11.0677 8.51594 11.0074 8.4094 10.9387C8.30287 10.8677 8.21882 10.7836 8.15727 10.6866C8.09809 10.5895 8.07086 10.4759 8.07559 10.3457C8.07559 10.1894 8.12058 10.0497 8.21054 9.92664C8.30287 9.80353 8.43544 9.70765 8.60827 9.63899C8.78109 9.56797 8.99297 9.53246 9.24392 9.53246C9.61324 9.53246 9.90561 9.61177 10.121 9.77039ZM13.6908 15.541C13.9631 15.6617 14.2732 15.7221 14.6212 15.7221C14.8911 15.7221 15.129 15.6866 15.335 15.6156C15.541 15.5422 15.7173 15.4416 15.8641 15.3137C16.0109 15.1835 16.1281 15.0332 16.2157 14.8627H16.2583V15.6191H17.693V11.9401C17.693 11.6158 17.6302 11.3376 17.5047 11.1056C17.3793 10.8712 17.2076 10.6795 16.9898 10.5303C16.7744 10.3812 16.527 10.2711 16.2476 10.2001C15.9707 10.1291 15.6806 10.0935 15.3776 10.0935C14.942 10.0935 14.5585 10.1598 14.2271 10.2924C13.898 10.4226 13.6293 10.6096 13.4209 10.8535C13.2126 11.095 13.0729 11.3814 13.0019 11.7129L14.4011 11.8265C14.4531 11.6466 14.5597 11.4974 14.7207 11.3791C14.8816 11.2583 15.0983 11.1979 15.3705 11.1979C15.6286 11.1979 15.8274 11.2595 15.9671 11.3826C16.1092 11.5057 16.1802 11.6797 16.1802 11.9046V11.9259C16.1802 12.0419 16.1364 12.1295 16.0488 12.1887C15.9612 12.2479 15.8203 12.2929 15.6262 12.3237C15.4321 12.3521 15.1764 12.3828 14.8592 12.416C14.5893 12.442 14.3312 12.487 14.085 12.5509C13.8412 12.6148 13.6234 12.7095 13.4316 12.835C13.2398 12.9605 13.0883 13.1262 12.9771 13.3322C12.8658 13.5381 12.8101 13.7926 12.8101 14.0957C12.8101 14.4555 12.8883 14.7562 13.0445 14.9977C13.2031 15.2368 13.4186 15.4179 13.6908 15.541Z" fill="#231F2C"/>
</svg>
