<svg width="24" height="24" viewBox="0 0 24 24" fill="none" xmlns="http://www.w3.org/2000/svg">
<path fill-rule="evenodd" clip-rule="evenodd" d="M1.35449 12.0552C1.35449 6.14697 6.14404 1.35742 12.0522 1.35742C17.9605 1.35742 22.75 6.14697 22.75 12.0552C22.75 17.9634 17.9605 22.7529 12.0522 22.7529C6.14404 22.7529 1.35449 17.9634 1.35449 12.0552ZM6.40161 8.34631V9.61407H8.62817V15.619H10.1481V9.61407H12.3746V8.34631H6.40161ZM16.0856 10.1645V13.2966C16.0879 13.5404 16.0394 13.7452 15.94 13.9109C15.8429 14.0767 15.7151 14.2021 15.5564 14.2874C15.3978 14.3702 15.2274 14.4117 15.0451 14.4117C14.7586 14.4117 14.5302 14.3181 14.3597 14.1311C14.1893 13.9441 14.1028 13.6896 14.1005 13.3676V10.1645H12.5877V13.6375C12.5901 14.0636 12.6682 14.4294 12.8221 14.7348C12.9783 15.0402 13.1949 15.2758 13.4719 15.4415C13.7489 15.6072 14.0697 15.6901 14.4343 15.6901C14.8438 15.6901 15.1907 15.593 15.4748 15.3989C15.7612 15.2047 15.966 14.9479 16.0891 14.6283H16.1459V15.619H17.5983V10.1645H16.0856Z" fill="#231F2C"/>
</svg>
