<svg width="24" height="24" viewBox="0 0 24 24" fill="none" xmlns="http://www.w3.org/2000/svg">
<path fill-rule="evenodd" clip-rule="evenodd" d="M7.01259 3.0019C7.01949 3.06008 7.03042 3.14042 7.04727 3.23778C7.08079 3.43145 7.13867 3.69822 7.23733 3.99493C7.42915 4.57182 7.80469 5.35038 8.54467 5.87145C9.27972 6.38903 10.1547 6.49681 10.7737 6.49993C11.0408 6.50128 11.2792 6.48315 11.4668 6.46157C11.3691 6.91038 11.2986 7.39415 11.2676 7.91137C11.1026 7.86018 10.9055 7.79466 10.6744 7.71352L10.6731 7.71304C9.92808 7.45304 9.25725 7.29358 8.69192 7.29358L8.68025 7.29367C8.29214 7.29971 7.91215 7.34314 7.5412 7.42559C6.72699 7.60655 5.95618 7.97919 5.30819 8.5028C4.85499 8.869 4.47152 9.3038 4.15809 9.80353C3.54184 10.7678 3.25 11.897 3.25 13.156C3.25 14.2521 3.46529 15.3689 3.88156 16.5033L3.88227 16.5052C4.26907 17.5503 4.76765 18.4801 5.38257 19.2897C5.9152 19.9941 6.39522 20.541 6.81575 20.8865C7.46129 21.4454 8.18889 21.7788 8.98327 21.7481C9.46825 21.7321 10.0338 21.5826 10.6539 21.3478C11.0786 21.1875 11.4629 21.0997 11.8101 21.0724C11.8749 21.0673 11.9377 21.0643 12 21.0633C12.0623 21.0643 12.1251 21.0673 12.1899 21.0724C12.5371 21.0997 12.9214 21.1875 13.3461 21.3478C13.9662 21.5826 14.5317 21.7321 15.0167 21.7481C15.8111 21.7788 16.5387 21.4454 17.1842 20.8865C17.6048 20.541 18.0848 19.9941 18.6174 19.2897C19.2323 18.4801 19.7309 17.5503 20.1177 16.5052L20.1184 16.5033C20.5347 15.3689 20.75 14.2521 20.75 13.156C20.75 11.897 20.4582 10.7678 19.8419 9.80353C19.5285 9.3038 19.145 8.869 18.6918 8.5028C18.0438 7.97919 17.273 7.60655 16.4588 7.42559C16.0879 7.34314 15.7079 7.29971 15.3198 7.29367L15.3081 7.29358C14.7427 7.29358 14.0719 7.45304 13.3269 7.71304L13.3256 7.71352C13.1126 7.78832 12.9285 7.84984 12.7717 7.8991C12.957 5.35687 14.2685 3.81586 14.5017 3.56103L14.5448 3.51549C14.8267 3.21756 14.817 2.74841 14.523 2.4624C14.2289 2.17639 13.7597 2.17963 13.4697 2.46967C13.4461 2.49328 13.4233 2.51768 13.4007 2.54226C13.2211 2.73771 12.6933 3.3537 12.2056 4.34314C11.9995 3.7888 11.628 3.10226 10.9553 2.62855C10.2202 2.11097 9.34523 2.00319 8.7263 2.00007C8.40652 1.99846 8.12802 2.02475 7.92849 2.05146C7.75131 2.07518 7.65541 2.09021 7.5538 2.11783C7.21846 2.20901 6.98855 2.5201 7.00044 2.86757C7.00178 2.90662 7.00497 2.93761 7.01259 3.0019ZM9.40819 4.64499C9.03763 4.38406 8.79719 3.94154 8.65356 3.50023C9.15529 3.49479 9.70556 3.58318 10.0916 3.85499C10.4621 4.11592 10.7026 4.55845 10.8462 4.99975C10.3445 5.00519 9.7942 4.91681 9.40819 4.64499Z" fill="#231F2C"/>
</svg>
