<svg width="24" height="24" viewBox="0 0 24 24" fill="none" xmlns="http://www.w3.org/2000/svg">
<path fill-rule="evenodd" clip-rule="evenodd" d="M14.914 6.70998L15.487 6.13697C14.9377 4.7163 15.5445 3.44877 16.1138 2.8795C16.9559 2.03742 18.3109 2.04291 19.1475 2.8795C19.5238 3.25589 19.732 3.7372 19.7704 4.22953C20.2628 4.26796 20.7441 4.47612 21.1205 4.8525C21.957 5.68909 21.9625 7.04409 21.1205 7.88616C20.5512 8.45543 19.2837 9.06228 17.863 8.51297L17.29 9.08593C17.6404 10.0377 17.4479 11.1457 16.7059 11.929L16.464 12.1844C15.899 12.7808 15.7102 13.7105 15.7461 14.7699C15.8072 16.5719 15.1495 18.3964 13.773 19.773C11.1369 22.409 6.86307 22.409 4.22703 19.773C1.59099 17.137 1.59099 12.8631 4.22703 10.2271C5.60361 8.85048 7.42821 8.19279 9.23019 8.25394C10.2896 8.28989 11.2192 8.10106 11.8156 7.5361L12.0711 7.29411C12.8544 6.5522 13.9623 6.35967 14.914 6.70998ZM17.1745 3.94016C17.4285 3.68613 17.8337 3.6871 18.0868 3.94016C18.3399 4.19323 18.3408 4.59847 18.0868 4.8525C17.7939 5.1454 17.7939 5.62027 18.0868 5.91316C18.3797 6.20606 18.8546 6.20606 19.1475 5.91316C19.4015 5.65913 19.8067 5.6601 20.0598 5.91316C20.3129 6.16623 20.3138 6.57147 20.0598 6.8255C19.7798 7.10553 18.9923 7.49248 18.0895 6.96042C17.7949 6.7868 17.4202 6.83443 17.1784 7.07623L16.4076 7.84698L16.153 7.59231L16.9237 6.82156C17.1655 6.57976 17.2132 6.20502 17.0395 5.91043C16.5075 5.00764 16.8944 4.22019 17.1745 3.94016Z" fill="#231F2C"/>
</svg>
