<svg width="24" height="24" viewBox="0 0 24 24" fill="none" xmlns="http://www.w3.org/2000/svg">
<path d="M2.85242 6.34916C0.286955 10.4943 0.80243 16.005 4.39885 19.6014C4.69174 19.8943 5.16661 19.8943 5.45951 19.6014L9.17175 15.8892L8.62366 15.3411C6.59289 13.3103 4.83374 10.9044 3.77533 8.78104C3.35304 7.93387 3.02968 7.10671 2.85242 6.34916Z" fill="#231F2C"/>
<path d="M6.3492 2.8523C7.10677 3.02955 7.93396 3.35293 8.78115 3.77522C10.9045 4.83364 13.3104 6.59278 15.3412 8.62356L15.8893 9.17164L19.6016 5.45926C19.8945 5.16637 19.8945 4.6915 19.6016 4.3986C16.0052 0.802128 10.4944 0.286694 6.3492 2.8523Z" fill="#231F2C"/>
<path d="M14.8286 10.2323L14.2805 9.68422C12.3476 7.7513 10.0709 6.09413 8.11197 5.11769C7.12888 4.62764 6.26467 4.32868 5.58767 4.23312C4.88744 4.13428 4.55576 4.27173 4.4138 4.4137C4.27184 4.55566 4.13439 4.88733 4.23323 5.58756C4.32878 6.26457 4.62775 7.12877 5.11779 8.11187C6.09424 10.0708 7.75141 12.3475 9.68432 14.2804L10.2324 14.8285L12.0002 13.0607L17.1267 18.1872C18.2007 19.2611 19.9419 19.2611 21.0158 18.1872C22.0898 17.1132 22.0898 15.372 21.0158 14.2981L20.3087 13.591C20.0158 13.2981 19.5409 13.2981 19.248 13.591C18.9551 13.8839 18.9551 14.3588 19.248 14.6517L19.9551 15.3588C20.4433 15.8469 20.4433 16.6384 19.9551 17.1265C19.467 17.6147 18.6755 17.6147 18.1874 17.1265L13.0609 12L14.8286 10.2323Z" fill="#231F2C"/>
</svg>
