<svg width="24" height="24" viewBox="0 0 24 24" fill="none" xmlns="http://www.w3.org/2000/svg">
<path d="M8.32908 2.66459C8.45612 2.4105 8.71582 2.25 8.9999 2.25H20.9999C21.284 2.25 21.5437 2.4105 21.6707 2.66459L22.1016 3.52639C22.2678 3.85884 22.0261 4.25 21.6544 4.25H8.34539C7.9737 4.25 7.73195 3.85884 7.89818 3.52639L8.32908 2.66459Z" fill="#231F2C"/>
<path d="M21.1404 5.47136C21.4281 5.47136 21.6564 5.71359 21.6395 6.00081L20.807 20.1092C20.7494 21.0315 19.9846 21.75 19.0605 21.75H18.4999C18.0857 21.75 17.7499 21.4142 17.7499 21V12.0295C17.5572 9.6341 16.2955 8.5195 14.6916 7.67922C13.0329 6.81019 10.919 6.5366 8.9999 6.5366C8.87479 6.5366 8.7748 6.53061 8.69449 6.51921C8.44357 6.48359 8.36425 6.06088 8.3396 5.76339C8.32616 5.6012 8.45888 5.47136 8.62163 5.47136H21.1404Z" fill="#231F2C"/>
<path d="M16.6262 11.7003C16.3266 10.2554 15.5026 9.41894 14.3671 8.70707C12.977 7.83555 11.1884 7.55064 9.49967 7.55138C7.81088 7.55212 6.02257 7.83861 4.63274 8.71033C3.49799 9.42207 2.6741 10.2575 2.37416 11.7001C2.31368 11.9911 2.54788 12.25 2.84501 12.25H16.1552C16.4523 12.25 16.6865 11.9912 16.6262 11.7003Z" fill="#231F2C"/>
<path d="M16.1442 13.75C16.332 13.75 16.5076 13.8539 16.5739 14.0296C16.6308 14.1805 16.6749 14.3378 16.7047 14.5C16.72 14.5833 16.7301 14.6667 16.7368 14.7503C16.7589 15.0255 16.5261 15.25 16.25 15.25H15.5757C15.3688 15.25 15.1652 15.1986 14.983 15.1006L14.4984 14.8396C13.6967 14.4079 12.7318 14.4079 11.9301 14.8396C11.5724 15.0322 11.1419 15.0322 10.7841 14.8396C9.98246 14.4079 9.01753 14.4079 8.21585 14.8396C7.85814 15.0322 7.42758 15.0322 7.06986 14.8396C6.26818 14.4079 5.30325 14.4079 4.50157 14.8396L4.01696 15.1006C3.83482 15.1986 3.6312 15.25 3.42433 15.25H2.75C2.47386 15.25 2.24105 15.0255 2.26318 14.7503C2.2699 14.6667 2.28004 14.5833 2.29534 14.5C2.32514 14.3378 2.36917 14.1805 2.4261 14.0296C2.49237 13.8539 2.66802 13.75 2.8558 13.75H16.1442Z" fill="#231F2C"/>
<path d="M15.5 16.7459C15.638 16.7511 15.75 16.8619 15.75 17C15.75 17.1381 15.6381 17.25 15.5 17.25H3.50001C3.36193 17.25 3.25 17.1381 3.25 17C3.25 16.8619 3.36198 16.7511 3.49996 16.7459C3.67331 16.7394 3.84538 16.7232 4.01696 16.6854C4.26415 16.6308 4.50355 16.5422 4.72811 16.4213L5.21272 16.1603C5.57043 15.9677 6.00099 15.9677 6.35871 16.1603C7.16039 16.592 8.12532 16.592 8.927 16.1603C9.28472 15.9677 9.71528 15.9677 10.073 16.1603C10.8747 16.592 11.8396 16.592 12.6413 16.1603C12.999 15.9677 13.4296 15.9677 13.7873 16.1603L14.2719 16.4213C14.4964 16.5422 14.7359 16.6308 14.983 16.6854C15.1546 16.7232 15.3267 16.7394 15.5 16.7459Z" fill="#231F2C"/>
<path d="M2.26318 19.2497C2.24105 18.9744 2.47386 18.75 2.75 18.75H16.25C16.5261 18.75 16.7589 18.9744 16.7368 19.2497C16.7301 19.3332 16.72 19.4167 16.7047 19.5C16.4695 20.78 15.348 21.75 14 21.75H5C3.65196 21.75 2.53047 20.78 2.29534 19.5C2.28003 19.4167 2.26989 19.3332 2.26318 19.2497Z" fill="#231F2C"/>
</svg>
