<svg width="24" height="24" viewBox="0 0 24 24" fill="none" xmlns="http://www.w3.org/2000/svg">
<path d="M10.7499 3C10.7499 2.58579 10.4141 2.25 9.99988 2.25C9.58567 2.25 9.24988 2.58579 9.24988 3V3.93696C9.24988 4.15602 9.18504 4.37018 9.06353 4.55245C8.47915 5.42902 8.47915 6.57098 9.06353 7.44755L9.37584 7.91603C9.60561 8.26067 10.0713 8.3538 10.4159 8.12404C10.7606 7.89427 10.8537 7.42862 10.6239 7.08397L10.3116 6.6155C10.0631 6.24278 10.0631 5.75722 10.3116 5.3845C10.5974 4.95583 10.7499 4.45216 10.7499 3.93696V3Z" fill="#231F2C"/>
<path d="M8.24988 4C8.24988 3.58579 7.9141 3.25 7.49988 3.25C7.08567 3.25 6.74988 3.58579 6.74988 4C6.74988 4.17796 6.69721 4.35193 6.5985 4.5L6.56353 4.55245C5.97915 5.42902 5.97915 6.57098 6.56353 7.44755L6.87585 7.91603C7.10561 8.26067 7.57126 8.3538 7.91591 8.12404C8.26055 7.89427 8.35368 7.42862 8.12392 7.08397L7.8116 6.6155C7.56313 6.24278 7.56313 5.75722 7.8116 5.3845L7.84657 5.33205C8.10955 4.93758 8.24988 4.47409 8.24988 4Z" fill="#231F2C"/>
<path d="M13.2499 4C13.2499 3.58579 12.9141 3.25 12.4999 3.25C12.0857 3.25 11.7499 3.58579 11.7499 4C11.7499 4.17796 11.6972 4.35193 11.5985 4.5L11.5635 4.55245C10.9792 5.42902 10.9792 6.57098 11.5635 7.44755L11.8758 7.91603C12.1056 8.26067 12.5713 8.3538 12.9159 8.12404C13.2606 7.89427 13.3537 7.42862 13.1239 7.08397L12.8116 6.6155C12.5631 6.24278 12.5631 5.75722 12.8116 5.3845L12.8466 5.33205C13.1096 4.93758 13.2499 4.47409 13.2499 4Z" fill="#231F2C"/>
<path fill-rule="evenodd" clip-rule="evenodd" d="M2.25 10C2.25 9.58579 2.58579 9.25 3 9.25H17C17.4142 9.25 17.75 9.58579 17.75 10V10.25H20C20.9665 10.25 21.75 11.0335 21.75 12C21.75 14.6234 19.6234 16.75 17 16.75H16.1242C14.7063 18.5754 12.4903 19.75 10 19.75C5.71979 19.75 2.25 16.2802 2.25 12V10ZM17.0378 15.2498C18.8153 15.2295 20.25 13.7823 20.25 12C20.25 11.8619 20.1381 11.75 20 11.75H17.75V12C17.75 13.1605 17.4949 14.2614 17.0378 15.2498Z" fill="#231F2C"/>
<path d="M2.25 21C2.25 20.5858 2.58579 20.25 3 20.25H17C17.4142 20.25 17.75 20.5858 17.75 21C17.75 21.4142 17.4142 21.75 17 21.75H3C2.58579 21.75 2.25 21.4142 2.25 21Z" fill="#231F2C"/>
</svg>
