<svg width="24" height="24" viewBox="0 0 24 24" fill="none" xmlns="http://www.w3.org/2000/svg">
<path fill-rule="evenodd" clip-rule="evenodd" d="M3.00001 2.25C2.71022 2.25 2.44635 2.41695 2.32226 2.67883C2.19816 2.9407 2.23603 3.25064 2.41954 3.47493L11.25 14.2677V20.25H8.00001C7.58579 20.25 7.25001 20.5858 7.25001 21C7.25001 21.4142 7.58579 21.75 8.00001 21.75H12H16C16.4142 21.75 16.75 21.4142 16.75 21C16.75 20.5858 16.4142 20.25 16 20.25H12.75V14.2677L21.5805 3.47493C21.764 3.25064 21.8019 2.9407 21.6778 2.67883C21.5537 2.41695 21.2898 2.25 21 2.25H3.00001ZM18.1901 5.25L19.4173 3.75H4.58269L5.80996 5.25H18.1901Z" fill="#231F2C"/>
</svg>
