<svg width="24" height="24" viewBox="0 0 24 24" fill="none" xmlns="http://www.w3.org/2000/svg">
<path fill-rule="evenodd" clip-rule="evenodd" d="M4.33306 21.0679C2.82372 20.8022 1.87786 19.322 2.38857 17.8237C2.94772 16.1833 4.03464 13.5207 6.10392 9.78989C8.16263 6.07812 9.58097 4.0761 10.4519 3.01674C10.8493 2.53336 11.4034 2.25 12.0001 2.25C12.5967 2.25 13.1508 2.53336 13.5482 3.01674C14.4192 4.0761 15.8375 6.07812 17.8962 9.78989C18.0579 10.0813 18.2135 10.3661 18.3633 10.6445C18.5597 11.0092 18.4231 11.4641 18.0584 11.6604C17.6937 11.8567 17.2389 11.7202 17.0425 11.3555C16.8957 11.0827 16.7431 10.8034 16.5845 10.5174C14.5531 6.85483 13.1843 4.93599 12.3896 3.96935C12.2465 3.79533 12.102 3.75 12.0001 3.75C11.8981 3.75 11.7537 3.79533 11.6106 3.96935C10.8159 4.93599 9.4471 6.85483 7.41566 10.5174C5.38502 14.1786 4.33593 16.7599 3.80836 18.3076C3.60781 18.896 3.94925 19.4773 4.5931 19.5906C6.28114 19.8878 8.96349 20.25 12.0001 20.25C15.0367 20.25 17.719 19.8878 19.4071 19.5906C20.0509 19.4773 20.3924 18.896 20.1918 18.3076C19.8426 17.283 19.2647 15.8054 18.3249 13.8614C18.1446 13.4885 18.3007 13.04 18.6736 12.8597C19.0466 12.6794 19.495 12.8356 19.6753 13.2085C20.64 15.2037 21.2414 16.7377 21.6116 17.8237C22.1223 19.322 21.1764 20.8022 19.6671 21.0679C17.9226 21.375 15.1493 21.75 12.0001 21.75C8.85082 21.75 6.07753 21.375 4.33306 21.0679ZM12.0001 17.75C11.5859 17.75 11.2501 17.4142 11.2501 17L11.2501 16.5C11.2501 16.0858 11.5859 15.75 12.0001 15.75C12.4143 15.75 12.7501 16.0858 12.7501 16.5L12.7501 17C12.7501 17.4142 12.4143 17.75 12.0001 17.75ZM12.7501 9L12.7501 13.5349C12.7501 13.9491 12.4143 14.2849 12.0001 14.2849C11.5859 14.2849 11.2501 13.9491 11.2501 13.5349L11.2501 9C11.2501 8.58579 11.5859 8.25 12.0001 8.25C12.4143 8.25 12.7501 8.58579 12.7501 9Z" fill="#231F2C"/>
</svg>
