<svg width="24" height="24" viewBox="0 0 24 24" fill="none" xmlns="http://www.w3.org/2000/svg">
<path fill-rule="evenodd" clip-rule="evenodd" d="M12 2.75C6.89137 2.75 2.75 6.89137 2.75 12C2.75 17.1086 6.89137 21.25 12 21.25C14.813 21.25 17.3322 19.9952 19.0299 18.0122C19.2992 17.6976 19.7727 17.6609 20.0873 17.9303C20.402 18.1996 20.4387 18.6731 20.1693 18.9878C18.1988 21.2894 15.2696 22.75 12 22.75C6.06294 22.75 1.25 17.9371 1.25 12C1.25 6.06294 6.06294 1.25 12 1.25C17.9371 1.25 22.75 6.06294 22.75 12C22.75 13.5275 22.431 14.9824 21.8552 16.3003C21.6893 16.6798 21.2472 16.8531 20.8676 16.6873C20.4881 16.5214 20.3148 16.0793 20.4806 15.6997C20.9752 14.5677 21.25 13.3169 21.25 12C21.25 6.89137 17.1086 2.75 12 2.75ZM16.5303 9.46967C16.8232 9.76256 16.8232 10.2374 16.5303 10.5303L11.5303 15.5303C11.2374 15.8232 10.7626 15.8232 10.4697 15.5303L7.46967 12.5303C7.17678 12.2374 7.17678 11.7626 7.46967 11.4697C7.76256 11.1768 8.23744 11.1768 8.53033 11.4697L11 13.9393L15.4697 9.46967C15.7626 9.17678 16.2374 9.17678 16.5303 9.46967Z" fill="#231F2C"/>
</svg>
