<svg width="24" height="24" viewBox="0 0 24 24" fill="none" xmlns="http://www.w3.org/2000/svg">
<path d="M8.75 13C8.75 11.2051 10.2051 9.75 12 9.75C13.7949 9.75 15.25 11.2051 15.25 13C15.25 14.7949 13.7949 16.25 12 16.25C10.2051 16.25 8.75 14.7949 8.75 13Z" fill="#231F2C"/>
<path fill-rule="evenodd" clip-rule="evenodd" d="M6.83264 5.13037C7.20695 4.00743 8.25783 3.25 9.44152 3.25H14.5585C15.7422 3.25 16.793 4.00743 17.1674 5.13037L17.5406 6.25H19.7639C20.7953 6.25 21.8228 6.85176 22.1333 7.96175C22.4268 9.0108 22.75 10.6908 22.75 13C22.75 13.0172 22.7494 13.0345 22.7482 13.0517C22.7318 13.2893 22.7169 13.5304 22.7018 13.774C22.6101 15.255 22.5123 16.8346 22.0378 18.3621C21.7735 19.2131 21.0573 19.7694 20.2494 19.9313C18.7677 20.2282 15.6473 20.75 12 20.75C8.35272 20.75 5.23227 20.2282 3.75064 19.9313C2.94265 19.7694 2.22654 19.2131 1.96216 18.3621C1.64847 17.3523 1.25 15.5642 1.25 13C1.25 10.6908 1.57317 9.0108 1.86668 7.96175C2.17724 6.85176 3.20469 6.25 4.23607 6.25H6.45943L6.83264 5.13037ZM12 8.25C9.37665 8.25 7.25 10.3766 7.25 13C7.25 15.6234 9.37665 17.75 12 17.75C14.6234 17.75 16.75 15.6234 16.75 13C16.75 10.3766 14.6234 8.25 12 8.25Z" fill="#231F2C"/>
</svg>
