<svg width="24" height="24" viewBox="0 0 24 24" fill="none" xmlns="http://www.w3.org/2000/svg">
<path d="M12.0033 3.74995C15.3232 3.73543 17.8658 6.04496 18.2102 9.24995H18C17.0335 9.24995 16.25 10.0335 16.25 11V15C16.25 15.9249 16.9675 16.6822 17.8763 16.7457C17.2102 18.2223 15.7245 19.25 14 19.25H13.5816C13.3007 18.6587 12.6981 18.25 12 18.25C11.0335 18.25 10.25 19.0335 10.25 20C10.25 20.9665 11.0335 21.75 12 21.75C12.6981 21.75 13.3007 21.3412 13.5816 20.75H14C16.5822 20.75 18.7655 19.0485 19.4925 16.706C20.7763 16.4739 21.75 15.3506 21.75 14V12C21.75 10.7322 20.8921 9.6648 19.7252 9.3466C19.4133 5.26108 16.1885 2.23163 11.9967 2.24996C7.81538 2.26824 4.58681 5.25951 4.27475 9.3466C3.10786 9.6648 2.25 10.7322 2.25 12V14C2.25 15.5187 3.48122 16.75 5 16.75H6C6.9665 16.75 7.75 15.9665 7.75 15V11C7.75 10.0335 6.9665 9.24995 6 9.24995H5.7899C6.1344 6.05359 8.67346 3.7645 12.0033 3.74995Z" fill="#231F2C"/>
</svg>
