<svg width="24" height="24" viewBox="0 0 24 24" fill="none" xmlns="http://www.w3.org/2000/svg">
<path fill-rule="evenodd" clip-rule="evenodd" d="M1.86668 4.96175C2.17724 3.85176 3.20469 3.25 4.23607 3.25H19.7639C20.7953 3.25 21.8228 3.85176 22.1333 4.96175C22.4282 6.01556 22.75 7.93404 22.75 10C22.75 12.051 22.5979 13.3778 22.1333 15.0382C21.8228 16.1482 20.7953 16.75 19.7639 16.75H14.75V19.25H18C18.4142 19.25 18.75 19.5858 18.75 20C18.75 20.4142 18.4142 20.75 18 20.75H6C5.58579 20.75 5.25 20.4142 5.25 20C5.25 19.5858 5.58579 19.25 6 19.25H9.25V16.75H4.23607C3.20469 16.75 2.17724 16.1482 1.86668 15.0382C1.57317 13.9892 1.25 12.3092 1.25 10C1.25 7.6908 1.57317 6.0108 1.86668 4.96175ZM10.75 16.75V19.25H13.25V16.75H10.75Z" fill="#231F2C"/>
</svg>
