<svg width="24" height="24" viewBox="0 0 24 24" fill="none" xmlns="http://www.w3.org/2000/svg">
<path fill-rule="evenodd" clip-rule="evenodd" d="M6.25 3C6.25 2.58579 6.58579 2.25 7 2.25H17C17.4142 2.25 17.75 2.58579 17.75 3V7.65145C18.4654 7.74913 19.0914 7.85233 19.6052 7.94575C20.8865 8.17872 21.75 9.30387 21.75 10.5616V16C21.75 17.5188 20.5188 18.75 19 18.75H17.75V21C17.75 21.4142 17.4142 21.75 17 21.75H7C6.58579 21.75 6.25 21.4142 6.25 21V18.75H5C3.48122 18.75 2.25 17.5188 2.25 16V10.5616C2.25 9.30387 3.11354 8.17872 4.39479 7.94575C4.90861 7.85233 5.53461 7.74913 6.25 7.65145V3ZM16.25 3.75V7.47241C14.9829 7.34283 13.5384 7.25 12 7.25C10.4616 7.25 9.01711 7.34283 7.75 7.47241V3.75H16.25ZM7.75 20.25V16.75H16.25V20.25H7.75ZM17.5 12.25C17.0858 12.25 16.75 12.5858 16.75 13C16.75 13.4142 17.0858 13.75 17.5 13.75H18C18.4142 13.75 18.75 13.4142 18.75 13C18.75 12.5858 18.4142 12.25 18 12.25H17.5Z" fill="#231F2C"/>
</svg>
