<svg width="24" height="24" viewBox="0 0 24 24" fill="none" xmlns="http://www.w3.org/2000/svg">
<path d="M6.75 10C6.75 9.86193 6.86193 9.75 7 9.75H13C13.1381 9.75 13.25 9.86193 13.25 10V11C13.25 11.1381 13.1381 11.25 13 11.25H7C6.86193 11.25 6.75 11.1381 6.75 11V10Z" fill="#231F2C"/>
<path fill-rule="evenodd" clip-rule="evenodd" d="M10 4.25C6.44092 4.25 4.23885 4.59704 2.99824 4.89771C1.86432 5.17253 1.25 6.19965 1.25 7.23607V16.7639C1.25 17.8004 1.86432 18.8275 2.99825 19.1023C4.23885 19.403 6.44092 19.75 10 19.75C13.5591 19.75 15.7611 19.403 17.0018 19.1023C18.1357 18.8275 18.75 17.8004 18.75 16.7639V14.2135L20.2173 14.9472C21.3809 15.5289 22.7499 14.6828 22.7499 13.3819V6.61798C22.7499 5.31706 21.3809 4.47094 20.2173 5.05273L18.4122 5.9553C18.1206 5.45121 17.6447 5.05353 17.0018 4.89771C15.7611 4.59704 13.5591 4.25 10 4.25ZM20.8881 13.6055L18.75 12.5365V7.46343L20.8881 6.39437C21.0543 6.31126 21.2499 6.43214 21.2499 6.61798V13.3819C21.2499 13.5678 21.0543 13.6886 20.8881 13.6055ZM7 8.25C6.0335 8.25 5.25 9.0335 5.25 10V11C5.25 11.9665 6.0335 12.75 7 12.75H13C13.9665 12.75 14.75 11.9665 14.75 11V10C14.75 9.0335 13.9665 8.25 13 8.25H7Z" fill="#231F2C"/>
</svg>
