<svg width="24" height="24" viewBox="0 0 24 24" fill="none" xmlns="http://www.w3.org/2000/svg">
<path d="M5.93333 1.25C4.98944 1.25 4.25 2.02654 4.25 2.95238V3.90476C4.25 4.8306 4.98944 5.60714 5.93333 5.60714H6.86667C7.81056 5.60714 8.55 4.8306 8.55 3.90476V2.95238C8.55 2.02654 7.81056 1.25 6.86667 1.25H5.93333Z" fill="#231F2C"/>
<path d="M11.5333 1.25C10.5894 1.25 9.85 2.02654 9.85 2.95238V3.90476C9.85 4.8306 10.5894 5.60714 11.5333 5.60714H12.4667C13.4106 5.60714 14.15 4.8306 14.15 3.90476V2.95238C14.15 2.02654 13.4106 1.25 12.4667 1.25H11.5333Z" fill="#231F2C"/>
<path d="M17.1333 1.25C16.1894 1.25 15.45 2.02654 15.45 2.95238V3.90476C15.45 4.8306 16.1894 5.60714 17.1333 5.60714H18.0667C19.0106 5.60714 19.75 4.8306 19.75 3.90476V2.95238C19.75 2.02654 19.0106 1.25 18.0667 1.25H17.1333Z" fill="#231F2C"/>
<path d="M5.93333 6.96429C4.98944 6.96429 4.25 7.74082 4.25 8.66667V9.61905C4.25 10.5449 4.98944 11.3214 5.93333 11.3214H6.86667C7.81056 11.3214 8.55 10.5449 8.55 9.61905V8.66667C8.55 7.74082 7.81056 6.96429 6.86667 6.96429H5.93333Z" fill="#231F2C"/>
<path d="M11.5333 6.96429C10.5894 6.96429 9.85 7.74082 9.85 8.66667V9.61905C9.85 10.5449 10.5894 11.3214 11.5333 11.3214H12.4667C13.4106 11.3214 14.15 10.5449 14.15 9.61905V8.66667C14.15 7.74082 13.4106 6.96429 12.4667 6.96429H11.5333Z" fill="#231F2C"/>
<path d="M17.1333 6.96429C16.1894 6.96429 15.45 7.74082 15.45 8.66667V9.61905C15.45 10.5449 16.1894 11.3214 17.1333 11.3214H18.0667C19.0106 11.3214 19.75 10.5449 19.75 9.61905V8.66667C19.75 7.74082 19.0106 6.96429 18.0667 6.96429H17.1333Z" fill="#231F2C"/>
<path d="M5.93333 12.6786C4.98944 12.6786 4.25 13.4551 4.25 14.381V15.3333C4.25 16.2592 4.98944 17.0357 5.93333 17.0357H6.86667C7.81056 17.0357 8.55 16.2592 8.55 15.3333V14.381C8.55 13.4551 7.81056 12.6786 6.86667 12.6786H5.93333Z" fill="#231F2C"/>
<path d="M11.5333 12.6786C10.5894 12.6786 9.85 13.4551 9.85 14.381V15.3333C9.85 16.2592 10.5894 17.0357 11.5333 17.0357H12.4667C13.4106 17.0357 14.15 16.2592 14.15 15.3333V14.381C14.15 13.4551 13.4106 12.6786 12.4667 12.6786H11.5333Z" fill="#231F2C"/>
<path d="M17.1333 12.6786C16.1894 12.6786 15.45 13.4551 15.45 14.381V15.3333C15.45 16.2592 16.1894 17.0357 17.1333 17.0357H18.0667C19.0106 17.0357 19.75 16.2592 19.75 15.3333V14.381C19.75 13.4551 19.0106 12.6786 18.0667 12.6786H17.1333Z" fill="#231F2C"/>
<path d="M11.5333 18.3929C10.5894 18.3929 9.85 19.1694 9.85 20.0952V21.0476C9.85 21.9735 10.5894 22.75 11.5333 22.75H12.4667C13.4106 22.75 14.15 21.9735 14.15 21.0476V20.0952C14.15 19.1694 13.4106 18.3929 12.4667 18.3929H11.5333Z" fill="#231F2C"/>
</svg>
