<svg width="24" height="24" viewBox="0 0 24 24" fill="none" xmlns="http://www.w3.org/2000/svg">
<path fill-rule="evenodd" clip-rule="evenodd" d="M1.57451 8.23094C1.93369 6.29866 3.69264 5.25 5.47214 5.25H18.5279C20.3074 5.25 22.0663 6.29866 22.4255 8.23094C22.6074 9.20936 22.75 10.453 22.75 12C22.75 13.5417 22.6562 14.528 22.4255 15.7691C22.0663 17.7013 20.3074 18.75 18.5279 18.75H5.47214C3.69264 18.75 1.93369 17.7013 1.57451 15.7691C1.39259 14.7904 1.25 13.5339 1.25 12C1.25 10.4661 1.39259 9.2096 1.57451 8.23094ZM5.75 8.25C5.33579 8.25 5 8.58579 5 9C5 9.41421 5.33579 9.75 5.75 9.75H6.25C6.66421 9.75 7 9.41421 7 9C7 8.58579 6.66421 8.25 6.25 8.25H5.75ZM8.75 8.25C8.33579 8.25 8 8.58579 8 9C8 9.41421 8.33579 9.75 8.75 9.75H9.25C9.66421 9.75 10 9.41421 10 9C10 8.58579 9.66421 8.25 9.25 8.25H8.75ZM11.75 8.25C11.3358 8.25 11 8.58579 11 9C11 9.41421 11.3358 9.75 11.75 9.75H12.25C12.6642 9.75 13 9.41421 13 9C13 8.58579 12.6642 8.25 12.25 8.25H11.75ZM14.75 8.25C14.3358 8.25 14 8.58579 14 9C14 9.41421 14.3358 9.75 14.75 9.75H15.25C15.6642 9.75 16 9.41421 16 9C16 8.58579 15.6642 8.25 15.25 8.25H14.75ZM17.75 8.25C17.3358 8.25 17 8.58579 17 9C17 9.41421 17.3358 9.75 17.75 9.75H18.25C18.6642 9.75 19 9.41421 19 9C19 8.58579 18.6642 8.25 18.25 8.25H17.75ZM5.75 11.25C5.33579 11.25 5 11.5858 5 12C5 12.4142 5.33579 12.75 5.75 12.75H6.25C6.66421 12.75 7 12.4142 7 12C7 11.5858 6.66421 11.25 6.25 11.25H5.75ZM8.75 11.25C8.33579 11.25 8 11.5858 8 12C8 12.4142 8.33579 12.75 8.75 12.75H9.25C9.66421 12.75 10 12.4142 10 12C10 11.5858 9.66421 11.25 9.25 11.25H8.75ZM11.75 11.25C11.3358 11.25 11 11.5858 11 12C11 12.4142 11.3358 12.75 11.75 12.75H12.25C12.6642 12.75 13 12.4142 13 12C13 11.5858 12.6642 11.25 12.25 11.25H11.75ZM14.75 11.25C14.3358 11.25 14 11.5858 14 12C14 12.4142 14.3358 12.75 14.75 12.75H15.25C15.6642 12.75 16 12.4142 16 12C16 11.5858 15.6642 11.25 15.25 11.25H14.75ZM17.75 11.25C17.3358 11.25 17 11.5858 17 12C17 12.4142 17.3358 12.75 17.75 12.75H18.25C18.6642 12.75 19 12.4142 19 12C19 11.5858 18.6642 11.25 18.25 11.25H17.75ZM7 14.25C6.58579 14.25 6.25 14.5858 6.25 15C6.25 15.4142 6.58579 15.75 7 15.75H17C17.4142 15.75 17.75 15.4142 17.75 15C17.75 14.5858 17.4142 14.25 17 14.25H7Z" fill="#231F2C"/>
</svg>
