<svg width="24" height="24" viewBox="0 0 24 24" fill="none" xmlns="http://www.w3.org/2000/svg">
<path fill-rule="evenodd" clip-rule="evenodd" d="M5.25 5C5.25 2.92893 6.92893 1.25 9 1.25H15C17.0711 1.25 18.75 2.92893 18.75 5V19C18.75 21.0711 17.0711 22.75 15 22.75H9C6.92893 22.75 5.25 21.0711 5.25 19V5ZM10 3.25C9.58579 3.25 9.25 3.58579 9.25 4C9.25 4.41421 9.58579 4.75 10 4.75H14C14.4142 4.75 14.75 4.41421 14.75 4C14.75 3.58579 14.4142 3.25 14 3.25H10ZM11.95 19.25C11.5358 19.25 11.2 19.5858 11.2 20C11.2 20.4142 11.5358 20.75 11.95 20.75H12.05C12.4643 20.75 12.8 20.4142 12.8 20C12.8 19.5858 12.4643 19.25 12.05 19.25H11.95Z" fill="#231F2C"/>
</svg>
