<svg width="24" height="24" viewBox="0 0 24 24" fill="none" xmlns="http://www.w3.org/2000/svg">
<path d="M7.25 7C7.25 4.37665 9.37665 2.25 12 2.25C14.6234 2.25 16.75 4.37665 16.75 7C16.75 9.62335 14.6234 11.75 12 11.75C9.37665 11.75 7.25 9.62335 7.25 7Z" fill="#231F2C"/>
<path d="M7.26881 12.4097C7.86831 12.2598 8.45286 12.4441 8.87614 12.7491C9.41385 13.1366 10.503 13.75 12 13.75C13.497 13.75 14.5862 13.1366 15.1239 12.7491C15.5471 12.4441 16.1317 12.2598 16.7312 12.4097L17.152 12.5149C19.2666 13.0435 20.75 14.9435 20.75 17.1231V18.8819C20.75 19.54 20.3729 20.1812 19.7048 20.4412C18.547 20.8918 15.8385 21.75 12 21.75C9.45517 21.75 6.7243 21.3866 4.29523 20.4412C3.62711 20.1812 3.25 19.54 3.25 18.8819V17.1231C3.25 14.9435 4.73341 13.0435 6.84796 12.5149L7.26881 12.4097Z" fill="#231F2C"/>
</svg>
