<svg width="24" height="24" viewBox="0 0 24 24" fill="none" xmlns="http://www.w3.org/2000/svg">
<path d="M11 2.25C8.37665 2.25 6.25 4.37665 6.25 7C6.25 9.62335 8.37665 11.75 11 11.75C13.6234 11.75 15.75 9.62335 15.75 7C15.75 4.37665 13.6234 2.25 11 2.25Z" fill="#231F2C"/>
<path d="M11.6682 14.8406L11.6664 14.8443C11.6634 14.8505 11.658 14.8617 11.6506 14.8778C11.6358 14.9099 11.613 14.9613 11.5852 15.0299C11.5294 15.1673 11.4543 15.3723 11.3829 15.6299C11.2394 16.1479 11.1163 16.8604 11.1847 17.6543C11.2512 18.4256 11.5367 19.1434 11.8214 19.6835C11.962 19.9502 12.0978 20.1651 12.1969 20.3113C12.2464 20.3842 12.2864 20.4394 12.3127 20.4749C12.3259 20.4927 12.3357 20.5054 12.3415 20.5129L12.3467 20.5197C12.5242 20.7415 12.5612 21.0445 12.4421 21.3025C12.3231 21.5606 12.0683 21.7292 11.7842 21.738C11.5284 21.7458 11.2669 21.75 11 21.75C8.45517 21.75 5.7243 21.3866 3.29523 20.4412C2.62711 20.1812 2.25 19.54 2.25 18.8819V17.1231C2.25 14.9435 3.73341 13.0435 5.84796 12.5149L6.26881 12.4097C6.86831 12.2598 7.45286 12.4441 7.87614 12.7491C8.41385 13.1366 9.503 13.75 11 13.75C11.2611 13.75 11.5034 13.8858 11.6397 14.1085C11.7756 14.3305 11.7866 14.607 11.669 14.839L11.6682 14.8406Z" fill="#231F2C"/>
<path d="M17.75 15C17.75 14.5858 17.4142 14.25 17 14.25C16.5858 14.25 16.25 14.5858 16.25 15V17C16.25 17.1989 16.329 17.3897 16.4697 17.5303L17.4697 18.5303C17.7626 18.8232 18.2374 18.8232 18.5303 18.5303C18.8232 18.2374 18.8232 17.7626 18.5303 17.4697L17.75 16.6893V15Z" fill="#231F2C"/>
<path fill-rule="evenodd" clip-rule="evenodd" d="M17 12.25C14.3766 12.25 12.25 14.3766 12.25 17C12.25 19.6234 14.3766 21.75 17 21.75C19.6234 21.75 21.75 19.6234 21.75 17C21.75 14.3766 19.6234 12.25 17 12.25ZM13.75 17C13.75 15.2051 15.2051 13.75 17 13.75C18.7949 13.75 20.25 15.2051 20.25 17C20.25 18.7949 18.7949 20.25 17 20.25C15.2051 20.25 13.75 18.7949 13.75 17Z" fill="#231F2C"/>
</svg>
