<svg width="24" height="24" viewBox="0 0 24 24" fill="none" xmlns="http://www.w3.org/2000/svg">
<path d="M19.1876 19.4152L20.7631 17.4403C21.1245 16.9873 21.0662 16.3294 20.6309 15.9474L17.9357 13.5825C17.4724 13.176 16.7645 13.239 16.3799 13.7211L15.8654 14.366C15.2996 15.0753 14.3537 15.3367 13.5905 14.8477C12.9403 14.431 12.0929 13.7916 11.1405 12.8365C10.1156 11.8087 9.45507 10.9027 9.04384 10.234C8.614 9.53508 8.804 8.67592 9.38301 8.09528L9.93719 7.53954C10.3176 7.1581 10.3604 6.55424 10.0376 6.12269L8.02647 3.43364C7.66035 2.9441 6.96299 2.85532 6.4865 3.23758L4.58033 4.76682C3.03504 6.00653 2.52485 8.14235 3.49071 9.87444C4.58506 11.8369 6.1642 14.3499 7.8978 16.0884C9.6768 17.8724 11.9027 19.2789 14.0943 20.5079C15.8216 21.4765 17.9514 20.9649 19.1876 19.4152Z" fill="#231F2C"/>
</svg>
