<svg width="24" height="24" viewBox="0 0 24 24" fill="none" xmlns="http://www.w3.org/2000/svg">
<path d="M11 2.25C8.37665 2.25 6.25 4.37665 6.25 7C6.25 9.62335 8.37665 11.75 11 11.75C13.6234 11.75 15.75 9.62335 15.75 7C15.75 4.37665 13.6234 2.25 11 2.25Z" fill="#231F2C"/>
<path d="M7.87614 12.7491C7.45286 12.4441 6.86831 12.2598 6.26881 12.4097L5.84796 12.5149C3.73341 13.0435 2.25 14.9435 2.25 17.1231V18.8819C2.25 19.54 2.62711 20.1812 3.29523 20.4412C5.7243 21.3866 8.45517 21.75 11 21.75C14.8385 21.75 17.547 20.8918 18.7048 20.4412C19.3729 20.1812 19.75 19.54 19.75 18.8819V17.1231C19.75 14.9435 18.2666 13.0435 16.152 12.5149L15.7312 12.4097C15.1317 12.2598 14.5471 12.4441 14.1239 12.7491C13.5862 13.1366 12.497 13.75 11 13.75C9.503 13.75 8.41385 13.1366 7.87614 12.7491Z" fill="#231F2C"/>
<path d="M19.75 8C19.75 7.58579 19.4142 7.25 19 7.25C18.5858 7.25 18.25 7.58579 18.25 8V9.25H17C16.5858 9.25 16.25 9.58579 16.25 10C16.25 10.4142 16.5858 10.75 17 10.75H18.25V12C18.25 12.4142 18.5858 12.75 19 12.75C19.4142 12.75 19.75 12.4142 19.75 12V10.75H21C21.4142 10.75 21.75 10.4142 21.75 10C21.75 9.58579 21.4142 9.25 21 9.25H19.75V8Z" fill="#231F2C"/>
</svg>
