<svg width="24" height="24" viewBox="0 0 24 24" fill="none" xmlns="http://www.w3.org/2000/svg">
<path fill-rule="evenodd" clip-rule="evenodd" d="M5.87929 1.97978C7.13157 1.67515 9.35163 1.25 12 1.25C14.6484 1.25 16.8684 1.67515 18.1207 1.97978C19.0799 2.2131 19.7818 2.98125 19.9667 3.92953C20.2675 5.4732 20.75 8.4929 20.75 12C20.75 14.6946 20.482 17.4268 19.9666 20.0706C19.7818 21.019 19.0798 21.7869 18.1207 22.0202C16.8684 22.3249 14.6484 22.75 12 22.75C9.35163 22.75 7.13157 22.3249 5.87929 22.0202C4.92015 21.7869 4.21817 21.0187 4.03334 20.0705C3.73246 18.5268 3.25 15.5071 3.25 12C3.25 8.4929 3.73246 5.4732 4.03334 3.92953C4.21817 2.98125 4.92015 2.2131 5.87929 1.97978ZM14.5 9.5C14.5 10.8807 13.3807 12 12 12C10.6193 12 9.5 10.8807 9.5 9.5C9.5 8.11929 10.6193 7 12 7C13.3807 7 14.5 8.11929 14.5 9.5ZM10.2858 13.1151C9.89782 12.9308 9.42305 12.9107 9.12443 13.2195C8.42833 13.9393 8 14.9196 8 16V16.1667C8 16.6269 8.3731 17 8.83333 17H15.1667C15.6269 17 16 16.6269 16 16.1667V16C16 14.9196 15.5717 13.9393 14.8756 13.2195C14.577 12.9107 14.1022 12.9308 13.7142 13.1151C13.1946 13.3619 12.6134 13.5 12 13.5C11.3866 13.5 10.8054 13.3619 10.2858 13.1151Z" fill="#231F2C"/>
</svg>
