<svg width="24" height="24" viewBox="0 0 24 24" fill="none" xmlns="http://www.w3.org/2000/svg">
<path d="M4.58033 4.76682L6.4865 3.23758C6.96299 2.85532 7.66035 2.9441 8.02647 3.43364L10.0376 6.12269C10.3604 6.55424 10.3176 7.1581 9.93719 7.53954L9.38301 8.09528C8.804 8.67592 8.614 9.53508 9.04384 10.234C9.14073 10.3915 9.25145 10.5623 9.37752 10.7446L6.12216 14C5.10261 12.6326 4.19599 11.1392 3.49071 9.87444C2.52485 8.14235 3.03504 6.00653 4.58033 4.76682Z" fill="#231F2C"/>
<path d="M20.7631 17.4403L19.1876 19.4152C17.9514 20.9649 15.8216 21.4765 14.0943 20.5079C12.1207 19.4012 10.1251 18.1504 8.447 16.6137L4.53033 20.5303C4.23744 20.8232 3.76256 20.8232 3.46967 20.5303C3.17678 20.2374 3.17678 19.7626 3.46967 19.4697L19.4697 3.46967C19.7626 3.17678 20.2374 3.17678 20.5303 3.46967C20.8232 3.76256 20.8232 4.23744 20.5303 4.53033L11.6932 13.3675C12.4207 14.0361 13.0691 14.5135 13.5905 14.8477C14.3537 15.3367 15.2996 15.0753 15.8654 14.366L16.3799 13.7211C16.7645 13.239 17.4724 13.176 17.9357 13.5825L20.6309 15.9474C21.0662 16.3294 21.1245 16.9873 20.7631 17.4403Z" fill="#231F2C"/>
</svg>
