<svg width="24" height="24" viewBox="0 0 24 24" fill="none" xmlns="http://www.w3.org/2000/svg">
<path fill-rule="evenodd" clip-rule="evenodd" d="M6.12311 4.25C3.95479 4.25 2.00471 5.73162 1.64125 7.9378C1.43389 9.19645 1.25 10.6797 1.25 12C1.25 13.5682 1.50967 15.3708 1.7621 16.7592C1.88918 17.4581 2.01622 18.0616 2.11161 18.4908C2.16291 18.7217 2.21522 18.9524 2.27239 19.1819C2.33155 19.4185 2.50206 19.6116 2.72955 19.6995C2.95704 19.7875 3.21309 19.7593 3.41603 19.624L5.91218 17.9599C6.11751 17.823 6.35877 17.75 6.60555 17.75H19.5585C20.7346 17.75 21.8222 16.9916 22.115 15.7904C22.403 14.6088 22.75 12.8142 22.75 11C22.75 9.18579 22.403 7.3912 22.115 6.20956C21.8222 5.00843 20.7346 4.25 19.5585 4.25H6.12311ZM8 11C8 11.5523 7.55228 12 7 12C6.44772 12 6 11.5523 6 11C6 10.4477 6.44772 10 7 10C7.55228 10 8 10.4477 8 11ZM18 11C18 11.5523 17.5523 12 17 12C16.4477 12 16 11.5523 16 11C16 10.4477 16.4477 10 17 10C17.5523 10 18 10.4477 18 11ZM12 12C12.5523 12 13 11.5523 13 11C13 10.4477 12.5523 10 12 10C11.4477 10 11 10.4477 11 11C11 11.5523 11.4477 12 12 12Z" fill="#231F2C"/>
</svg>
