<svg width="24" height="24" viewBox="0 0 24 24" fill="none" xmlns="http://www.w3.org/2000/svg">
<path d="M21.5303 3.53033C21.8232 3.23744 21.8232 2.76256 21.5303 2.46967C21.2374 2.17678 20.7626 2.17678 20.4697 2.46967L17.75 5.18934V4C17.75 3.58579 17.4142 3.25 17 3.25C16.5858 3.25 16.25 3.58579 16.25 4V7C16.25 7.41421 16.5858 7.75 17 7.75H20C20.4142 7.75 20.75 7.41421 20.75 7C20.75 6.58579 20.4142 6.25 20 6.25H18.8107L21.5303 3.53033Z" fill="#231F2C"/>
<path d="M20.7631 17.4403L19.1876 19.4152C17.9514 20.9649 15.8216 21.4765 14.0943 20.5079C11.9027 19.2789 9.6768 17.8724 7.8978 16.0884C6.1642 14.3499 4.58506 11.8369 3.49071 9.87444C2.52485 8.14235 3.03504 6.00653 4.58033 4.76682L6.4865 3.23758C6.96299 2.85532 7.66035 2.9441 8.02647 3.43364L10.0376 6.12269C10.3604 6.55424 10.3176 7.1581 9.93719 7.53954L9.38301 8.09528C8.804 8.67592 8.614 9.53508 9.04384 10.234C9.45507 10.9027 10.1156 11.8087 11.1405 12.8365C12.0929 13.7916 12.9403 14.431 13.5905 14.8477C14.3537 15.3367 15.2996 15.0753 15.8654 14.366L16.3799 13.7211C16.7645 13.239 17.4724 13.176 17.9357 13.5825L20.6309 15.9474C21.0662 16.3294 21.1245 16.9873 20.7631 17.4403Z" fill="#231F2C"/>
</svg>
