<svg width="24" height="24" viewBox="0 0 24 24" fill="none" xmlns="http://www.w3.org/2000/svg">
<path d="M18 2.25C17.5858 2.25 17.25 2.58579 17.25 3C17.25 3.41421 17.5858 3.75 18 3.75H19.1893L16.4697 6.46967C16.1768 6.76256 16.1768 7.23744 16.4697 7.53033C16.7626 7.82322 17.2374 7.82322 17.5303 7.53033L20.25 4.81066V6C20.25 6.41421 20.5858 6.75 21 6.75C21.4142 6.75 21.75 6.41421 21.75 6V3C21.75 2.58579 21.4142 2.25 21 2.25H18Z" fill="#231F2C"/>
<path d="M20.7631 17.4403L19.1876 19.4152C17.9514 20.9649 15.8216 21.4765 14.0943 20.5079C11.9111 19.2836 9.67621 17.8718 7.8978 16.0884C6.1642 14.3499 4.58506 11.8369 3.49071 9.87444C2.52485 8.14235 3.03504 6.00653 4.58033 4.76682L6.4865 3.23758C6.96299 2.85532 7.66035 2.9441 8.02647 3.43364L10.0376 6.12269C10.3604 6.55424 10.3176 7.1581 9.93719 7.53954L9.38301 8.09528C8.804 8.67592 8.614 9.53508 9.04384 10.234C9.45507 10.9027 10.1156 11.8087 11.1405 12.8365C12.0929 13.7916 12.9403 14.431 13.5905 14.8477C14.3537 15.3367 15.2996 15.0753 15.8654 14.366L16.3799 13.7211C16.7645 13.239 17.4724 13.176 17.9357 13.5825L20.6309 15.9474C21.0662 16.3294 21.1245 16.9873 20.7631 17.4403Z" fill="#231F2C"/>
</svg>
