<svg width="24" height="24" viewBox="0 0 24 24" fill="none" xmlns="http://www.w3.org/2000/svg">
<path fill-rule="evenodd" clip-rule="evenodd" d="M21.2871 5.51333C21.0957 4.09706 19.9168 3.23143 18.6804 3.2503C18.0994 3.25917 17.512 3.46154 17.0121 3.87252L13.177 7.02565C12.2307 7.80366 11.0603 8.25 9.86976 8.25H5C3.49033 8.25 2.25 9.44711 2.25 10.9881V13.0119C2.25 14.5529 3.49033 15.75 5 15.75H5.92158L4.56641 17.686C4.02496 18.4595 4.19473 19.523 4.95007 20.0895L5.36401 20.4C6.14527 20.9859 7.25492 20.8191 7.8293 20.0293L10.8662 15.8536C11.7017 16.0277 12.4972 16.4154 13.177 16.9743L17.0121 20.1275C18.5949 21.4288 21.0027 20.5911 21.2871 18.4867C21.576 16.3499 21.75 14.168 21.75 12C21.75 9.57476 21.5246 7.27007 21.2871 5.51333ZM5.79526 18.5462L7.75257 15.75H9.08676L6.6162 19.147C6.53414 19.2598 6.37562 19.2837 6.26401 19.2L5.85007 18.8895C5.74216 18.8086 5.71791 18.6566 5.79526 18.5462Z" fill="#231F2C"/>
</svg>
